<svg width="24" height="24" viewBox="0 0 24 24" fill="none" xmlns="http://www.w3.org/2000/svg">
<path fill-rule="evenodd" clip-rule="evenodd" d="M9.65907 0.228388C10.4169 0.0784608 11.1998 0 12 0C12.8002 0 13.5831 0.0784608 14.3409 0.228388C14.841 0.327325 15.1663 0.812947 15.0673 1.31306C14.9684 1.81316 14.4828 2.13838 13.9827 2.03944C13.3422 1.91273 12.6793 1.84615 12 1.84615C11.3207 1.84615 10.6578 1.91273 10.0173 2.03944C9.51724 2.13838 9.03162 1.81317 8.93268 1.31306C8.83374 0.812947 9.15896 0.327325 9.65907 0.228388ZM17.3875 2.27529C17.6711 1.85166 18.2444 1.73815 18.668 2.02177C19.9763 2.8976 21.1024 4.02374 21.9782 5.33196C22.2618 5.75559 22.1483 6.32892 21.7247 6.61253C21.3011 6.89615 20.7278 6.78264 20.4441 6.35901C19.7026 5.25132 18.7487 4.29744 17.641 3.55586C17.2174 3.27225 17.1039 2.69892 17.3875 2.27529ZM6.61253 2.27529C6.89615 2.69892 6.78264 3.27225 6.35901 3.55586C5.25132 4.29744 4.29744 5.25133 3.55586 6.35901C3.27225 6.78264 2.69892 6.89615 2.27529 6.61254C1.85166 6.32892 1.73815 5.75559 2.02177 5.33196C2.8976 4.02374 4.02374 2.8976 5.33196 2.02177C5.75559 1.73815 6.32892 1.85166 6.61253 2.27529ZM1.31306 8.93268C1.81316 9.03162 2.13838 9.51724 2.03944 10.0173C1.91273 10.6578 1.84615 11.3207 1.84615 12C1.84615 12.6793 1.91273 13.3422 2.03944 13.9827C2.13838 14.4828 1.81317 14.9684 1.31306 15.0673C0.812947 15.1663 0.327325 14.841 0.228388 14.3409C0.0784608 13.5831 0 12.8002 0 12C0 11.1998 0.0784608 10.4169 0.228388 9.65907C0.327325 9.15896 0.812947 8.83374 1.31306 8.93268ZM22.6869 8.93268C23.1871 8.83374 23.6727 9.15896 23.7716 9.65907C23.9215 10.4169 24 11.1998 24 12C24 12.8002 23.9215 13.5831 23.7716 14.3409C23.6727 14.841 23.1871 15.1663 22.6869 15.0673C22.1868 14.9684 21.8616 14.4828 21.9606 13.9827C22.0873 13.3422 22.1538 12.6793 22.1538 12C22.1538 11.3207 22.0873 10.6578 21.9606 10.0173C21.8616 9.51724 22.1868 9.03162 22.6869 8.93268ZM21.7247 17.3875C22.1483 17.6711 22.2618 18.2444 21.9782 18.668C21.1024 19.9763 19.9763 21.1024 18.668 21.9782C18.2444 22.2618 17.6711 22.1483 17.3875 21.7247C17.1039 21.3011 17.2174 20.7278 17.641 20.4441C18.7487 19.7026 19.7026 18.7487 20.4441 17.641C20.7278 17.2174 21.3011 17.1039 21.7247 17.3875ZM2.27529 17.3875C2.69892 17.1039 3.27225 17.2174 3.55586 17.641C4.29744 18.7487 5.25133 19.7026 6.35901 20.4441C6.78264 20.7278 6.89615 21.3011 6.61254 21.7247C6.32892 22.1483 5.75559 22.2618 5.33196 21.9782C4.02374 21.1024 2.8976 19.9763 2.02177 18.668C1.73815 18.2444 1.85166 17.6711 2.27529 17.3875ZM8.93268 22.6869C9.03162 22.1868 9.51724 21.8616 10.0173 21.9606C10.6578 22.0873 11.3207 22.1538 12 22.1538C12.6793 22.1538 13.3422 22.0873 13.9827 21.9606C14.4828 21.8616 14.9684 22.1868 15.0673 22.6869C15.1663 23.1871 14.841 23.6727 14.3409 23.7716C13.5831 23.9215 12.8002 24 12 24C11.1998 24 10.4169 23.9215 9.65907 23.7716C9.15896 23.6727 8.83374 23.1871 8.93268 22.6869Z" fill="#D3DAE8"/>
<path d="M10.528 11.944V13.18H8.224V15.484H6.976V13.18H4.672V11.944H6.976V9.628H8.224V11.944H10.528ZM16.1513 14.5H17.9753V16H12.4553V14.5H14.2793V9.616L12.8393 10.456L12.1313 9.112L14.8193 7.54H16.1513V14.5Z" fill="#D3DAE8"/>
</svg>
