<svg width="14" height="16" viewBox="0 0 14 16" fill="none" xmlns="http://www.w3.org/2000/svg">
<path d="M1.31274 14.6396C-0.437413 12.8267 -0.437745 9.89208 1.31274 8.07886L8.10187 1.04637C9.44885 -0.348789 11.6405 -0.348789 12.9874 1.04637C14.3374 2.44477 14.3377 4.70843 12.9874 6.10711L7.27077 12.0287C6.32305 13.0103 4.781 13.0103 3.83334 12.0287C2.88354 11.0449 2.88321 9.45205 3.83334 8.46796L8.67487 3.45283C8.81629 3.30637 9.04557 3.30637 9.18696 3.45283L9.69889 3.98318C9.84025 4.12962 9.84025 4.36702 9.69889 4.51346L4.85724 9.52864C4.47333 9.92627 4.47315 10.5701 4.85724 10.968C5.24031 11.3647 5.86367 11.3648 6.2468 10.9679L11.9634 5.0464C12.7475 4.23424 12.7477 2.91952 11.9635 2.10715C11.1811 1.29671 9.90814 1.29677 9.12577 2.10715L2.33667 9.13961C1.15243 10.3662 1.15216 12.352 2.33664 13.5789C3.52196 14.8067 5.44093 14.8066 6.62601 13.578C8.59582 11.5359 10.566 9.49416 12.5365 7.4528C12.6779 7.30633 12.9071 7.30643 13.0485 7.45293L13.5605 7.98327C13.7018 8.12971 13.702 8.36699 13.5606 8.51343C11.5902 10.5547 9.6201 12.5963 7.65039 14.6383C5.89937 16.4537 3.06407 16.4537 1.31274 14.6396Z" fill="#D3DAE8"/>
</svg>
