<svg  viewBox="0 0 74 78" fill="none" xmlns="http://www.w3.org/2000/svg">
<path d="M55.575 66.8044C56.1009 66.804 56.6215 66.6998 57.1071 66.4978C57.5927 66.2958 58.0338 66.0001 58.4052 65.6274L69.2856 54.7344C69.658 54.363 69.9535 53.9217 70.1553 53.4358C70.357 52.9499 70.461 52.4289 70.4613 51.9027V50.2783C70.4616 50.7094 70.3769 51.1363 70.2122 51.5347C70.0475 51.933 69.806 52.2949 69.5016 52.5998C69.1971 52.9046 68.8356 53.1464 68.4377 53.3113C68.0398 53.4761 67.6134 53.5609 67.1828 53.5607H60.5114C60.0807 53.5607 59.6542 53.6456 59.2563 53.8107C58.8585 53.9757 58.4969 54.2177 58.1925 54.5226C57.888 54.8276 57.6466 55.1897 57.4819 55.5881C57.3172 55.9865 57.2326 56.4135 57.2328 56.8447V63.5187C57.2337 64.3887 56.8896 65.2234 56.2761 65.8395C55.6626 66.4556 54.8299 66.8026 53.9609 66.8044H55.575Z" fill="#9DCDC1"/>
<path d="M22.406 16.0923H20.4459C19.6408 16.0915 18.8689 15.7709 18.2996 15.2009C17.7303 14.631 17.4101 13.8582 17.4092 13.0521V9.1123H19.4062V13.0521C19.4062 13.3282 19.5158 13.5929 19.7107 13.7881C19.9057 13.9833 20.1702 14.093 20.4459 14.093C20.9968 14.093 22.9569 16.0923 22.406 16.0923Z" fill="#9DCDC1"/>
<path d="M58.6887 16.0923H56.7286C55.9235 16.0915 55.1516 15.7709 54.5823 15.2009C54.013 14.631 53.6928 13.8582 53.6919 13.0521V9.1123H55.6889V13.0521C55.6894 13.3281 55.7991 13.5925 55.9939 13.7877C56.1888 13.9828 56.453 14.0926 56.7286 14.093C57.2812 14.093 58.6887 15.5408 58.6887 16.0923Z" fill="#9DCDC1"/>
<path d="M22.7976 36.065H18.041C17.916 36.065 17.7922 36.0403 17.6768 35.9924C17.5614 35.9445 17.4565 35.8742 17.3682 35.7857C17.2799 35.6971 17.2099 35.592 17.1622 35.4763C17.1145 35.3607 17.0901 35.2367 17.0903 35.1116V30.3512C17.0901 30.2261 17.1146 30.1023 17.1622 29.9867C17.2099 29.8711 17.28 29.7661 17.3683 29.6777C17.4566 29.5893 17.5615 29.5192 17.6769 29.4714C17.7924 29.4237 17.9161 29.3992 18.041 29.3994H22.7976C22.9225 29.3992 23.0462 29.4237 23.1617 29.4714C23.2771 29.5192 23.382 29.5893 23.4703 29.6777C23.5586 29.7661 23.6287 29.8711 23.6764 29.9867C23.7241 30.1023 23.7485 30.2261 23.7483 30.3512V35.1116C23.7485 35.2367 23.7241 35.3607 23.6764 35.4763C23.6287 35.592 23.5587 35.6971 23.4704 35.7857C23.3821 35.8742 23.2773 35.9445 23.1618 35.9924C23.0464 36.0403 22.9226 36.065 22.7976 36.065V36.065Z" fill="#9DCDC1"/>
<path d="M36.3683 36.065H31.6218C31.3692 36.065 31.127 35.9646 30.9484 35.7858C30.7698 35.607 30.6694 35.3644 30.6694 35.1116V30.3512C30.6694 30.226 30.6941 30.1021 30.742 29.9866C30.7898 29.871 30.86 29.766 30.9485 29.6776C31.0369 29.5892 31.1419 29.5191 31.2575 29.4714C31.373 29.4236 31.4968 29.3992 31.6218 29.3994H36.3767C36.5017 29.3992 36.6255 29.4236 36.741 29.4714C36.8566 29.5191 36.9616 29.5892 37.05 29.6776C37.1385 29.766 37.2086 29.871 37.2565 29.9866C37.3044 30.1021 37.3291 30.226 37.3291 30.3512V35.1116C37.3291 35.2375 37.3041 35.3622 37.2558 35.4784C37.2074 35.5946 37.1365 35.7001 37.0472 35.7887C36.9578 35.8774 36.8519 35.9474 36.7353 35.9949C36.6188 36.0423 36.4941 36.0661 36.3683 36.065V36.065Z" fill="#9DCDC1"/>
<path d="M49.9417 36.065H45.185C45.06 36.065 44.9363 36.0403 44.8208 35.9924C44.7054 35.9445 44.6005 35.8742 44.5122 35.7857C44.4239 35.6971 44.3539 35.592 44.3063 35.4763C44.2586 35.3607 44.2342 35.2367 44.2344 35.1116V30.3512C44.2342 30.2261 44.2586 30.1023 44.3063 29.9867C44.354 29.8711 44.424 29.7661 44.5123 29.6777C44.6006 29.5893 44.7055 29.5192 44.821 29.4714C44.9364 29.4237 45.0601 29.3992 45.185 29.3994H49.9417C50.0666 29.3992 50.1903 29.4237 50.3057 29.4714C50.4212 29.5192 50.526 29.5893 50.6144 29.6777C50.7027 29.7661 50.7727 29.8711 50.8204 29.9867C50.8681 30.1023 50.8925 30.2261 50.8923 30.3512V35.1116C50.8925 35.2367 50.8681 35.3607 50.8204 35.4763C50.7728 35.592 50.7028 35.6971 50.6145 35.7857C50.5262 35.8742 50.4213 35.9445 50.3059 35.9924C50.1904 36.0403 50.0666 36.065 49.9417 36.065V36.065Z" fill="#9DCDC1"/>
<path d="M63.5129 36.065H58.758C58.5054 36.065 58.2632 35.9646 58.0846 35.7858C57.906 35.607 57.8057 35.3644 57.8057 35.1116V30.3512C57.8057 30.226 57.8303 30.1021 57.8782 29.9866C57.9261 29.871 57.9962 29.766 58.0847 29.6776C58.1731 29.5892 58.2781 29.5191 58.3937 29.4714C58.5092 29.4236 58.633 29.3992 58.758 29.3994H63.5129C63.6379 29.3992 63.7617 29.4236 63.8773 29.4714C63.9928 29.5191 64.0978 29.5892 64.1862 29.6776C64.2747 29.766 64.3449 29.871 64.3928 29.9866C64.4406 30.1021 64.4653 30.226 64.4653 30.3512V35.1116C64.4653 35.2368 64.4406 35.3608 64.3928 35.4764C64.3449 35.5921 64.2748 35.6972 64.1863 35.7858C64.0979 35.8743 63.9929 35.9445 63.8774 35.9924C63.7618 36.0404 63.638 36.065 63.5129 36.065V36.065Z" fill="#9DCDC1"/>
<path d="M22.7976 48.4332H18.041C17.9161 48.4334 17.7924 48.4089 17.6769 48.3612C17.5615 48.3134 17.4566 48.2433 17.3683 48.1549C17.28 48.0665 17.2099 47.9615 17.1622 47.8459C17.1146 47.7303 17.0901 47.6065 17.0903 47.4814V42.7193C17.0903 42.4669 17.1905 42.2248 17.3688 42.0463C17.5471 41.8679 17.7889 41.7676 18.041 41.7676H22.7976C23.0497 41.7676 23.2915 41.8679 23.4698 42.0463C23.6481 42.2248 23.7483 42.4669 23.7483 42.7193V47.4814C23.7485 47.6065 23.7241 47.7303 23.6764 47.8459C23.6287 47.9615 23.5586 48.0665 23.4703 48.1549C23.382 48.2433 23.2771 48.3134 23.1617 48.3612C23.0462 48.4089 22.9225 48.4334 22.7976 48.4332V48.4332Z" fill="#9DCDC1"/>
<path d="M36.3683 48.4332H31.6218C31.4968 48.4334 31.373 48.4089 31.2575 48.3612C31.1419 48.3135 31.0369 48.2434 30.9485 48.155C30.86 48.0666 30.7898 47.9616 30.742 47.846C30.6941 47.7305 30.6694 47.6066 30.6694 47.4814V42.7193C30.6699 42.4668 30.7704 42.2247 30.949 42.0462C31.1275 41.8678 31.3695 41.7676 31.6218 41.7676H36.3767C36.629 41.7676 36.871 41.8678 37.0495 42.0462C37.2281 42.2247 37.3286 42.4668 37.3291 42.7193V47.4814C37.3291 47.6073 37.3041 47.7319 37.2557 47.848C37.2073 47.9641 37.1364 48.0695 37.0471 48.158C36.9577 48.2465 36.8517 48.3164 36.7352 48.3636C36.6187 48.4109 36.494 48.4345 36.3683 48.4332V48.4332Z" fill="#9DCDC1"/>
<path d="M49.9417 48.4332H45.185C45.0601 48.4334 44.9364 48.4089 44.821 48.3612C44.7055 48.3134 44.6006 48.2433 44.5123 48.1549C44.424 48.0665 44.354 47.9615 44.3063 47.8459C44.2586 47.7303 44.2342 47.6065 44.2344 47.4814V42.7193C44.2344 42.4669 44.3345 42.2248 44.5128 42.0463C44.6911 41.8679 44.9329 41.7676 45.185 41.7676H49.9417C50.1938 41.7676 50.4356 41.8679 50.6139 42.0463C50.7922 42.2248 50.8923 42.4669 50.8923 42.7193V47.4814C50.8925 47.6065 50.8681 47.7303 50.8204 47.8459C50.7727 47.9615 50.7027 48.0665 50.6144 48.1549C50.526 48.2433 50.4212 48.3134 50.3057 48.3612C50.1903 48.4089 50.0666 48.4334 49.9417 48.4332V48.4332Z" fill="#9DCDC1"/>
<path d="M63.5129 48.731H58.758C58.5057 48.731 58.2637 48.6308 58.0852 48.4524C57.9066 48.2739 57.8061 48.0319 57.8057 47.7793V43.0172C57.8057 42.8921 57.8303 42.7682 57.8782 42.6526C57.9261 42.537 57.9962 42.432 58.0847 42.3436C58.1731 42.2552 58.2781 42.1851 58.3937 42.1374C58.5092 42.0897 58.633 42.0652 58.758 42.0654H63.5129C63.6379 42.0652 63.7617 42.0897 63.8773 42.1374C63.9928 42.1851 64.0978 42.2552 64.1862 42.3436C64.2747 42.432 64.3449 42.537 64.3928 42.6526C64.4406 42.7682 64.4653 42.8921 64.4653 43.0172V47.7793C64.4648 48.0319 64.3643 48.2739 64.1858 48.4524C64.0072 48.6308 63.7652 48.731 63.5129 48.731V48.731Z" fill="#9DCDC1"/>
<path d="M22.7976 60.8023H18.041C17.9161 60.8025 17.7924 60.7781 17.6769 60.7303C17.5615 60.6826 17.4566 60.6125 17.3683 60.5241C17.28 60.4356 17.2099 60.3306 17.1622 60.2151C17.1146 60.0995 17.0901 59.9756 17.0903 59.8506V55.0885C17.0901 54.9634 17.1146 54.8396 17.1622 54.724C17.2099 54.6084 17.28 54.5034 17.3683 54.415C17.4566 54.3266 17.5615 54.2565 17.6769 54.2087C17.7924 54.161 17.9161 54.1365 18.041 54.1367H22.7976C22.9225 54.1365 23.0462 54.161 23.1617 54.2087C23.2771 54.2565 23.382 54.3266 23.4703 54.415C23.5586 54.5034 23.6287 54.6084 23.6764 54.724C23.7241 54.8396 23.7485 54.9634 23.7483 55.0885V59.8506C23.7485 59.9756 23.7241 60.0995 23.6764 60.2151C23.6287 60.3306 23.5586 60.4356 23.4703 60.5241C23.382 60.6125 23.2771 60.6826 23.1617 60.7303C23.0462 60.7781 22.9225 60.8025 22.7976 60.8023V60.8023Z" fill="#9DCDC1"/>
<path d="M36.3683 60.8028H31.6218C31.4968 60.803 31.373 60.7785 31.2575 60.7308C31.1419 60.6831 31.0369 60.613 30.9485 60.5246C30.86 60.4362 30.7898 60.3312 30.742 60.2156C30.6941 60.1 30.6694 59.9761 30.6694 59.851V55.0889C30.669 54.9635 30.6933 54.8392 30.741 54.7233C30.7887 54.6073 30.8588 54.5019 30.9473 54.4131C31.0358 54.3244 31.1409 54.254 31.2567 54.2061C31.3724 54.1581 31.4965 54.1336 31.6218 54.1338H36.3767C36.5017 54.1336 36.6255 54.158 36.741 54.2058C36.8566 54.2535 36.9616 54.3236 37.05 54.412C37.1385 54.5004 37.2087 54.6054 37.2565 54.7209C37.3044 54.8365 37.3291 54.9604 37.3291 55.0855V59.851C37.3291 59.9768 37.3041 60.1014 37.2557 60.2176C37.2073 60.3337 37.1364 60.4391 37.0471 60.5276C36.9577 60.6161 36.8517 60.686 36.7352 60.7332C36.6187 60.7805 36.494 60.8041 36.3683 60.8028V60.8028Z" fill="#9DCDC1"/>
<path d="M49.9417 60.8023H45.185C45.0601 60.8025 44.9364 60.7781 44.821 60.7303C44.7055 60.6826 44.6006 60.6125 44.5123 60.5241C44.424 60.4356 44.354 60.3306 44.3063 60.2151C44.2586 60.0995 44.2342 59.9756 44.2344 59.8506V55.0885C44.2342 54.9634 44.2586 54.8396 44.3063 54.724C44.354 54.6084 44.424 54.5034 44.5123 54.415C44.6006 54.3266 44.7055 54.2565 44.821 54.2087C44.9364 54.161 45.0601 54.1365 45.185 54.1367H49.9417C50.0666 54.1365 50.1903 54.161 50.3057 54.2087C50.4212 54.2565 50.526 54.3266 50.6144 54.415C50.7027 54.5034 50.7727 54.6084 50.8204 54.724C50.8681 54.8396 50.8925 54.9634 50.8923 55.0885V59.8506C50.8925 59.9756 50.8681 60.0995 50.8204 60.2151C50.7727 60.3306 50.7027 60.4356 50.6144 60.5241C50.526 60.6125 50.4212 60.6826 50.3057 60.7303C50.1903 60.7781 50.0666 60.8025 49.9417 60.8023V60.8023Z" fill="#9DCDC1"/>
<path fill-rule="evenodd" clip-rule="evenodd" d="M55.6588 9.10562H25.8593L25.9013 9.10548V6.58318C25.9004 5.77714 25.5802 5.00437 25.0109 4.43441C24.4416 3.86445 23.6697 3.54386 22.8646 3.54297H22.4061C21.601 3.54386 20.8291 3.86445 20.2598 4.43441C19.6905 5.00437 19.3702 5.77714 19.3694 6.58318V9.10562H15.0931C14.0336 9.10562 13.0175 9.52686 12.2682 10.2767C11.5189 11.0266 11.0978 12.0436 11.0973 13.1043V42.601L9.68315 41.186C9.44201 40.9444 9.15569 40.7528 8.84055 40.6221C8.52541 40.4914 8.18763 40.4241 7.84651 40.4241C7.50538 40.4241 7.1676 40.4914 6.85246 40.6221C6.53733 40.7528 6.25101 40.9444 6.00986 41.186L5.83252 41.362C5.14069 42.0478 4.34415 42.8374 3.82638 43.6141C1.23324 46.6175 -0.130074 50.4912 0.00978765 54.4586C0.149649 58.4259 1.78234 62.1938 4.58052 65.0066L12.9785 73.4059C15.7866 76.2102 19.55 77.8478 23.5138 77.99C27.4775 78.1322 31.3484 76.7686 34.3498 74.1727C35.1144 73.6551 35.9 72.8658 36.5783 72.1841C36.6449 72.1173 36.7107 72.0511 36.7751 71.9867C36.828 71.9336 36.8784 71.8785 36.9263 71.8216C37.1761 71.5245 37.3552 71.1766 37.4525 70.8044H66.462C66.9873 70.8044 67.5075 70.7007 67.9927 70.4992C68.4779 70.2978 68.9187 70.0025 69.2898 69.6303C69.661 69.2582 69.9551 68.8164 70.1556 68.3302C70.356 67.8441 70.4587 67.3232 70.4578 66.7973L70.4578 13.1178C70.4577 12.9623 70.4486 12.8077 70.4308 12.6547C70.3296 11.7596 69.9287 10.92 69.2863 10.2768C68.5372 9.52691 67.5213 9.10562 66.462 9.10562H62.1486L62.1908 9.10548V6.58318C62.1894 5.77728 61.8691 5.00476 61.2999 4.4349C60.7306 3.86504 59.959 3.5443 59.154 3.54297H58.6955C57.8904 3.54386 57.1185 3.86445 56.5492 4.43441C55.9799 5.00437 55.6597 5.77714 55.6588 6.58318V9.10562ZM57.6558 9.10562H60.187V6.58991C60.1886 6.45223 60.1628 6.31561 60.1112 6.18797C60.0597 6.06032 59.9834 5.94418 59.8867 5.84628C59.79 5.74838 59.6748 5.67065 59.5479 5.61761C59.421 5.56457 59.2848 5.53726 59.1473 5.53727H58.6888C58.4135 5.53949 58.1503 5.65077 57.9567 5.84677C57.7631 6.04278 57.6549 6.30755 57.6558 6.58318V9.10562ZM23.9043 6.58991V9.10562H21.3664V6.57814C21.3668 6.30222 21.4765 6.03773 21.6714 5.84262C21.8663 5.64752 22.1305 5.53771 22.4061 5.53727H22.8646C23.0021 5.53726 23.1383 5.56457 23.2652 5.61761C23.3921 5.67065 23.5073 5.74838 23.604 5.84628C23.7007 5.94418 23.777 6.06032 23.8285 6.18797C23.8801 6.31561 23.9058 6.45223 23.9043 6.58991Z" fill="#E4E9F3"/>
<path d="M70.0004 67.2607H18.6298C17.5704 67.2602 16.5545 66.8386 15.8055 66.0884C15.0565 65.3382 14.6357 64.321 14.6357 63.2603V46.9023H73.9945V63.2653C73.9932 64.3251 73.5719 65.3411 72.823 66.0902C72.0742 66.8393 71.059 67.2602 70.0004 67.2607Z" fill="#A9B2BE"/>
<path d="M59.1317 63.2605H18.6366C18.1111 63.2607 17.5907 63.1573 17.1052 62.9561C16.6197 62.7549 16.1786 62.4598 15.8071 62.0879C15.4355 61.7159 15.1408 61.2742 14.9398 60.7882C14.7389 60.3021 14.6355 59.7812 14.6357 59.2551V9.57252C14.6355 9.04638 14.7388 8.52536 14.9398 8.0392C15.1408 7.55305 15.4354 7.1113 15.807 6.73918C16.1785 6.36707 16.6196 6.07188 17.1051 5.87048C17.5906 5.66909 18.111 5.56543 18.6366 5.56543H69.9937C70.5192 5.56543 71.0396 5.66909 71.5251 5.87048C72.0107 6.07188 72.4518 6.36707 72.8233 6.73918C73.1948 7.1113 73.4895 7.55305 73.6905 8.0392C73.8914 8.52536 73.9947 9.04638 73.9945 9.57252V48.3806C73.9945 49.4434 71.5759 50.4624 70.8251 51.214L61.9619 60.0875C61.2111 60.8391 60.1932 63.2605 59.1317 63.2605Z" fill="white"/>
<path d="M59.1136 63.2615C60.1755 63.26 61.1934 62.8366 61.9438 62.0844L72.8242 51.1914C73.5756 50.4402 73.9985 49.4211 74 48.358V46.7354C74 47.6059 73.6545 48.4408 73.0397 49.0563C72.4248 49.6719 71.5909 50.0177 70.7214 50.0177H64.05C63.1805 50.0177 62.3465 50.3635 61.7317 50.9791C61.1168 51.5946 60.7714 52.4295 60.7714 53.3001V59.9741C60.7721 60.406 60.6876 60.8337 60.5228 61.2329C60.358 61.632 60.1162 61.9947 59.8111 62.3001C59.5061 62.6055 59.1439 62.8476 58.7452 63.0126C58.3465 63.1775 57.9192 63.2621 57.4878 63.2615H59.1136Z" fill="#666A73"/>
<path d="M73.9945 9.57291V19.8639H14.6357V9.57291C14.6362 8.51223 15.0574 7.49516 15.8067 6.7453C16.556 5.99545 17.5721 5.57422 18.6315 5.57422H70.0004C71.0597 5.57422 72.0756 5.99551 72.8247 6.74541C73.5737 7.49531 73.9945 8.51239 73.9945 9.57291V9.57291Z" fill="#6E46FF"/>
<path d="M25.9448 12.5494H23.9847C23.1793 12.5489 22.407 12.2285 21.8373 11.6585C21.2676 11.0885 20.9472 10.3155 20.9463 9.50917V5.56934H22.945V9.50917C22.945 9.78523 23.0546 10.05 23.2495 10.2452C23.4445 10.4404 23.7089 10.55 23.9847 10.55C24.5356 10.55 26.4957 12.5494 25.9448 12.5494Z" fill="#46A08D"/>
<path d="M62.2278 12.5494H60.266C59.4612 12.548 58.6897 12.2273 58.1208 11.6573C57.5518 11.0874 57.2318 10.3149 57.231 9.50917V5.56934H59.228V9.50917C59.2284 9.7848 59.3379 10.049 59.5324 10.2441C59.7269 10.4391 59.9907 10.5491 60.266 10.55C60.8203 10.55 62.2278 11.9978 62.2278 12.5494Z" fill="#46A08D"/>
<path d="M27.4429 5.56924V3.04694C27.4424 2.77102 27.3327 2.50653 27.1379 2.31142C26.943 2.11632 26.6788 2.00651 26.4032 2.00607H25.9446C25.6699 2.00606 25.4063 2.11475 25.2113 2.30845C25.0162 2.50215 24.9055 2.76517 24.9033 3.04021V9.50907C24.9033 9.78513 25.0128 10.0499 25.2078 10.2451C25.4028 10.4403 25.6672 10.5499 25.943 10.5499C26.208 10.5499 26.4622 10.6554 26.6496 10.843C26.837 11.0306 26.9423 11.2851 26.9423 11.5505C26.9423 11.8158 26.837 12.0703 26.6496 12.2579C26.4622 12.4456 26.208 12.551 25.943 12.551C25.1377 12.5496 24.3658 12.2287 23.7966 11.6584C23.2273 11.0882 22.9071 10.3153 22.9062 9.50907V3.04021C22.9071 2.23388 23.2276 1.46085 23.7973 0.890847C24.3669 0.320842 25.1392 0.000444996 25.9446 0H26.4032C27.208 0.00133501 27.9795 0.322125 28.5484 0.892034C29.1173 1.46194 29.4373 2.23446 29.4382 3.04021V5.56251L27.4429 5.56924Z" fill="#373A48"/>
<path d="M63.726 5.56924V3.04694C63.7256 2.77247 63.617 2.50924 63.424 2.31437C63.2309 2.11951 62.9689 2.00873 62.6947 2.00607H62.2362C62.0992 2.00452 61.9632 2.03006 61.836 2.08123C61.7089 2.1324 61.593 2.2082 61.4952 2.30427C61.3974 2.40035 61.3194 2.51481 61.2659 2.6411C61.2123 2.76739 61.1842 2.90302 61.1831 3.04021V9.50907C61.1831 9.78513 61.2926 10.0499 61.4876 10.2451C61.6826 10.4403 61.947 10.5499 62.2228 10.5499C62.4878 10.5499 62.742 10.6554 62.9294 10.843C63.1168 11.0306 63.2221 11.2851 63.2221 11.5505C63.2221 11.8158 63.1168 12.0703 62.9294 12.2579C62.742 12.4456 62.4878 12.551 62.2228 12.551C61.4175 12.5496 60.6456 12.2287 60.0763 11.6584C59.5071 11.0882 59.1869 10.3153 59.186 9.50907V3.04021C59.1869 2.23417 59.5071 1.4614 60.0765 0.891441C60.6458 0.321483 61.4176 0.000890162 62.2228 0H62.6947C63.4975 0.00443996 64.2659 0.326599 64.8324 0.896173C65.3988 1.46575 65.7171 2.23649 65.718 3.04021V5.56251L63.726 5.56924Z" fill="#373A48"/>
<path d="M26.3367 32.522H21.5801C21.3279 32.522 21.0861 32.4218 20.9078 32.2433C20.7296 32.0648 20.6294 31.8227 20.6294 31.5703V26.8082C20.6292 26.6831 20.6536 26.5593 20.7013 26.4437C20.749 26.3281 20.819 26.2231 20.9073 26.1347C20.9957 26.0463 21.1005 25.9762 21.216 25.9284C21.3314 25.8807 21.4551 25.8562 21.5801 25.8564H26.3367C26.5888 25.8564 26.8306 25.9567 27.0089 26.1352C27.1872 26.3137 27.2873 26.5558 27.2873 26.8082V31.5703C27.2869 31.8226 27.1866 32.0644 27.0084 32.2428C26.8302 32.4212 26.5887 32.5216 26.3367 32.522V32.522Z" fill="#6E46FF"/>
<path d="M39.9072 32.5221H35.1489C34.8969 32.5216 34.6554 32.4212 34.4772 32.2428C34.299 32.0644 34.1987 31.8226 34.1982 31.5703V26.8082C34.1982 26.5558 34.2984 26.3137 34.4767 26.1352C34.655 25.9567 34.8968 25.8565 35.1489 25.8565H39.9055C40.0307 25.8558 40.1548 25.8799 40.2706 25.9275C40.3864 25.975 40.4917 26.0451 40.5804 26.1335C40.6691 26.222 40.7394 26.3272 40.7873 26.4429C40.8352 26.5587 40.8598 26.6829 40.8595 26.8082V31.5703C40.8595 31.6954 40.8349 31.8193 40.787 31.9349C40.7391 32.0505 40.669 32.1555 40.5805 32.2439C40.4921 32.3323 40.3871 32.4024 40.2715 32.4501C40.156 32.4978 40.0322 32.5223 39.9072 32.5221Z" fill="#6E46FF"/>
<path d="M53.4802 32.522H48.7236C48.5988 32.522 48.4751 32.4974 48.3598 32.4496C48.2445 32.4018 48.1397 32.3317 48.0514 32.2433C47.9631 32.1549 47.8931 32.05 47.8453 31.9345C47.7975 31.819 47.773 31.6953 47.773 31.5703V26.8082C47.7727 26.6831 47.7972 26.5593 47.8449 26.4437C47.8926 26.3281 47.9626 26.2231 48.0509 26.1347C48.1392 26.0463 48.2441 25.9762 48.3595 25.9284C48.475 25.8807 48.5987 25.8562 48.7236 25.8564H53.4802C53.6051 25.8564 53.7287 25.8811 53.844 25.9289C53.9594 25.9767 54.0642 26.0468 54.1524 26.1352C54.2407 26.2236 54.3108 26.3285 54.3585 26.444C54.4063 26.5594 54.4309 26.6832 54.4309 26.8082V31.5703C54.4304 31.8226 54.3301 32.0644 54.152 32.2428C53.9738 32.4212 53.7322 32.5216 53.4802 32.522V32.522Z" fill="#6E46FF"/>
<path d="M67.0515 32.522H62.2966C62.0443 32.522 61.8023 32.4218 61.6238 32.2434C61.4452 32.0649 61.3447 31.8229 61.3442 31.5703V26.8082C61.3442 26.6831 61.3689 26.5592 61.4168 26.4436C61.4646 26.328 61.5348 26.223 61.6233 26.1346C61.7117 26.0462 61.8167 25.9761 61.9323 25.9284C62.0478 25.8807 62.1716 25.8562 62.2966 25.8564H67.0515C67.1765 25.8562 67.3003 25.8807 67.4158 25.9284C67.5314 25.9761 67.6364 26.0462 67.7248 26.1346C67.8133 26.223 67.8835 26.328 67.9313 26.4436C67.9792 26.5592 68.0039 26.6831 68.0039 26.8082V31.5703C68.0034 31.8229 67.9029 32.0649 67.7243 32.2434C67.5458 32.4218 67.3038 32.522 67.0515 32.522V32.522Z" fill="#6E46FF"/>
<path d="M26.3367 44.8852H21.5801C21.4551 44.8852 21.3313 44.8605 21.2159 44.8126C21.1004 44.7646 20.9955 44.6944 20.9072 44.6058C20.8189 44.5173 20.749 44.4121 20.7013 44.2965C20.6536 44.1808 20.6292 44.0569 20.6294 43.9317V39.178C20.6292 39.0529 20.6536 38.929 20.7013 38.8133C20.749 38.6976 20.8189 38.5925 20.9072 38.504C20.9955 38.4154 21.1004 38.3452 21.2159 38.2972C21.3313 38.2493 21.4551 38.2246 21.5801 38.2246H26.3367C26.589 38.2251 26.8308 38.3257 27.009 38.5045C27.1872 38.6832 27.2873 38.9255 27.2873 39.178V43.9385C27.2856 44.1899 27.1847 44.4304 27.0066 44.6077C26.8286 44.785 26.5878 44.8847 26.3367 44.8852V44.8852Z" fill="#6E46FF"/>
<path d="M39.9072 44.8852H35.1489C34.8966 44.8847 34.6548 44.7841 34.4766 44.6053C34.2983 44.4266 34.1982 44.1843 34.1982 43.9317V39.178C34.1982 38.9255 34.2983 38.6832 34.4766 38.5045C34.6548 38.3257 34.8966 38.2251 35.1489 38.2246H39.9055C40.0305 38.2246 40.1543 38.2493 40.2697 38.2972C40.3852 38.3452 40.49 38.4154 40.5783 38.504C40.6666 38.5925 40.7366 38.6976 40.7843 38.8133C40.832 38.929 40.8564 39.0529 40.8562 39.178V43.9385C40.8549 44.1897 40.7543 44.4302 40.5766 44.6076C40.3988 44.7849 40.1582 44.8847 39.9072 44.8852V44.8852Z" fill="#6E46FF"/>
<path d="M53.4802 44.8852H48.7236C48.5986 44.8852 48.4749 44.8605 48.3594 44.8126C48.244 44.7646 48.1391 44.6944 48.0508 44.6058C47.9625 44.5173 47.8925 44.4121 47.8448 44.2965C47.7972 44.1808 47.7727 44.0569 47.773 43.9317V39.178C47.7727 39.0529 47.7972 38.929 47.8448 38.8133C47.8925 38.6976 47.9625 38.5925 48.0508 38.504C48.1391 38.4154 48.244 38.3452 48.3594 38.2972C48.4749 38.2493 48.5986 38.2246 48.7236 38.2246H53.4802C53.7325 38.2251 53.9743 38.3257 54.1525 38.5045C54.3308 38.6832 54.4309 38.9255 54.4309 39.178V43.9385C54.4291 44.1899 54.3282 44.4304 54.1502 44.6077C53.9721 44.785 53.7314 44.8847 53.4802 44.8852Z" fill="#6E46FF"/>
<path d="M67.0515 45.1881H62.2966C62.1716 45.1883 62.0478 45.1638 61.9323 45.1161C61.8167 45.0684 61.7117 44.9983 61.6233 44.9099C61.5348 44.8215 61.4646 44.7165 61.4168 44.6009C61.3689 44.4853 61.3442 44.3614 61.3442 44.2363V39.4742C61.3442 39.3491 61.3689 39.2252 61.4168 39.1096C61.4646 38.994 61.5348 38.889 61.6233 38.8006C61.7117 38.7122 61.8167 38.6422 61.9323 38.5944C62.0478 38.5467 62.1716 38.5222 62.2966 38.5225H67.0515C67.1765 38.5222 67.3003 38.5467 67.4158 38.5944C67.5314 38.6422 67.6364 38.7122 67.7248 38.8006C67.8133 38.889 67.8835 38.994 67.9313 39.1096C67.9792 39.2252 68.0039 39.3491 68.0039 39.4742V44.2363C68.0039 44.3614 67.9792 44.4853 67.9313 44.6009C67.8835 44.7165 67.8133 44.8215 67.7248 44.9099C67.6364 44.9983 67.5314 45.0684 67.4158 45.1161C67.3003 45.1638 67.1765 45.1883 67.0515 45.1881Z" fill="#6E46FF"/>
<path d="M26.3367 57.2593H21.5801C21.4551 57.2596 21.3314 57.2351 21.216 57.1873C21.1005 57.1396 20.9957 57.0695 20.9073 56.9811C20.819 56.8927 20.749 56.7876 20.7013 56.6721C20.6536 56.5565 20.6292 56.4326 20.6294 56.3076V51.5455C20.6294 51.4205 20.654 51.2967 20.7018 51.1813C20.7495 51.0658 20.8196 50.9609 20.9078 50.8725C20.9961 50.7841 21.1009 50.714 21.2162 50.6662C21.3316 50.6184 21.4552 50.5938 21.5801 50.5938H26.3367C26.5887 50.5942 26.8302 50.6946 27.0084 50.873C27.1866 51.0514 27.2869 51.2932 27.2873 51.5455V56.3076C27.2873 56.56 27.1872 56.8021 27.0089 56.9806C26.8306 57.1591 26.5888 57.2593 26.3367 57.2593V57.2593Z" fill="#6E46FF"/>
<path d="M39.9072 57.2588H35.1489C34.8968 57.2588 34.655 57.1585 34.4767 56.98C34.2984 56.8015 34.1982 56.5594 34.1982 56.307V51.5449C34.2009 51.2941 34.3022 51.0544 34.4801 50.8778C34.6581 50.7012 34.8983 50.602 35.1489 50.6016H39.9055C40.0304 50.6016 40.154 50.6262 40.2693 50.674C40.3847 50.7218 40.4895 50.7919 40.5777 50.8803C40.666 50.9687 40.736 51.0736 40.7838 51.1891C40.8316 51.3046 40.8562 51.4283 40.8562 51.5533V56.3154C40.8544 56.5662 40.7536 56.8061 40.5759 56.9829C40.3981 57.1596 40.1577 57.2588 39.9072 57.2588V57.2588Z" fill="#6E46FF"/>
<path d="M53.4802 57.2593H48.7236C48.5987 57.2596 48.475 57.2351 48.3595 57.1873C48.2441 57.1396 48.1392 57.0695 48.0509 56.9811C47.9626 56.8927 47.8926 56.7876 47.8449 56.6721C47.7972 56.5565 47.7727 56.4326 47.773 56.3076V51.5455C47.773 51.4205 47.7975 51.2967 47.8453 51.1813C47.8931 51.0658 47.9631 50.9609 48.0514 50.8725C48.1397 50.7841 48.2445 50.714 48.3598 50.6662C48.4751 50.6184 48.5988 50.5938 48.7236 50.5938H53.4802C53.7322 50.5942 53.9738 50.6946 54.152 50.873C54.3301 51.0514 54.4304 51.2932 54.4309 51.5455V56.3076C54.4309 56.4326 54.4063 56.5563 54.3585 56.6718C54.3108 56.7873 54.2407 56.8922 54.1524 56.9806C54.0642 57.069 53.9594 57.1391 53.844 57.1869C53.7287 57.2347 53.6051 57.2593 53.4802 57.2593V57.2593Z" fill="#6E46FF"/>
<path d="M39.1029 65.9719L33.2428 60.1067C33.0017 59.8651 32.7153 59.6735 32.4002 59.5428C32.0851 59.412 31.7473 59.3447 31.4062 59.3447C31.065 59.3447 30.7273 59.412 30.4121 59.5428C30.097 59.6735 29.8107 59.8651 29.5695 60.1067L26.3682 63.31C25.9341 63.7451 25.5972 64.2674 25.3798 64.8425C25.1623 65.4176 25.0693 66.0324 25.1068 66.6462L25.1488 67.3188C25.1517 67.3605 25.145 67.4023 25.1291 67.4409C25.1132 67.4795 25.0886 67.5139 25.0572 67.5415C25.0258 67.569 24.9885 67.5889 24.9481 67.5995C24.9078 67.6102 24.8655 67.6114 24.8246 67.603C23.3311 67.2983 21.9601 66.5603 20.8826 65.4809L12.4947 57.0816C11.4148 56.004 10.6768 54.631 10.3733 53.1351C10.3653 53.0942 10.3667 53.052 10.3775 53.0118C10.3883 52.9715 10.4082 52.9343 10.4356 52.9029C10.463 52.8716 10.4973 52.847 10.5357 52.8309C10.5741 52.8149 10.6157 52.8079 10.6572 52.8105L11.3391 52.8526C11.952 52.8905 12.5659 52.7976 13.1401 52.5798C13.7144 52.3621 14.2358 52.0246 14.6698 51.5897L17.8711 48.3864C18.1124 48.145 18.3038 47.8583 18.4344 47.5428C18.5649 47.2273 18.6322 46.8892 18.6322 46.5477C18.6322 46.2061 18.5649 45.868 18.4344 45.5525C18.3038 45.237 18.1124 44.9503 17.8711 44.7089L12.011 38.842C11.7698 38.6005 11.4835 38.4088 11.1684 38.2781C10.8532 38.1474 10.5154 38.0801 10.1743 38.0801C9.83319 38.0801 9.49541 38.1474 9.18027 38.2781C8.86513 38.4088 8.57881 38.6005 8.33767 38.842C7.60873 39.5668 6.71686 40.426 6.15419 41.2702C3.55803 44.2751 2.19353 48.1522 2.33466 52.1227C2.47579 56.0933 4.11211 59.8634 6.91505 62.6761L15.3047 71.0753C18.1127 73.8797 21.8761 75.5173 25.8399 75.6595C29.8037 75.8017 33.6745 74.4381 36.6759 71.8421C37.5157 71.2738 38.3807 70.3775 39.1029 69.6561C39.5895 69.1678 39.8628 68.5063 39.8628 67.8165C39.8628 67.1268 39.5895 66.4652 39.1029 65.9769V65.9719Z" fill="#5E54AC"/>
<path d="M39.1036 65.9717L37.073 63.9404C37.3516 64.44 37.4601 65.0169 37.3819 65.5837C37.3037 66.1505 37.0431 66.6763 36.6396 67.0815C35.9107 67.8164 35.039 68.7244 34.1874 69.2978C31.421 71.6893 27.9162 73.0538 24.2627 73.1616C20.6093 73.2694 17.0302 72.114 14.1279 69.8897L15.3037 71.0668C18.112 73.8713 21.8757 75.5089 25.8397 75.6511C29.8038 75.7933 33.6749 74.4296 36.6766 71.8335C37.5164 71.2669 38.3797 70.3689 39.1019 69.6476C39.5889 69.1595 39.8624 68.4978 39.8624 67.808C39.8624 67.1181 39.5889 66.4564 39.1019 65.9684L39.1036 65.9717Z" fill="#524798"/>
<path d="M17.92 41.2088C17.756 41.2088 17.5984 41.1447 17.4811 41.03C17.3637 40.9153 17.2958 40.7592 17.2918 40.595C17.2845 40.2272 17.1353 39.8764 16.8754 39.6162C16.6155 39.3561 16.2652 39.2067 15.8977 39.1994C15.7311 39.1956 15.5729 39.1257 15.4577 39.005C15.3426 38.8844 15.2801 38.723 15.2839 38.5562C15.2876 38.3894 15.3575 38.2309 15.4779 38.1157C15.5984 38.0004 15.7597 37.9378 15.9263 37.9416C16.6164 37.9582 17.2737 38.2401 17.7618 38.7288C18.25 39.2175 18.5315 39.8755 18.5482 40.5664C18.5513 40.7328 18.4887 40.8937 18.3738 41.0141C18.259 41.1344 18.1013 41.2044 17.9351 41.2088H17.92Z" fill="#524798"/>
<path d="M20.8106 40.8501C20.6529 40.8498 20.5012 40.7901 20.3854 40.683C20.2697 40.5758 20.1984 40.429 20.1858 40.2717C20.1003 39.2476 19.6544 38.2872 18.9275 37.5616C18.2006 36.8361 17.24 36.3925 16.2169 36.31C16.1323 36.3066 16.0494 36.2861 15.973 36.2497C15.8966 36.2134 15.8283 36.162 15.7722 36.0986C15.7161 36.0352 15.6734 35.9611 15.6466 35.8808C15.6198 35.8005 15.6095 35.7156 15.6163 35.6311C15.6231 35.5467 15.6468 35.4646 15.6861 35.3896C15.7254 35.3146 15.7794 35.2483 15.8449 35.1947C15.9104 35.1411 15.986 35.1013 16.0673 35.0777C16.1485 35.0541 16.2337 35.0471 16.3176 35.0573C17.6387 35.1648 18.8786 35.7386 19.8163 36.6765C20.7539 37.6143 21.3283 38.8551 21.4371 40.1775C21.4491 40.3428 21.3956 40.5061 21.288 40.6321C21.1804 40.758 21.0276 40.8364 20.8626 40.8501H20.8106Z" fill="#524798"/>
</svg>
