<svg  viewBox="0 0 20 18" fill="none" xmlns="http://www.w3.org/2000/svg">
<path d="M7.7006 10.125C10.4336 10.125 12.651 7.85742 12.651 5.0625C12.651 2.26758 10.4336 0 7.7006 0C4.96758 0 2.75022 2.26758 2.75022 5.0625C2.75022 7.85742 4.96758 10.125 7.7006 10.125ZM7.7006 1.6875C9.51918 1.6875 11.0009 3.20273 11.0009 5.0625C11.0009 6.92227 9.51918 8.4375 7.7006 8.4375C5.88202 8.4375 4.40034 6.92227 4.40034 5.0625C4.40034 3.20273 5.88202 1.6875 7.7006 1.6875ZM10.7808 10.6875C9.79077 10.6875 9.32323 11.25 7.7006 11.25C6.08141 11.25 5.61044 10.6875 4.62036 10.6875C2.06954 10.6875 0 12.8039 0 15.4125V16.3125C0 17.2441 0.73912 18 1.65013 18H13.7511C14.6621 18 15.4012 17.2441 15.4012 16.3125V15.4125C15.4012 12.8039 13.3317 10.6875 10.7808 10.6875ZM13.7511 16.3125H1.65013V15.4125C1.65013 13.7391 2.98398 12.375 4.62036 12.375C5.12228 12.375 5.93703 12.9375 7.7006 12.9375C9.47793 12.9375 10.2755 12.375 10.7808 12.375C12.4172 12.375 13.7511 13.7391 13.7511 15.4125V16.3125Z" fill="#D3DAE8"/>
<path d="M18.8655 4C19.3312 4 19.6988 4.39515 19.6644 4.85894L19.3987 8.4511C19.3755 8.76446 19.1141 9.00689 18.7994 9.00689H17.8463C17.5285 9.00689 17.2657 8.75982 17.2465 8.44309L17.0289 4.84827C17.0011 4.38829 17.3671 4 17.8286 4H18.8655ZM19.3575 10.8229C19.3575 10.9873 19.3257 11.1405 19.2621 11.2825C19.1985 11.4245 19.1124 11.5479 19.0039 11.6525C18.8991 11.7609 18.7756 11.8449 18.6334 11.9047C18.4912 11.9682 18.3397 12 18.1788 12C18.0141 12 17.8607 11.9682 17.7185 11.9047C17.5763 11.8449 17.4509 11.7609 17.3424 11.6525C17.2376 11.5479 17.1534 11.4245 17.0898 11.2825C17.0299 11.1405 17 10.9873 17 10.8229C17 10.6622 17.0299 10.509 17.0898 10.3633C17.1534 10.2176 17.2376 10.0924 17.3424 9.98777C17.4509 9.8794 17.5763 9.79346 17.7185 9.72993C17.8607 9.66641 18.0141 9.63464 18.1788 9.63464C18.3397 9.63464 18.4912 9.66641 18.6334 9.72993C18.7756 9.79346 18.8991 9.8794 19.0039 9.98777C19.1124 10.0924 19.1985 10.2176 19.2621 10.3633C19.3257 10.509 19.3575 10.6622 19.3575 10.8229Z" fill="#D3DAE8"/>
</svg>
