<svg  viewBox="0 0 22 18" fill="none" xmlns="http://www.w3.org/2000/svg">
<path d="M20.4169 8.4375L21.8401 6.98203C22.0533 6.76406 22.0533 6.40547 21.8401 6.1875L21.4517 5.79023C21.2385 5.57227 20.8879 5.57227 20.6747 5.79023L19.2515 7.2457L17.8283 5.79023C17.6151 5.57227 17.2645 5.57227 17.0513 5.79023L16.6629 6.1875C16.4497 6.40547 16.4497 6.76406 16.6629 6.98203L18.0861 8.4375L16.6629 9.89297C16.4497 10.1109 16.4497 10.4695 16.6629 10.6875L17.0513 11.0848C17.2645 11.3027 17.6151 11.3027 17.8283 11.0848L19.2515 9.6293L20.6747 11.0848C20.8879 11.3027 21.2385 11.3027 21.4517 11.0848L21.8401 10.6875C22.0533 10.4695 22.0533 10.1109 21.8401 9.89297L20.4169 8.4375ZM7.7006 10.125C10.4336 10.125 12.651 7.85742 12.651 5.0625C12.651 2.26758 10.4336 0 7.7006 0C4.96758 0 2.75022 2.26758 2.75022 5.0625C2.75022 7.85742 4.96758 10.125 7.7006 10.125ZM7.7006 1.6875C9.51918 1.6875 11.0009 3.20273 11.0009 5.0625C11.0009 6.92227 9.51918 8.4375 7.7006 8.4375C5.88202 8.4375 4.40034 6.92227 4.40034 5.0625C4.40034 3.20273 5.88202 1.6875 7.7006 1.6875ZM10.7808 10.6875C9.79077 10.6875 9.32323 11.25 7.7006 11.25C6.08141 11.25 5.61044 10.6875 4.62036 10.6875C2.06954 10.6875 0 12.8039 0 15.4125V16.3125C0 17.2441 0.73912 18 1.65013 18H13.7511C14.6621 18 15.4012 17.2441 15.4012 16.3125V15.4125C15.4012 12.8039 13.3317 10.6875 10.7808 10.6875ZM13.7511 16.3125H1.65013V15.4125C1.65013 13.7391 2.98398 12.375 4.62036 12.375C5.12228 12.375 5.93703 12.9375 7.7006 12.9375C9.47793 12.9375 10.2755 12.375 10.7808 12.375C12.4172 12.375 13.7511 13.7391 13.7511 15.4125V16.3125Z" fill="#FFA08C"/>
</svg>
