<svg  viewBox="0 0 22 18" fill="none" xmlns="http://www.w3.org/2000/svg">
<path d="M21.8969 5.66367L21.2403 4.98867C21.1028 4.84453 20.8759 4.84453 20.7384 4.98867L17.1944 8.63437L15.565 6.95742C15.4275 6.81328 15.2006 6.81328 15.0631 6.95742L14.4031 7.63242C14.2656 7.77656 14.2656 8.00508 14.4031 8.14922L16.94 10.7613C17.0775 10.9055 17.3044 10.9055 17.4419 10.7613L21.8969 6.18047C22.0344 6.03984 22.0344 5.80781 21.8969 5.66367ZM7.7 10.125C10.4328 10.125 12.65 7.85742 12.65 5.0625C12.65 2.26758 10.4328 0 7.7 0C4.96719 0 2.75 2.26758 2.75 5.0625C2.75 7.85742 4.96719 10.125 7.7 10.125ZM7.7 1.6875C9.51844 1.6875 11 3.20273 11 5.0625C11 6.92227 9.51844 8.4375 7.7 8.4375C5.88156 8.4375 4.4 6.92227 4.4 5.0625C4.4 3.20273 5.88156 1.6875 7.7 1.6875ZM10.78 10.6875C9.79 10.6875 9.3225 11.25 7.7 11.25C6.08094 11.25 5.61 10.6875 4.62 10.6875C2.06938 10.6875 0 12.8039 0 15.4125V16.3125C0 17.2441 0.739062 18 1.65 18H13.75C14.6609 18 15.4 17.2441 15.4 16.3125V15.4125C15.4 12.8039 13.3306 10.6875 10.78 10.6875ZM13.75 16.3125H1.65V15.4125C1.65 13.7391 2.98375 12.375 4.62 12.375C5.12187 12.375 5.93656 12.9375 7.7 12.9375C9.47719 12.9375 10.2747 12.375 10.78 12.375C12.4163 12.375 13.75 13.7391 13.75 15.4125V16.3125Z" fill="#6E46FF"/>
</svg>
