<svg width="16" height="14" viewBox="0 0 16 14" fill="none" xmlns="http://www.w3.org/2000/svg">
<path d="M0 0.682927V2.39024C0 2.76743 0.2755 3.07317 0.615385 3.07317H15.3846C15.7245 3.07317 16 2.76743 16 2.39024V0.682927C16 0.305738 15.7245 0 15.3846 0L0.615385 0C0.2755 0 0 0.305738 0 0.682927ZM0.615385 14H15.3846C15.7245 14 16 13.6943 16 13.3171V11.6098C16 11.2326 15.7245 10.9268 15.3846 10.9268H0.615385C0.2755 10.9268 0 11.2326 0 11.6098V13.3171C0 13.6943 0.2755 14 0.615385 14ZM10.3846 5.46342H0.615385C0.2755 5.46342 0 5.76915 0 6.14634V7.85366C0 8.23085 0.2755 8.53659 0.615385 8.53659H10.3846C10.7245 8.53659 11 8.23085 11 7.85366V6.14634C11 5.76915 10.7245 5.46342 10.3846 5.46342Z" fill="#D3DAE8"/>
</svg>
