<svg  viewBox="0 0 20 18" fill="none" xmlns="http://www.w3.org/2000/svg">
<path d="M5.99127 7.23214C5.35756 7.23214 4.84559 7.75882 4.84559 8.41071C4.84559 9.06261 5.35756 9.58929 5.99127 9.58929C6.62498 9.58929 7.13696 9.06261 7.13696 8.41071C7.13696 7.75882 6.62498 7.23214 5.99127 7.23214ZM10.0012 7.23214C9.36746 7.23214 8.85548 7.75882 8.85548 8.41071C8.85548 9.06261 9.36746 9.58929 10.0012 9.58929C10.6349 9.58929 11.1469 9.06261 11.1469 8.41071C11.1469 7.75882 10.6349 7.23214 10.0012 7.23214ZM14.0111 7.23214C13.3774 7.23214 12.8654 7.75882 12.8654 8.41071C12.8654 9.06261 13.3774 9.58929 14.0111 9.58929C14.6448 9.58929 15.1568 9.06261 15.1568 8.41071C15.1568 7.75882 14.6448 7.23214 14.0111 7.23214ZM10.0012 0.75C4.93867 0.75 0.835689 4.17891 0.835689 8.41071C0.835689 10.1638 1.54816 11.7696 2.72965 13.0624C2.19619 14.5135 1.08631 15.7436 1.06841 15.7584C0.832109 16.0162 0.767664 16.3919 0.903714 16.716C1.03976 17.0401 1.35125 17.25 1.69495 17.25C3.89682 17.25 5.63325 16.3035 6.6751 15.5448C7.7098 15.8799 8.82684 16.0714 10.0012 16.0714C15.0637 16.0714 19.1666 12.6425 19.1666 8.41071C19.1666 4.17891 15.0637 0.75 10.0012 0.75ZM10.0012 14.3036C9.04524 14.3036 8.10005 14.1526 7.19424 13.8579L6.38152 13.5927L5.68337 14.101C5.17139 14.473 4.46966 14.8892 3.62472 15.1691C3.88608 14.7234 4.14027 14.2225 4.33719 13.6885L4.7167 12.6536L3.97916 11.8507C3.33113 11.1398 2.55422 9.96496 2.55422 8.41071C2.55422 5.16228 5.8946 2.51786 10.0012 2.51786C14.1077 2.51786 17.4481 5.16228 17.4481 8.41071C17.4481 11.6592 14.1077 14.3036 10.0012 14.3036Z" fill="#FFA08C"/>
</svg>
