<svg width="14" height="16" viewBox="0 0 14 16" fill="none" xmlns="http://www.w3.org/2000/svg">
<path d="M12.7057 7.14643L7.3099 12.4464C7.13854 12.6143 6.86146 12.6143 6.6901 12.4464L1.29427 7.14643C1.12292 6.97857 1.12292 6.70714 1.29427 6.53929L2.00885 5.83929C2.18385 5.66786 2.46458 5.67143 2.63229 5.84643L6.04844 9.31429V0.428571C6.04844 0.192857 6.24531 0 6.48594 0H7.50677C7.7474 0 7.94427 0.192857 7.94427 0.428571V9.31429L11.3604 5.84643C11.5318 5.675 11.8125 5.67143 11.9839 5.83929L12.6984 6.53929C12.8771 6.70714 12.8771 6.97857 12.7057 7.14643ZM13.5625 14.1429H0.4375C0.196875 14.1429 0 14.3357 0 14.5714V15.5714C0 15.8071 0.196875 16 0.4375 16H13.5625C13.8031 16 14 15.8071 14 15.5714V14.5714C14 14.3357 13.8031 14.1429 13.5625 14.1429Z" />
</svg>
