<svg fill="none" viewBox="0 0 14 14"  xmlns="http://www.w3.org/2000/svg">
<path d="m.682927 14h1.634143c.37719 0 .68293-.2755.68293-.6154v-12.769215c0-.339885-.30574-.61538321-.68293-.61538319l-1.634144.00000007c-.377189.00000001-.6829266.27549812-.68292659.61538312l.00000085 12.769215c.00000001.3399.30573774.6154.68292674.6154zm13.317073-.6154v-4.76922c0-.33988-.3057-.61538-.6829-.61538h-1.6342c-.3772 0-.6829.2755-.6829.61538v4.76922c0 .3399.3057.6154.6829.6154h1.6342c.3772 0 .6829-.2755.6829-.6154zm-8.5-8.76921v8.76921c0 .3399.30574.6154.68293.6154h1.63414c.37719 0 .68293-.2755.68293-.6154v-8.76921c0-.33989-.30574-.61539-.68293-.61539h-1.63414c-.37719 0-.68293.2755-.68293.61539z" fill="#d3dae8"/></svg>
