<svg width="20" height="14" viewBox="0 0 20 14" fill="none" xmlns="http://www.w3.org/2000/svg">
<path d="M17 6C15.8969 6 15 5.10313 15 4C15 2.89687 15.8969 2 17 2C18.1031 2 19 2.89687 19 4C19 5.10313 18.1031 6 17 6ZM3 6C1.89688 6 1 5.10313 1 4C1 2.89687 1.89688 2 3 2C4.10312 2 5 2.89687 5 4C5 5.10313 4.10312 6 3 6ZM2 7H4C4.55 7 5.04688 7.22188 5.40938 7.58125C4.15 8.27188 3.25625 9.51875 3.0625 11H1C0.446875 11 0 10.5531 0 10V9C0 7.89687 0.896875 7 2 7ZM10 7C8.06563 7 6.5 5.43437 6.5 3.5C6.5 1.56562 8.06563 0 10 0C11.9344 0 13.5 1.56562 13.5 3.5C13.5 5.43437 11.9344 7 10 7ZM7.6 8H7.85938C8.50937 8.3125 9.23125 8.5 10 8.5C10.7688 8.5 11.4875 8.3125 12.1406 8H12.4C14.3875 8 16 9.6125 16 11.6V12.5C16 13.3281 15.3281 14 14.5 14H5.5C4.67188 14 4 13.3281 4 12.5V11.6C4 9.6125 5.6125 8 7.6 8ZM14.5906 7.58125C14.9531 7.22188 15.45 7 16 7H18C19.1031 7 20 7.89687 20 9V10C20 10.5531 19.5531 11 19 11H16.9406C16.7437 9.51875 15.85 8.27188 14.5906 7.58125Z" fill="#D3DAE8"/>
</svg>
