<svg width="16" height="16" viewBox="0 0 16 16" fill="none" xmlns="http://www.w3.org/2000/svg">
<path d="M15.6129 0H15.2903C15.0765 0 14.9032 0.173323 14.9032 0.387097V3.95571C13.5138 1.58906 10.9427 0 8 0C3.71703 0 0.220129 3.36574 0.01 7.59655C-0.00093547 7.81648 0.176613 8 0.396806 8H0.719903C0.924839 8 1.09558 7.84035 1.10626 7.63571C1.29539 4.00697 4.29345 1.09677 8 1.09677C10.673 1.09677 12.9915 2.61539 14.1384 4.83871H10.4516C10.2378 4.83871 10.0645 5.01203 10.0645 5.22581V5.54839C10.0645 5.76216 10.2378 5.93548 10.4516 5.93548H15.6129C15.8267 5.93548 16 5.76216 16 5.54839V0.387097C16 0.173323 15.8267 0 15.6129 0ZM15.6032 8H15.2801C15.0752 8 14.9044 8.15965 14.8938 8.36429C14.7045 12.0051 11.695 14.9032 8 14.9032C5.33523 14.9032 3.01058 13.3886 1.86132 11.1613H5.54839C5.76216 11.1613 5.93548 10.988 5.93548 10.7742V10.4516C5.93548 10.2378 5.76216 10.0645 5.54839 10.0645H0.387097C0.173323 10.0645 0 10.2378 0 10.4516V15.6129C0 15.8267 0.173323 16 0.387097 16H0.709677C0.923452 16 1.09677 15.8267 1.09677 15.6129V12.0443C2.48616 14.4109 5.05732 16 8 16C12.283 16 15.7799 12.6343 15.99 8.40345C16.0009 8.18352 15.8234 8 15.6032 8Z" fill="#6E46FF"/>
</svg>
