<svg width="16" height="16" viewBox="0 0 16 16" fill="none" xmlns="http://www.w3.org/2000/svg">
<path fill-rule="evenodd" clip-rule="evenodd" d="M6.12979 0C5.96496 0 5.80538 0.0579824 5.679 0.163793C5.55261 0.269603 5.46747 0.41651 5.43849 0.578772L4.80418 4.13081H1.83347C1.66863 4.13081 1.50905 4.1888 1.38266 4.29463C1.25628 4.40044 1.17115 4.54736 1.14218 4.70963L0.994636 5.53579C0.917798 5.96622 1.24874 6.36145 1.68597 6.36145H4.40584L3.82064 9.63855H0.849958C0.68512 9.63856 0.525536 9.69655 0.399151 9.80237C0.27277 9.90819 0.187637 10.0551 0.158664 10.2174L0.0111251 11.0435C-0.0657101 11.4739 0.26521 11.8692 0.702425 11.8692H3.42229L2.83209 15.1743C2.75525 15.6048 3.08619 16 3.52342 16H4.36267C4.52751 16 4.68709 15.942 4.81348 15.8362C4.93986 15.7304 5.02499 15.5835 5.05396 15.4212L5.68824 11.8692H8.93003L8.33983 15.1743C8.263 15.6048 8.59392 16 9.03113 16H9.87038C10.0352 16 10.1948 15.942 10.3212 15.8362C10.4476 15.7304 10.5327 15.5835 10.5617 15.4212L11.196 11.8692H14.1667C14.3315 11.8692 14.4911 11.8112 14.6175 11.7054C14.7438 11.5996 14.829 11.4526 14.858 11.2904L15.0055 10.4642C15.0823 10.0338 14.7514 9.63855 14.3142 9.63855H11.5943L12.1795 6.36145H15.1502C15.315 6.36144 15.4746 6.30345 15.601 6.19763C15.7274 6.09181 15.8125 5.9449 15.8415 5.78264L15.989 4.95646C16.0659 4.52606 15.735 4.13081 15.2977 4.13081H12.5779L13.1681 0.825687C13.2449 0.39531 12.914 0 12.4768 0H11.6375C11.4727 0 11.3131 0.0579822 11.1867 0.163793C11.0604 0.269604 10.9752 0.416511 10.9462 0.578772L10.3119 4.13081H7.07013L7.66033 0.825687C7.73716 0.39531 7.40628 0 6.96903 0H6.12979ZM6.08658 9.63855L6.67178 6.36145H9.91358L9.32838 9.63855H6.08658Z" fill="#D3DAE8"/>
</svg>
