<svg width="22" height="18" viewBox="0 0 22 18"  xmlns="http://www.w3.org/2000/svg">
<path fill-rule="evenodd" clip-rule="evenodd" d="M15.8899 6.25477H19.6497C20.9454 6.25477 22 7.29133 22 8.5649C22 8.7396 21.9795 8.9143 21.9397 9.08472L20.5812 15.5676C20.204 16.9218 19.5 18 17.5125 18L11.1818 17.5135C8 17.027 8 16.2699 8 14.5946V7.84047C8 7.06717 8.2896 6.32441 8.81596 5.7484L13.8907 0.206978C14.0492 0.0341133 14.2903 -0.0373533 14.5178 0.0188428L15.4524 0.248513C16.0335 0.390835 16.5033 0.782375 16.7413 1.32234C16.9793 1.86171 16.9495 2.46581 16.6587 2.97952L15.3331 5.32571C15.174 5.60791 15.2859 5.85407 15.3412 5.94631C15.3965 6.03915 15.5612 6.25477 15.8899 6.25477ZM0 16.2479V6.129C0 5.43041 0.67154 4.86414 1.5 4.86414H5C5.55228 4.86414 6 5.31185 6 5.86414V16.5128C6 17.0651 5.55228 17.5128 5 17.5128H1.5C0.67154 17.5128 0 16.9464 0 16.2479Z" />
</svg>
