<svg  viewBox="0 0 20 20" fill="none" xmlns="http://www.w3.org/2000/svg">
<path fill-rule="evenodd" clip-rule="evenodd" d="M8.64648 2.52078C7.99467 2.39857 7.36719 2.82789 7.24497 3.47971L6.76426 6.04352H4.48819C3.82501 6.04352 3.2874 6.58113 3.2874 7.24431C3.2874 7.90748 3.82501 8.44509 4.48819 8.44509L6.31396 8.44509L5.73079 11.5553H3.70079C3.03761 11.5553 2.5 12.0929 2.5 12.7561C2.5 13.4193 3.03761 13.9569 3.70079 13.9569H5.2805L4.88277 16.0781C4.76055 16.7299 5.18988 17.3574 5.8417 17.4796C6.49352 17.6019 7.12099 17.1725 7.24321 16.5207L7.72392 13.9569L10.7923 13.9569L10.3946 16.0781C10.2724 16.7299 10.7017 17.3574 11.3535 17.4796C12.0053 17.6019 12.6328 17.1725 12.755 16.5207L13.2357 13.9569H15.5118C16.175 13.9569 16.7126 13.4193 16.7126 12.7561C16.7126 12.0929 16.175 11.5553 15.5118 11.5553H13.686L14.2692 8.4451L16.2992 8.4451C16.9624 8.4451 17.5 7.90748 17.5 7.24431C17.5 6.58113 16.9624 6.04352 16.2992 6.04352L14.7195 6.04352L15.1172 3.92229C15.2394 3.27048 14.8101 2.643 14.1583 2.52078C13.5065 2.39857 12.879 2.82789 12.7568 3.47971L12.2761 6.04352L9.20768 6.04352L9.60541 3.92229C9.72763 3.27048 9.2983 2.643 8.64648 2.52078ZM8.17422 11.5553L8.75739 8.44509L11.8258 8.4451L11.2426 11.5553L8.17422 11.5553Z" fill="#5F9EE1"/>
</svg>
