<svg  viewBox="0 0 20 20" fill="none" xmlns="http://www.w3.org/2000/svg">
<circle cx="10" cy="9.99992" r="9.16667" fill="#FFA08C"/>
<path d="M11.004 5.64154L14.3713 12.5258C14.5127 12.8054 14.5833 13.0152 14.5833 13.155C14.5833 13.4511 14.3422 13.7184 13.86 13.9569C13.5773 14.0968 13.3528 14.1667 13.1865 14.1667C13.0285 14.1667 12.8955 14.1297 12.7874 14.0556C12.6876 13.9816 12.6128 13.9035 12.5629 13.8212C12.5213 13.739 12.459 13.6156 12.3758 13.4511L11.7273 12.1187H8.27267L7.62414 13.4511C7.541 13.6156 7.47448 13.7349 7.42459 13.8089C7.38302 13.8829 7.30819 13.961 7.2001 14.0433C7.10033 14.1173 6.9673 14.1543 6.80101 14.1543C6.64304 14.1543 6.4227 14.0844 6.14001 13.9446C5.65778 13.7143 5.41666 13.4511 5.41666 13.155C5.41666 13.0152 5.48733 12.8054 5.62867 12.5258L8.99602 5.62921C9.08748 5.44003 9.22467 5.28787 9.40759 5.17272C9.59882 5.05757 9.79837 5 10.0062 5C10.4552 5 10.7878 5.21385 11.004 5.64154ZM9.99999 8.33333L8.99602 10.2927H11.004L9.99999 8.33333Z" fill="white"/>
</svg>
