<svg  viewBox="0 0 20 20" fill="none" xmlns="http://www.w3.org/2000/svg">
<path d="M17.4479 17.5H2.55208C1.60283 17.5 0.833328 16.6605 0.833328 15.625V4.375C0.833328 3.33945 1.60283 2.5 2.55208 2.5H17.4479C18.3972 2.5 19.1667 3.33945 19.1667 4.375V15.625C19.1667 16.6605 18.3972 17.5 17.4479 17.5ZM4.84374 4.6875C3.7363 4.6875 2.83854 5.66688 2.83854 6.875C2.83854 8.08313 3.7363 9.0625 4.84374 9.0625C5.95119 9.0625 6.84895 8.08313 6.84895 6.875C6.84895 5.66688 5.95119 4.6875 4.84374 4.6875ZM3.12499 15H16.875V10.625L13.7413 7.20645C13.5735 7.0234 13.3015 7.0234 13.1336 7.20645L8.28124 12.5L6.2934 10.3314C6.12561 10.1484 5.85355 10.1484 5.68572 10.3314L3.12499 13.125V15Z" fill="#6E46FF"/>
</svg>
