<svg fill="none" height="40" viewBox="0 0 40 40" width="40" xmlns="http://www.w3.org/2000/svg" xmlns:xlink="http://www.w3.org/1999/xlink"><linearGradient id="a" gradientUnits="userSpaceOnUse" x1="20" x2="20" y1="31.5368" y2="11.5368"><stop offset="0" stop-color="#155cde"/><stop offset=".278" stop-color="#1f7fe5"/><stop offset=".569" stop-color="#279ceb"/><stop offset=".82" stop-color="#2cafef"/><stop offset="1" stop-color="#2eb5f0"/></linearGradient><path d="m0 20c0-11.04569 8.95431-20 20-20 11.0457 0 20 8.95431 20 20 0 11.0457-8.9543 20-20 20-11.04569 0-20-8.9543-20-20z" fill="#e6fbff"/><path d="m28.1818 10h-16.3636c-1.0041 0-1.8182.8141-1.8182 1.8182v16.3636c0 1.0041.8141 1.8182 1.8182 1.8182h16.3636c1.0041 0 1.8182-.8141 1.8182-1.8182v-16.3636c0-1.0041-.8141-1.8182-1.8182-1.8182z" fill="url(#a)"/><path d="m14.0909 17.2725h.9091c.5023 0 .9091.4069.9091.9091v7.7273c0 .5023-.4068.9091-.9091.9091h-.9091c-.5023 0-.9091-.4068-.9091-.9091v-7.7273c0-.5022.4068-.9091.9091-.9091zm.4459-1.3636h-.015c-.8136 0-1.34-.6073-1.34-1.3636 0-.7755.5432-1.3637 1.3723-1.3637.8286 0 1.34.5882 1.355 1.3637 0 .7563-.5264 1.3636-1.3723 1.3636zm11.3723 10.9091h-.9091c-.5023 0-.9091-.4068-.9091-.9091v-4.26c0-1.2495-.6845-2.1018-1.9268-2.1018-.8877 0-1.4241.575-1.6482 1.1295-.0823.2-.0613.7505-.0613 1.0278v4.2045c0 .5023-.4037.9091-.906.9091h-.9122c-.5023 0-.9091-.4068-.9091-.9091v-7.7273c0-.5022.4068-.9091.9091-.9091h.9122c.5023 0 .9091.4069.9091.9091v.4641c.4109-.6345 1.1623-1.3732 2.8028-1.3732 2.0331 0 3.5577 1.165 3.5577 4.0191v4.6173c0 .5023-.4068.9091-.9091.9091z" fill="#fff"/></svg>