<svg fill="none" height="40" viewBox="0 0 40 40" width="40" xmlns="http://www.w3.org/2000/svg" xmlns:xlink="http://www.w3.org/1999/xlink"><linearGradient id="a" gradientUnits="userSpaceOnUse" x1="12.2961" x2="29.1382" y1="12.2961" y2="29.1382"><stop offset="0" stop-color="#2aa4f4"/><stop offset="1" stop-color="#007ad9"/></linearGradient><path d="m0 20c0-11.04569 8.95431-20 20-20 11.0457 0 20 8.95431 20 20 0 11.0457-8.9543 20-20 20-11.04569 0-20-8.9543-20-20z" fill="#eaf4ff"/><path d="m20 9c-6.0753 0-11 4.9247-11 11s4.9247 11 11 11 11-4.9247 11-11-4.9247-11-11-11z" fill="url(#a)"/><path d="m21.4889 22.9156h2.8468l.4471-2.8919h-3.2939v-1.5807c0-1.2012.3927-2.2666 1.5163-2.2666h1.8057v-2.5234c-.3174-.0429-.9884-.1364-2.2561-.1364-2.6477 0-4.1998 1.3981-4.1998 4.5837v1.9239h-2.722v2.8919h2.7214v7.9486c.539.0803 1.0852.1353 1.6456.1353.5066 0 1.001-.0462 1.4889-.1122z" fill="#fff"/></svg>