<svg fill="none" height="40" viewBox="0 0 40 40" width="40" xmlns="http://www.w3.org/2000/svg" xmlns:xlink="http://www.w3.org/1999/xlink"><radialGradient id="a" cx="17.435" cy="30.0144" gradientUnits="userSpaceOnUse" r="24.9307"><stop offset="0" stop-color="#fd5"/><stop offset=".328" stop-color="#ff543f"/><stop offset=".348" stop-color="#fc5245"/><stop offset=".504" stop-color="#e64771"/><stop offset=".643" stop-color="#d53e91"/><stop offset=".761" stop-color="#cc39a4"/><stop offset=".841" stop-color="#c837ab"/></radialGradient><radialGradient id="b" cx="0" cy="0" gradientTransform="matrix(16.554 0 0 11.03 13.2183 9.7503)" gradientUnits="userSpaceOnUse" r="1"><stop offset="0" stop-color="#4168c9"/><stop offset=".999" stop-color="#4168c9" stop-opacity="0"/></radialGradient><path d="m0 20c0-11.04569 8.95431-20 20-20 11.0457 0 20 8.95431 20 20 0 11.0457-8.9543 20-20 20-11.04569 0-20-8.9543-20-20z" fill="#fff0da"/><path d="m25.5623 29.9895-11.1052.0105c-2.4432.0022-4.4438-1.9945-4.4465-4.4377l-.0106-11.1052c-.00222-2.4432 1.9945-4.4438 4.4377-4.4465l11.1052-.0106c2.4432-.00222 4.4438 1.9945 4.4466 4.4377l.0105 11.1052c.0028 2.4437-1.9945 4.4443-4.4377 4.4466z" fill="url(#a)"/><path d="m25.5623 29.9895-11.1052.0105c-2.4432.0022-4.4438-1.9945-4.4465-4.4377l-.0106-11.1052c-.00222-2.4432 1.9945-4.4438 4.4377-4.4465l11.1052-.0106c2.4432-.00222 4.4438 1.9945 4.4466 4.4377l.0105 11.1052c.0028 2.4437-1.9945 4.4443-4.4377 4.4466z" fill="url(#b)"/><g fill="#fff"><path d="m20.0002 23.887c-2.1428 0-3.8869-1.7436-3.8869-3.8869s1.7441-3.8868 3.8869-3.8868c2.1427 0 3.8868 1.7435 3.8868 3.8868s-1.7441 3.8869-3.8868 3.8869zm0-6.6632c-1.5309 0-2.7763 1.2455-2.7763 2.7763 0 1.5309 1.2454 2.7763 2.7763 2.7763 1.5308 0 2.7763-1.2454 2.7763-2.7763 0-1.5308-1.2455-2.7763-2.7763-2.7763z"/><path d="m24.1647 16.6687c.46 0 .8329-.3729.8329-.8329s-.3729-.8329-.8329-.8329-.8329.3729-.8329.8329.3729.8329.8329.8329z"/><path d="m23.3318 27.2191h-6.6632c-2.1427 0-3.8868-1.7436-3.8868-3.8869v-6.6631c0-2.1433 1.7441-3.8869 3.8868-3.8869h6.6632c2.1427 0 3.8868 1.7436 3.8868 3.8869v6.6631c0 2.1433-1.7441 3.8869-3.8868 3.8869zm-6.6632-13.3263c-1.5308 0-2.7763 1.2454-2.7763 2.7763v6.6631c0 1.5309 1.2455 2.7763 2.7763 2.7763h6.6632c1.5308 0 2.7763-1.2454 2.7763-2.7763v-6.6631c0-1.5309-1.2455-2.7763-2.7763-2.7763z"/></g></svg>