<svg  viewBox="0 0 1280 620" fill="none" xmlns="http://www.w3.org/2000/svg">
<path d="M1163.44 619.957C1162.46 619.957 1161.49 619.956 1160.52 619.954C1030.94 619.685 934.265 601.536 836.221 583.936C737.444 566.205 644.711 549.589 524.211 549.589C403.972 549.589 311.177 566.218 212.944 583.821L212.303 583.936L212.051 583.981C113.658 601.613 11.0496 620 -119.791 620C-250.743 620 -353.107 601.667 -451.987 583.936L-452.302 583.879C-551.064 566.169 -643.523 549.589 -763.896 549.589C-884.333 549.589 -977.338 566.273 -1075.65 583.908L-1075.8 583.936C-1174.17 601.582 -1276.95 620 -1408 620V70.4106C-1287.66 70.4106 -1194.71 53.7537 -1096.38 36.134L-1095.99 36.064L-1095.51 35.9779C-997.186 18.3585 -894.737 0 -763.896 0C-632.914 0 -530.795 18.3122 -431.966 36.0344L-431.802 36.064L-431.487 36.1203C-332.725 53.8306 -240.267 70.4106 -119.791 70.4106C0.449097 70.4106 93.0875 53.8099 191.228 36.2232L192.117 36.064L192.368 36.019C290.762 18.3871 393.37 0 524.211 0C655.163 0 757.425 18.3325 856.305 36.064C955.185 53.7954 1042.94 70.4106 1163.44 70.4106C1283.78 70.4106 1376.73 53.7537 1475.06 36.134L1475.45 36.064L1475.93 35.9781C1574.25 18.3586 1676.7 0 1807.54 0C1938.52 0 2040.64 18.312 2139.47 36.0342L2139.64 36.064L2139.95 36.1204C2238.71 53.8307 2331.17 70.4106 2451.54 70.4106C2541.01 70.4106 2615.34 61.2038 2688 49.2393V600.355C2617.3 611.417 2541.01 620 2451.54 620C2320.56 620 2218.45 601.688 2119.62 583.966L2119.45 583.936L2119.14 583.879C2020.37 566.169 1927.92 549.589 1807.54 549.589C1687.2 549.589 1594.25 566.246 1495.92 583.866L1495.53 583.936C1423.96 596.762 1350.21 609.974 1264.94 616.234C1232.9 618.586 1199.23 619.957 1163.44 619.957Z" fill="#F7FAFF"/>
<circle cx="230" cy="29" r="14" fill="#FFA08C"/>
<circle cx="1032" cy="68" r="21" fill="#8DE1D1"/>
<rect x="221.299" y="544.828" width="25.2344" height="38.0467" rx="2" transform="rotate(46.2229 221.299 544.828)" stroke="#49CEB1" stroke-width="4"/>
</svg>
