<svg fill="none" viewBox="0 0 1280 724"  xmlns="http://www.w3.org/2000/svg"><path d="m1163.44 723.95c-.98 0-1.96-.001-2.94-.004-129.58-.316-226.241-21.509-324.279-42.059-98.777-20.706-191.51-40.108-312.01-40.108-120.24 0-213.035 19.418-311.268 39.974l-.64.134-.252.052c-98.393 20.59-201.0014 42.061-331.842 42.061-130.952 0-233.316-21.408-332.196-42.113l-.315-.066c-98.762-20.681-191.221-40.042-311.594-40.042-120.437 0-213.443 19.482-311.754 40.075l-.15.033c-98.37 20.605-201.15 42.113-332.2 42.113v-641.7785c120.34 0 213.29-19.451 311.62-40.0263l.39-.0818.48-.1005c98.324-20.5749 200.773-42.0129 331.614-42.0129 130.982 0 233.101 21.3839 331.93 42.0789l.164.0345.315.0658c98.762 20.6811 191.22 40.0423 311.696 40.0423 120.240097 0 212.8785-19.3854 311.019-39.9221l.889-.186.251-.0525c98.394-20.5895 201.002-42.0609 331.843-42.0609 130.952 0 233.214 21.4077 332.094 42.1134 98.88 20.7058 186.635 40.1081 307.135 40.1081 120.34 0 213.29-19.451 311.62-40.0263l.39-.0818.48-.1003c98.32-20.5749 200.77-42.0131 331.61-42.0131 130.98 0 233.1 21.3837 331.93 42.0786l.17.0348.31.0659c98.76 20.681 191.22 40.0422 311.59 40.0422 89.47 0 163.8-10.7513 236.46-24.7227v643.5612c-70.7 12.917-146.99 22.94-236.46 22.94-130.98 0-233.09-21.384-331.92-42.079l-.17-.034-.31-.066c-98.77-20.681-191.22-40.042-311.6-40.042-120.34 0-213.29 19.45-311.62 40.026l-.39.082c-71.57 14.978-145.32 30.406-230.59 37.716-32.04 2.746-65.71 4.347-101.5 4.347z" fill="#f7faff"/></svg>
