<svg width="24" height="18" viewBox="0 0 24 18" fill="none" xmlns="http://www.w3.org/2000/svg">
<path fill-rule="evenodd" clip-rule="evenodd" d="M0.405543 8.94258C0.946266 8.38763 1.82295 8.38763 2.36367 8.94258L8.82518 15.5742C9.36591 16.1291 9.36591 17.0289 8.82518 17.5838C8.28446 18.1388 7.40777 18.1388 6.86705 17.5838L0.405543 10.9523C-0.135181 10.3973 -0.135181 9.49754 0.405543 8.94258Z" fill="#6E46FF"/>
<path fill-rule="evenodd" clip-rule="evenodd" d="M23.5945 0.416217C24.1352 0.971172 24.1352 1.87093 23.5945 2.42589L8.8253 17.5838C8.28457 18.1387 7.40789 18.1387 6.86716 17.5838C6.32644 17.0288 6.32644 16.1291 6.86716 15.5741L21.6363 0.416217C22.177 -0.138739 23.0537 -0.138739 23.5945 0.416217Z" fill="#C869F5"/>
</svg>
