<svg fill="none"  viewBox="0 0 22 22"  xmlns="http://www.w3.org/2000/svg"><g fill="#6E46FF"><path clip-rule="evenodd" d="m16.8157 4.5134c-2.2567-1.91198-5.3471-2.80788-8.16935-2.04223-2.66985.7243-4.28215 3.21381-4.97328 6.05907-.34222 1.40894-.43854 2.84216-.33193 4.06346.10957 1.2549.41976 2.1445.76376 2.5939.35768.4673.29758 1.1599-.13426 1.5471-.01775.0159-.03585.031-.05428.0454 2.10426 2.1274 5.0224 3.172 7.83114 3.0055 3.8274-.227 7.2889-2.6819 8.1134-7.5896.5006-2.97967-.7952-5.77618-3.0452-7.6826zm-15.43343 8.8523c-.25747-.1078-.554417-.1023-.820812.0419-.5015264.2713-.704816.9313-.454048 1.4741 2.2859 4.9473 7.20291 7.3677 11.75119 7.098 4.595-.2725 8.9788-3.3112 10.0002-9.3906.6672-3.97137-1.1019-7.5271-3.7914-9.80588-2.6828-2.273163-6.4065-3.395301-9.91485-2.443512-3.66084.993152-5.64822 4.358442-6.44335 7.631882-.40091 1.65056-.51937 3.34281-.38963 4.82871.01656.1897.03739.3785.0627.5654z" fill-rule="evenodd"/><path d="m16.2329 10.9414c0 .3047-.082.5449-.2461.7207-.164.1758-.3867.293-.6679.3516-.5508.1289-1.0899.2168-1.6172.2636-.0469.4571-.0879.9141-.1231 1.3711-.0351.4453-.0703.8907-.1055 1.336-.0234.2109-.0468.5039-.0703.8789-.0234.3633-.082.7207-.1757 1.0722-.0821.3516-.211.6622-.3868.9317-.164.2578-.3925.3867-.6855.3867-.2813 0-.5039-.123-.668-.3691-.1523-.2461-.2695-.5332-.3515-.8614-.0821-.3281-.1348-.6562-.1582-.9843-.0235-.3399-.0352-.6036-.0352-.7911 0-.4804.0117-.9492.0352-1.4062.0351-.4688.0644-.9375.0878-1.4063-.3046.0235-.6093.0411-.914.0528-.30473 0-.60943 0-.91413 0-.1406 0-.3164 0-.5273 0-.211-.0117-.4219-.0293-.6328-.0528-.211-.0234-.4102-.0644-.5977-.123-.1758-.0703-.3047-.1699-.3867-.2988-.0586-.0821-.1055-.2227-.1406-.4219-.0235-.2109-.0469-.4336-.0704-.668-.0117-.2461-.0175-.4804-.0175-.7031s0-.3867 0-.4922c0-.2695 0-.5332 0-.791s.0117-.5215.0351-.791c.0117-.2578.0235-.5625.0352-.9141.0234-.3633.082-.709.1758-1.0371.1054-.3281.2519-.6094.4394-.84374.1992-.23437.4805-.35156.8438-.35156.2226 0 .3984.10547.5273.31641.1406.21089.2461.45699.3164.73829.0821.2812.1348.5683.1582.8613.0235.2813.0352.4981.0352.6504 0 .3516-.0176.7031-.0528 1.0547-.0234.3516-.0644.6973-.123 1.0371.3398-.0234.6738-.041 1.00193-.0527.3399-.0235.6797-.0469 1.0196-.0703.0117-.1172.0293-.3516.0527-.7032.0352-.3633.0762-.7441.1231-1.1425.0468-.4102.0937-.7911.1406-1.1426.0469-.3516.0937-.5801.1406-.6856.0938-.2226.2402-.40427.4395-.54489.1992-.15235.4277-.22852.6855-.22852.3047 0 .5215.09375.6504.28125.1289.18746.2168.41016.2637.66796.0586.3281.0937.668.1054 1.0195.0118.3516.0176.6973.0176 1.0371 0 .504-.0176 1.0079-.0527 1.5118.2578.0234.5098.0527.7558.0879.2461.0351.4981.082.7559.1406.2813.0586.4981.1875.6504.3867s.2285.4395.2285.7207z"/></g></svg>
