<svg fill="none"  viewBox="0 0 22 24"  xmlns="http://www.w3.org/2000/svg"><g fill="#6E46FF"><path clip-rule="evenodd" d="m4.87826 19.949c1.85737 1.4576 4.63314 2.086 7.91804 1.5943 3.0247-.4527 4.8501-2.4646 5.7268-4.761.4419-1.1576.633-2.37.6058-3.4513-.0275-1.0969-.2761-1.9723-.6246-2.52-.3351-.5267-.1992-1.23835.3033-1.58947.5027-.35112 1.1818-.2088 1.5169.31789.6459 1.01508.9566 2.35368.9912 3.73128.035 1.3932-.209 2.9159-.7615 4.363-1.1121 2.9131-3.5127 5.5897-7.4486 6.1788-3.67574.5501-7.08791-.1055-9.53876-2.0288-2.49348-1.9569-3.828718-5.0997-3.5239746-9.1112.5909116-7.77847 4.8712346-11.927293 9.7635646-12.5816092 4.78757-.6403028 9.92577 2.1259592 12.10757 7.5555892.2344.58337-.0269 1.2554-.5837 1.50108-.5567.24557-1.1981-.02814-1.4324-.6115-1.7957-4.46847-5.988-6.68319-9.8145-6.17142-3.72175.49775-7.33902 3.63408-7.85983 10.48976-.25335 3.3351.83995 5.6704 2.65469 7.0946z" fill-rule="evenodd"/><path d="m14.7695 14.188c0 .6562-.1289 1.2597-.3867 1.8105s-.6035 1.0313-1.0371 1.4414c-.4336.3985-.9375.709-1.5117.9317-.5742.2343-1.1719.3515-1.793.3515-.2344 0-.5273-.0234-.8789-.0703-.3398-.0351-.668-.1113-.9844-.2285s-.5859-.2754-.8086-.4746c-.2226-.1992-.334-.457-.334-.7734 0-.3399.0879-.6036.2637-.7911.1875-.1875.4512-.2812.791-.2812.3399 0 .668.0351.9844.1055.3281.0586.6621.0878 1.002.0878.2578 0 .5156-.041.7734-.123s.4863-.1992.6855-.3516c.211-.164.3809-.3515.5098-.5625.1289-.2226.1934-.4746.1934-.7558 0-.1524-.0293-.3399-.0879-.5625-.0586-.2227-.1406-.4278-.2461-.6153-.1055-.1992-.2344-.3691-.3867-.5097-.1524-.1406-.3223-.211-.5098-.211-.1758 0-.3516.0293-.5273.0879-.1641.0586-.3399.1231-.5274.1934-.1758.0586-.3574.1172-.5449.1758s-.3809.0879-.5801.0879c-.2578 0-.4512-.1055-.5801-.3164-.1172-.2227-.1757-.4395-.1757-.6504 0-.4922.2226-.8262.6679-1.002.2344-.0937.5274-.2168.8789-.3691.3633-.1641.7149-.3516 1.0547-.5625.3399-.211.6328-.44528.8789-.70318.2461-.2695.3692-.5566.3692-.8613 0-.2344-.0938-.4629-.2813-.6855-.1875-.2227-.4101-.334-.668-.334-.2578 0-.498.0703-.7207.2109-.2226.1407-.4453.2989-.6679.4746-.211.1641-.4336.3164-.668.4571-.2227.1406-.4629.2109-.7207.2109-.1289 0-.2637-.0234-.4043-.0703-.1406-.0586-.2695-.1289-.3867-.2109-.1172-.0938-.2168-.2051-.2988-.334-.0704-.1289-.1055-.2637-.1055-.4043 0-.1641.0351-.334.1055-.5098.0703-.1758.1523-.3281.2461-.457.3984-.6094.9257-1.06643 1.582-1.37112.668-.30468 1.3535-.45703 2.0566-.45703 1.0781 0 1.9336.29297 2.5664.87891.6446.58594.9668 1.41214.9668 2.47854 0 .6328-.1347 1.1894-.4043 1.66988-.2578.4805-.7031.8262-1.3359 1.0371.3398.0703.6328.2051.8789.4043.2578.1875.4687.416.6328.6856.1641.2695.2813.5624.3516.8789.082.3164.123.6328.123.9492z"/></g></svg>
