<svg fill="none"  viewBox="0 0 22 24"  xmlns="http://www.w3.org/2000/svg"><g fill="#6E46FF"><path clip-rule="evenodd" d="m16.4211 20.3474c1.9881-1.3114 3.3987-3.696 3.3987-7.7751-.0001-3.98061-1.6792-6.39253-3.7606-7.91046-2.1363-1.55806-4.7469-2.20249-6.54032-2.44786-.59666-.08165-1.01548-.64121-.93544-1.249822.08005-.608611.62863-1.0358 1.2254-.9541573 1.95716.2678073 4.96956.9839543 7.51856 2.8429693 2.604 1.89915 4.6725 4.9608 4.6726 9.71933 0 4.6601-1.6552 7.8353-4.395 9.6424-2.6733 1.7633-6.1739 2.0852-9.63854 1.5503-5.03095-.7766-7.96490054-5.7083-7.96645937-10.434-.0007918-2.4027.74235237-4.85016 2.40694937-6.80996 1.67271-1.96937 4.20612-3.36435 7.63485-3.77702.598-.07196 1.1399.36407 1.2104.97391.0706.60982-.3569 1.16252-.9549 1.23448-2.96704.3571-4.97412 1.5313-6.24254 3.02469-1.27656 1.50291-1.87522 3.4119-1.87458 5.3532.00131 3.9622 2.44322 7.6696 6.11254 8.236 3.18408.4915 6.07378.1363 8.12838-1.2189z" fill-rule="evenodd"/><path d="m12.4674 11.2457c0 .3671-.0059.7343-.0175 1.1016-.0116.3672-.0233.7344-.0349 1.1015-.0231.6042-.0347 1.2083-.0347 1.8123 0 .5924-.0175 1.1904-.0524 1.7946-.0116.2013-.0232.4738-.0348.8173-.0115.3316-.058.6633-.1393.995-.0697.3198-.1858.604-.3484.8528-.1626.2369-.3891.3554-.6794.3554-.2787 0-.5051-.0948-.6794-.2843-.1742-.2014-.3135-.4501-.4181-.7462-.09282-.308-.15674-.6456-.19152-1.0128-.03488-.379-.05807-.7463-.06977-1.1015 0-.3673.00585-.7049.01745-1.0129.01159-.3079.01744-.5449.01744-.7106 0-.8055 0-1.611 0-2.4164.01159-.8055.02319-1.611.03488-2.4165-.23229-.2013-.4181-.44411-.55743-.72844-.12774-.29606-.19166-.59815-.19166-.90612 0-.48565.13933-.90023.4181-1.24374.29026-.3435.68521-.51525 1.18451-.51525.4297 0 .7665.16582 1.0103.49748.2439.33167.4181.72848.5227 1.19044.1161.46195.1858.93575.209 1.42143.0232.4737.0349.8588.0349 1.1549z"/></g></svg>
