<svg fill="none"  viewBox="0 0 22 22"  xmlns="http://www.w3.org/2000/svg"><g fill="#6E46FF"><path clip-rule="evenodd" d="m19.8578 12.198c.035-2.9526-1.336-6.16776-4.2131-8.27335-2.8744-2.10366-5.2616-2.05499-7.21987-1.28298-2.05855.81155-3.73727 2.4591-5.01896 3.77187-.20312.208-.4696.31557-.73824.32203-1.03594 3.48073-.49585 7.02313 1.21401 9.52733 1.08851 1.5943 2.65285 2.7775 4.62068 3.2947 1.97068.518 4.42548.3879 7.31298-.7896 2.5839-1.0538 4.0074-3.6146 4.0425-6.57zm-15.85944-9.30267c-.08489-.21642-.23986-.4069-.45499-.53356-.51035-.30042-1.16629-.12796-1.46507.3852-2.885004 4.95506-2.666786 10.77363.03776 14.73473 1.35938 1.991 3.34481 3.5023 5.84463 4.1593 2.49701.6563 5.42771.4405 8.65951-.8776 3.56-1.4518 5.3361-4.9262 5.379-8.5397.0429-3.61647-1.6295-7.50436-5.0942-10.04006-3.4674-2.537688-6.6249-2.586344-9.26185-1.546741-1.39466.549821-2.61712 1.394521-3.64479 2.258431z" fill-rule="evenodd"/><path d="m15.5957 15.3906c0 .3399-.1114.6152-.334.8262-.2227.2109-.4922.3457-.8086.4043-.3516.082-.75.1582-1.1953.2285-.4453.0586-.9024.1113-1.3711.1582-.4571.0469-.9082.082-1.3535.1055-.4454.0234-.8496.0351-1.2129.0351-.0938 0-.2285-.0058-.4043-.0176-.1641 0-.3399-.0117-.5274-.0351-.1758-.0117-.3457-.0352-.5097-.0703-.1524-.0352-.2696-.0821-.3516-.1406-.082-.0704-.1582-.1641-.2285-.2813-.0586-.1289-.1113-.2637-.1582-.4043-.0469-.1523-.082-.2988-.1055-.4394-.0234-.1407-.0351-.2637-.0351-.3692 0-.164.0175-.3105.0527-.4394.0469-.1407.1289-.2696.2461-.3868.1406-.1523.2871-.2988.4394-.4394.1524-.1524.2989-.2988.4395-.4395.1641-.1757.3809-.4043.6504-.6855.2695-.293.5566-.6152.8613-.9668.3164-.3633.627-.7383.9317-1.125.3164-.3984.6035-.7852.8613-1.16019.2578-.375.4629-.7265.6152-1.0547.1641-.3281.2461-.6093.2461-.8437 0-.2227-.0644-.4043-.1934-.5449-.1289-.1524-.3046-.2285-.5273-.2285-.2461 0-.4746.0878-.6855.2636-.211.1758-.4219.3692-.6329.5801-.2109.1992-.4394.3867-.6855.5625-.2344.1758-.5039.2637-.8086.2637-.3633 0-.6504-.1055-.8613-.3164-.1992-.211-.2989-.4922-.2989-.8438 0-.5156.1114-.9902.334-1.4238.2344-.4453.5391-.8262.9141-1.1426s.7969-.5625 1.2656-.7383c.4688-.1875.9492-.28121 1.4414-.28121.5039 0 .9727.05861 1.4063.17581s.8086.2988 1.125.5449.5625.5625.7383.9492c.1875.375.2812.832.2812 1.3711 0 .4219-.0762.8672-.2285 1.3359-.1406.4571-.334.92-.5801 1.3887-.2344.46879-.5098.93749-.8262 1.40629-.3046.457-.6211.8964-.9492 1.3183s-.6562.8145-.9844 1.1778c-.3281.3632-.6269.6796-.8964.9492.5742-.0703 1.1777-.1406 1.8105-.211.6328-.0703 1.2422-.1054 1.8281-.1054.3399 0 .6328.0937.8789.2812.2579.1758.3868.4453.3868.8086z"/></g></svg>
