<svg width="32" height="28" viewBox="0 0 32 28" fill="none" xmlns="http://www.w3.org/2000/svg">
<g filter="url(#filter0_d)">
<path d="M21.1261 8.0584C23.4237 8.3633 24.9451 9 25.8924 10.5C26.0783 10.7944 25.9862 11.3404 25.8924 11.5L22.0095 18.1022C21.9068 18.2768 21.7213 18.3866 21.5195 18.3924C21.3173 18.3989 21.1291 18.2993 21.0224 18.1314C19.8541 16.299 18.6388 16.1056 16.5558 15.829C14.5107 15.5575 12.4658 15.2859 11.2867 13.5421L7.76988 19.5219C7.50365 19.9746 6.92067 20.1339 6.4684 19.8776C6.01612 19.6212 5.86525 19.046 6.13148 18.5933L14.4328 4.47817C14.6991 4.02543 15.282 3.86607 15.7343 4.12241C16.1866 4.37875 16.3375 4.95404 16.0712 5.40678L15.8568 5.77133C17.0359 7.51562 19.081 7.78701 21.1261 8.0584Z" fill="white"/>
</g>
<defs>
<filter id="filter0_d" x="0" y="0" width="32" height="28" filterUnits="userSpaceOnUse" color-interpolation-filters="sRGB">
<feFlood flood-opacity="0" result="BackgroundImageFix"/>
<feColorMatrix in="SourceAlpha" type="matrix" values="0 0 0 0 0 0 0 0 0 0 0 0 0 0 0 0 0 0 127 0"/>
<feOffset dy="2"/>
<feGaussianBlur stdDeviation="3"/>
<feColorMatrix type="matrix" values="0 0 0 0 0 0 0 0 0 0 0 0 0 0 0 0 0 0 0.12 0"/>
<feBlend mode="normal" in2="BackgroundImageFix" result="effect1_dropShadow"/>
<feBlend mode="normal" in="SourceGraphic" in2="effect1_dropShadow" result="shape"/>
</filter>
</defs>
</svg>
