<svg width="18" height="14" viewBox="0 0 18 14" fill="none" xmlns="http://www.w3.org/2000/svg">
<path d="M16.3125 14H1.6875C0.755508 14 0 13.2165 0 12.25V1.75C0 0.78349 0.755508 0 1.6875 0H16.3125C17.2445 0 18 0.78349 18 1.75V12.25C18 13.2165 17.2445 14 16.3125 14ZM3.9375 2.04167C2.85019 2.04167 1.96875 2.95575 1.96875 4.08333C1.96875 5.21092 2.85019 6.125 3.9375 6.125C5.02481 6.125 5.90625 5.21092 5.90625 4.08333C5.90625 2.95575 5.02481 2.04167 3.9375 2.04167ZM2.25 11.6667H15.75V7.58333L12.6733 4.39268C12.5086 4.22184 12.2414 4.22184 12.0767 4.39268L7.3125 9.33333L5.3608 7.30935C5.19606 7.1385 4.92894 7.1385 4.76416 7.30935L2.25 9.91667V11.6667Z" fill="#BDBDBD"/>
</svg>
