<svg width="66" height="66" viewBox="0 0 66 66" fill="none" xmlns="http://www.w3.org/2000/svg">
<g filter="url(#filter0_d)">
<circle cx="33" cy="31" r="27" fill="#3165BC"/>
<path fill-rule="evenodd" clip-rule="evenodd" d="M54.6004 31.0256C54.5865 42.9432 44.9212 52.5999 33.0004 52.5999C21.071 52.5999 11.4004 42.9293 11.4004 30.9999C11.4004 19.0706 21.071 9.3999 33.0004 9.3999C44.9212 9.3999 54.5865 19.0567 54.6004 30.9742V31.0256ZM22.4002 25C22.1793 25 22.0002 25.1791 22.0002 25.4V39.6C22.0002 39.8209 22.1793 40 22.4002 40H26.2002C26.4212 40 26.6002 39.8209 26.6002 39.6V25.4C26.6002 25.1791 26.4212 25 26.2002 25H22.4002ZM24.2663 18C22.5938 18 21.5002 19.1883 21.5002 20.7503C21.5002 22.2778 22.5612 23.5 24.202 23.5H24.2339C25.9391 23.5 27.0002 22.2778 27.0002 20.7503C26.9684 19.1883 25.9391 18 24.2663 18ZM34.4807 27.2579C35.136 26.2463 36.3081 24.8076 38.9241 24.8076C42.1678 24.8076 44.6003 26.9292 44.6003 31.4887V39.5C44.6003 39.7761 44.3764 40 44.1003 40H40.0703C39.8494 40 39.6703 39.8209 39.6703 39.6V32.0588C39.6703 30.0633 38.9566 28.7021 37.1725 28.7021C35.8105 28.7021 34.9993 29.6201 34.6429 30.5064C34.5127 30.8237 34.4805 31.2667 34.4805 31.7104V39.6C34.4805 39.8209 34.3015 40 34.0805 40H29.9502C29.7293 40 29.5502 39.8209 29.5502 39.6V25.556C29.5502 25.3351 29.7293 25.156 29.9502 25.156H34.0807C34.3016 25.156 34.4807 25.3351 34.4807 25.556V27.2579Z" fill="white"/>
<path fill-rule="evenodd" clip-rule="evenodd" d="M33.0004 52.6C44.9212 52.6 54.5865 42.9433 54.6004 31.0257V30.9743C54.5865 19.0568 44.9212 9.40002 33.0004 9.40002C21.071 9.40002 11.4004 19.0707 11.4004 31C11.4004 42.9294 21.071 52.6 33.0004 52.6ZM43.7062 26.3029V25.5829C44.7682 24.8286 45.6932 23.8686 46.4469 22.7715C45.4534 23.2172 44.3913 23.4915 43.2608 23.6286C44.3913 22.9429 45.2821 21.88 45.6932 20.6115C44.6312 21.2629 43.4664 21.7086 42.1988 21.9486C41.1711 20.8857 39.7322 20.2343 38.1563 20.2343C35.1073 20.2343 32.6407 22.6686 32.6407 25.6857C32.6407 26.0972 32.6749 26.5086 32.7777 26.92C28.1871 26.68 24.1446 24.52 21.4039 21.2286C20.9243 22.0515 20.6502 22.9772 20.6502 23.9715C20.6502 25.8572 21.6437 27.5372 23.1168 28.4972C22.2261 28.4629 21.3354 28.2229 20.6502 27.8115V27.88C20.6502 30.52 22.5344 32.7143 25.001 33.2286C24.5557 33.3657 24.0418 33.4343 23.5279 33.4343C23.1853 33.4343 22.8427 33.4 22.5002 33.3315C23.2196 35.4915 25.2408 37.0686 27.6732 37.1029C25.789 38.5772 23.4251 39.4343 20.8215 39.4343C20.406 39.4343 20.0203 39.4045 19.6088 39.3726C19.5792 39.3703 19.5495 39.368 19.5197 39.3657C21.952 40.9086 24.864 41.8 27.9815 41.8C38.1563 41.8 43.7062 33.5029 43.7062 26.3029Z" fill="url(#paint0_radial)"/>
</g>
<defs>
<filter id="filter0_d" x="0" y="0" width="66" height="66" filterUnits="userSpaceOnUse" color-interpolation-filters="sRGB">
<feFlood flood-opacity="0" result="BackgroundImageFix"/>
<feColorMatrix in="SourceAlpha" type="matrix" values="0 0 0 0 0 0 0 0 0 0 0 0 0 0 0 0 0 0 127 0"/>
<feOffset dy="2"/>
<feGaussianBlur stdDeviation="3"/>
<feColorMatrix type="matrix" values="0 0 0 0 0 0 0 0 0 0 0 0 0 0 0 0 0 0 0.16 0"/>
<feBlend mode="normal" in2="BackgroundImageFix" result="effect1_dropShadow"/>
<feBlend mode="normal" in="SourceGraphic" in2="effect1_dropShadow" result="shape"/>
</filter>
<radialGradient id="paint0_radial" cx="0" cy="0" r="1" gradientUnits="userSpaceOnUse" gradientTransform="translate(33.0004 29.65) rotate(90) scale(24.3)">
<stop offset="0.753285" stop-color="white" stop-opacity="0"/>
<stop offset="1" stop-color="#3165BC"/>
</radialGradient>
</defs>
</svg>
