<svg width="24" height="16" viewBox="0 0 24 16" fill="none" xmlns="http://www.w3.org/2000/svg">
<path d="M22.6664 1.33333C22.408 1.33333 22.1455 1.40833 21.908 1.57083L17.3363 4.48333V1.99167C17.3363 0.891667 16.3695 0 15.1776 0H2.15871C0.966834 0 0 0.891667 0 1.99167V14.0083C0 15.1083 0.966834 16 2.15871 16H15.1776C16.3695 16 17.3363 15.1083 17.3363 14.0083V11.5167L21.9038 14.4292C22.1413 14.5958 22.408 14.6667 22.6622 14.6667C23.354 14.6667 24 14.125 24 13.3542V2.64583C24.0041 1.875 23.3582 1.33333 22.6664 1.33333ZM16.0028 5.33333V14.0083C16.0028 14.3667 15.6235 14.6667 15.1776 14.6667H2.15871C1.7128 14.6667 1.33356 14.3667 1.33356 14.0083V1.99167C1.33356 1.63333 1.7128 1.33333 2.15871 1.33333H15.1776C15.6235 1.33333 16.0028 1.63333 16.0028 1.99167V5.33333ZM22.6706 13.3542L22.6206 13.3L17.3363 9.93333V6.0625L22.6706 2.66667V13.3542ZM12.3355 7.33333H9.33495V4.33333C9.33495 4.15 9.18492 4 9.00155 4H8.33477C8.15141 4 8.00138 4.15 8.00138 4.33333V7.33333H5.00086C4.8175 7.33333 4.66747 7.48333 4.66747 7.66667V8.33333C4.66747 8.51667 4.8175 8.66667 5.00086 8.66667H8.00138V11.6667C8.00138 11.85 8.15141 12 8.33477 12H9.00155C9.18492 12 9.33495 11.85 9.33495 11.6667V8.66667H12.3355C12.5188 8.66667 12.6689 8.51667 12.6689 8.33333V7.66667C12.6689 7.48333 12.5188 7.33333 12.3355 7.33333Z" fill="#828282"/>
</svg>
