<svg width="18" height="22" viewBox="0 0 18 22" fill="none" xmlns="http://www.w3.org/2000/svg">
<path fill-rule="evenodd" clip-rule="evenodd" d="M5.26337 0.0574092C5.06771 0.175591 5.00067 0.437337 5.11364 0.642034L6.0057 2.25847C4.52814 3.14528 3.54891 4.35585 3.4157 6.15057C3.3982 6.38623 3.58329 6.57846 3.80922 6.57846H14.1879C14.4138 6.57846 14.5989 6.38622 14.5811 6.15059C14.4411 4.29201 13.3814 3.05989 11.8268 2.16504L12.6673 0.642034C12.7803 0.437337 12.7132 0.175591 12.5175 0.0574092C12.3219 -0.0607728 12.0717 0.00936168 11.9587 0.214059L11.0867 1.79413C9.71777 1.24726 8.14303 1.24442 6.73459 1.8673L5.8222 0.214059C5.70924 0.00936168 5.45904 -0.0607728 5.26337 0.0574092ZM6.54542 5.2232C6.99729 5.2232 7.3636 4.83998 7.3636 4.36725C7.3636 3.89452 6.99729 3.5113 6.54542 3.5113C6.09355 3.5113 5.72724 3.89452 5.72724 4.36725C5.72724 4.83998 6.09355 5.2232 6.54542 5.2232ZM12.2727 4.36725C12.2727 4.83998 11.9064 5.2232 11.4545 5.2232C11.0026 5.2232 10.6363 4.83998 10.6363 4.36725C10.6363 3.89452 11.0026 3.5113 11.4545 3.5113C11.9064 3.5113 12.2727 3.89452 12.2727 4.36725Z" fill="white"/>
<path d="M2.47248 8.66326V13.7827C2.47248 14.548 1.92464 15.1592 1.22738 15.1592C0.534656 15.1592 0 14.543 0 13.7827V8.66326C0 7.91288 0.534656 7.29667 1.22738 7.29667C1.91105 7.29667 2.47248 7.91288 2.47248 8.66326Z" fill="white"/>
<path d="M3.27273 16.4652C3.27273 17.2802 3.99778 17.9362 4.74031 17.9362H5.72727L5.74086 20.6303C5.74086 22.464 8.18182 22.4491 8.18182 20.6303V17.9362H9.81818V20.6303C9.81818 22.4541 12.2727 22.459 12.2727 20.6303V17.9362H13.2658C13.9993 17.9362 14.7273 17.2802 14.7273 16.4652V7.97809C14.7273 7.74172 14.5441 7.55011 14.3182 7.55011H3.68182C3.45588 7.55011 3.27273 7.74172 3.27273 7.97809V16.4652Z" fill="white"/>
<path d="M16.7906 7.29667C16.1069 7.29667 15.5455 7.89797 15.5455 8.66326V13.7827C15.5455 14.548 16.1069 15.1592 16.7906 15.1592C17.4878 15.1592 18 14.543 18 13.7827V8.66326C18 7.89797 17.4833 7.29667 16.7906 7.29667Z" fill="white"/>
</svg>
