<svg viewBox="0 0 14 14" fill="none" xmlns="http://www.w3.org/2000/svg">
  <path d="M8.41434 7.00037L12.6878 2.7269L13.5691 1.84563C13.6991 1.71562 13.6991 1.50437 13.5691 1.37436L12.6261 0.431416C12.4961 0.301412 12.2849 0.301412 12.1549 0.431416L7.00013 5.58616L1.84538 0.430999C1.71538 0.300995 1.50412 0.300995 1.37412 0.430999L0.430755 1.37395C0.300751 1.50395 0.300751 1.71521 0.430755 1.84521L5.58592 7.00037L0.430755 12.1551C0.300751 12.2851 0.300751 12.4964 0.430755 12.6264L1.3737 13.5693C1.50371 13.6993 1.71496 13.6993 1.84497 13.5693L7.00013 8.41458L11.2736 12.688L12.1549 13.5693C12.2849 13.6993 12.4961 13.6993 12.6261 13.5693L13.5691 12.6264C13.6991 12.4964 13.6991 12.2851 13.5691 12.1551L8.41434 7.00037Z" />
</svg>
