<svg width="40" height="36" viewBox="0 0 40 36" fill="none" xmlns="http://www.w3.org/2000/svg">
<path d="M0 0H18C27.9411 0 36 8.05887 36 18C36 27.9411 27.9411 36 18 36C8.05887 36 0 27.9411 0 18V0Z" fill="#BAECE1"/>
<path d="M37.375 12H14.625C13.1758 12 12 13.1198 12 14.5V29.5C12 30.8802 13.1758 32 14.625 32H37.375C38.8242 32 40 30.8802 40 29.5V14.5C40 13.1198 38.8242 12 37.375 12ZM14.625 13.6667H37.375C37.8563 13.6667 38.25 14.0417 38.25 14.5V16.6562C37.0523 17.6198 35.3406 18.9479 30.0141 22.974C29.0898 23.6719 27.2688 25.3542 26 25.3333C24.7312 25.3542 22.9047 23.6719 21.9859 22.974C16.6594 18.9479 14.9477 17.6198 13.75 16.6562V14.5C13.75 14.0417 14.1437 13.6667 14.625 13.6667ZM37.375 30.3333H14.625C14.1437 30.3333 13.75 29.9583 13.75 29.5V18.8229C14.9969 19.7969 16.9656 21.3021 20.8977 24.276C22.0188 25.1302 23.9984 27.0104 26 27C27.9906 27.0156 29.9539 25.151 31.1023 24.276C35.0344 21.3021 37.0031 19.7969 38.25 18.8229V29.5C38.25 29.9583 37.8563 30.3333 37.375 30.3333Z" fill="#071D40"/>
</svg>
