<svg width="40" height="36" viewBox="0 0 40 36" fill="none" xmlns="http://www.w3.org/2000/svg">
<path d="M0 0C19.8822 0 36 16.1177 36 36H0V0Z" fill="#FFD0C6"/>
<path d="M32.4207 4H19.5793C15.4 4 12 7.40002 12 11.5793V24.4209C12 28.6 15.4 32 19.5793 32H32.4209C36.6 32 40 28.6 40 24.4209V11.5793C40 7.40002 36.6 4 32.4207 4ZM38.3585 24.4209C38.3585 27.6949 35.6949 30.3585 32.4207 30.3585H19.5793C16.3051 30.3585 13.6415 27.6949 13.6415 24.4209V11.5793C13.6415 8.30515 16.3051 5.64148 19.5793 5.64148H32.4209C35.6949 5.64148 38.3585 8.30515 38.3585 11.5793V24.4209Z" fill="#071D40"/>
<path d="M25.9998 10.344C21.7782 10.344 18.3438 13.7784 18.3438 18C18.3438 22.2217 21.7782 25.6561 25.9998 25.6561C30.2214 25.6561 33.6558 22.2217 33.6558 18C33.6558 13.7784 30.2214 10.344 25.9998 10.344ZM25.9998 24.0146C22.6835 24.0146 19.9852 21.3165 19.9852 18C19.9852 14.6838 22.6835 11.9855 25.9998 11.9855C29.3163 11.9855 32.0143 14.6838 32.0143 18C32.0143 21.3165 29.3163 24.0146 25.9998 24.0146Z" fill="#071D40"/>
<path d="M33.8393 7.62489C32.5918 7.62489 31.5771 8.63981 31.5771 9.88716C31.5771 11.1347 32.5918 12.1496 33.8393 12.1496C35.0869 12.1496 36.1018 11.1347 36.1018 9.88716C36.1018 8.6396 35.0869 7.62489 33.8393 7.62489ZM33.8393 10.5079C33.4971 10.5079 33.2186 10.2294 33.2186 9.88716C33.2186 9.54472 33.4971 9.26637 33.8393 9.26637C34.1818 9.26637 34.4603 9.54472 34.4603 9.88716C34.4603 10.2294 34.1818 10.5079 33.8393 10.5079Z" fill="#071D40"/>
</svg>
