<svg width="40" height="36" viewBox="0 0 40 36" fill="none" xmlns="http://www.w3.org/2000/svg">
<path d="M0 0L36 36H0V0Z" fill="#FFD0C6"/>
<path d="M39.9847 17.7398C39.4039 14.3087 37.7824 11.1827 35.3041 8.70148C32.8258 6.22026 29.7035 4.59681 26.2765 4.01537C25.713 3.9175 25.1782 4.29745 25.0805 4.86163C24.9827 5.42581 25.3622 5.9612 25.9257 6.05907C28.9273 6.57143 31.6643 7.98763 33.8378 10.1637C36.0114 12.3398 37.4316 15.0801 37.9376 18.0852C38.0239 18.5918 38.4609 18.9488 38.9554 18.9488C39.0129 18.9488 39.0704 18.943 39.1279 18.9315C39.7029 18.8394 40.0824 18.304 39.9847 17.7398Z" fill="#071D40"/>
<path d="M34.384 17.993C34.0275 15.8975 33.0385 13.9862 31.5262 12.4664C30.0254 10.9581 28.1164 9.96792 26.0176 9.61099C25.4541 9.51313 24.9194 9.89308 24.8216 10.4573C24.7239 11.0214 25.1034 11.5568 25.6669 11.6547C27.3344 11.9368 28.8582 12.7312 30.0657 13.9402C31.2732 15.1491 32.0667 16.6747 32.3485 18.3442C32.4347 18.8508 32.8717 19.2077 33.3662 19.2077C33.4237 19.2077 33.4812 19.202 33.5387 19.1905C34.1022 19.0926 34.4817 18.5572 34.384 17.993Z" fill="#071D40"/>
<path d="M34.792 25.0338C34.4757 24.6941 34.148 24.3717 33.826 24.0609C33.665 23.9054 33.504 23.7442 33.343 23.583L31.94 22.1784C31.342 21.5796 30.6404 21.263 29.9217 21.263C29.1972 21.263 28.5014 21.5796 27.9034 22.1784C27.7597 22.3223 27.6102 22.4662 27.4664 22.6101C27.1329 22.9383 26.7879 23.2779 26.4544 23.6349C25.8621 23.347 25.2584 22.9498 24.5569 22.3971C23.6426 21.6487 20.8021 18.6954 20.1063 17.901C19.7326 17.4692 19.0713 16.053 18.64 16.433C16.9999 18.2176 19.1204 20.0704 19.4999 20.5022C20.2704 21.3887 22.2453 23.1916 23.2574 24.0148C23.2631 24.0148 23.2631 24.0206 23.2689 24.0206C24.2866 24.8265 25.1434 25.3562 26.0576 25.7304C26.0806 25.7419 26.1036 25.7476 26.1266 25.7534C26.3451 25.8282 27.0007 26.047 27.6447 25.408C27.6562 25.3965 27.6734 25.3792 27.6849 25.3677C28.0759 24.9244 28.4899 24.5214 28.9269 24.0897C29.0764 23.9457 29.2259 23.796 29.3754 23.6464C29.5134 23.5082 29.7262 23.3355 29.9332 23.3355C30.1402 23.3355 30.3472 23.5024 30.4909 23.6464L31.894 25.0511C32.0607 25.218 32.2332 25.385 32.3942 25.5461C32.7162 25.857 33.0152 26.1564 33.3027 26.4615C33.3085 26.473 33.32 26.4788 33.3257 26.4845C33.5442 26.7033 33.78 27.0487 33.3142 27.5438L31.5605 29.2996C31.1867 29.6738 30.7727 29.8696 30.2494 29.9156C29.3582 29.9905 28.4094 29.8178 27.1732 29.3572C25.1146 28.5973 23.1941 27.4402 21.1183 25.7131C18.6113 23.6118 16.639 21.0903 15.2475 18.2176C14.753 17.1756 14.1722 15.794 14.0745 14.3259C14.0227 13.5085 14.2412 12.9213 14.7702 12.4262C15.1555 12.1038 15.4948 11.7526 15.8168 11.4187C16.0238 11.1999 16.2193 10.9985 16.4263 10.8085L16.432 10.8027C16.8403 10.4113 17.1795 10.4055 17.559 10.7854L20.3938 13.6236C20.3996 13.6294 20.4053 13.6351 20.4111 13.6409C20.5318 13.756 20.6756 13.9345 20.6813 14.1302C20.6813 14.3375 20.5261 14.5389 20.3996 14.6714L18.64 16.433C18.2375 16.836 18.2375 17.4922 18.64 17.901C19.0426 18.304 19.6981 18.304 20.1063 17.901L21.8658 16.1394C22.4581 15.5464 22.7628 14.8498 22.7571 14.1129C22.7513 13.3933 22.4408 12.714 21.8601 12.1556L19.0311 9.3232C17.8465 8.13727 16.2365 8.13152 15.0118 9.30592C14.7702 9.53044 14.5517 9.76072 14.3332 9.98524C14.0285 10.3019 13.741 10.6012 13.4305 10.8603C13.419 10.8718 13.4075 10.8833 13.3902 10.8948C12.384 11.8102 11.924 13.0076 12.0102 14.4584C12.131 16.2775 12.8037 17.901 13.3787 19.1099V19.1157C14.9025 22.259 17.053 25.0108 19.7843 27.302C22.0441 29.1788 24.1601 30.451 26.4429 31.2973C27.2824 31.6082 28.5072 31.9996 29.8642 31.9996C30.0424 31.9996 30.2264 31.9939 30.4104 31.9766H30.4162C31.4225 31.8903 32.2965 31.4815 33.0152 30.7619L34.7748 29.0003C34.7805 28.9945 34.7863 28.9888 34.792 28.983C35.9248 27.8029 35.919 26.1794 34.792 25.0338Z" fill="#071D40"/>
</svg>
