<svg width="40" height="36" viewBox="0 0 40 36" fill="none" xmlns="http://www.w3.org/2000/svg">
<path d="M0 0H36V36H0V0Z" fill="#BAECE1"/>
<path d="M39.5676 9.62968C39.2256 9.22358 38.7133 9 38.125 9C37.8052 9 37.4664 9.06533 37.1182 9.19455L13.4168 17.9788C12.159 18.4448 11.9896 19.1442 12.0005 19.5196C12.0114 19.895 12.2214 20.584 13.5044 20.9804C13.5121 20.9826 13.5198 20.9849 13.5274 20.987L18.4438 22.353L21.1025 29.7345C21.465 30.7408 22.2787 31.366 23.2263 31.366C23.8238 31.366 24.4115 31.1229 24.9259 30.6633L27.9668 27.9448L32.3775 31.3929C32.3779 31.3933 32.3786 31.3935 32.379 31.394L32.4209 31.4267C32.4247 31.4296 32.4288 31.4327 32.4326 31.4356C32.9229 31.8048 33.458 31.9998 33.9807 32H33.9809C35.0023 32 35.8155 31.266 36.0524 30.1302L39.9359 11.5127C40.0918 10.7654 39.9611 10.0968 39.5676 9.62968ZM20.0884 22.0935L29.5735 17.3889L23.6675 23.4819C23.5707 23.5816 23.5021 23.7038 23.4684 23.8367L22.3295 28.3154L20.0884 22.0935ZM23.8144 29.4914C23.7751 29.5265 23.7356 29.5578 23.6961 29.5866L24.7527 25.4319L26.6746 26.9345L23.8144 29.4914ZM38.328 11.1964L34.4445 29.8142C34.4071 29.9923 34.2877 30.4069 33.9807 30.4069C33.8291 30.4069 33.6385 30.3267 33.4435 30.1808L28.4456 26.2737C28.4449 26.2731 28.4441 26.2725 28.4432 26.2721L25.4694 23.9471L34.0102 15.1359C34.2837 14.8538 34.3084 14.4218 34.069 14.1119C33.8293 13.8021 33.395 13.7046 33.0397 13.8809L18.9923 20.8484L14.0092 19.4642L37.7033 10.6827C37.9035 10.6084 38.0432 10.5929 38.125 10.5929C38.1752 10.5929 38.2645 10.5987 38.2976 10.6383C38.3412 10.6899 38.3967 10.866 38.328 11.1964Z" fill="#071D40"/>
</svg>
