<svg width="670" height="612" viewBox="0 0 670 612" fill="none" xmlns="http://www.w3.org/2000/svg">
<path d="M3 160C3 73.2913 73.2913 3 160 3H295C307.15 3 317 12.8497 317 25V287C317 299.15 307.15 309 295 309H25C12.8497 309 3 299.15 3 287V160Z" stroke="#BAECE1" stroke-width="6"/>
<circle cx="400" cy="522" r="87" stroke="#FFA08C" stroke-width="6"/>
<circle cx="580" cy="522" r="90" fill="#BAECE1"/>
<path d="M493 272C493 262.611 500.611 255 510 255H570C623.572 255 667 298.428 667 352V412C667 421.389 659.389 429 650 429H500C496.134 429 493 425.866 493 422V272Z" stroke="#49CEB1" stroke-width="6"/>
<path d="M0 462C0 379.157 67.1573 312 150 312H300C305.523 312 310 316.477 310 322V602C310 607.523 305.523 612 300 612H150C67.1573 612 0 544.843 0 462Z" fill="#FFD0C6"/>
</svg>
