<svg width="36" height="42" viewBox="0 0 36 42" fill="none" xmlns="http://www.w3.org/2000/svg">
<path fill-rule="evenodd" clip-rule="evenodd" d="M24.4402 34.2665L23.7749 30.2946L26.5887 27.4795L26.5895 27.4788C27.1486 26.9239 27.3457 26.1097 27.1051 25.3519C26.8649 24.5956 26.2343 24.0589 25.4689 23.9486L21.5539 23.364L19.8086 19.7479C19.4668 19.0367 18.7722 18.5964 18 18.5964C17.2293 18.5964 16.5329 19.0355 16.1742 19.7579L16.1737 19.759L14.4298 23.3723L10.5161 23.9567L10.5148 23.9569C9.74936 24.0672 9.11878 24.6039 8.8786 25.3602C8.63795 26.118 8.83525 26.9323 9.39444 27.4872L12.217 30.2941L11.5517 34.2667C11.4205 35.0543 11.7339 35.8307 12.365 36.2963C12.9953 36.7613 13.8109 36.8198 14.4984 36.4511L18 34.5772L21.5016 36.4511L21.5036 36.4522C21.8006 36.6145 22.1254 36.695 22.4411 36.695C22.8487 36.695 23.2693 36.5563 23.6277 36.2957C24.2583 35.83 24.5714 35.0538 24.4402 34.2665ZM15.8254 25.3272L17.775 21.2983C17.866 21.1102 18.134 21.1102 18.225 21.2983L20.1747 25.3274L24.5303 25.9809C24.7335 26.0114 24.8152 26.2604 24.6696 26.4053L21.515 29.5466L22.2604 33.9737C22.2949 34.1786 22.0788 34.3337 21.8957 34.2355L17.9998 32.1461L14.104 34.2274C13.9209 34.3252 13.7052 34.1701 13.7397 33.9653L14.485 29.5383L11.3304 26.397C11.1846 26.2519 11.2667 26.0027 11.4701 25.9726L15.8254 25.3272ZM7.82294 0.411145V5.31325H3.65795C1.64341 5.31325 0 6.97995 0 9.04518V38.2681C0 40.3333 1.64341 42 3.65795 42H32.342C34.3566 42 36 40.3333 36 38.2681V9.04518C36 6.97995 34.3566 5.31325 32.342 5.31325H28.1771V0.411145C28.1771 0.180649 27.9923 0 27.7787 0H26.4748C26.2612 0 26.0765 0.18065 26.0765 0.411145V5.31325H9.92354V0.411145C9.92354 0.18065 9.73878 0 9.52515 0H8.22133C8.0077 0 7.82294 0.180649 7.82294 0.411145ZM2.10061 15.6837C2.10061 15.5457 2.21253 15.4337 2.3506 15.4337H33.6494C33.7875 15.4337 33.8994 15.5457 33.8994 15.6837V38.2681C33.8994 39.1334 33.2041 39.8494 32.342 39.8494H3.65795C2.79593 39.8494 2.10061 39.1334 2.10061 38.2681V15.6837ZM33.8994 13.0831C33.8994 13.1936 33.8098 13.2831 33.6994 13.2831H2.30061C2.19015 13.2831 2.10061 13.1936 2.10061 13.0831V9.04518C2.10061 8.17982 2.79593 7.46385 3.65795 7.46385H32.342C33.2041 7.46385 33.8994 8.17982 33.8994 9.04518V13.0831Z" fill="white"/>
</svg>
