<svg width="40" height="50" viewBox="0 0 40 50" fill="none" xmlns="http://www.w3.org/2000/svg">
<path fill-rule="evenodd" clip-rule="evenodd" d="M0 3.09168C0 1.38419 1.40745 0 3.14363 0H31.3279C33.0641 0 34.4715 1.38419 34.4715 3.09168V20.1493C34.4715 20.6792 34.0347 21.1087 33.4959 21.1087C32.9571 21.1087 32.5203 20.6792 32.5203 20.1493V3.09168C32.5203 2.44402 31.9865 1.91898 31.3279 1.91898H3.14363C2.48508 1.91898 1.95122 2.44402 1.95122 3.09168V37.2068C1.95122 37.8545 2.48508 38.3795 3.14363 38.3795H17.5114C18.0502 38.3795 18.487 38.8091 18.487 39.339C18.487 39.8689 18.0502 40.2985 17.5114 40.2985H3.14363C1.40745 40.2985 0 38.9143 0 37.2068V3.09168Z" fill="white"/>
<path fill-rule="evenodd" clip-rule="evenodd" d="M17.2358 10.7676C18.5529 10.7676 19.6206 9.71751 19.6206 8.42218C19.6206 7.12684 18.5529 6.07676 17.2358 6.07676C15.9187 6.07676 14.8509 7.12684 14.8509 8.42218C14.8509 9.71751 15.9187 10.7676 17.2358 10.7676ZM17.2358 12.6866C19.6305 12.6866 21.5718 10.7773 21.5718 8.42218C21.5718 6.06702 19.6305 4.15778 17.2358 4.15778C14.841 4.15778 12.8997 6.06702 12.8997 8.42218C12.8997 10.7773 14.841 12.6866 17.2358 12.6866Z" fill="white"/>
<path d="M38.8898 32.235C38.7126 32.1014 38.5471 31.9545 38.3937 31.7958C38.4288 31.5589 38.4954 31.3279 38.5923 31.1079C38.9245 30.5064 38.9617 29.7917 38.6936 29.1608C38.2625 28.6139 37.6012 28.2854 36.8931 28.2658C36.6646 28.2352 36.4393 28.1864 36.2193 28.1196C36.1317 27.9008 36.0728 27.6726 36.0441 27.4396C36.0235 26.7497 35.6848 26.1054 35.1221 25.6854C34.4733 25.4237 33.7378 25.4595 33.1189 25.7828C32.9037 25.8759 32.678 25.9439 32.4467 25.9855C32.2646 25.8417 32.1011 25.6767 31.9606 25.4941C31.5848 24.9008 30.9542 24.5036 30.2441 24.4136C29.5328 24.5028 28.9014 24.9 28.5251 25.4941C28.3879 25.6661 28.2369 25.8276 28.0738 25.9769C27.8316 25.9384 27.5942 25.8736 27.3669 25.7836C26.7488 25.4603 26.0145 25.4241 25.3662 25.6846C24.8042 26.1046 24.4667 26.7481 24.4465 27.4372C24.415 27.6596 24.365 27.8788 24.2963 28.0929C24.0715 28.1782 23.8369 28.2355 23.5975 28.2634C22.8886 28.2835 22.2266 28.6131 21.795 29.1608C21.5261 29.7913 21.5621 30.506 21.8935 31.1079C21.9823 31.3196 22.0522 31.5385 22.1018 31.762C21.9541 31.9392 21.7841 32.0979 21.5968 32.235C20.9868 32.6016 20.5794 33.216 20.4878 33.9079C20.5798 34.5997 20.988 35.2146 21.5984 35.5808C21.7752 35.7143 21.9411 35.8613 22.0945 36.02C22.0594 36.2569 21.9924 36.4879 21.8959 36.7079C21.5637 37.3094 21.5261 38.0241 21.7942 38.655C22.2257 39.2019 22.887 39.5303 23.5951 39.55L23.6298 39.5563V49.1955C23.6298 49.4658 23.7695 49.7184 24.0016 49.8673C24.2334 50.0162 24.5269 50.0413 24.7824 49.9349L30.2441 47.657L35.7058 49.9349C35.9613 50.0413 36.2544 50.0162 36.4866 49.8673C36.7187 49.7184 36.8584 49.4658 36.8584 49.1955V39.5578L36.8923 39.5523C37.6004 39.5319 38.2621 39.2023 38.6928 38.655C38.9621 38.0244 38.9261 37.3098 38.5947 36.7079C38.5059 36.4962 38.4361 36.2773 38.3864 36.0538C38.5342 35.8766 38.7037 35.7179 38.8914 35.5808C39.501 35.2142 39.9088 34.5997 40 33.9079C39.9084 33.216 39.5002 32.6012 38.8898 32.235ZM30.2439 45.7356L25.2834 47.9748V42.0746C25.3104 42.0923 25.3339 42.1143 25.3662 42.1304C26.0137 42.3928 26.7488 42.3579 27.3669 42.0345C27.5801 41.9363 27.8061 41.868 28.0391 41.8318C28.2211 41.9756 28.3842 42.1406 28.5251 42.3233C28.9018 42.9169 29.5332 43.3133 30.2441 43.4021C30.955 43.3129 31.5868 42.9158 31.9631 42.3217C32.0999 42.1496 32.2509 41.9882 32.4144 41.8389C32.657 41.875 32.8948 41.9398 33.1213 42.0322C33.7398 42.3559 34.4749 42.392 35.1237 42.1304C35.1535 42.1135 35.1766 42.0923 35.2064 42.0738L35.2048 47.9748L30.2439 45.7356ZM37.8265 34.3432C37.357 34.6536 36.9968 35.0967 36.7946 35.613C36.7017 36.1701 36.7865 36.7421 37.0376 37.2509C37.1131 37.4394 37.1757 37.6327 37.2245 37.8296C37.0215 37.8877 36.814 37.9325 36.6045 37.9632C36.0308 38.0064 35.4846 38.2197 35.0393 38.5745C34.6756 39.0102 34.4584 39.5437 34.4168 40.1035C34.3849 40.3074 34.3389 40.509 34.2787 40.707C34.0769 40.6587 33.8786 40.5974 33.6853 40.5243C33.1621 40.2792 32.5751 40.1951 32.0018 40.2827C31.4714 40.4799 31.016 40.8308 30.6971 41.2877C30.5598 41.4574 30.4088 41.6161 30.2457 41.7627C30.0826 41.6161 29.9316 41.4574 29.7944 41.2877C29.4755 40.8308 29.0201 40.4803 28.4896 40.2835C28.3519 40.2477 28.2098 40.23 28.0673 40.2304C27.6329 40.256 27.2062 40.3542 26.8062 40.52C26.6124 40.5935 26.4138 40.6544 26.2119 40.7019C26.1518 40.5043 26.1061 40.3023 26.0747 40.0984C26.0311 39.5402 25.8127 39.0082 25.4485 38.5745C25.0012 38.2205 24.453 38.0091 23.8777 37.9687C23.6682 37.9376 23.4611 37.8928 23.2576 37.8343C23.3073 37.6382 23.3698 37.445 23.4453 37.2568C23.6964 36.7476 23.7816 36.176 23.6892 35.6185C23.4865 35.1022 23.1264 34.6595 22.6565 34.3487C22.4825 34.2151 22.3194 34.0682 22.1688 33.9095C22.3194 33.7507 22.4825 33.6038 22.6565 33.4702C23.1264 33.1599 23.4865 32.7167 23.6884 32.2005C23.7816 31.643 23.6968 31.0713 23.4453 30.5622C23.3698 30.3736 23.3077 30.1807 23.2584 29.9838C23.4619 29.9257 23.669 29.8809 23.8785 29.8503C24.4538 29.8086 25.002 29.5961 25.4485 29.2413C25.8122 28.8056 26.0298 28.2721 26.0714 27.7122C26.1033 27.5083 26.1493 27.3068 26.2095 27.1088C26.4109 27.1571 26.6096 27.2184 26.8029 27.2915C27.3253 27.5378 27.9131 27.6219 28.4864 27.5331C29.0164 27.3359 29.4718 26.985 29.7911 26.5281C29.9284 26.3584 30.0794 26.1997 30.2425 26.0531C30.4056 26.1997 30.5566 26.3584 30.6938 26.5281C31.0128 26.985 31.4681 27.3355 31.9986 27.5323C32.5715 27.6227 33.1588 27.5402 33.6816 27.2958C33.8754 27.2223 34.074 27.1614 34.2763 27.1139C34.336 27.3115 34.3821 27.5134 34.4136 27.7173C34.4571 28.2756 34.6756 28.8076 35.0393 29.2413C35.487 29.5953 36.0352 29.8067 36.6101 29.8471C36.82 29.8782 37.0271 29.9229 37.2302 29.9815C37.1809 30.1775 37.118 30.3708 37.0429 30.559C36.7902 31.0678 36.7038 31.6394 36.7946 32.1973C36.9973 32.7135 37.3578 33.1563 37.8273 33.4671C38.0017 33.6007 38.1648 33.7476 38.3149 33.9063C38.1644 34.0654 38.0013 34.2132 37.8265 34.3471V34.3432Z" fill="white"/>
<path fill-rule="evenodd" clip-rule="evenodd" d="M30.2439 36.3751C31.6807 36.3751 32.8455 35.2295 32.8455 33.8164C32.8455 32.4034 31.6807 31.2578 30.2439 31.2578C28.8071 31.2578 27.6423 32.4034 27.6423 33.8164C27.6423 35.2295 28.8071 36.3751 30.2439 36.3751ZM30.2439 38.0808C32.6386 38.0808 34.5799 36.1716 34.5799 33.8164C34.5799 31.4613 32.6386 29.5521 30.2439 29.5521C27.8492 29.5521 25.9079 31.4613 25.9079 33.8164C25.9079 36.1716 27.8492 38.0808 30.2439 38.0808Z" fill="white"/>
<path fill-rule="evenodd" clip-rule="evenodd" d="M8.67209 15.8849C8.67209 15.3549 9.10888 14.9254 9.6477 14.9254H24.8238C25.3627 14.9254 25.7995 15.3549 25.7995 15.8849C25.7995 16.4148 25.3627 16.8444 24.8238 16.8444H9.6477C9.10888 16.8444 8.67209 16.4148 8.67209 15.8849Z" fill="white"/>
<path fill-rule="evenodd" clip-rule="evenodd" d="M5.42005 20.6823C5.42005 20.1524 5.85685 19.7228 6.39566 19.7228H28.0759C28.6147 19.7228 29.0515 20.1524 29.0515 20.6823C29.0515 21.2122 28.6147 21.6418 28.0759 21.6418H6.39566C5.85685 21.6418 5.42005 21.2122 5.42005 20.6823Z" fill="white"/>
<path fill-rule="evenodd" clip-rule="evenodd" d="M5.42005 25.4797C5.42005 24.9498 5.85685 24.5203 6.39566 24.5203H17.2358C17.7746 24.5203 18.2114 24.9498 18.2114 25.4797C18.2114 26.0097 17.7746 26.4392 17.2358 26.4392H6.39566C5.85685 26.4392 5.42005 26.0097 5.42005 25.4797Z" fill="white"/>
<path d="M6.23959 34.9817C6.4391 35.3504 6.9266 35.4997 7.32723 35.3161C7.72786 35.1317 7.89096 34.6833 7.68974 34.3146C6.88677 32.8369 6.70675 31.5115 7.20633 30.7675C7.47237 30.3712 7.9363 30.1704 8.58681 30.1704C8.97366 30.1704 9.11804 30.2928 9.2089 30.4122C9.81313 31.2138 9.23894 33.6548 8.63795 35.1324C8.50412 35.4615 8.63795 35.8317 8.95912 36.022C9.27867 36.2108 9.70126 36.1698 9.97139 35.9221C10.3177 35.6042 10.6933 35.287 11.0201 35.0295V35.3944C11.0201 35.6959 11.2173 35.9683 11.5206 36.0832C11.8239 36.1996 12.1719 36.1355 12.4046 35.9221C12.7753 35.5818 13.2051 35.2481 13.5669 35.0079C13.5572 35.0265 13.5474 35.0445 13.5377 35.0616C13.4136 35.2929 13.4273 35.5676 13.5751 35.7869C13.7235 36.0064 13.9839 36.1407 14.2644 36.1407H17.5087C17.9573 36.1407 18.3198 35.8064 18.3198 35.3944C18.3198 34.9825 17.9573 34.6482 17.5087 34.6482H15.3975C15.4632 34.293 15.447 33.9318 15.2515 33.6407C15.0447 33.3325 14.6846 33.1556 14.2644 33.1556C13.7632 33.1556 13.1736 33.4362 12.635 33.784C12.5937 33.4585 12.3844 33.1907 12.0664 33.0698C11.8499 32.9877 11.5709 32.8803 10.8936 33.2542C11.1604 31.9683 11.2384 30.4862 10.5424 29.5624C10.2383 29.1586 9.65269 28.678 8.58691 28.678C7.3719 28.678 6.39129 29.1414 5.82603 29.9833C5.01736 31.1877 5.16735 33.0094 6.23959 34.9817Z" fill="white"/>
</svg>
