<svg width="46" height="34" viewBox="0 0 46 34" fill="none" xmlns="http://www.w3.org/2000/svg">
<path fill-rule="evenodd" clip-rule="evenodd" d="M0 6.94083C0 3.10751 3.10273 0 6.93013 0H27.0175C30.8449 0 33.9476 3.10751 33.9476 6.94083V27.0592C33.9476 30.8925 30.8449 34 27.0175 34H6.93013C3.10273 34 0 30.8925 0 27.0592V6.94083ZM6.93013 1.81065C4.10118 1.81065 1.80786 4.10751 1.80786 6.94083V27.0592C1.80786 29.8925 4.10118 32.1893 6.93013 32.1893H27.0175C29.8464 32.1893 32.1397 29.8925 32.1397 27.0592V6.94083C32.1397 4.10751 29.8464 1.81065 27.0175 1.81065H6.93013Z" fill="white"/>
<path fill-rule="evenodd" clip-rule="evenodd" d="M44.1922 9.30723C44.1922 8.06505 42.8469 7.29111 41.7756 7.917L33.9477 12.4903V21.5095L41.7755 26.0828C42.8469 26.7087 44.1922 25.9347 44.1922 24.6925V9.30723ZM40.8646 6.353C43.1412 5.02297 46.0001 6.66762 46.0001 9.30723V24.6925C46.0001 27.3322 43.1412 28.9768 40.8646 27.6468L32.1398 22.5495V11.4503L40.8646 6.353Z" fill="white"/>
<path fill-rule="evenodd" clip-rule="evenodd" d="M16.9741 7.84617C15.2545 7.84617 13.8605 9.2423 13.8605 10.9645C13.8605 12.6867 15.2545 14.0829 16.9741 14.0829C18.6936 14.0829 20.0876 12.6867 20.0876 10.9645C20.0876 9.2423 18.6936 7.84617 16.9741 7.84617ZM12.0527 10.9645C12.0527 8.24231 14.2561 6.03552 16.9741 6.03552C19.6921 6.03552 21.8955 8.24231 21.8955 10.9645C21.8955 13.6867 19.6921 15.8935 16.9741 15.8935C14.2561 15.8935 12.0527 13.6867 12.0527 10.9645Z" fill="white"/>
<path fill-rule="evenodd" clip-rule="evenodd" d="M10.6641 19.4076C12.0934 18.0353 14.1534 17.1006 16.9736 17.1006C19.7938 17.1006 21.8538 18.0353 23.283 19.4076C24.6944 20.7628 25.432 22.4868 25.7367 23.9955C26.0911 25.7503 24.5754 26.9586 23.1101 26.9586H10.837C9.37178 26.9586 7.85602 25.7503 8.21045 23.9955C8.51516 22.4868 9.25271 20.7628 10.6641 19.4076ZM11.9152 20.7146C10.8288 21.7577 10.2321 23.1182 9.98242 24.3545C9.9413 24.5581 9.99958 24.7305 10.1388 24.8742C10.2892 25.0294 10.5391 25.1479 10.837 25.1479H23.1101C23.408 25.1479 23.6579 25.0294 23.8084 24.8742C23.9476 24.7305 24.0058 24.5581 23.9647 24.3545C23.715 23.1182 23.1183 21.7577 22.0319 20.7146C20.9634 19.6886 19.362 18.9112 16.9736 18.9112C14.5852 18.9112 12.9838 19.6886 11.9152 20.7146Z" fill="white"/>
</svg>
