<svg width="58" height="26" viewBox="0 0 58 26" fill="none" xmlns="http://www.w3.org/2000/svg">
<path fill-rule="evenodd" clip-rule="evenodd" d="M0 25C0 24.4477 0.447715 24 1 24H57C57.5523 24 58 24.4477 58 25C58 25.5523 57.5523 26 57 26H1C0.447715 26 0 25.5523 0 25Z" fill="white"/>
<path fill-rule="evenodd" clip-rule="evenodd" d="M16 2C14.067 2 12.5 3.567 12.5 5.5C12.5 7.433 14.067 9 16 9C17.933 9 19.5 7.433 19.5 5.5C19.5 3.567 17.933 2 16 2ZM10.5 5.5C10.5 2.46243 12.9624 0 16 0C19.0376 0 21.5 2.46243 21.5 5.5C21.5 8.53757 19.0376 11 16 11C12.9624 11 10.5 8.53757 10.5 5.5Z" fill="white"/>
<path fill-rule="evenodd" clip-rule="evenodd" d="M8.65776 15.663C10.9636 13.9682 13.6934 13.5 15.5 13.5C17.3066 13.5 20.0364 13.9682 22.3422 15.663C24.7015 17.397 26.5 20.3319 26.5 25V26H4.5V25C4.5 20.3319 6.29855 17.397 8.65776 15.663ZM6.53229 24H24.4677C24.238 20.5329 22.8121 18.4904 21.1578 17.2745C19.2969 15.9068 17.0267 15.5 15.5 15.5C13.9733 15.5 11.7031 15.9068 9.84224 17.2745C8.18793 18.4904 6.76204 20.5329 6.53229 24Z" fill="white"/>
<path fill-rule="evenodd" clip-rule="evenodd" d="M42 2C40.067 2 38.5 3.567 38.5 5.5C38.5 7.433 40.067 9 42 9C43.933 9 45.5 7.433 45.5 5.5C45.5 3.567 43.933 2 42 2ZM36.5 5.5C36.5 2.46243 38.9624 0 42 0C45.0376 0 47.5 2.46243 47.5 5.5C47.5 8.53757 45.0376 11 42 11C38.9624 11 36.5 8.53757 36.5 5.5Z" fill="white"/>
<path fill-rule="evenodd" clip-rule="evenodd" d="M35.1578 15.663C37.4636 13.9682 40.1934 13.5 42 13.5C43.8066 13.5 46.5364 13.9682 48.8422 15.663C51.2015 17.397 53 20.3319 53 25V26H31V25C31 20.3319 32.7985 17.397 35.1578 15.663ZM33.0323 24H50.9677C50.738 20.5329 49.3121 18.4904 47.6578 17.2745C45.7969 15.9068 43.5267 15.5 42 15.5C40.4733 15.5 38.2031 15.9068 36.3422 17.2745C34.6879 18.4904 33.262 20.5329 33.0323 24Z" fill="white"/>
</svg>
