<svg width="45" height="44" viewBox="0 0 45 44" fill="none" xmlns="http://www.w3.org/2000/svg">
<path fill-rule="evenodd" clip-rule="evenodd" d="M0 2.96157C0 1.32594 1.30495 0 2.91468 0H27.0362C28.6459 0 29.9509 1.32594 29.9509 2.96157V21.3437C29.9509 21.8513 29.5459 22.2628 29.0463 22.2628C28.5467 22.2628 28.1417 21.8513 28.1417 21.3437V2.96157C28.1417 2.34116 27.6468 1.83821 27.0362 1.83821H2.91468C2.30409 1.83821 1.80911 2.34116 1.80911 2.96157V35.6409C1.80911 36.2613 2.30409 36.7643 2.91468 36.7643H18.4931C18.9927 36.7643 19.3977 37.1758 19.3977 37.6834C19.3977 38.191 18.9927 38.6025 18.4931 38.6025H2.91468C1.30495 38.6025 0 37.2766 0 35.6409V2.96157ZM15.5785 13.6845C15.5785 13.1769 15.9834 12.7654 16.483 12.7654H22.0109C22.5104 12.7654 22.9154 13.1769 22.9154 13.6845V19.3013C22.9154 19.8089 22.5104 20.2204 22.0109 20.2204C21.5113 20.2204 21.1063 19.8089 21.1063 19.3013V15.9034L16.1176 20.9724C15.8423 21.2521 15.4217 21.3215 15.0734 21.1446L11.6363 19.3984L7.07202 24.0361C6.71877 24.395 6.14603 24.395 5.79278 24.0361C5.43953 23.6771 5.43953 23.0952 5.79278 22.7363L10.8181 17.6301C11.0934 17.3504 11.514 17.281 11.8622 17.4579L15.2994 19.2041L19.8271 14.6036H16.483C15.9834 14.6036 15.5785 14.1921 15.5785 13.6845Z" fill="white"/>
<path fill-rule="evenodd" clip-rule="evenodd" d="M33.1571 25.937C33.0947 26.2796 33.025 26.6616 32.9476 27.0454C32.7174 28.1865 32.1451 29.302 31.5162 30.1866C31.0493 30.8435 30.4966 31.4493 29.9508 31.8539V39.8161C29.9511 39.8274 29.956 39.866 30.016 39.9435C30.0922 40.0418 30.2368 40.1736 30.4846 40.3242C30.9841 40.6277 31.7391 40.9109 32.6826 41.1616C34.555 41.6592 36.9253 41.9667 38.8485 42.1489C40.3029 42.2867 41.624 41.2739 41.9492 39.7693L43.1161 34.3711C43.5565 32.3339 41.9715 30.4282 39.9212 30.5299L35.3312 30.7574C34.4473 30.8012 34.0098 29.8051 34.4565 29.1504C35.4938 27.6301 35.6315 26.2036 35.3788 25.2221C35.1125 24.1883 34.5001 23.7946 34.0716 23.7946C33.8501 23.7946 33.7819 23.8456 33.7578 23.8652C33.7163 23.899 33.6339 23.9915 33.5372 24.2551C33.4397 24.521 33.3569 24.8766 33.2633 25.3634C33.2305 25.5344 33.1951 25.7284 33.1571 25.937ZM28.1417 32.0666C28.1417 31.4462 27.6467 30.9433 27.0361 30.9433H25.026C24.4154 30.9433 23.9205 31.4462 23.9205 32.0666V40.2364C23.9205 40.8569 24.4154 41.3598 25.026 41.3598H27.0361C27.6467 41.3598 28.1417 40.8569 28.1417 40.2364V32.0666ZM29.2096 30.0933C28.6758 29.4868 27.8999 29.105 27.0361 29.105H25.026C23.4163 29.105 22.1113 30.431 22.1113 32.0666V40.2364C22.1113 41.8721 23.4163 43.198 25.026 43.198H27.0361C28.0586 43.198 28.9581 42.663 29.4784 41.8535C29.5043 41.87 29.5303 41.8861 29.5561 41.9018C30.2739 42.338 31.2227 42.6737 32.2249 42.94C34.2437 43.4765 36.7326 43.7947 38.6806 43.9792C41.0988 44.2083 43.2071 42.5189 43.7162 40.1636L44.8831 34.7654C45.5792 31.5454 43.0738 28.5332 39.833 28.6938L36.6964 28.8493C37.3411 27.3865 37.4365 25.9511 37.1289 24.7568C36.7405 23.2482 35.6195 21.9564 34.0716 21.9564C33.5393 21.9564 33.0421 22.0923 32.6265 22.4307C32.2283 22.755 31.9966 23.1918 31.842 23.6131C31.6883 24.0322 31.5827 24.5173 31.4878 25.0112C31.4473 25.2217 31.4096 25.4289 31.3709 25.6417C31.3124 25.9636 31.2516 26.2983 31.1753 26.6762C31.0113 27.4891 30.5786 28.3663 30.0497 29.1103C29.7584 29.5201 29.4657 29.8509 29.2096 30.0933Z" fill="white"/>
</svg>
