<svg width="14" height="16" viewBox="0 0 14 16" fill="none" xmlns="http://www.w3.org/2000/svg">
<path d="M9.10167 7.32331L2.66428 0.673273C2.62374 0.631387 2.67548 0.565784 2.72566 0.59546L10.925 5.44481L9.10167 7.32331ZM0.737329 0.0811399C0.69059 0.0331195 0.617141 0.0212008 0.560984 0.0577644C0.221112 0.279056 0 0.642759 0 1.10334V14.8967C0 15.3572 0.221103 15.7209 0.560965 15.9422C0.61713 15.9788 0.690591 15.9669 0.737328 15.9188L8.44332 7.99844L0.737329 0.0811399ZM13.5585 7.05138L11.7715 5.98554L9.77823 8.00156L11.7715 10.0176L13.5949 8.95175C14.141 8.50479 14.141 7.49834 13.5585 7.05138ZM2.66428 15.3299C2.62374 15.3717 2.67548 15.4373 2.72566 15.4077L10.925 10.5583L9.10167 8.67982L2.66428 15.3299Z" fill="white"/>
</svg>
