<svg  viewBox="0 0 182 38" fill="none" xmlns="http://www.w3.org/2000/svg">
<path d="M23.646 16.6055H19.4556C19.2903 16.6055 19.1562 16.7393 19.1562 16.9044V21.0892C19.1562 21.2543 19.2903 21.3881 19.4556 21.3881H23.646C23.8113 21.3881 23.9454 21.2543 23.9454 21.0892V16.9044C23.9454 16.7393 23.8113 16.6055 23.646 16.6055Z" fill="white"/>
<path d="M32.0269 16.6055H27.8364C27.6711 16.6055 27.5371 16.7393 27.5371 16.9044V21.0892C27.5371 21.2543 27.6711 21.3881 27.8364 21.3881H32.0269C32.1922 21.3881 32.3262 21.2543 32.3262 21.0892V16.9044C32.3262 16.7393 32.1922 16.6055 32.0269 16.6055Z" fill="white"/>
<path d="M15.2652 16.6055H11.0747C10.9094 16.6055 10.7754 16.7393 10.7754 16.9044V21.0892C10.7754 21.2543 10.9094 21.3881 11.0747 21.3881H15.2652C15.4305 21.3881 15.5645 21.2543 15.5645 21.0892V16.9044C15.5645 16.7393 15.4305 16.6055 15.2652 16.6055Z" fill="white"/>
<path d="M31.0334 0.177206L26.5556 7.93706C26.5043 8.02823 26.4295 8.10404 26.339 8.1566C26.2485 8.20916 26.1455 8.23657 26.0408 8.23597H3.59183V29.7579H13.637C13.6694 29.7572 13.7014 29.7653 13.7296 29.7814C13.7578 29.7974 13.7811 29.8208 13.7971 29.849C13.813 29.8772 13.8211 29.9092 13.8203 29.9416C13.8195 29.9739 13.8099 30.0055 13.7926 30.0329L12.0566 33.046C12.0015 33.1365 11.9242 33.2114 11.832 33.2638C11.7399 33.3161 11.6358 33.344 11.5298 33.3449H1.19728C0.879739 33.3449 0.575207 33.2189 0.350674 32.9947C0.126141 32.7705 0 32.4663 0 32.1492V5.84465C0 5.52754 0.126141 5.22342 0.350674 4.99919C0.575207 4.77496 0.879739 4.64898 1.19728 4.64898H24.7238L30.8538 0.0217693C30.9616 -0.0499705 31.1292 0.0695958 31.0334 0.177206Z" fill="white"/>
<path d="M43.1021 5.84459V32.1492C43.1021 32.4663 42.976 32.7704 42.7515 32.9946C42.5269 33.2189 42.2224 33.3448 41.9049 33.3448H18.3903L12.2244 37.984C12.2022 37.9967 12.1765 38.0021 12.1511 37.9992C12.1257 37.9963 12.1019 37.9854 12.0832 37.968C12.0644 37.9506 12.0518 37.9277 12.047 37.9026C12.0423 37.8775 12.0457 37.8516 12.0567 37.8286L16.5465 30.0568C16.5988 29.9664 16.6738 29.8913 16.7641 29.8388C16.8544 29.7864 16.9569 29.7585 17.0614 29.7579H39.5103V8.23592H29.4651C29.433 8.23954 29.4005 8.23381 29.3716 8.21941C29.3426 8.205 29.3185 8.18255 29.302 8.15474C29.2856 8.12693 29.2775 8.09497 29.2788 8.0627C29.2802 8.03043 29.2908 7.99923 29.3095 7.97287L31.0575 4.94784C31.1098 4.85749 31.1848 4.78236 31.2751 4.72992C31.3654 4.67748 31.4679 4.64956 31.5724 4.64893H41.9049C42.2224 4.64893 42.5269 4.7749 42.7515 4.99913C42.976 5.22336 43.1021 5.52748 43.1021 5.84459Z" fill="white"/>
<path d="M54.3326 10.2207C54.0628 10.2439 53.7912 10.2102 53.5354 10.1216C53.2796 10.033 53.0454 9.89159 52.848 9.70657C52.6796 9.52574 52.5494 9.31294 52.4651 9.08083C52.3807 8.84872 52.344 8.60204 52.3571 8.35547C52.3467 7.87058 52.5223 7.40007 52.848 7.04025C53.0362 6.8392 53.2675 6.68318 53.5246 6.58381C53.7816 6.48444 54.0578 6.44428 54.3326 6.46633C54.6084 6.45147 54.8843 6.49491 55.1422 6.59381C55.4001 6.6927 55.6342 6.84483 55.8292 7.04025C56.1407 7.40545 56.2994 7.87648 56.2722 8.35547C56.2708 8.83112 56.0963 9.29006 55.7813 9.64679C55.5959 9.84163 55.3703 9.99388 55.1202 10.093C54.87 10.1921 54.6013 10.2357 54.3326 10.2207ZM55.8651 28.5622H52.8958V13.4968H55.8651V28.5622Z" fill="white"/>
<path d="M68.9635 8.47493C70.361 8.44845 71.7483 8.71738 73.0343 9.26406C74.1662 9.7612 75.1725 10.5047 75.9796 11.4402C76.7951 12.3843 77.421 13.4762 77.8234 14.6565C78.2255 15.9043 78.4276 17.2077 78.422 18.5185C78.4479 20.2548 78.0838 21.9749 77.3565 23.5522C76.674 25.0449 75.577 26.3105 74.1957 27.199C72.6252 28.1607 70.8043 28.6351 68.9635 28.5621H61.0615V8.47493H68.9635ZM68.8199 25.5729C70.1141 25.6363 71.3968 25.3025 72.4955 24.6164C73.4285 23.9863 74.1502 23.0906 74.5668 22.0457C75.0255 20.9064 75.2495 19.6864 75.2253 18.4587C75.2396 17.259 75.0157 16.0683 74.5668 14.9554C74.1434 13.9112 73.4234 13.0135 72.4955 12.3728C71.3982 11.6824 70.1154 11.3444 68.8199 11.4043H64.1984V25.5729H68.8199Z" fill="white"/>
<path d="M83.8095 10.2206C83.5379 10.2441 83.2644 10.2104 83.0066 10.1219C82.7489 10.0333 82.5126 9.89183 82.3129 9.70651C81.9774 9.33832 81.801 8.85277 81.822 8.35541C81.8208 7.86995 82 7.40131 82.3249 7.04018C82.5164 6.84482 82.7488 6.6942 83.0055 6.59911C83.2622 6.50402 83.5367 6.46682 83.8095 6.49017C84.0855 6.47125 84.3624 6.51044 84.6223 6.60518C84.8821 6.69993 85.1192 6.84813 85.3181 7.04018C85.4822 7.22091 85.609 7.43225 85.6912 7.66206C85.7734 7.89186 85.8094 8.13561 85.797 8.37932C85.8 8.85362 85.6297 9.31274 85.3181 9.67064C85.1234 9.86859 84.887 10.0207 84.626 10.1158C84.365 10.211 84.0861 10.2468 83.8095 10.2206ZM85.342 28.5621H82.3847V13.4968H85.342V28.5621Z" fill="white"/>
<path d="M103.876 13.4967V28.5621H100.883V26.2425C100.325 26.9577 99.6338 27.5585 98.8476 28.0121C97.9037 28.5851 96.815 28.8756 95.7107 28.849C94.4839 28.8586 93.2811 28.5095 92.2506 27.8447C91.1997 27.1496 90.3527 26.1882 89.7962 25.0588C89.1595 23.7955 88.843 22.3955 88.8743 20.9816C88.8354 19.5745 89.1525 18.1804 89.7962 16.9283C90.405 15.8049 91.3069 14.8671 92.4062 14.2141C93.5585 13.5485 94.8707 13.2096 96.2016 13.2337C97.1714 13.2131 98.1295 13.4482 98.9793 13.9152C99.7118 14.3261 100.358 14.8741 100.883 15.5293V13.4967H103.876ZM96.4051 26.1707C97.2512 26.1825 98.0827 25.95 98.7997 25.5012C99.4903 25.0423 100.044 24.4063 100.404 23.6598C100.797 22.8395 100.994 21.9389 100.979 21.0294C100.993 20.1354 100.796 19.2506 100.404 18.4467C100.051 17.7036 99.505 17.068 98.8237 16.6054C98.1015 16.1686 97.2734 15.9376 96.4291 15.9376C95.5848 15.9376 94.7567 16.1686 94.0345 16.6054C93.3457 17.0509 92.7912 17.6749 92.4302 18.4109C92.037 19.2228 91.8402 20.1156 91.8555 21.0174C91.84 21.9269 92.0367 22.8275 92.4302 23.6479C92.7898 24.3943 93.344 25.0303 94.0345 25.4892C94.7405 25.9441 95.565 26.1812 96.4051 26.1707Z" fill="white"/>
<path d="M108.019 28.5621V7.32715H110.976V28.5621H108.019Z" fill="white"/>
<path d="M128.348 16.9523C127.685 15.8115 126.731 14.8667 125.583 14.2142C124.39 13.5558 123.049 13.2104 121.686 13.2104C120.322 13.2104 118.982 13.5558 117.788 14.2142C116.631 14.8697 115.672 15.8236 115.011 16.9762C114.315 18.2167 113.964 19.6201 113.993 21.0415C113.963 22.4592 114.314 23.8591 115.011 25.0948C115.668 26.2535 116.628 27.2123 117.788 27.8687C118.982 28.5271 120.322 28.8725 121.686 28.8725C123.049 28.8725 124.39 28.5271 125.583 27.8687C126.737 27.2082 127.692 26.2502 128.348 25.0948C129.04 23.8569 129.391 22.4585 129.366 21.0415C129.394 19.6126 129.043 18.2019 128.348 16.9523ZM126.277 26.1708C126.288 26.2025 126.289 26.2365 126.282 26.269C126.274 26.3015 126.258 26.3312 126.234 26.3549C126.21 26.3785 126.18 26.395 126.148 26.4026C126.115 26.4103 126.081 26.4087 126.05 26.398L123.811 25.6448C123.16 25.9937 122.43 26.1707 121.692 26.1589C120.847 26.1676 120.018 25.9398 119.297 25.5013C118.58 25.0587 117.997 24.4307 117.609 23.6839C117.188 22.8642 116.986 21.9499 117.022 21.0295C116.983 20.0974 117.186 19.1709 117.609 18.3393C118.002 17.6005 118.593 16.9855 119.316 16.5631C120.039 16.1408 120.866 15.9278 121.704 15.9479C122.547 15.9337 123.377 16.1575 124.098 16.5936C124.774 17.027 125.33 17.6232 125.714 18.3273C126.132 19.1609 126.334 20.0859 126.301 21.0175C126.331 21.9375 126.13 22.8503 125.714 23.6719C125.654 23.7877 125.586 23.8995 125.511 24.0067L126.277 26.1708Z" fill="white"/>
<path d="M134.646 31.0614C135.297 31.5381 136.026 31.8982 136.801 32.1255C137.623 32.382 138.478 32.515 139.339 32.5201C140.639 32.6193 141.926 32.2122 142.931 31.3842C143.36 30.9354 143.689 30.4005 143.896 29.815C144.102 29.2295 144.181 28.6069 144.128 27.9885V26.1711C143.815 26.6804 143.409 27.1265 142.931 27.4863C142.406 27.9117 141.815 28.2507 141.183 28.4907C140.514 28.7441 139.804 28.8737 139.088 28.8733C137.763 28.8995 136.457 28.5593 135.314 27.8904C134.171 27.2215 133.235 26.2499 132.611 25.083C131.931 23.8458 131.589 22.4524 131.617 21.0417C131.591 19.6265 131.924 18.2278 132.587 16.9765C133.226 15.8317 134.16 14.8782 135.292 14.2145C136.429 13.5406 137.73 13.1931 139.052 13.2101C140.118 13.1896 141.171 13.4493 142.105 13.9634C142.88 14.3774 143.567 14.9378 144.128 15.6134V13.4971H147.098V27.6418C147.17 29.1663 146.796 30.6788 146.02 31.994C145.332 33.0586 144.339 33.8918 143.171 34.3853C141.961 34.9046 140.656 35.1652 139.339 35.1505C138.25 35.1484 137.168 34.9791 136.131 34.6484C135.197 34.3815 134.324 33.9392 133.556 33.3451L134.646 31.0614ZM139.435 15.8764C138.588 15.873 137.758 16.1093 137.041 16.558C136.304 17.0001 135.7 17.632 135.292 18.3873C134.876 19.2009 134.666 20.1042 134.682 21.0178C134.666 21.9237 134.876 22.8193 135.292 23.6243C135.692 24.3704 136.277 25.0006 136.993 25.4537C137.714 25.8935 138.542 26.1252 139.387 26.1233C140.271 26.1448 141.142 25.9169 141.901 25.4657C142.652 25.0338 143.266 24.3999 143.673 23.6363C144.067 22.8152 144.272 21.9163 144.272 21.0058C144.272 20.0953 144.067 19.1964 143.673 18.3754C143.272 17.6431 142.68 17.0319 141.961 16.6058C141.212 16.1245 140.338 15.8711 139.447 15.8764H139.435Z" fill="white"/>
<path d="M161.285 22.5841V13.4971H164.243V28.5624H161.285V26.1711C160.788 26.9377 160.125 27.5832 159.346 28.0602C158.427 28.6188 157.367 28.9011 156.293 28.8733C155.576 28.8989 154.862 28.7689 154.201 28.4923C153.539 28.2157 152.946 27.799 152.461 27.2711C151.43 26.0254 150.909 24.4368 151.001 22.8232V13.4971H153.958V21.9863C153.95 22.7113 154.072 23.432 154.317 24.1146C154.552 24.7437 154.969 25.289 155.514 25.6809C156.106 26.0922 156.817 26.298 157.538 26.2668C158.523 26.2877 159.481 25.9377 160.22 25.2863C160.585 24.9416 160.87 24.5208 161.054 24.0538C161.238 23.5868 161.317 23.085 161.285 22.5841Z" fill="white"/>
<path d="M181.339 26.5772C180.601 27.2536 179.745 27.7886 178.813 28.1555C177.751 28.6161 176.606 28.8523 175.448 28.849C174.001 28.8767 172.572 28.5351 171.294 27.8566C170.125 27.2242 169.156 26.2805 168.492 25.1304C167.811 23.9283 167.463 22.566 167.486 21.1848C167.446 19.6764 167.814 18.185 168.552 16.8684C169.215 15.708 170.19 14.7555 171.366 14.1184C172.534 13.4732 173.85 13.1396 175.185 13.1499C176.399 13.135 177.593 13.458 178.633 14.0825C179.658 14.6945 180.505 15.5644 181.088 16.6054C181.716 17.7769 182.029 19.091 181.997 20.4195V21.6869H170.444C170.572 22.9392 171.176 24.0948 172.132 24.9152C173.146 25.7317 174.422 26.1562 175.724 26.1109C176.615 26.1512 177.501 25.9487 178.286 25.525C178.852 25.193 179.389 24.813 179.89 24.3891L181.339 26.5772ZM175.161 15.876C174.12 15.8534 173.095 16.1271 172.204 16.6652C171.754 16.9784 171.374 17.3813 171.087 17.8484C170.801 18.3155 170.614 18.8367 170.54 19.3793H178.992V19.176C178.941 18.5533 178.717 17.957 178.346 17.4543C177.976 16.9546 177.497 16.5457 176.945 16.2586C176.388 15.9938 175.777 15.8628 175.161 15.876Z" fill="white"/>
</svg>
