<svg fill="none" viewBox="0 0 180 180"  xmlns="http://www.w3.org/2000/svg" xmlns:xlink="http://www.w3.org/1999/xlink"><mask id="a" height="180" maskUnits="userSpaceOnUse" width="174" x="3" y="0"><path d="m73.6663 6.58837c9.1071-8.78449 23.5603-8.78449 32.6677 0 5.208 5.02333 12.449 7.36933 19.623 6.35753 12.547-1.7694 24.24 6.7012 26.429 19.1454 1.252 7.1161 5.727 13.258 12.128 16.6442 11.193 5.9215 15.66 19.6272 10.095 30.9778-3.182 6.4908-3.182 14.0826 0 20.5737 5.565 11.35 1.098 25.056-10.095 30.978-6.401 3.386-10.876 9.528-12.128 16.644-2.189 12.444-13.882 20.915-26.429 19.145-7.174-1.012-14.415 1.334-19.623 6.358-9.1074 8.784-23.5606 8.784-32.6677 0-5.2078-5.024-12.4492-7.37-19.6237-6.358-12.5463 1.77-24.2393-6.701-26.4285-19.145-1.252-7.116-5.7274-13.258-12.1282-16.644-11.19323-5.922-15.659521-19.628-10.09476-30.978 3.18218-6.4911 3.18218-14.0829 0-20.5737-5.564762-11.3506-1.09847-25.0563 10.09476-30.9778 6.4008-3.3862 10.8762-9.5281 12.1282-16.6442 2.1892-12.4442 13.8822-20.9148 26.4285-19.1454 7.1745 1.0118 14.4159-1.3342 19.6237-6.35753z" fill="#49ceb1"/></mask><path d="m73.6663 6.58837c9.1071-8.78449 23.5603-8.78449 32.6677 0 5.208 5.02333 12.449 7.36933 19.623 6.35753 12.547-1.7694 24.24 6.7012 26.429 19.1454 1.252 7.1161 5.727 13.258 12.128 16.6442 11.193 5.9215 15.66 19.6272 10.095 30.9778-3.182 6.4908-3.182 14.0826 0 20.5737 5.565 11.35 1.098 25.056-10.095 30.978-6.401 3.386-10.876 9.528-12.128 16.644-2.189 12.444-13.882 20.915-26.429 19.145-7.174-1.012-14.415 1.334-19.623 6.358-9.1074 8.784-23.5606 8.784-32.6677 0-5.2078-5.024-12.4492-7.37-19.6237-6.358-12.5463 1.77-24.2393-6.701-26.4285-19.145-1.252-7.116-5.7274-13.258-12.1282-16.644-11.19323-5.922-15.659521-19.628-10.09476-30.978 3.18218-6.4911 3.18218-14.0829 0-20.5737-5.564762-11.3506-1.09847-25.0563 10.09476-30.9778 6.4008-3.3862 10.8762-9.5281 12.1282-16.6442 2.1892-12.4442 13.8822-20.9148 26.4285-19.1454 7.1745 1.0118 14.4159-1.3342 19.6237-6.35753z" fill="#49ceb1"/><g mask="url(#a)"><path d="m177 0v180h-174z" fill="#1f7a66" fill-opacity=".14"/></g><g fill="#fff"><g opacity=".6"><path d="m35.4483 50.8947 1.2552-1.9684 11.5379 7.1537-1.4 2.2565-6.8552-4.225 3.2828 5.7134-1.0138 1.6324-6.5172-.3841 6.8069 4.225-1.4 2.2565-11.538-7.1537 1.2552-2.0165 9.3655.6722z"/><path d="m51.0898 52.3348c-1.1104.2401-2.2207.1441-3.3311-.24-1.1103-.4321-2.1241-1.1523-3.0896-2.1606-.9655-1.0562-1.5931-2.1125-1.8828-3.2647-.2897-1.1523-.2897-2.2566.0966-3.3128.3379-1.1043 1.0138-2.0645 2.0275-2.9767 1.0138-.9123 2.0759-1.4884 3.1863-1.7285 1.1103-.24 2.2206-.192 3.331.2401 1.1103.4321 2.1241 1.1523 3.0896 2.1605.9656 1.0083 1.5931 2.1125 1.8828 3.2648s.2897 2.2565-.0966 3.3128c-.3379 1.1043-1.0137 2.0645-2.0275 2.9767-.9656.9122-2.0276 1.4884-3.1862 1.7284zm2.8-6.0974c-.0483-1.0083-.5794-2.0645-1.5931-3.2168-1.0138-1.1043-2.0276-1.7284-3.0414-1.8725-1.0138-.144-1.9311.1441-2.8.9123-.869.7681-1.2552 1.6323-1.2069 2.6406.0483 1.0082.5793 2.0645 1.5931 3.1687 1.0138 1.1043 2.0276 1.7285 3.0414 1.9205 1.0138.144 1.931-.144 2.8-.9122.8689-.7202 1.2551-1.6324 1.2069-2.6406z"/><path d="m62.1451 29.1454 2.5104-1.2963 6.2276 12.0509-1.9793 1.0082-9.9931-4.561 3.9586 7.6818-2.5104 1.2963-6.2276-12.0509 1.9794-1.0082 9.9931 4.5611z"/><path d="m72.8142 39.3717-3.2827-13.1552 9.1241-2.2565.5793 2.2565-6.2758 1.5364.7724 3.0727 5.8896-1.4403.5794 2.2565-5.8897 1.4403.8207 3.3128 6.2759-1.5363.5793 2.2565z"/><path d="m94.7792 23-5.3586 7.5858.1931 6.1455-2.9931.096-.1931-6.1455-5.8897-7.2017 3.4276-.096 3.8621 4.8972 3.5724-5.1373z"/><path d="m111.724 34.7621c.242.6721.242 1.3923.048 2.2085-.338 1.1043-.965 1.8244-1.979 2.2566-1.014.384-2.221.384-3.621 0l-6.2272-1.8245 3.8142-13.0111 6.034 1.7764c1.352.3841 2.366 1.0083 2.945 1.8245.628.8162.772 1.7764.483 2.8326-.193.6722-.58 1.2003-1.062 1.6324-.531.3841-1.111.6242-1.835.6722.676.4321 1.159.9602 1.4 1.6324zm-3.476 2.2565c.435-.144.724-.5281.869-1.1042.193-.5762.145-1.0563-.145-1.4404-.289-.3841-.772-.6721-1.544-.9122l-3.042-.9122-.965 3.3128 3.041.9122c.772.2881 1.352.2881 1.786.144zm-3.234-6.4815 2.703.8162c.724.24 1.304.24 1.738.096.435-.144.724-.4801.869-1.0083.145-.5281.097-1.0082-.193-1.3443s-.772-.6241-1.545-.8642l-2.703-.8162z"/><path d="m120.897 46.2858.434-3.2168-5.455-3.2168-2.655 1.9205-2.607-1.5364 12.31-8.498 2.076 1.2003-1.497 14.8355zm-3.042-7.8739 3.766 2.2085.724-5.4733z"/><path d="m125.821 49.4549c-.338-1.1043-.338-2.2566 0-3.3608.338-1.1523 1.014-2.2086 1.979-3.1688.966-1.0082 2.028-1.6804 3.138-2.0645s2.269-.4321 3.379-.096c1.111.2881 2.173.9122 3.187 1.8724.627.6242 1.158 1.2963 1.593 2.0645.386.7682.627 1.4884.676 2.2086l-2.173.8642c-.096-.7202-.29-1.3924-.579-1.9205-.29-.5281-.628-1.0562-1.111-1.4884-.868-.8161-1.786-1.2002-2.8-1.1042-1.013.096-2.027.6721-3.041 1.7764-1.014 1.0563-1.593 2.1125-1.69 3.1208-.096 1.0082.338 1.9204 1.207 2.7846.435.4321.966.7682 1.545 1.0563.579.24 1.207.4321 1.931.5281l-.772 2.2085c-.724 0-1.448-.192-2.269-.5761-.773-.3841-1.497-.8642-2.173-1.4884-1.062-1.0562-1.689-2.0645-2.027-3.2167z"/><path d="m138.855 67.2185-1.979-3.0247 2.076-8.306-5.262 3.3608-1.642-2.4966 11.442-7.3458 1.641 2.4967-5.021 3.2167 8.111 1.5364 1.931 2.9767-8.883-1.7764z"/><path d="m46.359 130.833-5.2621 4.081c-.6759-.336-1.3517-.768-2.0276-1.344s-1.3034-1.248-1.8828-1.968c-.8689-1.153-1.4482-2.305-1.6413-3.457-.1931-1.153-.0483-2.305.4344-3.361.4828-1.104 1.3035-2.065 2.4138-2.929 1.1104-.864 2.269-1.392 3.4276-1.584s2.3173-.048 3.3793.432c1.1104.48 2.0759 1.248 2.8966 2.352.5793.769 1.0621 1.585 1.3517 2.401.2897.816.4345 1.584.3862 2.353l-2.2689.576c-.0483-.768-.1449-1.441-.338-2.065-.1931-.576-.531-1.152-.9655-1.728-1.5931-2.065-3.6207-2.161-6.0345-.288-1.2552.96-1.9793 1.92-2.1724 2.928-.1931 1.009.1448 2.065.9655 3.121.4345.576.9655 1.104 1.5931 1.585l2.3655-1.825-1.6413-2.112 1.6413-1.249z"/><path d="m45.5865 138.515c-.1931-1.392.3379-2.833 1.4965-4.273l4.9724-6.242 2.3173 1.825-5.069 6.337c-.6759.865-1.0138 1.633-.9655 2.401s.4345 1.392 1.1586 2.016c.7241.577 1.4966.817 2.2207.673.7724-.144 1.4483-.624 2.1241-1.441l5.069-6.337 2.3172 1.824-4.9724 6.242c-1.1586 1.488-2.462 2.256-3.862 2.4s-2.8483-.384-4.3449-1.536c-1.4482-1.2-2.2689-2.497-2.462-3.889z"/><path d="m66.2005 152.534.0966-3.265-5.7449-2.592-2.4138 2.208-2.7517-1.248 11.3448-9.746 2.1725 1.008.0482 14.883zm-3.8621-7.49 3.9587 1.825.1448-5.522z"/><path d="m83.6277 156.712-3.2345-.624-1.4965-4.705c-.1449-.385-.2897-.625-.5311-.817-.2413-.192-.5793-.336-.9655-.384l-1.4483-.288-.9655 5.185-2.9448-.576 2.5586-13.299 6.1311 1.152c1.5448.288 2.7034.865 3.3793 1.681.6758.816.8689 1.92.6276 3.217-.1931 1.008-.6276 1.776-1.3518 2.352-.6758.576-1.5931.864-2.6551.912.6758.288 1.1586.913 1.4965 1.825zm-2.5586-8.594c.4345-.24.7241-.672.8207-1.297.1448-.624 0-1.152-.2897-1.488-.3379-.384-.9172-.624-1.7379-.768l-2.8483-.528-.7241 3.649 2.8483.528c.8689.144 1.4965.096 1.931-.096z"/><path d="m97.531 156.424-1.4483-2.929-6.3241.288-1.1586 3.073-3.0414.144 5.6483-13.779 2.4138-.096 6.8553 13.251zm-6.8552-4.945 4.3449-.193-2.4138-4.945z"/><path d="m108.394 140.051 2.703-.816 3.91 12.963-2.124.624-8.979-6.337 2.51 8.258-2.703.816-3.9105-12.963 2.1245-.624 8.979 6.289z"/><path d="m121.959 148.693-5.504-9.65-3.717 2.112-1.207-2.112 10.042-5.666 1.207 2.113-3.718 2.112 5.504 9.651z"/><path d="m130.89 143.124-8.931-10.227 7.097-6.145 1.544 1.776-4.876 4.225 2.076 2.401 4.587-3.937 1.544 1.776-4.586 3.937 2.221 2.545 4.876-4.225 1.545 1.728z"/><path d="m140.448 134.29-10.765-8.306 5.745-7.346 1.834 1.441-3.958 5.041 2.51 1.968 3.717-4.753 1.835 1.44-3.718 4.754 2.704 2.064 3.958-5.041 1.835 1.44z"/><path d="m145.444 115.579-3.373-1.567c4.085-7.445 6.176-15.4985 6.176-23.9441 0-6.1383-1.14-12.146-3.373-17.8925l3.563-1.1754c2.375 6.0948 3.563 12.4943 3.563 19.0679 0 9.0115-2.185 17.5881-6.556 25.5111z"/><path d="m34.5563 115.578c-4.3709-7.966-6.5563-16.5427-6.5563-25.4671 0-6.5301 1.1877-12.9296 3.5632-19.0679l3.5632 1.1754c-2.2329 5.7465-3.3731 11.7542-3.3731 17.8925 0 8.402 2.0904 16.4561 6.1762 23.9441z"/></g><path d="m79.8934 57.21h19.266v4.408l-11.932 22.382h-6.308l11.894-22.04h-12.92z"/><path d="m60.9262 95.85h8.22c2.3 0 4.28.42 5.94 1.26s2.93 2.05 3.81 3.63 1.32 3.47 1.32 5.67-.44 4.1-1.32 5.7c-.86 1.58-2.12 2.79-3.78 3.63s-3.65 1.26-5.97 1.26h-8.22zm7.89 17.37c4.5 0 6.75-2.27 6.75-6.81 0-4.52-2.25-6.78-6.75-6.78h-3.21v13.59zm30.5449 3.78-2.01-4.68h-9.84l-2.01 4.68h-4.71l9.72-21.15h3.75l9.7199 21.15zm-10.32-8.22h6.78l-3.39-7.92zm32.7009-12.93-8.76 11.58v9.57h-4.68v-9.57l-8.7304-11.58h5.3104l5.73 7.83 5.82-7.83z"/></g></svg>
