<svg fill="none" viewBox="0 0 60 60"  xmlns="http://www.w3.org/2000/svg" xmlns:xlink="http://www.w3.org/1999/xlink"><clipPath id="a"><path d="m10.5 12.75h39v34.5h-39z"/></clipPath><mask id="b" height="60" maskUnits="userSpaceOnUse" width="60" x="0" y="0"><rect fill="#ecd8f6" height="60" rx="14" width="60"/></mask><rect fill="#ffd0c6" height="60" rx="14" width="60"/><g fill="#fff"><g mask="url(#b)"><path d="m-16.5 36h40.5v40.5h-40.5z" opacity=".24"/><circle cx="56.25" cy="3.75" opacity=".24" r="22.5"/></g><g clip-path="url(#a)"><path d="m31.8959 27.8027h-3.7917c-.1496 0-.2708.1214-.2708.271v3.7941c0 .1497.1212.271.2708.271h3.7917c.1496 0 .2708-.1213.2708-.271v-3.7941c0-.1496-.1212-.271-.2708-.271z"/><path d="m39.4791 27.8027h-3.7916c-.1496 0-.2709.1214-.2709.271v3.7941c0 .1497.1213.271.2709.271h3.7916c.1496 0 .2709-.1213.2709-.271v-3.7941c0-.1496-.1213-.271-.2709-.271z"/><path d="m24.3125 27.8027h-3.7917c-.1495 0-.2708.1214-.2708.271v3.7941c0 .1497.1213.271.2708.271h3.7917c.1496 0 .2708-.1213.2708-.271v-3.7941c0-.1496-.1212-.271-.2708-.271z"/><path d="m38.58 12.9134-4.0463 7.03c-.0478.0826-.1166.1511-.1993.1987-.0827.0475-.1765.0725-.2719.0723h-20.3125v19.5125h9.0892c.0285-.0001.0565.0074.0813.0217.0247.0143.0452.0348.0595.0595.0142.0247.0218.0528.0218.0813 0 .0286-.0075.0566-.0218.0814l-1.5763 2.7371c-.0478.0826-.1166.1511-.1993.1987s-.1765.0725-.2719.0723h-9.3492c-.287-.0008-.5621-.1153-.7651-.3184s-.3174-.4783-.3182-.7656v-23.8486c.0008-.2872.1152-.5625.3182-.7656s.4781-.3176.7651-.3184h21.2821l5.5575-4.1899c.0199-.0149.0444-.0224.0692-.0213.0249.0011.0486.0108.0671.0274s.0307.0391.0345.0637-.0011.0497-.0137.0712z"/><path d="m49.5 18.0462v23.8486c0 .2875-.1141.5632-.3173.7665-.2031.2033-.4787.3175-.766.3175h-21.2821l-5.5683 4.2006c-.0193.0149-.0432.0227-.0675.0221-.0244-.0007-.0478-.0097-.0663-.0257-.0185-.0159-.0309-.0377-.0351-.0618-.0043-.024-.0001-.0488.0118-.0701l4.058-7.0462c.0475-.0824.1159-.1508.1983-.1984s.1758-.0726.271-.0726h20.3135v-19.5124h-9.0891c-.0286 0-.0566-.0075-.0813-.0218-.0247-.0142-.0453-.0348-.0595-.0595-.0143-.0247-.0218-.0528-.0218-.0813 0-.0286.0075-.0566.0217-.0813l1.5774-2.737c.0475-.0824.1159-.1509.1983-.1984.0824-.0476.1759-.0726.271-.0726h9.35c.2873 0 .5628.1142.766.3174.2031.2033.3173.4789.3173.7664z"/></g></g></svg>
