<svg width="20" height="20" viewBox="0 0 20 20" fill="none" xmlns="http://www.w3.org/2000/svg">
<path d="M19.8408 10.921L18.9466 10.1392C18.7343 9.9536 18.3911 9.9536 18.1788 10.1392L10 17.2744L1.82116 10.1392C1.6089 9.9536 1.26567 9.9536 1.0534 10.1392L0.159196 10.921C-0.0530654 11.1066 -0.0530654 11.4067 0.159196 11.5923L9.61612 19.8608C9.82839 20.0464 10.1716 20.0464 10.3839 19.8608L19.8408 11.5923C20.0531 11.4067 20.0531 11.1066 19.8408 10.921Z" fill="#071D40"/>
<path d="M19.8408 0.921027L18.9466 0.139191C18.7343 -0.0463968 18.3911 -0.0463968 18.1788 0.139191L10 7.27443L1.82116 0.139191C1.6089 -0.0463968 1.26567 -0.0463968 1.0534 0.139191L0.159196 0.921027C-0.0530654 1.10661 -0.0530654 1.40671 0.159196 1.5923L9.61612 9.86081C9.82839 10.0464 10.1716 10.0464 10.3839 9.86081L19.8408 1.5923C20.0531 1.40671 20.0531 1.10661 19.8408 0.921027Z" fill="#071D40"/>
</svg>
