<svg width="14" height="12" viewBox="0 0 14 12"  xmlns="http://www.w3.org/2000/svg">
<path d="M5.98695 0.095258L6.50255 0.631781C6.62458 0.758765 6.62458 0.96466 6.50255 1.09167L2.46272 5.29544H13.6875C13.8601 5.29544 14 5.44104 14 5.62062V6.37938C14 6.55896 13.8601 6.70456 13.6875 6.70456H2.46272L6.50255 10.9084C6.62458 11.0353 6.62458 11.2412 6.50255 11.3682L5.98695 11.9048C5.86492 12.0317 5.66706 12.0317 5.545 11.9048L0.0915232 6.22995C-0.030508 6.10297 -0.030508 5.89708 0.0915232 5.77007L5.54503 0.095258C5.66706 -0.0317527 5.86492 -0.0317527 5.98695 0.095258Z" />
</svg>
