<svg  viewBox="0 0 32 32"  xmlns="http://www.w3.org/2000/svg">
<path d="M10.9374 12.0258H7.90258C8.83742 10.129 10.409 8.6071 12.3465 7.74903C11.7277 8.91871 11.24 10.3774 10.9374 12.0258Z" />
<path d="M13.1458 12.0258C13.8052 8.82839 15.16 6.96774 16 6.96774C16.84 6.96774 18.1948 8.82839 18.8542 12.0258H13.1458Z" />
<path d="M24.8516 14.1935C24.969 14.7761 25.0323 15.3813 25.0323 16C25.0323 16.6187 24.969 17.2239 24.8516 17.8065H21.3426C21.3877 17.2148 21.4194 16.6187 21.4194 16C21.4194 15.3813 21.3877 14.7852 21.3426 14.1935H24.8516Z" />
<path d="M21.0626 19.9742H24.0974C23.1626 21.871 21.591 23.3929 19.6535 24.251C20.2723 23.0813 20.76 21.6226 21.0626 19.9742Z" />
<path d="M24.0974 12.0258H21.0626C20.76 10.3774 20.2723 8.91871 19.6535 7.74903C21.591 8.6071 23.1626 10.129 24.0974 12.0258Z" />
<path d="M18.8542 19.9742C18.1948 23.1716 16.84 25.0323 16 25.0323C15.16 25.0323 13.8052 23.1716 13.1413 19.9742H18.8542Z" />
<path d="M19.1658 17.8065H12.8342C12.7845 17.2284 12.7439 16.6323 12.7439 16C12.7439 15.3677 12.78 14.7716 12.8297 14.1935H19.1658C19.2155 14.7716 19.2516 15.3677 19.2516 16C19.2516 16.6323 19.2155 17.2284 19.1658 17.8065Z" />
<path d="M10.9374 19.9742C11.2445 21.6226 11.7277 23.0813 12.3465 24.251C10.409 23.3929 8.83742 21.871 7.90258 19.9742H10.9374Z" />
<path d="M10.5806 16C10.5806 16.6187 10.6123 17.2148 10.6574 17.8065H7.14839C7.03097 17.2239 6.96774 16.6187 6.96774 16C6.96774 15.3813 7.03097 14.7761 7.14839 14.1935H10.6574C10.6123 14.7852 10.5806 15.3813 10.5806 16Z" />
<path fill-rule="evenodd" clip-rule="evenodd" d="M32 16C32 24.8366 24.8366 32 16 32C7.16344 32 0 24.8366 0 16C0 7.16344 7.16344 0 16 0C24.8366 0 32 7.16344 32 16ZM27.2 16C27.2 9.8129 22.1871 4.8 16 4.8C9.8129 4.8 4.8 9.8129 4.8 16C4.8 22.1871 9.8129 27.2 16 27.2C22.1871 27.2 27.2 22.1871 27.2 16Z" />
</svg>
