<svg width="412" height="554" viewBox="0 0 412 554" fill="none" xmlns="http://www.w3.org/2000/svg">
<rect x="27" y="61" width="298" height="492" rx="24" stroke="#D3DAE8" stroke-width="2"/>
<rect x="173" y="1" width="238" height="338" rx="15" stroke="#D3DAE8" stroke-width="2"/>
<circle cx="27" cy="231" r="27" fill="#FFA08C"/>
<path d="M20.9378 216.645L22.7503 236.148C22.8753 237.49 23.8753 238.513 25.1878 238.705C25.8753 238.769 26.6878 238.833 27.6878 238.833C28.5003 238.833 29.1878 238.705 29.7503 238.577C31.0003 238.258 31.8753 237.171 31.8753 235.892L32.3128 215.941C32.3753 214.087 30.6878 212.68 28.8753 213.064L22.4378 214.471C21.5003 214.727 20.8753 215.622 20.9378 216.645Z" fill="white"/>
<path fill-rule="evenodd" clip-rule="evenodd" d="M20.5924 225.712C20.7027 226.047 20.527 226.41 20.1999 226.522L14.8249 228.377C14.4978 228.49 14.1432 228.31 14.0329 227.975C13.9226 227.641 14.0984 227.278 14.4255 227.165L19.8005 225.311C20.1275 225.198 20.4821 225.378 20.5924 225.712Z" fill="white"/>
<path fill-rule="evenodd" clip-rule="evenodd" d="M40.9963 225.141C41.0352 225.492 40.7887 225.809 40.4457 225.849L34.3832 226.552C34.0402 226.592 33.7307 226.34 33.6918 225.989C33.6529 225.638 33.8994 225.321 34.2424 225.281L40.3049 224.578C40.6479 224.538 40.9574 224.79 40.9963 225.141Z" fill="white"/>
<path fill-rule="evenodd" clip-rule="evenodd" d="M35.2502 225.149C35.5954 225.149 35.8752 225.436 35.8752 225.789H34.6252C34.6252 225.436 34.9051 225.149 35.2502 225.149ZM23.0351 241.461C23.965 241.936 25.0555 242.286 26.3752 242.286C31.6636 242.286 34.6252 238.154 34.6252 233.846V225.789H35.8752V233.846C35.8752 238.745 32.4619 243.565 26.3752 243.565C24.8225 243.565 23.5396 243.149 22.4707 242.602L22.4602 242.597C19.6127 241.071 17.9377 237.964 17.9377 234.741V226.428C17.9377 226.075 18.2176 225.789 18.5627 225.789C18.9079 225.789 19.1877 226.075 19.1877 226.428V234.741C19.1877 237.526 20.6357 240.173 23.0351 241.461Z" fill="white"/>
<path fill-rule="evenodd" clip-rule="evenodd" d="M26.3127 242.222C26.6579 242.222 26.9377 242.508 26.9377 242.861V248.361C26.9377 248.714 26.6579 249 26.3127 249C25.9675 249 25.6877 248.714 25.6877 248.361V242.861C25.6877 242.508 25.9675 242.222 26.3127 242.222Z" fill="white"/>
<path fill-rule="evenodd" clip-rule="evenodd" d="M19.8752 248.361C19.8752 248.007 20.155 247.721 20.5002 247.721H31.3752C31.7204 247.721 32.0002 248.007 32.0002 248.361C32.0002 248.714 31.7204 249 31.3752 249H20.5002C20.155 249 19.8752 248.714 19.8752 248.361Z" fill="white"/>
<circle cx="27" cy="137" r="27" fill="#49CEB1"/>
<path d="M42 143.782C42 144.277 41.5017 144.525 41.103 144.277L33.3787 138.782V146.455C33.3787 146.802 33.0797 147.05 32.7807 147.05L12.5482 145.564C12.2492 145.465 12 145.218 12 144.921V128.782C12 128.485 12.2492 128.238 12.5482 128.188L32.7807 127C33.1296 127 33.3787 127.248 33.3787 127.594V135.218L40.7542 130.663C41.1528 130.416 41.6512 130.713 41.6512 131.109L42 143.782Z" fill="white"/>
</svg>
