<svg width="33" height="32" viewBox="0 0 33 32" fill="none" xmlns="http://www.w3.org/2000/svg">
<path fill-rule="evenodd" clip-rule="evenodd" d="M16.0283 3.29411C8.99854 3.29411 3.29976 8.98273 3.29976 16C3.29976 23.0173 8.99854 28.7059 16.0283 28.7059C23.0581 28.7059 28.7569 23.0173 28.7569 16C28.7569 15.0433 28.6512 14.1129 28.4514 13.2192C28.2813 12.4582 28.7614 11.7037 29.5238 11.5339C30.2861 11.3641 31.042 11.8433 31.2121 12.6043C31.4567 13.6985 31.5855 14.8351 31.5855 16C31.5855 24.5767 24.6203 31.5294 16.0283 31.5294C7.43636 31.5294 0.471191 24.5767 0.471191 16C0.471191 7.42334 7.43636 0.470581 16.0283 0.470581C19.0628 0.470581 21.8984 1.33926 24.2941 2.84169C24.9555 3.25647 25.1548 4.12793 24.7393 4.78814C24.3238 5.44835 23.4507 5.64731 22.7893 5.23253C20.8312 4.00452 18.5151 3.29411 16.0283 3.29411Z" fill="#49CEB1"/>
<path fill-rule="evenodd" clip-rule="evenodd" d="M8.42839 12.1782C8.98071 11.6269 9.87618 11.6269 10.4285 12.1782L17.0285 18.7664C17.5808 19.3178 17.5808 20.2116 17.0285 20.763C16.4762 21.3143 15.5807 21.3143 15.0284 20.763L8.42839 14.1747C7.87608 13.6234 7.87608 12.7295 8.42839 12.1782Z" fill="#49CEB1"/>
<path fill-rule="evenodd" clip-rule="evenodd" d="M32.1146 3.70762C32.6669 4.25895 32.6669 5.15283 32.1146 5.70416L17.0289 20.763C16.4765 21.3143 15.5811 21.3143 15.0288 20.763C14.4764 20.2117 14.4764 19.3178 15.0288 18.7664L30.1145 3.70762C30.6668 3.1563 31.5623 3.1563 32.1146 3.70762Z" fill="#FFA08C"/>
</svg>
