<svg width="1230" height="1137" viewBox="0 0 1230 1137" fill="none" xmlns="http://www.w3.org/2000/svg">
<path d="M30.1172 449.039L113.926 506.846" stroke="#F3F7FF" stroke-width="3" stroke-linecap="round" stroke-linejoin="round"/>
<path d="M121.989 468.651L22.0638 487.22" stroke="#F3F7FF" stroke-width="2" stroke-linecap="round" stroke-linejoin="round"/>
<path d="M84.7875 527.128L59.2651 428.743" stroke="#F3F7FF" stroke-width="2" stroke-linecap="round" stroke-linejoin="round"/>
<path d="M100.822 436.189L43.2166 519.674" stroke="#F3F7FF" stroke-width="3" stroke-linecap="round" stroke-linejoin="round"/>
<path d="M105.333 439.36C107.366 436.414 106.617 432.373 103.659 430.333C100.702 428.293 96.6572 429.028 94.6246 431.973C92.592 434.919 93.3415 438.961 96.2987 441C99.2558 443.04 103.301 442.306 105.333 439.36Z" fill="#F3F7FF"/>
<path d="M27.2889 464.91L49.1468 482.185L33.4965 498.383L59.4231 496.186L64.3728 519.68L76.5067 502.095L97.8748 513.597L91.3897 491.282L117.584 485.034L95.3643 473.603L107.652 452.248L86.2453 457.024L78.9778 432.47L66.0357 454.133L45.4758 438.553L52.7996 465.263L27.2889 464.91Z" stroke="#F3F7FF" stroke-width="2" stroke-linecap="round" stroke-linejoin="round"/>
<path d="M47.479 525.85C49.5116 522.904 48.7621 518.863 45.805 516.823C42.8478 514.783 38.8028 515.518 36.7702 518.464C34.7376 521.409 35.4871 525.451 38.4443 527.491C41.4014 529.53 45.4464 528.796 47.479 525.85Z" fill="#F3F7FF"/>
<path d="M120.227 511.552C122.259 508.606 121.51 504.565 118.553 502.525C115.595 500.485 111.55 501.22 109.518 504.166C107.485 507.111 108.235 511.153 111.192 513.193C114.149 515.232 118.194 514.498 120.227 511.552Z" fill="#F3F7FF"/>
<path d="M33.7542 451.907C35.7868 448.961 35.0373 444.92 32.0802 442.88C29.123 440.84 25.078 441.575 23.0454 444.52C21.0128 447.466 21.7623 451.508 24.7195 453.547C27.6766 455.587 31.7216 454.853 33.7542 451.907Z" fill="#F3F7FF"/>
<path d="M127.127 472.075C129.16 469.13 128.411 465.088 125.453 463.048C122.496 461.009 118.451 461.743 116.419 464.689C114.386 467.634 115.136 471.676 118.093 473.716C121.05 475.755 125.095 475.021 127.127 472.075Z" fill="#F3F7FF"/>
<path d="M63.9867 432.22C66.0193 429.274 65.2698 425.232 62.3127 423.193C59.3555 421.153 55.3105 421.887 53.2779 424.833C51.2453 427.779 51.9948 431.82 54.952 433.86C57.9091 435.9 61.9541 435.165 63.9867 432.22Z" fill="#F3F7FF"/>
<path d="M27.7221 490.124C29.7547 487.179 29.0052 483.137 26.0481 481.097C23.0909 479.058 19.0459 479.792 17.0133 482.738C14.9807 485.684 15.7302 489.725 18.6874 491.765C21.6445 493.805 25.6895 493.07 27.7221 490.124Z" fill="#F3F7FF"/>
<path d="M88.7439 530.377C90.7765 527.431 90.027 523.39 87.0699 521.35C84.1127 519.31 80.0677 520.045 78.0351 522.99C76.0025 525.936 76.752 529.978 79.7091 532.017C82.6663 534.057 86.7113 533.323 88.7439 530.377Z" fill="#F3F7FF"/>
<path d="M79.0901 483.178C81.6798 479.425 80.7249 474.275 76.9571 471.676C73.1894 469.078 68.0356 470.013 65.4458 473.766C62.8561 477.52 63.811 482.669 67.5788 485.268C71.3465 487.867 76.5003 486.931 79.0901 483.178Z" fill="#F3F7FF"/>
<path d="M541.948 589.998L603.749 548.84" stroke="#F3F7FF" stroke-width="3" stroke-linecap="round" stroke-linejoin="round"/>
<path d="M580.045 533.065L565.646 605.762" stroke="#F3F7FF" stroke-width="2" stroke-linecap="round" stroke-linejoin="round"/>
<path d="M609.624 574.053L536.067 564.774" stroke="#F3F7FF" stroke-width="2" stroke-linecap="round" stroke-linejoin="round"/>
<path d="M552.334 538.636L593.347 600.198" stroke="#F3F7FF" stroke-width="3" stroke-linecap="round" stroke-linejoin="round"/>
<path d="M555.701 536.437C554.253 534.265 551.313 533.681 549.132 535.133C546.951 536.586 546.357 539.524 547.804 541.696C549.251 543.868 552.192 544.452 554.373 543C556.553 541.547 557.148 538.609 555.701 536.437Z" fill="#F3F7FF"/>
<path d="M551.939 596.199L569.547 586.058L576.297 601.033L581.809 582.878L599.065 585.87L590.426 572.903L603.99 561.535L587.118 559.902L589.957 540.472L576.212 552.436L565.06 538.346L562.515 554.136L543.915 552.428L555.099 567.044L538.991 576.763L559.067 579.015L551.939 596.199Z" stroke="#F3F7FF" stroke-width="2" stroke-linecap="round" stroke-linejoin="round"/>
<path d="M598.684 598.979C597.237 596.807 594.296 596.223 592.115 597.675C589.935 599.127 589.34 602.066 590.787 604.238C592.234 606.41 595.175 606.994 597.356 605.541C599.536 604.089 600.131 601.151 598.684 598.979Z" fill="#F3F7FF"/>
<path d="M608.639 545.843C607.192 543.671 604.251 543.087 602.071 544.539C599.89 545.991 599.295 548.93 600.742 551.102C602.19 553.274 605.131 553.858 607.311 552.405C609.492 550.953 610.086 548.015 608.639 545.843Z" fill="#F3F7FF"/>
<path d="M544.874 588.308C543.427 586.136 540.486 585.553 538.306 587.005C536.125 588.457 535.53 591.395 536.977 593.567C538.425 595.74 541.366 596.323 543.546 594.871C545.727 593.419 546.321 590.481 544.874 588.308Z" fill="#F3F7FF"/>
<path d="M583.753 530.509C582.306 528.337 579.365 527.753 577.185 529.205C575.004 530.657 574.409 533.596 575.856 535.768C577.304 537.94 580.245 538.524 582.425 537.071C584.606 535.619 585.2 532.681 583.753 530.509Z" fill="#F3F7FF"/>
<path d="M539.698 562.515C538.251 560.343 535.31 559.759 533.129 561.211C530.948 562.664 530.354 565.602 531.801 567.774C533.248 569.946 536.189 570.53 538.37 569.078C540.55 567.625 541.145 564.687 539.698 562.515Z" fill="#F3F7FF"/>
<path d="M569.142 602.714C567.694 600.542 564.753 599.958 562.573 601.41C560.392 602.863 559.798 605.801 561.245 607.973C562.692 610.145 565.633 610.729 567.813 609.277C569.994 607.824 570.589 604.886 569.142 602.714Z" fill="#F3F7FF"/>
<path d="M612.893 572.25C611.446 570.078 608.505 569.494 606.325 570.947C604.144 572.399 603.55 575.337 604.997 577.509C606.444 579.681 609.385 580.265 611.565 578.813C613.746 577.361 614.341 574.422 612.893 572.25Z" fill="#F3F7FF"/>
<path d="M578.305 566.044C576.461 563.277 572.714 562.533 569.936 564.383C567.157 566.234 566.4 569.977 568.244 572.745C570.087 575.513 573.834 576.256 576.613 574.406C579.391 572.556 580.149 568.812 578.305 566.044Z" fill="#F3F7FF"/>
<path d="M15.9095 959.427L76.9987 959.493" stroke="#F3F7FF" stroke-width="3" stroke-linecap="round" stroke-linejoin="round"/>
<path d="M67.9878 937.874L24.9204 981.037" stroke="#F3F7FF" stroke-width="2" stroke-linecap="round" stroke-linejoin="round"/>
<path d="M69.4983 979.428L23.4099 939.484" stroke="#F3F7FF" stroke-width="2" stroke-linecap="round" stroke-linejoin="round"/>
<path d="M46.4818 929.029L46.4164 989.882" stroke="#F3F7FF" stroke-width="3" stroke-linecap="round" stroke-linejoin="round"/>
<path d="M49.7904 929.062C49.7927 926.915 48.0472 925.173 45.8917 925.17C43.7362 925.168 41.9869 926.907 41.9846 929.054C41.9823 931.201 43.7278 932.944 45.8833 932.946C48.0388 932.948 49.788 931.209 49.7904 929.062Z" fill="#F3F7FF"/>
<path d="M19.9119 968.234L36.5921 969.337L34.3688 982.666L46.4348 972.762L56.8748 982.69L56.8886 969.872L71.3627 968.289L60.5649 959.466L71.3851 947.469L56.5144 949.377L55.3217 934.643L46.3664 944.284L34.4205 934.621L35.3948 949.729L19.9326 949.022L32.6401 959.732L19.9119 968.234Z" stroke="#F3F7FF" stroke-width="2" stroke-linecap="round" stroke-linejoin="round"/>
<path d="M50.6247 991.485C50.627 989.338 48.8815 987.596 46.7259 987.593C44.5704 987.591 42.8212 989.33 42.8189 991.477C42.8166 993.624 44.5621 995.367 46.7176 995.369C48.8731 995.371 50.6223 993.633 50.6247 991.485Z" fill="#F3F7FF"/>
<path d="M81.7136 959.676C81.716 957.529 79.9704 955.786 77.8149 955.784C75.6594 955.782 73.9102 957.52 73.9079 959.668C73.9056 961.815 75.6511 963.557 77.8066 963.56C79.9621 963.562 81.7113 961.823 81.7136 959.676Z" fill="#F3F7FF"/>
<path d="M18.683 959.608C18.6853 957.461 16.9398 955.719 14.7843 955.716C12.6288 955.714 10.8795 957.453 10.8772 959.6C10.8749 961.747 12.6204 963.49 14.7759 963.492C16.9314 963.494 18.6807 961.756 18.683 959.608Z" fill="#F3F7FF"/>
<path d="M71.6926 937.818C71.695 935.671 69.9494 933.929 67.7939 933.926C65.6384 933.924 63.8892 935.663 63.8869 937.81C63.8846 939.957 65.6301 941.7 67.7856 941.702C69.9411 941.704 71.6903 939.966 71.6926 937.818Z" fill="#F3F7FF"/>
<path d="M26.9263 939.596C26.9286 937.449 25.1831 935.706 23.0276 935.704C20.8721 935.702 19.1228 937.44 19.1205 939.588C19.1182 941.735 20.8637 943.477 23.0192 943.48C25.1747 943.482 26.924 941.743 26.9263 939.596Z" fill="#F3F7FF"/>
<path d="M28.7049 980.548C28.7072 978.401 26.9617 976.658 24.8062 976.656C22.6507 976.654 20.9014 978.393 20.8991 980.54C20.8968 982.687 22.6423 984.429 24.7978 984.432C26.9534 984.434 28.7026 982.695 28.7049 980.548Z" fill="#F3F7FF"/>
<path d="M72.5589 979.687C72.5612 977.54 70.8157 975.798 68.6602 975.795C66.5047 975.793 64.7555 977.532 64.7531 979.679C64.7508 981.826 66.4963 983.569 68.6519 983.571C70.8074 983.573 72.5566 981.835 72.5589 979.687Z" fill="#F3F7FF"/>
<path d="M51.7288 959.644C51.7317 956.908 49.5077 954.688 46.7614 954.685C44.015 954.682 41.7863 956.897 41.7833 959.633C41.7804 962.369 44.0044 964.589 46.7507 964.592C49.4971 964.595 51.7258 962.38 51.7288 959.644Z" fill="#F3F7FF"/>
<path d="M41.8935 1156L73.0592 1134.33" stroke="#F3F7FF" stroke-width="3" stroke-linecap="round" stroke-linejoin="round"/>
<path d="M60.7833 1126.51L54.1657 1163.81" stroke="#F3F7FF" stroke-width="2" stroke-linecap="round" stroke-linejoin="round"/>
<path d="M76.3189 1147.16L38.6302 1143.17" stroke="#F3F7FF" stroke-width="2" stroke-linecap="round" stroke-linejoin="round"/>
<path d="M46.6772 1129.64L68.267 1160.69" stroke="#F3F7FF" stroke-width="3" stroke-linecap="round" stroke-linejoin="round"/>
<path d="M48.3756 1128.48C47.6137 1127.39 46.1045 1127.12 45.0048 1127.88C43.9051 1128.65 43.6312 1130.16 44.3931 1131.25C45.155 1132.35 46.6641 1132.62 47.7638 1131.85C48.8636 1131.09 49.1374 1129.58 48.3756 1128.48Z" fill="#F3F7FF"/>
<path d="M47.063 1159.07L55.9584 1153.7L59.5611 1161.29L62.193 1151.95L71.0429 1153.31L66.4953 1146.77L73.3115 1140.82L64.6717 1140.16L65.9247 1130.2L59.0219 1136.45L53.1785 1129.36L52.039 1137.46L42.5154 1136.78L48.3806 1144.13L40.2468 1149.27L50.5306 1150.21L47.063 1159.07Z" stroke="#F3F7FF" stroke-width="2" stroke-linecap="round" stroke-linejoin="round"/>
<path d="M75.5278 1132.75C74.7659 1131.66 73.2568 1131.39 72.157 1132.15C71.0573 1132.92 70.7834 1134.42 71.5453 1135.52C72.3072 1136.62 73.8163 1136.88 74.9161 1136.12C76.0158 1135.36 76.2897 1133.85 75.5278 1132.75Z" fill="#F3F7FF"/>
<path d="M62.6525 1125.17C61.8906 1124.07 60.3815 1123.8 59.2817 1124.57C58.182 1125.33 57.9081 1126.84 58.67 1127.94C59.4319 1129.03 60.941 1129.3 62.0407 1128.54C63.1405 1127.77 63.4144 1126.26 62.6525 1125.17Z" fill="#F3F7FF"/>
<path d="M1138.5 1083L1190.78 1001.1" stroke="#F3F7FF" stroke-width="3" stroke-linecap="round" stroke-linejoin="round"/>
<path d="M1154.06 994.717L1175.2 1089.37" stroke="#F3F7FF" stroke-width="2" stroke-linecap="round" stroke-linejoin="round"/>
<path d="M1211.13 1028.19L1118.14 1055.9" stroke="#F3F7FF" stroke-width="2" stroke-linecap="round" stroke-linejoin="round"/>
<path d="M1123.82 1016.01L1205.44 1068.09" stroke="#F3F7FF" stroke-width="3" stroke-linecap="round" stroke-linejoin="round"/>
<path d="M1126.69 1011.6C1123.81 1009.77 1119.98 1010.62 1118.14 1013.51C1116.29 1016.4 1117.13 1020.23 1120.01 1022.07C1122.89 1023.91 1126.72 1023.05 1128.57 1020.16C1130.41 1017.27 1129.57 1013.44 1126.69 1011.6Z" fill="#F3F7FF"/>
<path d="M1154.1 1084.76L1169.83 1063.32L1185.82 1077.69L1182.84 1053.04L1205.08 1047.52L1187.89 1036.55L1198.13 1015.78L1177.07 1022.73L1170.21 997.96L1160.06 1019.54L1139.27 1008.56L1144.56 1028.81L1121.38 1036.58L1142.49 1048.18L1128.34 1068.32L1153.57 1060.42L1154.1 1084.76Z" stroke="#F3F7FF" stroke-width="2" stroke-linecap="round" stroke-linejoin="round"/>
<path d="M1211.19 1063.81C1208.31 1061.98 1204.48 1062.83 1202.63 1065.72C1200.79 1068.61 1201.63 1072.44 1204.51 1074.28C1207.39 1076.12 1211.22 1075.26 1213.06 1072.37C1214.9 1069.48 1214.06 1065.65 1211.19 1063.81Z" fill="#F3F7FF"/>
<path d="M1195.05 994.928C1192.17 993.09 1188.34 993.943 1186.5 996.833C1184.65 999.723 1185.49 1003.56 1188.37 1005.39C1191.25 1007.23 1195.08 1006.38 1196.93 1003.49C1198.77 1000.6 1197.93 996.765 1195.05 994.928Z" fill="#F3F7FF"/>
<path d="M1141.11 1079.44C1138.23 1077.6 1134.4 1078.45 1132.56 1081.34C1130.71 1084.23 1131.55 1088.06 1134.43 1089.9C1137.31 1091.74 1141.14 1090.88 1142.99 1088C1144.83 1085.11 1143.99 1081.27 1141.11 1079.44Z" fill="#F3F7FF"/>
<path d="M1157.15 989.699C1154.27 987.862 1150.44 988.715 1148.6 991.605C1146.76 994.495 1147.59 998.327 1150.47 1000.16C1153.35 1002 1157.18 1001.15 1159.03 998.259C1160.87 995.369 1160.03 991.537 1157.15 989.699Z" fill="#F3F7FF"/>
<path d="M1121.3 1051.28C1118.42 1049.44 1114.59 1050.29 1112.74 1053.18C1110.9 1056.07 1111.74 1059.91 1114.62 1061.74C1117.5 1063.58 1121.33 1062.73 1123.17 1059.84C1125.02 1056.95 1124.18 1053.12 1121.3 1051.28Z" fill="#F3F7FF"/>
<path d="M1177.78 1083.88C1174.9 1082.04 1171.07 1082.89 1169.23 1085.78C1167.38 1088.67 1168.22 1092.51 1171.1 1094.34C1173.98 1096.18 1177.81 1095.33 1179.65 1092.44C1181.5 1089.55 1180.66 1085.72 1177.78 1083.88Z" fill="#F3F7FF"/>
<path d="M1214.09 1024.31C1211.21 1022.47 1207.38 1023.32 1205.53 1026.21C1203.69 1029.1 1204.53 1032.93 1207.41 1034.77C1210.29 1036.61 1214.12 1035.76 1215.96 1032.87C1217.81 1029.98 1216.97 1026.14 1214.09 1024.31Z" fill="#F3F7FF"/>
<path d="M1169.39 1035.13C1165.72 1032.79 1160.84 1033.88 1158.49 1037.56C1156.14 1041.24 1157.21 1046.12 1160.88 1048.46C1164.55 1050.8 1169.43 1049.72 1171.78 1046.04C1174.13 1042.35 1173.06 1037.47 1169.39 1035.13Z" fill="#F3F7FF"/>
<path d="M1149.41 772.644L1178.75 726.682" stroke="#F3F7FF" stroke-width="3" stroke-linecap="round" stroke-linejoin="round"/>
<path d="M1158.15 723.102L1170.01 776.22" stroke="#F3F7FF" stroke-width="2" stroke-linecap="round" stroke-linejoin="round"/>
<path d="M1190.17 741.886L1137.99 757.436" stroke="#F3F7FF" stroke-width="2" stroke-linecap="round" stroke-linejoin="round"/>
<path d="M1141.17 735.053L1186.98 764.276" stroke="#F3F7FF" stroke-width="3" stroke-linecap="round" stroke-linejoin="round"/>
<path d="M1142.78 732.577C1141.17 731.546 1139.02 732.025 1137.98 733.647C1136.95 735.269 1137.42 737.42 1139.04 738.451C1140.65 739.482 1142.8 739.003 1143.84 737.381C1144.87 735.759 1144.4 733.608 1142.78 732.577Z" fill="#F3F7FF"/>
<path d="M1157.96 773.86L1166.79 761.83L1175.76 769.894L1174.09 756.062L1186.57 752.961L1176.92 746.806L1182.67 735.149L1170.85 739.049L1167 725.151L1161.31 737.262L1149.64 731.096L1152.61 742.461L1139.6 746.822L1151.45 753.331L1143.5 764.634L1157.66 760.201L1157.96 773.86Z" stroke="#F3F7FF" stroke-width="2" stroke-linecap="round" stroke-linejoin="round"/>
<path d="M1190.2 761.875C1188.58 760.844 1186.43 761.323 1185.4 762.945C1184.36 764.567 1184.84 766.718 1186.45 767.749C1188.07 768.78 1190.22 768.301 1191.25 766.679C1192.29 765.057 1191.82 762.906 1190.2 761.875Z" fill="#F3F7FF"/>
<path d="M1181.15 723.219C1179.53 722.187 1177.38 722.666 1176.35 724.288C1175.31 725.91 1175.78 728.061 1177.4 729.092C1179.01 730.124 1181.16 729.645 1182.2 728.023C1183.23 726.401 1182.76 724.25 1181.15 723.219Z" fill="#F3F7FF"/>
<path d="M1150.88 770.642C1149.26 769.611 1147.11 770.09 1146.08 771.712C1145.04 773.334 1145.51 775.485 1147.13 776.516C1148.75 777.547 1150.89 777.068 1151.93 775.446C1152.97 773.824 1152.49 771.673 1150.88 770.642Z" fill="#F3F7FF"/>
<path d="M1159.88 720.285C1158.26 719.254 1156.11 719.733 1155.08 721.355C1154.04 722.977 1154.51 725.127 1156.13 726.159C1157.75 727.19 1159.9 726.711 1160.93 725.089C1161.97 723.467 1161.5 721.316 1159.88 720.285Z" fill="#F3F7FF"/>
<path d="M1139.76 754.841C1138.14 753.81 1135.99 754.289 1134.96 755.911C1133.92 757.533 1134.39 759.684 1136.01 760.715C1137.62 761.746 1139.77 761.267 1140.81 759.645C1141.84 758.023 1141.37 755.873 1139.76 754.841Z" fill="#F3F7FF"/>
<path d="M1171.45 773.135C1169.84 772.104 1167.69 772.583 1166.65 774.205C1165.62 775.827 1166.09 777.978 1167.71 779.009C1169.32 780.04 1171.47 779.561 1172.51 777.939C1173.54 776.317 1173.07 774.166 1171.45 773.135Z" fill="#F3F7FF"/>
<path d="M1191.83 739.705C1190.21 738.674 1188.06 739.153 1187.03 740.775C1185.99 742.397 1186.46 744.548 1188.08 745.579C1189.7 746.61 1191.85 746.131 1192.88 744.509C1193.92 742.887 1193.45 740.736 1191.83 739.705Z" fill="#F3F7FF"/>
<path d="M947.842 909.141L989.575 843.756" stroke="#F3F7FF" stroke-width="3" stroke-linecap="round" stroke-linejoin="round"/>
<path d="M960.265 838.663L977.141 914.229" stroke="#F3F7FF" stroke-width="2" stroke-linecap="round" stroke-linejoin="round"/>
<path d="M1005.82 865.385L931.588 887.507" stroke="#F3F7FF" stroke-width="2" stroke-linecap="round" stroke-linejoin="round"/>
<path d="M936.121 855.665L1001.28 897.237" stroke="#F3F7FF" stroke-width="3" stroke-linecap="round" stroke-linejoin="round"/>
<path d="M938.414 852.143C936.114 850.676 933.057 851.357 931.584 853.665C930.111 855.972 930.781 859.032 933.08 860.499C935.379 861.965 938.437 861.284 939.91 858.977C941.383 856.669 940.713 853.61 938.414 852.143Z" fill="#F3F7FF"/>
<path d="M960.007 910.871L972.565 893.758L985.33 905.229L982.947 885.551L1000.7 881.141L986.98 872.384L995.155 855.802L978.338 861.349L972.862 841.578L964.765 858.807L948.165 850.036L952.388 866.203L933.887 872.407L950.739 881.668L939.436 897.746L959.578 891.44L960.007 910.871Z" stroke="#F3F7FF" stroke-width="2" stroke-linecap="round" stroke-linejoin="round"/>
<path d="M1005.87 893.822C1003.57 892.355 1000.51 893.036 999.037 895.343C997.564 897.651 998.234 900.71 1000.53 902.177C1002.83 903.644 1005.89 902.963 1007.36 900.656C1008.84 898.348 1008.17 895.288 1005.87 893.822Z" fill="#F3F7FF"/>
<path d="M992.987 838.83C990.687 837.363 987.63 838.044 986.157 840.352C984.684 842.659 985.354 845.719 987.653 847.186C989.953 848.653 993.01 847.971 994.483 845.664C995.956 843.356 995.286 840.297 992.987 838.83Z" fill="#F3F7FF"/>
<path d="M949.927 906.293C947.628 904.826 944.57 905.508 943.098 907.815C941.625 910.122 942.295 913.182 944.594 914.649C946.893 916.116 949.951 915.435 951.424 913.127C952.896 910.82 952.226 907.76 949.927 906.293Z" fill="#F3F7FF"/>
<path d="M962.733 834.656C960.434 833.189 957.376 833.87 955.903 836.178C954.431 838.485 955.101 841.545 957.4 843.012C959.699 844.479 962.757 843.797 964.229 841.49C965.702 839.183 965.032 836.123 962.733 834.656Z" fill="#F3F7FF"/>
<path d="M934.107 883.816C931.808 882.349 928.75 883.03 927.277 885.337C925.805 887.645 926.475 890.705 928.774 892.171C931.073 893.638 934.131 892.957 935.603 890.65C937.076 888.342 936.406 885.283 934.107 883.816Z" fill="#F3F7FF"/>
<path d="M979.198 909.84C976.899 908.373 973.841 909.054 972.369 911.362C970.896 913.669 971.566 916.729 973.865 918.196C976.164 919.663 979.222 918.981 980.695 916.674C982.167 914.366 981.497 911.307 979.198 909.84Z" fill="#F3F7FF"/>
<path d="M1008.18 862.283C1005.89 860.816 1002.83 861.497 1001.35 863.805C999.882 866.112 1000.55 869.172 1002.85 870.639C1005.15 872.106 1008.21 871.424 1009.68 869.117C1011.15 866.809 1010.48 863.75 1008.18 862.283Z" fill="#F3F7FF"/>
<path d="M298.239 1094.6L349.42 1014.42" stroke="#F3F7FF" stroke-width="3" stroke-linecap="round" stroke-linejoin="round"/>
<path d="M313.475 1008.17L334.171 1100.84" stroke="#F3F7FF" stroke-width="2" stroke-linecap="round" stroke-linejoin="round"/>
<path d="M369.34 1040.94L278.306 1068.07" stroke="#F3F7FF" stroke-width="2" stroke-linecap="round" stroke-linejoin="round"/>
<path d="M283.865 1029.02L363.772 1080.01" stroke="#F3F7FF" stroke-width="3" stroke-linecap="round" stroke-linejoin="round"/>
<path d="M286.676 1024.7C283.857 1022.9 280.107 1023.74 278.301 1026.57C276.495 1029.4 277.316 1033.15 280.136 1034.95C282.956 1036.75 286.705 1035.91 288.512 1033.08C290.318 1030.25 289.496 1026.5 286.676 1024.7Z" fill="#F3F7FF"/>
<path d="M313.158 1096.73L328.559 1075.74L344.213 1089.81L341.291 1065.67L363.069 1060.26L346.238 1049.53L356.263 1029.19L335.638 1035.99L328.924 1011.75L318.994 1032.88L298.636 1022.12L303.814 1041.95L281.125 1049.55L301.792 1060.91L287.93 1080.63L312.632 1072.9L313.158 1096.73Z" stroke="#F3F7FF" stroke-width="2" stroke-linecap="round" stroke-linejoin="round"/>
<path d="M369.399 1075.82C366.579 1074.02 362.829 1074.85 361.023 1077.68C359.217 1080.51 360.039 1084.27 362.858 1086.06C365.678 1087.86 369.428 1087.03 371.234 1084.2C373.04 1081.37 372.219 1077.62 369.399 1075.82Z" fill="#F3F7FF"/>
<path d="M353.604 1008.38C350.784 1006.58 347.034 1007.41 345.228 1010.24C343.422 1013.07 344.244 1016.82 347.063 1018.62C349.883 1020.42 353.633 1019.59 355.439 1016.76C357.245 1013.93 356.423 1010.17 353.604 1008.38Z" fill="#F3F7FF"/>
<path d="M300.797 1091.11C297.977 1089.31 294.227 1090.15 292.421 1092.98C290.615 1095.81 291.437 1099.56 294.256 1101.36C297.076 1103.16 300.826 1102.32 302.632 1099.49C304.438 1096.66 303.616 1092.91 300.797 1091.11Z" fill="#F3F7FF"/>
<path d="M316.501 1003.26C313.682 1001.46 309.932 1002.29 308.126 1005.12C306.32 1007.95 307.141 1011.71 309.961 1013.5C312.781 1015.3 316.53 1014.47 318.337 1011.64C320.143 1008.81 319.321 1005.06 316.501 1003.26Z" fill="#F3F7FF"/>
<path d="M281.395 1063.55C278.575 1061.75 274.825 1062.58 273.019 1065.41C271.213 1068.24 272.035 1071.99 274.854 1073.79C277.674 1075.59 281.424 1074.76 283.23 1071.93C285.036 1069.1 284.214 1065.34 281.395 1063.55Z" fill="#F3F7FF"/>
<path d="M336.694 1095.46C333.874 1093.66 330.124 1094.5 328.318 1097.33C326.512 1100.16 327.334 1103.91 330.154 1105.71C332.973 1107.51 336.723 1106.67 338.529 1103.84C340.335 1101.01 339.514 1097.26 336.694 1095.46Z" fill="#F3F7FF"/>
<path d="M372.242 1037.14C369.422 1035.34 365.672 1036.17 363.866 1039C362.06 1041.83 362.882 1045.59 365.701 1047.39C368.521 1049.18 372.271 1048.35 374.077 1045.52C375.883 1042.69 375.062 1038.94 372.242 1037.14Z" fill="#F3F7FF"/>
<path d="M599.811 1084.63L630.988 1035.78" stroke="#F3F7FF" stroke-width="3" stroke-linecap="round" stroke-linejoin="round"/>
<path d="M609.092 1031.98L621.699 1088.43" stroke="#F3F7FF" stroke-width="2" stroke-linecap="round" stroke-linejoin="round"/>
<path d="M643.122 1051.94L587.669 1068.47" stroke="#F3F7FF" stroke-width="2" stroke-linecap="round" stroke-linejoin="round"/>
<path d="M591.055 1044.68L639.731 1075.74" stroke="#F3F7FF" stroke-width="3" stroke-linecap="round" stroke-linejoin="round"/>
<path d="M592.768 1042.05C591.05 1040.95 588.766 1041.46 587.665 1043.18C586.565 1044.91 587.066 1047.19 588.783 1048.29C590.501 1049.39 592.785 1048.88 593.885 1047.15C594.986 1045.43 594.485 1043.14 592.768 1042.05Z" fill="#F3F7FF"/>
<path d="M608.899 1085.92L618.281 1073.14L627.816 1081.71L626.037 1067.01L639.302 1063.71L629.049 1057.17L635.157 1044.78L622.593 1048.93L618.503 1034.16L612.454 1047.03L600.053 1040.47L603.207 1052.55L589.386 1057.19L601.976 1064.1L593.532 1076.12L608.579 1071.4L608.899 1085.92Z" stroke="#F3F7FF" stroke-width="2" stroke-linecap="round" stroke-linejoin="round"/>
<path d="M643.158 1073.18C641.441 1072.09 639.156 1072.6 638.056 1074.32C636.956 1076.04 637.456 1078.33 639.174 1079.43C640.892 1080.52 643.176 1080.01 644.276 1078.29C645.376 1076.57 644.876 1074.28 643.158 1073.18Z" fill="#F3F7FF"/>
<path d="M633.537 1032.1C631.819 1031.01 629.535 1031.52 628.435 1033.24C627.334 1034.96 627.835 1037.25 629.552 1038.34C631.27 1039.44 633.554 1038.93 634.654 1037.21C635.755 1035.48 635.254 1033.2 633.537 1032.1Z" fill="#F3F7FF"/>
<path d="M601.369 1082.5C599.651 1081.4 597.367 1081.91 596.267 1083.64C595.167 1085.36 595.667 1087.65 597.385 1088.74C599.102 1089.84 601.387 1089.33 602.487 1087.61C603.587 1085.88 603.087 1083.6 601.369 1082.5Z" fill="#F3F7FF"/>
<path d="M610.936 1028.98C609.218 1027.89 606.934 1028.4 605.834 1030.12C604.733 1031.84 605.234 1034.13 606.951 1035.23C608.669 1036.32 610.953 1035.81 612.053 1034.09C613.154 1032.37 612.653 1030.08 610.936 1028.98Z" fill="#F3F7FF"/>
<path d="M589.55 1065.71C587.833 1064.61 585.549 1065.12 584.448 1066.85C583.348 1068.57 583.849 1070.86 585.566 1071.95C587.284 1073.05 589.568 1072.54 590.668 1070.81C591.768 1069.09 591.268 1066.8 589.55 1065.71Z" fill="#F3F7FF"/>
<path d="M623.236 1085.15C621.518 1084.05 619.234 1084.56 618.134 1086.29C617.034 1088.01 617.534 1090.3 619.252 1091.39C620.969 1092.49 623.254 1091.98 624.354 1090.26C625.454 1088.53 624.954 1086.25 623.236 1085.15Z" fill="#F3F7FF"/>
<path d="M644.89 1049.62C643.172 1048.53 640.888 1049.04 639.788 1050.76C638.688 1052.48 639.188 1054.77 640.906 1055.87C642.623 1056.96 644.908 1056.45 646.008 1054.73C647.108 1053 646.608 1050.72 644.89 1049.62Z" fill="#F3F7FF"/>
<path d="M708.218 783.071L756.088 815.726" stroke="#F3F7FF" stroke-width="3" stroke-linecap="round" stroke-linejoin="round"/>
<path d="M760.56 793.957L703.75 804.832" stroke="#F3F7FF" stroke-width="2" stroke-linecap="round" stroke-linejoin="round"/>
<path d="M739.566 827.361L724.744 771.428" stroke="#F3F7FF" stroke-width="2" stroke-linecap="round" stroke-linejoin="round"/>
<path d="M748.417 775.54L715.886 823.243" stroke="#F3F7FF" stroke-width="3" stroke-linecap="round" stroke-linejoin="round"/>
<path d="M750.994 777.332C752.142 775.649 751.703 773.35 750.014 772.198C748.325 771.045 746.025 771.476 744.877 773.159C743.729 774.842 744.168 777.141 745.857 778.294C747.546 779.446 749.846 779.016 750.994 777.332Z" fill="#F3F7FF"/>
<path d="M706.649 792.114L719.14 801.883L710.283 811.152L725.031 809.822L727.919 823.183L734.771 813.135L746.966 819.618L743.208 806.933L758.096 803.297L745.416 796.857L752.344 784.662L740.176 787.446L735.966 773.489L728.666 785.861L716.919 777.054L721.168 792.238L706.649 792.114Z" stroke="#F3F7FF" stroke-width="2" stroke-linecap="round" stroke-linejoin="round"/>
<path d="M718.332 826.747C719.48 825.064 719.041 822.765 717.351 821.613C715.662 820.46 713.362 820.891 712.214 822.574C711.066 824.257 711.505 826.556 713.194 827.708C714.884 828.861 717.184 828.43 718.332 826.747Z" fill="#F3F7FF"/>
<path d="M759.688 818.387C760.836 816.703 760.397 814.404 758.708 813.252C757.019 812.1 754.719 812.53 753.571 814.213C752.423 815.897 752.862 818.195 754.551 819.348C756.241 820.5 758.541 820.07 759.688 818.387Z" fill="#F3F7FF"/>
<path d="M710.297 784.693C711.445 783.009 711.006 780.711 709.317 779.558C707.628 778.406 705.328 778.836 704.18 780.519C703.032 782.203 703.471 784.501 705.16 785.654C706.849 786.806 709.149 786.376 710.297 784.693Z" fill="#F3F7FF"/>
<path d="M763.496 795.891C764.644 794.208 764.205 791.909 762.516 790.757C760.826 789.605 758.526 790.035 757.379 791.718C756.231 793.401 756.67 795.7 758.359 796.853C760.048 798.005 762.348 797.575 763.496 795.891Z" fill="#F3F7FF"/>
<path d="M727.442 773.393C728.59 771.71 728.151 769.411 726.462 768.259C724.773 767.106 722.473 767.536 721.325 769.22C720.177 770.903 720.616 773.202 722.305 774.354C723.995 775.507 726.295 775.076 727.442 773.393Z" fill="#F3F7FF"/>
<path d="M706.98 806.468C708.128 804.785 707.689 802.486 706 801.334C704.31 800.181 702.01 800.612 700.862 802.295C699.715 803.978 700.153 806.277 701.843 807.43C703.532 808.582 705.832 808.152 706.98 806.468Z" fill="#F3F7FF"/>
<path d="M741.829 829.199C742.977 827.515 742.538 825.217 740.848 824.064C739.159 822.912 736.859 823.342 735.711 825.026C734.563 826.709 735.002 829.008 736.692 830.16C738.381 831.312 740.681 830.882 741.829 829.199Z" fill="#F3F7FF"/>
<path d="M1166.75 745.78C1164.69 744.466 1161.95 745.076 1160.63 747.142C1159.31 749.209 1159.91 751.949 1161.97 753.263C1164.03 754.576 1166.77 753.966 1168.09 751.9C1169.41 749.834 1168.81 747.094 1166.75 745.78Z" fill="#F3F7FF"/>
<path d="M1154.28 639.359L1184.58 625.095" stroke="#F3F7FF" stroke-width="3" stroke-linecap="round" stroke-linejoin="round"/>
<path d="M1175.05 616.487L1163.81 647.963" stroke="#F3F7FF" stroke-width="2" stroke-linecap="round" stroke-linejoin="round"/>
<path d="M1185.53 636.732L1153.33 627.717" stroke="#F3F7FF" stroke-width="2" stroke-linecap="round" stroke-linejoin="round"/>
<path d="M1162.32 617.135L1176.53 647.317" stroke="#F3F7FF" stroke-width="3" stroke-linecap="round" stroke-linejoin="round"/>
<path d="M1163.97 616.376C1163.46 615.311 1162.19 614.856 1161.12 615.359C1160.05 615.862 1159.59 617.134 1160.09 618.199C1160.6 619.264 1161.87 619.72 1162.94 619.216C1164.01 618.713 1164.47 617.442 1163.97 616.376Z" fill="#F3F7FF"/>
<path d="M1158.33 642.788L1166.85 639.431L1168.87 646.559L1172.53 638.826L1180.03 641.304L1177.04 634.947L1183.84 630.774L1176.43 628.927L1178.98 620.448L1172.06 624.874L1168.02 617.849L1165.83 624.724L1157.65 622.729L1161.67 629.991L1153.84 633.259L1162.64 635.595L1158.33 642.788Z" stroke="#F3F7FF" stroke-width="2" stroke-linecap="round" stroke-linejoin="round"/>
<path d="M1178.99 647.127C1178.49 646.061 1177.22 645.606 1176.15 646.109C1175.08 646.613 1174.62 647.884 1175.12 648.949C1175.62 650.014 1176.9 650.47 1177.97 649.966C1179.04 649.463 1179.5 648.192 1178.99 647.127Z" fill="#F3F7FF"/>
<path d="M1186.96 624.082C1186.46 623.017 1185.18 622.561 1184.12 623.065C1183.05 623.568 1182.59 624.84 1183.09 625.905C1183.59 626.97 1184.86 627.425 1185.93 626.922C1187 626.419 1187.46 625.147 1186.96 624.082Z" fill="#F3F7FF"/>
<path d="M1155.7 638.799C1155.19 637.734 1153.92 637.279 1152.85 637.782C1151.78 638.285 1151.32 639.557 1151.82 640.622C1152.33 641.687 1153.6 642.143 1154.67 641.639C1155.74 641.136 1156.2 639.864 1155.7 638.799Z" fill="#F3F7FF"/>
<path d="M1176.87 615.592C1176.37 614.526 1175.1 614.071 1174.03 614.574C1172.96 615.078 1172.5 616.349 1173 617.414C1173.5 618.479 1174.78 618.935 1175.85 618.432C1176.92 617.928 1177.38 616.657 1176.87 615.592Z" fill="#F3F7FF"/>
<path d="M1155.1 626.949C1154.6 625.884 1153.32 625.429 1152.25 625.932C1151.18 626.435 1150.72 627.707 1151.23 628.772C1151.73 629.837 1153 630.292 1154.07 629.789C1155.14 629.286 1155.6 628.014 1155.1 626.949Z" fill="#F3F7FF"/>
<path d="M1165.57 646.835C1165.07 645.77 1163.79 645.314 1162.72 645.817C1161.65 646.321 1161.19 647.592 1161.7 648.657C1162.2 649.722 1163.47 650.178 1164.54 649.675C1165.61 649.171 1166.07 647.9 1165.57 646.835Z" fill="#F3F7FF"/>
<path d="M1187.11 636.145C1186.6 635.08 1185.33 634.624 1184.26 635.127C1183.19 635.631 1182.73 636.902 1183.23 637.967C1183.74 639.033 1185.01 639.488 1186.08 638.985C1187.15 638.481 1187.61 637.21 1187.11 636.145Z" fill="#F3F7FF"/>
<path d="M1172.09 631.083C1171.45 629.726 1169.83 629.146 1168.46 629.787C1167.1 630.428 1166.51 632.048 1167.15 633.405C1167.79 634.762 1169.42 635.343 1170.78 634.701C1172.14 634.06 1172.73 632.44 1172.09 631.083Z" fill="#F3F7FF"/>
<path d="M1192.05 909.448L1222.35 895.184" stroke="#F3F7FF" stroke-width="3" stroke-linecap="round" stroke-linejoin="round"/>
<path d="M1212.82 886.575L1201.58 918.052" stroke="#F3F7FF" stroke-width="2" stroke-linecap="round" stroke-linejoin="round"/>
<path d="M1223.3 906.821L1191.1 897.806" stroke="#F3F7FF" stroke-width="2" stroke-linecap="round" stroke-linejoin="round"/>
<path d="M1200.09 887.223L1214.31 917.406" stroke="#F3F7FF" stroke-width="3" stroke-linecap="round" stroke-linejoin="round"/>
<path d="M1201.74 886.465C1201.24 885.4 1199.96 884.944 1198.89 885.448C1197.83 885.951 1197.37 887.222 1197.87 888.288C1198.37 889.353 1199.64 889.808 1200.71 889.305C1201.78 888.802 1202.24 887.53 1201.74 886.465Z" fill="#F3F7FF"/>
<path d="M1196.1 912.877L1204.62 909.52L1206.64 916.648L1210.31 908.914L1217.81 911.393L1214.81 905.035L1221.62 900.863L1214.2 899.016L1216.75 890.536L1209.83 894.963L1205.79 887.938L1203.61 894.813L1195.42 892.818L1199.44 900.08L1191.61 903.348L1200.42 905.683L1196.1 912.877Z" stroke="#F3F7FF" stroke-width="2" stroke-linecap="round" stroke-linejoin="round"/>
<path d="M1216.77 917.215C1216.26 916.15 1214.99 915.694 1213.92 916.198C1212.85 916.701 1212.39 917.973 1212.89 919.038C1213.4 920.103 1214.67 920.558 1215.74 920.055C1216.81 919.552 1217.27 918.28 1216.77 917.215Z" fill="#F3F7FF"/>
<path d="M1224.73 894.171C1224.23 893.105 1222.96 892.65 1221.89 893.153C1220.82 893.657 1220.36 894.928 1220.86 895.993C1221.36 897.058 1222.63 897.514 1223.7 897.011C1224.77 896.507 1225.23 895.236 1224.73 894.171Z" fill="#F3F7FF"/>
<path d="M1193.47 908.888C1192.97 907.823 1191.69 907.367 1190.62 907.871C1189.56 908.374 1189.1 909.646 1189.6 910.711C1190.1 911.776 1191.37 912.231 1192.44 911.728C1193.51 911.225 1193.97 909.953 1193.47 908.888Z" fill="#F3F7FF"/>
<path d="M1214.65 885.68C1214.14 884.615 1212.87 884.159 1211.8 884.663C1210.73 885.166 1210.27 886.437 1210.77 887.503C1211.28 888.568 1212.55 889.023 1213.62 888.52C1214.69 888.016 1215.15 886.745 1214.65 885.68Z" fill="#F3F7FF"/>
<path d="M1192.87 897.038C1192.37 895.973 1191.1 895.517 1190.03 896.02C1188.96 896.524 1188.5 897.795 1189 898.86C1189.5 899.925 1190.77 900.381 1191.84 899.878C1192.91 899.374 1193.37 898.103 1192.87 897.038Z" fill="#F3F7FF"/>
<path d="M1203.34 916.923C1202.84 915.858 1201.56 915.403 1200.5 915.906C1199.43 916.409 1198.97 917.681 1199.47 918.746C1199.97 919.811 1201.24 920.266 1202.31 919.763C1203.38 919.26 1203.84 917.988 1203.34 916.923Z" fill="#F3F7FF"/>
<path d="M1224.88 906.233C1224.38 905.168 1223.1 904.713 1222.03 905.216C1220.96 905.719 1220.5 906.991 1221.01 908.056C1221.51 909.121 1222.78 909.576 1223.85 909.073C1224.92 908.57 1225.38 907.298 1224.88 906.233Z" fill="#F3F7FF"/>
<path d="M1209.86 901.172C1209.22 899.815 1207.6 899.234 1206.24 899.876C1204.87 900.517 1204.29 902.137 1204.93 903.494C1205.57 904.851 1207.19 905.432 1208.55 904.79C1209.91 904.149 1210.5 902.529 1209.86 901.172Z" fill="#F3F7FF"/>
<path d="M79.7294 1067.99L107.172 1076.5" stroke="#F3F7FF" stroke-width="3" stroke-linecap="round" stroke-linejoin="round"/>
<path d="M106.124 1065.53L80.7776 1078.95" stroke="#F3F7FF" stroke-width="2" stroke-linecap="round" stroke-linejoin="round"/>
<path d="M101.033 1084.41L85.8693 1060.07" stroke="#F3F7FF" stroke-width="2" stroke-linecap="round" stroke-linejoin="round"/>
<path d="M97.6886 1058.57L89.2087 1085.91" stroke="#F3F7FF" stroke-width="3" stroke-linecap="round" stroke-linejoin="round"/>
<path d="M99.1708 1059.04C99.4701 1058.08 98.9277 1057.05 97.9594 1056.75C96.9912 1056.45 95.9636 1056.99 95.6644 1057.96C95.3651 1058.92 95.9074 1059.95 96.8757 1060.25C97.844 1060.55 98.8716 1060.01 99.1708 1059.04Z" fill="#F3F7FF"/>
<path d="M80.305 1072.5L87.6472 1075.31L84.7972 1080.99L91.5945 1078.22L94.9071 1084.13L96.6932 1078.37L103.417 1079.67L99.7903 1074.2L106.318 1070.31L99.3712 1069.11L100.881 1062.32L95.5184 1065.41L91.4923 1059.41L89.8321 1066.33L82.9822 1063.87L87.2052 1070.45L80.305 1072.5Z" stroke="#F3F7FF" stroke-width="2" stroke-linecap="round" stroke-linejoin="round"/>
<path d="M90.8773 1087.21C91.1766 1086.25 90.6342 1085.22 89.6659 1084.92C88.6976 1084.62 87.6701 1085.16 87.3708 1086.12C87.0716 1087.09 87.6139 1088.11 88.5822 1088.41C89.5505 1088.71 90.5781 1088.17 90.8773 1087.21Z" fill="#F3F7FF"/>
<path d="M109.265 1077.23C109.564 1076.27 109.021 1075.24 108.053 1074.94C107.085 1074.64 106.057 1075.18 105.758 1076.14C105.459 1077.11 106.001 1078.14 106.969 1078.44C107.938 1078.74 108.965 1078.2 109.265 1077.23Z" fill="#F3F7FF"/>
<path d="M80.9507 1068.45C81.2499 1067.49 80.7076 1066.46 79.7393 1066.16C78.771 1065.86 77.7435 1066.4 77.4442 1067.36C77.1449 1068.33 77.6873 1069.36 78.6556 1069.66C79.6239 1069.96 80.6514 1069.42 80.9507 1068.45Z" fill="#F3F7FF"/>
<path d="M107.797 1066.02C108.096 1065.05 107.554 1064.03 106.585 1063.73C105.617 1063.43 104.59 1063.97 104.29 1064.93C103.991 1065.9 104.533 1066.92 105.502 1067.22C106.47 1067.52 107.498 1066.98 107.797 1066.02Z" fill="#F3F7FF"/>
<path d="M87.434 1060.6C87.7333 1059.64 87.1909 1058.61 86.2226 1058.31C85.2543 1058.01 84.2268 1058.55 83.9275 1059.52C83.6283 1060.48 84.1706 1061.51 85.1389 1061.81C86.1072 1062.11 87.1348 1061.57 87.434 1060.6Z" fill="#F3F7FF"/>
<path d="M82.5463 1079.25C82.8456 1078.29 82.3032 1077.26 81.3349 1076.96C80.3667 1076.66 79.3391 1077.2 79.0398 1078.17C78.7406 1079.13 79.2829 1080.16 80.2512 1080.46C81.2195 1080.76 82.2471 1080.22 82.5463 1079.25Z" fill="#F3F7FF"/>
<path d="M102.372 1084.95C102.671 1083.99 102.129 1082.96 101.161 1082.66C100.192 1082.36 99.1647 1082.9 98.8655 1083.87C98.5662 1084.83 99.1086 1085.86 100.077 1086.16C101.045 1086.46 102.073 1085.92 102.372 1084.95Z" fill="#F3F7FF"/>
<path d="M95.7952 1073.05C96.1765 1071.83 95.4854 1070.52 94.2517 1070.14C93.018 1069.75 91.7088 1070.44 91.3275 1071.67C90.9462 1072.9 91.6373 1074.21 92.871 1074.59C94.1047 1074.97 95.4139 1074.28 95.7952 1073.05Z" fill="#F3F7FF"/>
<path d="M79.7292 602.521L97.6585 656.324" stroke="#F3F7FF" stroke-width="3" stroke-linecap="round" stroke-linejoin="round"/>
<path d="M114.047 642.025L63.3498 616.817" stroke="#F3F7FF" stroke-width="2" stroke-linecap="round" stroke-linejoin="round"/>
<path d="M77.8932 655.59L99.5033 603.252" stroke="#F3F7FF" stroke-width="2" stroke-linecap="round" stroke-linejoin="round"/>
<path d="M115.505 620.486L61.8891 638.347" stroke="#F3F7FF" stroke-width="3" stroke-linecap="round" stroke-linejoin="round"/>
<path d="M116.45 623.41C118.342 622.78 119.362 620.73 118.73 618.831C118.097 616.932 116.05 615.904 114.158 616.534C112.267 617.164 111.246 619.214 111.879 621.113C112.511 623.012 114.558 624.04 116.45 623.41Z" fill="#F3F7FF"/>
<path d="M73.1517 608.638L77.0912 623.648L64.6975 625.615L76.973 633.322L71.3029 645.437L82.5962 641.675L88.2522 653.952L92.844 641.848L106.596 647.842L100.537 635.311L113.162 629.923L102.035 624.877L107.028 611.514L94.0084 616.821L90.0787 602.999L84.3875 617.341L73.1517 608.638Z" stroke="#F3F7FF" stroke-width="2" stroke-linecap="round" stroke-linejoin="round"/>
<path d="M61.7168 642.525C63.6086 641.895 64.6293 639.844 63.9966 637.946C63.3638 636.047 61.3173 635.019 59.4255 635.649C57.5336 636.279 56.5129 638.329 57.1457 640.228C57.7784 642.127 59.825 643.155 61.7168 642.525Z" fill="#F3F7FF"/>
<path d="M98.8864 660.53C100.778 659.9 101.799 657.85 101.166 655.951C100.533 654.053 98.4869 653.024 96.5951 653.654C94.7032 654.285 93.6826 656.335 94.3153 658.234C94.948 660.132 96.9946 661.161 98.8864 660.53Z" fill="#F3F7FF"/>
<path d="M80.3871 605.017C82.279 604.387 83.2997 602.337 82.6669 600.438C82.0342 598.539 79.9876 597.511 78.0958 598.141C76.204 598.771 75.1833 600.821 75.816 602.72C76.4488 604.619 78.4953 605.647 80.3871 605.017Z" fill="#F3F7FF"/>
<path d="M115.187 645.272C117.079 644.642 118.099 642.592 117.466 640.693C116.834 638.794 114.787 637.766 112.895 638.396C111.004 639.026 109.983 641.076 110.616 642.975C111.248 644.874 113.295 645.902 115.187 645.272Z" fill="#F3F7FF"/>
<path d="M100.44 606.382C102.332 605.752 103.353 603.702 102.72 601.803C102.087 599.904 100.041 598.876 98.1487 599.506C96.2569 600.136 95.2362 602.187 95.8689 604.085C96.5017 605.984 98.5482 607.012 100.44 606.382Z" fill="#F3F7FF"/>
<path d="M64.8954 620.006C66.7873 619.376 67.808 617.325 67.1752 615.427C66.5425 613.528 64.4959 612.5 62.6041 613.13C60.7123 613.76 59.6916 615.81 60.3243 617.709C60.9571 619.608 63.0036 620.636 64.8954 620.006Z" fill="#F3F7FF"/>
<path d="M78.5659 658.363C80.4577 657.732 81.4784 655.682 80.8457 653.784C80.213 651.885 78.1664 650.856 76.2746 651.487C74.3828 652.117 73.3621 654.167 73.9948 656.066C74.6275 657.964 76.6741 658.993 78.5659 658.363Z" fill="#F3F7FF"/>
<path d="M84.0801 643.22C85.8448 642.632 86.797 640.72 86.2069 638.949C85.6167 637.178 83.7078 636.219 81.943 636.807C80.1783 637.395 79.2261 639.307 79.8163 641.078C80.4064 642.849 82.3154 643.808 84.0801 643.22Z" fill="#F3F7FF"/>
<path d="M36.2555 201.181C47.4864 196.761 53.0269 184.125 48.6307 172.958C44.2344 161.79 31.5661 156.319 20.3353 160.739C9.10441 165.158 3.56387 177.794 7.96013 188.962C12.3564 200.13 25.0247 205.6 36.2555 201.181Z" fill="#F3F7FF"/>
<path d="M20.9572 155.198L10.4322 161.188C9.30479 161.83 8.90976 163.258 9.54991 164.379L11.6599 168.072C12.3001 169.192 13.733 169.58 14.8604 168.938L25.3854 162.948C26.5128 162.307 26.9079 160.878 26.2677 159.758L24.1577 156.065C23.5176 154.945 22.0846 154.557 20.9572 155.198Z" fill="#F3F7FF"/>
<path d="M17.7496 162.523C20.1678 161.571 21.3608 158.851 20.4142 156.446C19.4676 154.041 16.7399 152.863 14.3216 153.815C11.9034 154.767 10.7104 157.487 11.657 159.892C12.6036 162.297 15.3314 163.475 17.7496 162.523Z" fill="#F3F7FF"/>
<path d="M22.4542 180.868L19.4083 180.811C19.304 180.809 19.2005 180.832 19.1067 180.878C19.013 180.924 18.9317 180.992 18.8699 181.076L17.1289 183.527C17.0579 183.624 16.9612 183.7 16.8499 183.745C16.7385 183.79 16.6167 183.804 16.4983 183.784C16.3798 183.764 16.2693 183.712 16.1793 183.633C16.0892 183.554 16.023 183.452 15.9883 183.337L15.0975 180.441C15.068 180.341 15.0146 180.249 14.9417 180.175C14.8688 180.1 14.7787 180.044 14.6791 180.012L11.8067 179.09C11.6931 179.052 11.5924 178.984 11.5158 178.892C11.4392 178.801 11.3898 178.689 11.373 178.571C11.3563 178.453 11.3729 178.332 11.4211 178.223C11.4692 178.113 11.5469 178.019 11.6455 177.951L14.1251 176.223C14.2119 176.164 14.2829 176.085 14.3321 175.992C14.3812 175.899 14.4069 175.796 14.4071 175.692L14.4098 172.684C14.4034 172.559 14.4338 172.434 14.4973 172.326C14.5608 172.217 14.6547 172.13 14.7673 172.073C14.88 172.017 15.0066 171.995 15.1316 172.009C15.2565 172.023 15.3745 172.073 15.471 172.154L17.8574 174.011C17.9395 174.075 18.0366 174.118 18.1398 174.135C18.2429 174.152 18.3489 174.143 18.4479 174.109L21.3223 173.173C21.437 173.136 21.5598 173.131 21.6768 173.16C21.7938 173.188 21.9004 173.249 21.9844 173.335C22.0685 173.42 22.1267 173.528 22.1526 173.645C22.1784 173.762 22.1708 173.884 22.1306 173.998L21.1176 176.839C21.0817 176.937 21.0709 177.042 21.0863 177.145C21.1018 177.248 21.1429 177.345 21.2059 177.428L22.9785 179.858C23.0449 179.953 23.0837 180.065 23.091 180.182C23.0983 180.298 23.0737 180.414 23.0199 180.518C22.9661 180.622 22.885 180.709 22.7854 180.771C22.6857 180.833 22.5713 180.866 22.4542 180.868Z" fill="white"/>
<path d="M42.2953 181.749L38.2875 181.169C38.1477 181.156 38.0065 181.175 37.8756 181.227C37.7447 181.278 37.6279 181.36 37.5349 181.465L34.768 184.441C34.6582 184.559 34.5174 184.645 34.3615 184.688C34.2055 184.731 34.0408 184.73 33.8859 184.684C33.731 184.639 33.5922 184.551 33.4852 184.431C33.3783 184.31 33.3074 184.163 33.2807 184.004L32.5938 180.012C32.5721 179.875 32.5164 179.744 32.4319 179.633C32.3473 179.522 32.2364 179.434 32.1091 179.376L28.3707 177.675C28.2183 177.61 28.0881 177.503 27.9957 177.366C27.9033 177.229 27.8526 177.068 27.8497 176.902C27.8468 176.737 27.8918 176.574 27.9793 176.433C28.0668 176.292 28.1932 176.179 28.3432 176.108L31.9517 174.214C32.0834 174.15 32.197 174.054 32.2822 173.935C32.3674 173.817 32.4215 173.678 32.4397 173.534L32.9289 169.515C32.9471 169.355 33.0101 169.203 33.1108 169.076C33.2115 168.949 33.3459 168.853 33.4985 168.799C33.6512 168.744 33.816 168.733 33.9742 168.767C34.1324 168.801 34.2776 168.879 34.3933 168.992L37.2761 171.841C37.3776 171.938 37.5012 172.01 37.6366 172.05C37.7719 172.089 37.915 172.096 38.0536 172.069L42.0339 171.254C42.196 171.22 42.3644 171.232 42.519 171.291C42.6737 171.349 42.8082 171.45 42.9064 171.583C43.0047 171.715 43.0626 171.873 43.0734 172.037C43.0841 172.202 43.0471 172.366 42.9669 172.51L41.1623 176.144C41.0997 176.27 41.0684 176.409 41.071 176.55C41.0736 176.69 41.11 176.827 41.1772 176.95L43.1583 180.485C43.2327 180.624 43.2676 180.78 43.2591 180.937C43.2507 181.094 43.1992 181.246 43.1102 181.376C43.0213 181.506 42.8983 181.61 42.7547 181.676C42.611 181.742 42.4521 181.767 42.2953 181.749Z" fill="white"/>
<path d="M33.0676 190.913L31.5909 192.922C31.5438 192.992 31.5134 193.073 31.5019 193.157C31.4904 193.241 31.4982 193.326 31.5246 193.406L32.3545 195.726C32.3888 195.817 32.3961 195.917 32.3756 196.013C32.3551 196.109 32.3077 196.198 32.2387 196.268C32.1698 196.339 32.0823 196.388 31.9864 196.411C31.8904 196.434 31.79 196.429 31.6969 196.398L29.3937 195.635C29.313 195.609 29.2267 195.602 29.1428 195.617C29.0588 195.632 28.9798 195.667 28.9128 195.719L26.9633 197.238C26.8851 197.299 26.7911 197.337 26.6924 197.348C26.5936 197.358 26.4939 197.341 26.4049 197.297C26.3159 197.254 26.2411 197.186 26.1892 197.102C26.1373 197.018 26.1104 196.921 26.1115 196.822L26.1024 194.36C26.1024 194.275 26.0815 194.192 26.0416 194.117C26.0016 194.042 25.9438 193.979 25.8733 193.931L23.8187 192.553C23.7378 192.498 23.674 192.421 23.6345 192.332C23.595 192.243 23.5814 192.144 23.5951 192.047C23.6089 191.95 23.6495 191.859 23.7123 191.784C23.7752 191.709 23.8578 191.652 23.9509 191.621L26.2995 190.847C26.3811 190.822 26.4551 190.777 26.5143 190.716C26.5735 190.654 26.6159 190.579 26.6375 190.496L27.339 188.131C27.3666 188.036 27.4203 187.951 27.4938 187.886C27.5674 187.82 27.6579 187.776 27.7552 187.759C27.8524 187.742 27.9524 187.752 28.0438 187.789C28.1351 187.826 28.2142 187.887 28.2721 187.967L29.7257 189.95C29.7761 190.019 29.8425 190.075 29.9192 190.113C29.996 190.15 30.0808 190.169 30.1665 190.168L32.6378 190.089C32.7338 190.09 32.8279 190.116 32.9098 190.166C32.9917 190.215 33.0584 190.286 33.1027 190.371C33.1469 190.456 33.167 190.551 33.1608 190.646C33.1547 190.742 33.1224 190.834 33.0676 190.913Z" fill="white"/>
<path d="M951.5 1075.5C951.5 1075.5 924.024 1134.29 947.867 1163.5C961.337 1180 955 1212.5 947.867 1224.64" stroke="#F3F7FF" stroke-width="3"/>
<path d="M998.5 1073C984.5 1106 1000 1135.29 1007.5 1146C1018 1161 996.417 1186.71 1009 1201" stroke="#F3F7FF" stroke-width="3"/>
<path d="M755.5 1044.5C759.5 1088 742.07 1108.81 742 1139.5C741.943 1164.6 759 1202 759 1202" stroke="#F3F7FF" stroke-width="3"/>
<path d="M484 1075.5C472 1083 459.392 1116.69 459 1133C458.385 1158.58 471 1179.76 471 1199" stroke="#F3F7FF" stroke-width="3"/>
<path d="M83.0329 18.3806C85.3604 30.6809 88.6189 59.2706 83.0329 75.2277" stroke="#F3F7FF" stroke-width="3"/>
<path d="M24.6791 16.3862C20.1904 25.8607 5.22783 63.7588 6.22533 92.1823C7.02333 114.921 11.8778 143.544 14.2052 155.013" stroke="#F3F7FF" stroke-width="3"/>
<path d="M612.208 16.8848C612.208 22.8687 620.188 33.8392 612.208 49.7962" stroke="#F3F7FF" stroke-width="3"/>
<path d="M517.514 75.126L522.609 27.8907" stroke="#F3F7FF" stroke-width="3" stroke-linecap="round" stroke-linejoin="round"/>
<path d="M505.14 33.0739L534.975 69.9424" stroke="#F3F7FF" stroke-width="2" stroke-linecap="round" stroke-linejoin="round"/>
<path d="M537.411 35.337L502.705 67.6792" stroke="#F3F7FF" stroke-width="2" stroke-linecap="round" stroke-linejoin="round"/>
<path d="M496.522 48.9743L543.592 54.0498" stroke="#F3F7FF" stroke-width="3" stroke-linecap="round" stroke-linejoin="round"/>
<path d="M496.821 46.4187C495.16 46.2397 493.668 47.4456 493.488 49.1123C493.308 50.7789 494.509 52.2752 496.17 52.4543C497.831 52.6334 499.323 51.4275 499.503 49.7608C499.682 48.0941 498.482 46.5978 496.821 46.4187Z" fill="#F3F7FF"/>
<path d="M524.657 72.7583L526.888 59.9505L537.015 62.7704L530.35 52.6218L538.892 45.3683L528.977 44.2992L528.948 32.9756L521.231 40.597L512.843 31.2391L513.091 42.8962L501.595 42.6019L508.314 50.3232L499.852 58.7632L511.62 59.2572L509.796 71.1559L519.131 62.2134L524.657 72.7583Z" stroke="#F3F7FF" stroke-width="2" stroke-linecap="round" stroke-linejoin="round"/>
<path d="M545.18 50.928C543.519 50.7489 542.027 51.9548 541.847 53.6215C541.667 55.2882 542.868 56.7845 544.529 56.9636C546.19 57.1427 547.682 55.9367 547.862 54.2701C548.041 52.6034 546.841 51.1071 545.18 50.928Z" fill="#F3F7FF"/>
<path d="M523.14 24.26C521.479 24.0809 519.987 25.2869 519.807 26.9536C519.627 28.6202 520.828 30.1165 522.489 30.2956C524.149 30.4747 525.642 29.2688 525.821 27.6021C526.001 25.9354 524.801 24.4391 523.14 24.26Z" fill="#F3F7FF"/>
<path d="M517.883 72.9966C516.222 72.8175 514.73 74.0235 514.55 75.6901C514.37 77.3568 515.571 78.8531 517.232 79.0322C518.892 79.2113 520.385 78.0053 520.564 76.3387C520.744 74.672 519.543 73.1757 517.883 72.9966Z" fill="#F3F7FF"/>
<path d="M505.403 30.2044C503.742 30.0253 502.25 31.2312 502.071 32.8979C501.891 34.5646 503.091 36.0609 504.752 36.2399C506.413 36.419 507.905 35.2131 508.085 33.5464C508.265 31.8798 507.064 30.3835 505.403 30.2044Z" fill="#F3F7FF"/>
<path d="M503.082 64.9693C501.421 64.7902 499.929 65.9961 499.749 67.6628C499.569 69.3295 500.77 70.8258 502.431 71.0048C504.092 71.1839 505.584 69.978 505.764 68.3113C505.943 66.6446 504.743 65.1484 503.082 64.9693Z" fill="#F3F7FF"/>
<path d="M534.909 66.9754C533.248 66.7963 531.756 68.0022 531.576 69.6689C531.397 71.3356 532.597 72.8319 534.258 73.0109C535.919 73.19 537.411 71.9841 537.591 70.3174C537.771 68.6507 536.57 67.1545 534.909 66.9754Z" fill="#F3F7FF"/>
<path d="M537.865 32.9917C536.204 32.8126 534.712 34.0186 534.532 35.6852C534.352 37.3519 535.553 38.8482 537.213 39.0273C538.874 39.2064 540.366 38.0005 540.546 36.3338C540.726 34.6671 539.525 33.1708 537.865 32.9917Z" fill="#F3F7FF"/>
<path d="M520.639 47.445C518.523 47.2168 516.621 48.7533 516.392 50.8768C516.163 53.0003 517.693 54.9068 519.809 55.1349C521.925 55.3631 523.826 53.8266 524.055 51.7031C524.285 49.5796 522.755 47.6731 520.639 47.445Z" fill="#F3F7FF"/>
<path d="M1095.07 51.1904L1100.16 3.95519" stroke="#F3F7FF" stroke-width="3" stroke-linecap="round" stroke-linejoin="round"/>
<path d="M1082.69 9.13807L1112.53 46.0066" stroke="#F3F7FF" stroke-width="2" stroke-linecap="round" stroke-linejoin="round"/>
<path d="M1114.96 11.4012L1080.26 43.7434" stroke="#F3F7FF" stroke-width="2" stroke-linecap="round" stroke-linejoin="round"/>
<path d="M1074.08 25.0385L1121.15 30.114" stroke="#F3F7FF" stroke-width="3" stroke-linecap="round" stroke-linejoin="round"/>
<path d="M1074.37 22.483C1072.71 22.3039 1071.22 23.5098 1071.04 25.1765C1070.86 26.8431 1072.06 28.3394 1073.72 28.5185C1075.38 28.6976 1076.88 27.4917 1077.06 25.825C1077.24 24.1583 1076.04 22.662 1074.37 22.483Z" fill="#F3F7FF"/>
<path d="M1102.21 48.8227L1104.44 36.0149L1114.57 38.8348L1107.9 28.6863L1116.45 21.4328L1106.53 20.3637L1106.5 9.04005L1098.78 16.6615L1090.4 7.30351L1090.65 18.9607L1079.15 18.6664L1085.87 26.3877L1077.41 34.8276L1089.17 35.3217L1087.35 47.2203L1096.68 38.2779L1102.21 48.8227Z" stroke="#F3F7FF" stroke-width="2" stroke-linecap="round" stroke-linejoin="round"/>
<path d="M1122.73 26.9925C1121.07 26.8134 1119.58 28.0193 1119.4 29.686C1119.22 31.3527 1120.42 32.8489 1122.08 33.028C1123.74 33.2071 1125.24 32.0012 1125.42 30.3345C1125.6 28.6678 1124.39 27.1715 1122.73 26.9925Z" fill="#F3F7FF"/>
<path d="M1100.69 0.324243C1099.03 0.145157 1097.54 1.35109 1097.36 3.01776C1097.18 4.68444 1098.38 6.18073 1100.04 6.35982C1101.7 6.5389 1103.2 5.33297 1103.38 3.66629C1103.56 1.99961 1102.35 0.503329 1100.69 0.324243Z" fill="#F3F7FF"/>
<path d="M1095.44 49.0611C1093.78 48.882 1092.28 50.0879 1092.1 51.7546C1091.92 53.4213 1093.12 54.9175 1094.79 55.0966C1096.45 55.2757 1097.94 54.0698 1098.12 52.4031C1098.3 50.7364 1097.1 49.2401 1095.44 49.0611Z" fill="#F3F7FF"/>
<path d="M1082.96 6.26883C1081.3 6.08975 1079.8 7.29568 1079.62 8.96235C1079.44 10.629 1080.65 12.1253 1082.31 12.3044C1083.97 12.4835 1085.46 11.2776 1085.64 9.61088C1085.82 7.9442 1084.62 6.44792 1082.96 6.26883Z" fill="#F3F7FF"/>
<path d="M1080.64 41.0337C1078.97 40.8546 1077.48 42.0606 1077.3 43.7272C1077.12 45.3939 1078.32 46.8902 1079.98 47.0693C1081.65 47.2484 1083.14 46.0424 1083.32 44.3758C1083.5 42.7091 1082.3 41.2128 1080.64 41.0337Z" fill="#F3F7FF"/>
<path d="M1112.46 43.0398C1110.8 42.8607 1109.31 44.0667 1109.13 45.7333C1108.95 47.4 1110.15 48.8963 1111.81 49.0754C1113.47 49.2545 1114.96 48.0485 1115.14 46.3819C1115.32 44.7152 1114.12 43.2189 1112.46 43.0398Z" fill="#F3F7FF"/>
<path d="M1115.42 9.05618C1113.76 8.87709 1112.27 10.083 1112.09 11.7497C1111.91 13.4164 1113.11 14.9127 1114.77 15.0918C1116.43 15.2708 1117.92 14.0649 1118.1 12.3982C1118.28 10.7316 1117.08 9.23526 1115.42 9.05618Z" fill="#F3F7FF"/>
<path d="M1098.19 23.5094C1096.08 23.2812 1094.18 24.8177 1093.95 26.9413C1093.72 29.0648 1095.25 30.9712 1097.36 31.1994C1099.48 31.4276 1101.38 29.8911 1101.61 27.7676C1101.84 25.644 1100.31 23.7376 1098.19 23.5094Z" fill="#F3F7FF"/>
<path d="M1137.43 401.306L1175.9 341.024" stroke="#F3F7FF" stroke-width="3" stroke-linecap="round" stroke-linejoin="round"/>
<path d="M1148.88 336.328L1164.44 405.995" stroke="#F3F7FF" stroke-width="2" stroke-linecap="round" stroke-linejoin="round"/>
<path d="M1190.88 360.964L1122.44 381.359" stroke="#F3F7FF" stroke-width="2" stroke-linecap="round" stroke-linejoin="round"/>
<path d="M1126.62 352.003L1186.69 390.33" stroke="#F3F7FF" stroke-width="3" stroke-linecap="round" stroke-linejoin="round"/>
<path d="M1128.73 348.757C1126.61 347.404 1123.8 348.032 1122.44 350.159C1121.08 352.286 1121.7 355.107 1123.82 356.459C1125.94 357.812 1128.76 357.184 1130.11 355.057C1131.47 352.93 1130.85 350.109 1128.73 348.757Z" fill="#F3F7FF"/>
<path d="M1148.64 402.89L1160.22 387.113L1171.99 397.689L1169.79 379.547L1186.16 375.48L1173.51 367.407L1181.05 352.119L1165.54 357.234L1160.49 339.006L1153.03 354.89L1137.73 346.804L1141.62 361.709L1124.56 367.429L1140.1 375.966L1129.68 390.79L1148.25 384.976L1148.64 402.89Z" stroke="#F3F7FF" stroke-width="2" stroke-linecap="round" stroke-linejoin="round"/>
<path d="M1190.92 387.182C1188.8 385.83 1185.98 386.458 1184.63 388.585C1183.27 390.712 1183.89 393.532 1186.01 394.885C1188.13 396.237 1190.94 395.609 1192.3 393.482C1193.66 391.355 1193.04 388.535 1190.92 387.182Z" fill="#F3F7FF"/>
<path d="M1179.05 336.483C1176.93 335.13 1174.11 335.758 1172.75 337.885C1171.39 340.012 1172.01 342.833 1174.13 344.185C1176.25 345.538 1179.07 344.91 1180.43 342.783C1181.79 340.656 1181.17 337.835 1179.05 336.483Z" fill="#F3F7FF"/>
<path d="M1139.35 398.68C1137.23 397.328 1134.41 397.956 1133.05 400.083C1131.7 402.21 1132.31 405.031 1134.43 406.383C1136.55 407.735 1139.37 407.107 1140.73 404.98C1142.09 402.853 1141.47 400.033 1139.35 398.68Z" fill="#F3F7FF"/>
<path d="M1151.16 332.635C1149.04 331.282 1146.22 331.91 1144.86 334.037C1143.5 336.164 1144.12 338.985 1146.24 340.337C1148.36 341.69 1151.18 341.062 1152.54 338.935C1153.89 336.808 1153.28 333.987 1151.16 332.635Z" fill="#F3F7FF"/>
<path d="M1124.76 377.957C1122.64 376.605 1119.83 377.233 1118.47 379.36C1117.11 381.487 1117.73 384.308 1119.85 385.66C1121.97 387.012 1124.79 386.384 1126.14 384.257C1127.5 382.13 1126.88 379.31 1124.76 377.957Z" fill="#F3F7FF"/>
<path d="M1166.34 401.951C1164.22 400.598 1161.4 401.226 1160.04 403.353C1158.68 405.48 1159.3 408.301 1161.42 409.653C1163.54 411.006 1166.36 410.378 1167.72 408.25C1169.07 406.123 1168.46 403.303 1166.34 401.951Z" fill="#F3F7FF"/>
<path d="M1193.06 358.105C1190.94 356.753 1188.12 357.381 1186.76 359.508C1185.41 361.635 1186.02 364.455 1188.14 365.808C1190.26 367.16 1193.08 366.532 1194.44 364.405C1195.8 362.278 1195.18 359.457 1193.06 358.105Z" fill="#F3F7FF"/>
<path d="M1160.16 366.071C1157.46 364.348 1153.87 365.148 1152.14 367.858C1150.41 370.568 1151.2 374.162 1153.9 375.885C1156.6 377.608 1160.19 376.808 1161.92 374.098C1163.65 371.388 1162.86 367.794 1160.16 366.071Z" fill="#F3F7FF"/>
<path d="M65.0942 136.8C79.7618 141.775 95.6639 133.984 100.613 119.399C105.561 104.814 97.6824 88.9574 83.0148 83.9827C68.3472 79.0079 52.4451 86.7988 47.4965 101.384C42.5478 115.969 50.4266 131.826 65.0942 136.8Z" fill="#F3F7FF"/>
<path d="M88.2164 79.0692L72.9388 76.2183C71.3022 75.9129 69.7312 76.9852 69.4299 78.6134L68.4366 83.98C68.1352 85.6082 69.2176 87.1757 70.8542 87.4811L86.1318 90.3321C87.7684 90.6375 89.3394 89.5652 89.6407 87.937L90.634 82.5703C90.9354 80.9421 89.853 79.3746 88.2164 79.0692Z" fill="#F3F7FF"/>
<path d="M79.0025 83.5886C82.1607 84.6598 85.5847 82.9822 86.6503 79.8418C87.7158 76.7013 86.0193 73.287 82.8611 72.2159C79.7029 71.1447 76.2788 72.8222 75.2133 75.9627C74.1478 79.1032 75.8442 82.5175 79.0025 83.5886Z" fill="#F3F7FF"/>
<path d="M68.4069 105.462L65.4694 102.883C65.3691 102.794 65.2488 102.731 65.1188 102.698C64.9887 102.666 64.8528 102.665 64.7226 102.696L60.9848 103.656C60.835 103.692 60.6779 103.685 60.5312 103.637C60.3845 103.589 60.2539 103.502 60.1542 103.384C60.0545 103.267 59.9896 103.124 59.9667 102.972C59.9438 102.82 59.9639 102.665 60.0247 102.524L61.5526 98.948C61.6067 98.8256 61.63 98.6918 61.6206 98.5581C61.6111 98.4245 61.5692 98.295 61.4983 98.1809L59.4478 94.8979C59.3677 94.7668 59.3258 94.6162 59.3267 94.463C59.3276 94.3098 59.3712 94.16 59.4528 94.0303C59.5344 93.9006 59.6506 93.7962 59.7886 93.7287C59.9266 93.6612 60.0808 93.6333 60.234 93.6481L64.0954 94.01C64.2296 94.0237 64.365 94.0047 64.49 93.9546C64.6149 93.9045 64.7256 93.8248 64.8125 93.7224L67.3081 90.7777C67.4055 90.6497 67.5384 90.553 67.6905 90.4993C67.8426 90.4457 68.0073 90.4374 68.1644 90.4756C68.3214 90.5138 68.464 90.5967 68.5747 90.7142C68.6854 90.8318 68.7593 90.9788 68.7874 91.1372L69.5865 94.9341C69.6137 95.0651 69.6734 95.1874 69.7603 95.2897C69.8471 95.392 69.9583 95.4711 70.0836 95.5197L73.6756 96.9844C73.819 97.0429 73.9432 97.1401 74.0342 97.2649C74.1252 97.3898 74.1794 97.5374 74.1907 97.6911C74.202 97.8447 74.17 97.9983 74.0982 98.1346C74.0263 98.2708 73.9177 98.3842 73.7843 98.4619L70.4366 100.407C70.3203 100.473 70.2225 100.567 70.1523 100.681C70.0822 100.794 70.0417 100.924 70.0348 101.057L69.7583 104.906C69.7438 105.055 69.689 105.197 69.5997 105.317C69.5104 105.437 69.39 105.531 69.2512 105.588C69.1125 105.645 68.9607 105.663 68.8119 105.641C68.6632 105.619 68.5232 105.557 68.4069 105.462Z" fill="white"/>
<path d="M87.1179 122.765L83.6716 118.876C83.5459 118.747 83.3911 118.649 83.2202 118.591C83.0492 118.533 82.867 118.517 82.6886 118.543L77.5114 119.166C77.3055 119.191 77.0965 119.158 76.9081 119.071C76.7196 118.984 76.5593 118.846 76.4452 118.673C76.3312 118.501 76.268 118.299 76.2629 118.093C76.2578 117.886 76.3109 117.683 76.4163 117.505L79.0515 113.025C79.1444 112.872 79.1978 112.698 79.2069 112.52C79.216 112.341 79.1806 112.162 79.1038 112L76.8504 107.236C76.755 107.046 76.7166 106.833 76.7397 106.622C76.7628 106.411 76.8465 106.211 76.9807 106.047C77.1149 105.883 77.294 105.76 77.4965 105.695C77.699 105.629 77.9165 105.623 78.1227 105.677L83.228 106.812C83.4102 106.858 83.601 106.858 83.783 106.812C83.965 106.767 84.1325 106.676 84.2702 106.549L88.0802 103.017C88.2309 102.875 88.4189 102.778 88.6226 102.737C88.8263 102.697 89.0376 102.714 89.2325 102.787C89.4273 102.86 89.5978 102.986 89.7245 103.15C89.8512 103.315 89.929 103.511 89.9491 103.717L90.4122 108.898C90.4309 109.077 90.4927 109.25 90.5924 109.401C90.6922 109.552 90.827 109.677 90.9853 109.765L95.5606 112.265C95.7479 112.365 95.9023 112.517 96.0056 112.703C96.1089 112.888 96.1567 113.098 96.1433 113.309C96.1299 113.521 96.0559 113.723 95.93 113.893C95.8042 114.063 95.6319 114.194 95.4335 114.269L90.6532 116.334C90.4875 116.406 90.3416 116.516 90.2279 116.656C90.1142 116.795 90.036 116.96 89.9998 117.136L89.0112 122.241C88.9694 122.439 88.8741 122.621 88.7356 122.768C88.5972 122.914 88.4208 123.021 88.2257 123.075C88.0306 123.128 87.8242 123.128 87.6289 123.074C87.4336 123.019 87.2568 122.912 87.1179 122.765Z" fill="white"/>
<path d="M70.4811 124.098L67.3688 124.843C67.2641 124.873 67.1677 124.927 67.0869 124.999C67.0061 125.072 66.943 125.162 66.9023 125.263L65.7931 128.223C65.7506 128.341 65.675 128.445 65.5753 128.523C65.4756 128.6 65.3558 128.647 65.2299 128.659C65.104 128.671 64.9771 128.647 64.8642 128.59C64.7512 128.533 64.6567 128.445 64.5917 128.337L62.9667 125.682C62.9099 125.588 62.8307 125.511 62.7363 125.456C62.6418 125.4 62.5352 125.369 62.4259 125.365L59.2569 125.238C59.1295 125.234 59.0059 125.193 58.9005 125.121C58.795 125.05 58.7119 124.95 58.6608 124.834C58.6096 124.717 58.5925 124.589 58.6114 124.463C58.6302 124.338 58.6843 124.221 58.7674 124.125L60.7989 121.705C60.8692 121.622 60.9178 121.523 60.9406 121.416C60.9634 121.31 60.9596 121.2 60.9295 121.095L60.0592 118.042C60.0255 117.921 60.0264 117.793 60.0617 117.673C60.097 117.553 60.1653 117.445 60.259 117.361C60.3527 117.278 60.468 117.222 60.592 117.201C60.716 117.179 60.8437 117.192 60.9607 117.239L63.9033 118.426C64.004 118.47 64.1141 118.486 64.223 118.475C64.332 118.464 64.4361 118.425 64.5255 118.363L67.1735 116.626C67.2789 116.556 67.4018 116.517 67.5284 116.514C67.655 116.51 67.7801 116.542 67.8895 116.606C67.999 116.67 68.0883 116.763 68.1475 116.875C68.2066 116.986 68.2331 117.112 68.224 117.238L68.0042 120.386C67.9965 120.495 68.0154 120.605 68.0592 120.705C68.1031 120.806 68.1706 120.895 68.256 120.964L70.7421 122.935C70.8361 123.015 70.9064 123.119 70.9456 123.235C70.9848 123.352 70.9913 123.476 70.9644 123.596C70.9376 123.716 70.8783 123.826 70.7932 123.914C70.708 124.003 70.6001 124.066 70.4811 124.098Z" fill="white"/>
<path d="M602.168 129.707C621.68 133.311 640.405 120.504 643.99 101.101C647.576 81.6983 634.664 63.0473 615.152 59.4429C595.64 55.8385 576.915 68.6456 573.33 88.0484C569.744 107.451 582.656 126.102 602.168 129.707Z" fill="#F3F7FF"/>
<path d="M620.841 52.2552L600.947 51.4556C598.816 51.37 597.022 53.0189 596.94 55.1387L596.669 62.1254C596.588 64.2452 598.249 66.033 600.38 66.1186L620.274 66.9182C622.405 67.0038 624.199 65.3549 624.281 63.2351L624.551 56.2484C624.633 54.1286 622.972 52.3408 620.841 52.2552Z" fill="#F3F7FF"/>
<path d="M609.993 59.6824C614.194 60.4585 618.226 57.7009 618.998 53.5231C619.77 49.3453 616.99 45.3293 612.788 44.5532C608.587 43.7771 604.555 46.5347 603.783 50.7125C603.011 54.8904 605.791 58.9063 609.993 59.6824Z" fill="#F3F7FF"/>
<path d="M600.591 89.3659L596.392 86.6374C596.248 86.5433 596.084 86.4851 595.913 86.4678C595.742 86.4505 595.57 86.4746 595.411 86.538L590.849 88.4432C590.665 88.5165 590.465 88.5374 590.27 88.5037C590.076 88.47 589.894 88.383 589.746 88.2525C589.598 88.1219 589.489 87.9529 589.432 87.7645C589.375 87.5761 589.372 87.3758 589.423 87.1859L590.701 82.3705C590.747 82.2053 590.752 82.0313 590.715 81.8636C590.679 81.6959 590.602 81.5395 590.491 81.4079L587.286 77.6236C587.16 77.4721 587.079 77.2889 587.052 77.0945C587.025 76.9001 587.053 76.7021 587.132 76.5227C587.212 76.3433 587.34 76.1895 587.503 76.0785C587.665 75.9675 587.855 75.9037 588.052 75.8942L593.014 75.6415C593.187 75.6343 593.355 75.5852 593.505 75.4987C593.654 75.4121 593.779 75.2907 593.871 75.1449L596.492 70.9517C596.592 70.7716 596.742 70.6244 596.925 70.5284C597.108 70.4323 597.316 70.3915 597.522 70.411C597.728 70.4304 597.924 70.5093 598.086 70.6379C598.248 70.7665 598.369 70.9393 598.433 71.135L600.146 75.8013C600.205 75.9625 600.303 76.1065 600.432 76.2202C600.561 76.3339 600.717 76.4137 600.885 76.4522L605.708 77.6473C605.901 77.6951 606.076 77.7954 606.215 77.9369C606.353 78.0785 606.449 78.2556 606.492 78.4483C606.534 78.6411 606.522 78.8417 606.456 79.0276C606.39 79.2136 606.273 79.3773 606.119 79.5005L602.233 82.583C602.098 82.6883 601.991 82.8258 601.923 82.9827C601.855 83.1397 601.828 83.3112 601.843 83.4816L602.202 88.4123C602.211 88.6037 602.168 88.7939 602.077 88.9625C601.986 89.1312 601.85 89.272 601.685 89.3699C601.52 89.4678 601.331 89.5191 601.138 89.5184C600.945 89.5177 600.756 89.465 600.591 89.3659Z" fill="white"/>
<path d="M627.502 107.854L622.416 103.559C622.233 103.418 622.019 103.323 621.791 103.281C621.564 103.239 621.33 103.252 621.109 103.317L614.66 105.061C614.403 105.131 614.132 105.128 613.877 105.052C613.623 104.977 613.394 104.832 613.217 104.634C613.041 104.435 612.924 104.192 612.879 103.931C612.835 103.67 612.865 103.402 612.965 103.158L615.481 96.9924C615.57 96.7812 615.606 96.5513 615.584 96.3229C615.563 96.0945 615.485 95.8749 615.358 95.6834L611.623 90.0589C611.467 89.8355 611.379 89.5722 611.369 89.3006C611.36 89.029 611.429 88.7605 611.569 88.5273C611.709 88.2941 611.913 88.106 612.158 87.9856C612.403 87.8652 612.677 87.8175 612.949 87.8482L619.63 88.3458C619.87 88.3708 620.112 88.3359 620.334 88.2442C620.556 88.1525 620.752 88.007 620.903 87.8209L625.082 82.641C625.247 82.433 625.468 82.2755 625.718 82.1863C625.969 82.0971 626.24 82.0798 626.501 82.1365C626.761 82.1931 627.001 82.3214 627.191 82.5067C627.382 82.6919 627.517 82.9268 627.581 83.1844L629.123 89.6667C629.179 89.8909 629.29 90.0982 629.444 90.2713C629.598 90.4443 629.792 90.5779 630.009 90.6606L636.27 92.9866C636.526 93.0797 636.75 93.2439 636.915 93.4597C637.08 93.6755 637.18 93.9337 637.202 94.2038C637.224 94.4739 637.167 94.7444 637.039 94.9832C636.911 95.2219 636.716 95.419 636.479 95.5508L630.799 99.0503C630.602 99.1715 630.437 99.3381 630.319 99.536C630.201 99.7339 630.132 99.9574 630.118 100.187L629.806 106.842C629.789 107.1 629.702 107.348 629.554 107.559C629.405 107.771 629.201 107.938 628.964 108.043C628.726 108.147 628.465 108.185 628.207 108.151C627.949 108.118 627.706 108.016 627.502 107.854Z" fill="white"/>
<path d="M606.656 112.61L602.848 114.128C602.72 114.186 602.608 114.271 602.519 114.378C602.43 114.485 602.367 114.611 602.334 114.746L601.473 118.704C601.441 118.862 601.364 119.007 601.252 119.123C601.14 119.24 600.997 119.322 600.839 119.36C600.682 119.398 600.517 119.391 600.363 119.34C600.209 119.288 600.073 119.194 599.971 119.069L597.421 116.002C597.332 115.895 597.217 115.811 597.087 115.758C596.958 115.706 596.817 115.686 596.677 115.701L592.636 116.124C592.474 116.141 592.31 116.113 592.163 116.041C592.016 115.97 591.892 115.859 591.806 115.721C591.72 115.582 591.674 115.423 591.675 115.26C591.676 115.098 591.723 114.939 591.81 114.802L593.94 111.36C594.014 111.242 594.057 111.107 594.066 110.968C594.076 110.829 594.051 110.69 593.993 110.563L592.327 106.853C592.262 106.705 592.24 106.543 592.262 106.384C592.285 106.225 592.352 106.076 592.455 105.953C592.558 105.83 592.694 105.738 592.847 105.688C593.001 105.637 593.165 105.631 593.322 105.668L597.271 106.632C597.407 106.668 597.55 106.669 597.686 106.635C597.822 106.6 597.947 106.532 598.048 106.436L601.085 103.746C601.206 103.639 601.355 103.567 601.515 103.539C601.675 103.511 601.839 103.529 601.99 103.59C602.14 103.65 602.271 103.752 602.366 103.883C602.462 104.013 602.518 104.168 602.53 104.329L602.832 108.36C602.842 108.5 602.886 108.636 602.96 108.755C603.034 108.875 603.136 108.975 603.257 109.047L606.773 111.088C606.906 111.172 607.015 111.29 607.086 111.431C607.157 111.571 607.188 111.728 607.176 111.885C607.164 112.041 607.109 112.192 607.018 112.32C606.926 112.447 606.801 112.548 606.656 112.61Z" fill="white"/>
</svg>
