<svg width="32" height="32" viewBox="0 0 32 32" fill="none" xmlns="http://www.w3.org/2000/svg">
<rect width="32" height="32" rx="16" fill="#D3DAE8"/>
<path d="M16 15C18.525 15 20.5714 12.9855 20.5714 10.5C20.5714 8.01445 18.525 6 16 6C13.475 6 11.4286 8.01445 11.4286 10.5C11.4286 12.9855 13.475 15 16 15ZM19.2 16.125H18.6036C17.8107 16.4836 16.9286 16.6875 16 16.6875C15.0714 16.6875 14.1929 16.4836 13.3964 16.125H12.8C10.15 16.125 8 18.2414 8 20.85V22.3125C8 23.2441 8.76786 24 9.71429 24H22.2857C23.2321 24 24 23.2441 24 22.3125V20.85C24 18.2414 21.85 16.125 19.2 16.125Z" fill="white"/>
</svg>
