<svg fill="none"  viewBox="0 0 257 126"  xmlns="http://www.w3.org/2000/svg" xmlns:xlink="http://www.w3.org/1999/xlink"><filter id="a" color-interpolation-filters="sRGB" filterUnits="userSpaceOnUse" height="34.5665" width="55.522" x="154.138" y="33.2017"><feFlood flood-opacity="0" result="BackgroundImageFix"/><feBlend in="SourceGraphic" in2="BackgroundImageFix" mode="normal" result="shape"/><feColorMatrix in="SourceAlpha" result="hardAlpha" type="matrix" values="0 0 0 0 0 0 0 0 0 0 0 0 0 0 0 0 0 0 127 0"/><feOffset/><feGaussianBlur stdDeviation="3"/><feComposite in2="hardAlpha" k2="-1" k3="1" operator="arithmetic"/><feColorMatrix type="matrix" values="0 0 0 0 0 0 0 0 0 0 0 0 0 0 0 0 0 0 0.06 0"/><feBlend in2="shape" mode="normal" result="effect1_innerShadow"/></filter><filter id="b" color-interpolation-filters="sRGB" filterUnits="userSpaceOnUse" height="68.9205" width="98.1707" x="151.392" y="56.4136"><feFlood flood-opacity="0" result="BackgroundImageFix"/><feColorMatrix in="SourceAlpha" result="hardAlpha" type="matrix" values="0 0 0 0 0 0 0 0 0 0 0 0 0 0 0 0 0 0 127 0"/><feOffset dy="2"/><feGaussianBlur stdDeviation="2"/><feColorMatrix type="matrix" values="0 0 0 0 0 0 0 0 0 0 0 0 0 0 0 0 0 0 0.12 0"/><feBlend in2="BackgroundImageFix" mode="normal" result="effect1_dropShadow"/><feBlend in="SourceGraphic" in2="effect1_dropShadow" mode="normal" result="shape"/></filter><filter id="c" color-interpolation-filters="sRGB" filterUnits="userSpaceOnUse" height="57.9937" width="58.9362" x="197.158" y="56.1492"><feFlood flood-opacity="0" result="BackgroundImageFix"/><feColorMatrix in="SourceAlpha" result="hardAlpha" type="matrix" values="0 0 0 0 0 0 0 0 0 0 0 0 0 0 0 0 0 0 127 0"/><feOffset/><feGaussianBlur stdDeviation="10"/><feColorMatrix type="matrix" values="0 0 0 0 0 0 0 0 0 0 0 0 0 0 0 0 0 0 0.16 0"/><feBlend in2="BackgroundImageFix" mode="normal" result="effect1_dropShadow"/><feBlend in="SourceGraphic" in2="effect1_dropShadow" mode="normal" result="shape"/></filter><filter id="d" color-interpolation-filters="sRGB" filterUnits="userSpaceOnUse" height="34.2226" width="58.0844" x="23.1667" y="37.9343"><feFlood flood-opacity="0" result="BackgroundImageFix"/><feBlend in="SourceGraphic" in2="BackgroundImageFix" mode="normal" result="shape"/><feColorMatrix in="SourceAlpha" result="hardAlpha" type="matrix" values="0 0 0 0 0 0 0 0 0 0 0 0 0 0 0 0 0 0 127 0"/><feOffset/><feGaussianBlur stdDeviation="3"/><feComposite in2="hardAlpha" k2="-1" k3="1" operator="arithmetic"/><feColorMatrix type="matrix" values="0 0 0 0 0 0 0 0 0 0 0 0 0 0 0 0 0 0 0.06 0"/><feBlend in2="shape" mode="normal" result="effect1_innerShadow"/></filter><filter id="e" color-interpolation-filters="sRGB" filterUnits="userSpaceOnUse" height="29.9519" width="73.0485" x="5.43213" y="38.595"><feFlood flood-opacity="0" result="BackgroundImageFix"/><feColorMatrix in="SourceAlpha" result="hardAlpha" type="matrix" values="0 0 0 0 0 0 0 0 0 0 0 0 0 0 0 0 0 0 127 0"/><feOffset dy="2"/><feGaussianBlur stdDeviation="3"/><feColorMatrix type="matrix" values="0 0 0 0 0 0 0 0 0 0 0 0 0 0 0 0 0 0 0.12 0"/><feBlend in2="BackgroundImageFix" mode="normal" result="effect1_dropShadow"/><feBlend in="SourceGraphic" in2="effect1_dropShadow" mode="normal" result="shape"/></filter><path d="m130.245 37.0367c-9.011-.8196-19.71 5.4053-22.946 17.9648-3.236 12.5596 4.838 18.0654 9.423 18.8527 12.778 2.1907 17.153-5.2779 18.094-4.781 4.703 2.4845 7.395 1.444 10.578.7052 3.908-.9067 7.017-4.1536 6.088-4.0736-10.205.8712-9.899-2.443-9.899-2.443 7.468-4.9763 10.557-24.2333-11.338-26.2251z" fill="#84bcf8"/><path d="m117.418 62.5782.148.1858c.143.1879.29.3915.444.6086.153.2197.293.4458.421.6762.129.2303.234.4662.313.7074.079.2413.118.4816.114.7205-.004.239-.059.4708-.166.6928-.106.222-.284.435-.533.6314-.269.2151-.551.3441-.845.3922-.295.0481-.584.0324-.867-.0471-.283-.077-.551-.2066-.802-.3835-.25-.1795-.472-.3873-.662-.6232-.084-.1027-.166-.2285-.248-.3748-.082-.1464-.138-.2981-.173-.4531-.035-.1549-.039-.3045-.015-.4516s.106-.2736.24-.3798c.146-.1156.285-.1623.42-.1398.136.0225.268.0781.395.1667.126.0911.248.1999.368.3265.121.1292.234.245.344.3475.109.105.214.1813.315.2317.102.0503.196.0382.286-.0335.104-.0833.15-.1924.14-.3297-.013-.1376-.052-.2749-.124-.4203-.07-.1427-.151-.2786-.245-.408-.092-.1292-.165-.2285-.221-.2978-.223-.2775-.467-.5284-.726-.755-.258-.2266-.536-.4471-.824-.6635-.148-.1111-.298-.2224-.454-.3342-.155-.1118-.291-.2398-.408-.3815-.134-.1691-.201-.3398-.198-.5196.004-.1773.094-.3364.268-.4752.129-.1042.253-.1599.371-.1673.117-.0075.253.0073.407.047.238.0625.475.1611.714.2983.236.1371.463.2913.68.4704.216.1764.422.3648.616.5649.189.1972.36.3876.507.5706z" fill="#fff"/><path d="m121.691 64.0676c-.255.2035-.53.3126-.827.3297-.297.017-.594-.0252-.892-.1319-.297-.1038-.581-.258-.852-.4601-.272-.202-.505-.4288-.705-.6759-.211-.261-.396-.5581-.557-.8892-.161-.331-.267-.6649-.316-1.0013-.052-.3366-.032-.6617.062-.9749.092-.3135.283-.5845.571-.8134.28-.2218.579-.3365.898-.3412.32-.0047.63.0567.93.184.299.1273.585.3075.849.5346.264.227.486.4657.662.7133.198.2751.37.5711.516.8905.147.3195.244.6396.285.9547.04.3151.017.6192-.075.9121-.093.2979-.275.5518-.549.769zm-2.63-3.41c-.076.0601-.11.1522-.104.2764.007.1241.039.2582.093.402s.121.2863.203.4276c.083.1413.16.2589.237.3533.095.1192.211.2377.345.3579.134.1201.27.2224.402.3064.135.0842.259.1417.381.1732.119.0313.216.0169.292-.0432.081-.0622.118-.1541.116-.2752-.002-.1186-.031-.2499-.088-.3914s-.134-.2874-.226-.4347c-.096-.1476-.189-.2821-.287-.399-.089-.1084-.195-.2209-.322-.3352-.126-.1144-.252-.2157-.381-.2995-.13-.0837-.252-.141-.371-.1697-.12-.0237-.217-.0092-.29.0511z" fill="#fff"/><path d="m120.577 56.1061c.056.0694.087.1469.092.2297.006.0828-.003.1721-.029.2598s-.065.1743-.117.252c-.051.0778-.109.1395-.168.1882-.1.0785-.206.123-.321.1333-.115.0102-.214-.0373-.298-.1401-.06-.0749-.094-.1552-.102-.2408-.007-.0856 0-.1698.024-.2501.025-.08.064-.1589.117-.2339.054-.0749.114-.139.179-.1898.095-.0764.2-.1209.316-.1414.119-.0202.221.025.307.1331zm2.097 2.4741c.056.0693.114.1415.177.2192s.118.1521.168.2236c.062.0879.153.2016.267.3431.113.1414.231.2962.353.4667.121.1705.239.3509.352.536.112.1851.201.3682.262.5461.062.1779.088.3424.073.4956-.011.1508-.078.2812-.199.3835-.09.0794-.202.1079-.329.0785-.129-.0271-.264-.0881-.408-.1783-.145-.0928-.289-.2088-.434-.3479-.146-.1392-.283-.2777-.41-.4178-.127-.1375-.242-.2688-.342-.391-.1-.1248-.174-.2165-.221-.2747-.065-.0805-.156-.1916-.272-.3384-.118-.1445-.238-.3071-.364-.4832-.126-.176-.244-.3616-.358-.5572-.111-.1953-.2-.3834-.263-.5692-.063-.1859-.089-.3555-.077-.5114s.084-.2858.215-.3898c.135-.1063.292-.123.469-.0428.176.0777.355.1916.533.3414s.342.3113.486.4838c.145.1726.253.2981.322.3842z" fill="#fff"/><path d="m127.642 59.3331c-.084.067-.184.0838-.295.0455-.113-.0359-.219-.0944-.326-.1735-.104-.0788-.203-.1649-.292-.2605-.09-.0955-.155-.1709-.2-.2238-.118-.1471-.231-.3039-.332-.4649-.102-.161-.203-.3271-.299-.4928-.096-.1656-.198-.3292-.299-.4927-.102-.161-.214-.3178-.333-.4649-.049-.0585-.102-.1225-.164-.1872-.061-.0647-.126-.122-.191-.1691-.069-.0473-.138-.0768-.21-.0832-.072-.0065-.142.013-.206.0664-.045.0345-.065.1125-.063.226.002.116.017.2382.044.3668.027.1285.059.2524.103.3696.041.1169.08.1976.114.242.089.1083.177.2166.271.328.091.1085.184.2199.277.3338l.346.4301c.067.0935.133.1895.199.2932.065.1011.123.2041.176.3092.058.1005.102.2049.139.3086s.056.2083.057.3062c.004.1007-.013.1945-.045.2868-.034.0922-.093.1718-.183.2435-.101.0784-.208.1126-.326.0994s-.236-.0547-.357-.1222c-.12-.0675-.241-.1608-.361-.2719-.119-.1111-.23-.2266-.336-.3417-.106-.115-.197-.2236-.278-.3287-.078-.1023-.143-.1853-.19-.2435l-.281-.3496c-.151-.1886-.305-.3698-.46-.5459-.154-.1761-.306-.357-.455-.5403-.079-.0997-.181-.2248-.301-.3823-.121-.1549-.225-.3187-.307-.4934s-.126-.3434-.131-.5111c-.005-.1678.07-.3128.224-.4353.07-.0555.151-.0818.241-.0813.091.0004.183.0164.279.0482.095.0318.185.0707.273.125.088.0542.159.0993.22.1433-.005-.1086 0-.2213.014-.3411.016-.1169.045-.2352.09-.3522.044-.1169.107-.2323.188-.346.08-.1137.189-.2223.324-.3312.255-.2035.502-.2996.74-.2911.24.0088.467.0755.678.2026.214.1274.412.2893.593.4832.182.1965.341.3781.478.5449.068.0833.162.2153.28.3932.118.178.242.3796.372.6048.129.2253.252.4654.365.7201.114.2548.206.4972.269.7294.064.2323.091.4432.076.6348-.015.1917-.08.3326-.209.4368z" fill="#fff"/><path d="m132.296 51.8174c.219.2719.409.5619.569.8748.161.3104.261.6232.302.9357s.004.6207-.109.9219c-.114.3012-.332.5801-.657.8391-.319.2544-.636.4034-.954.4469-.316.0462-.621.0136-.917-.0928-.296-.1065-.574-.2705-.839-.4899s-.506-.4651-.724-.7395c-.24-.2969-.443-.6189-.608-.9657-.048-.0919-.109-.2235-.18-.3998-.072-.1737-.128-.3563-.17-.5454s-.059-.3682-.051-.5374c.008-.1691.064-.2954.168-.3787.1-.0784.202-.1156.306-.1089.103.0067.206.0367.307.0921.102.0529.194.1229.277.205s.156.1633.216.2357c.093.1139.173.2318.245.354.069.122.14.2469.206.3712.099.1633.201.3269.302.4904.102.161.214.3178.333.4649.06.0749.131.1533.211.2403.08.0845.171.1596.267.2197.098.0603.196.0974.298.1092.1.0141.202-.0205.3-.0991.129-.1042.205-.221.227-.3502.023-.1293.009-.2617-.038-.3972s-.113-.265-.199-.3912c-.087-.1262-.17-.2391-.249-.3389-.174-.2164-.363-.4187-.563-.6066-.201-.1853-.4-.3783-.6-.5764-.024-.0202-.054-.0538-.092-.0984-.06-.0749-.107-.1589-.142-.2522-.035-.0932-.055-.1876-.057-.283-.001-.0954.013-.1868.049-.2761.035-.0896.094-.1641.172-.2291.11-.0879.238-.1253.385-.1172.146.0106.298.0526.452.1256.156.0759.313.1749.47.2946.158.1197.309.2465.451.3725.141.1285.266.2531.377.3762.115.1313.199.229.259.3039z" fill="#fff"/><path d="m133.366 47.7588c.116.1442.152.289.112.4346-.042.148-.098.2974-.167.4559-.069.1584-.12.3159-.148.4781-.031.1619.024.3263.159.4928.072.0889.154.1503.25.1795.093.0315.192.0482.298.05.104.0016.215.0014.335-.0033s.238.0009.356.0217c.117.0209.238.0626.361.1278.121.0649.241.1683.357.3125.167.2081.279.4548.333.7401s.06.5741.018.8611c-.043.2894-.128.5648-.263.8228-.134.2607-.304.4718-.508.6336-.084.067-.175.1283-.269.1842-.095.0557-.189.091-.285.1107-.095.0197-.19.0163-.284-.0101-.096-.0267-.181-.0884-.262-.1883-.112-.1387-.172-.2677-.179-.3892-.007-.119.014-.2354.064-.3493.049-.1114.111-.219.19-.32.077-.1011.144-.2057.198-.309.053-.1032.086-.2083.093-.3106s-.032-.2087-.12-.317c-.084-.1053-.212-.1786-.384-.2249-.172-.0464-.359-.0916-.56-.1379-.2-.0464-.402-.1082-.599-.1878-.198-.0769-.367-.2028-.507-.3775-.172-.2136-.288-.4427-.344-.6948-.057-.2496-.068-.5001-.029-.7513s.123-.4881.251-.7159.296-.4236.506-.59c.081-.0647.164-.119.254-.165.09-.0459.178-.074.27-.0863.089-.01.179.0006.266.0317.088.0311.16.0967.237.1911z" fill="#fff"/><path d="m135.848 47.3809c.065.0805.146.1907.246.3336.101.1454.203.3013.309.473s.205.3531.297.544c.091.1909.165.37.221.5424.057.1698.081.3239.079.4626-.005.1385-.051.2425-.141.3142-.109.0879-.246.1091-.41.0634-.165-.0457-.338-.1282-.524-.253-.185-.1248-.376-.2758-.569-.4553-.194-.1795-.376-.3607-.549-.5435-.172-.1828-.327-.3563-.462-.5203s-.24-.2892-.312-.3781c-.072-.0888-.163-.1999-.272-.3359-.109-.1359-.22-.2848-.332-.4493-.112-.1619-.212-.3306-.308-.5039-.095-.1732-.165-.3417-.209-.5103-.044-.1661-.053-.3239-.026-.4733.03-.1467.109-.2759.243-.3822.121-.0947.261-.1233.418-.0834.159.0401.328.1222.504.2435.175.1213.355.2739.538.4551.183.1811.355.3614.514.5455.159.1842.306.3596.436.5231.13.1636.232.2937.309.3881zm2.133 2.9303c.067.0833.106.1717.115.2677.009.0935 0 .1879-.031.2803-.032.0923-.077.181-.136.258-.059.0796-.125.1483-.201.2084-.109.088-.239.1432-.384.1662-.144.023-.267-.0292-.367-.1514-.06-.0749-.094-.1577-.101-.2536-.006-.0958.003-.1902.032-.2879.03-.0951.072-.1866.13-.274.057-.085.121-.1564.191-.2119.114-.0901.241-.1455.383-.1637.142-.0206.264.0341.369.1619z" fill="#fff"/><path d="m163.018 95.2726c-3.396 4.9324.949 10.7534 5.565 11.6284s11.207-1.096 11.427-7.0091c.219-5.9129-8.732-16.6144-16.992-4.6193z" fill="#af446b"/><path d="m210.401 90.9842c.398-2.8929-4.653-8.1922-17.579-7.9362-9.894.1971-20.694.9268-18.613 7.9362 2.099 7.0709 6.463 14.0808 18.613 14.8488s16.803-9.2167 17.579-14.8488z" fill="#d96490"/><path d="m178.345 89.1923c2.619 1.8869 10.599 2.8163 17.579 2.3042 6.98-.512 13.443-2.0481 10.082-3.8403s-33.349-2.5602-27.661 1.5361z" fill="#8d2960"/><path d="m179.12 93.0323c-2.494-1.0215.13 2.944 5.946 7.1677 3.539 2.571 10.599 4.865 10.082 4.097s-1.411-4.9644-2.326-7.6806c-1.034-3.0721-6.205-.5121-13.702-3.5841z" fill="#f1a3be"/><path d="m213.091 13.2943c-.059.5822-.789 2.7351-1.625 4.9489-1.008 2.6633-2.167 5.4127-2.498 5.6154-.605.3755-3.698.3665-4.976-1.3861 0 0 1.325-3.1023 2.577-6.048 1.031-2.4233 2.013-4.7378 2.173-5.1417.354-.8932 4.477.7366 4.349 2.0115z" fill="#cb4d7c"/><path d="m213.091 13.2945c-.059.5821-.789 2.7353-1.626 4.9491-1.869-.6093-3.674-1.3171-4.896-1.8188 1.031-2.4234 2.013-4.7382 2.173-5.142.354-.8933 4.477.7367 4.349 2.0117z" fill="#8d2960"/><path d="m210.521 1.1512c-1.506-.068-8.344 1.83682-8.084 6.72115.259 4.88435 10.463 9.75275 14.613 6.24555 4.15-3.5071 1.118-12.61959-6.529-12.9667z" fill="#d96490"/><path d="m214.865 38.4728c1.602-3.7528.194-11.5777-5.017-15.7222-4.057-3.2258-9.551-3.8871-13.699-.9787-4.126 2.8928-5.693 4.1781-4.078 5.1661.963.5896 21.165 15.3516 22.794 11.5348z" fill="#d96490"/><path d="m193.665 24.8939c-.766.704 8.358 4.6678 8.879 3.6161.52-1.0518 1.789-6.3664.489-7.2828-1.074-.7551-4.67-.6529-9.368 3.6667z" fill="#f1a3be"/><path d="m211.034 6.11484c.778-1.64725.987-3.86835-.781-3.36611-1.534.4369-4.601 1.50479-5.17 3.66869-1.139 4.32778 3.587 7.17428 3.853 6.63178.264-.542.114-3.11073 1.322-5.37549.246-.45881.508-.99539.776-1.55887z" fill="#f1a3be"/><path d="m220.871 73.7207c-4.794 4.3866-21.215 6.4626-42.547.7602s-25.584-10.9929-23.724-20.619c.116-.6015.281-1.2212.491-1.8507 2.019-6.1049 8.223-13.3714 15.767-18.8096 4.125-2.9744 8.649-5.4002 13.109-6.7919 13.462-4.2008 25.738 2.1549 32.882 12.4321 7.145 10.2771 8.816 30.4922 4.022 34.8789z" fill="#d96490"/><g filter="url(#a)"><path d="m205.84 66.3342c-2.736.8821-9.305 1.8256-17.985 1.2656-16.496-1.0644-27.168-6.6444-33.717-10.9523.734-9.2259 7.367-15.801 13.345-20.8181 1.087-.913 2.216-1.7913 3.375-2.6277 10.387.6711 31.256 5.2957 32.93 7.4446 1.978 2.539 3.924 10.1224 5.626 16.6064.727 2.7704-.067 7.9515-3.574 9.0815z" fill="#84bcf8"/></g><path d="m161.059 49.1307c-.889-2.5655-5.932-4.3668-5.845-1.6318.114 3.55 7.42 6.1736 5.845 1.6318z" fill="#f7bdd1"/><path d="m189.19 43.2745c-2.32.9428-6.051 9.7544-2.062 11.1365 3.99 1.3821 6.551-12.9637 2.062-11.1365z" fill="#fff"/><path d="m165.669 49.6335c1.884 2.4246 7.202-3.1447 5.335-8.3125-1.866-5.1677-7.669 5.3096-5.335 8.3125z" fill="#fff"/><path d="m174.401 60.1202c-.692-.5477.101-1.439.983-1.4332 1.344.0088 3.272-.3519 5.751-1.7501 1.16-.3895.604 3.9019-3.195 4.1209-1.694.0976-2.811-.3611-3.539-.9376z" fill="#fff"/><path d="m177.987 66.3168c21.143-1.5188 31.036-.1865 25.78-17.5108-1.28-4.723-1.328-5.9851-3.525-8.1888-1.883-1.8889-10.933-4.4953-14.086-5.0624-1.159.8364 1.086-.9131 0 0 0 0 15.227 2.3315 18.213 5.5036 6.331 16.491 5.886 20.2609 4.783 22.9306-1.836 4.4443-16.775 5.0281-31.165 2.3278z" fill="#4081c6"/><path d="m202.228 58.0161c2.281-2.9699 9.795-3.3996 8.516.0891-1.662 4.5278-12.554 5.1685-8.516-.0891z" fill="#f7bdd1"/><g filter="url(#b)"><path d="m245.559 71.7837c-1.047 3.1105-14.994 31.4883-16.287 31.4883-1.085 0-11.095-5.5907-14.588-8.1457-.669-.4864-1.098-.8653-1.181-1.0701-.517-1.28 15.252-29.4407 16.286-30.4647.202-.1997.944-.0384 2.001.361 4.331 1.6359 13.976 7.2142 13.769 7.8312z" fill="#5e5872"/><path d="m231.79 63.9525-17.106 31.1738c-.669-.4864-1.098-.8653-1.181-1.0701-.517-1.28 15.252-29.4407 16.286-30.4647.202-.1997.944-.0384 2.001.361z" fill="#252041"/><g fill="#5b5571"><path d="m182.406 119.334c-9.232 0-18.864-3.261-25.045-10.96-1.603-1.996-2.234-4.116-1.869-6.3 1.013-6.0826 9.283-11.3537 15.322-15.2041 2.681-1.7101 4.997-3.1847 5.37-3.9834.118-.2535.129-.4788.033-.7066-.452-1.0675-3.12-2.0199-5.7-2.9415-3.157-1.1264-6.732-2.4039-8.252-4.4084-3.257-4.3009 1.618-9.6387 1.828-9.8639l.571.5197c-.046.0512-4.648 5.0919-1.779 8.8834 1.381 1.8227 4.842 3.0592 7.896 4.1473 2.988 1.0675 5.571 1.9891 6.152 3.3664.181.4276.166.873-.044 1.3236-.468 1.001-2.642 2.3885-5.653 4.3086-5.584 3.5585-14.022 8.9371-14.979 14.6819-.331 1.989.228 3.853 1.711 5.699 8.93 11.115 25.268 12.733 36.79 8.581 11.137-4.009 20.927-16.389 21.025-16.5149l.613.4709c-.098.126-10.023 12.68-21.372 16.766-3.828 1.38-8.177 2.135-12.618 2.135z"/><path d="m157.077 99.7881-.647-.425c6.337-9.4722 31.718-12.2037 42.555-13.3711 4.78-.5146 8.216-2.8775 10.214-7.0248 1.504-3.1233 1.404-6.4167 2.133-6.4167l.411.0154c-.411.3445-.585 12.8859-12.675 14.1864-9.806 1.0599-35.857 3.8657-41.991 13.0358z"/><path d="m216.093 96.0967c.254.2637-1.556 3.336-1.297 3.592.258.256 2.326 1.2803 2.326 1.2803l2.327-2.8165z"/></g><path d="m241.035 71.9118c-2.8-.5556-3.102 3.5843-1.034 4.0963 2.068.5121 4.912-3.3283 1.034-4.0963z" fill="#241c3e"/><path d="m240.947 72.7105c-1.706-.3379-1.889 2.1839-.63 2.4962 1.261.3124 2.993-2.0276.63-2.4962z" fill="#fff"/><path d="m219.191 58.7275c-1.805-.5248-3.932-.6605-5.171 1.7921-1.551 3.072 1.81 5.8881 1.81 5.8881s-5.507 6.6075-4.677 6.4002c.83-.2048 6.381-2.4551 9.072-5.1202 2.691-2.665 3.36-7.6801-1.034-8.9602z" fill="#292243"/></g><g filter="url(#c)"><path d="m235.787 88.0695c1.544-3.7017-2.851-12.1128-10.458-11.917-7.604.1959-11.027 8.7909-5.324 14.458 5.706 5.6647 12.931 4.2987 15.782-2.541z" fill="#d96490"/><path d="m225.752 77.9757c1.312-1.6689-6.67 2.3573-7.115 6.3647-.444 4.0074 5.781 9.1935 5.559 8.2506-.222-.943.445-13.2009 1.556-14.6153z" fill="#f1a3be"/></g><path d="m76.1381 82.7562c-5.9935-2.3367-12.5201 2.2366-10.6718 8.9435 1.8484 6.7069 9.0312 7.7223 12.9303 4.6735 3.899-3.0489 4.5142-10.977-2.2585-13.617z" fill="#00cdaf"/><path d="m73.2262 84.1859c1.914 7.5815-.6754 11.6593.1969 11.6566 1.9905-.0136 5.6571-1.5055 6.0919-5.1582.5468-4.603-6.5622-7.5815-6.2888-6.4984z" fill="#a0ebdf"/><path d="m37.7013 12.6899c-.2398 2.0137-.271 6.9231-.227 11.8162.0531 6.3178.227 12.6086.227 12.6086s-2.7465 5.1563-3.662 0c-.3589-2.0246-.5786-6.2283-.7105-10.5868-.205-6.7358-.4412-14.2668-.4412-14.2668.0165-.1465.2783.1384.3112 0 .4944-2.0408 2.7246-3.16432 3.8672-2.1846.5035.4288.7965 1.2674.6353 2.6134z" fill="#00cdaf"/><path d="m37.7011 11.8092c-.2398 1.025-.2709 3.5239-.227 6.0145-1.3147.3453-2.9534 1.4588-4.3504 1.7903-.2051-3.4285-.0001-7.8048-.0001-7.8048.0165-.0745.0421-.1478.0751-.2182l3.8671-1.112c.5035.2183.7965.6451.6353 1.3302z" fill="#00987f"/><path d="m32.3491 15.9144c4.4295.8421 12.851-.8123 12.0307-7.31073-.8203-6.49845-6.8356-8.123056-12.0307-4.87383-5.195 3.24922-7.109 10.83076 0 12.18456z" fill="#00cdaf"/><path d="m51.899 34.7019c1.6241-.3574-6.2888-13.5384-15.8586-10.56-9.5699 2.9785-9.023 14.6215-8.2027 17.0584.8202 2.4369 21.6005-5.9569 24.0613-6.4984z" fill="#00cdaf"/><path d="m37.6809 3.05322c-.8203 1.62472-2.7343 11.37298-1.6406 11.37298 1.6406 0 5.4685-2.437 6.0154-5.41568.5468-2.97865-4.3748-5.9573-4.3748-5.9573z" fill="#a0ebdf"/><path d="m39.0481 25.4956c-1.0937 3.5202-1.6925 7.0459-.9816 7.1786.7082.1326 9.9089-1.2213 9.1843-2.5752-2.4608-4.6034-8.2027-4.6034-8.2027-4.6034z" fill="#a0ebdf"/><path d="m5.95546 80.8796c-6.441879 1.3186-8.66208 13.1972-1.55579 17.1559 7.10633 3.9585 11.99243-2.8594 12.43803-8.578.443-5.7186-4.4431-9.8966-10.88224-8.5779z" fill="#00cdaf"/><path d="m8.42418 83.1027c1.64052 10.8307-1.09369 15.4338 0 14.8923 2.18742-1.0831 5.59972-2.4451 6.01532-7.5815.5469-6.7693-6.23406-8.754-6.01532-7.3108z" fill="#a0ebdf"/><path d="m20.3987 89.2166c-1.5402 3.3256 1.6546 16.6494 10.8167 20.5284 9.162 3.876 20.7943-1.962 26.1278-10.8092 2.215-3.6719-4.2803-9.2441-15.8099-11.4666-11.1951-2.158-19.0722-2.7056-21.1346 1.7474z" fill="#00cdaf"/><path d="m29.1089 91.0175c1.1921.6634 7.623 4.2026 18.9346 5.7678 11.3115 1.5651 5.2388-4.3489-4.2053-6.8266-11.1967-2.9353-21.9286-2.9434-14.7293 1.0588z" fill="#00987f"/><path d="m23.2579 91.9331c-.5468 2.9785.2735 10.2889 4.9217 13.8089s6.0153 1.896 6.0153 1.354c0-.541 3.2655-9.0729 1.6249-9.0729-6.1625 0-12.5619-6.09-12.5619-6.09z" fill="#a0ebdf"/><path d="m81.2429 64.5526c0 9.9192-14.3985 13.2592-38.2524 15.8569-18.3177 1.9949-25.8164-1.6389-27.1835-10.845s7.9293-27.8891 17.2257-34.9291c9.2965-7.04 18.046-7.8523 29.5299 0 1.4929 1.0208 2.9229 2.1959 4.2818 3.4821 9.0968 8.5833 14.3985 20.7676 14.3985 26.4351z" fill="#00cdaf"/><g filter="url(#d)"><path d="m81.2429 64.5528c-3.8744 1.8195-10.2862 3.8963-20.3209 5.5534-19.6865 3.2492-34.178 2.1662-36.9122 0-2.7343-2.1661 1.6405-16.2461 6.5621-24.0984 4.2627-6.8017 27.1893-8.7268 36.2725-7.8902 9.0968 8.5834 14.6506 21.1387 14.3985 26.4352z" fill="#7f56ba"/></g><path d="m28.1166 61.8636c.3081-5.1765 3.8515-15.2251 7.3179-19.4119-6.9328 1.5225-10.3992 14.8444-11.5547 19.4119s-3.8516 8.3738 5.0071 9.8963c7.0869 1.218 20.7985 0 28.8868-1.1419-22.7243 0-30.0423-2.2838-29.6571-8.7544z" fill="#51207c"/><path d="m49.3456 64.8229c-3.3644-1.1134-5.067-1.8391-4.4243-.3747.4901 1.1169 1.4787 2.8331 3.886 3.3197 2.4074.4867 4.2501-1.02 4.6503-2.2028.2911-.8603-.8882.004-4.112-.7422z" fill="#fff"/><path d="m39.5534 49.3956c-4.0478 2.7151-1.0693 8.0539 1.3347 8.6416 2.4041.5877 4.115-12.2986-1.3347-8.6416z" fill="#fff"/><path d="m60.0959 46.952c-4.0725 2.6785-1.143 8.0439 1.2556 8.6533s4.2274-12.2609-1.2556-8.6533z" fill="#fff"/><g filter="url(#e)"><path d="m45.3176 60.5426c-1.43-.0596-2.83-.8069-3.8471-2.4559-.1832-.2951-.3527-.6227-.5086-.9774-3.0022-6.8613 2.1902-12.7586 6.513-10.5058.7929.4142 1.5585 1.1047 2.2366 2.1119.5086.7582.8941 1.5055 1.1648 2.2366 2.0097 5.3504-1.873 9.7504-5.5587 9.5906z" fill="#f8fbfb" opacity=".6"/><path d="m68.228 56.7302c-1.3644.4901-2.8491.4034-4.1178-.4576-.8175-.5551-1.5448-1.4297-2.0944-2.6833-2.9967-6.8451 2.1655-12.7316 6.4829-10.5221.8039.4143 1.5804 1.1075 2.2667 2.1283.3199.4738.5878.9449.812 1.4079 2.316 4.7954-.1913 8.9977-3.3494 10.1268z" fill="#f8fbfb" opacity=".6"/><path d="m11.4321 60.3587c.1449-.2978.1723-.6255.2352-.9531.0601-.325.123-.6553.1996-.9884.1586-.6607.3773-1.3296.7163-1.9768.4266-.5848.9598-1.1291 1.6078-1.538.3226-.2031.6699-.3737 1.0335-.4928.3609-.1192.741-.2031 1.0746-.2492 1.3616-.2058 2.6741-.3005 4.0029-.4007 1.3234-.0948 2.6468-.1733 3.9674-.2437 2.644-.1408 5.2853-.2519 7.9266-.3494l3.9619-.1354c1.3288.1625 2.6549.3223 3.981.5579-1.3124.306-2.6248.5443-3.9373.7907l-3.9564.1381c-2.6358.0974-5.2744.2085-7.9047.3493-1.3152.0704-2.6304.1489-3.9401.241-1.3042.0975-2.6303.1977-3.8798.3872-.32.046-.5852.1083-.8504.195-.2652.0866-.5113.2085-.7464.3574-.4703.2925-.8777.7013-1.2058 1.1888-.4239.4224-.7984.9288-1.1512 1.473-.1804.2708-.3499.5524-.5222.8395-.0902.1408-.1805.2843-.2762.4251-.0957.1354-.1968.2843-.3363.3845z" fill="#e3ab72"/><path d="m51.4068 53.3324c-.0328-.2897-.0137-.5767.0164-.8638.0301-.2897.0902-.5713.1668-.8529.3281-.4441.6781-.8774 1.091-1.2619.8093-.7745 1.862-1.3837 3.0213-1.5949.5742-.1056 1.1648-.13 1.7363-.0623.5659.0731 1.1292.1922 1.6487.3899.268.0812.514.2058.7711.3114.1285.0542.246.1219.3691.1814.0601.0298.1203.065.1832.0894.0656.0217.134.0406.1804.0975.1805.2302.361.4468.525.6797.1559.241.3035.482.4375.7365-.2926-.0325-.566-.0812-.834-.1273l-.7929-.1083c-.216-.1002-.4211-.2274-.6398-.3222-.2187-.0867-.432-.1977-.6562-.2654-.8804-.3168-1.8019-.4414-2.6686-.2708-.8668.1571-1.6679.6093-2.3324 1.2429-.3308.3169-.6398.6689-.8968 1.0615-.432.2762-.8667.5849-1.3261.9396z" fill="#e3ab72"/><g fill="#eaf0f0"><path d="m50.8763 50.9518-5.5588 9.5906c-1.43-.0595-2.8299-.8069-3.847-2.4558l6.0044-11.4833c.7929.4142 1.5585 1.1047 2.2366 2.112.5085.7581.8941 1.5054 1.1648 2.2365z" opacity=".7"/><path d="m71.5773 46.6034-3.3494 10.1267c-1.3644.4901-2.8491.4035-4.1178-.4576l4.3885-13.2054c.8038.4143 1.5804 1.1075 2.2667 2.1283.3199.4738.5878.945.812 1.408z" opacity=".7"/></g></g><path d="m82.5461 39.7457c-1.0272.3726-1.0103 1.5038.0822 1.4831 1.3552-.0257 2.9828-.1499 4.8759-.4499 6.463-1.024 8.2653-5.3761 8.2653-5.3761s12.6675 1.024 18.6135-6.4002c5.946-7.4241 6.463-27.6486-18.355-26.11256-24.8176 1.53603-28.5247 12.55966-24.8176 22.78456 3.6193 9.9842 15.511 9.7282 15.511 9.7282.5631.0796.2502 2.7376-4.1753 4.3429z" fill="#7f56ba"/><g fill="#fff"><path d="m83.7225 18.9051c0 .5248-.0129 1.0522-.0388 1.5822-.0258.53-.0568 1.0574-.0956 1.5822-.0078.0947-.0129.2227-.0181.384-.0078.1613-.0181.3354-.0388.5223-.0181.1869-.0439.3764-.0776.5658-.031.1895-.0827.3636-.1499.5172-.0672.1562-.1525.2816-.2585.3789s-.2353.1485-.3878.1485c-.1344 0-.2533-.0282-.3593-.0845s-.1939-.1305-.2637-.2227-.1241-.1972-.1629-.3124c-.0388-.1177-.0568-.2381-.0568-.3661 0-.2099.0051-.4199.018-.6324.013-.2125.0311-.4224.0569-.6323l-.9487.0947c-.0181.1639-.0414.3635-.0621.594-.0232.2304-.0672.4531-.1344.6656s-.168.3943-.3025.5454c-.1344.151-.3205.2278-.5558.2278-.1473 0-.2688-.0333-.3645-.0998-.0956-.0666-.1732-.1511-.2301-.2561-.0568-.1049-.0982-.2201-.1241-.3456-.0258-.1254-.0387-.2458-.0387-.361 0-.3789.0155-.7578.0491-1.1342.031-.3763.0543-.7552.0672-1.1341.0129-.3994.0181-.7988.0155-1.2008-.0026-.4019.0026-.8065.0155-1.211.0052-.1331.0104-.2893.0155-.4659.0026-.1767.0259-.3431.0672-.4993.0414-.1561.1112-.2867.212-.3943.0983-.1075.2482-.1612.4473-.1612.274 0 .4834.0716.623.2125.1396.1433.2404.32.2973.5325s.0853.4378.0853.6733v.6401c0 .2534-.0078.5018-.0181.745-.0129.2432-.0259.489-.0388.7373l1.0263-.151c.0052-.3098.013-.617.0181-.9217.0052-.3047.0181-.6093.0388-.9114.0052-.146.0129-.2996.0181-.466.0052-.1638.031-.3175.0776-.4557.0439-.1383.1189-.256.2249-.3456.106-.0922.2637-.1383.4756-.1383.1784 0 .3232.0512.4369.1511.1112.1024.2017.2253.2689.3712s.1137.3021.1396.466c.0258.1638.0388.3123.0388.4454v.1204z"/><path d="m86.0155 20.9387v.279c0 .0973-.0026.192-.0103.2791-.0078.1075-.0104.2509-.0104.4327 0 .1817-.0077.3763-.0181.5837-.0129.2099-.0336.4224-.062.6375s-.075.4122-.1396.5888c-.0646.1767-.1499.3226-.2533.4327-.106.1101-.2379.169-.3982.1767-.1215.0051-.2249-.041-.3076-.1434s-.1525-.233-.2068-.3943-.0957-.343-.1189-.5427c-.0259-.1997-.044-.3918-.0569-.5787-.0129-.1868-.0181-.3584-.0181-.5171s0-.2765 0-.3508c0-.1024 0-.2458 0-.4326 0-.1869.0052-.3892.0181-.6043.0129-.215.0362-.4326.0724-.6554.0362-.2227.0853-.425.1525-.6093s.1551-.3328.2637-.4455c.1086-.1152.2456-.1715.4136-.1715.1732 0 .3025.0845.393.256s.1577.3712.2016.5991c.044.2278.0698.4557.0776.6784.0051.2279.0077.3943.0077.5019zm-.0775-3.2311c0 .0897-.0233.169-.0724.2381-.0491.0692-.1112.1306-.1861.1844-.0776.0537-.1603.0947-.2482.1229-.0905.0281-.1732.0435-.2482.0435-.1293 0-.2404-.0307-.3361-.0947-.0956-.064-.1448-.1613-.1448-.2945 0-.0947.0233-.1792.0724-.2509.0491-.0716.106-.1331.1784-.1817.0698-.0487.15-.0845.2404-.1101.0905-.0256.1758-.0384.2586-.0384.1215 0 .2326.0281.336.0845.1009.0588.15.1587.15.2969z"/><path d="m91.2453 24.6817c-.455 0-.8066-.0589-1.06-.1767-.2533-.1178-.442-.2842-.5661-.4992-.1241-.2151-.1991-.4762-.2249-.7783-.0259-.3047-.0388-.6427-.0388-1.0164 0-.297.0103-.5966.0284-.8987.0181-.2995.0492-.6221.0854-.9652-.0905 0-.1603.0026-.212.0051-.0517.0026-.0931.0051-.1241.0051-.2042 0-.3826-.0435-.5326-.1331-.1499-.0896-.2249-.2253-.2249-.4096 0-.1152.044-.2151.1293-.3047s.1965-.1638.3309-.2278c.1344-.0641.2792-.1153.4369-.1511.1577-.0384.305-.064.4472-.0768 0-.1767.0129-.3738.0388-.5889.0258-.215.0724-.4173.1396-.6042s.1577-.343.274-.4711c.1164-.1254.2611-.1894.4421-.1894.1034 0 .1939.0307.274.0896.0802.0614.1448.1357.1965.2279.0517.0921.0905.1945.1163.3097.0259.1153.0388.2253.0388.3329 0 .128-.0103.256-.0284.3891-.0181.1332-.0543.297-.106.4942.1085-.0129.1835-.0205.2197-.0231.0388-.0026.0724-.0051.106-.0051.1086 0 .2223.0102.3412.0282.119.0179.2275.0512.3258.0947.0982.0435.1809.1024.2456.1766.0646.0717.0956.1613.0956.2612 0 .1152-.0465.215-.1396.3046-.0931.0897-.2094.1639-.349.2279s-.2921.1127-.4498.1485c-.1603.0358-.3102.0589-.4498.0717-.0388.2586-.0647.4992-.0827.7168-.0156.2177-.0337.4378-.0517.6606-.013.1075-.0233.2176-.0337.3277-.0103.1101-.0155.2227-.0155.3379 0 .082.0026.1793.0104.2894.0051.11.0284.2176.0672.3174.0388.1024.0982.1895.1835.2612.0828.0717.1991.1101.3464.1101.0905 0 .1836-.0077.2792-.0231.0957-.0154.1913-.023.287-.023.1654 0 .2869.0563.3593.1715s.1112.2586.1112.4378c0 .1331-.0414.2483-.1189.3456-.0802.0973-.181.1767-.3025.2381-.1215.0589-.2585.105-.4084.1383-.1603.0307-.3025.0461-.4369.0461z"/><path d="m97.049 21.8783c0 .1075-.0026.2688-.0052.4788-.0026.2125-.0129.4327-.0284.6656-.0156.2305-.0362.4506-.0621.6555-.0258.2048-.0569.3558-.0956.4506-.0517.1203-.119.2253-.2017.3123-.0827.0896-.1939.1331-.3361.1331-.2171 0-.3748-.0844-.4705-.256-.0956-.1715-.1602-.384-.1913-.6375-.031-.2534-.0439-.5299-.0387-.8269.0051-.297.0025-.5735-.0104-.827s-.0491-.466-.106-.6375-.1628-.256-.3154-.256c-.212 0-.3722.0333-.4834.0998-.1112.0666-.1913.1537-.2404.2612s-.0776.2304-.0853.3712c-.0104.1383-.0207.2842-.0336.4378-.013.146-.0233.3431-.0285.5889-.0077.2458-.0362.4915-.0853.7322-.0517.2407-.137.448-.2533.6221-.119.1741-.2922.2612-.5222.2612-.1396 0-.2534-.0538-.3413-.1613-.0879-.1076-.1551-.2458-.2068-.4173-.0517-.1716-.0879-.361-.1112-.571-.0232-.2099-.0362-.4122-.0387-.6119-.0026-.1997-.0026-.3814 0-.5453.0025-.1638.0051-.2893.0051-.3712 0-.1255.0052-.3354.0155-.6273.0104-.2918.0311-.617.0621-.9729.031-.3584.0724-.7271.1241-1.106s.1189-.7271.2016-1.0394c.0827-.3124.1836-.5684.3025-.7655.1189-.1972.2585-.2919.4162-.2842.1034.0051.1913.0512.2637.1331s.1344.1895.1835.3175c.0492.1305.0879.2714.119.4224.031.1511.0568.3021.0723.4506s.0259.2868.0285.4122c.0026.128.0051.2253.0051.2944 0 .1639-.0025.3303-.0103.4942-.0077.1638-.0155.3302-.0284.4941.1473-.1972.3438-.3585.5894-.4839.2456-.1255.4938-.1895.7445-.1895.3206 0 .561.0871.7239.2612.1628.1741.2792.3891.349.6452.0698.256.1085.5299.1163.8167.0026.2893.0078.5479.0078.7757z"/><path d="m101.749 22.6491c0 .215-.07.425-.207.6323-.137.2049-.31.3892-.517.5505s-.429.2919-.667.3892c-.238.0972-.4549.1484-.6514.1484-.3386 0-.6411-.0844-.9074-.2509-.2662-.1689-.4885-.3814-.6669-.64s-.3154-.5453-.4085-.8602c-.093-.3124-.1396-.6196-.1396-.9166 0-.3175.044-.6554.1344-1.0164.0905-.361.225-.6938.4085-.9985.1836-.3047.4136-.5581.6902-.7604.2792-.2023.6102-.3047.9928-.3047.2169 0 .4239.0359.6229.1101.199.0717.37.1767.517.3098s.266.2919.354.4762c.091.1843.135.3892.135.617 0 .297-.065.5761-.192.8372-.129.2586-.297.4839-.509.6734-.212.1894-.455.343-.729.4608-.2739.1178-.5557.1818-.8452.1946.0258.1843.1008.3175.2249.3994s.274.1229.4472.1229c.1267 0 .2531-.0308.3751-.0948.121-.064.24-.1357.354-.2125.116-.0793.227-.151.341-.2125.111-.064.225-.0947.341-.0947.127 0 .243.041.347.1229.103.0768.155.1843.155.3175zm-1.554-2.3298c0-.082-.023-.169-.067-.2561-.044-.0896-.116-.1331-.212-.1331-.1396 0-.2585.0359-.3541.1101-.0957.0717-.1758.1639-.2404.2765-.0647.1101-.1138.2304-.15.3559-.0362.128-.0569.2432-.062.3507.0904-.0179.1964-.0435.3205-.0768.1241-.0307.243-.0742.3542-.128s.2068-.1229.2868-.2048c.083-.0819.124-.1792.124-.2944z"/><path d="m105.461 20.785c-.09.0051-.165-.0026-.23-.023-.064-.0231-.129-.0461-.191-.0717-.057-.0256-.116-.0487-.173-.0717-.057-.0231-.122-.0307-.192-.0231-.129.0052-.24.041-.341.105-.098.064-.189.1434-.269.2381s-.15.2023-.207.3175c-.056.1178-.103.233-.134.3456-.018.0768-.034.192-.044.3456-.01.1562-.015.3226-.015.4993-.008.1843-.011.3584-.011.5223 0 .1638-.008.2944-.018.3891-.008.1024-.023.2202-.049.3559s-.065.2637-.119.384c-.054.1204-.127.2228-.214.3047-.091.0819-.205.1229-.347.1229-.108 0-.204-.0307-.282-.0947-.08-.064-.147-.1485-.201-.2509-.055-.105-.099-.2253-.135-.3661-.036-.1383-.062-.2817-.082-.4276-.019-.1511-.034-.3047-.044-.4557-.011-.1511-.016-.297-.019-.4327-.002-.1357-.002-.2611 0-.3764.003-.1152.006-.2048.006-.2765-.008-.2227-.018-.4454-.034-.6707-.015-.2253-.023-.4481-.023-.6708 0-.1383.005-.2944.018-.466.013-.1715.049-.3303.106-.4787.057-.1485.142-.274.253-.3764s.266-.1511.466-.1511c.108 0 .201.0359.279.105.077.0691.139.1562.186.256.049.1025.085.21.111.3226.026.1152.041.2176.049.3124.153-.2458.326-.4481.517-.6042.191-.1562.442-.2381.747-.2509.153-.0052.305.0076.455.0435.15.0358.287.0922.414.1715.124.0794.227.1818.308.3098.08.128.124.2765.129.4455.013.2022-.049.3584-.184.466-.129.1152-.294.1715-.486.1766z"/><path d="m110.298 22.6491c0 .215-.07.425-.207.6323-.137.2049-.31.3892-.517.5505s-.429.2919-.667.3892c-.238.0972-.455.1484-.651.1484-.339 0-.641-.0844-.908-.2509-.266-.1689-.488-.3814-.667-.64-.178-.2586-.315-.5453-.408-.8602-.093-.3124-.14-.6196-.14-.9166 0-.3175.044-.6554.135-1.0164.09-.361.225-.6938.408-.9985.184-.3047.414-.5581.69-.7604.28-.2023.611-.3047.993-.3047.217 0 .424.0359.623.1101.199.0717.37.1767.517.3098.148.1331.266.2919.354.4762.091.1843.135.3892.135.617 0 .297-.065.5761-.192.8372-.129.2586-.297.4839-.509.6734-.212.1894-.455.343-.729.4608s-.556.1818-.845.1946c.026.1843.101.3175.225.3994s.274.1229.447.1229c.127 0 .253-.0308.375-.0948.121-.064.24-.1357.354-.2125.116-.0793.227-.151.341-.2125.111-.064.225-.0947.341-.0947.127 0 .243.041.347.1229.103.0768.155.1843.155.3175zm-1.556-2.3298c0-.082-.024-.169-.067-.2561-.044-.0896-.117-.1331-.212-.1331-.14 0-.259.0359-.355.1101-.095.0717-.175.1639-.24.2765-.065.1101-.114.2304-.15.3559-.036.128-.057.2432-.062.3507.09-.0179.196-.0435.321-.0768.124-.0307.243-.0742.354-.128s.207-.1229.287-.2048c.085-.0819.124-.1792.124-.2944z"/><path d="m112.475 20.3577c0 .1025-.008.2381-.018.4122-.013.1741-.031.361-.057.5607s-.062.402-.111.6094c-.049.2048-.104.3917-.168.5607-.065.1689-.14.3046-.23.4096-.091.105-.192.1562-.308.1562-.14 0-.261-.0692-.359-.2049-.099-.1356-.184-.3097-.249-.5222-.067-.2125-.119-.4481-.157-.7067-.039-.2585-.068-.5146-.086-.7655s-.031-.4813-.033-.6938c-.003-.2125-.005-.3763-.005-.489 0-.1126 0-.2586 0-.4327s.007-.3584.023-.5555c.015-.1972.041-.3918.077-.5838.037-.192.088-.3687.158-.5274s.163-.2867.279-.384c.117-.0973.259-.1485.432-.1485.153 0 .279.064.38.1946.098.1305.178.297.24.5043.06.2048.106.4353.135.6887.028.2535.049.5018.057.7451.01.2432.013.471.01.6784-.008.21-.01.3738-.01.4941zm-.184 3.61c0 .1075-.026.2022-.077.279-.052.0794-.119.146-.202.1997-.083.0538-.173.0922-.269.1178-.095.0256-.191.0384-.287.0384-.139 0-.274-.0358-.403-.1101-.129-.0717-.191-.1894-.191-.3456 0-.0947.026-.1818.082-.2612.055-.0793.124-.1485.207-.2048s.173-.1024.274-.1331c.098-.0307.194-.0487.282-.0487.147 0 .282.0359.403.1101.122.0768.181.1946.181.3585z"/></g></svg>
