<svg  viewBox="0 0 133 140" fill="none" xmlns="http://www.w3.org/2000/svg">
  <path d="M75.6245 115.995C81.1399 114.425 88.6151 120.781 88.8324 126.654C89.0497 132.528 82.769 138.397 76.2746 137.529C69.7802 136.661 65.4482 132.698 65.8811 126.74C66.3139 120.783 71.3892 117.208 75.6245 115.995Z" fill="#3EB79A"/>
  <path d="M19.5471 10.7134L24.0947 21.8069L27.7747 20.5023L23.6618 8.75562L19.5471 10.7134Z" fill="#3EB79A"/>
  <path d="M51.044 31.1994C51.044 31.1994 41.633 14.6619 29.0752 18.5774C21.2001 21.0325 17.5986 27.0178 17.5986 32.4655C17.5986 38.1205 19.5473 40.5131 19.5473 40.5131L51.044 31.1994Z" fill="#49CEB1"/>
  <path d="M28.6424 32.0307C22.7251 34.2197 5.26553 46.6894 0.721655 72.1058C-3.76378 97.1772 13.9186 97.0708 19.1163 97.5056C24.314 97.9405 52.1106 100.41 67.0425 95.3295C83.662 89.6745 91.864 80.9736 91.6485 76.8397C91.433 72.7058 85.5851 50.3022 68.2717 38.9922C50.9582 27.6821 36.8681 28.9849 28.6424 32.0307Z" fill="#49CEB1"/>
  <path d="M17.5986 0.48956C15.0418 1.40699 10.4449 9.32255 16.0846 12.6712C21.7243 16.0198 26.4763 12.4528 27.773 8.75558C29.0697 5.05834 24.3121 -1.90309 17.5986 0.48956Z" fill="#49CEB1"/>
  <path d="M24.0949 110.992C24.2282 112.781 24.0949 123.821 34.3222 134.049C41.6914 141.417 58.9538 141.88 67.0407 135.79C76.5193 128.65 81.686 114.038 79.5218 110.773C77.7904 108.164 54.8391 105.337 43.589 105.553C32.3389 105.77 23.9232 108.7 24.0949 110.992Z" fill="#49CEB1"/>
  <path d="M34.322 111.427C35.6899 111.759 45.5301 113.601 54.1905 114.472C62.8509 115.344 73.46 112.087 72.1597 111.427C70.8593 110.766 58.0861 108.816 49.433 108.599C40.7799 108.383 31.0694 110.638 34.322 111.427Z" fill="#3EB79A"/>
  <path d="M19.1163 100.328C10.2404 101.416 5.04456 109.028 10.2404 117.729C15.4363 126.43 28.8415 124.384 31.8914 120.34C37.3028 113.172 31.3819 98.8303 19.1163 100.328Z" fill="#49CEB1"/>
  <path d="M90.3428 18.9794C90.0597 20.9647 95.9715 24.6344 98.5613 25.7225C101.151 26.8105 105.49 26.3757 105.708 25.7225C105.925 25.0693 106.573 19.8509 107.872 20.0675C109.17 20.284 112.852 19.6326 113.935 18.9794C115.018 18.3262 116.75 21.5996 116.965 22.6821C117.181 23.7647 114.801 27.0271 115.234 28.1151C115.667 29.2032 108.971 26.1573 106.802 30.9426C105.72 33.3279 103.584 33.9078 102.471 34.4289C99.184 35.9518 95.7597 43.7866 99.4415 44.4343C100.994 44.7095 106.802 48.5682 107.885 49.438C108.968 50.3077 110.699 47.915 110.916 45.9517C111.134 43.9884 114.841 42.9077 116.992 43.1242C119.144 43.3407 122.391 37.6857 123.474 37.4692C124.557 37.2527 127.587 35.3922 128.887 34.2545C130.188 33.1169 131.002 28.9848 131.028 28.3335C131.053 27.6821 133 24.8473 133 23.1115C133 16.8033 127.804 14.0473 127.804 12.6712C127.804 8.75558 121.96 3.81615 116.978 4.48954C110.916 2.31341 107.664 6.14091 106.802 5.70972C105.94 5.27853 102.039 3.32441 99.8744 5.49688C97.7102 7.66935 96.1925 12.6712 95.3268 12.6712C94.4612 12.6712 90.7811 15.9335 90.3428 18.9794Z" fill="#FFD0C6"/>
  <path d="M93.8125 49.616C93.1824 50.7004 89.4896 57.0453 91.652 58.3517C93.8143 59.6581 97.277 60.737 97.9272 60.526C98.5774 60.315 100.742 60.1462 100.957 60.5536C101.173 60.9609 102.257 62.9187 104.206 62.7022C106.155 62.4857 106.155 57.9169 107.02 57.2637C107.886 56.6104 107.02 54.0013 107.02 53.1297C107.02 52.2582 99.9983 51.6086 99.1782 50.9554C98.3582 50.3022 95.4306 46.8307 93.8125 49.616Z" fill="#FFD0C6"/>
  <path d="M16.3001 51.6086C15.3869 54.293 12.83 81.4085 16.3001 82.7131C19.7701 84.0176 43.7971 83.3663 58.7364 79.8856C73.6756 76.4048 82.7689 69.0104 83.6346 66.3994C84.5002 63.7884 67.6141 40.7316 64.5915 39.2087C61.569 37.6858 53.3323 37.9041 41.2147 40.5133C29.0971 43.1224 16.7219 50.3609 16.3001 51.6086Z" fill="#6740A0"/>
  <path d="M29.384 55.6342C28.4854 59.0562 27.9905 61.3626 27.775 63.8342C27.6526 65.247 33.9023 61.8966 35.5697 63.8342C36.9632 65.4525 37.7174 59.9369 36.0025 55.6342C33.9096 50.359 30.5765 51.1003 29.384 55.6342Z" fill="white"/>
  <path d="M61.4285 47.4472C60.6669 48.249 64.4602 63.1444 68.9 62.7095C73.3397 62.2746 66.8417 41.7573 61.4285 47.4472Z" fill="white"/>
  <path d="M20.6941 101.698C21.9287 103.265 23.4336 111.306 24.3065 113.867C25.1795 116.428 23.6619 122.772 23.6619 122.772C23.6619 122.772 31.347 118.184 29.3983 111.601C27.4496 105.018 20.6941 101.698 20.6941 101.698Z" fill="#BAECE1"/>
  <path d="M32.3259 31.9921C34.8517 31.6251 43.6893 29.7022 43.6893 29.7022C43.6893 29.7022 37.3282 20.4894 32.3259 19.849V31.9921Z" fill="#BAECE1"/>
  <path d="M47.2617 43.3279C56.8097 41.0564 63.4301 41.2894 67.448 41.9555C66.1587 40.4876 65.1377 39.4876 64.5825 39.2032C61.5509 37.6803 53.3233 37.8986 41.2057 40.5078C29.0881 43.1169 16.733 50.3554 16.3057 51.6031C15.3925 54.2875 12.8357 81.403 16.3057 82.7076C17.2955 83.0745 19.9583 83.2929 23.6109 83.3259C23.3936 76.9939 22.6284 52.6215 23.6639 51.9499C24.8528 51.1719 29.941 47.4454 47.2617 43.3279Z" fill="#431E78"/>
  <path d="M120.66 18.9794C119.359 17.783 115.787 17.5647 113.948 18.9794C115.029 18.3262 116.762 21.5995 116.978 22.6821C117.193 23.7647 114.814 27.027 115.246 28.1151C115.679 29.2032 108.971 26.1573 106.801 30.9426C105.72 33.3279 103.583 33.9077 102.471 34.4288C99.1839 35.9518 95.7596 43.7866 99.4414 44.4343C100.103 44.5517 101.54 45.3224 103.054 46.2325C103.912 44.9994 104.902 43.6637 105.395 43.3334C106.369 42.6655 108.967 37.8013 109.941 36.6802C110.914 35.5591 115.139 34.2105 116.437 34.7701C117.736 35.3298 120.009 31.9279 120.334 29.9114C120.66 27.8949 122.283 26.0582 122.932 25.0032C123.58 23.9482 121.958 20.1757 120.66 18.9794Z" fill="#FFA08C"/>
  <path d="M99.1765 50.9554C98.3583 50.3022 95.4308 46.8307 93.8108 49.616C93.1807 50.7004 89.4879 57.0453 91.6503 58.3517C93.8126 59.6581 97.2753 60.737 97.9255 60.526C97.9748 60.5095 98.0333 60.4948 98.1081 60.4783C98.2104 59.5187 98.3547 58.4361 98.5592 57.337C99.0432 54.7132 99.8925 52.6857 100.751 51.449C99.9765 51.282 99.3811 51.1187 99.1765 50.9554Z" fill="#FFA08C"/>
  <path d="M62.2011 117.419C62.2011 119.377 62.6266 129.529 61.3317 131.247C60.0369 132.964 58.3037 136.3 59.1694 136.474C60.0351 136.649 65.1871 132.762 68.6955 129.34C72.2696 125.854 72.2878 119.432 72.2696 116.599C72.2623 115.788 62.2011 117.419 62.2011 117.419Z" fill="#BAECE1"/>
</svg>
