<svg width="7" height="14" viewBox="0 0 7 14" xmlns="http://www.w3.org/2000/svg">
<path d="M2.82245 0.109828L0.113605 2.74998C-0.0375426 2.89642 -0.0375427 3.13386 0.113605 3.2803L0.3416 3.50126C0.492747 3.6477 0.737768 3.6477 0.888883 3.50126L2.54786 1.87851L2.54786 13.625C2.54786 13.8321 2.72113 14 2.93484 14H3.25732C3.47103 14 3.6443 13.8321 3.6443 13.625L3.6443 1.87851L5.30331 3.50127C5.45446 3.6477 5.69948 3.6477 5.85059 3.50127L6.07859 3.2803C6.2297 3.13386 6.2297 2.89642 6.07859 2.74998L3.36974 0.109828C3.21859 -0.0366094 2.97357 -0.0366094 2.82245 0.109828Z" />
</svg>
