<svg width="26" height="26" viewBox="0 0 26 26" fill="none" xmlns="http://www.w3.org/2000/svg">
<rect x="0.5" y="0.5" width="25" height="25" rx="4.5" stroke="#EB5757"/>
<path d="M13 6C16.8669 6 20 9.13306 20 13C20 16.8669 16.8669 20 13 20C9.13306 20 6 16.8669 6 13C6 9.13306 9.13306 6 13 6ZM13 18.6452C16.119 18.6452 18.6452 16.119 18.6452 13C18.6452 9.88105 16.119 7.35484 13 7.35484C9.88105 7.35484 7.35484 9.88105 7.35484 13C7.35484 16.119 9.88105 18.6452 13 18.6452ZM10.1266 11.2444L11.8823 13L10.1266 14.7556C9.99395 14.8883 9.99395 15.1028 10.1266 15.2355L10.7645 15.8734C10.8972 16.006 11.1117 16.006 11.2444 15.8734L13 14.1177L14.7556 15.8734C14.8883 16.006 15.1028 16.006 15.2355 15.8734L15.8734 15.2355C16.006 15.1028 16.006 14.8883 15.8734 14.7556L14.1177 13L15.8734 11.2444C16.006 11.1117 16.006 10.8972 15.8734 10.7645L15.2355 10.1266C15.1028 9.99395 14.8883 9.99395 14.7556 10.1266L13 11.8823L11.2444 10.1266C11.1117 9.99395 10.8972 9.99395 10.7645 10.1266L10.1266 10.7645C9.99395 10.8972 9.99395 11.1117 10.1266 11.2444Z" fill="#EB5757"/>
</svg>
