<svg width="26" height="26" viewBox="0 0 26 26" fill="none" xmlns="http://www.w3.org/2000/svg">
<rect x="0.5" y="0.5" width="25" height="25" rx="4.5" stroke="#49CEB1"/>
<path d="M17.2737 11.4162H10.7115V9.57768C10.7052 9.292 10.7597 9.00802 10.8719 8.74237C10.9841 8.47672 11.1517 8.23474 11.3648 8.03062C11.5779 7.82649 11.8323 7.66433 12.1131 7.55362C12.3939 7.44291 12.6954 7.38588 13 7.38588C13.3046 7.38588 13.6061 7.44291 13.8869 7.55362C14.1677 7.66433 14.4221 7.82649 14.6352 8.03062C14.8483 8.23474 15.0159 8.47672 15.1281 8.74237C15.2403 9.00802 15.2948 9.292 15.2885 9.57768C15.2956 9.76297 15.379 9.93846 15.5213 10.0672C15.6635 10.1959 15.8534 10.2679 16.051 10.2679C16.2487 10.2679 16.4386 10.1959 16.5808 10.0672C16.7231 9.93846 16.8065 9.76297 16.8136 9.57768C16.8136 8.62882 16.4118 7.71882 15.6966 7.04788C14.9814 6.37693 14.0114 6 13 6C11.9886 6 11.0186 6.37693 10.3034 7.04788C9.58822 7.71882 9.18644 8.62882 9.18644 9.57768V11.4107H8.72629C8.26861 11.4112 7.82982 11.582 7.50619 11.8856C7.18256 12.1892 7.00052 12.6009 7 13.0302V18.3782C7.00052 18.8076 7.18256 19.2192 7.50619 19.5228C7.82982 19.8264 8.26861 19.9972 8.72629 19.9977H17.2737C17.7314 19.9972 18.1702 19.8264 18.4938 19.5228C18.8174 19.2192 18.9995 18.8076 19 18.3782V13.0357C18.9995 12.6064 18.8174 12.1947 18.4938 11.8911C18.1702 11.5875 17.7314 11.4167 17.2737 11.4162Z" fill="#49CEB1"/>
<path d="M14.4289 14.7686C14.4293 14.5302 14.3621 14.296 14.234 14.0902C14.1059 13.8843 13.9216 13.7142 13.7001 13.5974C13.4786 13.4805 13.2279 13.4212 12.9739 13.4255C12.7198 13.4298 12.4716 13.4975 12.2547 13.6218C12.0379 13.746 11.8602 13.9222 11.7401 14.1323C11.62 14.3423 11.5617 14.5786 11.5713 14.8168C11.5809 15.055 11.658 15.2865 11.7947 15.4875C11.9314 15.6884 12.1227 15.8516 12.3489 15.9601C12.3419 15.9954 12.3383 16.0313 12.3382 16.0673V17.0113C12.3382 17.1759 12.4079 17.3337 12.5319 17.4501C12.656 17.5664 12.8242 17.6318 12.9996 17.6318C13.0865 17.6319 13.1727 17.616 13.253 17.5849C13.3334 17.5537 13.4064 17.508 13.4679 17.4504C13.5294 17.3928 13.5782 17.3243 13.6115 17.249C13.6448 17.1737 13.662 17.0929 13.662 17.0113V16.0682C13.6619 16.0322 13.6583 15.9963 13.6512 15.961C13.8853 15.8486 14.0817 15.6778 14.2189 15.4675C14.3562 15.2571 14.4288 15.0152 14.4289 14.7686Z" fill="white"/>
</svg>
