<svg width="26" height="26" viewBox="0 0 26 26" fill="none" xmlns="http://www.w3.org/2000/svg">
<rect x="0.5" y="0.5" width="25" height="25" rx="4.5" />
<path d="M12.4501 15.5C12.1943 15.5 11.9797 15.3068 11.9529 15.0523L11.0581 6.55234C11.0271 6.25712 11.2585 6 11.5554 6H14.4446C14.7415 6 14.9729 6.25712 14.9419 6.55234L14.0471 15.0523C14.0203 15.3068 13.8057 15.5 13.5499 15.5H12.4501Z" />
<path d="M11.9194 17.4355C11.6398 17.7258 11.5 18.0806 11.5 18.5C11.5 18.9301 11.6398 19.2903 11.9194 19.5806C12.2097 19.8602 12.5753 20 13.0161 20C13.4355 20 13.7849 19.8602 14.0645 19.5806C14.3548 19.2903 14.5 18.9301 14.5 18.5C14.5 18.0806 14.3548 17.7258 14.0645 17.4355C13.7849 17.1452 13.4355 17 13.0161 17C12.5753 17 12.2097 17.1452 11.9194 17.4355Z" />
</svg>
