<svg width="26" height="26" viewBox="0 0 26 26" fill="none" xmlns="http://www.w3.org/2000/svg">
<rect x="0.5" y="0.5" width="25" height="25" rx="4.5" stroke="#FFA08C"/>
<path d="M13 6C9.134 6 6 9.134 6 13C6 16.866 9.134 20 13 20C16.866 20 20 16.866 20 13C20 9.134 16.866 6 13 6ZM16.9917 9.00828C19.0572 11.0737 19.1665 14.295 17.4423 16.4843L9.51569 8.55768C11.7057 6.83294 14.9268 6.94336 16.9917 9.00828ZM9.00828 16.9917C6.94283 14.9263 6.83348 11.705 8.55768 9.51569L16.4843 17.4423C14.2943 19.1671 11.0732 19.0566 9.00828 16.9917Z" fill="#FFA08C"/>
</svg>
