<svg fill="none" height="26" viewBox="0 0 26 26" width="26" xmlns="http://www.w3.org/2000/svg"><rect height="25" rx="4.5" stroke="#49ceb1" width="25" x=".5" y=".5"/><path d="m19.4424 8.01318-1.4727-1.47216c-.7213-.7213-1.8888-.72141-2.6103-.00003l-8.67827 8.62161-.67214 4.0741c-.07314.4434.31085.8274.75433.7543l4.07408-.6721 8.6222-8.6783c.72-.72003.7268-1.88345-.0172-2.62742zm-10.14354 6.24462 4.65554-4.62532 2.4131 2.41312-4.6253 4.6555v-1.1308h-1.3125v-1.3125zm-1.05307 4.2692-.77281-.7728.33195-2.0121.50313-.4999h1.13725v1.3125h1.31249v1.1372l-.4999.5032zm10.36291-8.73719-.0014.0014-.0014.00139-1.3133 1.3219-2.4071-2.40706 1.3219-1.31332.0014-.00137.0013-.00137c.2501-.25008.6557-.25317.9088-.00002l1.4726 1.47257c.2701.27007.2718.67126.0172.92588z" fill="#49ceb1"/></svg>
