<svg width="15" height="14" viewBox="0 0 15 14"  xmlns="http://www.w3.org/2000/svg">
<path d="M7.92427 2.74998L10.6331 0.109828C10.7842 -0.0366094 11.0293 -0.0366094 11.1804 0.109828L13.8893 2.74998C14.0404 2.89642 14.0404 3.13386 13.8893 3.2803L13.6613 3.50126C13.5101 3.6477 13.2651 3.6477 13.114 3.50126L11.455 1.87851L11.455 13.625C11.455 13.8321 11.2817 14 11.068 14H10.7455C10.5318 14 10.3585 13.8321 10.3585 13.625L10.3585 1.87851L8.69955 3.50126C8.54844 3.6477 8.30342 3.6477 8.15227 3.50126L7.92427 3.2803C7.77313 3.13386 7.77313 2.89642 7.92427 2.74998Z" />
<path d="M3.36947 13.8902L6.07832 11.25C6.22947 11.1036 6.22947 10.8661 6.07832 10.7197L5.85033 10.4987C5.69918 10.3523 5.45416 10.3523 5.30304 10.4987L3.64406 12.1215V0.375C3.64406 0.167906 3.47079 0 3.25709 0H2.9346C2.72089 0 2.54763 0.167906 2.54763 0.375V12.1215L0.888616 10.4987C0.737468 10.3523 0.492446 10.3523 0.341331 10.4987L0.113336 10.7197C-0.0377788 10.8661 -0.0377788 11.1036 0.113336 11.25L2.82219 13.8902C2.97333 14.0366 3.21836 14.0366 3.36947 13.8902Z" />
</svg>
