<svg width="15" height="14" viewBox="0 0 15 14"  xmlns="http://www.w3.org/2000/svg">
<path d="M7.68435 0.111134L8.30307 0.737078C8.44951 0.885226 8.44951 1.12544 8.30307 1.27362L3.45526 6.17801H14.125C14.3321 6.17801 14.5 6.34787 14.5 6.55739V7.4426C14.5 7.65212 14.3321 7.82198 14.125 7.82198H3.45526L8.30307 12.7264C8.44951 12.8746 8.44951 13.1148 8.30307 13.2629L7.68435 13.8889C7.53791 14.037 7.30048 14.037 7.15401 13.8889L0.609828 7.26828C0.46339 7.12013 0.46339 6.87992 0.609828 6.73174L7.15404 0.111134C7.30048 -0.0370448 7.53791 -0.0370448 7.68435 0.111134Z" />
</svg>
