<svg width="26" height="26" viewBox="0 0 26 26" fill="none" xmlns="http://www.w3.org/2000/svg">
<rect x="0.5" y="0.5" width="25" height="25" rx="4.5" stroke="#FFA08C"/>
<path d="M16.5325 7.84375L15.5762 6.18262C15.3316 5.75781 14.8928 5.5 14.4175 5.5H11.5825C11.1072 5.5 10.6684 5.75781 10.4237 6.18262L9.4675 7.84375H6.925C6.55094 7.84375 6.25 8.15723 6.25 8.54688V8.89844C6.25 9.0918 6.40188 9.25 6.5875 9.25H7.04875L7.9375 19.2227C8.00219 19.9463 8.58437 20.5 9.28187 20.5H16.7209C17.4184 20.5 18.0006 19.9463 18.0653 19.2227L18.9512 9.25H19.4125C19.5981 9.25 19.75 9.0918 19.75 8.89844V8.54688C19.75 8.15723 19.4491 7.84375 19.075 7.84375H16.5325ZM11.5825 6.90625H14.4175L14.9575 7.84375H11.0425L11.5825 6.90625ZM16.7181 19.0938H9.28187L8.40437 9.25H17.5928L16.7181 19.0938Z" fill="#FFA08C"/>
</svg>
