<svg  viewBox="0 0 146 200" fill="none" xmlns="http://www.w3.org/2000/svg">
<path d="M50.0278 151.935C50.0278 161.126 53.2167 167.473 62.7901 177.041C71.4684 185.714 91.7164 188.547 106.182 179.592C117.513 172.576 121.673 154.607 119.845 151.935C118.018 149.262 108.148 145.253 83.6572 144.919C59.1662 144.585 50.0278 148.26 50.0278 151.935Z" fill="#49CEB1"/>
<path d="M57.6769 150.855C62.5861 152.077 78.147 152.859 92.4029 152.859C106.659 152.859 116.528 151.523 113.97 150.855C111.411 150.186 95.8755 147.013 79.0608 147.013C66.6253 147.013 53.656 149.852 57.6769 150.855Z" fill="#369E83"/>
<path d="M72.317 159.874C72.6825 168.894 81.4554 182.257 80.3588 181.589C75.8981 178.719 71.846 175.352 68.2961 171.567C62.3817 165.159 60.3383 157.405 60.9853 156.867C60.9853 156.867 72.1671 156.186 72.317 159.874Z" fill="#BAECE1"/>
<path d="M124.793 174.49C117.62 174.49 108.596 183.869 113.907 193.517C119.218 203.165 137.008 201.571 138.601 189.495C140.193 177.419 134.087 174.49 124.793 174.49Z" fill="#49CEB1"/>
<path d="M127.848 178.108C129.174 185.88 124.015 198.883 127.317 197.401C132.095 195.259 134.609 192.317 134.752 188.558C135.016 181.592 127.082 173.619 127.848 178.108Z" fill="#BAECE1"/>
<path d="M37.3141 162.247C30.6576 162.115 20.7293 169.777 25.9808 180.935C31.2324 192.092 43.9492 188.468 48.3706 182.887C52.792 177.305 51.4115 162.523 37.3141 162.247Z" fill="#49CEB1"/>
<path d="M36.6926 184.982C34.4545 184.703 25.8732 180.8 26.2472 175.221C26.6212 169.642 37.6565 162.333 36.3185 165.736C32.5874 175.218 38.9306 185.259 36.6926 184.982Z" fill="#BAECE1"/>
<path d="M89.3127 0C80.6367 0 77.1663 7.46387 81.5043 14.3058C85.8423 21.1476 97.6793 20.367 99.724 16.1717C102.905 9.64083 100.881 0 89.3127 0Z" fill="#49CEB1"/>
<path d="M78.5171 35.567C78.5171 35.567 83.2324 18.345 85.1255 15.1557C87.0185 11.9664 89.55 11.6475 90.1821 14.5179C90.8142 17.3882 87.0533 35.567 87.0533 35.567H78.5171Z" fill="#3EB79A"/>
<path d="M100.624 48.6363C99.0433 44.8092 96.9006 35.1521 88.9649 31.6886C81.0291 28.225 75.0244 30.7764 71.2319 35.5603C67.4394 40.3442 64.9111 48.6363 64.9111 48.6363H100.624Z" fill="#49CEB1"/>
<path d="M108.334 48.2103C90.4809 37.5247 71.6796 38.6747 53.1762 50.0206C34.6728 61.3666 14.5926 95.4663 20.4274 108.43C26.2622 121.394 36.7341 126.153 58.9117 130.611C81.0893 135.068 103.748 131.469 119.772 127.071C135.796 122.672 145.988 111.636 146 103.095C146.024 92.9832 138.501 66.2707 108.334 48.2103Z" fill="#49CEB1"/>
<path d="M30.2574 105.434C26.4649 98.4174 39.1065 70.0329 43.531 66.2057C62.585 49.7236 95.156 50.607 116.852 63.9732C119.971 65.8868 135.252 98.0602 132.859 106.681C132.155 109.213 99.8808 114.415 81.1396 114.683C58.7009 115.002 32.6119 109.79 30.2574 105.434Z" fill="#6740A0"/>
<path d="M57.5003 91.7744C52.2762 86.2442 54.7571 68.0335 64.0075 72.7026C71.1216 76.2937 64.6112 99.2979 57.5003 91.7744Z" fill="white"/>
<path d="M106.423 90.6995C111.296 85.2937 108.515 67.9345 99.786 72.61C93.0418 76.2075 99.786 98.0572 106.423 90.6995Z" fill="white"/>
<path d="M60.107 116.965C59.7579 122.484 59.6899 126.911 57.321 126.317C46.7846 123.641 38.1098 111.51 40.6675 112.333C50.7332 115.561 60.177 115.895 60.107 116.965Z" fill="#BAECE1"/>
<path d="M66.2863 44.5188C68.1162 44.7421 66.6023 48.6649 64.9273 52.2975C64.2478 53.7709 58.8562 54.3099 52.8894 56.9538C51.4135 57.5948 64.1815 44.2605 66.2863 44.5188Z" fill="#BAECE1"/>
<path d="M80.1222 102.634C78.542 103.667 79.92 109.921 82.7295 107.896C85.5391 105.871 82.9318 100.813 80.1222 102.634Z" fill="white"/>
<path d="M54.5926 70.0331C54.3124 69.1225 54.3424 68.1434 54.678 67.252C55.3125 65.4601 56.6124 63.9872 58.3029 63.1443C59.1379 62.7013 60.093 62.5446 61.024 62.6978C60.2943 63.1284 59.6084 63.6305 58.9761 64.1967C58.3758 64.7303 57.807 65.299 57.2726 65.8998C56.7391 66.5046 56.245 67.1438 55.7936 67.8134C55.3112 68.505 54.9083 69.2497 54.5926 70.0331Z" fill="white"/>
<path d="M99.7866 61.7411C100.708 61.4497 101.7 61.4846 102.599 61.8399C103.498 62.1679 104.322 62.6743 105.023 63.3293C105.73 63.9735 106.305 64.7515 106.714 65.6192C106.821 65.8364 106.909 66.0627 106.976 66.2954L107.081 66.643C107.109 66.7578 107.125 66.8822 107.147 67.0034C107.169 67.1246 107.185 67.2426 107.191 67.3638C107.198 67.485 107.191 67.6093 107.191 67.7305C107.18 67.9719 107.134 68.2104 107.056 68.4385C106.887 68.0296 106.675 67.6404 106.423 67.2776C106.312 67.1002 106.189 66.9298 106.057 66.7674C105.94 66.5983 105.798 66.4484 105.668 66.2826C105.136 65.6565 104.567 65.0633 103.965 64.5062C103.368 63.9485 102.735 63.4328 102.068 62.9626C101.361 62.4613 100.595 62.0509 99.7866 61.7411Z" fill="white"/>
<path d="M11.9463 41.8591C11.9381 42.6249 11.8598 43.3882 11.7124 44.1395C11.5873 44.7637 11.3977 45.373 11.1467 45.9574C10.9122 46.4979 10.6219 47.0121 10.2808 47.4914C9.92729 47.9871 9.54859 48.464 9.1462 48.9202C8.48892 49.6914 7.64038 50.2726 6.68742 50.6041C5.7843 50.9106 4.80909 50.9262 3.8968 50.6488C3.35808 50.4974 2.84921 50.2536 2.39245 49.928C1.44097 49.2511 0.724528 48.2893 0.344522 47.1788C0.135252 46.5711 0.0211594 45.9341 0.00635799 45.2908C-0.0172898 44.6418 0.0250683 43.992 0.132772 43.3517C0.242274 42.705 0.423559 42.0727 0.6732 41.4669C0.922505 40.861 1.2475 40.2897 1.64028 39.767C2.03842 39.235 2.51233 38.7653 3.04665 38.3733C3.52165 38.0343 4.03257 37.7498 4.56996 37.5249C5.12718 37.2832 5.71218 37.1129 6.31133 37.0178C6.88376 36.9287 7.46584 36.9223 8.04007 36.9987C8.58119 37.0716 9.09534 37.2812 9.53493 37.6078C9.86697 37.8513 10.1836 38.1155 10.483 38.3988C10.7823 38.684 11.0455 39.0053 11.2668 39.3556C11.489 39.7097 11.6623 40.0928 11.782 40.4941C11.9117 40.9367 11.9672 41.3981 11.9463 41.8591ZM9.08299 39.4162C8.96344 39.279 8.81805 39.1672 8.65528 39.0872C8.49251 39.0073 8.31561 38.9608 8.13488 38.9505C7.71832 38.9222 7.29996 38.962 6.89601 39.0685C6.45171 39.1836 6.01979 39.3428 5.60657 39.5437C5.18307 39.751 4.81015 39.9488 4.49411 40.1433C4.03483 40.4303 3.61054 40.7707 3.22995 41.1575C2.78783 41.591 2.41091 42.0874 2.11118 42.6309C1.79286 43.1989 1.57873 43.8201 1.4791 44.4648C1.38109 45.1603 1.45157 45.8694 1.68452 46.5314C1.81374 46.945 2.04418 47.319 2.35453 47.619C2.64051 47.8908 2.97371 48.107 3.33741 48.2568C3.6785 48.3978 4.0407 48.4797 4.40878 48.4992C4.73438 48.5225 5.06151 48.489 5.37586 48.4003C5.74489 48.2721 6.10141 48.1098 6.44091 47.9156C6.94037 47.636 7.4096 47.3047 7.84096 46.9269C8.33455 46.4926 8.77582 46.0013 9.15568 45.463C9.56056 44.8898 9.84356 44.2383 9.98687 43.5495C10.1613 42.8125 10.1849 42.0475 10.0564 41.301C9.91479 40.5926 9.57731 39.9391 9.08299 39.4162Z" fill="#071D40"/>
<path d="M22.3154 38.7081C22.244 39.2895 22.1149 39.8622 21.9299 40.4175C21.7687 40.8811 21.5566 41.325 21.2978 41.7411C21.0613 42.1248 20.7848 42.482 20.4729 42.8063C20.1569 43.1252 19.8187 43.4442 19.4553 43.7631C19.157 44.032 18.8401 44.2793 18.5072 44.503C18.1889 44.7199 17.8449 44.8956 17.4832 45.026C17.1447 45.1514 16.7881 45.2193 16.4276 45.227C16.0576 45.2328 15.6908 45.1566 15.3531 45.0037C14.9543 44.8288 14.5943 44.575 14.2944 44.2574C13.9959 43.9396 13.7514 43.5743 13.5706 43.1763C13.3798 42.7542 13.2469 42.3078 13.1756 41.8495C13.1019 41.361 13.0839 40.8656 13.1219 40.3729C13.1598 39.8809 13.2542 39.395 13.4031 38.925C13.5576 38.4425 13.7698 37.9809 14.0352 37.5504C14.2985 37.1142 14.6103 36.7097 14.9644 36.3448C15.3161 35.9802 15.7172 35.6678 16.1558 35.4168C16.5248 35.2072 16.912 35.0322 17.3125 34.8937C17.7169 34.7528 18.1375 34.6649 18.5641 34.6322C18.9667 34.5982 19.3722 34.636 19.7618 34.7438C20.1538 34.8535 20.5137 35.057 20.8111 35.337C21.0418 35.5539 21.263 35.7772 21.4684 36.01C21.672 36.2395 21.85 36.4909 21.9994 36.7594C22.1514 37.0358 22.2582 37.3353 22.3154 37.6461C22.3701 37.9979 22.3701 38.3562 22.3154 38.7081ZM20.2865 36.651C20.2174 36.5527 20.1284 36.4703 20.0255 36.4093C19.9225 36.3483 19.8079 36.31 19.6891 36.297C19.425 36.27 19.1582 36.2927 18.9022 36.364C18.6036 36.4438 18.3128 36.5506 18.0331 36.6829C17.7392 36.82 17.4548 36.9476 17.1924 37.0624C16.832 37.2293 16.4951 37.4438 16.1906 37.7003C15.8279 37.9967 15.5086 38.3435 15.2425 38.7304C14.963 39.1343 14.7555 39.5844 14.6294 40.0603C14.4963 40.5596 14.4866 41.0841 14.6009 41.588C14.6642 41.8955 14.7855 42.1878 14.958 42.4491C15.1054 42.6808 15.294 42.883 15.5143 43.0455C15.709 43.1867 15.9307 43.2855 16.1653 43.3357C16.3759 43.3819 16.5952 43.3664 16.7974 43.2911C17.1402 43.1576 17.4693 42.991 17.7803 42.7935C18.1451 42.569 18.4898 42.3129 18.8106 42.0281C19.1404 41.7379 19.4429 41.4176 19.7144 41.0713C19.9723 40.7512 20.1694 40.3857 20.2959 39.9934C20.3844 39.7063 20.4603 39.4065 20.5298 39.1004C20.6006 38.8073 20.6451 38.5085 20.6625 38.2074C20.6795 37.9284 20.6593 37.6485 20.6025 37.375C20.5489 37.1139 20.4412 36.8671 20.2865 36.651Z" fill="#071D40"/>
<path d="M32.65 35.8602C32.5008 36.3806 32.2985 36.8841 32.0464 37.3624C31.8281 37.7704 31.5663 38.1533 31.2657 38.5041C30.9793 38.8332 30.6617 39.1333 30.3176 39.4003C29.97 39.665 29.5907 39.9297 29.1925 40.1912C28.8607 40.4125 28.5155 40.6128 28.1591 40.7908C27.8153 40.9622 27.4539 41.0948 27.0814 41.1863C26.7335 41.2744 26.3746 41.3099 26.0163 41.2915C25.6582 41.2717 25.3083 41.1761 24.9892 41.0109C24.6243 40.8271 24.3014 40.5686 24.0411 40.2518C23.7909 39.9439 23.5981 39.5927 23.4722 39.2153C23.3397 38.8171 23.2672 38.401 23.2573 37.9811C23.2468 37.5294 23.2935 37.0781 23.3964 36.6384C23.4988 36.1955 23.6549 35.7671 23.8609 35.3627C24.0776 34.9348 24.3439 34.5343 24.6542 34.1699C24.9729 33.7937 25.3323 33.4546 25.7256 33.1589C26.1224 32.856 26.557 32.6073 27.0182 32.419C27.4096 32.2607 27.8134 32.1359 28.2255 32.0458C28.634 31.9526 29.0518 31.9077 29.4706 31.9119C29.8675 31.9158 30.2612 31.9837 30.6368 32.1128C30.9984 32.2391 31.3238 32.4526 31.585 32.7347C31.7836 32.9427 31.9714 33.1609 32.1475 33.3885C32.317 33.6095 32.4593 33.8504 32.571 34.1061C32.6824 34.3647 32.7476 34.6411 32.7638 34.9226C32.7762 35.2393 32.7378 35.5559 32.65 35.8602ZM30.9149 33.851C30.8565 33.754 30.7779 33.671 30.6846 33.6077C30.5913 33.5444 30.4855 33.5023 30.3745 33.4842C30.1151 33.4393 29.8501 33.4393 29.5907 33.4842C29.2873 33.5291 28.9882 33.5995 28.6963 33.6947C28.3803 33.7936 28.0896 33.8829 27.8178 33.9658C27.4422 34.0891 27.0825 34.2572 26.7464 34.4665C26.3594 34.7042 26.0046 34.9915 25.6908 35.3212C25.367 35.6574 25.1038 36.0481 24.9134 36.4757C24.7201 36.9083 24.6427 37.3845 24.689 37.8567C24.711 38.1405 24.7917 38.4164 24.926 38.6668C25.0434 38.8889 25.2022 39.086 25.3937 39.2472C25.5714 39.3938 25.7768 39.5024 25.9974 39.5661C26.2043 39.6231 26.4225 39.6231 26.6295 39.5661C26.9823 39.47 27.3268 39.3452 27.6597 39.193C28.0451 39.0159 28.417 38.8101 28.7722 38.5775C29.1345 38.3444 29.4751 38.0786 29.7898 37.7833C30.0807 37.5225 30.3217 37.2101 30.5009 36.8616C30.6273 36.6097 30.7411 36.345 30.8517 36.0771C30.9554 35.8221 31.0368 35.5586 31.0951 35.2893C31.1491 35.0424 31.1661 34.7887 31.1457 34.5367C31.1246 34.2927 31.0454 34.0575 30.9149 33.851Z" fill="#071D40"/>
<path d="M42.4822 31.5259C42.6604 31.6937 42.8043 31.8953 42.9057 32.1191C43.0076 32.3493 43.0645 32.5973 43.0732 32.8494C43.0794 33.1218 43.0321 33.3928 42.9341 33.6467C42.8205 33.9474 42.651 34.2235 42.4348 34.46C42.0408 34.9214 41.6594 35.336 41.2907 35.7038C40.917 36.075 40.5144 36.4152 40.0866 36.7212C39.6241 37.0485 39.1394 37.3426 38.636 37.6014C38.1019 37.8821 37.473 38.1659 36.7556 38.4625C36.767 38.6861 36.7987 38.9082 36.8504 39.1259C36.9041 39.3491 36.9578 39.5596 37.0179 39.7637C37.0779 39.9678 37.1285 40.1433 37.1727 40.2995C37.2084 40.4165 37.2286 40.5376 37.2328 40.6599C37.2348 40.7815 37.2432 40.9028 37.2581 41.0235C37.2658 41.1073 37.2658 41.1917 37.2581 41.2755C37.2524 41.3464 37.226 41.4141 37.1822 41.47C37.1203 41.5446 37.0504 41.612 36.9736 41.6709C36.8745 41.7465 36.7687 41.8126 36.6576 41.8687C36.5336 41.9363 36.3939 41.9693 36.2531 41.9643C36.1799 41.9584 36.1088 41.9368 36.0445 41.9011C35.9802 41.8654 35.9242 41.8163 35.8801 41.757C35.7379 41.5475 35.6608 41.2998 35.6589 41.0458C35.6431 40.8864 35.621 40.6854 35.5894 40.4431C35.5578 40.2007 35.5198 39.9423 35.4819 39.6744C35.444 39.4065 35.4029 39.1418 35.3555 38.8835C35.3081 38.6252 35.2607 38.3955 35.2164 38.201C35.1722 38.0065 35.1027 37.7194 35.0237 37.4292C34.9446 37.139 34.8656 36.8487 34.7803 36.5426C34.695 36.2364 34.6097 35.9462 34.5338 35.656C34.458 35.3657 34.3916 35.1138 34.3442 34.8969C34.2857 34.6271 34.2119 34.3608 34.123 34.0996C34.0597 33.9306 34.006 33.7807 33.9586 33.6882L33.8101 33.3693C33.7442 33.2042 33.6934 33.0334 33.6584 32.859C33.6173 32.6899 33.5825 32.54 33.5446 32.4125C33.5107 32.2978 33.4989 32.1776 33.5098 32.0585C33.5243 31.9492 33.5731 31.8475 33.6489 31.7682C33.7654 31.655 33.9059 31.5699 34.0597 31.5195C34.2658 31.4306 34.4925 31.4019 34.7139 31.4366C34.9072 31.4664 35.0815 31.5704 35.2006 31.7268C35.4472 31.6502 35.6873 31.5801 35.9275 31.5131C36.1677 31.4461 36.4174 31.376 36.6829 31.309C36.9483 31.242 37.2328 31.1718 37.5425 31.1017C37.8522 31.0315 38.2062 30.9614 38.5981 30.8912C39.0023 30.8141 39.4129 30.7756 39.8243 30.7764C40.1973 30.7789 40.5694 30.8131 40.9368 30.8784C41.2488 30.9316 41.554 31.0193 41.8469 31.14C42.0791 31.2308 42.294 31.3614 42.4822 31.5259ZM41.3192 33.6563C41.4332 33.5234 41.5163 33.3665 41.5625 33.197C41.6147 33.0288 41.6147 32.8486 41.5625 32.6804C41.5056 32.5132 41.3942 32.3704 41.2465 32.2753C41.0236 32.1565 40.7691 32.1118 40.5196 32.1478C39.6794 32.1987 38.8452 32.3225 38.026 32.5177C37.2694 32.7064 36.5382 32.987 35.8485 33.3533C35.8069 33.6046 35.8069 33.8611 35.8485 34.1124C35.8888 34.425 35.9479 34.735 36.0255 35.0404C36.1045 35.3594 36.1804 35.6591 36.2594 35.9462C36.3384 36.2332 36.3953 36.4628 36.43 36.6287C36.886 36.5852 37.3303 36.4588 37.7416 36.2555C38.222 36.0338 38.6857 35.7769 39.129 35.4869C39.5679 35.2002 39.9899 34.8882 40.3932 34.5525C40.7245 34.2786 41.0341 33.9789 41.3192 33.6563Z" fill="#071D40"/>
<path d="M54.005 33.6308C54.0683 33.7534 54.0968 33.8912 54.0873 34.0291C54.0778 34.167 54.0307 34.2996 53.9512 34.4122C53.7528 34.6948 53.5003 34.9345 53.2085 35.117C52.8395 35.3607 52.4516 35.574 52.0487 35.7548C51.6062 35.9494 51.1733 36.128 50.7466 36.2874C50.3674 36.4278 49.9407 36.5617 49.4825 36.6893C49.0172 36.8161 48.5443 36.912 48.0666 36.9763C47.6157 37.0423 47.1593 37.0615 46.7045 37.0337C46.3081 37.0186 45.9198 36.9163 45.5667 36.7339C45.504 36.7013 45.4484 36.6563 45.4034 36.6015C45.3583 36.5467 45.3246 36.4832 45.3044 36.415C45.2899 36.3613 45.287 36.305 45.2957 36.2501C45.3044 36.1951 45.3246 36.1426 45.355 36.0961C45.4313 35.982 45.5422 35.8958 45.671 35.8505C45.8519 35.7843 46.0461 35.7635 46.2367 35.7899C46.7118 35.847 47.191 35.8598 47.6684 35.8282C48.1641 35.7873 48.6544 35.6954 49.1317 35.5539C49.7338 35.3833 50.3266 35.1811 50.9078 34.948C51.4269 34.7394 51.9193 34.4685 52.3742 34.1411C52.3742 34.0486 52.232 33.9848 51.9823 33.9593C51.6736 33.9281 51.3631 33.9196 51.0532 33.9338C50.6771 33.9338 50.2662 33.9752 49.8175 34.0231C49.3687 34.0709 48.9389 34.1283 48.5312 34.1921C48.1235 34.2559 47.7537 34.3165 47.4314 34.3771L46.7424 34.4983L46.1293 34.6035C45.9175 34.6354 45.7121 34.6609 45.5162 34.6769C45.2752 34.7101 45.0303 34.6571 44.824 34.527C44.6506 34.4159 44.5115 34.2579 44.4227 34.0709C44.3367 33.8939 44.3006 33.6964 44.3184 33.5C44.3311 33.3098 44.4174 33.1323 44.5586 33.0057L45.1907 32.4093C45.39 32.2146 45.6011 32.0324 45.8227 31.8639C46.0622 31.6852 46.3135 31.5232 46.5749 31.3792C46.8794 31.2164 47.1965 31.0788 47.523 30.9677C47.9212 30.8242 48.3258 30.6935 48.7271 30.5818C49.1259 30.4687 49.5312 30.3803 49.9407 30.3171C50.3592 30.2525 50.7816 30.2162 51.2049 30.2087C51.6539 30.2014 52.1029 30.228 52.548 30.2884C52.7118 30.3039 52.8682 30.3645 53 30.4638C53.1122 30.5521 53.1995 30.6687 53.2528 30.8019C53.3016 30.9298 53.3147 31.0688 53.2907 31.2038C53.2677 31.3448 53.2137 31.4788 53.1327 31.596C53.0484 31.7272 52.9348 31.8364 52.8009 31.915C52.6517 32.0004 52.4824 32.0433 52.311 32.0393C52.1372 32.0544 51.9624 32.0259 51.8022 31.9564C51.7171 31.907 51.6446 31.8382 51.5904 31.7555C51.5462 31.6821 51.5083 31.612 51.4767 31.5482C51.4542 31.5127 51.4227 31.4839 51.3854 31.4648C51.3482 31.4458 51.3066 31.4371 51.2649 31.4398C51.005 31.4219 50.7441 31.423 50.4843 31.4429C50.2062 31.4685 49.9281 31.5067 49.6468 31.5609C49.3655 31.6152 49.1001 31.6821 48.8472 31.7555C48.6162 31.8239 48.3893 31.9059 48.1677 32.0011C47.8182 32.1632 47.4884 32.3654 47.1849 32.6038C46.9233 32.8084 46.6771 33.0322 46.4485 33.2736C46.4738 33.3023 46.5939 33.3023 46.8025 33.2736C47.011 33.2449 47.2512 33.2066 47.5135 33.1651L48.272 33.0376C48.5122 32.9929 48.6734 32.9674 48.7556 32.961L49.6025 32.859C49.947 32.8175 50.2978 32.7824 50.6581 32.7537C51.0184 32.725 51.366 32.7091 51.701 32.7059C51.9695 32.6986 52.2381 32.7146 52.5038 32.7537C52.849 32.8052 53.1821 32.9198 53.4867 33.0918C53.7081 33.2163 53.8883 33.4037 54.005 33.6308Z" fill="#071D40"/>
<path d="M58.1576 35.7487C58.0377 35.8719 57.8976 35.9733 57.7435 36.0485C57.5601 36.1432 57.3699 36.2242 57.1747 36.2908C56.9758 36.3577 56.7718 36.4078 56.5647 36.4407C56.3893 36.4702 56.2114 36.4809 56.0338 36.4726C55.9059 36.4658 55.7814 36.4286 55.6703 36.3642C55.5705 36.3044 55.4844 36.2239 55.4175 36.1282C55.359 36.0436 55.3251 35.9442 55.3195 35.8412C55.3139 35.7467 55.3432 35.6536 55.4017 35.5796C55.5273 35.4383 55.6758 35.3197 55.841 35.2288C56.234 35.0108 56.6619 34.864 57.1051 34.7951C57.2993 34.7701 57.4957 34.7701 57.6898 34.7951C57.8168 34.8032 57.9392 34.8462 58.0438 34.9195C58.1327 34.9841 58.2035 35.0709 58.2492 35.1714C58.2926 35.2717 58.3068 35.3823 58.2903 35.4903C58.2718 35.5876 58.2257 35.6774 58.1576 35.7487ZM61.2295 29.5296C61.1252 29.7082 61.0272 29.8485 60.9419 29.9857C60.8635 30.1027 60.7791 30.2156 60.689 30.3237C60.6069 30.4226 60.5247 30.5119 60.4425 30.598L60.1707 30.8691C60.0696 30.968 59.9653 31.0764 59.8547 31.188C59.7441 31.2996 59.6208 31.4687 59.4912 31.6505C59.2858 31.9407 59.1183 32.1894 58.9793 32.3776C58.8402 32.5658 58.7075 32.7316 58.5779 32.8815L58.1734 33.3567C58.0406 33.5098 57.8794 33.7043 57.6898 33.9435C57.6689 33.9745 57.6405 33.9995 57.6073 34.0162C57.5741 34.0329 57.5373 34.0409 57.5002 34.0392C57.4167 34.0381 57.3337 34.0252 57.2537 34.001C57.1684 33.9754 57.0767 33.9435 56.9851 33.9085C56.8946 33.8731 56.8001 33.8496 56.7038 33.8383C56.7607 33.5927 56.8049 33.4109 56.8397 33.2961C56.8744 33.1813 56.8997 33.0824 56.9187 33.0091C56.941 32.9329 56.9685 32.8583 57.0009 32.7858C57.0325 32.7125 57.0767 32.5881 57.1304 32.4191C57.1462 32.3649 57.1715 32.2756 57.2126 32.1576C57.2537 32.0396 57.3043 31.896 57.3675 31.7398C57.4307 31.5835 57.4907 31.4208 57.5508 31.2486C57.6108 31.0764 57.6709 30.9042 57.7309 30.7479C57.8226 30.5023 57.9016 30.2855 57.9553 30.11C58.009 29.9346 58.0469 29.7656 58.0817 29.638C58.1199 29.5091 58.1453 29.3766 58.1576 29.2426C58.3421 29.1437 58.5439 29.0819 58.7517 29.0608C59.0465 29.0148 59.3451 28.9999 59.6429 29.0161C59.9513 29.0308 60.2568 29.0822 60.5531 29.1692C60.8076 29.2229 61.042 29.3478 61.2295 29.5296Z" fill="#071D40"/>
</svg>
