<svg width="186" height="158" viewBox="0 0 186 158" fill="none" xmlns="http://www.w3.org/2000/svg">
<path d="M60.6534 102.678C57.3526 102.694 47.2352 108.009 50.504 116.369C53.7728 124.73 65.3608 123.901 68.3966 121.658C71.4323 119.415 74.422 117.424 73.928 111.713C73.4341 106.002 66.6618 102.647 60.6534 102.678Z" fill="#49CEB1"/>
<path d="M52.1348 116.366C53.6736 120.266 57.2328 121.97 60.718 122.429C59.4728 120.956 58.3705 118.956 57.9544 116.904C57.4948 114.638 58.8816 112.275 60.5645 110.682C62.0167 109.307 63.25 107.193 62.7466 105.245C62.5414 104.45 61.8155 103.9 61.0233 104.102C57.0807 105.11 49.4843 109.66 52.1348 116.366Z" fill="#BAECE1"/>
<path d="M170.156 123.168C167.253 124.15 160.135 131.797 165.845 138.202C171.554 144.607 181.487 140.48 183.403 137.615C185.319 134.749 187.281 132.12 184.913 127.234C182.545 122.349 175.445 121.378 170.156 123.168Z" fill="#49CEB1"/>
<path d="M174.149 125.941C175.019 124.759 174.244 123.363 172.737 123.637C172.099 123.754 171.475 123.914 170.879 124.116C170.272 124.32 169.449 124.872 168.625 125.664C164.44 130.127 166.222 135.702 167.231 136.835C170.288 140.264 174.774 140.125 178.067 138.947C178.824 138.675 178.769 137.91 177.973 137.753C176.241 137.411 174.029 136.774 172.824 132.278C172.173 129.179 173.078 127.395 174.149 125.941Z" fill="#BAECE1"/>
<path d="M129.841 139.585C140.023 133.797 153.984 141.977 160.772 146.615C174.28 155.845 147.83 158.756 132.901 157.175C119.393 155.745 112.63 160.192 101.229 156.044C91.8263 152.623 94.4366 149.148 102.073 144.73C113.952 137.857 117.114 146.819 129.841 139.585Z" fill="#E4E9F3"/>
<path d="M58.1002 150.851C65.8012 146.916 80.4507 150.121 87.7307 150.851C98.5372 151.933 86.2981 158.436 78.0851 157.977C69.2926 157.486 61.6577 157.977 57.5528 157.329C50.8938 156.278 53.1496 153.381 58.1002 150.851Z" fill="#E4E9F3"/>
<path d="M102.942 127.229C101.017 129.678 107.989 146.685 127.963 150.595C147.937 154.506 154.718 137.73 156.532 132.606C158.346 127.482 157.927 119.091 152.155 118.512C146.384 117.933 108.178 120.548 102.942 127.229Z" fill="#49CEB1"/>
<path d="M105.335 130.764C105.335 130.764 110.112 141.215 120.303 145.858C127.524 149.145 132.865 149.134 140.709 148.162C140.709 148.162 131.681 145.298 127.22 141.305C124.09 138.503 121.711 133.422 121.711 133.422C121.711 133.422 113.885 134.216 105.335 130.764Z" fill="#BAECE1"/>
<path d="M138.731 9.76086L135.364 28.5742H138.731L142.477 9.76086H138.731Z" fill="#3EB79A"/>
<path d="M141.355 26.6491C128.778 23.7429 121.127 30.2461 118.577 36.4328C116.027 42.6196 155.693 44.9455 155.693 44.9455C155.693 44.9455 155.693 29.9666 141.355 26.6491Z" fill="#49CEB1"/>
<path d="M132.724 26.5518C131.356 26.8195 124.846 30.1761 123.353 35.0423C121.864 39.9084 124.629 40.1063 124.629 40.1063H132.72C132.72 40.1063 130.276 34.5921 130.697 32.3803C131.264 29.4039 132.245 26.1482 132.724 26.5518Z" fill="#BAECE1"/>
<path d="M140.227 0.00870352C135.381 -0.355221 128.251 10.8051 139.853 12.5509C151.454 14.2967 149.589 0.704907 140.227 0.00870352Z" fill="#49CEB1"/>
<path d="M141.102 1.03589C141.102 1.03589 139.05 4.52832 138.867 6.88377C138.679 9.2431 139.868 11.8159 139.868 11.8159C139.868 11.8159 136.69 12.1573 135.61 8.97147C134.529 5.78559 136.811 1.40841 141.102 1.03589Z" fill="#BAECE1"/>
<path d="M110.642 38.1808C103.901 42.1689 94.8621 51.1077 84.4644 66.2455C76.5508 77.7655 76.986 87.905 102.224 95.823C127.462 103.741 167.662 104.439 173.739 96.0558C179.816 87.6723 169.424 54.5986 160.353 46.6806C151.282 38.7626 122.032 31.4423 110.642 38.1808Z" fill="#49CEB1"/>
<path d="M108.535 48.6797C104.794 51.3749 83.5979 72.8306 90.5689 76.0796C97.5399 79.3285 113.291 83.2634 126.536 85.4258C139.781 87.5883 168.428 87.0922 169.426 83.6798C170.423 80.2673 161.441 56.5753 156.958 53.7852C152.475 50.9951 126.353 44.3343 108.535 48.6797Z" fill="#6740A0"/>
<path d="M156.423 53.3178C151.396 51.3456 144.742 49.045 131.712 47.6303C118.682 46.2157 108.554 46.3089 104.279 49.6694C102.208 51.295 92.2601 64.4342 90.8367 69.9925C90.9359 67.9338 102.67 52.3914 108.027 51.2592C117.225 48.3771 150.459 54.4179 154.124 56.3028C157.317 57.9457 166.663 75.3273 169.234 80.9031C169.007 74.617 160.584 55.4793 156.423 53.3178Z" fill="#431E78"/>
<path d="M132.073 76.7424C130.373 77.775 131.856 84.0251 134.879 82.0012C137.903 79.9774 135.097 74.9225 132.073 76.7424Z" fill="white"/>
<path d="M107.428 53.4576C107.508 52.5554 107.904 51.7026 108.554 51.0352C109.822 49.6793 111.594 48.84 113.496 48.6944C114.445 48.5991 115.399 48.7986 116.215 49.263C115.369 49.3847 114.537 49.5849 113.731 49.8607C112.968 50.1189 112.221 50.4193 111.494 50.7602C110.767 51.1049 110.063 51.4939 109.388 51.9247C108.676 52.3641 108.019 52.8783 107.428 53.4576Z" fill="white"/>
<path d="M148.578 52.3449C149.54 52.2224 150.516 52.4151 151.344 52.891C152.177 53.3414 152.906 53.9459 153.488 54.669C154.077 55.3828 154.511 56.1998 154.768 57.0738C154.836 57.2932 154.884 57.518 154.911 57.7456L154.955 58.086C154.963 58.1975 154.958 58.3159 154.959 58.4323C154.96 58.5487 154.955 58.6611 154.941 58.7749C154.926 58.8888 154.899 59.0036 154.878 59.1164C154.825 59.3393 154.739 59.5539 154.622 59.7536C154.525 59.3457 154.382 58.9491 154.195 58.5708C154.115 58.3875 154.023 58.2091 153.92 58.0365C153.834 57.8603 153.719 57.6978 153.619 57.5225C153.2 56.8537 152.739 56.2096 152.238 55.5936C151.743 54.9782 151.205 54.3958 150.626 53.8504C150.012 53.2696 149.324 52.7638 148.578 52.3449Z" fill="white"/>
<path d="M95.2749 67.4411C93.4704 63.7517 85.2762 61.8487 85.8507 65.916C86.598 71.1949 98.4709 73.9727 95.2749 67.4411Z" fill="#FFD0C6"/>
<path d="M159.906 76.297C163.203 73.4439 172.274 74.2722 170.075 77.8655C167.219 82.5286 154.068 81.3475 159.906 76.297Z" fill="#FFD0C6"/>
<path d="M112.842 55.0947C104.741 57.1597 104.13 70.9424 109.676 70.6399C115.223 70.3373 121.555 52.876 112.842 55.0947Z" fill="white"/>
<path d="M149.635 58.3605C155.459 61.5511 153.389 75.2388 148.913 74.7627C140.835 73.9066 143.716 55.0964 149.635 58.3605Z" fill="white"/>
<g filter="url(#filter0_d)">
<path d="M53.1938 99.7405C53.5846 101.315 55.8245 102.019 57.3441 101.466C57.6444 101.356 57.9646 101.257 58.3041 101.174C58.9925 101.005 59.6464 100.901 60.2386 100.839C61.6433 100.691 62.8093 99.363 62.4683 97.9965L48.261 41.0712C48.1327 40.5574 47.3592 40.29 46.5331 40.4743L40.4018 41.8416C39.5759 42.0258 39.0102 42.5916 39.1385 43.1056L53.1938 99.7405Z" fill="#AC6A51"/>
<path d="M39.1425 42.8895C39.1436 42.9337 39.1494 42.9777 39.1601 43.0214L53.2969 101.247C53.5987 102.49 54.8293 102.915 55.9269 102.273C56.5843 101.888 57.3433 101.524 58.1182 101.334L43.42 41.0696L40.4026 41.7575C39.6622 41.9263 39.1344 42.4136 39.1425 42.8895Z" fill="#945B44"/>
<path d="M61.6836 130.653C62.2894 133.323 65.024 135.078 67.7099 134.519V134.519C70.259 133.989 71.8219 131.564 71.2471 129.03L70.285 124.788C69.9941 123.2 68.7709 124.501 66.2026 124.894C63.6344 125.286 62.0261 125.199 62.0261 125.199C60.6481 125.141 60.6186 126.076 60.8005 126.76L61.6836 130.653Z" fill="#AC6A51"/>
<path d="M64.9472 125.097C63.1171 125.305 62.017 125.244 62.017 125.244C60.6634 125.186 60.6343 126.12 60.813 126.803L61.9782 132.029C62.4049 133.942 64.8539 135.084 67.4302 134.591L64.9472 125.097Z" fill="#945B44"/>
<path d="M24.1058 95.0338L81.8236 82.808C85.2449 82.0833 87.3197 78.8269 86.458 75.5345L79.0556 47.2503C78.1939 43.9579 74.722 41.8764 71.3007 42.6011L13.5829 54.8269C10.1616 55.5516 8.08676 58.808 8.94845 62.1004L16.3509 90.3846C17.2126 93.677 20.6845 95.7585 24.1058 95.0338Z" fill="#AC6A51"/>
<path d="M8.94571 62.1506L16.3418 90.3928C17.2031 93.6815 20.673 95.759 24.0906 95.0355L81.7591 82.8277C82.1183 82.7516 82.4606 82.6476 82.7889 82.5189L29.5173 93.7959C26.0997 94.5194 22.6293 92.4403 21.7685 89.1533L14.3724 60.911C13.6031 57.9732 15.1791 55.0608 17.963 53.9606L13.5769 54.8891C10.1594 55.6126 8.08495 58.8637 8.94571 62.1506V62.1506Z" fill="#945B44"/>
<g filter="url(#filter1_i)">
<path d="M22.1943 69.6879C22.2363 69.8369 22.2708 70.019 22.2976 70.2341C22.3324 70.4477 22.3371 70.6595 22.3117 70.8698C22.2841 71.0725 22.2212 71.2551 22.1228 71.4173C22.0224 71.5721 21.8601 71.6727 21.6358 71.7192C21.3394 71.7805 21.0867 71.7264 20.8778 71.5568C20.6768 71.3856 20.5054 71.1688 20.3636 70.9065C20.2196 70.6367 20.0986 70.3583 20.0006 70.0711C19.9106 69.7823 19.8374 69.5531 19.7811 69.3834C19.2296 69.5922 18.6829 69.7881 18.1411 69.9712C18.1735 70.1459 18.1973 70.3656 18.2127 70.6304C18.2362 70.8936 18.2254 71.156 18.1806 71.4175C18.1416 71.67 18.0582 71.9001 17.9303 72.1079C17.8105 72.314 17.6264 72.4427 17.3781 72.4941C17.1858 72.5339 17.0158 72.5021 16.8679 72.3987C16.7259 72.2862 16.6017 72.1464 16.4951 71.9793C16.3886 71.8121 16.3011 71.6371 16.2325 71.4542C16.1698 71.2622 16.1206 71.1029 16.0849 70.9763C15.965 70.5518 15.8834 70.1272 15.8398 69.7027C15.7942 69.2707 15.7616 68.8399 15.7421 68.4104C15.7292 68.1844 15.7218 67.9179 15.7199 67.6109C15.7181 67.3038 15.7301 66.986 15.756 66.6574C15.7879 66.3197 15.8379 65.9862 15.906 65.6568C15.98 65.3182 16.0835 65.0091 16.2165 64.7293C16.3494 64.4495 16.5231 64.2086 16.7374 64.0066C16.9516 63.8045 17.215 63.6712 17.5274 63.6065C17.8317 63.5435 18.1139 63.5521 18.374 63.6323C18.634 63.7125 18.8775 63.8394 19.1046 64.0131C19.3317 64.1869 19.5391 64.3962 19.727 64.6411C19.9127 64.8786 20.0805 65.1276 20.2303 65.3883C20.3861 65.6398 20.5248 65.8909 20.6465 66.1417C20.7761 66.3907 20.8894 66.6117 20.9862 66.8045C21.2269 67.267 21.4538 67.7404 21.6667 68.2245C21.8776 68.7011 22.0534 69.1889 22.1943 69.6879ZM19.1091 67.4532C19.0839 67.3638 19.0349 67.2203 18.9621 67.0225C18.8952 66.8156 18.8134 66.6157 18.7166 66.4229C18.6176 66.2227 18.5021 66.0535 18.3698 65.9153C18.2434 65.768 18.1082 65.7093 17.964 65.7392C17.8839 65.7558 17.8225 65.8236 17.7799 65.9428C17.7351 66.0546 17.7068 66.1945 17.6948 66.3625C17.6808 66.5231 17.676 66.7014 17.6805 66.8976C17.693 67.092 17.7074 67.2783 17.7238 67.4562C17.7401 67.6341 17.7602 67.7955 17.7841 67.9403C17.8059 68.0777 17.8212 68.177 17.83 68.2383C18.3001 68.1015 18.757 67.9478 19.2005 67.7772L19.1091 67.4532Z" fill="white"/>
<path d="M26.6887 65.9669C26.6992 66.0041 26.7068 66.0459 26.7114 66.0923C26.7139 66.1312 26.7124 66.1709 26.7069 66.2115C26.6831 66.3977 26.612 66.5661 26.4934 66.7168C26.3728 66.86 26.2083 66.9532 26 66.9963C25.6876 67.061 25.4344 66.9597 25.2402 66.6924C25.2137 66.6585 25.1941 66.6192 25.1815 66.5745C25.1668 66.5224 25.1481 66.4711 25.1254 66.4206L25.0339 66.0966C24.9885 65.9957 24.9373 65.9195 24.8804 65.8682C24.8236 65.817 24.7471 65.8013 24.651 65.8212C24.5148 65.8493 24.4057 65.9586 24.3238 66.149C24.2478 66.3303 24.1933 66.5426 24.1602 66.7859C24.1331 67.0202 24.1241 67.2585 24.1332 67.501C24.1423 67.7435 24.1668 67.9355 24.2067 68.077C24.2383 68.1888 24.2852 68.3249 24.3474 68.4854C24.4076 68.6385 24.4827 68.7846 24.5728 68.9236C24.6629 69.0626 24.7638 69.1797 24.8755 69.2748C24.993 69.3608 25.1199 69.3898 25.256 69.3616C25.3922 69.3334 25.5058 69.2704 25.597 69.1727C25.694 69.0659 25.7839 68.9488 25.8666 68.8213C25.9455 68.7104 26.0313 68.5941 26.1242 68.4724C26.225 68.349 26.3555 68.2707 26.5157 68.2376C26.716 68.1961 26.8911 68.2308 27.0411 68.3417C27.1991 68.4509 27.3022 68.5911 27.3506 68.7624C27.4221 69.0156 27.4172 69.2689 27.3361 69.5222C27.2529 69.768 27.1263 69.9953 26.9563 70.2039C26.7841 70.4051 26.5785 70.5777 26.3394 70.7218C26.1024 70.8733 25.8638 70.974 25.6234 71.0237C25.1909 71.1133 24.7941 71.089 24.4329 70.9509C24.0798 70.8112 23.768 70.6077 23.4976 70.3405C23.225 70.0658 22.9972 69.7543 22.8141 69.4059C22.631 69.0575 22.4932 68.7195 22.4007 68.3918C22.2935 68.0119 22.2339 67.5907 22.222 67.1281C22.2081 66.658 22.2636 66.2089 22.3887 65.781C22.5138 65.3531 22.7208 64.9752 23.0098 64.6473C23.3068 64.3178 23.7076 64.1008 24.2122 63.9964C24.5246 63.9317 24.8108 63.9395 25.0708 64.0197C25.3389 64.0982 25.5744 64.2268 25.7774 64.4055C25.9864 64.5751 26.1627 64.779 26.3062 65.0173C26.4578 65.254 26.5683 65.4952 26.6376 65.741C26.6482 65.7782 26.6587 65.8155 26.6692 65.8527C26.6797 65.8899 26.6862 65.928 26.6887 65.9669Z" fill="white"/>
<path d="M31.4855 69.9403C30.9168 70.058 30.4522 70.0793 30.0919 70.0041C29.7417 69.9347 29.4507 69.79 29.219 69.5699C28.9954 69.3482 28.817 69.0619 28.6841 68.711C28.5511 68.3602 28.4227 67.965 28.2986 67.5256C28.1998 67.1755 28.113 66.823 28.0383 66.468C27.9614 66.1055 27.8902 65.7182 27.8248 65.306C27.7126 65.3292 27.6256 65.3512 27.5636 65.3719C27.4995 65.3852 27.4474 65.396 27.4074 65.4043C27.1511 65.4573 26.9161 65.4508 26.7024 65.3847C26.4807 65.3202 26.3394 65.1799 26.2784 64.964C26.2406 64.8299 26.263 64.6991 26.3457 64.5716C26.4204 64.4458 26.5314 64.3282 26.6786 64.2189C26.8258 64.1096 26.9892 64.0127 27.1688 63.9283C27.3564 63.8421 27.5363 63.7734 27.7083 63.722C27.6494 63.5134 27.6003 63.2792 27.5608 63.0194C27.5214 62.7595 27.5113 62.5133 27.5304 62.2807C27.5554 62.039 27.619 61.8288 27.7212 61.65C27.8233 61.4712 27.9865 61.3586 28.2108 61.3121C28.339 61.2856 28.4616 61.2996 28.5788 61.3542C28.7018 61.3997 28.8111 61.4716 28.9068 61.5701C29.0003 61.6611 29.082 61.7703 29.1518 61.8978C29.2217 62.0252 29.2745 62.1522 29.3103 62.2788C29.3523 62.4278 29.3834 62.583 29.4035 62.7443C29.4236 62.9057 29.4342 63.1085 29.4353 63.3526C29.5673 63.3096 29.6573 63.283 29.7054 63.2731C29.7513 63.2557 29.7943 63.2428 29.8344 63.2346C29.9705 63.2064 30.1139 63.1885 30.2644 63.181C30.4229 63.1719 30.5695 63.1809 30.7044 63.2082C30.8473 63.2338 30.9714 63.283 31.0767 63.3558C31.1799 63.4211 31.2484 63.5134 31.282 63.6325C31.3199 63.7666 31.2934 63.8982 31.2027 64.0273C31.12 64.1548 31.001 64.2741 30.8458 64.385C30.6906 64.496 30.5192 64.5945 30.3316 64.6807C30.1418 64.7594 29.961 64.8244 29.7889 64.8758C29.8271 65.1911 29.8709 65.4816 29.9205 65.7472C29.9759 66.0038 30.0284 66.2649 30.078 66.5305C30.0977 66.6605 30.1184 66.7941 30.1403 66.9315C30.168 67.0598 30.2008 67.1909 30.2386 67.325C30.2659 67.4218 30.3025 67.5364 30.3484 67.6688C30.3921 67.7938 30.4549 67.9109 30.5366 68.0201C30.6182 68.1293 30.7238 68.2178 30.8531 68.2857C30.9804 68.346 31.1361 68.3571 31.3204 68.319C31.4325 68.2958 31.5466 68.2643 31.6625 68.2245C31.7763 68.1773 31.8933 68.1413 32.0135 68.1164C32.2218 68.0733 32.3889 68.1096 32.5148 68.2255C32.6488 68.3396 32.7452 68.501 32.8041 68.7095C32.8482 68.8659 32.835 69.0145 32.7645 69.1552C32.6999 69.2868 32.601 69.4019 32.4677 69.5005C32.3366 69.6064 32.1801 69.6979 31.9984 69.775C31.8247 69.8504 31.6537 69.9055 31.4855 69.9403Z" fill="white"/>
<path d="M32.9677 60.9541C32.9971 61.0584 32.9914 61.1581 32.9504 61.2533C32.9175 61.3468 32.8624 61.4371 32.7852 61.524C32.7059 61.6035 32.6154 61.6734 32.5138 61.7339C32.4101 61.7869 32.3101 61.8234 32.214 61.8433C32.0538 61.8764 31.9031 61.8682 31.762 61.8186C31.6208 61.769 31.5281 61.666 31.484 61.5096C31.4524 61.3979 31.4532 61.2952 31.4861 61.2017C31.525 61.099 31.5811 61.0125 31.6545 60.9422C31.7258 60.8643 31.8133 60.7989 31.917 60.7459C32.0207 60.6929 32.1247 60.6556 32.2288 60.6341C32.381 60.6026 32.5306 60.6071 32.6777 60.6476C32.8248 60.6881 32.9215 60.7902 32.9677 60.9541ZM34.136 64.7327C34.1654 64.8369 34.1969 64.9487 34.2306 65.0678C34.2621 65.1795 34.2886 65.2884 34.31 65.3943C34.3377 65.5226 34.3821 65.6947 34.443 65.9107C34.5019 66.1192 34.558 66.3481 34.6114 66.5972C34.6647 66.8462 34.7071 67.1016 34.7385 67.3631C34.778 67.6229 34.7871 67.8654 34.7658 68.0906C34.7446 68.3157 34.6848 68.5094 34.5865 68.6716C34.4941 68.8248 34.3488 68.9258 34.1506 68.9747C34.0005 69.0137 33.8566 68.9843 33.7188 68.8867C33.5811 68.7891 33.4499 68.6547 33.3252 68.4834C33.2065 68.303 33.0985 68.1007 33.0013 67.8764C32.902 67.6447 32.8138 67.4225 32.7368 67.2099C32.6578 66.9897 32.5919 66.7866 32.5394 66.6004C32.4868 66.4142 32.4479 66.2764 32.4227 66.187C32.3891 66.0679 32.3418 65.9003 32.2808 65.6843C32.2177 65.4609 32.1585 65.2209 32.103 64.9643C32.0476 64.7078 32.0031 64.445 31.9695 64.176C31.944 63.9054 31.9408 63.6538 31.96 63.4212C31.9871 63.187 32.0499 62.9888 32.1482 62.8265C32.2465 62.6643 32.3998 62.5616 32.6081 62.5185C32.8244 62.4737 33.0169 62.5402 33.1858 62.7181C33.3547 62.896 33.5051 63.1132 33.6368 63.3697C33.7686 63.6262 33.8763 63.8877 33.96 64.1542C34.0416 64.4132 34.1002 64.606 34.136 64.7327Z" fill="white"/>
<path d="M38.4923 68.407C38.0838 68.4916 37.6989 68.4648 37.3378 68.3267C36.9766 68.1887 36.6478 67.9848 36.3512 67.7151C36.0547 67.4454 35.8007 67.1314 35.5894 66.7731C35.3759 66.4073 35.2167 66.0383 35.1115 65.6659C35.0001 65.2711 34.9376 64.8544 34.924 64.4158C34.9083 63.9697 34.9603 63.553 35.0798 63.1656C35.1973 62.7708 35.3938 62.4305 35.6692 62.1449C35.9426 61.8518 36.3116 61.6572 36.7761 61.561C37.2247 61.4682 37.6378 61.5048 38.0153 61.6711C38.3988 61.8282 38.735 62.0581 39.024 62.3609C39.3108 62.6563 39.551 62.9968 39.7447 63.3824C39.9383 63.768 40.0735 64.142 40.1504 64.5045C40.2378 64.9042 40.2822 65.3168 40.2836 65.7422C40.293 66.1659 40.2387 66.5595 40.1208 66.9229C40.003 67.2863 39.8122 67.6017 39.5486 67.8691C39.2849 68.1365 38.9328 68.3158 38.4923 68.407ZM37.1871 63.3324C37.067 63.3573 36.9756 63.4393 36.9132 63.5783C36.8587 63.7157 36.8236 63.8767 36.8079 64.0613C36.8001 64.2442 36.8076 64.4358 36.8302 64.6361C36.8507 64.8289 36.8809 64.9961 36.9209 65.1376C36.9713 65.3163 37.042 65.5067 37.1329 65.7086C37.2318 65.9088 37.3386 66.0917 37.4531 66.2572C37.5655 66.4152 37.6826 66.5447 37.8044 66.6456C37.932 66.7375 38.0559 66.7709 38.1761 66.7461C38.3042 66.7195 38.3966 66.6413 38.4532 66.5113C38.5178 66.3797 38.5539 66.2224 38.5616 66.0395C38.5694 65.8566 38.5569 65.6621 38.5241 65.4561C38.4893 65.2425 38.4467 65.0464 38.3962 64.8677C38.3499 64.7038 38.2835 64.5284 38.1968 64.3414C38.108 64.1469 38.0074 63.9706 37.8949 63.8126C37.7905 63.6529 37.6745 63.5272 37.5468 63.4353C37.4272 63.3419 37.3073 63.3076 37.1871 63.3324Z" fill="white"/>
<path d="M45.1215 67.0229C44.9853 67.051 44.8604 67.0138 44.7466 66.9113C44.635 66.8161 44.5381 66.6982 44.456 66.5576C44.3739 66.4169 44.3039 66.2737 44.2458 66.1281C44.1936 65.9733 44.156 65.855 44.1329 65.7731C44.0698 65.5496 44.0188 65.3237 43.9797 65.0953C43.9487 64.8652 43.9177 64.6351 43.8866 64.4051C43.8636 64.1733 43.8326 63.9433 43.7936 63.7149C43.7625 63.4848 43.7155 63.258 43.6524 63.0346C43.6272 62.9452 43.5959 62.8492 43.5584 62.7466C43.521 62.644 43.4736 62.5513 43.4164 62.4686C43.365 62.3767 43.2989 62.3076 43.218 62.2613C43.1371 62.215 43.0446 62.2026 42.9404 62.2242C42.8683 62.2391 42.804 62.3116 42.7474 62.4415C42.6887 62.564 42.6393 62.7043 42.5992 62.8624C42.5649 63.0114 42.5397 63.1625 42.5236 63.3156C42.5134 63.4596 42.5177 63.5651 42.5366 63.6321C42.5829 63.796 42.6302 63.9636 42.6785 64.1349C42.7328 64.2971 42.7841 64.4638 42.8325 64.6351L43.0154 65.2831C43.0452 65.4188 43.0721 65.5591 43.096 65.7039C43.1199 65.8488 43.1348 65.9915 43.1406 66.1322C43.1544 66.2713 43.1551 66.4091 43.1428 66.5456C43.1284 66.6747 43.0948 66.796 43.042 66.9094C42.9951 67.0137 42.928 67.1064 42.8407 67.1876C42.7534 67.2687 42.6377 67.3242 42.4935 67.354C42.3333 67.3872 42.1875 67.3662 42.056 67.2909C41.9245 67.2156 41.8057 67.1101 41.6996 66.9744C41.5914 66.8313 41.495 66.67 41.4104 66.4904C41.3317 66.3017 41.2591 66.1197 41.1926 65.9442C41.1321 65.7597 41.0808 65.5929 41.0387 65.444C41.0026 65.2859 40.9719 65.1622 40.9467 65.0728L40.7985 64.5477C40.7186 64.2647 40.6317 63.9871 40.5379 63.7148C40.4521 63.4409 40.3704 63.1661 40.2926 62.8906C40.2505 62.7416 40.1969 62.5517 40.1318 62.3208C40.0746 62.0883 40.0436 61.8582 40.0387 61.6306C40.0317 61.3955 40.0702 61.1866 40.1542 61.0036C40.2382 60.8207 40.4044 60.7035 40.6527 60.6521C40.7648 60.6289 40.8744 60.6417 40.9815 60.6905C41.0885 60.7393 41.1877 60.8054 41.2791 60.889C41.3785 60.9709 41.464 61.0636 41.5356 61.167C41.6152 61.2688 41.6786 61.3581 41.7257 61.4351C41.7764 61.3142 41.8401 61.1946 41.917 61.0762C42.0018 60.9562 42.1017 60.8448 42.2169 60.7422C42.332 60.6395 42.4674 60.5484 42.623 60.4689C42.7786 60.3894 42.9646 60.3272 43.1808 60.2825C43.5893 60.1979 43.932 60.2255 44.2089 60.3653C44.4916 60.4959 44.7239 60.6883 44.9058 60.9423C45.0937 61.1872 45.2437 61.4636 45.3561 61.7714C45.4684 62.0793 45.5603 62.3598 45.6318 62.613C45.6675 62.7396 45.7091 62.932 45.7565 63.1903C45.8019 63.441 45.8396 63.7249 45.8697 64.0418C45.9058 64.3497 45.9249 64.6729 45.9272 65.0114C45.9274 65.3425 45.9042 65.6508 45.8576 65.9363C45.8111 66.2219 45.7268 66.464 45.6048 66.6627C45.4909 66.8597 45.3298 66.9797 45.1215 67.0229Z" fill="white"/>
<path d="M50.0413 57.4196C50.0707 57.5239 50.0649 57.6237 50.024 57.7188C49.991 57.8124 49.936 57.9026 49.8588 57.9895C49.7794 58.069 49.689 58.139 49.5873 58.1994C49.4836 58.2525 49.3837 58.2889 49.2876 58.3088C49.1274 58.342 48.9767 58.3337 48.8355 58.2841C48.6943 58.2345 48.6017 58.1315 48.5575 57.9751C48.526 57.8634 48.5267 57.7608 48.5596 57.6672C48.5985 57.5646 48.6546 57.4781 48.728 57.4077C48.7993 57.3299 48.8868 57.2645 48.9906 57.2115C49.0943 57.1585 49.1982 57.1212 49.3023 57.0996C49.4545 57.0681 49.6042 57.0726 49.7513 57.1131C49.8983 57.1536 49.995 57.2558 50.0413 57.4196ZM51.2095 61.1982C51.2389 61.3025 51.2705 61.4142 51.3041 61.5334C51.3357 61.6451 51.3621 61.7539 51.3836 61.8598C51.4113 61.9881 51.4556 62.1602 51.5166 62.3762C51.5755 62.5848 51.6316 62.8136 51.6849 63.0627C51.7383 63.3118 51.7807 63.5671 51.8121 63.8286C51.8515 64.0885 51.8606 64.331 51.8394 64.5561C51.8181 64.7812 51.7584 64.9749 51.66 65.1372C51.5676 65.2903 51.4223 65.3913 51.2242 65.4403C51.0741 65.4792 50.9301 65.4499 50.7924 65.3523C50.6546 65.2547 50.5234 65.1202 50.3988 64.9489C50.28 64.7686 50.172 64.5662 50.0748 64.342C49.9755 64.1103 49.8874 63.8881 49.8104 63.6754C49.7313 63.4553 49.6655 63.2521 49.6129 63.0659C49.5604 62.8797 49.5215 62.742 49.4962 62.6526C49.4626 62.5334 49.4153 62.3658 49.3543 62.1498C49.2913 61.9264 49.232 61.6864 49.1766 61.4299C49.1211 61.1733 49.0766 60.9106 49.0431 60.6416C49.0176 60.371 49.0144 60.1194 49.0335 59.8868C49.0607 59.6526 49.1234 59.4543 49.2217 59.2921C49.3201 59.1298 49.4734 59.0271 49.6816 58.984C49.8979 58.9392 50.0905 59.0058 50.2594 59.1837C50.4283 59.3616 50.5786 59.5788 50.7104 59.8353C50.8421 60.0918 50.9498 60.3533 51.0335 60.6198C51.1151 60.8788 51.1738 61.0716 51.2095 61.1982Z" fill="white"/>
<path d="M54.9776 58.1478C55.0386 58.3638 55.0037 58.5405 54.8729 58.678C54.7501 58.8137 54.6063 58.9499 54.4414 59.0866C54.2744 59.2157 54.1286 59.3602 54.0042 59.52C53.8877 59.6781 53.8652 59.8838 53.9367 60.137C53.9745 60.2711 54.0392 60.3799 54.1306 60.4634C54.23 60.5453 54.3393 60.6173 54.4586 60.6793C54.5837 60.7323 54.7179 60.7872 54.8612 60.8443C55.0045 60.9014 55.1389 60.9721 55.2644 61.0564C55.398 61.1392 55.5179 61.2484 55.624 61.3841C55.7381 61.5181 55.8257 61.6931 55.8866 61.9091C55.9749 62.2219 55.9741 62.5492 55.884 62.8911C55.7999 63.2238 55.6553 63.5376 55.4502 63.8323C55.2511 64.1179 55.0032 64.3663 54.7068 64.5774C54.4103 64.7886 54.0978 64.9281 53.7694 64.9961C53.6332 65.0243 53.4939 65.0413 53.3514 65.0472C53.2111 65.0605 53.0775 65.0527 52.9506 65.0237C52.8317 64.9932 52.7237 64.9406 52.6263 64.8662C52.5269 64.7843 52.4562 64.6689 52.4141 64.5199C52.3553 64.3114 52.3541 64.1421 52.4107 64.0121C52.4652 63.8747 52.5511 63.7584 52.6683 63.6632C52.7856 63.568 52.915 63.486 53.0567 63.4173C53.2064 63.3469 53.342 63.2715 53.4634 63.1912C53.5828 63.1034 53.6739 63.0057 53.7368 62.8981C53.7997 62.7905 53.808 62.6547 53.7617 62.4909C53.7176 62.3345 53.6043 62.1884 53.4219 62.0528C53.2454 61.908 53.0507 61.7591 52.838 61.6061C52.6231 61.4456 52.4171 61.2714 52.22 61.0836C52.0309 60.8942 51.8995 60.6691 51.8259 60.4084C51.7355 60.0882 51.7206 59.7799 51.7811 59.4836C51.8475 59.1781 51.9684 58.9008 52.144 58.6516C52.3275 58.4008 52.5557 58.188 52.8286 58.0133C53.0993 57.8311 53.4029 57.7052 53.7393 57.6356C53.8675 57.609 53.9948 57.5945 54.1213 57.592C54.2557 57.5878 54.3794 57.6055 54.4924 57.6452C54.6032 57.6774 54.7003 57.7362 54.7837 57.8214C54.873 57.8975 54.9377 58.0063 54.9776 58.1478Z" fill="white"/>
<path d="M65.7282 57.3531C65.7745 57.5169 65.8327 57.7532 65.9029 58.0619C65.9709 58.3631 66.0324 58.7012 66.0874 59.0761C66.1482 59.4419 66.1922 59.823 66.2193 60.2194C66.2444 60.6084 66.2359 60.9688 66.1939 61.3007C66.1519 61.6326 66.0672 61.9182 65.9397 62.1574C65.8102 62.3892 65.6172 62.5316 65.3609 62.5847C65.1206 62.6345 64.8824 62.6167 64.6465 62.5316C64.4084 62.439 64.1829 62.3162 63.9702 62.1631C63.7553 62.0026 63.5573 61.8268 63.3762 61.6357C63.1951 61.4446 63.0393 61.268 62.9087 61.1058C62.6333 60.7608 62.36 60.4232 62.0887 60.0931C61.8154 59.7555 61.549 59.4125 61.2896 59.0642L61.3779 59.377C61.4683 59.6973 61.5547 60.0184 61.6371 60.3403C61.7254 60.6531 61.7897 60.9709 61.8299 61.2936C61.8496 61.4236 61.8716 61.5767 61.896 61.753C61.9262 61.9201 61.9444 62.0898 61.9506 62.2619C61.9568 62.4341 61.9398 62.5992 61.8997 62.7573C61.8675 62.9137 61.7968 63.0387 61.6876 63.1323C61.626 63.1845 61.5642 63.2209 61.5022 63.2416C61.4483 63.2607 61.3873 63.2851 61.3195 63.3149L61.2834 63.3224C61.0992 63.3605 60.9272 63.337 60.7675 63.2518C60.6057 63.1592 60.4555 63.0326 60.317 62.8721C60.1763 62.7041 60.0464 62.5142 59.9273 62.3024C59.814 62.0815 59.7109 61.8663 59.6179 61.657C59.5308 61.4385 59.457 61.237 59.3964 61.0525C59.3358 60.8679 59.2898 60.7198 59.2583 60.6081C59.2099 60.4368 59.1475 60.1856 59.071 59.8546C58.9924 59.5161 58.9204 59.1408 58.855 58.7286C58.7975 58.3148 58.7489 57.8874 58.7092 57.4463C58.6775 57.0035 58.6814 56.5967 58.7208 56.2259C58.7582 55.8477 58.8425 55.5307 58.9738 55.2749C59.103 55.0116 59.2957 54.8535 59.552 54.8004C59.8004 54.749 60.0459 54.7928 60.2886 54.9318C60.5393 55.0691 60.7754 55.2448 60.997 55.4591C61.2185 55.6734 61.4192 55.9038 61.599 56.1504C61.7788 56.397 61.93 56.6022 62.0526 56.766C62.2875 57.0878 62.5185 57.4105 62.7455 57.7341C62.9703 58.0501 63.1933 58.3745 63.4144 58.7071C63.4266 58.7204 63.4542 58.758 63.4971 58.8201C63.5401 58.8821 63.5891 58.9508 63.6443 59.0261C63.7016 59.1088 63.77 59.2011 63.8496 59.3029C63.8222 59.206 63.7993 59.1398 63.7808 59.1042C63.7682 59.0596 63.7577 59.0223 63.7493 58.9925C63.7388 58.9553 63.7261 58.9106 63.7114 58.8585C63.6967 58.8063 63.6736 58.7244 63.6421 58.6127C63.5647 58.3686 63.4873 58.1244 63.4099 57.8803C63.3405 57.6345 63.2722 57.3925 63.2049 57.1541C63.1755 57.0499 63.1345 56.9046 63.082 56.7184C63.0374 56.5306 62.9937 56.3307 62.9509 56.1189C62.9139 55.8979 62.885 55.6753 62.8641 55.451C62.8432 55.2267 62.8446 55.0214 62.8683 54.8352C62.898 54.6399 62.9531 54.4748 63.0337 54.3398C63.1223 54.2032 63.2508 54.1175 63.419 54.0827C63.6192 54.0412 63.8114 54.0763 63.9955 54.188C64.1797 54.2997 64.3513 54.4573 64.5105 54.6608C64.6676 54.8569 64.8131 55.0869 64.9469 55.3509C65.0787 55.6074 65.1973 55.8627 65.303 56.1168C65.4086 56.3708 65.4969 56.6087 65.568 56.8305C65.6391 57.0523 65.6925 57.2265 65.7282 57.3531Z" fill="white"/>
<path d="M70.2483 61.8331C69.8398 61.9177 69.455 61.8909 69.0939 61.7528C68.7327 61.6147 68.4039 61.4108 68.1073 61.1411C67.8108 60.8714 67.5568 60.5574 67.3455 60.1992C67.132 59.8334 66.9727 59.4643 66.8676 59.0919C66.7562 58.6972 66.6937 58.2805 66.6801 57.8419C66.6644 57.3958 66.7163 56.979 66.8359 56.5917C66.9534 56.1968 67.1498 55.8566 67.4253 55.571C67.6987 55.2779 68.0676 55.0833 68.5322 54.9871C68.9808 54.8942 69.3938 54.9309 69.7714 55.0971C70.1549 55.2542 70.4911 55.4842 70.78 55.787C71.0669 56.0824 71.3071 56.4229 71.5007 56.8085C71.6944 57.1941 71.8296 57.5681 71.9065 57.9306C71.9939 58.3303 72.0383 58.7429 72.0396 59.1683C72.049 59.592 71.9948 59.9856 71.8769 60.349C71.759 60.7123 71.5683 61.0277 71.3046 61.2952C71.041 61.5626 70.6889 61.7419 70.2483 61.8331ZM68.9432 56.7585C68.823 56.7834 68.7317 56.8653 68.6692 57.0044C68.6148 57.1418 68.5796 57.3028 68.5639 57.4874C68.5562 57.6703 68.5636 57.8619 68.5863 58.0622C68.6068 58.255 68.637 58.4222 68.677 58.5637C68.7274 58.7424 68.7981 58.9328 68.889 59.1347C68.9879 59.3349 69.0946 59.5178 69.2092 59.6833C69.3216 59.8413 69.4387 59.9708 69.5604 60.0717C69.6881 60.1635 69.812 60.197 69.9321 60.1721C70.0603 60.1456 70.1527 60.0674 70.2093 59.9374C70.2738 59.8058 70.31 59.6485 70.3177 59.4656C70.3254 59.2827 70.3129 59.0882 70.2802 58.8821C70.2454 58.6686 70.2027 58.4725 70.1523 58.2937C70.106 58.1299 70.0395 57.9544 69.9528 57.7674C69.864 57.573 69.7634 57.3967 69.651 57.2387C69.5466 57.079 69.4305 56.9532 69.3029 56.8614C69.1832 56.7679 69.0633 56.7336 68.9432 56.7585Z" fill="white"/>
<path d="M76.29 60.6652C75.7213 60.7829 75.2568 60.8042 74.8964 60.729C74.5462 60.6596 74.2552 60.5149 74.0236 60.2948C73.7999 60.0731 73.6216 59.7868 73.4886 59.4359C73.3557 59.085 73.2272 58.6899 73.1032 58.2504C73.0044 57.9004 72.9176 57.5479 72.8428 57.1928C72.7659 56.8303 72.6947 56.443 72.6293 56.0309C72.5171 56.0541 72.4301 56.0761 72.3681 56.0968C72.304 56.1101 72.252 56.1208 72.2119 56.1291C71.9556 56.1822 71.7206 56.1757 71.5069 56.1095C71.2853 56.045 71.1439 55.9048 71.083 55.6888C71.0451 55.5548 71.0676 55.424 71.1503 55.2965C71.225 55.1707 71.3359 55.0531 71.4831 54.9438C71.6303 54.8345 71.7937 54.7376 71.9733 54.6531C72.161 54.567 72.3408 54.4982 72.5128 54.4468C72.454 54.2383 72.4048 54.0041 72.3654 53.7442C72.3259 53.4844 72.3158 53.2382 72.3349 53.0056C72.36 52.7639 72.4236 52.5537 72.5257 52.3749C72.6278 52.196 72.791 52.0834 73.0153 52.037C73.1435 52.0105 73.2661 52.0245 73.3833 52.0791C73.5063 52.1246 73.6157 52.1965 73.7113 52.295C73.8048 52.386 73.8865 52.4952 73.9564 52.6226C74.0263 52.7501 74.0791 52.8771 74.1148 53.0037C74.1568 53.1527 74.1879 53.3078 74.208 53.4692C74.2282 53.6306 74.2388 53.8334 74.2399 54.0775C74.3718 54.0344 74.4618 54.0079 74.5099 53.998C74.5559 53.9806 74.5989 53.9677 74.6389 53.9594C74.7751 53.9312 74.9184 53.9134 75.0689 53.9059C75.2274 53.8967 75.3741 53.9058 75.5089 53.933C75.6518 53.9586 75.7759 54.0078 75.8813 54.0806C75.9845 54.146 76.0529 54.2382 76.0865 54.3574C76.1244 54.4915 76.0979 54.6231 76.0072 54.7522C75.9245 54.8797 75.8056 54.9989 75.6504 55.1099C75.4952 55.2208 75.3237 55.3194 75.1361 55.4055C74.9464 55.4842 74.7655 55.5493 74.5935 55.6006C74.6316 55.916 74.6754 56.2064 74.725 56.4721C74.7804 56.7286 74.8329 56.9897 74.8825 57.2554C74.9022 57.3853 74.923 57.519 74.9448 57.6564C74.9725 57.7846 75.0053 57.9158 75.0431 58.0499C75.0705 58.1467 75.1071 58.2613 75.1529 58.3937C75.1967 58.5187 75.2594 58.6358 75.3411 58.745C75.4228 58.8542 75.5283 58.9427 75.6577 59.0105C75.7849 59.0709 75.9407 59.082 76.1249 59.0439C76.237 59.0207 76.3511 58.9892 76.467 58.9494C76.5809 58.9022 76.6979 58.8661 76.818 58.8413C77.0263 58.7982 77.1934 58.8345 77.3193 58.9503C77.4533 59.0645 77.5497 59.2258 77.6086 59.4344C77.6527 59.5908 77.6396 59.7394 77.5691 59.8801C77.5045 60.0117 77.4055 60.1268 77.2723 60.2253C77.1411 60.3313 76.9846 60.4228 76.8029 60.4999C76.6292 60.5752 76.4582 60.6303 76.29 60.6652Z" fill="white"/>
<path d="M35.1387 80.6304C35.1807 80.7793 35.2152 80.9614 35.242 81.1766C35.2768 81.3901 35.2815 81.6019 35.2561 81.8122C35.2285 82.015 35.1656 82.1975 35.0673 82.3597C34.9668 82.5145 34.8045 82.6152 34.5802 82.6616C34.2838 82.7229 34.0311 82.6688 33.8222 82.4992C33.6213 82.328 33.4498 82.1112 33.308 81.8489C33.164 81.5791 33.043 81.3007 32.945 81.0135C32.855 80.7247 32.7818 80.4955 32.7255 80.3258C32.174 80.5346 31.6273 80.7305 31.0856 80.9136C31.1179 81.0883 31.1418 81.308 31.1572 81.5728C31.1806 81.836 31.1698 82.0984 31.125 82.3599C31.086 82.6124 31.0026 82.8425 30.8747 83.0503C30.7549 83.2564 30.5708 83.3852 30.3225 83.4366C30.1302 83.4764 29.9602 83.4446 29.8123 83.3412C29.6703 83.2286 29.5461 83.0888 29.4395 82.9217C29.333 82.7545 29.2455 82.5795 29.1769 82.3966C29.1142 82.2047 29.065 82.0454 29.0293 81.9187C28.9095 81.4942 28.8278 81.0697 28.7842 80.6451C28.7386 80.2131 28.706 79.7823 28.6865 79.3528C28.6736 79.1268 28.6662 78.8603 28.6644 78.5533C28.6625 78.2462 28.6745 77.9284 28.7004 77.5998C28.7323 77.2621 28.7823 76.9286 28.8504 76.5992C28.9244 76.2606 29.0279 75.9515 29.1609 75.6717C29.2939 75.3919 29.4675 75.151 29.6818 74.949C29.896 74.747 30.1594 74.6136 30.4718 74.5489C30.7762 74.4859 31.0584 74.4945 31.3184 74.5747C31.5784 74.6549 31.822 74.7818 32.049 74.9556C32.2761 75.1293 32.4835 75.3386 32.6714 75.5835C32.8571 75.821 33.0249 76.07 33.1748 76.3307C33.3305 76.5822 33.4693 76.8334 33.5909 77.0841C33.7205 77.3332 33.8338 77.5541 33.9306 77.7469C34.1714 78.2095 34.3982 78.6828 34.6112 79.1669C34.822 79.6435 34.9978 80.1313 35.1387 80.6304ZM32.0535 78.3956C32.0283 78.3062 31.9793 78.1627 31.9065 77.9649C31.8396 77.758 31.7578 77.5582 31.661 77.3654C31.562 77.1651 31.4465 76.9959 31.3142 76.8577C31.1879 76.7105 31.0526 76.6517 30.9084 76.6816C30.8283 76.6982 30.7669 76.7661 30.7243 76.8853C30.6795 76.997 30.6512 77.1369 30.6392 77.3049C30.6252 77.4655 30.6204 77.6438 30.6249 77.84C30.6374 78.0345 30.6519 78.2207 30.6682 78.3986C30.6845 78.5766 30.7046 78.7379 30.7285 78.8828C30.7503 79.0201 30.7657 79.1194 30.7745 79.1807C31.2446 79.044 31.7014 78.8903 32.1449 78.7196L32.0535 78.3956Z" fill="white"/>
<path d="M40.436 77.0506C40.3728 77.6076 40.2959 78.1911 40.2052 78.8011C40.1146 79.4111 39.9934 79.988 39.8417 80.5318C39.7495 80.8662 39.6237 81.1563 39.4642 81.4022C39.3026 81.6406 39.0816 81.7889 38.8013 81.8469C38.577 81.8933 38.3273 81.8346 38.0521 81.6709C37.7829 81.498 37.5152 81.2854 37.249 81.0331C36.9886 80.7716 36.7484 80.506 36.5281 80.2363C36.3137 79.9575 36.1493 79.7353 36.0348 79.5698C35.9139 79.382 35.7809 79.1809 35.6356 78.9666C35.4903 78.7523 35.352 78.5326 35.2207 78.3076C35.0893 78.0825 34.971 77.8587 34.8658 77.6361C34.7585 77.406 34.6754 77.1867 34.6165 76.9782C34.5345 76.6877 34.5233 76.4378 34.5829 76.2284C34.6425 76.019 34.8365 75.8802 35.1649 75.8123C35.2931 75.7857 35.4197 75.7989 35.5449 75.8519C35.668 75.8973 35.7914 75.9743 35.9153 76.0826C36.0391 76.191 36.1653 76.3226 36.2937 76.4773C36.4201 76.6245 36.5477 76.7913 36.6765 76.9774C36.8033 77.1562 36.9281 77.3432 37.051 77.5384C37.174 77.7337 37.2948 77.9215 37.4136 78.1019C37.5323 78.2823 37.65 78.459 37.7666 78.6319C37.8892 78.7957 38.0317 78.9554 38.1943 79.1109C38.2126 78.9653 38.2336 78.7993 38.2573 78.6131C38.281 78.4269 38.3056 78.2286 38.3311 78.0184C38.3645 77.8065 38.4009 77.5901 38.4403 77.3691C38.4776 77.1407 38.5249 76.918 38.5824 76.7011C38.6852 76.2542 38.8167 75.8643 38.9772 75.5315C39.1456 75.1971 39.35 75.005 39.5903 74.9553C39.8145 74.9089 39.9926 74.939 40.1245 75.0457C40.2563 75.1524 40.3506 75.3063 40.4074 75.5074C40.4642 75.7085 40.4922 75.9432 40.4916 76.2113C40.491 76.4795 40.4725 76.7592 40.436 77.0506Z" fill="white"/>
<path d="M47.0317 78.2511C47.0696 78.3852 47.111 78.5619 47.1559 78.7812C47.2089 78.9988 47.2367 79.2177 47.2395 79.4379C47.2402 79.6506 47.2015 79.8438 47.1234 80.0177C47.0453 80.1915 46.8981 80.3008 46.6818 80.3456C46.3855 80.4069 46.132 80.3648 45.9213 80.2192C45.7106 80.0736 45.5715 79.8659 45.5038 79.5962C45.3063 79.8578 45.0602 80.0821 44.7654 80.2693C44.4787 80.4548 44.1671 80.5824 43.8307 80.652C43.5984 80.7001 43.3634 80.6936 43.1257 80.6324C42.888 80.5712 42.6659 80.4753 42.4595 80.3446C42.253 80.2139 42.0733 80.058 41.9205 79.8768C41.7655 79.6882 41.6596 79.4933 41.6028 79.2922C41.5019 78.9347 41.5298 78.5978 41.6864 78.2816C41.851 77.9637 42.0793 77.6761 42.3712 77.4186C42.6609 77.1536 42.9823 76.9255 43.3352 76.7342C43.6962 76.5412 44.0236 76.3946 44.3175 76.2943C44.307 76.2571 44.2975 76.2236 44.2891 76.1938C44.2887 76.1623 44.2833 76.128 44.2728 76.0907C44.2076 75.8599 44.0869 75.6878 43.9108 75.5744C43.7347 75.4611 43.5225 75.4302 43.2742 75.4816C43.0739 75.523 42.9112 75.5922 42.7859 75.6891C42.6586 75.7785 42.5424 75.8774 42.4373 75.9859C42.3302 76.0869 42.222 76.1842 42.1127 76.2778C42.0014 76.3639 41.8656 76.4235 41.7054 76.4567C41.5292 76.4932 41.3623 76.4725 41.2047 76.3948C41.0551 76.3154 40.9572 76.1938 40.911 76.0299C40.8416 75.7841 40.8546 75.5449 40.95 75.3123C41.0535 75.0781 41.2024 74.8699 41.3969 74.6877C41.5972 74.4965 41.8231 74.3354 42.0744 74.2045C42.3316 74.0646 42.5764 73.9705 42.8087 73.9225C43.025 73.8777 43.2486 73.859 43.4796 73.8664C43.7085 73.8663 43.9337 73.8985 44.1554 73.9629C44.375 74.02 44.5819 74.1072 44.7761 74.2247C44.9763 74.333 45.1517 74.4741 45.3025 74.6478C45.5245 74.8935 45.7237 75.1637 45.9001 75.4583C46.0744 75.7454 46.2318 76.0478 46.3724 76.3656C46.5108 76.6759 46.6343 76.9932 46.7428 77.3176C46.8492 77.6346 46.9455 77.9457 47.0317 78.2511ZM45.0084 78.2916L44.7579 77.5393C44.7419 77.5427 44.7259 77.546 44.7099 77.5493C44.6918 77.5452 44.6747 77.5448 44.6587 77.5481C44.5545 77.5696 44.4297 77.6231 44.2842 77.7084C44.1447 77.7846 44.0154 77.8823 43.8964 78.0015C43.7754 78.1133 43.6775 78.2321 43.6028 78.3579C43.5361 78.4821 43.5185 78.6 43.5501 78.7117C43.5795 78.816 43.6395 78.8785 43.7301 78.8991C43.8207 78.9198 43.9181 78.9193 44.0222 78.8978C44.1985 78.8613 44.3751 78.7814 44.5523 78.658C44.7273 78.5271 44.8793 78.405 45.0084 78.2916Z" fill="white"/>
<path d="M47.9787 71.4687C48.0082 71.573 48.0024 71.6727 47.9614 71.7679C47.9285 71.8614 47.8734 71.9517 47.7962 72.0386C47.7169 72.1181 47.6265 72.188 47.5248 72.2485C47.4211 72.3015 47.3212 72.338 47.225 72.3579C47.0648 72.391 46.9142 72.3828 46.773 72.3332C46.6318 72.2836 46.5391 72.1806 46.495 72.0242C46.4635 71.9125 46.4642 71.8098 46.4971 71.7163C46.536 71.6136 46.5921 71.5271 46.6655 71.4568C46.7368 71.3789 46.8243 71.3135 46.928 71.2605C47.0318 71.2075 47.1357 71.1702 47.2398 71.1487C47.392 71.1172 47.5417 71.1217 47.6887 71.1622C47.8358 71.2027 47.9325 71.3048 47.9787 71.4687ZM49.147 75.2473C49.1764 75.3515 49.208 75.4633 49.2416 75.5824C49.2731 75.6941 49.2996 75.803 49.321 75.9089C49.3488 76.0372 49.3931 76.2093 49.4541 76.4253C49.5129 76.6338 49.569 76.8627 49.6224 77.1118C49.6757 77.3608 49.7181 77.6162 49.7496 77.8777C49.789 78.1375 49.7981 78.38 49.7769 78.6052C49.7556 78.8303 49.6958 79.024 49.5975 79.1862C49.5051 79.3394 49.3598 79.4404 49.1616 79.4893C49.0116 79.5283 48.8676 79.4989 48.7299 79.4013C48.5921 79.3037 48.4609 79.1693 48.3362 78.998C48.2175 78.8176 48.1095 78.6153 48.0123 78.391C47.913 78.1593 47.8248 77.9371 47.7479 77.7245C47.6688 77.5043 47.603 77.3012 47.5504 77.115C47.4978 76.9288 47.459 76.791 47.4337 76.7016C47.4001 76.5825 47.3528 76.4149 47.2918 76.1989C47.2288 75.9755 47.1695 75.7355 47.114 75.4789C47.0586 75.2224 47.0141 74.9596 46.9806 74.6906C46.955 74.42 46.9519 74.1684 46.971 73.9358C46.9981 73.7016 47.0609 73.5034 47.1592 73.3411C47.2575 73.1789 47.4108 73.0762 47.6191 73.0331C47.8354 72.9883 48.028 73.0548 48.1969 73.2327C48.3658 73.4106 48.5161 73.6278 48.6478 73.8843C48.7796 74.1408 48.8873 74.4023 48.971 74.6688C49.0526 74.9278 49.1113 75.1206 49.147 75.2473Z" fill="white"/>
<path d="M51.4649 71.8349C51.5784 72.2371 51.6729 72.6471 51.7485 73.0651C51.83 73.4739 51.9285 73.8831 52.0442 74.2928C52.1934 74.8216 52.3587 75.3471 52.54 75.8692C52.7293 76.3897 52.8997 76.9181 53.051 77.4544C53.0889 77.5884 53.1239 77.7428 53.1563 77.9174C53.1865 78.0846 53.1895 78.2456 53.1654 78.4003C53.1493 78.5534 53.0948 78.6909 53.002 78.8126C52.9092 78.9342 52.7626 79.0158 52.5624 79.0573C52.3701 79.0971 52.1767 79.0425 51.982 78.8936C51.7975 78.7505 51.6194 78.5548 51.4476 78.3066C51.2817 78.0493 51.1194 77.7597 50.9607 77.4378C50.81 77.1142 50.6745 76.7993 50.5542 76.4932C50.4398 76.1779 50.3378 75.8916 50.2482 75.6342C50.1645 75.3677 50.1047 75.1712 50.069 75.0446C50.0291 74.9031 49.9753 74.6974 49.9076 74.4276C49.8479 74.1562 49.794 73.8599 49.7457 73.5388C49.6975 73.2177 49.6602 72.8904 49.6339 72.5569C49.6135 72.2142 49.6226 71.901 49.6611 71.6171C49.6976 71.3257 49.7688 71.0824 49.8747 70.887C49.9866 70.6825 50.1506 70.5579 50.3669 70.5131C50.5431 70.4767 50.6911 70.5052 50.8107 70.5986C50.9363 70.683 51.0412 70.7993 51.1253 70.9474C51.2074 71.088 51.2767 71.2432 51.333 71.4129C51.3873 71.575 51.4312 71.7157 51.4649 71.8349Z" fill="white"/>
<path d="M58.9508 75.7837C58.9886 75.9178 59.03 76.0945 59.075 76.3138C59.1279 76.5314 59.1558 76.7503 59.1586 76.9705C59.1593 77.1832 59.1206 77.3764 59.0425 77.5503C58.9643 77.7241 58.8172 77.8334 58.6009 77.8782C58.3045 77.9395 58.051 77.8974 57.8403 77.7518C57.6297 77.6062 57.4905 77.3986 57.4228 77.1288C57.2254 77.3904 56.9793 77.6148 56.6845 77.8019C56.3977 77.9874 56.0861 78.115 55.7497 78.1846C55.5174 78.2327 55.2824 78.2262 55.0447 78.165C54.807 78.1038 54.585 78.0079 54.3785 77.8772C54.1721 77.7465 53.9924 77.5906 53.8395 77.4094C53.6845 77.2208 53.5786 77.0259 53.5219 76.8248C53.421 76.4673 53.4488 76.1304 53.6054 75.8142C53.7701 75.4963 53.9983 75.2087 54.2902 74.9512C54.58 74.6862 54.9013 74.4581 55.2543 74.2668C55.6152 74.0738 55.9427 73.9272 56.2365 73.8269C56.226 73.7897 56.2166 73.7562 56.2082 73.7264C56.2078 73.6949 56.2023 73.6606 56.1918 73.6233C56.1266 73.3925 56.006 73.2204 55.8299 73.107C55.6538 72.9937 55.4415 72.9628 55.1932 73.0142C54.993 73.0556 54.8302 73.1248 54.705 73.2217C54.5776 73.3111 54.4614 73.41 54.3564 73.5185C54.2492 73.6195 54.141 73.7168 54.0318 73.8104C53.9204 73.8965 53.7847 73.9561 53.6245 73.9893C53.4482 74.0258 53.2813 74.0051 53.1237 73.9274C52.9742 73.848 52.8762 73.7264 52.83 73.5625C52.7606 73.3167 52.7736 73.0775 52.8691 72.8449C52.9725 72.6107 53.1215 72.4025 53.3159 72.2203C53.5163 72.0291 53.7421 71.868 53.9934 71.7371C54.2507 71.5972 54.4954 71.5031 54.7277 71.4551C54.944 71.4103 55.1676 71.3916 55.3986 71.399C55.6275 71.3989 55.8528 71.4311 56.0745 71.4955C56.294 71.5526 56.5009 71.6398 56.6952 71.7573C56.8953 71.8656 57.0708 72.0067 57.2216 72.1804C57.4435 72.4261 57.6427 72.6963 57.8191 72.9909C57.9934 73.278 58.1508 73.5804 58.2914 73.8982C58.4299 74.2085 58.5533 74.5259 58.6619 74.8502C58.7683 75.1672 58.8646 75.4783 58.9508 75.7837ZM56.9274 75.8242L56.677 75.0719C56.661 75.0753 56.6449 75.0786 56.6289 75.0819C56.6108 75.0778 56.5937 75.0774 56.5777 75.0807C56.4736 75.1022 56.3488 75.1557 56.2033 75.241C56.0637 75.3172 55.9344 75.4149 55.8155 75.5341C55.6944 75.6459 55.5965 75.7647 55.5218 75.8905C55.4551 76.0147 55.4376 76.1326 55.4691 76.2443C55.4985 76.3486 55.5586 76.4111 55.6492 76.4317C55.7398 76.4524 55.8372 76.4519 55.9413 76.4304C56.1175 76.3939 56.2942 76.314 56.4713 76.1906C56.6463 76.0597 56.7984 75.9376 56.9274 75.8242Z" fill="white"/>
<path d="M64.7589 72.3465C64.8198 72.5625 64.8692 72.8124 64.9069 73.0963C64.9506 73.371 64.9723 73.6582 64.9721 73.9578C64.9799 74.2558 64.9575 74.5521 64.905 74.8467C64.8606 75.1397 64.7767 75.4133 64.6534 75.6674C64.5361 75.9124 64.3751 76.1231 64.1705 76.2995C63.974 76.4742 63.7195 76.5939 63.4071 76.6586C63.0787 76.7265 62.7583 76.718 62.4461 76.6328C62.1418 76.546 61.8588 76.3997 61.5972 76.1937C61.6299 76.3997 61.5923 76.5967 61.4842 76.7846C61.3741 76.9651 61.2029 77.0794 60.9706 77.1275C60.8344 77.1557 60.7004 77.1164 60.5685 77.0097C60.4447 76.9013 60.3274 76.7561 60.2167 76.5741C60.1038 76.3846 59.9978 76.174 59.8985 75.9423C59.8072 75.7089 59.726 75.4813 59.6549 75.2596C59.5838 75.0378 59.523 74.8375 59.4726 74.6588C59.4221 74.48 59.3864 74.3534 59.3654 74.2789C59.2939 74.0257 59.2224 73.7725 59.151 73.5192C59.0875 73.2643 59.023 73.0057 58.9574 72.7434C58.9217 72.6168 58.8641 72.4277 58.7846 72.1761C58.7131 71.9229 58.6383 71.6427 58.5601 71.3357C58.4798 71.0213 58.4065 70.7014 58.3401 70.3762C58.2796 70.0418 58.2476 69.7331 58.244 69.4501C58.2404 69.167 58.2786 68.9266 58.3584 68.7287C58.4382 68.5309 58.5772 68.4075 58.7753 68.3586C58.9355 68.3255 59.0864 68.3494 59.228 68.4305C59.3695 68.5115 59.5005 68.6303 59.621 68.7866C59.7494 68.9414 59.8642 69.1226 59.9652 69.3303C60.0721 69.5289 60.1641 69.7345 60.2411 69.9472C60.3239 70.1507 60.3927 70.3493 60.4474 70.543C60.5079 70.7275 60.555 70.8794 60.5887 70.9985C60.595 71.0209 60.6057 71.0739 60.6208 71.1574C60.6418 71.2319 60.665 71.3139 60.6902 71.4032C60.7154 71.4926 60.7385 71.5745 60.7596 71.649C60.7785 71.716 60.789 71.7533 60.7911 71.7607C60.8232 71.6043 60.8885 71.4449 60.9868 71.2827C61.0851 71.1204 61.2037 70.9698 61.3425 70.8307C61.4813 70.6916 61.6333 70.5695 61.7986 70.4643C61.9639 70.3591 62.1307 70.2891 62.2989 70.2543C62.6353 70.1846 62.9388 70.2085 63.2093 70.326C63.4858 70.4343 63.7268 70.5972 63.9323 70.8148C64.1379 71.0324 64.3097 71.2807 64.4477 71.5595C64.5837 71.8309 64.6874 72.0933 64.7589 72.3465ZM63.0872 73.0473C63.062 72.9579 63.0267 72.8627 62.9812 72.7618C62.9438 72.6592 62.8884 72.5681 62.8151 72.4887C62.7499 72.4076 62.6688 72.3456 62.5718 72.3026C62.4829 72.2579 62.3784 72.248 62.2583 72.2729C62.1301 72.2994 62.0093 72.352 61.8958 72.4307C61.7904 72.5077 61.6932 72.5988 61.6042 72.7039C61.5151 72.8091 61.4362 72.92 61.3674 73.0367C61.2966 73.146 61.2377 73.2528 61.1908 73.3571L61.3513 74.3763C61.5278 74.521 61.7229 74.6265 61.9366 74.6926C62.1481 74.7513 62.3701 74.7566 62.6024 74.7085C62.7786 74.672 62.908 74.5901 62.9908 74.4626C63.0815 74.3334 63.1379 74.1877 63.1599 74.0255C63.1878 73.8542 63.1896 73.6804 63.1653 73.5041C63.149 73.3262 63.123 73.1739 63.0872 73.0473Z" fill="white"/>
<path d="M66.8683 68.6462C66.9818 69.0484 67.0764 69.4584 67.152 69.8764C67.2334 70.2852 67.332 70.6944 67.4476 71.104C67.5969 71.6329 67.7621 72.1583 67.9434 72.6805C68.1328 73.201 68.3031 73.7294 68.4544 74.2657C68.4923 74.3997 68.5274 74.5541 68.5597 74.7287C68.5899 74.8959 68.593 75.0568 68.5688 75.2116C68.5527 75.3647 68.4982 75.5021 68.4054 75.6238C68.3126 75.7455 68.1661 75.8271 67.9658 75.8686C67.7736 75.9084 67.5801 75.8538 67.3855 75.7049C67.201 75.5618 67.0228 75.3661 66.851 75.1179C66.6851 74.8606 66.5228 74.5709 66.3641 74.249C66.2135 73.9255 66.078 73.6106 65.9576 73.3045C65.8432 72.9892 65.7412 72.7028 65.6516 72.4455C65.5679 72.179 65.5082 71.9825 65.4724 71.8559C65.4325 71.7143 65.3787 71.5087 65.311 71.2389C65.2514 70.9675 65.1974 70.6712 65.1492 70.3501C65.1009 70.029 65.0636 69.7017 65.0373 69.3681C65.0169 69.0255 65.026 68.7122 65.0646 68.4283C65.101 68.137 65.1722 67.8937 65.2782 67.6983C65.39 67.4938 65.5541 67.3692 65.7704 67.3244C65.9466 67.288 66.0945 67.3165 66.2142 67.4099C66.3397 67.4943 66.4446 67.6105 66.5288 67.7587C66.6109 67.8993 66.6801 68.0545 66.7365 68.2241C66.7907 68.3863 66.8347 68.527 66.8683 68.6462Z" fill="white"/>
<path d="M74.1654 72.1966C74.2369 72.4498 74.2192 72.7175 74.1124 72.9998C74.0115 73.273 73.8561 73.5337 73.6465 73.7821C73.4427 74.0213 73.2094 74.2312 72.9467 74.4118C72.6819 74.5848 72.4253 74.6971 72.177 74.7485C71.7524 74.8364 71.3446 74.8183 70.9536 74.6943C70.5684 74.5612 70.2206 74.3652 69.9101 74.1062C69.5996 73.8473 69.3328 73.5478 69.1096 73.2077C68.8924 72.8585 68.7343 72.5089 68.6355 72.1589C68.5304 71.7865 68.474 71.3764 68.4663 70.9286C68.4587 70.4809 68.5165 70.055 68.6399 69.6511C68.7713 69.2455 68.9755 68.8879 69.2527 68.5783C69.5379 68.267 69.9208 68.0616 70.4014 67.9621C70.6737 67.9057 70.9466 67.8965 71.2202 67.9345C71.4916 67.965 71.7415 68.0394 71.9699 68.1577C72.1983 68.2759 72.399 68.4315 72.5721 68.6242C72.7452 68.817 72.8696 69.0475 72.9453 69.3156C73.0441 69.6656 73.0565 70.0099 72.9825 70.3485C72.9085 70.687 72.7709 70.9953 72.5696 71.2735C72.3683 71.5517 72.1155 71.7971 71.811 72.01C71.5044 72.2153 71.1729 72.3628 70.8167 72.4523C70.9097 72.6616 71.046 72.799 71.2255 72.8643C71.413 72.928 71.6149 72.9374 71.8312 72.8926C71.9914 72.8595 72.1371 72.7899 72.2683 72.6839C72.3994 72.5779 72.5245 72.4653 72.6434 72.3461C72.7603 72.2194 72.8763 72.1047 72.9914 72.0021C73.1146 71.8978 73.2483 71.8307 73.3925 71.8008C73.5527 71.7677 73.7105 71.7862 73.866 71.8565C74.0215 71.9268 74.1213 72.0402 74.1654 72.1966ZM71.4464 69.8624C71.4191 69.7656 71.3627 69.6708 71.2772 69.5781C71.1917 69.4855 71.0888 69.4516 70.9687 69.4765C70.7925 69.5129 70.6569 69.5883 70.562 69.7026C70.4649 69.8094 70.3953 69.9381 70.353 70.0887C70.3087 70.2319 70.2835 70.383 70.2775 70.5419C70.2795 70.6991 70.2943 70.8419 70.3221 70.9702C70.4279 70.9246 70.5517 70.8675 70.6933 70.7987C70.843 70.7283 70.9775 70.6492 71.0969 70.5614C71.2222 70.4646 71.3192 70.3578 71.388 70.241C71.4648 70.1227 71.4843 69.9964 71.4464 69.8624Z" fill="white"/>
</g>
</g>
<path d="M110.934 128.031C113.602 129.585 128.136 128.034 135.293 126.68C145.192 124.802 152.274 122.693 149.895 122.454C147.515 122.215 137.187 121.943 129.403 123.057C121.62 124.171 108.579 126.652 110.934 128.031Z" fill="#3EB79A"/>
<defs>
<filter id="filter0_d" x="0.751099" y="34.416" width="93.9019" height="110.289" filterUnits="userSpaceOnUse" color-interpolation-filters="sRGB">
<feFlood flood-opacity="0" result="BackgroundImageFix"/>
<feColorMatrix in="SourceAlpha" type="matrix" values="0 0 0 0 0 0 0 0 0 0 0 0 0 0 0 0 0 0 127 0"/>
<feMorphology radius="2" operator="dilate" in="SourceAlpha" result="effect1_dropShadow"/>
<feOffset dy="2"/>
<feGaussianBlur stdDeviation="3"/>
<feColorMatrix type="matrix" values="0 0 0 0 0 0 0 0 0 0 0 0 0 0 0 0 0 0 0.16 0"/>
<feBlend mode="normal" in2="BackgroundImageFix" result="effect1_dropShadow"/>
<feBlend mode="normal" in="SourceGraphic" in2="effect1_dropShadow" result="shape"/>
</filter>
<filter id="filter1_i" x="15.2197" y="51.5239" width="62.4143" height="31.9292" filterUnits="userSpaceOnUse" color-interpolation-filters="sRGB">
<feFlood flood-opacity="0" result="BackgroundImageFix"/>
<feBlend mode="normal" in="SourceGraphic" in2="BackgroundImageFix" result="shape"/>
<feColorMatrix in="SourceAlpha" type="matrix" values="0 0 0 0 0 0 0 0 0 0 0 0 0 0 0 0 0 0 127 0" result="hardAlpha"/>
<feOffset dx="-0.5" dy="-1"/>
<feGaussianBlur stdDeviation="0.25"/>
<feComposite in2="hardAlpha" operator="arithmetic" k2="-1" k3="1"/>
<feColorMatrix type="matrix" values="0 0 0 0 0 0 0 0 0 0 0 0 0 0 0 0 0 0 0.1 0"/>
<feBlend mode="normal" in2="shape" result="effect1_innerShadow"/>
</filter>
</defs>
</svg>
