<svg width="30" height="20" viewBox="0 0 30 20" fill="none" xmlns="http://www.w3.org/2000/svg">
<path d="M26 0H4C1.79086 0 0 1.79086 0 4V16C0 18.2091 1.79086 20 4 20H26C28.2091 20 30 18.2091 30 16V4C30 1.79086 28.2091 0 26 0Z" fill="#FF4B55"/>
<path d="M15.5964 6.93311L16.9737 8.82937L19.2041 8.1068L17.8247 10.0013L19.2019 11.8975L16.9721 11.1721L15.5927 13.0668L15.5941 10.724L13.3644 9.9986L15.5949 9.27603L15.5964 6.93311Z" fill="white"/>
<path d="M11.838 14.7398C9.21805 14.7398 7.09405 12.6178 7.09405 10.0002C7.09405 7.38257 9.21805 5.26051 11.838 5.26051C12.655 5.26051 13.4235 5.4669 14.0946 5.83019C13.0419 4.80158 11.6022 4.16675 10.0135 4.16675C6.78884 4.16675 4.1748 6.77848 4.1748 10.0001C4.1748 13.2217 6.78891 15.8334 10.0135 15.8334C11.6022 15.8334 13.0419 15.1986 14.0946 14.17C13.4236 14.5334 12.655 14.7398 11.838 14.7398Z" fill="white"/>
<rect x="0.375" y="0.375" width="29.25" height="19.25" rx="3.625" stroke="#49CEB1" stroke-width="0.75"/>
</svg>
