<svg width="30" height="20" viewBox="0 0 30 20" fill="none" xmlns="http://www.w3.org/2000/svg">
<mask id="mask0" mask-type="alpha" maskUnits="userSpaceOnUse" x="0" y="0" width="30" height="20">
<rect width="30" height="20" rx="4" fill="#EFEFEF"/>
</mask>
<g mask="url(#mask0)">
<path d="M30 0.000244141H0V20.0001H30V0.000244141Z" fill="#EFEFEF"/>
<path d="M16.875 0H13.125V8.1248H0V11.8747H13.125V19.9995H16.875V11.8747H30V8.1248H16.875V0Z" fill="#D32030"/>
<path d="M23.0732 13.478L29.9999 17.3262V13.478H23.0732Z" fill="#252F6C"/>
<path d="M18.261 13.478L30.0001 19.9996V18.1555L21.5806 13.478H18.261Z" fill="#252F6C"/>
<path d="M26.8732 19.9995L18.261 15.2146V19.9995H26.8732Z" fill="#252F6C"/>
<path d="M18.261 13.478L30.0001 19.9996V18.1555L21.5806 13.478H18.261Z" fill="#EFEFEF"/>
<path d="M18.261 13.478L30.0001 19.9996V18.1555L21.5806 13.478H18.261Z" fill="#D32030"/>
<path d="M5.29342 13.4778L0 16.4185V13.4778H5.29342Z" fill="#252F6C"/>
<path d="M11.7392 14.3071V19.9995H1.49365L11.7392 14.3071Z" fill="#252F6C"/>
<path d="M8.41951 13.478L0 18.1555V19.9996L11.7391 13.478H8.41951Z" fill="#D32030"/>
<path d="M6.92666 6.52171L0 2.67358V6.52171H6.92666Z" fill="#252F6C"/>
<path d="M11.7391 6.52159L0 0V1.84414L8.41951 6.52159H11.7391Z" fill="#252F6C"/>
<path d="M3.12695 0L11.7392 4.78491V0H3.12695Z" fill="#252F6C"/>
<path d="M11.7391 6.52159L0 0V1.84414L8.41951 6.52159H11.7391Z" fill="#EFEFEF"/>
<path d="M11.7391 6.52159L0 0V1.84414L8.41951 6.52159H11.7391Z" fill="#D32030"/>
<path d="M24.7067 6.52182L30.0001 3.58105V6.52182H24.7067Z" fill="#252F6C"/>
<path d="M18.261 5.69233V0H28.5065L18.261 5.69233Z" fill="#252F6C"/>
<path d="M21.5806 6.52159L30.0001 1.84414V0L18.261 6.52159H21.5806Z" fill="#D32030"/>
<rect x="0.375" y="0.375" width="29.25" height="19.25" rx="3.625" stroke="#49CEB1" stroke-width="0.75"/>
</g>
</svg>
