<svg  viewBox="0 0 22 18"  xmlns="http://www.w3.org/2000/svg">
<path d="M0 6.129V16.2479C0 16.9464 0.67154 17.5128 1.5 17.5128H5C5.55228 17.5128 6 17.0651 6 16.5128V5.86414C6 5.31185 5.55228 4.86414 5 4.86414H1.5C0.67154 4.86414 0 5.43041 0 6.129Z" />
<path d="M19.6497 6.25477H15.8899C15.5612 6.25477 15.3965 6.03915 15.3412 5.94631C15.2859 5.85407 15.174 5.60791 15.3331 5.32571L16.6587 2.97952C16.9495 2.46581 16.9793 1.86171 16.7413 1.32234C16.5033 0.782375 16.0335 0.390835 15.4524 0.248513L14.5178 0.0188428C14.2903 -0.0373533 14.0492 0.0341133 13.8907 0.206978L8.81596 5.7484C8.2896 6.32441 8 7.06717 8 7.84047V14.5946C8 16.2699 8 17.027 11.1818 17.5135L17.5125 18C19.5 18 20.204 16.9218 20.5812 15.5676L21.9397 9.08472C21.9795 8.9143 22 8.7396 22 8.5649C22 7.29133 20.9454 6.25477 19.6497 6.25477Z" />
</svg>
