<svg  viewBox="0 0 14 10" fill="none" xmlns="http://www.w3.org/2000/svg">
<path d="M10.5 5C11.6594 5 12.6 4.04018 12.6 2.85714C12.6 1.67411 11.6594 0.714286 10.5 0.714286C9.34062 0.714286 8.4 1.67411 8.4 2.85714C8.4 4.04018 9.34062 5 10.5 5ZM10.5 1.42857C11.2722 1.42857 11.9 2.0692 11.9 2.85714C11.9 3.64509 11.2722 4.28571 10.5 4.28571C9.72781 4.28571 9.1 3.64509 9.1 2.85714C9.1 2.0692 9.72781 1.42857 10.5 1.42857ZM4.2 5C5.55406 5 6.65 3.8817 6.65 2.5C6.65 1.1183 5.55406 0 4.2 0C2.84594 0 1.75 1.1183 1.75 2.5C1.75 3.8817 2.84594 5 4.2 5ZM4.2 0.714286C5.16469 0.714286 5.95 1.51563 5.95 2.5C5.95 3.48438 5.16469 4.28571 4.2 4.28571C3.23531 4.28571 2.45 3.48438 2.45 2.5C2.45 1.51563 3.23531 0.714286 4.2 0.714286ZM5.95219 5.44643C5.22156 5.44643 5.04 5.71429 4.2 5.71429C3.36 5.71429 3.17844 5.44643 2.44781 5.44643C1.65375 5.44643 0.881563 5.80804 0.42875 6.4933C0.1575 6.90402 0 7.39732 0 7.92857V8.92857C0 9.52009 0.470313 10 1.05 10H7.35C7.92969 10 8.4 9.52009 8.4 8.92857V7.92857C8.4 7.39732 8.2425 6.90402 7.97125 6.4933C7.51844 5.80804 6.74625 5.44643 5.95219 5.44643ZM7.7 8.92857C7.7 9.125 7.5425 9.28571 7.35 9.28571H1.05C0.8575 9.28571 0.7 9.125 0.7 8.92857V7.92857C0.7 7.55804 0.807187 7.19866 1.00844 6.89286C1.31031 6.43527 1.84844 6.16071 2.44563 6.16071C3.045 6.16071 3.25937 6.42857 4.2 6.42857C5.14062 6.42857 5.355 6.16071 5.95219 6.16071C6.54938 6.16071 7.0875 6.43527 7.38937 6.89286C7.59062 7.19866 7.69781 7.55804 7.69781 7.92857V8.92857H7.7ZM13.6434 6.36384C13.265 5.79241 12.6219 5.49107 11.9612 5.49107C11.3531 5.49107 11.2 5.71429 10.5 5.71429C9.8 5.71429 9.64688 5.49107 9.03875 5.49107C8.75 5.49107 8.46781 5.55804 8.20531 5.67188C8.53781 6.01563 8.61 6.19866 8.64719 6.26563C8.77187 6.22991 8.90094 6.20759 9.03875 6.20759C9.51562 6.20759 9.695 6.4308 10.5 6.4308C11.305 6.4308 11.4844 6.20759 11.9612 6.20759C12.4206 6.20759 12.8319 6.41518 13.0638 6.76563C13.2191 7 13.3022 7.27679 13.3022 7.5625V8.39286C13.3022 8.49107 13.2234 8.57143 13.1272 8.57143H9.1C9.1 8.96652 9.10656 9.07366 9.065 9.28571H13.125C13.6084 9.28571 14 8.88616 14 8.39286V7.56027C14 7.11607 13.8687 6.70536 13.6434 6.36384Z" fill="white"/>
</svg>
