<svg width="32" height="32" viewBox="0 0 32 32"  xmlns="http://www.w3.org/2000/svg">
<circle cx="16" cy="16" r="16" />
<path d="M22.3738 9.42614H11.8454V8.00099C11.8454 7.22983 12.4549 6.60245 13.2041 6.60245H13.8038C14.0634 7.36626 14.7701 7.91583 15.5996 7.91583H16.4004C17.4492 7.91583 18.3025 7.0375 18.3025 5.95791C18.3025 4.87832 17.4492 4 16.4004 4H15.5996C14.7701 4 14.0634 4.54957 13.8038 5.31338H13.2041C11.7644 5.31338 10.5931 6.51904 10.5931 8.00099V9.42614H9.62617C9.28036 9.42614 9 9.71472 9 10.0707C9 10.4266 9.28036 10.7152 9.62617 10.7152H10.2258L11.7733 13.658V22.5814L10.537 25.0611C10.4374 25.2609 10.446 25.4997 10.5597 25.6914C10.6735 25.883 10.8759 26 11.0941 26H20.9058C21.124 26 21.3265 25.8831 21.4402 25.6914C21.554 25.4998 21.5626 25.261 21.463 25.0612L20.2267 22.5814V13.9425C20.2297 13.9366 20.2331 13.9308 20.2361 13.9248L21.7888 10.7152H22.3738C22.7196 10.7152 23 10.4266 23 10.0707C23 9.71472 22.7196 9.42614 22.3738 9.42614ZM15.5996 5.28906H16.4004C16.7586 5.28906 17.0501 5.58911 17.0501 5.95791C17.0501 6.32671 16.7586 6.62677 16.4004 6.62677H15.5996C15.2413 6.62677 14.9498 6.32671 14.9498 5.95791C14.9498 5.58911 15.2413 5.28906 15.5996 5.28906ZM18.9743 22.0926H13.0256V14.282H18.9743V22.0926ZM12.1192 24.7109L12.7819 23.3817H19.218L19.8807 24.7109H12.1192ZM19.2878 12.9929H12.8476L11.6499 10.7152H20.3898L19.2878 12.9929Z" fill="white"/>
</svg>
