<svg width="32" height="32" viewBox="0 0 32 32"  xmlns="http://www.w3.org/2000/svg">
<circle cx="16" cy="16" r="16" />
<path d="M22.8907 8.7153L19.9473 8.03702C19.2723 7.88074 18.5849 8.23082 18.3131 8.86846L16.9538 12.0411C16.7038 12.6224 16.8726 13.3101 17.3632 13.7102L18.613 14.7323C17.7194 16.3702 16.3695 17.7205 14.7322 18.6113L13.7104 17.361C13.3104 16.8703 12.623 16.7015 12.0418 16.9515L8.86713 18.3112C8.22969 18.5832 7.88285 19.2708 8.03596 19.946L8.71402 22.8904C8.864 23.5436 9.43894 24 10.1076 24C17.76 24.0031 24 17.8049 24 10.1094C24 9.44047 23.5438 8.86534 22.8907 8.7153ZM10.167 22.5028L9.51394 19.6678L12.5824 18.3519L14.3228 20.4805C17.41 19.0301 19.0286 17.4173 20.4785 14.3228L18.3506 12.5818L19.6661 9.51236L22.5001 10.1656C22.4689 16.9672 16.9663 22.4715 10.167 22.5028Z" fill="white"/>
</svg>
