<svg width="32" height="32" viewBox="0 0 32 32" fill="none" xmlns="http://www.w3.org/2000/svg">
<circle cx="16" cy="16" r="16" fill="#CAD2E3"/>
<path fill-rule="evenodd" clip-rule="evenodd" d="M24.0014 8.27228C22.9546 7.38357 21.6038 6.93387 20.2322 7.0174C18.8606 7.10094 17.5746 7.71125 16.6438 8.7204L16.556 8.81779L15.9802 9.42177L15.4045 8.81779L15.3167 8.7204C14.3885 7.70689 13.1018 7.09345 11.7287 7.00982C10.3557 6.9262 9.00385 7.37893 7.95911 8.27228C7.3716 8.79585 6.89595 9.43238 6.56061 10.1437C6.22527 10.8551 6.03715 11.6267 6.00749 12.4123C5.96778 13.2043 6.08623 13.9963 6.35594 14.7421C6.62565 15.488 7.04126 16.1729 7.57856 16.7569L14.9557 24.5499C15.0898 24.6921 15.2516 24.8053 15.4311 24.8827C15.6107 24.9601 15.8042 25 15.9997 25C16.1953 25 16.3889 24.9601 16.5684 24.8827C16.748 24.8053 16.9098 24.6921 17.0439 24.5499L24.4112 16.7569C24.9526 16.1752 25.3714 15.4909 25.6429 14.7447C25.9145 13.9984 26.0332 13.2052 25.992 12.4123C25.9608 11.6232 25.7681 10.8487 25.4258 10.1367C25.0834 9.42473 24.5987 8.79021 24.0014 8.27228ZM24.2746 12.4903C24.302 13.055 24.2169 13.6196 24.0243 14.1513C23.8317 14.683 23.5353 15.1713 23.1524 15.588L15.9802 23.1959L8.80805 15.588C8.42461 15.1721 8.12862 14.6837 7.93754 14.1516C7.74647 13.6195 7.66422 13.0546 7.69565 12.4903C7.71675 11.9349 7.85042 11.3897 8.08859 10.8874C8.32675 10.3851 8.66443 9.93621 9.08128 9.56789C9.70353 9.02842 10.5015 8.73402 11.3257 8.73987C11.8745 8.73583 12.4181 8.84738 12.9208 9.06727C13.4236 9.28715 13.8742 9.61044 14.2433 10.016L15.8827 11.7499C15.9054 11.7735 15.9327 11.7922 15.9629 11.805C15.9931 11.8178 16.0255 11.8244 16.0583 11.8244C16.0911 11.8244 16.1236 11.8178 16.1537 11.805C16.1839 11.7922 16.2112 11.7735 16.234 11.7499L17.8733 10.016C18.4994 9.30076 19.3788 8.85553 20.3268 8.77379C21.2747 8.69206 22.2176 8.98016 22.9573 9.57761C23.3655 9.94911 23.6956 10.3979 23.9285 10.898C24.1613 11.398 24.2922 11.9393 24.3136 12.4903H24.2746Z" fill="white"/>
</svg>
