<svg  height="32" viewBox="0 0 32 32" width="32" xmlns="http://www.w3.org/2000/svg"><circle cx="16" cy="16"  r="16"/><g fill="#fff"><path d="m25.3975 8.58192c-.3852-.3748-.8987-.58192-1.4419-.58192h-15.92103c-.53334 0-1.05679.20712-1.44198.58192-.37531.37479-.59259.88767-.59259 1.42028v9.7545c0 .2663.04938.5228.14815.7693.10864.2367.25679.4537.44444.6411.18766.1874.41482.3354.66173.434.24691.1085.51358.1578.78025.1578h6.08393v.5819c-.5827.0789-1.116.3551-1.5111.7891-.4247.4537-.6518 1.0454-.6518 1.6668v.4241c0 .2071.079.4044.2271.5524.1482.1479.3556.2268.563.2268h6.4987c.2173 0 .4149-.0789.563-.2268.1482-.148.237-.3453.237-.5524v-.4241c0-.6214-.237-1.2131-.6617-1.6668-.395-.434-.9284-.7102-1.5111-.7891v-.5819h6.084c.5432 0 1.0567-.2071 1.4419-.5918.3852-.3649.6025-.8876.6025-1.4104v-9.7545c0-.53261-.2173-1.04549-.6025-1.42028zm-7.3086 15.50468c.1185.0887.2173.217.2765.355h-4.7407c.0593-.138.158-.2663.2765-.355.1679-.1282.3753-.2071.5828-.2071h3.0222c.2173 0 .4247.0789.5827.2071zm-2.3803-1.7754v-.5523h.5729v.5523zm8.7013-2.5545c0 .1184-.0494.2269-.1383.3058-.079.0887-.1975.1282-.316.1282h-15.92103c-.11852 0-.23704-.0395-.31605-.1282-.08889-.0789-.1284-.1874-.1284-.3058v-9.7545c0-.11836.03951-.22686.1284-.31562.07901-.07891.19753-.12822.31605-.12822h15.92103c.1185 0 .237.04931.316.12822.0889.08876.1383.19726.1383.31562z"/><path d="m17.1211 16.975c0 .2959-.1284.5918-.3457.7989-.2074.2071-.5037.3255-.8.3255-.3062 0-.5926-.1184-.8099-.3255-.2074-.217-.3259-.503-.3259-.7989s.1185-.5918.3259-.7989c.2173-.2072.5037-.3255.8099-.3255.2963 0 .5926.1183.8.3255.2173.217.3457.4931.3457.7989z"/><path d="m17.9309 15.6139c.0098.0789.0098.1578 0 .2367-.0198.069-.0494.148-.0889.217-.0494.0592-.0988.1183-.1679.1578-.0593.0493-.1383.0789-.2173.0888-.079.0197-.158.0197-.237.0098-.0791-.0197-.1482-.0493-.2173-.0887-.0692-.0494-.1284-.1085-.1679-.1677-.0988-.148-.2272-.2663-.3852-.3551-.3161-.1578-.7012-.1676-1.0173 0-.1481.0888-.2864.2071-.3852.3551-.0395.0789-.0987.1578-.1876.2071-.079.0592-.1778.0986-.2766.1085-.0099 0-.0099 0-.0197 0-.1087-.0099-.2173-.0394-.3161-.0888-.1284-.0887-.2271-.2169-.2666-.3748-.0297-.1578-.0099-.3156.079-.4438.1975-.3156.474-.572.8-.7496.3259-.1775.6913-.2761 1.0666-.286s.7408.0789 1.0766.2466c.3259.1578.6222.4044.8296.7101.0494.069.079.1381.0988.217z"/><path d="m18.9185 14.5295c.0197.0789.0197.1579 0 .2368-.0099.069-.0395.1479-.0889.2169-.0494.0592-.0988.1184-.1679.1677-.1383.0789-.2963.1184-.4543.0789-.1482-.0296-.2963-.1183-.3852-.2466-.1975-.3057-.4741-.5523-.8-.72-.3161-.1775-.6716-.2663-1.037-.2663-.0099 0-.0099 0-.0099 0-.3655.0099-.7309.0987-1.0469.2762-.326.1775-.6025.4241-.7902.7299-.0395.0789-.1185.1578-.2074.2268-.0889.0592-.1876.0888-.2963.0986 0 0-.0098 0-.0197 0-.1185 0-.2272-.0295-.3259-.0986-.1284-.0789-.2272-.217-.2568-.3649-.0395-.1578-.0099-.3156.0691-.4537.3062-.4833.7309-.8877 1.2445-1.1638.5037-.2762 1.0765-.4242 1.6493-.4242h.0099c.5531 0 1.1062.1381 1.5901.3946.4939.2564.9186.6411 1.2346 1.0948.0395.069.0691.138.0889.2169z"/><path d="m20.2025 13.5231c.0197.0789.0197.1578 0 .2367-.0099.0789-.0395.1578-.0889.217-.0395.069-.0988.1183-.1679.1676-.0593.0395-.1383.0691-.2173.0888s-.158.0197-.237 0c-.0692-.0099-.1482-.0395-.2173-.0888-.0692-.0394-.1185-.0986-.1679-.1676-.3457-.5129-.8297-.937-1.3827-1.2329-.5433-.2762-1.1457-.4241-1.7581-.4241h-.0691c-.6222.0197-1.2543.1874-1.7975.4931-.5531.3058-1.0173.7496-1.3432 1.2822-.0494.0789-.1186.148-.1976.1973-.0889.0394-.1778.0789-.2666.0789h-.0099c-.1087 0-.2173-.0296-.3161-.0789-.0592-.0395-.1284-.0888-.1777-.148-.0494-.0591-.0988-.1381-.1186-.217-.0197-.0789-.0296-.1578-.0197-.2367 0-.0789.0296-.1578.0691-.2268.4445-.7102 1.0568-1.2921 1.7778-1.6965.7309-.4043 1.5506-.6312 2.3802-.6411.8395-.0098 1.6593.1776 2.4.5622.7408.3748 1.3729.937 1.8371 1.6176.0395.069.079.1381.0889.217z"/></g></svg>
