<svg width="32" height="32" viewBox="0 0 32 32"  xmlns="http://www.w3.org/2000/svg">
<circle cx="16" cy="16" r="16" />
<path d="M28 18.8232V20.2044C28.0013 20.4308 27.9579 20.6553 27.8725 20.8649C27.787 21.0746 27.6611 21.2654 27.5019 21.4264C27.3428 21.5874 27.1534 21.7155 26.9447 21.8033C26.7361 21.8911 26.5121 21.937 26.2857 21.9383H19.4286C19.393 21.938 19.3579 21.9299 19.3258 21.9147C19.2937 21.8995 19.2652 21.8774 19.2425 21.8501C19.2181 21.8224 19.2009 21.7892 19.1923 21.7534C19.1838 21.7175 19.1842 21.6801 19.1935 21.6444C19.2398 21.3431 19.2563 21.0379 19.2425 20.7334V20.4983C19.2425 20.4333 19.2683 20.371 19.3142 20.3251C19.3601 20.2792 19.4224 20.2534 19.4874 20.2534H26.2465C26.2555 20.2586 26.2656 20.2613 26.2759 20.2613C26.2862 20.2613 26.2964 20.2586 26.3053 20.2534V18.8232C26.3057 18.3977 26.1795 17.9817 25.9428 17.6281C25.7558 17.3685 25.508 17.1586 25.2211 17.0169C24.9342 16.8752 24.617 16.8059 24.2971 16.815C24.0175 16.8191 23.7401 16.8654 23.4743 16.9522C22.9435 17.1104 22.3923 17.1896 21.8384 17.1873C21.2877 17.1898 20.7397 17.1106 20.2122 16.9522C19.9462 16.8662 19.6689 16.82 19.3894 16.815C19.1871 16.8162 18.9859 16.8459 18.7919 16.9032C18.7396 16.9184 18.6837 16.9149 18.6337 16.8935C18.5836 16.8721 18.5426 16.8339 18.5176 16.7856V16.7269C18.337 16.4012 18.1092 16.1041 17.8417 15.8452C17.8144 15.817 17.794 15.7829 17.7821 15.7455C17.7702 15.7081 17.7671 15.6685 17.7731 15.6297C17.7813 15.5906 17.799 15.554 17.8246 15.5233C17.8502 15.4925 17.883 15.4685 17.92 15.4534C18.3921 15.2439 18.9023 15.1338 19.4188 15.1301C19.8244 15.1299 20.2275 15.1927 20.6139 15.3163C21.0207 15.4384 21.443 15.5011 21.8678 15.5024C22.2926 15.5019 22.715 15.4392 23.1216 15.3163C23.5111 15.1917 23.9176 15.1289 24.3265 15.1301C24.9203 15.1203 25.5074 15.2574 26.0354 15.5291C26.5635 15.8008 27.0163 16.1988 27.3535 16.6877C27.7756 17.3198 28.0006 18.063 28 18.8232Z" fill="white"/>
<path d="M21.8775 7.19527C21.1222 7.1875 20.3817 7.40437 19.7499 7.81834C19.1181 8.2323 18.6236 8.82468 18.3292 9.52025C18.0347 10.2158 17.9536 10.9832 18.0962 11.725C18.2388 12.4667 18.5986 13.1494 19.1299 13.6862C19.6612 14.2231 20.3401 14.5899 21.0804 14.7401C21.8206 14.8904 22.5888 14.8172 23.2874 14.53C23.9859 14.2428 24.5834 13.7544 25.0039 13.1269C25.4244 12.4995 25.6489 11.7612 25.6489 11.0059C25.6515 10.508 25.556 10.0146 25.3679 9.55362C25.1797 9.09268 24.9026 8.67331 24.5524 8.31946C24.2022 7.96561 23.7857 7.68421 23.3268 7.49132C22.8678 7.29843 22.3753 7.19784 21.8775 7.19527ZM21.8775 13.1414C21.456 13.1414 21.0439 13.0166 20.6931 12.7828C20.3424 12.549 20.0687 12.2166 19.9065 11.8276C19.7443 11.4385 19.7009 11.0101 19.7817 10.5964C19.8625 10.1827 20.064 9.80217 20.3607 9.50275C20.6574 9.20333 21.036 8.99841 21.449 8.91381C21.8619 8.82921 22.2907 8.86872 22.6812 9.02735C23.0718 9.18598 23.4066 9.45665 23.6436 9.80524C23.8806 10.1538 24.0091 10.5648 24.013 10.9863C24.0169 11.2687 23.9645 11.5491 23.8588 11.8111C23.7531 12.073 23.5963 12.3113 23.3974 12.5119C23.1986 12.7126 22.9618 12.8716 22.7008 12.9796C22.4399 13.0877 22.16 13.1427 21.8775 13.1414Z" fill="white"/>
<path d="M11.2783 6.00027C10.4044 5.99056 9.54738 6.24082 8.81605 6.71925C8.08472 7.19769 7.51211 7.8827 7.17095 8.68728C6.82978 9.49186 6.73546 10.3797 6.89998 11.238C7.0645 12.0963 7.48044 12.8863 8.09493 13.5077C8.70943 14.1291 9.49474 14.5538 10.3511 14.7279C11.2076 14.902 12.0964 14.8176 12.9047 14.4855C13.7131 14.1533 14.4044 13.5884 14.891 12.8625C15.3776 12.1365 15.6374 11.2823 15.6375 10.4084C15.6427 9.24619 15.1866 8.12934 14.3694 7.30293C13.5522 6.47652 12.4405 6.00804 11.2783 6.00027ZM11.2783 13.1415C10.7362 13.1492 10.2039 12.9956 9.74937 12.7C9.29479 12.4045 8.93841 11.9804 8.72553 11.4817C8.51265 10.9831 8.45289 10.4324 8.55388 9.89965C8.65487 9.36693 8.91205 8.8763 9.29266 8.49014C9.67328 8.10399 10.1601 7.83977 10.6913 7.7311C11.2225 7.62243 11.7741 7.67421 12.2758 7.87987C12.7775 8.08553 13.2066 8.43576 13.5087 8.88602C13.8108 9.33628 13.9721 9.86622 13.9722 10.4084C13.9748 11.1273 13.6931 11.8181 13.1884 12.3301C12.6838 12.842 11.9971 13.1337 11.2783 13.1415Z" fill="white"/>
<path d="M17.8318 16.9227C17.4331 16.3425 16.8971 15.8699 16.2716 15.5469C15.6461 15.2239 14.9504 15.0605 14.2465 15.0713C13.7613 15.0751 13.2793 15.1511 12.8163 15.2966C11.8264 15.5969 10.7696 15.5969 9.77959 15.2966C9.3202 15.1503 8.8413 15.0743 8.35918 15.0713C7.65392 15.0606 6.95691 15.224 6.32984 15.5469C5.70277 15.8699 5.165 16.3424 4.7641 16.9227C4.26602 17.6715 4.0002 18.5507 4.00002 19.4501V21.1154C3.99873 21.3804 4.04963 21.643 4.14986 21.8884C4.25008 22.1337 4.39766 22.3569 4.58414 22.5452C4.77061 22.7334 4.99234 22.8832 5.23668 22.9858C5.48102 23.0884 5.74317 23.1418 6.00817 23.1431H16.5878C16.8528 23.1418 17.1149 23.0884 17.3592 22.9858C17.6036 22.8832 17.8253 22.7334 18.0118 22.5452C18.1983 22.3569 18.3458 22.1337 18.446 21.8884C18.5463 21.643 18.5972 21.3804 18.5959 21.1154V19.4501C18.5957 18.5507 18.3299 17.6715 17.8318 16.9227ZM8.3494 16.7562C8.709 16.7605 9.06578 16.82 9.40735 16.9325C10.6428 17.2869 11.9531 17.2869 13.1886 16.9325C13.5301 16.82 13.8869 16.7605 14.2465 16.7562C14.6766 16.7452 15.1028 16.8405 15.4872 17.0335C15.8717 17.2266 16.2026 17.5116 16.4506 17.8631C16.7643 18.3329 16.9313 18.8852 16.9306 19.4501V21.1546C16.9211 21.2395 16.8812 21.3181 16.8181 21.3757C16.755 21.4334 16.6732 21.4662 16.5878 21.468H6.00817C5.91635 21.4655 5.82916 21.4272 5.76513 21.3613C5.70109 21.2955 5.66527 21.2072 5.66531 21.1154V19.4501C5.66455 18.8852 5.83163 18.3329 6.14533 17.8631C6.39179 17.5124 6.72099 17.2278 7.10375 17.0347C7.48651 16.8416 7.91101 16.746 8.3396 16.7562H8.3494Z" fill="white"/>
</svg>
