<svg width="32" height="32" viewBox="0 0 32 32"  xmlns="http://www.w3.org/2000/svg">
<circle cx="16" cy="16" r="16" />
<path d="M22.5939 10.8476L20.6573 6.56536C20.5465 6.32026 20.0398 5.76496 19.2803 6.1099C19.064 6.2081 18.8792 6.37241 18.7621 6.58224L17.0416 9.66063C16.177 11.206 14.7868 12.4724 13.1268 13.2263L7.29581 15.8743C6.22224 16.3619 5.71509 17.5596 6.1629 18.5498L7.37903 21.2389C7.82684 22.2292 9.05988 22.6366 10.1334 22.149L10.5242 23.052C11.0281 24.1661 11.7853 25.0911 12.7059 25.8072C12.9989 26.0351 13.4237 26.0572 13.7845 25.8934L17.0122 24.4276C17.8033 24.0683 17.9003 23.0167 17.1583 22.6541C16.3876 22.2775 15.7515 21.6601 15.3831 20.8455C15.2424 20.5343 15.1563 20.2128 15.1117 19.8883L15.9644 19.501C17.6245 18.7471 19.4912 18.5345 21.2204 18.902L24.6646 19.6349C24.8943 19.6838 25.1396 19.656 25.3603 19.556C26.1171 19.2123 26.0436 18.4765 25.9268 18.2182L23.9902 13.936C24.4283 13.3627 24.5631 12.6126 24.2638 11.9507C23.9646 11.2883 23.3129 10.8955 22.5939 10.8476ZM13.4877 24.4074C12.8386 23.8429 12.3328 23.1657 11.982 22.39C11.8019 21.9917 11.7132 21.6565 11.6556 21.4578L13.6269 20.5626C13.699 20.8911 13.7912 21.2109 13.9254 21.5075C14.2828 22.298 14.827 22.9686 15.5222 23.4835L13.4877 24.4074ZM14.8705 18.3771L9.52538 20.8045C9.25752 20.9261 8.94851 20.824 8.83678 20.5769L7.62065 17.8878C7.50892 17.6407 7.63602 17.3406 7.90388 17.2189L13.249 14.7915L14.8705 18.3771ZM24.0475 17.9473L21.656 17.4383C19.9227 17.07 18.0758 17.1946 16.3537 17.7714L14.6812 14.0732C16.2494 13.1558 17.5604 11.8463 18.4269 10.297L19.6213 8.15989L24.0475 17.9473Z" fill="white"/>
</svg>
