<svg  height="32" viewBox="0 0 32 32" width="32" xmlns="http://www.w3.org/2000/svg"><circle cx="16" cy="16"  r="16"/><path d="m25.1845 14.5666c-.4363-.4766-1.0221-.7892-1.6602-.8857v-.7299c.3202-.2537.5652-.5903.7087-.9733.152-.4269.1623-.8916.0293-1.3248s-.402-.81173-.7671-1.07914c-.3643-.27302-.8073-.4199-1.2621-.41849-.4371-.00314-.8644.12944-1.2233.37955-.3203.22142-.5725.52818-.7281.88568l-2.7572.5645c-.2234-.8938-.6829-1.71078-1.3301-2.36505-.7038-.72112-1.5951-1.23021-2.5727-1.4696-.9823-.23447-2.0099-.19407-2.9709.11678-.95522.31839-1.80264.89823-2.44649 1.67402-.63853.77004-1.04295 1.70775-1.16515 2.70155-.1222.9939.04297 2.002.47586 2.9044.4421.9114 1.1327 1.6784 1.99183 2.2124.85915.534 1.85155.813 2.86245.8047.5182-.0063 1.0336-.0782 1.5339-.2141l.2816.6229c-.457.4224-.815.9409-1.0486 1.5183-.2444.6347-.3278 1.3202-.2427 1.9952.0993.6747.3591 1.3157.7573 1.8687.41.5474.9509.9825 1.5728 1.2652.5447.252 1.1378.3815 1.7378.3796h.2621c1.0304-.0547 2.0007-.5027 2.712-1.2519.7113-.7493 1.1096-1.7431 1.1132-2.7774.014-.1782.014-.3572 0-.5353l.9708-1.4599c.3818.1828.8002.2759 1.2233.2725.7306-.0177 1.4263-.3175 1.9417-.837.2582-.2538.4634-.5567.6034-.8909s.2122-.6931.2121-1.0557c-.0198-.7138-.3117-1.3929-.8155-1.8978zm-2.398-3.5037c.0292.1083.0292.2225 0 .3309-.0217.1128-.0797.2153-.1651.292-.0811.0847-.1861.1424-.3009.1654-.1109.0333-.229.0333-.3398 0-.109-.0397-.2013-.1152-.2621-.2141-.0682-.0933-.1055-.2056-.1069-.3212.0043-.1536.0667-.2998.1748-.4088.1132-.1062.2624-.1653.4175-.1654.1175-.0036.2331.0305.3301.0973.104.0485.1916.1263.2524.2239zm-10.4464 5.022c-.7559-.0021-1.4949-.2253-2.1261-.6424-.47341-.3051-.87195-.7136-1.16588-1.1947-.29394-.4812-.47567-1.0226-.53168-1.5841-.056-.5614.01519-1.1282.20826-1.6582s.50303-1.00944.90676-1.40254c.53464-.52413 1.20884-.88236 1.94174-1.03166.2461-.04947.4964-.07553.7475-.07785.6269.00213 1.2441.15639 1.7986.4496s1.03.71664 1.3858 1.23415c.4882.7239.708 1.5964.6211 2.4659s-.475 1.6809-1.0968 2.2933c-.713.7194-1.6778 1.1314-2.6893 1.1485zm6.4077 6.6571c-.2398.2396-.5246.4291-.8379.5578-.3132.1286-.6488.1937-.9873.1916-.5073.0003-1.0035-.1485-1.4272-.4282-.4172-.2831-.7407-.6844-.9293-1.1527s-.2337-.9823-.1295-1.4763c.1042-.4941.353-.9459.7145-1.2976s.8194-.5874 1.3152-.6769c.1665-.031.3354-.0473.5048-.0487.333.0027.6624.0687.9708.1946.39.1531.7354.4017 1.0047.7232s.454.7055.5371 1.117c.083.4114.0618.8372-.0616 1.2383-.1235.4012-.3453.7649-.6452 1.0579zm2.0776-7.9223c-.3224.4659-.4952 1.0193-.4952 1.5864-.0099.5564.1567 1.1017.4758 1.5572l-.534.7494c-.5012-.7563-1.2442-1.3192-2.1068-1.5962-.4165-.1388-.8523-.211-1.2912-.2141-.5156-.0001-1.0265.099-1.5048.292l-.2136-.4282c.7069-.4585 1.2984-1.0748 1.7281-1.8006.4189-.7413.6552-1.5721.6893-2.4234l2.5631-.5061c.1509.3896.4104.7274.7475.9733.3277.2263.7099.3607 1.1068.3893v.4672c-.465.2101-.8667.5391-1.165.9538zm3.2912 2.5207c-.2177.2181-.5041.3538-.8103.384-.3063.0301-.6135-.0471-.8693-.2186-.2169-.1411-.3861-.3446-.4855-.5839-.0972-.2392-.1214-.5019-.0696-.7548.0519-.253.1775-.4848.3609-.6662.1872-.1831.4232-.3081.6796-.3601.2568-.0504.5228-.0237.7645.0767.2418.1004.4486.2701.5947.4878.1457.2117.2236.463.2233.7202-.0009.1707-.0356.3396-.1023.4966-.0667.1571-.1639.2993-.286.4183z" fill="#fff"/></svg>
