<svg width="32" height="32" viewBox="0 0 32 32" fill="none" xmlns="http://www.w3.org/2000/svg">
<circle cx="16" cy="16" r="16" fill="#CAD2E3"/>
<path d="M22.4006 8.0001H9.56976C8.3612 8.00008 7.20185 8.47884 6.34542 9.33157C5.48899 10.1843 5.00522 11.3415 5 12.5501V19.3208C5.00523 20.5285 5.48931 21.6847 6.34602 22.5359C7.20274 23.3871 8.36211 23.8636 9.56976 23.861H18.6106L20.5845 25.7856C20.6545 25.8575 20.7381 25.9147 20.8305 25.9538C20.9229 25.9928 21.0222 26.0129 21.1225 26.0129C21.2228 26.0129 21.322 25.9928 21.4144 25.9538C21.5068 25.9147 21.5905 25.8575 21.6604 25.7856L23.7824 23.6735C24.7127 23.4051 25.5301 22.8408 26.1107 22.066C26.6914 21.2912 27.0035 20.3483 27 19.3801V12.5501C26.9974 11.9492 26.8763 11.3546 26.6436 10.8005C26.411 10.2465 26.0713 9.7437 25.6441 9.32106C25.2169 8.89842 24.7105 8.56421 24.1539 8.33754C23.5974 8.11086 23.0015 7.9962 22.4006 8.0001ZM25.4603 19.3801C25.4609 20.0457 25.2372 20.6921 24.8254 21.215C24.4135 21.7379 23.8374 22.1068 23.1902 22.2621C23.0569 22.3017 22.935 22.3728 22.8349 22.4693L21.1077 24.2262L19.489 22.6174C19.3476 22.4752 19.1565 22.3938 18.956 22.3904H9.59937C8.79221 22.393 8.01695 22.0756 7.44343 21.5076C6.86992 20.9396 6.54492 20.1675 6.5397 19.3603V12.5896C6.54099 12.1891 6.62117 11.7928 6.77563 11.4232C6.9301 11.0537 7.15582 10.7182 7.43994 10.4359C7.72406 10.1537 8.06099 9.93012 8.43151 9.77805C8.80202 9.62598 9.19886 9.54838 9.59937 9.54967H22.4302C22.8307 9.54838 23.2276 9.62598 23.5981 9.77805C23.9686 9.93012 24.3055 10.1537 24.5896 10.4359C24.8738 10.7182 25.0995 11.0537 25.2539 11.4232C25.4084 11.7928 25.4886 12.1891 25.4899 12.5896L25.4603 19.3801Z" fill="white"/>
<path d="M21.2261 13.9217C21.2223 14.0254 21.1981 14.1273 21.1548 14.2217C21.1116 14.316 21.0501 14.4009 20.9741 14.4715C20.898 14.5421 20.8087 14.597 20.7114 14.633C20.6141 14.6691 20.5106 14.6856 20.4069 14.6816H11.5832C11.3817 14.6816 11.1884 14.6016 11.0459 14.4591C10.9033 14.3165 10.8232 14.1232 10.8232 13.9217C10.8232 13.7201 10.9033 13.5268 11.0459 13.3843C11.1884 13.2418 11.3817 13.1617 11.5832 13.1617H20.4069C20.5106 13.1577 20.6141 13.1743 20.7114 13.2103C20.8087 13.2464 20.898 13.3013 20.9741 13.3719C21.0501 13.4424 21.1116 13.5273 21.1548 13.6217C21.1981 13.716 21.2223 13.818 21.2261 13.9217Z" fill="white"/>
<path d="M21.226 17.0412C21.2222 17.1449 21.198 17.2468 21.1547 17.3412C21.1115 17.4355 21.05 17.5204 20.974 17.591C20.8979 17.6616 20.8086 17.7165 20.7113 17.7525C20.614 17.7886 20.5105 17.8051 20.4068 17.8012H11.5831C11.4767 17.8133 11.369 17.8029 11.2669 17.7705C11.1648 17.7381 11.0707 17.6846 10.9908 17.6133C10.9108 17.542 10.8469 17.4546 10.8031 17.3569C10.7593 17.2591 10.7367 17.1532 10.7367 17.0461C10.7367 16.939 10.7593 16.8331 10.8031 16.7354C10.8469 16.6377 10.9108 16.5503 10.9908 16.479C11.0707 16.4077 11.1648 16.3541 11.2669 16.3217C11.369 16.2893 11.4767 16.2789 11.5831 16.2911H20.4068C20.6146 16.283 20.8172 16.3573 20.9706 16.4977C21.124 16.6382 21.2158 16.8335 21.226 17.0412Z" fill="white"/>
</svg>
