<svg width="32" height="32" viewBox="0 0 32 32"  xmlns="http://www.w3.org/2000/svg">
<circle cx="16" cy="16" r="16" />
<path d="M17.3517 19.8037C17.354 19.9514 17.3266 20.098 17.2714 20.2349C17.2161 20.3719 17.1339 20.4965 17.0296 20.6014C16.8605 20.7775 16.6426 20.8992 16.4037 20.9512C16.1649 21.0032 15.9159 20.983 15.6886 20.8932C15.4613 20.8034 15.266 20.648 15.1277 20.447C14.9894 20.2461 14.9143 20.0085 14.9121 19.7648C14.9196 19.443 15.0519 19.1366 15.2811 18.9099C15.5104 18.6832 15.8188 18.5538 16.1416 18.5488C16.3043 18.55 16.4651 18.5837 16.6146 18.6478C16.7641 18.7119 16.8991 18.8052 17.0119 18.9221C17.1246 19.039 17.2128 19.1773 17.2711 19.3287C17.3295 19.4801 17.3569 19.6416 17.3517 19.8037Z" fill="white"/>
<path d="M25.6462 18.6076L19.2935 7.80973C18.9708 7.26088 18.5096 6.80575 17.9558 6.48949C17.4021 6.17322 16.775 6.00684 16.1368 6.00684C15.4986 6.00684 14.8715 6.17322 14.3177 6.48949C13.7639 6.80575 13.3028 7.26088 12.98 7.80973L6.61761 18.6271C6.29187 19.1712 6.11987 19.7931 6.11987 20.4267C6.11987 21.0604 6.29187 21.6823 6.61761 22.2264C6.93833 22.7743 7.39897 23.2277 7.95264 23.5404C8.5063 23.8531 9.13321 24.014 9.76952 24.0066H22.4552C23.096 24.0115 23.7266 23.8476 24.2835 23.5316C24.8404 23.2156 25.3037 22.7586 25.6266 22.2069C25.9495 21.6636 26.1199 21.0437 26.1199 20.4122C26.1199 19.7806 25.9495 19.1607 25.6266 18.6174L25.6462 18.6076ZM24.0068 21.2633C23.8498 21.5345 23.6234 21.7592 23.3509 21.9148C23.0783 22.0703 22.7692 22.1509 22.4552 22.1486H9.76952C9.4617 22.1495 9.15904 22.0697 8.89186 21.9173C8.62469 21.7649 8.40237 21.5452 8.24721 21.2802C8.09204 21.0152 8.00947 20.7141 8.00776 20.4073C8.00605 20.1004 8.08526 19.7985 8.23747 19.5318L14.5998 8.72415C14.7538 8.45826 14.9759 8.23798 15.2434 8.08585C15.5109 7.93371 15.8142 7.85521 16.1221 7.85838C16.4339 7.85474 16.7411 7.93391 17.0121 8.08778C17.283 8.24164 17.508 8.46465 17.6639 8.73388L24.0068 19.5318C24.1622 19.794 24.2441 20.093 24.2441 20.3975C24.2441 20.7021 24.1622 21.0011 24.0068 21.2633Z" fill="white"/>
<path d="M17.5469 12.1774C17.5469 12.4595 17.2542 16.7884 17.2542 17.0413C17.2415 17.3235 17.1175 17.5892 16.9091 17.7805C16.7007 17.9718 16.4249 18.0733 16.1418 18.0627C15.8659 18.0763 15.5956 17.9824 15.388 17.8008C15.1804 17.6193 15.0518 17.3643 15.0293 17.09L14.717 12.226C14.7066 11.9016 14.8072 11.5833 15.0023 11.3234C15.1973 11.0636 15.4753 10.8776 15.7905 10.796C16.102 10.7208 16.4299 10.7518 16.7217 10.884C17.0136 11.0163 17.2526 11.2422 17.4006 11.5256C17.4955 11.73 17.5454 11.9522 17.5469 12.1774Z" fill="white"/>
</svg>
