<svg width="32" height="32" viewBox="0 0 32 32"  xmlns="http://www.w3.org/2000/svg">
<circle cx="16" cy="16" r="16" />
<path d="M16.0117 17.8999C15.4613 17.8999 15 18.3559 15 18.8999C15 19.4439 15.4613 19.8999 16.0117 19.8999C16.5418 19.8999 17.0234 19.4439 16.9991 18.9239C17.0234 18.3519 16.5661 17.8999 16.0117 17.8999Z" fill="white"/>
<path fill-rule="evenodd" clip-rule="evenodd" d="M25.5306 17.8312C26.1597 18.9045 26.1559 20.1873 25.5223 21.2652C24.8844 22.3516 23.7506 23 22.4865 23H9.49635C8.23587 23 7.1105 22.3594 6.48109 21.2936C5.84369 20.2161 5.83964 18.9248 6.46908 17.839L12.9807 6.7261C13.6061 5.64845 14.7354 5 16.0039 5C17.2725 5 18.4019 5.64509 19.0272 6.73056L25.5306 17.8312ZM22.4823 21.5936C23.2321 21.5936 23.9049 21.2106 24.2845 20.5656C24.6596 19.9249 24.6647 19.1651 24.297 18.5352L17.7896 7.42655C17.4183 6.7853 16.7495 6.40227 16.0039 6.40227C15.2543 6.40227 14.5894 6.78117 14.218 7.42277L7.7064 18.5314C7.33077 19.1771 7.33528 19.9448 7.71074 20.5859C8.08241 21.2195 8.75147 21.5936 9.4922 21.5936H22.4823Z" fill="white"/>
<path d="M15.7173 9.93095C15.1517 10.0805 14.8 10.5557 14.8 11.132C14.8286 11.4796 14.8523 11.8316 14.8808 12.1791C14.9616 13.5034 15.0424 14.8013 15.1232 16.1256C15.1517 16.5743 15.5272 16.8999 16.0119 16.8999C16.4967 16.8999 16.8769 16.5523 16.9006 16.0992C16.9006 15.8264 16.9006 15.5756 16.9292 15.2985C16.9814 14.4493 17.0385 13.6002 17.0907 12.7511C17.1193 12.2011 17.1715 11.6512 17.2 11.1012C17.2 10.9033 17.1715 10.7273 17.0907 10.5513C16.8484 10.0585 16.2828 9.80777 15.7173 9.93095Z" fill="white"/>
</svg>
