<svg fill="none" height="32" viewBox="0 0 32 32" width="32" xmlns="http://www.w3.org/2000/svg"><circle cx="16" cy="16" fill="#cad2e3" r="16"/><path d="m23.7838 8.30378h-1.7125v-.08756c0-.32256-.1281-.63191-.3562-.86-.2281-.22808-.5374-.35622-.86-.35622h-9.7297c-.3226 0-.6319.12814-.86.35622-.2281.22809-.35621.53744-.35621.86v.08756h-1.69297c-.32256 0-.63191.12814-.86.35622-.22808.22809-.35622.53744-.35622.86v2.3741c.01616.8751.34639 1.7153.93046 2.3672.58407.652 1.38303 1.0722 2.25114 1.1841.2857.9238.788 1.766 1.4649 2.4565.677.6905 1.509 1.2093 2.427 1.5132l-.4865 2.0141h-1.3038c-.2522.0016-.4977.0809-.7032.2272-.2054.1462-.3608.3523-.4449.5901l-.3892 1.1384c-.0673.1834-.0883.3806-.0612.5741.0272.1935.1017.3773.2169.5351.1113.1546.2572.2809.4262.3688s.3563.1349.5468.1371h8.1924c.1908-.0007.3786-.047.5479-.135.1692-.088.315-.2152.4251-.3709.1138-.1584.1882-.3417.217-.5346.0287-.1929.0111-.3899-.0516-.5746l-.3989-1.1384c-.0828-.2386-.2379-.4454-.4436-.5919-.2058-.1465-.452-.2253-.7045-.2254h-1.2357l-.4865-2.0141c.9164-.3067 1.747-.8265 2.4236-1.5166.6765-.6901 1.1797-1.5308 1.4683-2.4531.8664-.114 1.663-.5352 2.2451-1.1869.5821-.6518.911-1.4908.9268-2.3644v-2.3741c0-.32256-.1281-.63191-.3562-.86-.2281-.22808-.5375-.35622-.86-.35622zm-15.25623 3.59032v-2.07248h1.40108v.77838 3.2303c-.40486-.1386-.75689-.3992-1.00776-.7458-.25086-.3467-.38826-.7626-.39332-1.1904zm6.59673 9.5351.4184-1.7124c.3046.0194.61.0194.9146 0l.4184 1.7124zm4.3298 1.5178.1848.5449h-7.2778l.1946-.5449zm1.0897-9.214c-.006.6403-.1459 1.2724-.4106 1.8555-.2648.5831-.6485 1.1044-1.1267 1.5304-.8436.703-1.9084 1.0855-3.0065 1.08-.5932.0143-1.1833-.0905-1.7353-.3083-.552-.2177-1.0547-.544-1.4784-.9595-.4236-.4155-.7596-.9118-.9881-1.4594-.2285-.5477-.3448-1.1356-.342-1.729v-5.22486h9.0876zm2.9189-1.8389c-.0059.4288-.1434.8455-.3941 1.1936-.2506.3481-.6021.6107-1.007.7523v-4.00865h1.4011z" fill="#fff"/></svg>