<svg width="32" height="32" viewBox="0 0 32 32"  xmlns="http://www.w3.org/2000/svg">
<circle cx="16" cy="16" r="16" />
<path d="M23.881 15.147L24.8587 14.0649C24.9359 13.9756 24.9837 13.8685 24.9965 13.756C25.0093 13.6435 24.9867 13.5301 24.9313 13.4285C24.8758 13.327 24.7898 13.2414 24.6828 13.1816C24.5759 13.1217 24.4524 13.09 24.3264 13.0901H20.6113C20.6221 12.9375 20.6221 12.7844 20.6113 12.6319C20.6169 12.5377 20.6169 12.4433 20.6113 12.3492H23.2292C23.3552 12.3492 23.4787 12.3175 23.5857 12.2576C23.6926 12.1978 23.7787 12.1122 23.8341 12.0107C23.8896 11.9091 23.9122 11.7957 23.8993 11.6832C23.8865 11.5707 23.8387 11.4637 23.7615 11.3743L22.7947 10.2727L23.7724 9.19062C23.8496 9.10126 23.8974 8.99425 23.9102 8.88175C23.923 8.76925 23.9004 8.65578 23.845 8.55423C23.7896 8.45267 23.7035 8.36712 23.5965 8.30729C23.4896 8.24746 23.3661 8.21575 23.2401 8.21576H18.5473C17.2822 7.11212 15.5863 6.49634 13.8219 6.50002C12.0135 6.50259 10.28 7.14843 9.00127 8.29599C7.72253 9.44354 7.00287 10.9992 7 12.6221C6.99939 13.6058 7.26501 14.5748 7.77402 15.4459C8.28303 16.3171 9.0202 17.0642 9.92213 17.6231V20.1968C9.92339 20.5003 10.0036 20.7993 10.1564 21.0701C10.3091 21.3409 10.5302 21.5759 10.802 21.7565V22.9459C10.802 23.2821 10.876 23.615 11.0197 23.9255C11.1634 24.2361 11.374 24.518 11.6395 24.7554C11.9049 24.9927 12.2199 25.1806 12.5665 25.3084C12.9131 25.4361 13.2843 25.5013 13.659 25.5H14.289C15.0439 25.5 15.7678 25.2309 16.3015 24.7519C16.8353 24.2729 17.1351 23.6233 17.1351 22.9459V22.0782H22.1429C22.2662 22.073 22.3854 22.0375 22.4877 21.9755C22.59 21.9136 22.6714 21.8277 22.7229 21.7271C22.7745 21.6265 22.7943 21.5151 22.7801 21.4051C22.7659 21.2952 22.7184 21.1908 22.6426 21.1034L21.5998 20.0213L22.6861 18.9684C22.7618 18.881 22.8094 18.7767 22.8235 18.6667C22.8377 18.5567 22.8179 18.4453 22.7664 18.3447C22.7148 18.2441 22.6334 18.1582 22.5312 18.0963C22.4289 18.0343 22.3096 17.9988 22.1864 17.9936H18.3409V17.2527H24.3155C24.4415 17.2527 24.565 17.221 24.672 17.1612C24.7789 17.1013 24.865 17.0158 24.9204 16.9142C24.9759 16.8127 24.9985 16.6992 24.9856 16.5867C24.9728 16.4742 24.925 16.3672 24.8478 16.2778L23.881 15.147ZM21.817 9.41484L21.3934 9.89252C21.2982 10.0009 21.2465 10.1348 21.2465 10.2727C21.2465 10.4107 21.2982 10.5446 21.3934 10.6529L21.817 11.1306H20.4266C20.2646 10.5248 19.9969 9.94573 19.6336 9.41484H21.817ZM15.7773 22.9459C15.7787 23.1221 15.7413 23.2968 15.6671 23.4599C15.593 23.6231 15.4836 23.7715 15.3452 23.8965C15.2069 24.0216 15.0423 24.1208 14.8611 24.1886C14.6798 24.2563 14.4854 24.2912 14.289 24.2912H13.659C13.2614 24.2912 12.8801 24.1494 12.599 23.8971C12.3178 23.6448 12.1599 23.3027 12.1599 22.9459V22.1562H15.7773V22.9459ZM12.5184 14.5426C12.6157 14.6277 12.7463 14.6754 12.8823 14.6754C13.0182 14.6754 13.1488 14.6277 13.2462 14.5426L13.9523 13.9187L14.6584 14.5426C14.7557 14.6277 14.8863 14.6754 15.0223 14.6754C15.1582 14.6754 15.2888 14.6277 15.3862 14.5426L14.5606 20.46H13.344L12.5184 14.5426ZM20.5787 19.1634L20.1333 19.6118C20.0188 19.7234 19.9552 19.8696 19.9552 20.0213C19.9552 20.173 20.0188 20.3191 20.1333 20.4307L20.5787 20.8792H18.1671C18.2593 20.6611 18.3071 20.43 18.3083 20.1968V19.1634H20.5787ZM19.2751 13.0803C19.2308 13.4941 19.1248 13.9006 18.9601 14.2891C18.6935 14.9314 18.2789 15.5161 17.7434 16.0049C17.5792 16.1634 17.4012 16.3101 17.2112 16.4436C17.1306 16.5006 17.0653 16.5731 17.0202 16.6558C16.9751 16.7384 16.9512 16.8292 16.9505 16.9212V20.1968C16.9497 20.3198 16.9158 20.4409 16.8514 20.5495C16.7871 20.6582 16.6943 20.7513 16.5811 20.8207V20.9377H15.636L16.7223 13.2558C16.7326 13.1551 16.7092 13.054 16.655 12.9654C16.6008 12.8768 16.5183 12.8048 16.4182 12.7586C16.3168 12.7137 16.2021 12.699 16.0908 12.7165C15.9795 12.7341 15.8773 12.7829 15.799 12.8561L15.0929 13.48L14.3868 12.8561C14.338 12.8095 14.2791 12.7723 14.2137 12.7469C14.1484 12.7215 14.0779 12.7084 14.0066 12.7084C13.9353 12.7084 13.8648 12.7215 13.7994 12.7469C13.7341 12.7723 13.6752 12.8095 13.6264 12.8561L12.9203 13.48L12.2142 12.8561C12.135 12.7842 12.0329 12.7362 11.9219 12.7188C11.811 12.7013 11.6968 12.7152 11.595 12.7586C11.4939 12.8038 11.4106 12.8756 11.3562 12.9644C11.3018 13.0533 11.279 13.155 11.2909 13.2558L12.3772 20.9377H12.1164C11.8965 20.9377 11.6854 20.8599 11.5288 20.7213C11.3722 20.5826 11.2829 20.3941 11.28 20.1968V17.2722C11.2798 17.168 11.2509 17.0654 11.196 16.9736C11.141 16.8817 11.0617 16.8035 10.965 16.7458C10.1706 16.3118 9.51367 15.702 9.05717 14.9748C8.60067 14.2477 8.35988 13.4275 8.35787 12.5929C8.35692 11.7658 8.59048 10.9522 9.03657 10.2285C9.48266 9.5048 10.1266 8.89487 10.9078 8.4561C11.689 8.01734 12.5817 7.76417 13.502 7.72042C14.4223 7.67666 15.3398 7.84377 16.1683 8.20602C16.8413 8.49614 17.4403 8.90764 17.9281 9.41484C18.422 9.91095 18.7923 10.4959 19.0144 11.1306C19.1605 11.5206 19.2411 11.9281 19.2534 12.3394C19.2645 12.4334 19.2645 12.5281 19.2534 12.6221C19.2968 12.7781 19.286 12.9243 19.2751 13.0803ZM22.4797 15.5272L22.9033 16.0049H19.4272C19.8376 15.4849 20.1428 14.9041 20.3288 14.2891H22.9033L22.4797 14.7668C22.3845 14.8751 22.3328 15.0091 22.3328 15.147C22.3328 15.2849 22.3845 15.4189 22.4797 15.5272Z" fill="white"/>
</svg>
