<svg width="66" height="66" viewBox="0 0 66 66" fill="none" xmlns="http://www.w3.org/2000/svg">
<g filter="url(#filter0_d)">
<circle cx="33" cy="31" r="27" fill="#4966BF"/>
<g filter="url(#filter1_d)">
<path fill-rule="evenodd" clip-rule="evenodd" d="M32.9994 52.6C44.9288 52.6 54.5994 42.9293 54.5994 31C54.5994 19.0706 44.9288 9.39999 32.9994 9.39999C21.0701 9.39999 11.3994 19.0706 11.3994 31C11.3994 42.9293 21.0701 52.6 32.9994 52.6ZM30.0403 31.7685H27.4843C27.4348 31.7685 27.3858 31.7586 27.3401 31.7394C27.2943 31.7202 27.2528 31.6921 27.2179 31.6567C27.183 31.6212 27.1554 31.5791 27.1366 31.5328C27.1178 31.4866 27.1083 31.437 27.1085 31.387V27.5225C27.1085 27.4218 27.1481 27.3252 27.2186 27.254C27.289 27.1828 27.3846 27.1428 27.4843 27.1428H30.1677V24.2735C30.0773 23.6088 30.1518 22.9319 30.3845 22.3036C30.6171 21.6753 31.0006 21.1152 31.5004 20.6737C32.5596 19.7399 33.9163 19.2231 35.3219 19.2182H38.5112C38.5607 19.2182 38.6098 19.2281 38.6556 19.2473C38.7014 19.2666 38.7429 19.2948 38.7778 19.3303C38.8128 19.3659 38.8404 19.4081 38.8591 19.4545C38.8778 19.5009 38.8873 19.5505 38.8869 19.6006V23.195C38.8869 23.2957 38.8474 23.3923 38.7769 23.4635C38.7064 23.5347 38.6108 23.5747 38.5112 23.5747H36.2986C35.521 23.5747 35.1273 23.9499 35.1273 24.6895V27.141H38.5138C38.5669 27.1409 38.6193 27.1521 38.6678 27.174C38.7162 27.1959 38.7595 27.2278 38.7948 27.2678C38.8302 27.3078 38.8567 27.3549 38.8727 27.406C38.8888 27.457 38.8939 27.511 38.8878 27.5642L38.4394 31.4794C38.4288 31.5721 38.3849 31.6576 38.3159 31.7196C38.2469 31.7816 38.1577 31.8158 38.0654 31.8156H35.1255V42.4021C35.1255 42.5028 35.0859 42.5994 35.0155 42.6706C34.945 42.7418 34.8494 42.7818 34.7497 42.7818H30.4161C30.3164 42.7818 30.2209 42.7418 30.1504 42.6706C30.0799 42.5994 30.0403 42.5028 30.0403 42.4021V31.7685Z" fill="white"/>
</g>
<path fill-rule="evenodd" clip-rule="evenodd" d="M32.9994 52.6C44.9288 52.6 54.5994 42.9293 54.5994 31C54.5994 19.0706 44.9288 9.39999 32.9994 9.39999C21.0701 9.39999 11.3994 19.0706 11.3994 31C11.3994 42.9293 21.0701 52.6 32.9994 52.6ZM30.0403 31.7685H27.4843C27.4348 31.7685 27.3858 31.7586 27.3401 31.7394C27.2943 31.7202 27.2528 31.6921 27.2179 31.6567C27.183 31.6212 27.1554 31.5791 27.1366 31.5328C27.1178 31.4866 27.1083 31.437 27.1085 31.387V27.5225C27.1085 27.4218 27.1481 27.3252 27.2186 27.254C27.289 27.1828 27.3846 27.1428 27.4843 27.1428H30.1677V24.2735C30.0773 23.6088 30.1518 22.9319 30.3845 22.3036C30.6171 21.6753 31.0006 21.1152 31.5004 20.6737C32.5596 19.7399 33.9163 19.2231 35.3219 19.2182H38.5112C38.5607 19.2182 38.6098 19.2281 38.6556 19.2473C38.7014 19.2666 38.7429 19.2948 38.7778 19.3303C38.8128 19.3659 38.8404 19.4081 38.8591 19.4545C38.8778 19.5009 38.8873 19.5505 38.8869 19.6006V23.195C38.8869 23.2957 38.8474 23.3923 38.7769 23.4635C38.7064 23.5347 38.6108 23.5747 38.5112 23.5747H36.2986C35.521 23.5747 35.1273 23.9499 35.1273 24.6895V27.141H38.5138C38.5669 27.1409 38.6193 27.1521 38.6678 27.174C38.7162 27.1959 38.7595 27.2278 38.7948 27.2678C38.8302 27.3078 38.8567 27.3549 38.8727 27.406C38.8888 27.457 38.8939 27.511 38.8878 27.5642L38.4394 31.4794C38.4288 31.5721 38.3849 31.6576 38.3159 31.7196C38.2469 31.7816 38.1577 31.8158 38.0654 31.8156H35.1255V42.4021C35.1255 42.5028 35.0859 42.5994 35.0155 42.6706C34.945 42.7418 34.8494 42.7818 34.7497 42.7818H30.4161C30.3164 42.7818 30.2209 42.7418 30.1504 42.6706C30.0799 42.5994 30.0403 42.5028 30.0403 42.4021V31.7685Z" fill="url(#paint0_radial)"/>
</g>
<defs>
<filter id="filter0_d" x="0" y="0" width="66" height="66" filterUnits="userSpaceOnUse" color-interpolation-filters="sRGB">
<feFlood flood-opacity="0" result="BackgroundImageFix"/>
<feColorMatrix in="SourceAlpha" type="matrix" values="0 0 0 0 0 0 0 0 0 0 0 0 0 0 0 0 0 0 127 0"/>
<feOffset dy="2"/>
<feGaussianBlur stdDeviation="3"/>
<feColorMatrix type="matrix" values="0 0 0 0 0 0 0 0 0 0 0 0 0 0 0 0 0 0 0.16 0"/>
<feBlend mode="normal" in2="BackgroundImageFix" result="effect1_dropShadow"/>
<feBlend mode="normal" in="SourceGraphic" in2="effect1_dropShadow" result="shape"/>
</filter>
<filter id="filter1_d" x="5.39941" y="5.39999" width="55.2" height="55.2" filterUnits="userSpaceOnUse" color-interpolation-filters="sRGB">
<feFlood flood-opacity="0" result="BackgroundImageFix"/>
<feColorMatrix in="SourceAlpha" type="matrix" values="0 0 0 0 0 0 0 0 0 0 0 0 0 0 0 0 0 0 127 0"/>
<feOffset dy="2"/>
<feGaussianBlur stdDeviation="3"/>
<feColorMatrix type="matrix" values="0 0 0 0 0 0 0 0 0 0 0 0 0 0 0 0 0 0 0.2 0"/>
<feBlend mode="normal" in2="BackgroundImageFix" result="effect1_dropShadow"/>
<feBlend mode="normal" in="SourceGraphic" in2="effect1_dropShadow" result="shape"/>
</filter>
<radialGradient id="paint0_radial" cx="0" cy="0" r="1" gradientUnits="userSpaceOnUse" gradientTransform="translate(32.9994 29.65) rotate(90) scale(23.625)">
<stop offset="0.6875" stop-color="white" stop-opacity="0"/>
<stop offset="1" stop-color="#3C58A3"/>
</radialGradient>
</defs>
</svg>
