<svg width="13" height="14" viewBox="0 0 13 14" fill="none" xmlns="http://www.w3.org/2000/svg">
<path d="M8.25827 11.3093L8.28985 11.0511L3.90913 8.84748L3.73087 8.97158C3.33421 9.24775 2.86266 9.39539 2.38028 9.39474C1.06567 9.39474 0 8.3226 0 7C0 5.6774 1.06616 4.60526 2.38077 4.60526C2.86315 4.60461 3.33421 4.75227 3.73085 5.02846L3.90911 5.15259L8.29043 2.94865L8.25816 2.68988C8.24593 2.59183 8.23968 2.49311 8.23944 2.39429C8.23968 1.0719 9.30525 0 10.6197 0C11.9343 0 13 1.07214 13 2.39474C13 3.71733 11.9343 4.78947 10.6197 4.78947C9.9781 4.78947 9.39665 4.53397 8.96799 4.11805L8.78161 3.9372L4.5852 6.04815L4.66884 6.34223C4.7911 6.77212 4.7911 7.22788 4.66884 7.65777L4.5852 7.95185L8.78162 10.0628L8.968 9.88194C9.39664 9.46598 9.97809 9.21053 10.6197 9.21053C11.9343 9.21053 13 10.2827 13 11.6053C13 12.9279 11.9343 14 10.6197 14C9.30511 14 8.23944 12.9279 8.23944 11.6053C8.23944 11.5066 8.24618 11.4081 8.25827 11.3093Z" fill="white"/>
</svg>
