<svg width="66" height="66" viewBox="0 0 66 66" fill="none" xmlns="http://www.w3.org/2000/svg">
<g filter="url(#filter0_d)">
<circle cx="33" cy="31" r="27" fill="#38AEF6"/>
<path fill-rule="evenodd" clip-rule="evenodd" d="M33.0004 52.6C44.9212 52.6 54.5865 42.9433 54.6004 31.0257V30.9743C54.5865 19.0568 44.9212 9.40002 33.0004 9.40002C21.071 9.40002 11.4004 19.0707 11.4004 31C11.4004 42.9294 21.071 52.6 33.0004 52.6ZM43.7062 26.3029V25.5829C44.7682 24.8286 45.6932 23.8686 46.4469 22.7715C45.4534 23.2172 44.3913 23.4915 43.2608 23.6286C44.3913 22.9429 45.2821 21.88 45.6932 20.6115C44.6312 21.2629 43.4664 21.7086 42.1988 21.9486C41.171 20.8857 39.7322 20.2343 38.1563 20.2343C35.1073 20.2343 32.6407 22.6686 32.6407 25.6857C32.6407 26.0972 32.6749 26.5086 32.7777 26.92C28.1871 26.68 24.1446 24.52 21.4039 21.2286C20.9243 22.0515 20.6502 22.9772 20.6502 23.9715C20.6502 25.8572 21.6437 27.5372 23.1168 28.4972C22.2261 28.4629 21.3354 28.2229 20.6502 27.8115V27.88C20.6502 30.52 22.5344 32.7143 25.001 33.2286C24.5557 33.3657 24.0418 33.4343 23.5279 33.4343C23.1853 33.4343 22.8427 33.4 22.5002 33.3314C23.2196 35.4915 25.2408 37.0686 27.6732 37.1029C25.789 38.5772 23.4251 39.4343 20.8215 39.4343C20.406 39.4343 20.0203 39.4045 19.6088 39.3726C19.5792 39.3703 19.5495 39.368 19.5197 39.3657C21.952 40.9086 24.864 41.8 27.9815 41.8C38.1563 41.8 43.7062 33.5029 43.7062 26.3029Z" fill="white"/>
<path fill-rule="evenodd" clip-rule="evenodd" d="M33.0004 52.6C44.9212 52.6 54.5865 42.9433 54.6004 31.0257V30.9743C54.5865 19.0568 44.9212 9.40002 33.0004 9.40002C21.071 9.40002 11.4004 19.0707 11.4004 31C11.4004 42.9294 21.071 52.6 33.0004 52.6ZM43.7062 26.3029V25.5829C44.7682 24.8286 45.6932 23.8686 46.4469 22.7715C45.4534 23.2172 44.3913 23.4915 43.2608 23.6286C44.3913 22.9429 45.2821 21.88 45.6932 20.6115C44.6312 21.2629 43.4664 21.7086 42.1988 21.9486C41.171 20.8857 39.7322 20.2343 38.1563 20.2343C35.1073 20.2343 32.6407 22.6686 32.6407 25.6857C32.6407 26.0972 32.6749 26.5086 32.7777 26.92C28.1871 26.68 24.1446 24.52 21.4039 21.2286C20.9243 22.0515 20.6502 22.9772 20.6502 23.9715C20.6502 25.8572 21.6437 27.5372 23.1168 28.4972C22.2261 28.4629 21.3354 28.2229 20.6502 27.8115V27.88C20.6502 30.52 22.5344 32.7143 25.001 33.2286C24.5557 33.3657 24.0418 33.4343 23.5279 33.4343C23.1853 33.4343 22.8427 33.4 22.5002 33.3315C23.2196 35.4915 25.2408 37.0686 27.6732 37.1029C25.789 38.5772 23.4251 39.4343 20.8215 39.4343C20.406 39.4343 20.0203 39.4045 19.6088 39.3726C19.5792 39.3703 19.5495 39.368 19.5197 39.3657C21.952 40.9086 24.864 41.8 27.9815 41.8C38.1563 41.8 43.7062 33.5029 43.7062 26.3029Z" fill="url(#paint0_radial)"/>
</g>
<defs>
<filter id="filter0_d" x="0" y="0" width="66" height="66" filterUnits="userSpaceOnUse" color-interpolation-filters="sRGB">
<feFlood flood-opacity="0" result="BackgroundImageFix"/>
<feColorMatrix in="SourceAlpha" type="matrix" values="0 0 0 0 0 0 0 0 0 0 0 0 0 0 0 0 0 0 127 0"/>
<feOffset dy="2"/>
<feGaussianBlur stdDeviation="3"/>
<feColorMatrix type="matrix" values="0 0 0 0 0 0 0 0 0 0 0 0 0 0 0 0 0 0 0.16 0"/>
<feBlend mode="normal" in2="BackgroundImageFix" result="effect1_dropShadow"/>
<feBlend mode="normal" in="SourceGraphic" in2="effect1_dropShadow" result="shape"/>
</filter>
<radialGradient id="paint0_radial" cx="0" cy="0" r="1" gradientUnits="userSpaceOnUse" gradientTransform="translate(33.0004 29.65) rotate(90) scale(24.3)">
<stop offset="0.753285" stop-color="white" stop-opacity="0"/>
<stop offset="1" stop-color="#3095D2"/>
</radialGradient>
</defs>
</svg>
