<svg viewBox="0 0 296 240" fill="none" xmlns="http://www.w3.org/2000/svg">
<g filter="url(#filter0_i)">
<path d="M181.333 199.708C181.333 199.708 191.634 209.809 193.508 218.612C195.383 227.415 204.839 225.544 206.477 223.039C206.477 223.039 209.392 231.289 214.532 231.218C219.672 231.146 225.276 233.263 234.278 240C234.278 240 230.601 222.824 222.525 216.69C214.45 210.556 217.128 210.208 213.378 204.984C211.133 201.866 191.397 200.23 181.333 199.708Z" fill="#EDF1FA"/>
<path d="M199.699 195.343C199.699 195.343 212.812 199.095 218.374 205.567C223.937 212.038 230.9 206.221 231.116 203.41C231.116 203.41 237.297 208.93 241.499 206.579C245.702 204.227 251.316 203.512 261.833 205.005C261.833 205.005 250.976 192.44 241.51 190.978C232.043 189.516 234.093 188.033 228.613 185.396C225.338 183.78 208.249 191.243 199.699 195.343Z" fill="#EDF1FA"/>
<path d="M227.366 179.783C227.366 179.783 240.149 178.955 247.123 182.85C254.097 186.745 258.402 179.486 257.691 176.93C257.691 176.93 264.902 179.865 267.889 176.46C270.876 173.056 275.563 170.602 285.4 168.66C285.4 168.66 271.783 160.982 262.945 162.669C254.107 164.355 255.466 162.413 249.77 161.8C246.319 161.503 233.608 173.475 227.366 179.783Z" fill="#EDF1FA"/>
<path d="M246.958 156.575C246.958 156.575 258.207 152.485 265.5 154.182C272.793 155.879 274.77 148.212 273.4 146.106C273.4 146.106 280.611 146.852 282.413 143.039C284.216 139.225 287.749 135.78 296 131.465C296 131.465 281.744 128.143 274.276 131.987C266.808 135.831 267.488 133.714 262.224 134.655C259.062 135.187 250.873 149.265 246.958 156.575Z" fill="#EDF1FA"/>
<path d="M260.617 124.892C260.617 124.892 268.384 116.959 275.203 115.466C282.022 113.973 280.508 106.766 278.561 105.529C278.561 105.529 284.937 103.259 284.855 99.3332C284.772 95.4073 286.379 91.1542 291.55 84.1919C291.55 84.1919 278.252 87.1057 273.545 93.3114C268.837 99.5172 268.549 97.4724 264.521 100.376C262.152 102.083 260.937 117.194 260.617 124.892Z" fill="#EDF1FA"/>
<path d="M260.401 87.5144C260.401 87.5144 266.478 79.2537 272.535 77.0045C278.592 74.7553 276.254 68.3451 274.297 67.4659C274.297 67.4659 279.849 64.5624 279.261 60.9739C278.674 57.3854 279.57 53.2448 283.382 46.2416C283.382 46.2416 271.587 50.6275 268.085 56.9252C264.583 63.223 264.058 61.3726 260.741 64.5522C258.784 66.4538 259.69 80.4295 260.401 87.5144Z" fill="#EDF1FA"/>
<path d="M254.139 60.5139C254.139 60.5139 256.405 51.3842 260.752 47.3765C265.099 43.3689 260.876 38.7375 258.908 38.6557C258.908 38.6557 262.606 34.2698 260.845 31.4174C259.083 28.565 258.404 24.7414 259.197 17.4519C259.197 17.4519 250.699 25.2731 249.926 31.8366C249.154 38.4002 248.062 37.02 246.362 40.8641C245.353 43.1644 251.039 54.7375 254.139 60.5139Z" fill="#EDF1FA"/>
<path d="M254.612 64.0817C254.612 64.0817 246.371 60.7386 240.974 61.7814C235.576 62.8242 234.34 57.099 235.381 55.5859C235.381 55.5859 230.004 55.9233 228.809 53.0402C227.614 50.1572 225.08 47.5195 219.116 44.0945C219.116 44.0945 229.746 42.0498 235.154 45.1169C240.562 48.184 240.109 46.5891 243.971 47.4377C246.279 47.8978 251.934 58.5712 254.612 64.0817Z" fill="#EDF1FA"/>
<path d="M259.855 86.451C259.855 86.451 251.615 83.1079 246.217 84.1507C240.82 85.1935 239.583 79.4683 240.614 77.9552C240.614 77.9552 235.237 78.3028 234.052 75.4095C232.867 72.5162 230.323 69.899 224.359 66.4741C224.359 66.4741 234.979 64.4293 240.387 67.4964C245.795 70.5635 245.352 68.9685 249.215 69.8171C251.522 70.3078 257.177 80.9507 259.855 86.451Z" fill="#EDF1FA"/>
<path d="M257.301 135.188C257.301 135.188 251.841 125.864 245.754 122.848C239.666 119.832 242.818 113.381 244.96 112.624C244.96 112.624 239.47 108.974 240.49 105.283C241.51 101.593 241.005 97.1044 237.771 89.3958C237.771 89.3958 249.658 95.2847 252.624 102.257C255.591 109.23 256.343 107.369 259.464 111.049C261.328 113.329 258.835 127.847 257.301 135.188Z" fill="#EDF1FA"/>
<path d="M232.95 174.272C232.95 174.272 231.354 162.76 226.533 157.27C221.712 151.78 227.511 146.638 229.932 146.801C229.932 146.801 225.966 140.933 228.5 137.661C231.034 134.39 232.373 129.758 232.353 120.71C232.353 120.71 241.768 131.404 241.85 139.573C241.932 147.742 243.457 146.178 245.043 151.126C245.991 154.08 237.513 167.565 232.95 174.272Z" fill="#EDF1FA"/>
<path d="M204.129 193.626C204.129 193.626 205.509 182.932 202.522 176.859C199.535 170.786 205.993 167.566 208.136 168.292C208.136 168.292 206.014 162.086 209.083 159.765C212.153 157.444 214.471 153.631 216.654 145.513C216.654 145.513 222.485 157.352 220.569 164.683C218.653 172.013 220.394 170.98 220.569 175.796C220.744 178.679 209.856 188.718 204.129 193.626Z" fill="#EDF1FA"/>
<path d="M241.89 36.2735C241.89 36.2735 240.706 28.1967 242.92 23.5552C245.135 18.9137 240.17 16.5623 238.563 17.1451C238.563 17.1451 240.088 12.4115 237.729 10.6939C235.37 8.97633 233.609 6.11374 231.806 0C231.806 0 227.552 9.04793 229.097 14.5687C230.642 20.0895 229.313 19.3431 229.21 22.993C229.107 25.1706 237.492 32.6339 241.89 36.2735Z" fill="#EDF1FA"/>
<path d="M114.667 199.708C114.667 199.708 104.366 209.809 102.491 218.612C100.617 227.415 91.1606 225.544 89.5125 223.039C89.5125 223.039 86.6077 231.289 81.4676 231.218C76.3276 231.146 70.724 233.263 61.7212 240C61.7212 240 65.3986 222.824 73.4743 216.69C81.55 210.556 78.8719 210.208 82.6213 204.984C84.8669 201.866 104.603 200.23 114.667 199.708Z" fill="#EDF1FA"/>
<path d="M96.3115 195.343C96.3115 195.343 83.1987 199.095 77.6363 205.567C72.074 212.038 65.1107 206.221 64.8944 203.41C64.8944 203.41 58.714 208.93 54.5113 206.579C50.3086 204.227 44.6844 203.512 34.1777 205.005C34.1777 205.005 45.0346 192.44 54.501 190.978C63.9673 189.516 61.9072 188.033 67.3974 185.396C70.6628 183.78 87.7516 191.243 96.3115 195.343Z" fill="#EDF1FA"/>
<path d="M68.6336 179.783C68.6336 179.783 55.8505 178.955 48.8666 182.85C41.8828 186.745 37.5977 179.486 38.2981 176.93C38.2981 176.93 31.0876 179.865 28.1107 176.46C25.1338 173.056 20.4368 170.602 10.6511 168.66C10.6511 168.66 24.2686 160.982 33.0963 162.669C41.924 164.355 40.5849 162.413 46.2812 161.8C49.6804 161.503 62.3914 173.475 68.6336 179.783Z" fill="#EDF1FA"/>
<path d="M49.0415 156.575C49.0415 156.575 37.7932 152.485 30.5003 154.182C23.2074 155.879 21.2297 148.212 22.5894 146.106C22.5894 146.106 15.3789 146.852 13.5866 143.039C11.7943 139.225 8.25085 135.78 0 131.465C0 131.465 14.2562 128.143 21.7242 131.987C29.1922 135.831 28.5123 133.714 33.7759 134.655C36.9176 135.187 45.1273 149.265 49.0415 156.575Z" fill="#EDF1FA"/>
<path d="M35.3829 124.892C35.3829 124.892 27.6059 116.959 20.7972 115.466C13.9884 113.973 15.4923 106.766 17.4392 105.529C17.4392 105.529 11.063 103.259 11.1455 99.3332C11.2279 95.4073 9.61064 91.1542 4.4397 84.1919C4.4397 84.1919 17.7482 87.1057 22.4556 93.3114C27.163 99.5172 27.4411 97.4724 31.479 100.376C33.8893 102.083 35.0636 117.194 35.3829 124.892Z" fill="#EDF1FA"/>
<path d="M35.5892 87.5144C35.5892 87.5144 29.5118 79.2537 23.4653 77.0045C17.4188 74.7553 19.7467 68.3451 21.7039 67.4659C21.7039 67.4659 16.1518 64.5624 16.7389 60.9739C17.3261 57.3854 16.4196 53.2448 12.6187 46.2416C12.6187 46.2416 24.4129 50.6275 27.9151 56.9252C31.4174 63.223 31.9427 61.3726 35.2595 64.5522C37.2167 66.4538 36.3102 80.4295 35.5892 87.5144Z" fill="#EDF1FA"/>
<path d="M41.8614 60.5139C41.8614 60.5139 39.5953 51.3842 35.2381 47.3765C30.8809 43.3689 35.1248 38.7375 37.0922 38.6557C37.0922 38.6557 33.3942 34.2698 35.1557 31.4174C36.9171 28.565 37.5969 24.7414 36.8037 17.4519C36.8037 17.4519 45.3018 25.2731 46.0744 31.8366C46.8469 38.4002 47.9285 37.02 49.6384 40.8641C50.6376 43.1644 44.9619 54.7375 41.8614 60.5139Z" fill="#EDF1FA"/>
<path d="M41.3879 64.0817C41.3879 64.0817 49.6285 60.7386 55.0157 61.7814C60.403 62.8242 61.6494 57.099 60.6193 55.5859C60.6193 55.5859 65.9963 55.9233 67.1911 53.0402C68.386 50.1572 70.9097 47.5195 76.8841 44.0945C76.8841 44.0945 66.2538 42.0498 60.8459 45.1169C55.4381 48.184 55.8913 46.5891 52.0286 47.4377C49.7212 47.8978 44.0661 58.5712 41.3879 64.0817Z" fill="#EDF1FA"/>
<path d="M36.145 86.451C36.145 86.451 44.3341 83.1079 49.7831 84.1507C55.2322 85.1935 56.4167 79.4683 55.3764 77.9552C55.3764 77.9552 60.7533 78.3028 61.9482 75.4095C63.1431 72.5162 65.677 69.899 71.6411 66.4741C71.6411 66.4741 61.0108 64.4293 55.6133 67.4964C50.2157 70.5635 50.6483 68.9685 46.7856 69.8171C44.4782 70.3078 38.8232 80.9507 36.145 86.451Z" fill="#EDF1FA"/>
<path d="M38.7 135.188C38.7 135.188 44.1491 125.864 50.2471 122.848C56.3451 119.832 53.1828 113.381 51.0402 112.624C51.0402 112.624 56.5202 108.974 55.5108 105.283C54.5013 101.593 54.9854 97.1044 58.2198 89.3958C58.2198 89.3958 46.3431 95.2847 43.3765 102.257C40.4099 109.23 39.6477 107.369 36.5266 111.049C34.6622 113.329 37.1652 127.847 38.7 135.188Z" fill="#EDF1FA"/>
<path d="M63.0503 174.272C63.0503 174.272 64.6469 162.76 69.4676 157.27C74.2883 151.78 68.4375 146.638 66.0581 146.801C66.0581 146.801 70.0238 140.933 67.5002 137.661C64.9765 134.39 63.6168 129.758 63.6477 120.71C63.6477 120.71 54.2329 131.404 54.1505 139.573C54.0681 147.742 52.5436 146.178 50.947 151.126C49.9581 154.08 58.4871 167.565 63.0503 174.272Z" fill="#EDF1FA"/>
<path d="M91.8719 193.626C91.8719 193.626 90.4916 182.932 93.4685 176.859C96.4454 170.786 89.9971 167.566 87.8649 168.292C87.8649 168.292 89.9869 162.086 86.9173 159.765C83.8477 157.444 81.5197 153.631 79.336 145.513C79.336 145.513 73.516 157.352 75.432 164.683C77.3479 172.013 75.5968 170.98 75.3805 175.796C75.2569 178.679 86.1447 188.718 91.8719 193.626Z" fill="#EDF1FA"/>
<path d="M54.0783 36.2735C54.0783 36.2735 55.2629 28.1967 53.0483 23.5552C50.8336 18.9137 55.8088 16.5623 57.4158 17.1451C57.4158 17.1451 55.8912 12.4115 58.2398 10.6939C60.5884 8.97633 62.3601 6.11374 64.173 0C64.173 0 68.4272 9.04793 66.8821 14.5687C65.337 20.0895 66.6658 19.3431 66.7688 22.993C66.8821 25.1706 58.5076 32.6339 54.0783 36.2735Z" fill="#EDF1FA"/>
<path d="M259.248 88.4345C261.236 110.017 258.671 129.145 248.947 148.948C239.883 167.422 224.977 183.433 205.489 191.111C178.284 201.713 135.99 196.499 118.273 226.178C118.009 226.613 117.93 227.134 118.054 227.627C118.178 228.12 118.493 228.544 118.932 228.805C119.37 229.067 119.896 229.145 120.392 229.022C120.889 228.9 121.316 228.586 121.579 228.151C138.452 200.547 179.345 206.088 207.075 195.149C247.824 179.098 274.472 125.035 259.526 72.3425C258.111 67.1806 256.161 62.1784 253.706 57.416C253.617 57.2578 253.471 57.1386 253.297 57.0818C253.124 57.025 252.935 57.0347 252.768 57.1091C252.602 57.1835 252.469 57.3171 252.397 57.4836C252.324 57.6502 252.317 57.8376 252.377 58.0089C252.377 58.0089 258.207 77.8224 259.248 88.4345Z" fill="#D3DAE8"/>
<path d="M213.368 218.428C210.991 216.39 208.513 214.473 205.941 212.683C203.401 210.883 200.781 209.203 198.082 207.642C195.414 206.068 192.653 204.575 189.841 203.318C187.031 202.015 184.153 200.862 181.22 199.862C184.066 201.054 186.844 202.398 189.543 203.89C192.239 205.366 194.859 206.977 197.392 208.716C199.94 210.447 202.398 212.277 204.767 214.206C207.139 216.111 209.411 218.134 211.576 220.268C211.818 220.508 212.145 220.643 212.487 220.643C212.829 220.643 213.157 220.508 213.399 220.268C213.641 220.028 213.777 219.703 213.777 219.364C213.777 219.024 213.641 218.699 213.399 218.459L213.368 218.428Z" fill="#D3DAE8"/>
<path d="M234.731 196.437C231.785 195.804 228.901 195.415 225.966 195.027C223.03 194.638 220.104 194.485 217.169 194.393C214.233 194.301 211.297 194.393 208.372 194.526C205.458 194.713 202.556 195.054 199.678 195.548C202.574 195.269 205.483 195.143 208.393 195.17C211.297 195.188 214.199 195.355 217.086 195.671C219.96 195.967 222.834 196.376 225.677 196.918C228.52 197.46 231.353 198.104 234.052 198.901C234.369 198.97 234.701 198.917 234.981 198.753C235.261 198.589 235.468 198.326 235.561 198.017C235.653 197.708 235.625 197.375 235.48 197.086C235.336 196.797 235.087 196.572 234.783 196.458L234.731 196.437Z" fill="#D3DAE8"/>
<path d="M258.67 169.672C255.858 170.05 253.17 170.582 250.43 171.206C247.69 171.829 245.084 172.596 242.467 173.445C239.845 174.287 237.266 175.259 234.742 176.358C232.224 177.442 229.769 178.664 227.387 180.018C229.86 178.86 232.394 177.837 234.979 176.951C237.554 176.058 240.167 175.298 242.818 174.671C245.455 174.037 248.122 173.496 250.811 173.087C253.499 172.678 256.209 172.361 258.835 172.218C259.004 172.21 259.17 172.169 259.323 172.097C259.477 172.026 259.614 171.925 259.728 171.8C259.842 171.676 259.93 171.53 259.987 171.372C260.044 171.214 260.069 171.046 260.061 170.878C260.04 170.539 259.885 170.222 259.631 169.995C259.377 169.767 259.043 169.648 258.701 169.662L258.67 169.672Z" fill="#D3DAE8"/>
<path d="M272.329 139.236C269.898 140.32 267.632 141.506 265.376 142.784C263.12 144.062 260.947 145.442 258.825 146.873C256.703 148.304 254.705 149.879 252.645 151.525C250.681 153.166 248.81 154.913 247.041 156.759C248.952 155.071 250.957 153.491 253.046 152.026C255.107 150.564 257.27 149.204 259.474 147.936C261.678 146.669 263.924 145.503 266.231 144.45C268.505 143.378 270.833 142.423 273.205 141.587C273.516 141.468 273.768 141.233 273.908 140.932C274.048 140.632 274.065 140.289 273.955 139.977C273.846 139.664 273.618 139.406 273.321 139.256C273.023 139.107 272.679 139.077 272.36 139.175L272.329 139.236Z" fill="#D3DAE8"/>
<path d="M274.823 100.161C273.267 102.012 271.805 103.94 270.445 105.938C269.085 107.911 267.818 109.945 266.634 112.072C265.449 114.198 264.368 116.274 263.389 118.451C262.417 120.615 261.564 122.83 260.834 125.087C261.748 122.916 262.78 120.797 263.925 118.738C265.074 116.682 266.329 114.685 267.684 112.757C269.034 110.825 270.445 108.943 271.949 107.144C273.453 105.345 275.039 103.566 276.646 101.971C276.766 101.853 276.862 101.712 276.928 101.557C276.994 101.402 277.028 101.236 277.029 101.068C277.03 100.9 276.997 100.734 276.933 100.578C276.87 100.422 276.775 100.281 276.656 100.161C276.537 100.042 276.396 99.9468 276.24 99.8816C276.084 99.8164 275.916 99.7823 275.747 99.7814C275.577 99.7804 275.41 99.8126 275.253 99.876C275.096 99.9394 274.954 100.033 274.833 100.151C274.83 100.154 274.826 100.158 274.823 100.161Z" fill="#D3DAE8"/>
<path d="M270.125 62.988C268.909 64.9407 267.879 66.873 266.89 68.8666C265.902 70.8602 265.026 72.8947 264.223 75.0008C263.43 77.0541 262.742 79.1458 262.162 81.2679C261.553 83.3782 261.068 85.522 260.71 87.6884C261.282 85.5806 261.969 83.5054 262.77 81.4723C263.563 79.4276 264.459 77.4545 265.448 75.5222C266.437 73.59 267.508 71.6883 268.631 69.8481C269.756 68.0129 270.973 66.2352 272.278 64.5216C272.38 64.3873 272.456 64.2343 272.499 64.0712C272.542 63.9081 272.552 63.7382 272.529 63.5711C272.507 63.404 272.451 63.243 272.365 63.0974C272.279 62.9517 272.166 62.8242 272.03 62.7222C271.895 62.6202 271.741 62.5456 271.577 62.5027C271.412 62.4598 271.241 62.4494 271.073 62.4722C270.904 62.495 270.742 62.5505 270.595 62.6355C270.449 62.7205 270.32 62.8333 270.217 62.9676L270.125 62.988Z" fill="#D3DAE8"/>
<path d="M253.726 36.2736C253.402 38.3059 253.182 40.3533 253.067 42.4078C252.933 44.4525 252.902 46.4973 252.954 48.542C252.995 50.5722 253.139 52.599 253.386 54.6148C253.621 56.6186 253.965 58.6083 254.416 60.5752C254.166 58.5806 254.028 56.5736 254.004 54.5637C254.004 52.519 254.004 50.5663 254.221 48.5829C254.437 46.5995 254.622 44.6161 254.962 42.6532C255.302 40.6902 255.704 38.7273 256.209 36.887C256.254 36.7252 256.267 36.5562 256.246 36.3895C256.226 36.2229 256.172 36.0618 256.089 35.9156C256.006 35.7693 255.895 35.6409 255.761 35.5374C255.628 35.4339 255.476 35.3575 255.313 35.3125C255.15 35.2675 254.979 35.255 254.811 35.2753C254.643 35.2957 254.481 35.3486 254.334 35.4312C254.187 35.5138 254.057 35.6244 253.953 35.7567C253.849 35.8889 253.772 36.0403 253.726 36.2021V36.2736Z" fill="#D3DAE8"/>
<path d="M236.401 50.3925C238.172 51.2922 239.8 52.2533 241.417 53.2859C243.034 54.3184 244.6 55.4123 246.114 56.5676C247.629 57.7229 249.091 58.9497 250.482 60.2379C251.873 61.5297 253.194 62.8948 254.437 64.3273C253.057 63.0462 251.609 61.8382 250.101 60.7082C248.601 59.583 247.043 58.5353 245.434 57.5695C243.834 56.588 242.2 55.6816 240.531 54.8501C238.863 54.022 237.132 53.2347 235.453 52.6008C235.154 52.4883 234.912 52.2625 234.781 51.973C234.649 51.6834 234.639 51.354 234.753 51.057C234.866 50.7601 235.094 50.5201 235.385 50.3897C235.677 50.2594 236.009 50.2494 236.308 50.3619L236.401 50.3925Z" fill="#D3DAE8"/>
<path d="M241.665 72.7718C243.39 73.6453 245.068 74.6077 246.692 75.655C248.309 76.6773 249.874 77.7917 251.389 78.947C252.903 80.1022 254.366 81.329 255.756 82.6172C257.149 83.9039 258.467 85.2694 259.701 86.7067C258.328 85.4177 256.88 84.2093 255.365 83.0876C253.861 81.963 252.309 80.9133 250.709 79.9386C249.102 78.9674 247.474 78.0576 245.795 77.2192C244.145 76.3885 242.454 75.6411 240.727 74.9802C240.568 74.9338 240.42 74.8553 240.292 74.7493C240.165 74.6433 240.061 74.5122 239.987 74.3644C239.912 74.2166 239.87 74.0553 239.862 73.8904C239.854 73.7255 239.88 73.5608 239.939 73.4066C239.999 73.2523 240.089 73.1117 240.206 72.994C240.322 72.8762 240.462 72.7837 240.616 72.7222C240.771 72.6606 240.936 72.6315 241.103 72.6365C241.269 72.6416 241.432 72.6807 241.582 72.7515L241.665 72.7718Z" fill="#D3DAE8"/>
<path d="M249.895 108.392C250.908 110.526 251.812 112.71 252.604 114.935C253.407 117.133 254.097 119.362 254.664 121.611C255.279 123.854 255.777 126.126 256.158 128.42C256.542 130.701 256.803 133.001 256.94 135.311C256.56 133.043 256.058 130.798 255.436 128.583C254.824 126.374 254.098 124.197 253.263 122.061C252.439 119.924 251.532 117.828 250.523 115.783C249.549 113.744 248.466 111.758 247.278 109.833C247.073 109.502 247.009 109.104 247.1 108.727C247.191 108.349 247.429 108.022 247.762 107.819C248.096 107.616 248.497 107.552 248.877 107.642C249.258 107.732 249.587 107.969 249.792 108.3L249.895 108.392Z" fill="#D3DAE8"/>
<path d="M236.606 144.542C236.735 147.079 236.735 149.621 236.606 152.158C236.493 154.673 236.266 157.178 235.947 159.673C235.629 162.157 235.185 164.624 234.618 167.065C234.061 169.485 233.373 171.874 232.558 174.221C233.121 171.803 233.548 169.356 233.835 166.891C234.131 164.437 234.306 161.977 234.361 159.509C234.361 157.045 234.361 154.592 234.217 152.138C234.083 149.71 233.822 147.29 233.434 144.889C233.364 144.475 233.463 144.049 233.71 143.707C233.956 143.365 234.329 143.134 234.747 143.064C235.165 142.995 235.593 143.094 235.938 143.338C236.283 143.583 236.516 143.953 236.586 144.368C236.598 144.425 236.604 144.483 236.606 144.542Z" fill="#D3DAE8"/>
<path d="M214.666 167.872C214.161 170.244 213.533 172.463 212.822 174.702C212.111 176.941 211.287 179.118 210.391 181.276C209.504 183.427 208.507 185.533 207.404 187.584C206.314 189.629 205.111 191.612 203.799 193.524C204.891 191.496 205.872 189.411 206.734 187.277C207.6 185.152 208.356 182.986 209 180.785C209.649 178.597 210.216 176.379 210.68 174.15C211.143 171.921 211.514 169.651 211.71 167.463C211.77 167.093 211.971 166.76 212.271 166.532C212.571 166.304 212.947 166.198 213.323 166.236C213.699 166.274 214.046 166.453 214.294 166.736C214.541 167.019 214.671 167.385 214.656 167.76C214.656 167.76 214.676 167.821 214.666 167.872Z" fill="#D3DAE8"/>
<path d="M233.568 16.9097C233.977 18.6379 234.476 20.3441 235.062 22.0215C235.628 23.6982 236.277 25.3442 236.988 26.9596C237.699 28.5749 238.471 30.1596 239.326 31.7034C240.1 33.257 240.956 34.7688 241.891 36.2324C241.112 34.6819 240.424 33.0878 239.831 31.458C239.148 29.8601 238.546 28.229 238.028 26.5711C237.506 24.9217 237.053 23.2552 236.669 21.5717C236.298 19.895 235.979 18.1775 235.783 16.5213C235.731 16.2427 235.574 15.9943 235.344 15.8265C235.114 15.6587 234.828 15.5842 234.545 15.6181C234.261 15.652 234.002 15.7916 233.818 16.0087C233.635 16.2259 233.542 16.5041 233.558 16.787C233.566 16.8273 233.57 16.8685 233.568 16.9097Z" fill="#D3DAE8"/>
<path d="M262.472 100.376H261.184C261.184 95.7548 255.168 93.2193 255.107 93.2193L255.601 92.0334C255.879 92.1561 262.472 94.9267 262.472 100.376Z" fill="#D3DAE8"/>
<path d="M252.666 92.6264C252.664 93.157 252.82 93.6763 253.116 94.1184C253.412 94.5604 253.833 94.9053 254.327 95.1093C254.82 95.3133 255.364 95.3672 255.888 95.2642C256.413 95.1611 256.895 94.9058 257.273 94.5306C257.651 94.1554 257.908 93.6772 258.012 93.1567C258.115 92.6361 258.061 92.0966 257.856 91.6068C257.65 91.1169 257.303 90.6987 256.857 90.4052C256.412 90.1116 255.889 89.956 255.354 89.958C254.641 89.958 253.957 90.2391 253.453 90.7395C252.949 91.2399 252.666 91.9187 252.666 92.6264Z" fill="#D3DAE8"/>
<path d="M245.187 135.187C245.185 135.718 245.341 136.237 245.637 136.679C245.933 137.121 246.354 137.466 246.848 137.67C247.341 137.874 247.885 137.928 248.409 137.825C248.934 137.722 249.415 137.466 249.794 137.091C250.172 136.716 250.429 136.238 250.533 135.717C250.636 135.197 250.582 134.657 250.377 134.167C250.171 133.677 249.824 133.259 249.378 132.966C248.933 132.672 248.41 132.517 247.875 132.519C247.162 132.519 246.478 132.8 245.974 133.3C245.47 133.8 245.187 134.479 245.187 135.187Z" fill="#D3DAE8"/>
<path d="M269.826 125.035C269.826 125.748 270.039 126.446 270.439 127.04C270.839 127.633 271.406 128.096 272.071 128.369C272.735 128.642 273.466 128.714 274.172 128.574C274.877 128.435 275.525 128.091 276.033 127.587C276.542 127.082 276.888 126.439 277.029 125.739C277.169 125.039 277.097 124.313 276.822 123.654C276.547 122.994 276.08 122.43 275.482 122.034C274.885 121.637 274.181 121.426 273.462 121.426C272.498 121.426 271.573 121.806 270.891 122.483C270.209 123.16 269.826 124.077 269.826 125.035Z" fill="#D3DAE8"/>
<path d="M187.369 182.196C187.369 182.91 187.582 183.607 187.982 184.201C188.381 184.794 188.949 185.257 189.614 185.53C190.278 185.803 191.009 185.875 191.715 185.735C192.42 185.596 193.068 185.253 193.576 184.748C194.085 184.243 194.431 183.6 194.572 182.9C194.712 182.2 194.64 181.474 194.365 180.815C194.089 180.155 193.623 179.592 193.025 179.195C192.427 178.799 191.724 178.587 191.005 178.587C190.041 178.587 189.116 178.967 188.434 179.644C187.752 180.321 187.369 181.239 187.369 182.196Z" fill="#D3DAE8"/>
<path d="M270.506 89.9579C272.514 89.9579 274.142 88.3421 274.142 86.3489C274.142 84.3558 272.514 82.74 270.506 82.74C268.498 82.74 266.87 84.3558 266.87 86.3489C266.87 88.3421 268.498 89.9579 270.506 89.9579Z" fill="#D3DAE8"/>
<path d="M234.207 40.7922C234.205 41.5064 234.416 42.2052 234.814 42.8C235.213 43.3948 235.78 43.8589 236.444 44.1336C237.108 44.4084 237.84 44.4814 238.546 44.3433C239.252 44.2052 239.901 43.8622 240.41 43.3579C240.92 42.8536 241.267 42.2105 241.408 41.5102C241.549 40.8099 241.478 40.0837 241.203 39.4237C240.928 38.7636 240.462 38.1994 239.864 37.8024C239.266 37.4054 238.562 37.1935 237.843 37.1935C236.88 37.1935 235.957 37.5723 235.275 38.2469C234.594 38.9215 234.209 39.8368 234.207 40.7922Z" fill="#D3DAE8"/>
<path d="M262.472 95.3558L261.194 95.2434C261.335 93.0052 262.232 90.8794 263.741 89.2098C265.249 87.5402 267.281 86.4242 269.507 86.0421L269.672 87.2996C267.727 87.6279 265.953 88.6053 264.644 90.0703C263.334 91.5352 262.568 93.3999 262.472 95.3558Z" fill="#D3DAE8"/>
<path d="M258.299 133.388L257.104 132.928C260.462 124.248 272.452 125.301 272.555 125.301L272.452 126.62C272.349 126.62 261.317 125.598 258.299 133.388Z" fill="#D3DAE8"/>
<path d="M252.367 148.089L251.089 147.926C251.34 145.762 251.143 143.57 250.509 141.485C249.874 139.4 248.817 137.465 247.402 135.801L248.349 134.932C249.902 136.728 251.061 138.826 251.752 141.091C252.444 143.356 252.653 145.74 252.367 148.089Z" fill="#D3DAE8"/>
<path d="M187.05 200.159L186.144 199.259C191.387 194.055 190.264 184.23 190.264 184.128L191.541 183.975C191.572 184.404 192.736 194.515 187.05 200.159Z" fill="#D3DAE8"/>
<path d="M36.7528 88.4345C34.7647 110.017 37.3296 129.145 47.0535 148.948C56.1181 167.422 71.0128 183.433 90.5017 191.111C117.665 201.692 160.021 196.519 177.728 226.178C177.958 226.613 178.012 227.118 177.878 227.591C177.745 228.064 177.434 228.468 177.009 228.721C176.585 228.973 176.079 229.055 175.596 228.949C175.113 228.843 174.689 228.557 174.411 228.151C163.163 209.748 141.521 206.211 120.312 202.53C99.7105 199.014 80.5307 196.192 61.8452 177.186C43.1598 158.18 32.478 130.801 32.2617 104.056C32.1999 88.4141 35.1459 71.2384 42.2637 57.416C42.3429 57.2398 42.4894 57.1019 42.671 57.0329C42.8525 56.9639 43.0543 56.9692 43.2319 57.0479C43.4095 57.1265 43.5483 57.272 43.6178 57.4522C43.6874 57.6324 43.682 57.8327 43.6028 58.009C39.9428 67.7964 37.6384 78.0318 36.7528 88.4345Z" fill="#D3DAE8"/>
<path d="M82.6317 218.428C85.0085 216.39 87.4873 214.473 90.0585 212.683C92.6028 210.883 95.2088 209.206 97.9076 207.642C100.606 206.078 103.346 204.575 106.148 203.318C108.958 202.013 111.836 200.86 114.77 199.862C111.92 201.052 109.138 202.396 106.437 203.89C103.738 205.376 101.121 206.985 98.5875 208.716C96.0535 210.447 93.595 212.277 91.2122 214.206C88.8533 216.128 86.5254 218.162 84.4137 220.268C84.294 220.387 84.1519 220.482 83.9955 220.546C83.839 220.61 83.6714 220.643 83.5021 220.643C83.3328 220.643 83.1652 220.61 83.0088 220.546C82.8524 220.482 82.7102 220.387 82.5905 220.268C82.4708 220.15 82.3758 220.009 82.311 219.853C82.2462 219.698 82.2129 219.532 82.2129 219.364C82.2129 219.196 82.2462 219.029 82.311 218.874C82.3758 218.719 82.4708 218.578 82.5905 218.459L82.6317 218.428Z" fill="#D3DAE8"/>
<path d="M61.2896 196.437C64.2355 195.804 67.1197 195.415 70.0554 195.027C72.9911 194.638 75.9165 194.485 78.8522 194.393C81.7879 194.301 84.7236 194.393 87.6387 194.526C90.5564 194.712 93.4619 195.053 96.3428 195.548C93.4434 195.269 90.531 195.142 87.6181 195.17C84.7169 195.188 81.8185 195.355 78.9346 195.671C76.0504 195.967 73.1868 196.376 70.3438 196.918C67.5008 197.46 64.6681 198.104 61.9694 198.901C61.8038 198.964 61.6271 198.991 61.4502 198.983C61.2734 198.974 61.1002 198.93 60.9416 198.852C60.7829 198.774 60.6421 198.664 60.5281 198.529C60.414 198.395 60.3291 198.239 60.2787 198.07C60.2282 197.902 60.2134 197.725 60.235 197.55C60.2566 197.376 60.3142 197.208 60.4043 197.056C60.4943 196.905 60.6148 196.774 60.7583 196.671C60.9018 196.568 61.0651 196.495 61.2381 196.458L61.2896 196.437Z" fill="#D3DAE8"/>
<path d="M37.3295 169.671C40.1416 170.05 42.8301 170.581 45.5701 171.205C48.3101 171.829 50.9264 172.595 53.5428 173.444C56.1656 174.286 58.744 175.258 61.2683 176.358C63.7861 177.442 66.2415 178.664 68.623 180.018C66.1502 178.86 63.616 177.836 61.0314 176.951C58.4563 176.058 55.8433 175.298 53.1926 174.671C50.5454 174.037 47.8878 173.495 45.1993 173.086C42.5108 172.677 39.8017 172.36 37.1648 172.217C36.9957 172.209 36.8298 172.168 36.6767 172.096C36.5236 172.025 36.3862 171.924 36.2724 171.799C36.1586 171.675 36.0706 171.53 36.0134 171.372C35.9561 171.213 35.9309 171.046 35.939 170.878C35.9471 170.71 35.9884 170.545 36.0606 170.393C36.1328 170.241 36.2345 170.105 36.3598 169.992C36.4851 169.879 36.6316 169.792 36.7909 169.735C36.9503 169.678 37.1193 169.653 37.2884 169.661L37.3295 169.671Z" fill="#D3DAE8"/>
<path d="M23.6705 139.236C26.1015 140.319 28.3676 141.505 30.6235 142.783C32.8793 144.061 35.0528 145.441 37.1644 146.873C39.303 148.318 41.3658 149.87 43.3448 151.524C45.3095 153.168 47.1835 154.915 48.9587 156.759C47.0456 155.073 45.0408 153.493 42.9534 152.025C40.8933 150.567 38.7507 149.204 36.5258 147.936C34.3215 146.678 32.0656 145.503 29.7686 144.45C27.494 143.38 25.1665 142.424 22.795 141.587C22.6297 141.537 22.4763 141.453 22.344 141.343C22.2117 141.232 22.1034 141.096 22.0252 140.943C21.947 140.79 21.9008 140.623 21.8891 140.452C21.8775 140.28 21.9008 140.108 21.9575 139.946C22.0143 139.784 22.1034 139.635 22.2195 139.508C22.3356 139.38 22.4764 139.278 22.6334 139.206C22.7904 139.134 22.9604 139.094 23.1333 139.088C23.3062 139.083 23.4784 139.112 23.6396 139.174L23.6705 139.236Z" fill="#D3DAE8"/>
<path d="M21.1786 100.161C22.7752 102.053 24.1864 103.954 25.5564 105.938C26.9263 107.921 28.183 109.945 29.3573 112.072C30.5492 114.141 31.6322 116.271 32.6021 118.452C33.5823 120.614 34.4387 122.829 35.1669 125.087C34.2531 122.917 33.2215 120.797 32.0767 118.738C30.9127 116.693 29.6663 114.648 28.3169 112.757C26.9675 110.866 25.5563 108.943 24.0524 107.144C22.5485 105.345 20.9622 103.566 19.3553 101.971C19.0972 101.739 18.9424 101.415 18.925 101.07C18.9076 100.725 19.0291 100.387 19.2627 100.131C19.4962 99.8745 19.8228 99.7209 20.1705 99.7037C20.5182 99.6864 20.8586 99.8069 21.1168 100.039L21.1786 100.161Z" fill="#D3DAE8"/>
<path d="M25.8755 62.988C27.091 64.9407 28.1211 66.873 29.1099 68.8666C30.0988 70.8602 30.9743 72.8947 31.7778 75.0008C32.5704 77.0541 33.258 79.1458 33.8379 81.2679C34.4378 83.3807 34.9226 85.5239 35.2904 87.6884C34.7186 85.5806 34.0309 83.5054 33.2302 81.4723C32.4371 79.4276 31.5409 77.4545 30.552 75.5222C29.5631 73.59 28.4919 71.6883 27.3691 69.8481C26.2464 68.0078 25 66.188 23.7227 64.5216C23.6199 64.3873 23.5447 64.2343 23.5015 64.0712C23.4583 63.9081 23.4479 63.7382 23.4708 63.5711C23.4938 63.404 23.5497 63.243 23.6353 63.0974C23.7209 62.9517 23.8346 62.8242 23.9699 62.7222C24.1052 62.6202 24.2593 62.5456 24.4237 62.5027C24.588 62.4598 24.7592 62.4494 24.9276 62.4722C25.0959 62.495 25.2581 62.5505 25.4048 62.6355C25.5516 62.7205 25.68 62.8333 25.7828 62.9676L25.8755 62.988Z" fill="#D3DAE8"/>
<path d="M42.2734 36.2732C42.5977 38.3055 42.8178 40.3528 42.9326 42.4073C43.0562 44.4521 43.0871 46.4968 43.0459 48.5415C43.0047 50.5863 42.8502 52.6309 42.6133 54.6143C42.3786 56.6181 42.0347 58.6079 41.5832 60.5748C41.8302 58.58 41.9643 56.573 41.985 54.5633C42.0194 52.5675 41.9506 50.5713 41.779 48.5825C41.6141 46.5991 41.367 44.6156 41.0373 42.6527C40.7179 40.7106 40.2985 38.786 39.7806 36.8865C39.7206 36.5692 39.7827 36.2411 39.9548 35.9671C40.1269 35.6932 40.3964 35.4933 40.7099 35.4072C41.0234 35.321 41.3581 35.3549 41.6476 35.502C41.9372 35.6491 42.1605 35.8989 42.2734 36.2016V36.2732Z" fill="#D3DAE8"/>
<path d="M59.5688 50.3924C57.7971 51.2921 56.1696 52.2532 54.5421 53.2858C52.9146 54.3184 51.3695 55.4123 49.8553 56.5676C48.3411 57.7228 46.8784 58.9496 45.4775 60.2378C44.0766 61.526 41.8929 63.3049 40.6465 64.7055C42.3188 63.2839 44.0618 61.9464 45.8689 60.698C47.3688 59.5727 48.9263 58.525 50.5351 57.5592C52.1352 56.5777 53.7695 55.6713 55.4382 54.8398C57.0918 54.0058 58.7867 53.255 60.5165 52.5905C60.8139 52.4762 61.0536 52.2495 61.183 51.9602C61.3123 51.6708 61.3208 51.3423 61.2066 51.0468C61.1517 50.9 61.068 50.7656 60.9605 50.6511C60.8529 50.5367 60.7236 50.4445 60.58 50.3798C60.4363 50.3152 60.2812 50.2795 60.1236 50.2746C59.966 50.2698 59.8089 50.2959 59.6615 50.3516L59.5688 50.3924Z" fill="#D3DAE8"/>
<path d="M54.3256 72.7718C52.6039 73.6453 50.9295 74.6077 49.3091 75.655C47.6919 76.6773 46.1262 77.7917 44.612 78.947C43.0978 80.1022 41.6351 81.329 40.2446 82.6172C38.8507 83.9065 37.5301 85.2717 36.2891 86.7067C37.6647 85.4201 39.1126 84.2119 40.6257 83.0876C42.1296 81.963 43.6849 80.9133 45.2918 79.9386C46.8988 78.964 48.5331 78.0576 50.195 77.2192C51.8637 76.3911 53.5942 75.614 55.2732 74.9802C55.4328 74.9338 55.5811 74.8553 55.7086 74.7493C55.8361 74.6433 55.9401 74.5122 56.0141 74.3644C56.0882 74.2166 56.1306 74.0553 56.1387 73.8904C56.1468 73.7255 56.1204 73.5608 56.0612 73.4066C56.0021 73.2523 55.9114 73.1117 55.7948 72.994C55.6783 72.8762 55.5385 72.7837 55.3842 72.7222C55.2299 72.6606 55.0644 72.6315 54.8981 72.6365C54.7319 72.6416 54.5686 72.6807 54.4183 72.7515L54.3256 72.7718Z" fill="#D3DAE8"/>
<path d="M46.1061 108.391C45.0891 110.525 44.1815 112.709 43.3867 114.934C42.5969 117.136 41.9102 119.361 41.3265 121.61C40.7116 123.853 40.2131 126.126 39.8329 128.419C39.4489 130.701 39.1876 133.001 39.05 135.31C39.4255 133.042 39.9276 130.796 40.554 128.583C41.1667 126.374 41.8921 124.197 42.7274 122.06C43.5515 119.927 44.4614 117.834 45.4571 115.783C46.4389 113.746 47.5253 111.76 48.7121 109.833C48.8173 109.667 48.8883 109.483 48.9209 109.29C48.9536 109.097 48.9472 108.9 48.9021 108.71C48.857 108.519 48.7742 108.34 48.6585 108.181C48.5427 108.023 48.3964 107.889 48.228 107.788C48.0623 107.681 47.8764 107.608 47.6815 107.574C47.4867 107.54 47.2869 107.546 47.0943 107.591C46.9017 107.636 46.7204 107.719 46.5611 107.835C46.4019 107.952 46.2681 108.099 46.1679 108.269L46.1061 108.391Z" fill="#D3DAE8"/>
<path d="M59.3841 144.542C59.2554 147.079 59.2554 149.621 59.3841 152.158C59.4871 154.674 59.724 157.178 60.0433 159.673C60.3626 162.167 60.8056 164.631 61.3618 167.065C61.9149 169.486 62.6026 171.875 63.422 174.221C62.8605 171.802 62.4307 169.355 62.1344 166.891C61.846 164.437 61.6743 161.977 61.6194 159.509C61.5644 157.042 61.6091 154.585 61.7533 152.138C61.8949 149.71 62.1596 147.291 62.5464 144.889C62.5976 144.678 62.6044 144.458 62.5664 144.244C62.5284 144.03 62.4464 143.826 62.3255 143.644C62.2046 143.463 62.0474 143.308 61.8636 143.19C61.6798 143.072 61.4735 142.992 61.2574 142.956C61.0412 142.92 60.82 142.929 60.6074 142.982C60.3948 143.034 60.1954 143.13 60.0216 143.262C59.8478 143.395 59.7034 143.561 59.5973 143.751C59.4911 143.942 59.4256 144.152 59.4047 144.368C59.3944 144.429 59.3944 144.481 59.3841 144.542Z" fill="#D3DAE8"/>
<path d="M81.3345 167.872C81.8392 170.244 82.4675 172.463 83.1783 174.702C83.889 176.941 84.7131 179.118 85.6092 181.275C86.4959 183.427 87.4929 185.533 88.5964 187.583C89.6825 189.628 90.8827 191.611 92.1914 193.523C91.1018 191.496 90.1252 189.41 89.266 187.277C88.4149 185.158 87.6724 182.998 87.041 180.805C86.3818 178.617 85.8152 176.399 85.362 174.17C84.9007 171.961 84.5569 169.729 84.3319 167.484C84.2923 167.097 84.0997 166.742 83.7964 166.497C83.4931 166.252 83.104 166.136 82.7147 166.175C82.3254 166.214 81.9678 166.406 81.7206 166.707C81.4733 167.008 81.3567 167.394 81.3963 167.78C81.3735 167.809 81.3529 167.84 81.3345 167.872Z" fill="#D3DAE8"/>
<path d="M62.4221 16.9099C62.0101 18.699 61.5053 20.3757 60.9388 22.0217C60.3723 23.6677 59.7233 25.3445 59.0126 26.9598C58.3129 28.5803 57.5291 30.1637 56.664 31.7036C55.942 33.1719 55.1373 34.5985 54.2537 35.977C54.9615 34.5325 55.5908 33.0514 56.1387 31.54C56.8185 29.9451 57.416 28.3093 57.9413 26.6531C58.4667 24.9968 58.9714 23.3406 59.2907 21.6537C59.6774 19.9867 59.9765 18.301 60.1869 16.6033C60.1997 16.4544 60.2424 16.3095 60.3123 16.1772C60.3822 16.0449 60.4779 15.9277 60.5939 15.8325C60.71 15.7373 60.844 15.666 60.9881 15.6228C61.1322 15.5796 61.2835 15.5654 61.4333 15.5809C61.5843 15.5909 61.7317 15.6313 61.8664 15.6998C62.0011 15.7683 62.1203 15.8633 62.2168 15.9791C62.3132 16.0949 62.3848 16.2292 62.4272 16.3734C62.4696 16.5176 62.4819 16.6688 62.4633 16.8179C62.4539 16.8503 62.44 16.8812 62.4221 16.9099Z" fill="#D3DAE8"/>
<path d="M34.8061 100.376H33.4773C33.4773 94.896 40.08 92.197 40.3581 92.0334L40.8423 93.2193C40.8217 93.2397 34.8061 95.7548 34.8061 100.376Z" fill="#D3DAE8"/>
<path d="M43.3346 92.6264C43.3366 93.157 43.1798 93.6763 42.884 94.1184C42.5883 94.5604 42.1669 94.9053 41.6733 95.1093C41.1798 95.3133 40.6363 95.3672 40.1118 95.2642C39.5873 95.1611 39.1055 94.9058 38.7275 94.5306C38.3494 94.1554 38.0922 93.6772 37.9884 93.1567C37.8846 92.6361 37.9389 92.0966 38.1444 91.6068C38.35 91.1169 38.6975 90.6987 39.1429 90.4052C39.5882 90.1116 40.1114 89.956 40.6461 89.958C41.3591 89.958 42.0429 90.2391 42.5471 90.7395C43.0513 91.2399 43.3346 91.9187 43.3346 92.6264Z" fill="#D3DAE8"/>
<path d="M50.8136 135.187C50.8156 135.718 50.6588 136.237 50.363 136.679C50.0673 137.121 49.6459 137.466 49.1523 137.67C48.6588 137.874 48.1153 137.928 47.5908 137.825C47.0664 137.722 46.5845 137.466 46.2065 137.091C45.8284 136.716 45.5712 136.238 45.4674 135.717C45.3636 135.197 45.4179 134.657 45.6234 134.167C45.829 133.677 46.1765 133.259 46.6219 132.966C47.0673 132.672 47.5904 132.517 48.125 132.519C48.8381 132.519 49.5219 132.8 50.0261 133.3C50.5303 133.8 50.8136 134.479 50.8136 135.187Z" fill="#D3DAE8"/>
<path d="M26.1736 125.035C26.1736 125.748 25.9604 126.446 25.5608 127.04C25.1613 127.633 24.5934 128.096 23.929 128.369C23.2646 128.642 22.5335 128.714 21.8281 128.574C21.1228 128.435 20.4749 128.091 19.9664 127.587C19.4578 127.082 19.1115 126.439 18.9712 125.739C18.8309 125.039 18.9029 124.313 19.1781 123.654C19.4534 122.994 19.9194 122.43 20.5173 122.034C21.1153 121.637 21.8183 121.426 22.5375 121.426C23.5019 121.426 24.4267 121.806 25.1086 122.483C25.7906 123.16 26.1736 124.077 26.1736 125.035Z" fill="#D3DAE8"/>
<path d="M108.672 182.196C108.672 182.91 108.459 183.607 108.059 184.201C107.66 184.794 107.092 185.257 106.428 185.53C105.763 185.803 105.032 185.875 104.327 185.735C103.621 185.596 102.973 185.253 102.465 184.748C101.956 184.243 101.61 183.6 101.47 182.9C101.329 182.2 101.401 181.474 101.677 180.815C101.952 180.155 102.418 179.592 103.016 179.195C103.614 178.799 104.317 178.587 105.036 178.587C106 178.587 106.925 178.967 107.607 179.644C108.289 180.321 108.672 181.239 108.672 182.196Z" fill="#D3DAE8"/>
<path d="M25.4843 89.9579C27.4925 89.9579 29.1204 88.3421 29.1204 86.3489C29.1204 84.3558 27.4925 82.74 25.4843 82.74C23.4761 82.74 21.8481 84.3558 21.8481 86.3489C21.8481 88.3421 23.4761 89.9579 25.4843 89.9579Z" fill="#D3DAE8"/>
<path d="M61.7932 40.7922C61.7953 41.5064 61.5838 42.2052 61.1855 42.8C60.7872 43.3948 60.22 43.8589 59.5557 44.1336C58.8915 44.4084 58.1601 44.4814 57.4541 44.3433C56.748 44.2052 56.0992 43.8622 55.5896 43.3579C55.0801 42.8536 54.7328 42.2105 54.5916 41.5102C54.4505 40.8099 54.5219 40.0837 54.7968 39.4237C55.0717 38.7636 55.5377 38.1994 56.1359 37.8024C56.7341 37.4054 57.4375 37.1935 58.1571 37.1935C59.1197 37.1935 60.043 37.5723 60.7246 38.2469C61.4062 38.9215 61.7905 39.8368 61.7932 40.7922Z" fill="#D3DAE8"/>
<path d="M33.5288 95.3563C33.4274 93.4025 32.6577 91.5414 31.3467 90.0804C30.0358 88.6195 28.262 87.6459 26.3184 87.3205L26.4935 86.0629C28.7183 86.4483 30.7479 87.5655 32.2557 89.2344C33.7635 90.9034 34.6618 93.0271 34.8061 95.2642L33.5288 95.3563Z" fill="#D3DAE8"/>
<path d="M37.6903 133.388C34.6825 125.618 23.6607 126.559 23.5474 126.579L23.4238 125.301C23.5474 125.301 35.5271 124.279 38.8749 132.928L37.6903 133.388Z" fill="#D3DAE8"/>
<path d="M43.6232 148.089C43.3368 145.739 43.5471 143.355 44.2405 141.089C44.934 138.824 46.0954 136.727 47.6508 134.932L48.5881 135.801C47.1796 137.469 46.1265 139.404 45.4927 141.488C44.8589 143.572 44.6575 145.762 44.9005 147.926L43.6232 148.089Z" fill="#D3DAE8"/>
<path d="M108.95 200.159C103.264 194.515 104.428 184.404 104.48 183.975L105.757 184.128C105.757 184.23 104.624 194.055 109.877 199.259L108.95 200.159Z" fill="#D3DAE8"/>
<path d="M155.416 206.508C155.416 211.947 151.863 216.353 147.475 216.353C143.086 216.353 139.543 211.947 139.543 206.508C139.543 201.069 143.097 196.652 147.475 196.652C151.852 196.652 155.416 201.069 155.416 206.508Z" fill="#D3DAE8"/>
</g>
<g filter="url(#filter1_d)">
<path d="M135.197 166.043C134.875 169.092 155.341 179.609 172.644 178.604C189.947 177.598 198.732 160.854 200.281 152.016C201.83 143.177 196.405 125.844 193.308 125.344C190.211 124.843 138.051 139.146 135.197 166.043Z" fill="#49CEB1"/>
<path d="M152.834 143.213C150.449 144.688 137.133 157.797 140.172 161.039C143.212 164.28 189.705 139.672 193.304 125.344C197.856 107.366 152.834 143.213 152.834 143.213Z" fill="#24846B"/>
<path d="M105.509 33.6413C96.5749 39.8516 94.9727 49.7198 95.4464 56.6913C95.7553 61.2427 116.93 54.6199 123.561 49.0427C130.044 43.5857 133.417 39.1704 133.417 35.5725C133.417 34.1422 114.903 27.1106 105.509 33.6413Z" fill="#49CEB1"/>
<path d="M171.499 145.43C171.499 145.43 183.909 155.242 182.727 165.29C181.512 175.643 178.443 177.611 178.443 177.611C178.443 177.611 189.696 171.625 193.053 160.41C196.409 149.196 189.247 133.782 189.247 133.782L171.499 145.43Z" fill="#BAECE1"/>
<path d="M193.061 119.563C193.576 121.322 196.678 126.098 202.357 129.363C208.037 132.628 217.082 130.869 221.472 123.081C225.863 115.292 220.179 103.484 212.172 101.725C204.165 99.9666 193.061 119.563 193.061 119.563Z" fill="#49CEB1"/>
<path d="M203.156 108.761C203.156 108.761 211.237 114.771 212.065 119.691C213.033 125.396 209.869 130.91 209.869 130.91C209.869 130.91 215.681 128.345 218.519 121.061C221.357 113.777 216.047 107.495 210.833 104.855C205.619 102.214 203.156 108.761 203.156 108.761Z" fill="#BAECE1"/>
<g filter="url(#filter2_d)">
<path d="M73.4813 110.52C71.422 131.122 76.0638 137.152 85.6193 142.677C95.1748 148.202 134.319 155.574 161.087 149.011C197.065 140.197 217.102 107.002 217.102 92.9186C217.102 78.8354 181.978 35.6241 137.553 35.1313C93.1278 34.6385 75.549 89.9177 73.4813 110.52Z" fill="#49CEB1"/>
</g>
<path d="M95.4304 22.9545C95.4304 22.9545 102.914 36.2685 103.343 36.2685C108.639 36.2685 109.574 32.1256 109.574 32.1256L100.455 19.4447L95.4304 22.9545Z" fill="#49CEB1"/>
<path d="M122.14 33.1772C120.567 32.44 117.363 31.6107 114.479 30.9496C111.184 31.1219 108.021 31.8951 105.509 33.642C105.234 33.8423 104.96 34.0467 104.685 34.255C107.202 35.7976 113.619 39.9524 115.612 43.2458C117.008 45.5536 117.91 49.6563 118.38 52.2967C120.231 51.4021 121.974 50.311 123.578 49.0433C127.771 45.5135 130.654 42.4244 132.174 39.704C129.266 37.4162 124.319 34.1949 122.14 33.1772Z" fill="#BAECE1"/>
<path d="M92.9755 11.0279C84.9687 15.0345 89.3593 27.6113 99.6891 23.5927C110.019 19.574 102.539 6.22794 92.9755 11.0279Z" fill="#49CEB1"/>
<path d="M115.649 139.375L108.013 149.039C107.705 149.428 107.305 149.738 106.846 149.942C106.388 150.147 105.885 150.24 105.381 150.213L92.8477 149.564C92.2684 149.533 91.6919 149.661 91.1833 149.933C90.6747 150.205 90.2544 150.609 89.9699 151.101C89.6854 151.593 89.548 152.152 89.5733 152.716C89.5985 153.28 89.7854 153.826 90.1129 154.292L97.193 164.356C97.4796 164.762 97.6601 165.229 97.719 165.718C97.7778 166.207 97.7132 166.702 97.5308 167.161L93.0001 178.544C92.7867 179.072 92.7301 179.647 92.8367 180.204C92.9434 180.762 93.2089 181.279 93.6032 181.697C93.9974 182.115 94.5044 182.416 95.0663 182.567C95.6282 182.718 96.2224 182.712 96.7811 182.55L108.808 179.109C109.42 178.94 110.07 178.96 110.67 179.165L118.326 138.233C117.818 138.192 117.307 138.275 116.839 138.475C116.372 138.674 115.963 138.983 115.649 139.375Z" fill="#FFB243"/>
<path d="M138.121 158.378L126.308 154.284C125.834 154.118 125.408 153.844 125.066 153.483C124.725 153.122 124.478 152.686 124.348 152.212L121.119 140.429C120.956 139.82 120.601 139.277 120.103 138.875C119.606 138.473 118.992 138.233 118.347 138.189L110.69 179.137C111.045 179.245 111.376 179.413 111.67 179.633L121.403 187.322C121.854 187.678 122.398 187.905 122.973 187.976C123.549 188.047 124.134 187.96 124.662 187.724C125.19 187.489 125.639 187.114 125.959 186.643C126.279 186.172 126.457 185.623 126.473 185.058L126.823 172.866C126.838 172.376 126.975 171.896 127.223 171.468C127.47 171.04 127.821 170.677 128.244 170.41L138.768 163.783C139.259 163.478 139.653 163.044 139.903 162.531C140.154 162.019 140.251 161.448 140.183 160.884C140.116 160.32 139.886 159.786 139.522 159.343C139.157 158.9 138.672 158.566 138.121 158.378Z" fill="#F9CB58"/>
<path d="M140.172 161.039C140.137 160.45 139.922 159.884 139.555 159.413C139.189 158.942 138.687 158.588 138.113 158.395L126.3 154.3C125.799 154.124 125.354 153.824 125.007 153.431L118.829 158.439L140.172 161.039Z" fill="#FFDA7E"/>
<path d="M128.195 170.459L118.108 169.838L124.756 187.68C125.264 187.44 125.695 187.069 126.001 186.607C126.306 186.144 126.474 185.609 126.486 185.059L126.836 172.867C126.85 172.39 126.981 171.923 127.217 171.504C127.454 171.085 127.789 170.727 128.195 170.459Z" fill="#FFDA7E"/>
<path d="M87.4191 174.085C92.2504 177.258 106.407 177.098 110.282 168.303C114.158 159.509 110.282 148.551 103.635 145.486C95.3642 141.676 85.4833 143.915 81.3521 151.472C75.7177 161.793 80.9732 169.838 87.4191 174.085Z" fill="#49CEB1"/>
<path d="M88.2433 169.838C88.2433 169.838 87.3372 158.992 90.9164 154.553C95.4471 148.943 103.956 147.966 103.956 147.966C103.956 147.966 92.8069 143.999 87.156 148.591C79.388 154.893 82.543 165.43 88.2433 169.838Z" fill="#BAECE1"/>
<path d="M112.869 76.0993C111.634 76.3157 110.027 90.5752 107.96 101.613C105.892 112.652 101.6 127.632 102.502 128.273C103.404 128.914 124.719 133.951 142.528 130.922C175.412 125.312 193.415 102.475 203.136 83.3873C204.067 81.5563 200.866 72.7859 190.368 64.6685C178.485 55.4974 157.545 47.9449 156.664 48.9666C150.132 56.5311 126.548 73.7555 112.869 76.0993Z" fill="#6740A0"/>
<path d="M148.896 104.237C148.896 104.237 159.229 100.972 162.842 98.4597C166.454 95.9475 164.901 111.02 159.744 111.525C154.588 112.03 148.896 107.495 148.896 104.237Z" fill="white"/>
<path d="M157.385 66.5517C156.013 69.2001 168.015 92.5585 171.5 83.135C174.984 73.7115 161.091 59.392 157.385 66.5517Z" fill="white"/>
<path d="M118.095 96.3236C119.36 95.4181 120.888 94.9333 122.375 94.4966C123.881 94.0953 125.412 93.7888 126.959 93.5791C128.501 93.3546 130.055 93.2102 131.613 93.1464C132.396 93.1103 133.178 93.1023 133.977 93.1183C134.389 93.1183 134.776 93.1504 135.192 93.1865C135.407 93.2105 135.604 93.2345 135.86 93.2786C136.014 93.308 136.166 93.3509 136.313 93.4068C136.376 93.4275 136.436 93.4544 136.494 93.487L136.605 93.5551C136.673 93.599 136.735 93.6501 136.791 93.7073C136.874 93.7859 136.942 93.8799 136.988 93.9838C137.066 94.1382 137.104 94.3087 137.099 94.4806C137.09 94.6472 137.043 94.8098 136.963 94.9574C136.921 95.0298 136.87 95.0971 136.811 95.1577C136.742 95.238 136.66 95.3069 136.568 95.362L136.473 95.4221L136.407 95.4542C136.332 95.4928 136.255 95.5275 136.177 95.5584C136.041 95.6064 135.926 95.6425 135.814 95.6705L135.221 95.8228C134.871 95.9109 134.521 95.9951 134.179 96.1073C133.485 96.3156 132.805 96.5672 132.145 96.8605C130.798 97.4492 129.51 98.1574 128.298 98.976C125.832 100.703 123.561 102.679 121.522 104.87C122.968 102.154 124.943 99.7387 127.338 97.758C128.552 96.7408 129.889 95.8729 131.321 95.1737C132.041 94.8231 132.786 94.5218 133.549 94.2722C133.928 94.136 134.327 94.0399 134.719 93.9357L135.242 93.7995L135.427 93.7394H135.456L135.419 93.7594C135.371 93.7941 135.327 93.833 135.287 93.8756C135.246 93.9219 135.212 93.973 135.184 94.0278C135.111 94.1496 135.07 94.2873 135.065 94.4285C135.058 94.5782 135.091 94.727 135.159 94.8612C135.201 94.9404 135.252 95.0143 135.312 95.0816C135.352 95.1223 135.396 95.1586 135.444 95.1898L135.493 95.2218L135.547 95.2458L135.444 95.2218C135.287 95.1906 135.129 95.1679 134.97 95.1537C134.624 95.1176 134.257 95.0976 133.891 95.0776C133.15 95.0375 132.396 95.0335 131.642 95.0295C130.13 95.0295 128.615 95.0696 127.111 95.1216C125.608 95.1737 124.08 95.2859 122.581 95.4622C121.056 95.579 119.551 95.8681 118.095 96.3236Z" fill="white"/>
</g>
<defs>
<filter id="filter0_i" x="0" y="-4" width="300" height="244" filterUnits="userSpaceOnUse" color-interpolation-filters="sRGB">
<feFlood flood-opacity="0" result="BackgroundImageFix"/>
<feBlend mode="normal" in="SourceGraphic" in2="BackgroundImageFix" result="shape"/>
<feColorMatrix in="SourceAlpha" type="matrix" values="0 0 0 0 0 0 0 0 0 0 0 0 0 0 0 0 0 0 127 0" result="hardAlpha"/>
<feOffset dx="4" dy="-5"/>
<feGaussianBlur stdDeviation="2"/>
<feComposite in2="hardAlpha" operator="arithmetic" k2="-1" k3="1"/>
<feColorMatrix type="matrix" values="0 0 0 0 0.866667 0 0 0 0 0.909804 0 0 0 0 0.929412 0 0 0 0.5 0"/>
<feBlend mode="multiply" in2="shape" result="effect1_innerShadow"/>
</filter>
<filter id="filter1_d" x="53" y="0" width="190" height="218" filterUnits="userSpaceOnUse" color-interpolation-filters="sRGB">
<feFlood flood-opacity="0" result="BackgroundImageFix"/>
<feColorMatrix in="SourceAlpha" type="matrix" values="0 0 0 0 0 0 0 0 0 0 0 0 0 0 0 0 0 0 127 0"/>
<feOffset dy="10"/>
<feGaussianBlur stdDeviation="10"/>
<feColorMatrix type="matrix" values="0 0 0 0 0 0 0 0 0 0 0 0 0 0 0 0 0 0 0.2 0"/>
<feBlend mode="normal" in2="BackgroundImageFix" result="effect1_dropShadow"/>
<feBlend mode="normal" in="SourceGraphic" in2="effect1_dropShadow" result="shape"/>
</filter>
<filter id="filter2_d" x="63" y="29.1281" width="164.102" height="136.465" filterUnits="userSpaceOnUse" color-interpolation-filters="sRGB">
<feFlood flood-opacity="0" result="BackgroundImageFix"/>
<feColorMatrix in="SourceAlpha" type="matrix" values="0 0 0 0 0 0 0 0 0 0 0 0 0 0 0 0 0 0 127 0"/>
<feOffset dy="4"/>
<feGaussianBlur stdDeviation="5"/>
<feColorMatrix type="matrix" values="0 0 0 0 0.741176 0 0 0 0 0.741176 0 0 0 0 0.741176 0 0 0 0.6 0"/>
<feBlend mode="normal" in2="BackgroundImageFix" result="effect1_dropShadow"/>
<feBlend mode="normal" in="SourceGraphic" in2="effect1_dropShadow" result="shape"/>
</filter>
</defs>
</svg>
