<svg  viewBox="0 0 296 241" fill="none" xmlns="http://www.w3.org/2000/svg">
<g filter="url(#filter0_i)">
<path d="M181.333 199.708C181.333 199.708 191.634 209.809 193.509 218.612C195.383 227.415 204.839 225.544 206.477 223.039C206.477 223.039 209.392 231.289 214.532 231.218C219.672 231.146 225.276 233.263 234.279 240C234.279 240 230.601 222.824 222.526 216.69C214.45 210.556 217.128 210.208 213.379 204.984C211.133 201.866 191.397 200.23 181.333 199.708Z" fill="#EDF1FA"/>
<path d="M199.699 195.343C199.699 195.343 212.812 199.095 218.374 205.567C223.937 212.038 230.9 206.221 231.116 203.41C231.116 203.41 237.297 208.93 241.499 206.579C245.702 204.227 251.316 203.512 261.833 205.005C261.833 205.005 250.976 192.44 241.51 190.978C232.043 189.516 234.093 188.033 228.613 185.396C225.338 183.78 208.249 191.243 199.699 195.343Z" fill="#EDF1FA"/>
<path d="M227.366 179.783C227.366 179.783 240.15 178.955 247.123 182.85C254.097 186.745 258.402 179.486 257.692 176.93C257.692 176.93 264.902 179.865 267.889 176.46C270.876 173.056 275.563 170.602 285.4 168.66C285.4 168.66 271.783 160.982 262.945 162.669C254.107 164.355 255.467 162.413 249.77 161.8C246.32 161.503 233.609 173.475 227.366 179.783Z" fill="#EDF1FA"/>
<path d="M246.958 156.575C246.958 156.575 258.207 152.485 265.5 154.182C272.793 155.879 274.77 148.212 273.4 146.106C273.4 146.106 280.611 146.852 282.413 143.039C284.216 139.225 287.749 135.78 296 131.465C296 131.465 281.744 128.143 274.276 131.987C266.808 135.831 267.488 133.714 262.224 134.655C259.062 135.187 250.873 149.265 246.958 156.575Z" fill="#EDF1FA"/>
<path d="M260.617 124.892C260.617 124.892 268.384 116.959 275.203 115.466C282.022 113.973 280.508 106.766 278.561 105.529C278.561 105.529 284.937 103.259 284.855 99.3332C284.772 95.4073 286.379 91.1542 291.55 84.1919C291.55 84.1919 278.252 87.1057 273.545 93.3114C268.837 99.5172 268.549 97.4724 264.521 100.376C262.152 102.083 260.937 117.194 260.617 124.892Z" fill="#EDF1FA"/>
<path d="M260.401 87.5144C260.401 87.5144 266.478 79.2537 272.535 77.0045C278.592 74.7553 276.254 68.3451 274.297 67.4659C274.297 67.4659 279.849 64.5624 279.261 60.9739C278.674 57.3854 279.57 53.2448 283.382 46.2416C283.382 46.2416 271.587 50.6275 268.085 56.9252C264.583 63.223 264.058 61.3726 260.741 64.5522C258.784 66.4538 259.69 80.4295 260.401 87.5144Z" fill="#EDF1FA"/>
<path d="M254.139 60.5139C254.139 60.5139 256.405 51.3842 260.752 47.3765C265.099 43.3689 260.876 38.7375 258.908 38.6557C258.908 38.6557 262.606 34.2698 260.845 31.4174C259.083 28.565 258.403 24.7414 259.197 17.4519C259.197 17.4519 250.699 25.2731 249.926 31.8366C249.153 38.4002 248.062 37.02 246.362 40.8641C245.353 43.1644 251.038 54.7375 254.139 60.5139Z" fill="#EDF1FA"/>
<path d="M254.612 64.0817C254.612 64.0817 246.371 60.7386 240.974 61.7814C235.576 62.8242 234.34 57.099 235.381 55.5859C235.381 55.5859 230.004 55.9233 228.809 53.0402C227.614 50.1572 225.08 47.5195 219.116 44.0945C219.116 44.0945 229.746 42.0498 235.154 45.1169C240.562 48.184 240.109 46.5891 243.971 47.4377C246.279 47.8978 251.934 58.5712 254.612 64.0817Z" fill="#EDF1FA"/>
<path d="M259.855 86.451C259.855 86.451 251.615 83.1079 246.217 84.1507C240.82 85.1935 239.583 79.4683 240.614 77.9552C240.614 77.9552 235.237 78.3028 234.052 75.4095C232.867 72.5162 230.323 69.899 224.359 66.4741C224.359 66.4741 234.979 64.4293 240.387 67.4964C245.795 70.5635 245.352 68.9685 249.215 69.8171C251.522 70.3078 257.177 80.9507 259.855 86.451Z" fill="#EDF1FA"/>
<path d="M257.301 135.188C257.301 135.188 251.841 125.864 245.754 122.848C239.666 119.832 242.818 113.381 244.96 112.624C244.96 112.624 239.47 108.974 240.49 105.283C241.51 101.593 241.005 97.1044 237.771 89.3958C237.771 89.3958 249.658 95.2847 252.624 102.257C255.591 109.23 256.343 107.369 259.464 111.049C261.328 113.329 258.835 127.847 257.301 135.188Z" fill="#EDF1FA"/>
<path d="M232.95 174.272C232.95 174.272 231.353 162.76 226.533 157.27C221.712 151.78 227.511 146.638 229.932 146.801C229.932 146.801 225.966 140.933 228.5 137.661C231.034 134.39 232.373 129.758 232.352 120.71C232.352 120.71 241.767 131.404 241.85 139.573C241.932 147.742 243.457 146.178 245.043 151.126C245.991 154.08 237.513 167.565 232.95 174.272Z" fill="#EDF1FA"/>
<path d="M204.129 193.626C204.129 193.626 205.509 182.932 202.522 176.859C199.535 170.786 205.993 167.566 208.136 168.292C208.136 168.292 206.014 162.086 209.083 159.765C212.153 157.444 214.471 153.631 216.654 145.513C216.654 145.513 222.485 157.352 220.569 164.683C218.653 172.013 220.394 170.98 220.569 175.796C220.744 178.679 209.856 188.718 204.129 193.626Z" fill="#EDF1FA"/>
<path d="M241.89 36.2735C241.89 36.2735 240.706 28.1967 242.92 23.5552C245.135 18.9137 240.17 16.5623 238.563 17.1451C238.563 17.1451 240.088 12.4115 237.729 10.6939C235.37 8.97633 233.609 6.11374 231.806 0C231.806 0 227.552 9.04793 229.097 14.5687C230.642 20.0895 229.313 19.3431 229.21 22.993C229.107 25.1706 237.492 32.6339 241.89 36.2735Z" fill="#EDF1FA"/>
<path d="M114.667 199.708C114.667 199.708 104.366 209.809 102.491 218.612C100.616 227.415 91.1605 225.544 89.5124 223.039C89.5124 223.039 86.6076 231.289 81.4675 231.218C76.3275 231.146 70.7239 233.263 61.7211 240C61.7211 240 65.3984 222.824 73.4742 216.69C81.5499 210.556 78.8717 210.208 82.6212 204.984C84.8667 201.866 104.603 200.23 114.667 199.708Z" fill="#EDF1FA"/>
<path d="M96.3113 195.343C96.3113 195.343 83.1986 199.095 77.6362 205.567C72.0738 212.038 65.1106 206.221 64.8943 203.41C64.8943 203.41 58.7138 208.93 54.5112 206.579C50.3085 204.227 44.6843 203.512 34.1776 205.005C34.1776 205.005 45.0345 192.44 54.5008 190.978C63.9672 189.516 61.9071 188.033 67.3973 185.396C70.6626 183.78 87.7515 191.243 96.3113 195.343Z" fill="#EDF1FA"/>
<path d="M68.6336 179.783C68.6336 179.783 55.8505 178.955 48.8666 182.85C41.8828 186.745 37.5977 179.486 38.2981 176.93C38.2981 176.93 31.0876 179.865 28.1107 176.46C25.1338 173.056 20.4368 170.602 10.6511 168.66C10.6511 168.66 24.2686 160.982 33.0963 162.669C41.924 164.355 40.5849 162.413 46.2812 161.8C49.6804 161.503 62.3914 173.475 68.6336 179.783Z" fill="#EDF1FA"/>
<path d="M49.0415 156.575C49.0415 156.575 37.7932 152.485 30.5003 154.182C23.2074 155.879 21.2297 148.212 22.5894 146.106C22.5894 146.106 15.3789 146.852 13.5866 143.039C11.7943 139.225 8.25085 135.78 0 131.465C0 131.465 14.2562 128.143 21.7242 131.987C29.1922 135.831 28.5123 133.714 33.7759 134.655C36.9176 135.187 45.1273 149.265 49.0415 156.575Z" fill="#EDF1FA"/>
<path d="M35.3829 124.892C35.3829 124.892 27.6059 116.959 20.7972 115.466C13.9884 113.973 15.4923 106.766 17.4392 105.529C17.4392 105.529 11.063 103.259 11.1455 99.3332C11.2279 95.4073 9.61064 91.1542 4.4397 84.1919C4.4397 84.1919 17.7482 87.1057 22.4556 93.3114C27.163 99.5172 27.4411 97.4724 31.479 100.376C33.8893 102.083 35.0636 117.194 35.3829 124.892Z" fill="#EDF1FA"/>
<path d="M35.589 87.5144C35.589 87.5144 29.5117 79.2537 23.4652 77.0045C17.4187 74.7553 19.7466 68.3451 21.7037 67.4659C21.7037 67.4659 16.1517 64.5624 16.7388 60.9739C17.3259 57.3854 16.4195 53.2448 12.6185 46.2416C12.6185 46.2416 24.4128 50.6275 27.915 56.9252C31.4172 63.223 31.9426 61.3726 35.2594 64.5522C37.2165 66.4538 36.3101 80.4295 35.589 87.5144Z" fill="#EDF1FA"/>
<path d="M41.8615 60.5139C41.8615 60.5139 39.5954 51.3842 35.2382 47.3765C30.881 43.3689 35.1249 38.7375 37.0923 38.6557C37.0923 38.6557 33.3944 34.2698 35.1558 31.4174C36.9172 28.565 37.597 24.7414 36.8039 17.4519C36.8039 17.4519 45.3019 25.2731 46.0745 31.8366C46.847 38.4002 47.9286 37.02 49.6385 40.8641C50.6377 43.1644 44.962 54.7375 41.8615 60.5139Z" fill="#EDF1FA"/>
<path d="M41.3879 64.0817C41.3879 64.0817 49.6285 60.7386 55.0157 61.7814C60.403 62.8242 61.6494 57.099 60.6193 55.5859C60.6193 55.5859 65.9963 55.9233 67.1911 53.0402C68.386 50.1572 70.9097 47.5195 76.8841 44.0945C76.8841 44.0945 66.2538 42.0498 60.8459 45.1169C55.4381 48.184 55.8913 46.5891 52.0286 47.4377C49.7212 47.8978 44.0661 58.5712 41.3879 64.0817Z" fill="#EDF1FA"/>
<path d="M36.145 86.451C36.145 86.451 44.3341 83.1079 49.7831 84.1507C55.2322 85.1935 56.4167 79.4683 55.3764 77.9552C55.3764 77.9552 60.7533 78.3028 61.9482 75.4095C63.1431 72.5162 65.677 69.899 71.6411 66.4741C71.6411 66.4741 61.0108 64.4293 55.6133 67.4964C50.2157 70.5635 50.6483 68.9685 46.7856 69.8171C44.4782 70.3078 38.8232 80.9507 36.145 86.451Z" fill="#EDF1FA"/>
<path d="M38.6999 135.188C38.6999 135.188 44.149 125.864 50.247 122.848C56.345 119.832 53.1827 113.381 51.0401 112.624C51.0401 112.624 56.5201 108.974 55.5106 105.283C54.5012 101.593 54.9853 97.1044 58.2197 89.3958C58.2197 89.3958 46.343 95.2847 43.3764 102.257C40.4098 109.23 39.6476 107.369 36.5265 111.049C34.6621 113.329 37.1651 127.847 38.6999 135.188Z" fill="#EDF1FA"/>
<path d="M63.0503 174.272C63.0503 174.272 64.6469 162.76 69.4676 157.27C74.2883 151.78 68.4375 146.638 66.0581 146.801C66.0581 146.801 70.0238 140.933 67.5002 137.661C64.9765 134.39 63.6168 129.758 63.6477 120.71C63.6477 120.71 54.2329 131.404 54.1505 139.573C54.0681 147.742 52.5436 146.178 50.947 151.126C49.9581 154.08 58.4871 167.565 63.0503 174.272Z" fill="#EDF1FA"/>
<path d="M91.8719 193.626C91.8719 193.626 90.4916 182.932 93.4685 176.859C96.4454 170.786 89.9971 167.566 87.8649 168.292C87.8649 168.292 89.9869 162.086 86.9173 159.765C83.8477 157.444 81.5197 153.631 79.336 145.513C79.336 145.513 73.516 157.352 75.432 164.683C77.3479 172.013 75.5968 170.98 75.3805 175.796C75.2569 178.679 86.1447 188.718 91.8719 193.626Z" fill="#EDF1FA"/>
<path d="M54.0782 36.2735C54.0782 36.2735 55.2628 28.1967 53.0482 23.5552C50.8335 18.9137 55.8087 16.5623 57.4156 17.1451C57.4156 17.1451 55.8911 12.4115 58.2397 10.6939C60.5882 8.97633 62.36 6.11374 64.1729 0C64.1729 0 68.4271 9.04793 66.882 14.5687C65.3369 20.0895 66.6657 19.3431 66.7687 22.993C66.882 25.1706 58.5075 32.6339 54.0782 36.2735Z" fill="#EDF1FA"/>
<path d="M259.248 88.4345C261.236 110.017 258.671 129.145 248.947 148.948C239.883 167.422 224.977 183.433 205.489 191.111C178.284 201.713 135.99 196.499 118.273 226.178C118.009 226.613 117.93 227.134 118.054 227.627C118.178 228.12 118.493 228.544 118.932 228.805C119.37 229.067 119.896 229.145 120.392 229.022C120.889 228.9 121.316 228.586 121.579 228.151C138.452 200.547 179.345 206.088 207.075 195.149C247.824 179.098 274.472 125.035 259.526 72.3425C258.111 67.1806 256.161 62.1784 253.706 57.416C253.617 57.2578 253.471 57.1386 253.297 57.0818C253.124 57.025 252.935 57.0347 252.768 57.1091C252.602 57.1835 252.469 57.3171 252.397 57.4836C252.324 57.6502 252.317 57.8376 252.377 58.0089C252.377 58.0089 258.207 77.8224 259.248 88.4345Z" fill="#D3DAE8"/>
<path d="M213.368 218.428C210.991 216.39 208.512 214.473 205.941 212.683C203.4 210.883 200.781 209.203 198.082 207.642C195.414 206.068 192.653 204.575 189.841 203.318C187.031 202.015 184.153 200.862 181.22 199.862C184.066 201.054 186.844 202.398 189.543 203.89C192.239 205.366 194.859 206.977 197.392 208.716C199.939 210.447 202.398 212.277 204.767 214.206C207.139 216.111 209.411 218.134 211.576 220.268C211.818 220.508 212.145 220.643 212.487 220.643C212.829 220.643 213.157 220.508 213.399 220.268C213.641 220.028 213.777 219.703 213.777 219.364C213.777 219.024 213.641 218.699 213.399 218.459L213.368 218.428Z" fill="#D3DAE8"/>
<path d="M234.732 196.437C231.786 195.804 228.901 195.415 225.966 195.027C223.03 194.638 220.105 194.485 217.169 194.393C214.233 194.301 211.298 194.393 208.372 194.526C205.458 194.713 202.556 195.054 199.678 195.548C202.574 195.269 205.483 195.143 208.393 195.17C211.297 195.188 214.199 195.355 217.087 195.671C219.96 195.967 222.834 196.376 225.677 196.918C228.52 197.46 231.353 198.104 234.052 198.901C234.369 198.97 234.701 198.917 234.981 198.753C235.261 198.589 235.468 198.326 235.561 198.017C235.654 197.708 235.625 197.375 235.48 197.086C235.336 196.797 235.087 196.572 234.783 196.458L234.732 196.437Z" fill="#D3DAE8"/>
<path d="M258.67 169.672C255.858 170.05 253.17 170.582 250.43 171.206C247.69 171.829 245.084 172.596 242.467 173.445C239.845 174.287 237.266 175.259 234.742 176.358C232.224 177.442 229.769 178.664 227.387 180.018C229.86 178.86 232.394 177.837 234.979 176.951C237.554 176.058 240.167 175.298 242.818 174.671C245.455 174.037 248.122 173.496 250.811 173.087C253.499 172.678 256.209 172.361 258.835 172.218C259.004 172.21 259.17 172.169 259.323 172.097C259.477 172.026 259.614 171.925 259.728 171.8C259.842 171.676 259.93 171.53 259.987 171.372C260.044 171.214 260.069 171.046 260.061 170.878C260.04 170.539 259.885 170.222 259.631 169.995C259.377 169.767 259.043 169.648 258.701 169.662L258.67 169.672Z" fill="#D3DAE8"/>
<path d="M272.329 139.236C269.898 140.32 267.632 141.506 265.376 142.784C263.12 144.062 260.947 145.442 258.825 146.873C256.703 148.304 254.705 149.879 252.645 151.525C250.681 153.166 248.81 154.913 247.041 156.759C248.952 155.071 250.957 153.491 253.046 152.026C255.106 150.564 257.27 149.204 259.474 147.936C261.678 146.669 263.924 145.503 266.231 144.45C268.505 143.378 270.832 142.423 273.205 141.587C273.516 141.468 273.768 141.233 273.908 140.932C274.048 140.632 274.065 140.289 273.955 139.977C273.846 139.664 273.618 139.406 273.321 139.256C273.023 139.107 272.679 139.077 272.36 139.175L272.329 139.236Z" fill="#D3DAE8"/>
<path d="M274.823 100.161C273.267 102.012 271.805 103.94 270.445 105.938C269.085 107.911 267.818 109.945 266.634 112.072C265.449 114.198 264.368 116.274 263.389 118.451C262.417 120.615 261.564 122.83 260.834 125.087C261.748 122.916 262.78 120.797 263.925 118.738C265.074 116.682 266.329 114.685 267.684 112.757C269.034 110.825 270.445 108.943 271.949 107.144C273.453 105.345 275.039 103.566 276.646 101.971C276.766 101.853 276.862 101.712 276.928 101.557C276.994 101.402 277.028 101.236 277.029 101.068C277.03 100.9 276.997 100.734 276.933 100.578C276.87 100.422 276.775 100.281 276.656 100.161C276.537 100.042 276.396 99.9468 276.24 99.8816C276.084 99.8164 275.916 99.7823 275.747 99.7814C275.577 99.7804 275.41 99.8126 275.253 99.876C275.096 99.9394 274.954 100.033 274.833 100.151C274.83 100.154 274.826 100.158 274.823 100.161Z" fill="#D3DAE8"/>
<path d="M270.125 62.988C268.909 64.9407 267.879 66.873 266.89 68.8666C265.902 70.8602 265.026 72.8947 264.223 75.0008C263.43 77.0541 262.742 79.1458 262.162 81.2679C261.553 83.3782 261.068 85.522 260.71 87.6884C261.282 85.5806 261.969 83.5054 262.77 81.4723C263.563 79.4276 264.459 77.4545 265.448 75.5222C266.437 73.59 267.508 71.6883 268.631 69.8481C269.756 68.0129 270.973 66.2352 272.278 64.5216C272.38 64.3873 272.456 64.2343 272.499 64.0712C272.542 63.9081 272.552 63.7382 272.529 63.5711C272.507 63.404 272.451 63.243 272.365 63.0974C272.279 62.9517 272.166 62.8242 272.03 62.7222C271.895 62.6202 271.741 62.5456 271.577 62.5027C271.412 62.4598 271.241 62.4494 271.073 62.4722C270.904 62.495 270.742 62.5505 270.595 62.6355C270.449 62.7205 270.32 62.8333 270.217 62.9676L270.125 62.988Z" fill="#D3DAE8"/>
<path d="M253.726 36.2736C253.402 38.3059 253.182 40.3533 253.067 42.4078C252.933 44.4525 252.902 46.4973 252.954 48.542C252.994 50.5722 253.139 52.599 253.386 54.6148C253.621 56.6186 253.965 58.6083 254.416 60.5752C254.166 58.5806 254.028 56.5736 254.004 54.5637C254.004 52.519 254.004 50.5663 254.221 48.5829C254.437 46.5995 254.622 44.6161 254.962 42.6532C255.302 40.6902 255.704 38.7273 256.209 36.887C256.254 36.7252 256.267 36.5562 256.246 36.3895C256.226 36.2229 256.172 36.0618 256.089 35.9156C256.006 35.7693 255.894 35.6409 255.761 35.5374C255.628 35.4339 255.475 35.3575 255.312 35.3125C255.149 35.2675 254.979 35.255 254.811 35.2753C254.643 35.2957 254.481 35.3486 254.334 35.4312C254.186 35.5138 254.057 35.6244 253.953 35.7567C253.848 35.8889 253.771 36.0403 253.726 36.2021V36.2736Z" fill="#D3DAE8"/>
<path d="M236.401 50.3925C238.172 51.2922 239.8 52.2533 241.417 53.2859C243.034 54.3184 244.6 55.4123 246.114 56.5676C247.629 57.7229 249.091 58.9497 250.482 60.2379C251.873 61.5297 253.194 62.8948 254.437 64.3273C253.057 63.0462 251.609 61.8382 250.101 60.7082C248.601 59.583 247.043 58.5353 245.434 57.5695C243.834 56.588 242.2 55.6816 240.531 54.8501C238.863 54.022 237.132 53.2347 235.453 52.6008C235.154 52.4883 234.912 52.2625 234.781 51.973C234.649 51.6834 234.639 51.354 234.753 51.057C234.866 50.7601 235.094 50.5201 235.385 50.3897C235.677 50.2594 236.009 50.2494 236.308 50.3619L236.401 50.3925Z" fill="#D3DAE8"/>
<path d="M241.665 72.7718C243.39 73.6453 245.068 74.6077 246.692 75.655C248.309 76.6773 249.874 77.7917 251.389 78.947C252.903 80.1022 254.366 81.329 255.756 82.6172C257.149 83.9039 258.467 85.2694 259.701 86.7067C258.328 85.4177 256.88 84.2093 255.365 83.0876C253.861 81.963 252.309 80.9133 250.709 79.9386C249.102 78.9674 247.474 78.0576 245.795 77.2192C244.145 76.3885 242.454 75.6411 240.727 74.9802C240.568 74.9338 240.42 74.8553 240.292 74.7493C240.165 74.6433 240.061 74.5122 239.987 74.3644C239.912 74.2166 239.87 74.0553 239.862 73.8904C239.854 73.7255 239.88 73.5608 239.939 73.4066C239.999 73.2523 240.089 73.1117 240.206 72.994C240.322 72.8762 240.462 72.7837 240.616 72.7222C240.771 72.6606 240.936 72.6315 241.103 72.6365C241.269 72.6416 241.432 72.6807 241.582 72.7515L241.665 72.7718Z" fill="#D3DAE8"/>
<path d="M249.895 108.392C250.908 110.526 251.812 112.71 252.604 114.935C253.407 117.133 254.097 119.362 254.664 121.611C255.279 123.854 255.777 126.126 256.158 128.42C256.542 130.701 256.803 133.001 256.94 135.311C256.56 133.043 256.058 130.798 255.436 128.583C254.824 126.374 254.098 124.197 253.263 122.061C252.439 119.924 251.532 117.828 250.523 115.783C249.549 113.744 248.466 111.758 247.278 109.833C247.073 109.502 247.009 109.104 247.1 108.727C247.191 108.349 247.429 108.022 247.762 107.819C248.096 107.616 248.497 107.552 248.877 107.642C249.258 107.732 249.587 107.969 249.792 108.3L249.895 108.392Z" fill="#D3DAE8"/>
<path d="M236.606 144.542C236.735 147.079 236.735 149.621 236.606 152.158C236.493 154.673 236.267 157.178 235.947 159.673C235.629 162.157 235.185 164.624 234.618 167.065C234.061 169.485 233.373 171.874 232.558 174.221C233.121 171.803 233.548 169.356 233.836 166.891C234.131 164.437 234.306 161.977 234.361 159.509C234.361 157.045 234.361 154.592 234.217 152.138C234.084 149.71 233.822 147.29 233.434 144.889C233.364 144.475 233.463 144.049 233.71 143.707C233.956 143.365 234.329 143.134 234.747 143.064C235.165 142.995 235.594 143.094 235.938 143.338C236.283 143.583 236.516 143.953 236.586 144.368C236.598 144.425 236.604 144.483 236.606 144.542Z" fill="#D3DAE8"/>
<path d="M214.666 167.872C214.161 170.244 213.533 172.463 212.822 174.702C212.111 176.941 211.287 179.118 210.391 181.276C209.504 183.427 208.507 185.533 207.404 187.584C206.314 189.629 205.111 191.612 203.799 193.524C204.891 191.496 205.872 189.411 206.734 187.277C207.6 185.152 208.356 182.986 209 180.785C209.649 178.597 210.216 176.379 210.68 174.15C211.143 171.921 211.514 169.651 211.71 167.463C211.77 167.093 211.971 166.76 212.271 166.532C212.571 166.304 212.947 166.198 213.323 166.236C213.699 166.274 214.046 166.453 214.294 166.736C214.541 167.019 214.671 167.385 214.656 167.76C214.656 167.76 214.676 167.821 214.666 167.872Z" fill="#D3DAE8"/>
<path d="M233.568 16.9097C233.977 18.6379 234.476 20.3441 235.062 22.0215C235.628 23.6982 236.277 25.3442 236.988 26.9596C237.699 28.5749 238.471 30.1596 239.326 31.7034C240.1 33.257 240.956 34.7688 241.891 36.2324C241.112 34.6819 240.424 33.0878 239.831 31.458C239.148 29.8601 238.546 28.229 238.029 26.5711C237.507 24.9217 237.053 23.2552 236.669 21.5717C236.298 19.895 235.979 18.1775 235.783 16.5213C235.731 16.2427 235.574 15.9943 235.344 15.8265C235.114 15.6587 234.828 15.5842 234.545 15.6181C234.261 15.652 234.002 15.7916 233.818 16.0087C233.635 16.2259 233.542 16.5041 233.558 16.787C233.566 16.8273 233.57 16.8685 233.568 16.9097Z" fill="#D3DAE8"/>
<path d="M262.472 100.376H261.184C261.184 95.7548 255.168 93.2193 255.107 93.2193L255.601 92.0334C255.879 92.1561 262.472 94.9267 262.472 100.376Z" fill="#D3DAE8"/>
<path d="M252.665 92.6264C252.663 93.157 252.82 93.6763 253.116 94.1184C253.412 94.5604 253.833 94.9053 254.327 95.1093C254.82 95.3133 255.364 95.3672 255.888 95.2642C256.413 95.1611 256.894 94.9058 257.272 94.5306C257.65 94.1554 257.908 93.6772 258.012 93.1567C258.115 92.6361 258.061 92.0966 257.856 91.6068C257.65 91.1169 257.303 90.6987 256.857 90.4052C256.412 90.1116 255.889 89.956 255.354 89.958C254.641 89.958 253.957 90.2391 253.453 90.7395C252.949 91.2399 252.665 91.9187 252.665 92.6264Z" fill="#D3DAE8"/>
<path d="M245.186 135.187C245.184 135.718 245.341 136.237 245.637 136.679C245.933 137.121 246.354 137.466 246.848 137.67C247.341 137.874 247.885 137.928 248.409 137.825C248.934 137.722 249.415 137.466 249.793 137.091C250.171 136.716 250.429 136.238 250.533 135.717C250.636 135.197 250.582 134.657 250.376 134.167C250.171 133.677 249.823 133.259 249.378 132.966C248.933 132.672 248.41 132.517 247.875 132.519C247.162 132.519 246.478 132.8 245.974 133.3C245.47 133.8 245.186 134.479 245.186 135.187Z" fill="#D3DAE8"/>
<path d="M269.826 125.035C269.826 125.748 270.039 126.446 270.439 127.04C270.838 127.633 271.406 128.096 272.071 128.369C272.735 128.642 273.466 128.714 274.172 128.574C274.877 128.435 275.525 128.091 276.033 127.587C276.542 127.082 276.888 126.439 277.028 125.739C277.169 125.039 277.097 124.313 276.822 123.654C276.546 122.994 276.08 122.43 275.482 122.034C274.884 121.637 274.181 121.426 273.462 121.426C272.498 121.426 271.573 121.806 270.891 122.483C270.209 123.16 269.826 124.077 269.826 125.035Z" fill="#D3DAE8"/>
<path d="M187.369 182.196C187.369 182.91 187.583 183.607 187.982 184.201C188.382 184.794 188.949 185.257 189.614 185.53C190.278 185.803 191.009 185.875 191.715 185.735C192.42 185.596 193.068 185.253 193.577 184.748C194.085 184.243 194.431 183.6 194.572 182.9C194.712 182.2 194.64 181.474 194.365 180.815C194.09 180.155 193.623 179.592 193.026 179.195C192.428 178.799 191.725 178.587 191.005 178.587C190.041 178.587 189.116 178.967 188.434 179.644C187.752 180.321 187.369 181.239 187.369 182.196Z" fill="#D3DAE8"/>
<path d="M270.506 89.9579C272.514 89.9579 274.142 88.3421 274.142 86.3489C274.142 84.3558 272.514 82.74 270.506 82.74C268.498 82.74 266.87 84.3558 266.87 86.3489C266.87 88.3421 268.498 89.9579 270.506 89.9579Z" fill="#D3DAE8"/>
<path d="M234.207 40.7922C234.205 41.5064 234.416 42.2052 234.814 42.8C235.213 43.3948 235.78 43.8589 236.444 44.1336C237.108 44.4084 237.84 44.4814 238.546 44.3433C239.252 44.2052 239.901 43.8622 240.41 43.3579C240.92 42.8536 241.267 42.2105 241.408 41.5102C241.549 40.8099 241.478 40.0837 241.203 39.4237C240.928 38.7636 240.462 38.1994 239.864 37.8024C239.266 37.4054 238.562 37.1935 237.843 37.1935C236.88 37.1935 235.957 37.5723 235.275 38.2469C234.594 38.9215 234.209 39.8368 234.207 40.7922Z" fill="#D3DAE8"/>
<path d="M262.472 95.3558L261.194 95.2434C261.335 93.0052 262.232 90.8794 263.741 89.2098C265.249 87.5402 267.281 86.4242 269.507 86.0421L269.672 87.2996C267.727 87.6279 265.953 88.6053 264.644 90.0703C263.334 91.5352 262.568 93.3999 262.472 95.3558Z" fill="#D3DAE8"/>
<path d="M258.299 133.388L257.104 132.928C260.462 124.248 272.452 125.301 272.555 125.301L272.452 126.62C272.349 126.62 261.317 125.598 258.299 133.388Z" fill="#D3DAE8"/>
<path d="M252.367 148.089L251.089 147.926C251.34 145.762 251.143 143.57 250.509 141.485C249.874 139.4 248.817 137.465 247.402 135.801L248.349 134.932C249.902 136.728 251.061 138.826 251.752 141.091C252.444 143.356 252.653 145.74 252.367 148.089Z" fill="#D3DAE8"/>
<path d="M187.05 200.159L186.144 199.259C191.387 194.055 190.264 184.23 190.264 184.128L191.541 183.975C191.572 184.404 192.736 194.515 187.05 200.159Z" fill="#D3DAE8"/>
<path d="M36.7527 88.4345C34.7646 110.017 37.3295 129.145 47.0533 148.948C56.1179 167.422 71.0127 183.433 90.5016 191.111C117.665 201.692 160.021 196.519 177.728 226.178C177.958 226.613 178.012 227.118 177.878 227.591C177.745 228.064 177.434 228.468 177.009 228.721C176.585 228.973 176.079 229.055 175.596 228.949C175.113 228.843 174.689 228.557 174.411 228.151C163.163 209.748 141.521 206.211 120.312 202.53C99.7104 199.014 80.5305 196.192 61.8451 177.186C43.1597 158.18 32.4779 130.801 32.2616 104.056C32.1998 88.4141 35.1458 71.2384 42.2636 57.416C42.3428 57.2398 42.4892 57.1019 42.6708 57.0329C42.8524 56.9639 43.0542 56.9692 43.2318 57.0479C43.4093 57.1265 43.5482 57.272 43.6177 57.4522C43.6873 57.6324 43.6819 57.8327 43.6026 58.009C39.9427 67.7964 37.6383 78.0318 36.7527 88.4345Z" fill="#D3DAE8"/>
<path d="M82.6318 218.428C85.0086 216.39 87.4874 214.473 90.0586 212.683C92.6029 210.883 95.2089 209.206 97.9077 207.642C100.607 206.078 103.346 204.575 106.148 203.318C108.958 202.013 111.836 200.86 114.77 199.862C111.92 201.052 109.138 202.396 106.437 203.89C103.738 205.376 101.122 206.985 98.5876 208.716C96.0536 210.447 93.5952 212.277 91.2123 214.206C88.8534 216.128 86.5255 218.162 84.4139 220.268C84.2941 220.387 84.152 220.482 83.9956 220.546C83.8392 220.61 83.6715 220.643 83.5022 220.643C83.3329 220.643 83.1653 220.61 83.0089 220.546C82.8525 220.482 82.7103 220.387 82.5906 220.268C82.4709 220.15 82.3759 220.009 82.3112 219.853C82.2464 219.698 82.213 219.532 82.213 219.364C82.213 219.196 82.2464 219.029 82.3112 218.874C82.3759 218.719 82.4709 218.578 82.5906 218.459L82.6318 218.428Z" fill="#D3DAE8"/>
<path d="M61.2896 196.437C64.2355 195.804 67.1197 195.415 70.0554 195.027C72.9911 194.638 75.9165 194.485 78.8522 194.393C81.7879 194.301 84.7236 194.393 87.6387 194.526C90.5564 194.712 93.4619 195.053 96.3428 195.548C93.4434 195.269 90.531 195.142 87.6181 195.17C84.7169 195.188 81.8185 195.355 78.9346 195.671C76.0504 195.967 73.1868 196.376 70.3438 196.918C67.5008 197.46 64.6681 198.104 61.9694 198.901C61.8038 198.964 61.6271 198.991 61.4502 198.983C61.2734 198.974 61.1002 198.93 60.9416 198.852C60.7829 198.774 60.6421 198.664 60.5281 198.529C60.414 198.395 60.3291 198.239 60.2787 198.07C60.2282 197.902 60.2134 197.725 60.235 197.55C60.2566 197.376 60.3142 197.208 60.4043 197.056C60.4943 196.905 60.6148 196.774 60.7583 196.671C60.9018 196.568 61.0651 196.495 61.2381 196.458L61.2896 196.437Z" fill="#D3DAE8"/>
<path d="M37.3295 169.671C40.1416 170.05 42.8301 170.581 45.5701 171.205C48.3101 171.829 50.9264 172.595 53.5428 173.444C56.1656 174.286 58.744 175.258 61.2683 176.358C63.7861 177.442 66.2415 178.664 68.623 180.018C66.1502 178.86 63.616 177.836 61.0314 176.951C58.4563 176.058 55.8433 175.298 53.1926 174.671C50.5454 174.037 47.8878 173.495 45.1993 173.086C42.5108 172.677 39.8017 172.36 37.1648 172.217C36.9957 172.209 36.8298 172.168 36.6767 172.096C36.5236 172.025 36.3862 171.924 36.2724 171.799C36.1586 171.675 36.0706 171.53 36.0134 171.372C35.9561 171.213 35.9309 171.046 35.939 170.878C35.9471 170.71 35.9884 170.545 36.0606 170.393C36.1328 170.241 36.2345 170.105 36.3598 169.992C36.4851 169.879 36.6316 169.792 36.7909 169.735C36.9503 169.678 37.1193 169.653 37.2884 169.661L37.3295 169.671Z" fill="#D3DAE8"/>
<path d="M23.6706 139.236C26.1016 140.319 28.3677 141.505 30.6236 142.783C32.8794 144.061 35.0529 145.441 37.1646 146.873C39.3031 148.318 41.366 149.87 43.345 151.524C45.3096 153.168 47.1836 154.915 48.9589 156.759C47.0457 155.073 45.0409 153.493 42.9535 152.025C40.8934 150.567 38.7509 149.204 36.5259 147.936C34.3216 146.678 32.0657 145.503 29.7687 144.45C27.4941 143.38 25.1666 142.424 22.7951 141.587C22.6298 141.537 22.4764 141.453 22.3441 141.343C22.2119 141.232 22.1035 141.096 22.0253 140.943C21.9472 140.79 21.9009 140.623 21.8893 140.452C21.8776 140.28 21.9009 140.108 21.9577 139.946C22.0144 139.784 22.1035 139.635 22.2196 139.508C22.3358 139.38 22.4765 139.278 22.6335 139.206C22.7905 139.134 22.9605 139.094 23.1334 139.088C23.3063 139.083 23.4785 139.112 23.6398 139.174L23.6706 139.236Z" fill="#D3DAE8"/>
<path d="M21.1787 100.161C22.7753 102.053 24.1865 103.954 25.5565 105.938C26.9265 107.921 28.1832 109.945 29.3574 112.072C30.5493 114.141 31.6323 116.271 32.6022 118.452C33.5825 120.614 34.4388 122.829 35.167 125.087C34.2532 122.917 33.2217 120.797 32.0768 118.738C30.9129 116.693 29.6664 114.648 28.3171 112.757C26.9677 110.866 25.5565 108.943 24.0526 107.144C22.5487 105.345 20.9624 103.566 19.3554 101.971C19.0973 101.739 18.9425 101.415 18.9251 101.07C18.9077 100.725 19.0292 100.387 19.2628 100.131C19.4964 99.8745 19.8229 99.7209 20.1706 99.7037C20.5183 99.6864 20.8587 99.8069 21.1169 100.039L21.1787 100.161Z" fill="#D3DAE8"/>
<path d="M25.8754 62.988C27.0909 64.9407 28.121 66.873 29.1098 68.8666C30.0987 70.8602 30.9742 72.8947 31.7777 75.0008C32.5703 77.0541 33.2578 79.1458 33.8378 81.2679C34.4377 83.3807 34.9225 85.5239 35.2902 87.6884C34.7185 85.5806 34.0308 83.5054 33.2301 81.4723C32.4369 79.4276 31.5407 77.4545 30.5519 75.5222C29.563 73.59 28.4918 71.6883 27.369 69.8481C26.2462 68.0078 24.9999 66.188 23.7226 64.5216C23.6198 64.3873 23.5446 64.2343 23.5014 64.0712C23.4582 63.9081 23.4478 63.7382 23.4707 63.5711C23.4937 63.404 23.5496 63.243 23.6352 63.0974C23.7208 62.9517 23.8345 62.8242 23.9698 62.7222C24.1051 62.6202 24.2592 62.5456 24.4235 62.5027C24.5878 62.4598 24.7591 62.4494 24.9274 62.4722C25.0958 62.495 25.2579 62.5505 25.4047 62.6355C25.5514 62.7205 25.6799 62.8333 25.7827 62.9676L25.8754 62.988Z" fill="#D3DAE8"/>
<path d="M42.2735 36.2732C42.5979 38.3055 42.8179 40.3528 42.9327 42.4073C43.0564 44.4521 43.0872 46.4968 43.046 48.5415C43.0048 50.5863 42.8503 52.6309 42.6134 54.6143C42.3787 56.6181 42.0348 58.6079 41.5834 60.5748C41.8303 58.58 41.9645 56.573 41.9851 54.5633C42.0195 52.5675 41.9508 50.5713 41.7791 48.5825C41.6143 46.5991 41.3671 44.6156 41.0375 42.6527C40.7181 40.7106 40.2986 38.786 39.7807 36.8865C39.7207 36.5692 39.7829 36.2411 39.955 35.9671C40.1271 35.6932 40.3965 35.4933 40.71 35.4072C41.0235 35.321 41.3582 35.3549 41.6477 35.502C41.9373 35.6491 42.1606 35.8989 42.2735 36.2016V36.2732Z" fill="#D3DAE8"/>
<path d="M59.5687 50.3924C57.797 51.2921 56.1695 52.2532 54.542 53.2858C52.9145 54.3184 51.3694 55.4123 49.8552 56.5676C48.341 57.7228 46.8783 58.9496 45.4774 60.2378C44.0765 61.526 41.8927 63.3049 40.6464 64.7055C42.3187 63.2839 44.0617 61.9464 45.8688 60.698C47.3687 59.5727 48.9262 58.525 50.535 57.5592C52.135 56.5777 53.7694 55.6713 55.4381 54.8398C57.0917 54.0058 58.7866 53.255 60.5164 52.5905C60.8138 52.4762 61.0535 52.2495 61.1828 51.9602C61.3122 51.6708 61.3207 51.3423 61.2065 51.0468C61.1515 50.9 61.0679 50.7656 60.9603 50.6511C60.8528 50.5367 60.7235 50.4445 60.5799 50.3798C60.4362 50.3152 60.2811 50.2795 60.1235 50.2746C59.9658 50.2698 59.8088 50.2959 59.6614 50.3516L59.5687 50.3924Z" fill="#D3DAE8"/>
<path d="M54.3256 72.7718C52.6039 73.6453 50.9295 74.6077 49.3091 75.655C47.6919 76.6773 46.1262 77.7917 44.612 78.947C43.0978 80.1022 41.6351 81.329 40.2446 82.6172C38.8507 83.9065 37.5301 85.2717 36.2891 86.7067C37.6647 85.4201 39.1126 84.2119 40.6257 83.0876C42.1296 81.963 43.6849 80.9133 45.2918 79.9386C46.8988 78.964 48.5331 78.0576 50.195 77.2192C51.8637 76.3911 53.5942 75.614 55.2732 74.9802C55.4328 74.9338 55.5811 74.8553 55.7086 74.7493C55.8361 74.6433 55.9401 74.5122 56.0141 74.3644C56.0882 74.2166 56.1306 74.0553 56.1387 73.8904C56.1468 73.7255 56.1204 73.5608 56.0612 73.4066C56.0021 73.2523 55.9114 73.1117 55.7948 72.994C55.6783 72.8762 55.5385 72.7837 55.3842 72.7222C55.2299 72.6606 55.0644 72.6315 54.8981 72.6365C54.7319 72.6416 54.5686 72.6807 54.4183 72.7515L54.3256 72.7718Z" fill="#D3DAE8"/>
<path d="M46.1061 108.391C45.0891 110.525 44.1815 112.709 43.3867 114.934C42.5969 117.136 41.9102 119.361 41.3265 121.61C40.7116 123.853 40.2131 126.126 39.8329 128.419C39.4489 130.701 39.1876 133.001 39.05 135.31C39.4255 133.042 39.9276 130.796 40.554 128.583C41.1667 126.374 41.8921 124.197 42.7274 122.06C43.5515 119.927 44.4614 117.834 45.4571 115.783C46.4389 113.746 47.5253 111.76 48.7121 109.833C48.8173 109.667 48.8883 109.483 48.9209 109.29C48.9536 109.097 48.9472 108.9 48.9021 108.71C48.857 108.519 48.7742 108.34 48.6585 108.181C48.5427 108.023 48.3964 107.889 48.228 107.788C48.0623 107.681 47.8764 107.608 47.6815 107.574C47.4867 107.54 47.2869 107.546 47.0943 107.591C46.9017 107.636 46.7204 107.719 46.5611 107.835C46.4019 107.952 46.2681 108.099 46.1679 108.269L46.1061 108.391Z" fill="#D3DAE8"/>
<path d="M59.384 144.542C59.2553 147.079 59.2553 149.621 59.384 152.158C59.487 154.674 59.7239 157.178 60.0432 159.673C60.3625 162.167 60.8055 164.631 61.3617 167.065C61.9147 169.486 62.6025 171.875 63.4219 174.221C62.8604 171.802 62.4306 169.355 62.1343 166.891C61.8459 164.437 61.6742 161.977 61.6192 159.509C61.5643 157.042 61.6089 154.585 61.7532 152.138C61.8948 149.71 62.1594 147.291 62.5463 144.889C62.5975 144.678 62.6043 144.458 62.5663 144.244C62.5283 144.03 62.4463 143.826 62.3254 143.644C62.2045 143.463 62.0473 143.308 61.8635 143.19C61.6797 143.072 61.4733 142.992 61.2572 142.956C61.0411 142.92 60.8199 142.929 60.6073 142.982C60.3947 143.034 60.1953 143.13 60.0215 143.262C59.8477 143.395 59.7033 143.561 59.5971 143.751C59.491 143.942 59.4254 144.152 59.4046 144.368C59.3943 144.429 59.3943 144.481 59.384 144.542Z" fill="#D3DAE8"/>
<path d="M81.3346 167.872C81.8393 170.244 82.4676 172.463 83.1784 174.702C83.8891 176.941 84.7132 179.118 85.6093 181.275C86.496 183.427 87.4931 185.533 88.5966 187.583C89.6826 189.628 90.8828 191.611 92.1915 193.523C91.102 191.496 90.1253 189.41 89.2661 187.277C88.4151 185.158 87.6725 182.998 87.0412 180.805C86.3819 178.617 85.8154 176.399 85.3621 174.17C84.9009 171.961 84.557 169.729 84.3321 167.484C84.2925 167.097 84.0998 166.742 83.7965 166.497C83.4933 166.252 83.1041 166.136 82.7149 166.175C82.3256 166.214 81.9679 166.406 81.7207 166.707C81.4734 167.008 81.3568 167.394 81.3964 167.78C81.3736 167.809 81.353 167.84 81.3346 167.872Z" fill="#D3DAE8"/>
<path d="M62.4221 16.9099C62.0101 18.699 61.5053 20.3757 60.9388 22.0217C60.3723 23.6677 59.7233 25.3445 59.0126 26.9598C58.3129 28.5803 57.5291 30.1637 56.664 31.7036C55.942 33.1719 55.1373 34.5985 54.2537 35.977C54.9615 34.5325 55.5908 33.0514 56.1387 31.54C56.8185 29.9451 57.416 28.3093 57.9413 26.6531C58.4667 24.9968 58.9714 23.3406 59.2907 21.6537C59.6774 19.9867 59.9765 18.301 60.1869 16.6033C60.1997 16.4544 60.2424 16.3095 60.3123 16.1772C60.3822 16.0449 60.4779 15.9277 60.5939 15.8325C60.71 15.7373 60.844 15.666 60.9881 15.6228C61.1322 15.5796 61.2835 15.5654 61.4333 15.5809C61.5843 15.5909 61.7317 15.6313 61.8664 15.6998C62.0011 15.7683 62.1203 15.8633 62.2168 15.9791C62.3132 16.0949 62.3848 16.2292 62.4272 16.3734C62.4696 16.5176 62.4819 16.6688 62.4633 16.8179C62.4539 16.8503 62.44 16.8812 62.4221 16.9099Z" fill="#D3DAE8"/>
<path d="M34.8061 100.376H33.4773C33.4773 94.896 40.08 92.197 40.3581 92.0334L40.8423 93.2193C40.8217 93.2397 34.8061 95.7548 34.8061 100.376Z" fill="#D3DAE8"/>
<path d="M43.3344 92.6264C43.3365 93.157 43.1797 93.6763 42.8839 94.1184C42.5881 94.5604 42.1668 94.9053 41.6732 95.1093C41.1797 95.3133 40.6362 95.3672 40.1117 95.2642C39.5872 95.1611 39.1054 94.9058 38.7274 94.5306C38.3493 94.1554 38.0921 93.6772 37.9882 93.1567C37.8844 92.6361 37.9388 92.0966 38.1443 91.6068C38.3498 91.1169 38.6973 90.6987 39.1427 90.4052C39.5881 90.1116 40.1113 89.956 40.646 89.958C41.359 89.958 42.0428 90.2391 42.547 90.7395C43.0512 91.2399 43.3344 91.9187 43.3344 92.6264Z" fill="#D3DAE8"/>
<path d="M50.8134 135.187C50.8155 135.718 50.6587 136.237 50.3629 136.679C50.0671 137.121 49.6458 137.466 49.1522 137.67C48.6587 137.874 48.1152 137.928 47.5907 137.825C47.0662 137.722 46.5844 137.466 46.2064 137.091C45.8283 136.716 45.5711 136.238 45.4673 135.717C45.3634 135.197 45.4178 134.657 45.6233 134.167C45.8288 133.677 46.1764 133.259 46.6217 132.966C47.0671 132.672 47.5903 132.517 48.1249 132.519C48.8379 132.519 49.5218 132.8 50.026 133.3C50.5302 133.8 50.8134 134.479 50.8134 135.187Z" fill="#D3DAE8"/>
<path d="M26.1737 125.035C26.1737 125.748 25.9605 126.446 25.5609 127.04C25.1614 127.633 24.5936 128.096 23.9291 128.369C23.2647 128.642 22.5336 128.714 21.8283 128.574C21.1229 128.435 20.475 128.091 19.9665 127.587C19.458 127.082 19.1117 126.439 18.9714 125.739C18.8311 125.039 18.9031 124.313 19.1783 123.654C19.4535 122.994 19.9195 122.43 20.5175 122.034C21.1154 121.637 21.8185 121.426 22.5376 121.426C23.502 121.426 24.4269 121.806 25.1088 122.483C25.7907 123.16 26.1737 124.077 26.1737 125.035Z" fill="#D3DAE8"/>
<path d="M108.672 182.196C108.672 182.91 108.459 183.607 108.06 184.201C107.66 184.794 107.092 185.257 106.428 185.53C105.763 185.803 105.032 185.875 104.327 185.735C103.621 185.596 102.974 185.253 102.465 184.748C101.957 184.243 101.61 183.6 101.47 182.9C101.33 182.2 101.402 181.474 101.677 180.815C101.952 180.155 102.418 179.592 103.016 179.195C103.614 178.799 104.317 178.587 105.036 178.587C106.001 178.587 106.925 178.967 107.607 179.644C108.289 180.321 108.672 181.239 108.672 182.196Z" fill="#D3DAE8"/>
<path d="M25.4843 89.9579C27.4925 89.9579 29.1204 88.3421 29.1204 86.3489C29.1204 84.3558 27.4925 82.74 25.4843 82.74C23.4761 82.74 21.8481 84.3558 21.8481 86.3489C21.8481 88.3421 23.4761 89.9579 25.4843 89.9579Z" fill="#D3DAE8"/>
<path d="M61.7932 40.7922C61.7953 41.5064 61.5838 42.2052 61.1855 42.8C60.7872 43.3948 60.22 43.8589 59.5557 44.1336C58.8915 44.4084 58.1601 44.4814 57.4541 44.3433C56.748 44.2052 56.0992 43.8622 55.5896 43.3579C55.0801 42.8536 54.7328 42.2105 54.5916 41.5102C54.4505 40.8099 54.5219 40.0837 54.7968 39.4237C55.0717 38.7636 55.5377 38.1994 56.1359 37.8024C56.7341 37.4054 57.4375 37.1935 58.1571 37.1935C59.1197 37.1935 60.043 37.5723 60.7246 38.2469C61.4062 38.9215 61.7905 39.8368 61.7932 40.7922Z" fill="#D3DAE8"/>
<path d="M33.529 95.3563C33.4275 93.4025 32.6578 91.5414 31.3469 90.0804C30.0359 88.6195 28.2621 87.6459 26.3185 87.3205L26.4936 86.0629C28.7185 86.4483 30.7481 87.5655 32.2558 89.2344C33.7636 90.9034 34.6619 93.0271 34.8062 95.2642L33.529 95.3563Z" fill="#D3DAE8"/>
<path d="M37.6903 133.388C34.6825 125.618 23.6607 126.559 23.5474 126.579L23.4238 125.301C23.5474 125.301 35.5271 124.279 38.8749 132.928L37.6903 133.388Z" fill="#D3DAE8"/>
<path d="M43.6231 148.089C43.3367 145.739 43.547 143.355 44.2404 141.089C44.9338 138.824 46.0953 136.727 47.6507 134.932L48.588 135.801C47.1794 137.469 46.1264 139.404 45.4926 141.488C44.8588 143.572 44.6573 145.762 44.9004 147.926L43.6231 148.089Z" fill="#D3DAE8"/>
<path d="M108.95 200.159C103.264 194.515 104.428 184.404 104.48 183.975L105.757 184.128C105.757 184.23 104.624 194.055 109.877 199.259L108.95 200.159Z" fill="#D3DAE8"/>
<path d="M155.417 206.508C155.417 211.947 151.863 216.353 147.475 216.353C143.087 216.353 139.543 211.947 139.543 206.508C139.543 201.069 143.097 196.652 147.475 196.652C151.852 196.652 155.417 201.069 155.417 206.508Z" fill="#D3DAE8"/>
</g>
<g filter="url(#filter1_d)">
<path d="M162.958 66.4491C165.024 69.0472 157.706 91.5243 178.398 85.5869C180.434 85.0723 182.243 83.945 183.585 82.3549C163.291 87.9829 170.518 65.7321 168.467 63.1505C165.938 59.9387 146.401 67.5227 142.081 71.3707C149.511 67.7214 161.044 64.0382 162.958 66.4491Z" fill="#009DE3"/>
<path d="M231.98 145.017C233.645 143.801 234.797 141.984 235.223 139.908C235.648 137.831 235.317 135.637 234.291 133.735C230.425 126.569 224.059 116.301 220.752 110.331C217.938 110.432 215.348 109.957 213.559 108.976C211.349 107.758 225.744 134.095 231.98 145.017Z" fill="#009DE3"/>
<path d="M205.87 55.6741C210.625 61.6377 207.631 90.1302 208.823 88.135C210.119 85.8779 211.865 83.9202 213.959 82.3786C214.012 75.5293 215.038 57.0615 211.317 52.3977C209.626 50.2754 189.062 54.5248 187.174 58.3672C193.968 55.8735 204.669 54.1689 205.87 55.6741Z" fill="#009DE3"/>
<path d="M238.195 93.6035C239.212 99.1853 237.403 103.287 234.357 106.072C240.29 103.806 245.167 98.7882 243.649 90.3237C241.416 77.9738 227.499 71.3902 218.173 80.0608C226.735 77.2582 236.385 83.5026 238.195 93.6035Z" fill="#009DE3"/>
<path d="M127.412 136.321C127.665 138.761 137.283 162.726 141.236 172.689L143.415 172.313C144.188 172.179 144.918 171.882 145.558 171.44C146.199 170.999 146.735 170.423 147.131 169.751C147.528 169.079 147.776 168.326 147.86 167.54C147.944 166.754 147.862 165.954 147.619 165.191C144.684 155.91 137.44 141.681 135.092 136.321C130.879 136.274 127.355 135.772 127.412 136.321Z" fill="#009DE3"/>
<path d="M146.126 106.024C142.677 105.521 139.679 106.518 137.173 108.114C137.923 108.083 138.677 108.123 139.425 108.233C151.276 109.952 154.861 121.648 149.995 130.862C149.004 132.717 147.516 134.25 145.691 135.294C150.109 134.623 154.458 132.87 156.696 128.653C161.558 119.44 157.977 107.743 146.126 106.024Z" fill="#009DE3"/>
<path d="M118.95 90.9616C123.98 94.7543 122.378 114.945 122.291 118.101C122.265 118.524 122.289 118.95 122.363 119.371C122.466 119.957 123.027 119.705 123.125 119.698C124.242 118.484 126.513 115.154 129.113 112.625C129.417 105.873 129.735 91.8179 125.623 88.717C123.094 86.815 117.42 88.4171 111.747 90.6922C114.821 89.947 117.446 89.8274 118.95 90.9616Z" fill="#009DE3"/>
<path d="M97.9746 76.7098C98.5846 84.5155 89.8803 95.1211 89.3538 98.5771C89.1614 99.8445 92.1531 98.6705 96.3287 96.8619C96.2768 96.8499 96.2277 96.8271 96.1846 96.795C96.1414 96.763 96.1052 96.7224 96.0783 96.676C96.0514 96.6296 96.0345 96.5783 96.0285 96.5256C96.0226 96.4728 96.0278 96.4198 96.0439 96.37C96.5512 92.937 105.277 82.3299 104.665 74.5027C103.807 63.4865 94.2256 51.8096 80.2512 53.5931C77.7579 53.8863 75.3601 54.6562 73.1869 55.8613L73.5611 55.8002C87.5364 54.0253 97.1166 65.6936 97.9746 76.7098Z" fill="#009DE3"/>
<path d="M187.941 59.5232C187.828 59.3504 187.764 59.1508 187.755 58.9468C187.747 58.7427 187.795 58.5423 187.895 58.3681C184.196 59.738 181.683 61.3477 182.591 62.7871C186.226 68.5794 188.594 76.9257 184.733 81.765L185.039 81.6783C195.238 78.7174 192.633 66.9908 187.941 59.5232Z" fill="#E6F6FC"/>
<path d="M215.367 84.2428C216.329 82.5917 217.52 81.0893 218.907 79.7785C217.526 80.2408 216.228 80.9064 215.055 81.7537C215.05 83.6635 215.107 84.6752 215.367 84.2428Z" fill="#E6F6FC"/>
<path d="M234.923 105.308C229.708 107.328 223.688 107.221 220.389 105.45C219.483 104.961 220.392 106.933 222.198 110.173C226.588 109.99 231.527 108.458 234.923 105.308Z" fill="#E6F6FC"/>
<path d="M214.539 109.452C221.621 113.215 241.136 109.364 238.287 93.5169C235.757 79.4152 217.99 72.7969 209.146 87.6847C207.954 89.6892 210.969 61.0537 206.173 55.0608C204.295 52.7131 179.309 58.1444 181.91 62.2311C186.708 69.7518 189.354 81.6147 178.94 84.6077C158.352 90.5201 165.634 68.2029 163.577 65.6059C160.939 62.2989 139.972 70.5953 136.863 74.2275L233.047 144.09C232.355 138.804 211.219 107.681 214.539 109.452Z" fill="#E6F6FC"/>
<path d="M136.703 73.9531C136.583 74.0605 136.393 74.3843 136.328 74.532C136.262 74.6798 136.229 74.8405 136.229 75.004C136.229 75.004 144.021 105.266 146.718 103.02C154.768 96.3553 170.876 102.804 173.531 114.04C176.638 127.105 163.866 135.483 154.579 135.691C153.806 135.706 161.689 167.251 164.164 167.766C168.554 168.668 219.563 160.125 233.047 144.09L136.703 73.9531Z" fill="#C5E5F8"/>
<g filter="url(#filter2_d)">
<path d="M186.362 128.186L184.22 140.524C184.134 141.02 183.928 141.485 183.618 141.878C183.309 142.27 182.906 142.58 182.445 142.779L170.969 147.73C170.438 147.959 169.987 148.334 169.665 148.811C169.344 149.288 169.165 149.849 169.149 150.431C169.134 151.012 169.282 151.591 169.577 152.102C169.873 152.612 170.303 153.035 170.82 153.321L182.009 159.491C182.458 159.74 182.844 160.093 183.132 160.518C183.419 160.944 183.601 161.43 183.662 161.934L185.153 174.467C185.222 175.047 185.452 175.601 185.818 176.066C186.183 176.532 186.669 176.889 187.221 177.099C187.773 177.308 188.368 177.361 188.939 177.252C189.511 177.143 190.036 176.875 190.454 176.48L199.508 167.96C199.971 167.532 200.549 167.3 201.184 167.223L188.205 125.909C187.725 126.096 187.304 126.404 186.981 126.802C186.659 127.2 186.446 127.676 186.362 128.186Z" fill="#FFB243"/>
<path d="M215.609 135.845L203.08 137.301C202.575 137.358 202.062 137.293 201.582 137.11C201.102 136.928 200.67 136.634 200.323 136.253L191.728 126.771C191.287 126.281 190.706 125.936 190.067 125.786C189.428 125.636 188.764 125.687 188.167 125.934L201.177 167.234C201.545 167.176 201.923 167.186 202.292 167.261L214.714 170.059C215.289 170.188 215.884 170.156 216.432 169.966C216.981 169.776 217.46 169.436 217.817 168.983C218.173 168.531 218.392 167.985 218.449 167.407C218.507 166.828 218.399 166.241 218.14 165.712L212.542 154.262C212.318 153.802 212.208 153.297 212.222 152.792C212.235 152.287 212.373 151.796 212.622 151.362L218.804 140.569C219.097 140.068 219.24 139.491 219.216 138.904C219.192 138.317 219.002 137.745 218.669 137.251C218.335 136.758 217.871 136.365 217.33 136.116C216.789 135.867 216.193 135.773 215.609 135.845Z" fill="#FCE076"/>
<path d="M219.065 137.335C218.744 136.792 218.272 136.353 217.708 136.072C217.145 135.791 216.516 135.682 215.901 135.758L203.177 137.248C202.635 137.305 202.083 137.223 201.573 137.01L198.438 144.564L219.065 137.335Z" fill="#FFEFB1"/>
<path d="M212.504 151.244L203.172 155.157L217.805 168.75C218.144 168.302 218.348 167.766 218.396 167.201C218.444 166.636 218.334 166.065 218.077 165.55L212.461 154.08C212.242 153.631 212.132 153.14 212.139 152.647C212.147 152.154 212.272 151.673 212.504 151.244Z" fill="#FFEFB1"/>
</g>
<g filter="url(#filter3_d)">
<path d="M122.599 48.1985L135.242 55.9618C135.515 56.1298 135.823 56.2302 136.14 56.2543C136.456 56.2784 136.771 56.2255 137.057 56.1002L150.287 50.3303C150.617 50.1862 150.984 50.1386 151.346 50.1926C151.708 50.2467 152.052 50.4004 152.337 50.6362C152.623 50.8721 152.839 51.1807 152.962 51.5272C153.085 51.8737 153.109 52.2442 153.031 52.5969L149.939 66.7378C149.872 67.044 149.881 67.3643 149.966 67.6713C150.05 67.9782 150.208 68.2627 150.424 68.5003L160.448 79.4565C160.699 79.7296 160.871 80.0649 160.943 80.4244C161.016 80.7838 160.987 81.1529 160.859 81.4898C160.731 81.8268 160.51 82.1179 160.22 82.3303C159.931 82.5427 159.584 82.6677 159.22 82.6912L144.67 83.6656C144.354 83.6874 144.052 83.785 143.787 83.9501C143.523 84.1152 143.304 84.3429 143.151 84.614L136.115 97.1569C135.941 97.4738 135.68 97.7323 135.361 97.9029C135.041 98.0734 134.677 98.1491 134.31 98.1212C133.943 98.0933 133.587 97.9629 133.285 97.745C132.982 97.5271 132.744 97.2306 132.598 96.8895L126.7 83.3497C126.571 83.056 126.373 82.7954 126.124 82.5904C125.875 82.3854 125.581 82.2421 125.269 82.1726L110.897 78.97C110.539 78.8897 110.207 78.7119 109.939 78.4566C109.671 78.2014 109.477 77.8789 109.38 77.5256C109.283 77.1722 109.286 76.8022 109.388 76.4572C109.491 76.1122 109.69 75.8061 109.962 75.5733L120.868 66.2295C121.105 66.0262 121.286 65.7671 121.396 65.4746C121.507 65.182 121.544 64.8646 121.504 64.5496L119.659 50.0273C119.611 49.6626 119.666 49.2952 119.819 48.9673C119.971 48.6393 120.215 48.364 120.522 48.1731C120.829 47.9821 121.187 47.8832 121.554 47.8877C121.921 47.8922 122.284 47.9999 122.599 48.1985Z" fill="#FCE076"/>
</g>
<path d="M186.335 30.5991L190.233 39.3478C190.317 39.5372 190.446 39.7049 190.608 39.8363C190.77 39.9678 190.96 40.0591 191.162 40.1023L200.49 42.1026C200.723 42.1532 200.939 42.2671 201.114 42.4315C201.289 42.5958 201.416 42.8041 201.482 43.0329C201.547 43.2617 201.547 43.502 201.483 43.7266C201.418 43.9512 201.292 44.1513 201.117 44.3044L194.115 50.4175C193.963 50.5505 193.847 50.7193 193.777 50.9096C193.706 51.0998 193.683 51.3058 193.711 51.51L194.986 60.9139C195.018 61.1488 194.984 61.3859 194.888 61.5982C194.792 61.8105 194.636 61.9896 194.44 62.1151C194.244 62.2407 194.014 62.3076 193.778 62.3083C193.541 62.309 193.307 62.2434 193.101 62.1191L184.867 57.1507C184.689 57.0433 184.489 56.9797 184.284 56.9652C184.079 56.9508 183.875 56.9859 183.69 57.0677L175.148 60.8818C174.935 60.9758 174.697 61.0078 174.463 60.9741C174.228 60.9404 174.005 60.8424 173.819 60.691C173.632 60.5397 173.491 60.341 173.409 60.1174C173.327 59.8937 173.309 59.6538 173.356 59.4247L175.288 50.2403C175.33 50.0412 175.323 49.8332 175.266 49.6342C175.21 49.4353 175.106 49.2514 174.963 49.0987L168.383 42.0474C168.219 41.8716 168.107 41.6553 168.059 41.4232C168.01 41.191 168.028 40.9521 168.109 40.7336C168.19 40.5152 168.332 40.3257 168.518 40.1868C168.704 40.0479 168.927 39.965 169.162 39.9475L178.59 39.237C178.794 39.2208 178.99 39.1553 179.16 39.0462C179.33 38.937 179.47 38.7874 179.567 38.6102L184.06 30.445C184.172 30.2399 184.339 30.0722 184.545 29.9608C184.75 29.8494 184.985 29.7989 185.222 29.8149C185.459 29.831 185.689 29.913 185.886 30.0517C186.083 30.1903 186.239 30.38 186.335 30.5991Z" fill="#FFEFB1"/>
<path d="M127.632 137.217C127.494 135.895 146.603 140.858 152.227 130.226C157.109 120.99 153.518 109.264 141.591 107.543C128.506 105.647 122.108 125.109 122.317 117.743C122.426 114.619 124.05 94.639 118.986 90.8905C112.95 86.4268 89.0697 101.629 89.607 98.1093C90.1173 94.6654 98.8948 84.0242 98.279 76.1718C97.416 65.1202 87.7781 53.4058 73.721 55.1949C60.5644 56.8598 55.46 68.9272 58.7756 80.8423C61.9159 92.1212 79.4949 100.348 77.7469 100.732C64.3073 103.727 48.1753 96.1079 47.3009 101.232C47.224 101.71 47.1786 102.195 47.1653 102.682L142.172 172.52C142.28 164.312 127.978 140.536 127.632 137.217Z" fill="#E6F6FC"/>
<path d="M113.453 174.004C122.393 173.657 135.708 173.887 139.793 173.097C131.384 173.384 118.441 173.198 113.453 174.004Z" fill="#C5E5F8"/>
<path d="M104.194 175.494C102.09 177.902 118.431 189.673 115.044 199.51C113.216 204.817 106.298 208.763 100.407 209.911C108.483 210.326 118.864 206.232 121.332 199.066C124.724 189.229 109.191 177.084 111.291 174.676C111.503 174.431 112.192 174.239 113.228 174.105C108.828 174.221 104.709 174.881 104.194 175.494Z" fill="#009DE3"/>
<path d="M112.292 90.7336C107.457 91.9253 101.526 94.6376 96.978 96.6464C98.4763 97.1038 105.384 93.4663 112.292 90.7336Z" fill="#E6F6FC"/>
<path d="M47.168 102.656C46.7602 113.393 57.9002 136.276 59.0824 146.227C60.3597 157.006 52.8185 172.962 56.4105 177.418C60.0026 181.874 86.537 174.168 85.3556 179.825C83.5551 188.412 76.5243 192.95 81.6894 202.947C87.2354 213.64 110.912 212.713 115.272 200.15C118.677 190.289 103.066 178.114 105.18 175.7C106.899 173.732 140.786 174.208 142.177 172.515L47.168 102.656Z" fill="#C5E5F8"/>
<path d="M69.2263 178.514C72.178 178.408 75.5987 178.002 78.8518 177.654C76.0752 177.736 72.6335 178.154 69.2263 178.514Z" fill="#C5E5F8"/>
</g>
<defs>
<filter id="filter0_i" x="0" y="-4" width="300" height="244" filterUnits="userSpaceOnUse" color-interpolation-filters="sRGB">
<feFlood flood-opacity="0" result="BackgroundImageFix"/>
<feBlend mode="normal" in="SourceGraphic" in2="BackgroundImageFix" result="shape"/>
<feColorMatrix in="SourceAlpha" type="matrix" values="0 0 0 0 0 0 0 0 0 0 0 0 0 0 0 0 0 0 127 0" result="hardAlpha"/>
<feOffset dx="4" dy="-5"/>
<feGaussianBlur stdDeviation="2"/>
<feComposite in2="hardAlpha" operator="arithmetic" k2="-1" k3="1"/>
<feColorMatrix type="matrix" values="0 0 0 0 0.866667 0 0 0 0 0.909804 0 0 0 0 0.929412 0 0 0 0.5 0"/>
<feBlend mode="multiply" in2="shape" result="effect1_innerShadow"/>
</filter>
<filter id="filter1_d" x="27.1571" y="19.812" width="236.771" height="220.513" filterUnits="userSpaceOnUse" color-interpolation-filters="sRGB">
<feFlood flood-opacity="0" result="BackgroundImageFix"/>
<feColorMatrix in="SourceAlpha" type="matrix" values="0 0 0 0 0 0 0 0 0 0 0 0 0 0 0 0 0 0 127 0"/>
<feOffset dy="10"/>
<feGaussianBlur stdDeviation="10"/>
<feColorMatrix type="matrix" values="0 0 0 0 0 0 0 0 0 0 0 0 0 0 0 0 0 0 0.2 0"/>
<feBlend mode="normal" in2="BackgroundImageFix" result="effect1_dropShadow"/>
<feBlend mode="normal" in="SourceGraphic" in2="effect1_dropShadow" result="shape"/>
</filter>
<filter id="filter2_d" x="159.148" y="119.702" width="70.0699" height="71.6058" filterUnits="userSpaceOnUse" color-interpolation-filters="sRGB">
<feFlood flood-opacity="0" result="BackgroundImageFix"/>
<feColorMatrix in="SourceAlpha" type="matrix" values="0 0 0 0 0 0 0 0 0 0 0 0 0 0 0 0 0 0 127 0"/>
<feOffset dy="4"/>
<feGaussianBlur stdDeviation="5"/>
<feColorMatrix type="matrix" values="0 0 0 0 0.741176 0 0 0 0 0.741176 0 0 0 0 0.741176 0 0 0 0.6 0"/>
<feBlend mode="normal" in2="BackgroundImageFix" result="effect1_dropShadow"/>
<feBlend mode="normal" in="SourceGraphic" in2="effect1_dropShadow" result="shape"/>
</filter>
<filter id="filter3_d" x="99.3092" y="41.8876" width="71.6733" height="70.2393" filterUnits="userSpaceOnUse" color-interpolation-filters="sRGB">
<feFlood flood-opacity="0" result="BackgroundImageFix"/>
<feColorMatrix in="SourceAlpha" type="matrix" values="0 0 0 0 0 0 0 0 0 0 0 0 0 0 0 0 0 0 127 0"/>
<feOffset dy="4"/>
<feGaussianBlur stdDeviation="5"/>
<feColorMatrix type="matrix" values="0 0 0 0 0.741176 0 0 0 0 0.741176 0 0 0 0 0.741176 0 0 0 1 0"/>
<feBlend mode="normal" in2="BackgroundImageFix" result="effect1_dropShadow"/>
<feBlend mode="normal" in="SourceGraphic" in2="effect1_dropShadow" result="shape"/>
</filter>
</defs>
</svg>
