<svg  viewBox="0 0 296 246" fill="none" xmlns="http://www.w3.org/2000/svg">
<g filter="url(#filter0_i)">
<path d="M181.333 199.708C181.333 199.708 191.634 209.809 193.509 218.612C195.383 227.415 204.839 225.544 206.477 223.039C206.477 223.039 209.392 231.289 214.532 231.218C219.672 231.146 225.276 233.263 234.279 240C234.279 240 230.601 222.824 222.526 216.69C214.45 210.556 217.128 210.208 213.379 204.984C211.133 201.866 191.397 200.23 181.333 199.708Z" fill="#EDF1FA"/>
<path d="M199.699 195.343C199.699 195.343 212.812 199.095 218.374 205.567C223.937 212.038 230.9 206.221 231.116 203.41C231.116 203.41 237.297 208.93 241.499 206.579C245.702 204.227 251.316 203.512 261.833 205.005C261.833 205.005 250.976 192.44 241.51 190.978C232.043 189.516 234.093 188.033 228.613 185.396C225.338 183.78 208.249 191.243 199.699 195.343Z" fill="#EDF1FA"/>
<path d="M227.366 179.783C227.366 179.783 240.15 178.955 247.123 182.85C254.097 186.745 258.402 179.486 257.692 176.93C257.692 176.93 264.902 179.865 267.889 176.46C270.876 173.056 275.563 170.602 285.4 168.66C285.4 168.66 271.783 160.982 262.945 162.669C254.107 164.355 255.467 162.413 249.77 161.8C246.32 161.503 233.609 173.475 227.366 179.783Z" fill="#EDF1FA"/>
<path d="M246.958 156.575C246.958 156.575 258.207 152.485 265.5 154.182C272.793 155.879 274.77 148.212 273.4 146.106C273.4 146.106 280.611 146.852 282.413 143.039C284.216 139.225 287.749 135.78 296 131.465C296 131.465 281.744 128.143 274.276 131.987C266.808 135.831 267.488 133.714 262.224 134.655C259.062 135.187 250.873 149.265 246.958 156.575Z" fill="#EDF1FA"/>
<path d="M260.617 124.892C260.617 124.892 268.384 116.959 275.203 115.466C282.022 113.973 280.508 106.766 278.561 105.529C278.561 105.529 284.937 103.259 284.855 99.3332C284.772 95.4073 286.379 91.1542 291.55 84.1919C291.55 84.1919 278.252 87.1057 273.545 93.3114C268.837 99.5172 268.549 97.4724 264.521 100.376C262.152 102.083 260.937 117.194 260.617 124.892Z" fill="#EDF1FA"/>
<path d="M260.401 87.5144C260.401 87.5144 266.478 79.2537 272.535 77.0045C278.592 74.7553 276.254 68.3451 274.297 67.4659C274.297 67.4659 279.849 64.5624 279.261 60.9739C278.674 57.3854 279.57 53.2448 283.382 46.2416C283.382 46.2416 271.587 50.6275 268.085 56.9252C264.583 63.223 264.058 61.3726 260.741 64.5522C258.784 66.4538 259.69 80.4295 260.401 87.5144Z" fill="#EDF1FA"/>
<path d="M254.139 60.5139C254.139 60.5139 256.405 51.3842 260.752 47.3765C265.099 43.3689 260.876 38.7375 258.908 38.6557C258.908 38.6557 262.606 34.2698 260.845 31.4174C259.083 28.565 258.404 24.7414 259.197 17.4519C259.197 17.4519 250.699 25.2731 249.926 31.8366C249.154 38.4002 248.062 37.02 246.362 40.8641C245.353 43.1644 251.039 54.7375 254.139 60.5139Z" fill="#EDF1FA"/>
<path d="M254.612 64.0817C254.612 64.0817 246.371 60.7386 240.974 61.7814C235.576 62.8242 234.34 57.099 235.381 55.5859C235.381 55.5859 230.004 55.9233 228.809 53.0402C227.614 50.1572 225.08 47.5195 219.116 44.0945C219.116 44.0945 229.746 42.0498 235.154 45.1169C240.562 48.184 240.109 46.5891 243.971 47.4377C246.279 47.8978 251.934 58.5712 254.612 64.0817Z" fill="#EDF1FA"/>
<path d="M259.855 86.451C259.855 86.451 251.615 83.1079 246.217 84.1507C240.82 85.1935 239.583 79.4683 240.614 77.9552C240.614 77.9552 235.237 78.3028 234.052 75.4095C232.867 72.5162 230.323 69.899 224.359 66.4741C224.359 66.4741 234.979 64.4293 240.387 67.4964C245.795 70.5635 245.352 68.9685 249.215 69.8171C251.522 70.3078 257.177 80.9507 259.855 86.451Z" fill="#EDF1FA"/>
<path d="M257.301 135.188C257.301 135.188 251.841 125.864 245.754 122.848C239.666 119.832 242.818 113.381 244.96 112.624C244.96 112.624 239.47 108.974 240.49 105.283C241.51 101.593 241.005 97.1044 237.771 89.3958C237.771 89.3958 249.658 95.2847 252.624 102.257C255.591 109.23 256.343 107.369 259.464 111.049C261.328 113.329 258.835 127.847 257.301 135.188Z" fill="#EDF1FA"/>
<path d="M232.95 174.272C232.95 174.272 231.353 162.76 226.533 157.27C221.712 151.78 227.511 146.638 229.932 146.801C229.932 146.801 225.966 140.933 228.5 137.661C231.034 134.39 232.373 129.758 232.352 120.71C232.352 120.71 241.767 131.404 241.85 139.573C241.932 147.742 243.457 146.178 245.043 151.126C245.991 154.08 237.513 167.565 232.95 174.272Z" fill="#EDF1FA"/>
<path d="M204.129 193.626C204.129 193.626 205.509 182.932 202.522 176.859C199.535 170.786 205.993 167.566 208.136 168.292C208.136 168.292 206.014 162.086 209.083 159.765C212.153 157.444 214.471 153.631 216.654 145.513C216.654 145.513 222.485 157.352 220.569 164.683C218.653 172.013 220.394 170.98 220.569 175.796C220.744 178.679 209.856 188.718 204.129 193.626Z" fill="#EDF1FA"/>
<path d="M241.89 36.2735C241.89 36.2735 240.706 28.1967 242.92 23.5552C245.135 18.9137 240.17 16.5623 238.563 17.1451C238.563 17.1451 240.088 12.4115 237.729 10.6939C235.37 8.97633 233.609 6.11374 231.806 0C231.806 0 227.552 9.04793 229.097 14.5687C230.642 20.0895 229.313 19.3431 229.21 22.993C229.107 25.1706 237.492 32.6339 241.89 36.2735Z" fill="#EDF1FA"/>
<path d="M114.667 199.708C114.667 199.708 104.366 209.809 102.491 218.612C100.616 227.415 91.1605 225.544 89.5124 223.039C89.5124 223.039 86.6076 231.289 81.4675 231.218C76.3275 231.146 70.7239 233.263 61.7211 240C61.7211 240 65.3984 222.824 73.4742 216.69C81.5499 210.556 78.8717 210.208 82.6212 204.984C84.8667 201.866 104.603 200.23 114.667 199.708Z" fill="#EDF1FA"/>
<path d="M96.3113 195.343C96.3113 195.343 83.1986 199.095 77.6362 205.567C72.0738 212.038 65.1106 206.221 64.8943 203.41C64.8943 203.41 58.7138 208.93 54.5112 206.579C50.3085 204.227 44.6843 203.512 34.1776 205.005C34.1776 205.005 45.0345 192.44 54.5008 190.978C63.9672 189.516 61.9071 188.033 67.3973 185.396C70.6626 183.78 87.7515 191.243 96.3113 195.343Z" fill="#EDF1FA"/>
<path d="M68.6336 179.783C68.6336 179.783 55.8505 178.955 48.8666 182.85C41.8828 186.745 37.5977 179.486 38.2981 176.93C38.2981 176.93 31.0876 179.865 28.1107 176.46C25.1338 173.056 20.4368 170.602 10.6511 168.66C10.6511 168.66 24.2686 160.982 33.0963 162.669C41.924 164.355 40.5849 162.413 46.2812 161.8C49.6804 161.503 62.3914 173.475 68.6336 179.783Z" fill="#EDF1FA"/>
<path d="M49.0415 156.575C49.0415 156.575 37.7932 152.485 30.5003 154.182C23.2074 155.879 21.2297 148.212 22.5894 146.106C22.5894 146.106 15.3789 146.852 13.5866 143.039C11.7943 139.225 8.25085 135.78 0 131.465C0 131.465 14.2562 128.143 21.7242 131.987C29.1922 135.831 28.5123 133.714 33.7759 134.655C36.9176 135.187 45.1273 149.265 49.0415 156.575Z" fill="#EDF1FA"/>
<path d="M35.3829 124.892C35.3829 124.892 27.6059 116.959 20.7972 115.466C13.9884 113.973 15.4923 106.766 17.4392 105.529C17.4392 105.529 11.063 103.259 11.1455 99.3332C11.2279 95.4073 9.61064 91.1542 4.4397 84.1919C4.4397 84.1919 17.7482 87.1057 22.4556 93.3114C27.163 99.5172 27.4411 97.4724 31.479 100.376C33.8893 102.083 35.0636 117.194 35.3829 124.892Z" fill="#EDF1FA"/>
<path d="M35.589 87.5144C35.589 87.5144 29.5117 79.2537 23.4652 77.0045C17.4187 74.7553 19.7466 68.3451 21.7037 67.4659C21.7037 67.4659 16.1517 64.5624 16.7388 60.9739C17.3259 57.3854 16.4195 53.2448 12.6185 46.2416C12.6185 46.2416 24.4128 50.6275 27.915 56.9252C31.4172 63.223 31.9426 61.3726 35.2594 64.5522C37.2165 66.4538 36.3101 80.4295 35.589 87.5144Z" fill="#EDF1FA"/>
<path d="M41.8615 60.5139C41.8615 60.5139 39.5954 51.3842 35.2382 47.3765C30.881 43.3689 35.1249 38.7375 37.0923 38.6557C37.0923 38.6557 33.3944 34.2698 35.1558 31.4174C36.9172 28.565 37.597 24.7414 36.8039 17.4519C36.8039 17.4519 45.3019 25.2731 46.0745 31.8366C46.847 38.4002 47.9286 37.02 49.6385 40.8641C50.6377 43.1644 44.962 54.7375 41.8615 60.5139Z" fill="#EDF1FA"/>
<path d="M41.3879 64.0817C41.3879 64.0817 49.6285 60.7386 55.0157 61.7814C60.403 62.8242 61.6494 57.099 60.6193 55.5859C60.6193 55.5859 65.9963 55.9233 67.1911 53.0402C68.386 50.1572 70.9097 47.5195 76.8841 44.0945C76.8841 44.0945 66.2538 42.0498 60.8459 45.1169C55.4381 48.184 55.8913 46.5891 52.0286 47.4377C49.7212 47.8978 44.0661 58.5712 41.3879 64.0817Z" fill="#EDF1FA"/>
<path d="M36.145 86.451C36.145 86.451 44.3341 83.1079 49.7831 84.1507C55.2322 85.1935 56.4167 79.4683 55.3764 77.9552C55.3764 77.9552 60.7533 78.3028 61.9482 75.4095C63.1431 72.5162 65.677 69.899 71.6411 66.4741C71.6411 66.4741 61.0108 64.4293 55.6133 67.4964C50.2157 70.5635 50.6483 68.9685 46.7856 69.8171C44.4782 70.3078 38.8232 80.9507 36.145 86.451Z" fill="#EDF1FA"/>
<path d="M38.6999 135.188C38.6999 135.188 44.149 125.864 50.247 122.848C56.345 119.832 53.1827 113.381 51.0401 112.624C51.0401 112.624 56.5201 108.974 55.5106 105.283C54.5012 101.593 54.9853 97.1044 58.2197 89.3958C58.2197 89.3958 46.343 95.2847 43.3764 102.257C40.4098 109.23 39.6476 107.369 36.5265 111.049C34.6621 113.329 37.1651 127.847 38.6999 135.188Z" fill="#EDF1FA"/>
<path d="M63.0503 174.272C63.0503 174.272 64.6469 162.76 69.4676 157.27C74.2883 151.78 68.4375 146.638 66.0581 146.801C66.0581 146.801 70.0238 140.933 67.5002 137.661C64.9765 134.39 63.6168 129.758 63.6477 120.71C63.6477 120.71 54.2329 131.404 54.1505 139.573C54.0681 147.742 52.5436 146.178 50.947 151.126C49.9581 154.08 58.4871 167.565 63.0503 174.272Z" fill="#EDF1FA"/>
<path d="M91.8719 193.626C91.8719 193.626 90.4916 182.932 93.4685 176.859C96.4454 170.786 89.9971 167.566 87.8649 168.292C87.8649 168.292 89.9869 162.086 86.9173 159.765C83.8477 157.444 81.5197 153.631 79.336 145.513C79.336 145.513 73.516 157.352 75.432 164.683C77.3479 172.013 75.5968 170.98 75.3805 175.796C75.2569 178.679 86.1447 188.718 91.8719 193.626Z" fill="#EDF1FA"/>
<path d="M54.0782 36.2735C54.0782 36.2735 55.2628 28.1967 53.0482 23.5552C50.8335 18.9137 55.8087 16.5623 57.4156 17.1451C57.4156 17.1451 55.8911 12.4115 58.2397 10.6939C60.5882 8.97633 62.36 6.11374 64.1729 0C64.1729 0 68.4271 9.04793 66.882 14.5687C65.3369 20.0895 66.6657 19.3431 66.7687 22.993C66.882 25.1706 58.5075 32.6339 54.0782 36.2735Z" fill="#EDF1FA"/>
<path d="M259.248 88.4345C261.236 110.017 258.671 129.145 248.947 148.948C239.883 167.422 224.977 183.433 205.489 191.111C178.284 201.713 135.99 196.499 118.273 226.178C118.009 226.613 117.93 227.134 118.054 227.627C118.178 228.12 118.493 228.544 118.932 228.805C119.37 229.067 119.896 229.145 120.392 229.022C120.889 228.9 121.316 228.586 121.579 228.151C138.452 200.547 179.345 206.088 207.075 195.149C247.824 179.098 274.472 125.035 259.526 72.3425C258.111 67.1806 256.161 62.1784 253.706 57.416C253.617 57.2578 253.471 57.1386 253.297 57.0818C253.124 57.025 252.935 57.0347 252.768 57.1091C252.602 57.1835 252.469 57.3171 252.397 57.4836C252.324 57.6502 252.317 57.8376 252.377 58.0089C252.377 58.0089 258.207 77.8224 259.248 88.4345Z" fill="#D3DAE8"/>
<path d="M213.368 218.428C210.991 216.39 208.512 214.473 205.941 212.683C203.4 210.883 200.781 209.203 198.082 207.642C195.414 206.068 192.653 204.575 189.841 203.318C187.031 202.015 184.153 200.862 181.22 199.862C184.066 201.054 186.844 202.398 189.543 203.89C192.239 205.366 194.859 206.977 197.392 208.716C199.939 210.447 202.398 212.277 204.767 214.206C207.139 216.111 209.411 218.134 211.576 220.268C211.818 220.508 212.145 220.643 212.487 220.643C212.829 220.643 213.157 220.508 213.399 220.268C213.641 220.028 213.777 219.703 213.777 219.364C213.777 219.024 213.641 218.699 213.399 218.459L213.368 218.428Z" fill="#D3DAE8"/>
<path d="M234.732 196.437C231.786 195.804 228.901 195.415 225.966 195.027C223.03 194.638 220.105 194.485 217.169 194.393C214.233 194.301 211.298 194.393 208.372 194.526C205.458 194.713 202.556 195.054 199.678 195.548C202.574 195.269 205.483 195.143 208.393 195.17C211.297 195.188 214.199 195.355 217.087 195.671C219.96 195.967 222.834 196.376 225.677 196.918C228.52 197.46 231.353 198.104 234.052 198.901C234.369 198.97 234.701 198.917 234.981 198.753C235.261 198.589 235.468 198.326 235.561 198.017C235.654 197.708 235.625 197.375 235.48 197.086C235.336 196.797 235.087 196.572 234.783 196.458L234.732 196.437Z" fill="#D3DAE8"/>
<path d="M258.67 169.672C255.858 170.05 253.17 170.582 250.43 171.206C247.69 171.829 245.084 172.596 242.467 173.445C239.845 174.287 237.266 175.259 234.742 176.358C232.224 177.442 229.769 178.664 227.387 180.018C229.86 178.86 232.394 177.837 234.979 176.951C237.554 176.058 240.167 175.298 242.818 174.671C245.455 174.037 248.122 173.496 250.811 173.087C253.499 172.678 256.209 172.361 258.835 172.218C259.004 172.21 259.17 172.169 259.323 172.097C259.477 172.026 259.614 171.925 259.728 171.8C259.842 171.676 259.93 171.53 259.987 171.372C260.044 171.214 260.069 171.046 260.061 170.878C260.04 170.539 259.885 170.222 259.631 169.995C259.377 169.767 259.043 169.648 258.701 169.662L258.67 169.672Z" fill="#D3DAE8"/>
<path d="M272.329 139.236C269.898 140.32 267.632 141.506 265.376 142.784C263.12 144.062 260.947 145.442 258.825 146.873C256.703 148.304 254.705 149.879 252.645 151.525C250.681 153.166 248.81 154.913 247.041 156.759C248.952 155.071 250.957 153.491 253.046 152.026C255.107 150.564 257.27 149.204 259.474 147.936C261.678 146.669 263.924 145.503 266.231 144.45C268.505 143.378 270.833 142.423 273.205 141.587C273.516 141.468 273.768 141.233 273.908 140.932C274.048 140.632 274.065 140.289 273.955 139.977C273.846 139.664 273.618 139.406 273.321 139.256C273.023 139.107 272.679 139.077 272.36 139.175L272.329 139.236Z" fill="#D3DAE8"/>
<path d="M274.823 100.161C273.267 102.012 271.805 103.94 270.445 105.938C269.085 107.911 267.818 109.945 266.634 112.072C265.449 114.198 264.368 116.274 263.389 118.451C262.417 120.615 261.564 122.83 260.834 125.087C261.748 122.916 262.78 120.797 263.925 118.738C265.074 116.682 266.329 114.685 267.684 112.757C269.034 110.825 270.445 108.943 271.949 107.144C273.453 105.345 275.039 103.566 276.646 101.971C276.766 101.853 276.862 101.712 276.928 101.557C276.994 101.402 277.028 101.236 277.029 101.068C277.03 100.9 276.997 100.734 276.933 100.578C276.87 100.422 276.775 100.281 276.656 100.161C276.537 100.042 276.396 99.9468 276.24 99.8816C276.084 99.8164 275.916 99.7823 275.747 99.7814C275.577 99.7804 275.41 99.8126 275.253 99.876C275.096 99.9394 274.954 100.033 274.833 100.151C274.83 100.154 274.826 100.158 274.823 100.161Z" fill="#D3DAE8"/>
<path d="M270.125 62.988C268.909 64.9407 267.879 66.873 266.89 68.8666C265.902 70.8602 265.026 72.8947 264.223 75.0008C263.43 77.0541 262.742 79.1458 262.162 81.2679C261.553 83.3782 261.068 85.522 260.71 87.6884C261.282 85.5806 261.969 83.5054 262.77 81.4723C263.563 79.4276 264.459 77.4545 265.448 75.5222C266.437 73.59 267.508 71.6883 268.631 69.8481C269.756 68.0129 270.973 66.2352 272.278 64.5216C272.38 64.3873 272.456 64.2343 272.499 64.0712C272.542 63.9081 272.552 63.7382 272.529 63.5711C272.507 63.404 272.451 63.243 272.365 63.0974C272.279 62.9517 272.166 62.8242 272.03 62.7222C271.895 62.6202 271.741 62.5456 271.577 62.5027C271.412 62.4598 271.241 62.4494 271.073 62.4722C270.904 62.495 270.742 62.5505 270.595 62.6355C270.449 62.7205 270.32 62.8333 270.217 62.9676L270.125 62.988Z" fill="#D3DAE8"/>
<path d="M253.726 36.2736C253.402 38.3059 253.182 40.3533 253.067 42.4078C252.933 44.4525 252.902 46.4973 252.954 48.542C252.995 50.5722 253.139 52.599 253.386 54.6148C253.621 56.6186 253.965 58.6083 254.416 60.5752C254.166 58.5806 254.028 56.5736 254.004 54.5637C254.004 52.519 254.004 50.5663 254.221 48.5829C254.437 46.5995 254.622 44.6161 254.962 42.6532C255.302 40.6902 255.704 38.7273 256.209 36.887C256.254 36.7252 256.267 36.5562 256.246 36.3895C256.226 36.2229 256.172 36.0618 256.089 35.9156C256.006 35.7693 255.895 35.6409 255.761 35.5374C255.628 35.4339 255.476 35.3575 255.313 35.3125C255.15 35.2675 254.979 35.255 254.811 35.2753C254.643 35.2957 254.481 35.3486 254.334 35.4312C254.187 35.5138 254.057 35.6244 253.953 35.7567C253.849 35.8889 253.772 36.0403 253.726 36.2021V36.2736Z" fill="#D3DAE8"/>
<path d="M236.401 50.3925C238.172 51.2922 239.8 52.2533 241.417 53.2859C243.034 54.3184 244.6 55.4123 246.114 56.5676C247.629 57.7229 249.091 58.9497 250.482 60.2379C251.873 61.5297 253.194 62.8948 254.437 64.3273C253.057 63.0462 251.609 61.8382 250.101 60.7082C248.601 59.583 247.043 58.5353 245.434 57.5695C243.834 56.588 242.2 55.6816 240.531 54.8501C238.863 54.022 237.132 53.2347 235.453 52.6008C235.154 52.4883 234.912 52.2625 234.781 51.973C234.649 51.6834 234.639 51.354 234.753 51.057C234.866 50.7601 235.094 50.5201 235.385 50.3897C235.677 50.2594 236.009 50.2494 236.308 50.3619L236.401 50.3925Z" fill="#D3DAE8"/>
<path d="M241.665 72.7718C243.39 73.6453 245.068 74.6077 246.692 75.655C248.309 76.6773 249.874 77.7917 251.389 78.947C252.903 80.1022 254.366 81.329 255.756 82.6172C257.149 83.9039 258.467 85.2694 259.701 86.7067C258.328 85.4177 256.88 84.2093 255.365 83.0876C253.861 81.963 252.309 80.9133 250.709 79.9386C249.102 78.9674 247.474 78.0576 245.795 77.2192C244.145 76.3885 242.454 75.6411 240.727 74.9802C240.568 74.9338 240.42 74.8553 240.292 74.7493C240.165 74.6433 240.061 74.5122 239.987 74.3644C239.912 74.2166 239.87 74.0553 239.862 73.8904C239.854 73.7255 239.88 73.5608 239.939 73.4066C239.999 73.2523 240.089 73.1117 240.206 72.994C240.322 72.8762 240.462 72.7837 240.616 72.7222C240.771 72.6606 240.936 72.6315 241.103 72.6365C241.269 72.6416 241.432 72.6807 241.582 72.7515L241.665 72.7718Z" fill="#D3DAE8"/>
<path d="M249.895 108.392C250.908 110.526 251.812 112.71 252.604 114.935C253.407 117.133 254.097 119.362 254.664 121.611C255.279 123.854 255.777 126.126 256.158 128.42C256.542 130.701 256.803 133.001 256.94 135.311C256.56 133.043 256.058 130.798 255.436 128.583C254.824 126.374 254.098 124.197 253.263 122.061C252.439 119.924 251.532 117.828 250.523 115.783C249.549 113.744 248.466 111.758 247.278 109.833C247.073 109.502 247.009 109.104 247.1 108.727C247.191 108.349 247.429 108.022 247.762 107.819C248.096 107.616 248.497 107.552 248.877 107.642C249.258 107.732 249.587 107.969 249.792 108.3L249.895 108.392Z" fill="#D3DAE8"/>
<path d="M236.606 144.542C236.735 147.079 236.735 149.621 236.606 152.158C236.493 154.673 236.267 157.178 235.947 159.673C235.629 162.157 235.185 164.624 234.618 167.065C234.061 169.485 233.373 171.874 232.558 174.221C233.121 171.803 233.548 169.356 233.836 166.891C234.131 164.437 234.306 161.977 234.361 159.509C234.361 157.045 234.361 154.592 234.217 152.138C234.084 149.71 233.822 147.29 233.434 144.889C233.364 144.475 233.463 144.049 233.71 143.707C233.956 143.365 234.329 143.134 234.747 143.064C235.165 142.995 235.594 143.094 235.938 143.338C236.283 143.583 236.516 143.953 236.586 144.368C236.598 144.425 236.604 144.483 236.606 144.542Z" fill="#D3DAE8"/>
<path d="M214.666 167.872C214.161 170.244 213.533 172.463 212.822 174.702C212.111 176.941 211.287 179.118 210.391 181.276C209.504 183.427 208.507 185.533 207.404 187.584C206.314 189.629 205.111 191.612 203.799 193.524C204.891 191.496 205.872 189.411 206.734 187.277C207.6 185.152 208.356 182.986 209 180.785C209.649 178.597 210.216 176.379 210.68 174.15C211.143 171.921 211.514 169.651 211.71 167.463C211.77 167.093 211.971 166.76 212.271 166.532C212.571 166.304 212.947 166.198 213.323 166.236C213.699 166.274 214.046 166.453 214.294 166.736C214.541 167.019 214.671 167.385 214.656 167.76C214.656 167.76 214.676 167.821 214.666 167.872Z" fill="#D3DAE8"/>
<path d="M233.568 16.9097C233.977 18.6379 234.476 20.3441 235.062 22.0215C235.628 23.6982 236.277 25.3442 236.988 26.9596C237.699 28.5749 238.471 30.1596 239.326 31.7034C240.1 33.257 240.956 34.7688 241.891 36.2324C241.112 34.6819 240.424 33.0878 239.831 31.458C239.148 29.8601 238.546 28.229 238.029 26.5711C237.507 24.9217 237.053 23.2552 236.669 21.5717C236.298 19.895 235.979 18.1775 235.783 16.5213C235.731 16.2427 235.574 15.9943 235.344 15.8265C235.114 15.6587 234.828 15.5842 234.545 15.6181C234.261 15.652 234.002 15.7916 233.818 16.0087C233.635 16.2259 233.542 16.5041 233.558 16.787C233.566 16.8273 233.57 16.8685 233.568 16.9097Z" fill="#D3DAE8"/>
<path d="M262.472 100.376H261.184C261.184 95.7548 255.168 93.2193 255.107 93.2193L255.601 92.0334C255.879 92.1561 262.472 94.9267 262.472 100.376Z" fill="#D3DAE8"/>
<path d="M252.666 92.6264C252.664 93.157 252.82 93.6763 253.116 94.1184C253.412 94.5604 253.833 94.9053 254.327 95.1093C254.82 95.3133 255.364 95.3672 255.888 95.2642C256.413 95.1611 256.895 94.9058 257.273 94.5306C257.651 94.1554 257.908 93.6772 258.012 93.1567C258.115 92.6361 258.061 92.0966 257.856 91.6068C257.65 91.1169 257.303 90.6987 256.857 90.4052C256.412 90.1116 255.889 89.956 255.354 89.958C254.641 89.958 253.957 90.2391 253.453 90.7395C252.949 91.2399 252.666 91.9187 252.666 92.6264Z" fill="#D3DAE8"/>
<path d="M245.187 135.187C245.185 135.718 245.341 136.237 245.637 136.679C245.933 137.121 246.354 137.466 246.848 137.67C247.341 137.874 247.885 137.928 248.409 137.825C248.934 137.722 249.415 137.466 249.794 137.091C250.172 136.716 250.429 136.238 250.533 135.717C250.636 135.197 250.582 134.657 250.377 134.167C250.171 133.677 249.824 133.259 249.378 132.966C248.933 132.672 248.41 132.517 247.875 132.519C247.162 132.519 246.478 132.8 245.974 133.3C245.47 133.8 245.187 134.479 245.187 135.187Z" fill="#D3DAE8"/>
<path d="M269.826 125.035C269.826 125.748 270.039 126.446 270.439 127.04C270.839 127.633 271.406 128.096 272.071 128.369C272.735 128.642 273.466 128.714 274.172 128.574C274.877 128.435 275.525 128.091 276.033 127.587C276.542 127.082 276.888 126.439 277.029 125.739C277.169 125.039 277.097 124.313 276.822 123.654C276.547 122.994 276.08 122.43 275.482 122.034C274.885 121.637 274.181 121.426 273.462 121.426C272.498 121.426 271.573 121.806 270.891 122.483C270.209 123.16 269.826 124.077 269.826 125.035Z" fill="#D3DAE8"/>
<path d="M187.369 182.196C187.369 182.91 187.583 183.607 187.982 184.201C188.382 184.794 188.949 185.257 189.614 185.53C190.278 185.803 191.009 185.875 191.715 185.735C192.42 185.596 193.068 185.253 193.577 184.748C194.085 184.243 194.431 183.6 194.572 182.9C194.712 182.2 194.64 181.474 194.365 180.815C194.09 180.155 193.623 179.592 193.026 179.195C192.428 178.799 191.725 178.587 191.005 178.587C190.041 178.587 189.116 178.967 188.434 179.644C187.752 180.321 187.369 181.239 187.369 182.196Z" fill="#D3DAE8"/>
<path d="M270.506 89.9579C272.514 89.9579 274.142 88.3421 274.142 86.3489C274.142 84.3558 272.514 82.74 270.506 82.74C268.498 82.74 266.87 84.3558 266.87 86.3489C266.87 88.3421 268.498 89.9579 270.506 89.9579Z" fill="#D3DAE8"/>
<path d="M234.207 40.7922C234.205 41.5064 234.416 42.2052 234.814 42.8C235.213 43.3948 235.78 43.8589 236.444 44.1336C237.108 44.4084 237.84 44.4814 238.546 44.3433C239.252 44.2052 239.901 43.8622 240.41 43.3579C240.92 42.8536 241.267 42.2105 241.408 41.5102C241.549 40.8099 241.478 40.0837 241.203 39.4237C240.928 38.7636 240.462 38.1994 239.864 37.8024C239.266 37.4054 238.562 37.1935 237.843 37.1935C236.88 37.1935 235.957 37.5723 235.275 38.2469C234.594 38.9215 234.209 39.8368 234.207 40.7922Z" fill="#D3DAE8"/>
<path d="M262.472 95.3558L261.194 95.2434C261.335 93.0052 262.232 90.8794 263.741 89.2098C265.249 87.5402 267.281 86.4242 269.507 86.0421L269.672 87.2996C267.727 87.6279 265.953 88.6053 264.644 90.0703C263.334 91.5352 262.568 93.3999 262.472 95.3558Z" fill="#D3DAE8"/>
<path d="M258.299 133.388L257.104 132.928C260.462 124.248 272.452 125.301 272.555 125.301L272.452 126.62C272.349 126.62 261.317 125.598 258.299 133.388Z" fill="#D3DAE8"/>
<path d="M252.367 148.089L251.089 147.926C251.34 145.762 251.143 143.57 250.509 141.485C249.874 139.4 248.817 137.465 247.402 135.801L248.349 134.932C249.902 136.728 251.061 138.826 251.752 141.091C252.444 143.356 252.653 145.74 252.367 148.089Z" fill="#D3DAE8"/>
<path d="M187.05 200.159L186.144 199.259C191.387 194.055 190.264 184.23 190.264 184.128L191.541 183.975C191.572 184.404 192.736 194.515 187.05 200.159Z" fill="#D3DAE8"/>
<path d="M36.7527 88.4345C34.7646 110.017 37.3295 129.145 47.0533 148.948C56.1179 167.422 71.0127 183.433 90.5016 191.111C117.665 201.692 160.021 196.519 177.728 226.178C177.958 226.613 178.012 227.118 177.878 227.591C177.745 228.064 177.434 228.468 177.009 228.721C176.585 228.973 176.079 229.055 175.596 228.949C175.113 228.843 174.689 228.557 174.411 228.151C163.163 209.748 141.521 206.211 120.312 202.53C99.7104 199.014 80.5305 196.192 61.8451 177.186C43.1597 158.18 32.4779 130.801 32.2616 104.056C32.1998 88.4141 35.1458 71.2384 42.2636 57.416C42.3428 57.2398 42.4892 57.1019 42.6708 57.0329C42.8524 56.9639 43.0542 56.9692 43.2318 57.0479C43.4093 57.1265 43.5482 57.272 43.6177 57.4522C43.6873 57.6324 43.6819 57.8327 43.6026 58.009C39.9427 67.7964 37.6383 78.0318 36.7527 88.4345Z" fill="#D3DAE8"/>
<path d="M82.6318 218.428C85.0086 216.39 87.4874 214.473 90.0586 212.683C92.6029 210.883 95.2089 209.206 97.9077 207.642C100.607 206.078 103.346 204.575 106.148 203.318C108.958 202.013 111.836 200.86 114.77 199.862C111.92 201.052 109.138 202.396 106.437 203.89C103.738 205.376 101.122 206.985 98.5876 208.716C96.0536 210.447 93.5952 212.277 91.2123 214.206C88.8534 216.128 86.5255 218.162 84.4139 220.268C84.2941 220.387 84.152 220.482 83.9956 220.546C83.8392 220.61 83.6715 220.643 83.5022 220.643C83.3329 220.643 83.1653 220.61 83.0089 220.546C82.8525 220.482 82.7103 220.387 82.5906 220.268C82.4709 220.15 82.3759 220.009 82.3112 219.853C82.2464 219.698 82.213 219.532 82.213 219.364C82.213 219.196 82.2464 219.029 82.3112 218.874C82.3759 218.719 82.4709 218.578 82.5906 218.459L82.6318 218.428Z" fill="#D3DAE8"/>
<path d="M61.2896 196.437C64.2355 195.804 67.1197 195.415 70.0554 195.027C72.9911 194.638 75.9165 194.485 78.8522 194.393C81.7879 194.301 84.7236 194.393 87.6387 194.526C90.5564 194.712 93.4619 195.053 96.3428 195.548C93.4434 195.269 90.531 195.142 87.6181 195.17C84.7169 195.188 81.8185 195.355 78.9346 195.671C76.0504 195.967 73.1868 196.376 70.3438 196.918C67.5008 197.46 64.6681 198.104 61.9694 198.901C61.8038 198.964 61.6271 198.991 61.4502 198.983C61.2734 198.974 61.1002 198.93 60.9416 198.852C60.7829 198.774 60.6421 198.664 60.5281 198.529C60.414 198.395 60.3291 198.239 60.2787 198.07C60.2282 197.902 60.2134 197.725 60.235 197.55C60.2566 197.376 60.3142 197.208 60.4043 197.056C60.4943 196.905 60.6148 196.774 60.7583 196.671C60.9018 196.568 61.0651 196.495 61.2381 196.458L61.2896 196.437Z" fill="#D3DAE8"/>
<path d="M37.3295 169.671C40.1416 170.05 42.8301 170.581 45.5701 171.205C48.3101 171.829 50.9264 172.595 53.5428 173.444C56.1656 174.286 58.744 175.258 61.2683 176.358C63.7861 177.442 66.2415 178.664 68.623 180.018C66.1502 178.86 63.616 177.836 61.0314 176.951C58.4563 176.058 55.8433 175.298 53.1926 174.671C50.5454 174.037 47.8878 173.495 45.1993 173.086C42.5108 172.677 39.8017 172.36 37.1648 172.217C36.9957 172.209 36.8298 172.168 36.6767 172.096C36.5236 172.025 36.3862 171.924 36.2724 171.799C36.1586 171.675 36.0706 171.53 36.0134 171.372C35.9561 171.213 35.9309 171.046 35.939 170.878C35.9471 170.71 35.9884 170.545 36.0606 170.393C36.1328 170.241 36.2345 170.105 36.3598 169.992C36.4851 169.879 36.6316 169.792 36.7909 169.735C36.9503 169.678 37.1193 169.653 37.2884 169.661L37.3295 169.671Z" fill="#D3DAE8"/>
<path d="M23.6706 139.236C26.1016 140.319 28.3677 141.505 30.6236 142.783C32.8794 144.061 35.0529 145.441 37.1646 146.873C39.3031 148.318 41.366 149.87 43.345 151.524C45.3096 153.168 47.1836 154.915 48.9589 156.759C47.0457 155.073 45.0409 153.493 42.9535 152.025C40.8934 150.567 38.7509 149.204 36.5259 147.936C34.3216 146.678 32.0657 145.503 29.7687 144.45C27.4941 143.38 25.1666 142.424 22.7951 141.587C22.6298 141.537 22.4764 141.453 22.3441 141.343C22.2119 141.232 22.1035 141.096 22.0253 140.943C21.9472 140.79 21.9009 140.623 21.8893 140.452C21.8776 140.28 21.9009 140.108 21.9577 139.946C22.0144 139.784 22.1035 139.635 22.2196 139.508C22.3358 139.38 22.4765 139.278 22.6335 139.206C22.7905 139.134 22.9605 139.094 23.1334 139.088C23.3063 139.083 23.4785 139.112 23.6398 139.174L23.6706 139.236Z" fill="#D3DAE8"/>
<path d="M21.1787 100.161C22.7753 102.053 24.1865 103.954 25.5565 105.938C26.9265 107.921 28.1832 109.945 29.3574 112.072C30.5493 114.141 31.6323 116.271 32.6022 118.452C33.5825 120.614 34.4388 122.829 35.167 125.087C34.2532 122.917 33.2217 120.797 32.0768 118.738C30.9129 116.693 29.6664 114.648 28.3171 112.757C26.9677 110.866 25.5565 108.943 24.0526 107.144C22.5487 105.345 20.9624 103.566 19.3554 101.971C19.0973 101.739 18.9425 101.415 18.9251 101.07C18.9077 100.725 19.0292 100.387 19.2628 100.131C19.4964 99.8745 19.8229 99.7209 20.1706 99.7037C20.5183 99.6864 20.8587 99.8069 21.1169 100.039L21.1787 100.161Z" fill="#D3DAE8"/>
<path d="M25.8754 62.988C27.0909 64.9407 28.121 66.873 29.1098 68.8666C30.0987 70.8602 30.9742 72.8947 31.7777 75.0008C32.5703 77.0541 33.2578 79.1458 33.8378 81.2679C34.4377 83.3807 34.9225 85.5239 35.2902 87.6884C34.7185 85.5806 34.0308 83.5054 33.2301 81.4723C32.4369 79.4276 31.5407 77.4545 30.5519 75.5222C29.563 73.59 28.4918 71.6883 27.369 69.8481C26.2462 68.0078 24.9999 66.188 23.7226 64.5216C23.6198 64.3873 23.5446 64.2343 23.5014 64.0712C23.4582 63.9081 23.4478 63.7382 23.4707 63.5711C23.4937 63.404 23.5496 63.243 23.6352 63.0974C23.7208 62.9517 23.8345 62.8242 23.9698 62.7222C24.1051 62.6202 24.2592 62.5456 24.4235 62.5027C24.5878 62.4598 24.7591 62.4494 24.9274 62.4722C25.0958 62.495 25.2579 62.5505 25.4047 62.6355C25.5514 62.7205 25.6799 62.8333 25.7827 62.9676L25.8754 62.988Z" fill="#D3DAE8"/>
<path d="M42.2735 36.2732C42.5979 38.3055 42.8179 40.3528 42.9327 42.4073C43.0564 44.4521 43.0872 46.4968 43.046 48.5415C43.0048 50.5863 42.8503 52.6309 42.6134 54.6143C42.3787 56.6181 42.0348 58.6079 41.5834 60.5748C41.8303 58.58 41.9645 56.573 41.9851 54.5633C42.0195 52.5675 41.9508 50.5713 41.7791 48.5825C41.6143 46.5991 41.3671 44.6156 41.0375 42.6527C40.7181 40.7106 40.2986 38.786 39.7807 36.8865C39.7207 36.5692 39.7829 36.2411 39.955 35.9671C40.1271 35.6932 40.3965 35.4933 40.71 35.4072C41.0235 35.321 41.3582 35.3549 41.6477 35.502C41.9373 35.6491 42.1606 35.8989 42.2735 36.2016V36.2732Z" fill="#D3DAE8"/>
<path d="M59.5687 50.3924C57.797 51.2921 56.1695 52.2532 54.542 53.2858C52.9145 54.3184 51.3694 55.4123 49.8552 56.5676C48.341 57.7228 46.8783 58.9496 45.4774 60.2378C44.0765 61.526 41.8927 63.3049 40.6464 64.7055C42.3187 63.2839 44.0617 61.9464 45.8688 60.698C47.3687 59.5727 48.9262 58.525 50.535 57.5592C52.135 56.5777 53.7694 55.6713 55.4381 54.8398C57.0917 54.0058 58.7866 53.255 60.5164 52.5905C60.8138 52.4762 61.0535 52.2495 61.1828 51.9602C61.3122 51.6708 61.3207 51.3423 61.2065 51.0468C61.1515 50.9 61.0679 50.7656 60.9603 50.6511C60.8528 50.5367 60.7235 50.4445 60.5799 50.3798C60.4362 50.3152 60.2811 50.2795 60.1235 50.2746C59.9658 50.2698 59.8088 50.2959 59.6614 50.3516L59.5687 50.3924Z" fill="#D3DAE8"/>
<path d="M54.3256 72.7718C52.6039 73.6453 50.9295 74.6077 49.3091 75.655C47.6919 76.6773 46.1262 77.7917 44.612 78.947C43.0978 80.1022 41.6351 81.329 40.2446 82.6172C38.8507 83.9065 37.5301 85.2717 36.2891 86.7067C37.6647 85.4201 39.1126 84.2119 40.6257 83.0876C42.1296 81.963 43.6849 80.9133 45.2918 79.9386C46.8988 78.964 48.5331 78.0576 50.195 77.2192C51.8637 76.3911 53.5942 75.614 55.2732 74.9802C55.4328 74.9338 55.5811 74.8553 55.7086 74.7493C55.8361 74.6433 55.9401 74.5122 56.0141 74.3644C56.0882 74.2166 56.1306 74.0553 56.1387 73.8904C56.1468 73.7255 56.1204 73.5608 56.0612 73.4066C56.0021 73.2523 55.9114 73.1117 55.7948 72.994C55.6783 72.8762 55.5385 72.7837 55.3842 72.7222C55.2299 72.6606 55.0644 72.6315 54.8981 72.6365C54.7319 72.6416 54.5686 72.6807 54.4183 72.7515L54.3256 72.7718Z" fill="#D3DAE8"/>
<path d="M46.1061 108.391C45.0891 110.525 44.1815 112.709 43.3867 114.934C42.5969 117.136 41.9102 119.361 41.3265 121.61C40.7116 123.853 40.2131 126.126 39.8329 128.419C39.4489 130.701 39.1876 133.001 39.05 135.31C39.4255 133.042 39.9276 130.796 40.554 128.583C41.1667 126.374 41.8921 124.197 42.7274 122.06C43.5515 119.927 44.4614 117.834 45.4571 115.783C46.4389 113.746 47.5253 111.76 48.7121 109.833C48.8173 109.667 48.8883 109.483 48.9209 109.29C48.9536 109.097 48.9472 108.9 48.9021 108.71C48.857 108.519 48.7742 108.34 48.6585 108.181C48.5427 108.023 48.3964 107.889 48.228 107.788C48.0623 107.681 47.8764 107.608 47.6815 107.574C47.4867 107.54 47.2869 107.546 47.0943 107.591C46.9017 107.636 46.7204 107.719 46.5611 107.835C46.4019 107.952 46.2681 108.099 46.1679 108.269L46.1061 108.391Z" fill="#D3DAE8"/>
<path d="M59.384 144.542C59.2553 147.079 59.2553 149.621 59.384 152.158C59.487 154.674 59.7239 157.178 60.0432 159.673C60.3625 162.167 60.8055 164.631 61.3617 167.065C61.9147 169.486 62.6025 171.875 63.4219 174.221C62.8604 171.802 62.4306 169.355 62.1343 166.891C61.8459 164.437 61.6742 161.977 61.6192 159.509C61.5643 157.042 61.6089 154.585 61.7532 152.138C61.8948 149.71 62.1594 147.291 62.5463 144.889C62.5975 144.678 62.6043 144.458 62.5663 144.244C62.5283 144.03 62.4463 143.826 62.3254 143.644C62.2045 143.463 62.0473 143.308 61.8635 143.19C61.6797 143.072 61.4733 142.992 61.2572 142.956C61.0411 142.92 60.8199 142.929 60.6073 142.982C60.3947 143.034 60.1953 143.13 60.0215 143.262C59.8477 143.395 59.7033 143.561 59.5971 143.751C59.491 143.942 59.4254 144.152 59.4046 144.368C59.3943 144.429 59.3943 144.481 59.384 144.542Z" fill="#D3DAE8"/>
<path d="M81.3346 167.872C81.8393 170.244 82.4676 172.463 83.1784 174.702C83.8891 176.941 84.7132 179.118 85.6093 181.275C86.496 183.427 87.4931 185.533 88.5966 187.583C89.6826 189.628 90.8828 191.611 92.1915 193.523C91.102 191.496 90.1253 189.41 89.2661 187.277C88.4151 185.158 87.6725 182.998 87.0412 180.805C86.3819 178.617 85.8154 176.399 85.3621 174.17C84.9009 171.961 84.557 169.729 84.3321 167.484C84.2925 167.097 84.0998 166.742 83.7965 166.497C83.4933 166.252 83.1041 166.136 82.7149 166.175C82.3256 166.214 81.9679 166.406 81.7207 166.707C81.4734 167.008 81.3568 167.394 81.3964 167.78C81.3736 167.809 81.353 167.84 81.3346 167.872Z" fill="#D3DAE8"/>
<path d="M62.4221 16.9099C62.0101 18.699 61.5053 20.3757 60.9388 22.0217C60.3723 23.6677 59.7233 25.3445 59.0126 26.9598C58.3129 28.5803 57.5291 30.1637 56.664 31.7036C55.942 33.1719 55.1373 34.5985 54.2537 35.977C54.9615 34.5325 55.5908 33.0514 56.1387 31.54C56.8185 29.9451 57.416 28.3093 57.9413 26.6531C58.4667 24.9968 58.9714 23.3406 59.2907 21.6537C59.6774 19.9867 59.9765 18.301 60.1869 16.6033C60.1997 16.4544 60.2424 16.3095 60.3123 16.1772C60.3822 16.0449 60.4779 15.9277 60.5939 15.8325C60.71 15.7373 60.844 15.666 60.9881 15.6228C61.1322 15.5796 61.2835 15.5654 61.4333 15.5809C61.5843 15.5909 61.7317 15.6313 61.8664 15.6998C62.0011 15.7683 62.1203 15.8633 62.2168 15.9791C62.3132 16.0949 62.3848 16.2292 62.4272 16.3734C62.4696 16.5176 62.4819 16.6688 62.4633 16.8179C62.4539 16.8503 62.44 16.8812 62.4221 16.9099Z" fill="#D3DAE8"/>
<path d="M34.8061 100.376H33.4773C33.4773 94.896 40.08 92.197 40.3581 92.0334L40.8423 93.2193C40.8217 93.2397 34.8061 95.7548 34.8061 100.376Z" fill="#D3DAE8"/>
<path d="M43.3344 92.6264C43.3365 93.157 43.1797 93.6763 42.8839 94.1184C42.5881 94.5604 42.1668 94.9053 41.6732 95.1093C41.1797 95.3133 40.6362 95.3672 40.1117 95.2642C39.5872 95.1611 39.1054 94.9058 38.7274 94.5306C38.3493 94.1554 38.0921 93.6772 37.9882 93.1567C37.8844 92.6361 37.9388 92.0966 38.1443 91.6068C38.3498 91.1169 38.6973 90.6987 39.1427 90.4052C39.5881 90.1116 40.1113 89.956 40.646 89.958C41.359 89.958 42.0428 90.2391 42.547 90.7395C43.0512 91.2399 43.3344 91.9187 43.3344 92.6264Z" fill="#D3DAE8"/>
<path d="M50.8134 135.187C50.8155 135.718 50.6587 136.237 50.3629 136.679C50.0671 137.121 49.6458 137.466 49.1522 137.67C48.6587 137.874 48.1152 137.928 47.5907 137.825C47.0662 137.722 46.5844 137.466 46.2064 137.091C45.8283 136.716 45.5711 136.238 45.4673 135.717C45.3634 135.197 45.4178 134.657 45.6233 134.167C45.8288 133.677 46.1764 133.259 46.6217 132.966C47.0671 132.672 47.5903 132.517 48.1249 132.519C48.8379 132.519 49.5218 132.8 50.026 133.3C50.5302 133.8 50.8134 134.479 50.8134 135.187Z" fill="#D3DAE8"/>
<path d="M26.1737 125.035C26.1737 125.748 25.9605 126.446 25.5609 127.04C25.1614 127.633 24.5936 128.096 23.9291 128.369C23.2647 128.642 22.5336 128.714 21.8283 128.574C21.1229 128.435 20.475 128.091 19.9665 127.587C19.458 127.082 19.1117 126.439 18.9714 125.739C18.8311 125.039 18.9031 124.313 19.1783 123.654C19.4535 122.994 19.9195 122.43 20.5175 122.034C21.1154 121.637 21.8185 121.426 22.5376 121.426C23.502 121.426 24.4269 121.806 25.1088 122.483C25.7907 123.16 26.1737 124.077 26.1737 125.035Z" fill="#D3DAE8"/>
<path d="M108.672 182.196C108.672 182.91 108.459 183.607 108.06 184.201C107.66 184.794 107.092 185.257 106.428 185.53C105.763 185.803 105.032 185.875 104.327 185.735C103.621 185.596 102.974 185.253 102.465 184.748C101.957 184.243 101.61 183.6 101.47 182.9C101.33 182.2 101.402 181.474 101.677 180.815C101.952 180.155 102.418 179.592 103.016 179.195C103.614 178.799 104.317 178.587 105.036 178.587C106.001 178.587 106.925 178.967 107.607 179.644C108.289 180.321 108.672 181.239 108.672 182.196Z" fill="#D3DAE8"/>
<path d="M25.4843 89.9579C27.4925 89.9579 29.1204 88.3421 29.1204 86.3489C29.1204 84.3558 27.4925 82.74 25.4843 82.74C23.4761 82.74 21.8481 84.3558 21.8481 86.3489C21.8481 88.3421 23.4761 89.9579 25.4843 89.9579Z" fill="#D3DAE8"/>
<path d="M61.7932 40.7922C61.7953 41.5064 61.5838 42.2052 61.1855 42.8C60.7872 43.3948 60.22 43.8589 59.5557 44.1336C58.8915 44.4084 58.1601 44.4814 57.4541 44.3433C56.748 44.2052 56.0992 43.8622 55.5896 43.3579C55.0801 42.8536 54.7328 42.2105 54.5916 41.5102C54.4505 40.8099 54.5219 40.0837 54.7968 39.4237C55.0717 38.7636 55.5377 38.1994 56.1359 37.8024C56.7341 37.4054 57.4375 37.1935 58.1571 37.1935C59.1197 37.1935 60.043 37.5723 60.7246 38.2469C61.4062 38.9215 61.7905 39.8368 61.7932 40.7922Z" fill="#D3DAE8"/>
<path d="M33.529 95.3563C33.4275 93.4025 32.6578 91.5414 31.3469 90.0804C30.0359 88.6195 28.2621 87.6459 26.3185 87.3205L26.4936 86.0629C28.7185 86.4483 30.7481 87.5655 32.2558 89.2344C33.7636 90.9034 34.6619 93.0271 34.8062 95.2642L33.529 95.3563Z" fill="#D3DAE8"/>
<path d="M37.6903 133.388C34.6825 125.618 23.6607 126.559 23.5474 126.579L23.4238 125.301C23.5474 125.301 35.5271 124.279 38.8749 132.928L37.6903 133.388Z" fill="#D3DAE8"/>
<path d="M43.6231 148.089C43.3367 145.739 43.547 143.355 44.2404 141.089C44.9338 138.824 46.0953 136.727 47.6507 134.932L48.588 135.801C47.1794 137.469 46.1264 139.404 45.4926 141.488C44.8588 143.572 44.6573 145.762 44.9004 147.926L43.6231 148.089Z" fill="#D3DAE8"/>
<path d="M108.95 200.159C103.264 194.515 104.428 184.404 104.48 183.975L105.757 184.128C105.757 184.23 104.624 194.055 109.877 199.259L108.95 200.159Z" fill="#D3DAE8"/>
<path d="M155.417 206.508C155.417 211.947 151.863 216.353 147.475 216.353C143.087 216.353 139.543 211.947 139.543 206.508C139.543 201.069 143.097 196.652 147.475 196.652C151.852 196.652 155.417 201.069 155.417 206.508Z" fill="#D3DAE8"/>
</g>
<g filter="url(#filter1_d)">
<path d="M149.212 34.9319C125.514 34.8173 95.1569 38.5558 95.8584 51.2571C96.271 58.5681 90.7212 128.05 86.7805 128.086C82.8399 128.121 76.4647 129.726 76.4647 132.137C76.4647 137.065 87.2757 148.999 94.1501 149.968C111.324 152.386 176.714 154.192 186.538 154.145C192.98 154.113 206.101 141.305 208.874 134.243C211.329 127.987 192.922 129.726 192.876 125.995C192.682 110.785 191.94 59.07 191.94 52.4229C191.952 43.9422 167.392 35.0346 149.212 34.9319Z" fill="#6740A0"/>
<path d="M136.858 128.086C134.465 126.715 111.378 136.092 110.392 139.4C109.405 142.708 110.392 154.145 110.392 154.145L184.31 155.476C184.31 155.476 186.968 143.874 184.31 140.582C181.653 137.29 160.13 129.066 160.13 129.066L136.858 128.086Z" fill="#49CEB1"/>
<path d="M135.95 113.855C135.95 113.855 136.363 130.785 137.914 132.136C142.796 136.392 155.108 136.392 159.037 132.136C161.752 129.2 159.037 115.89 159.037 115.89L135.95 113.855Z" fill="#FFD3B5"/>
<path d="M160.233 125.928C160.09 122.565 159.69 119.217 159.037 115.91L135.95 113.875C135.95 113.875 136.107 120.316 136.594 125.572C144.414 126.787 152.377 126.906 160.233 125.928Z" fill="#CC9A79"/>
<path d="M114.823 57.4861C114.823 57.4861 128.7 66.615 144.793 68.1799C163.984 70.0492 179.181 58.1777 179.181 58.1777C184.096 61.8569 184.092 77.6684 184.092 84.4459C184.092 91.2234 186.06 106.094 177.708 113.362C165.837 123.692 130.544 121.835 118.751 113.362C112.091 108.576 109.966 96.764 109.966 96.764C109.966 96.764 99.1018 96.5822 99.1018 90.7492C99.1018 82.2052 108.436 84.031 108.436 84.031C108.436 84.031 108.436 60.5014 114.823 57.4861Z" fill="#FFD3B5"/>
<path d="M75.0905 69.306C73.1965 70.2386 73.44 84.912 75.0905 86.39C76.7411 87.868 88.3814 88.0498 88.3814 88.0498L91.5174 94.5387L93.0648 88.1683C93.8901 86.6705 103.302 87.3779 104.672 86.39C106.042 85.402 106.512 74.1747 104.742 70.4837C103.669 68.2508 78.7052 67.5197 75.0905 69.306Z" fill="#BCBFC9"/>
<path d="M114.827 25.6532C112.438 26.8388 112.764 45.3415 114.827 47.2067C116.89 49.072 128.093 49.9731 128.093 49.9731L138.347 57.4816L136.804 50.1153C137.839 48.2303 150.42 48.4279 152.145 47.2028C153.87 45.9777 155.133 31.2293 152.232 27.1391C149.331 23.0489 119.386 23.4046 114.827 25.6532Z" fill="#F1DE96"/>
<path d="M130.371 35.0345C130.371 35.0345 124.429 27.3362 121.705 31.9717C117.505 39.0851 132.087 47.8465 132.087 47.8465C132.087 47.8465 143.525 38.9547 142.634 35.0345C140.224 24.5422 130.371 35.0345 130.371 35.0345Z" fill="#CC404E"/>
<path d="M216.161 49.6011C218.199 50.2808 220.102 65.0372 218.67 66.7404C217.238 68.4437 208.441 70.3525 208.441 70.3525L201.162 77.4264L201.533 71.4037C200.485 70.0126 190.512 71.5143 188.989 70.7239C187.467 69.9336 184.756 58.3506 186.588 54.7939C188.42 51.2372 212.274 48.2969 216.161 49.6011Z" fill="#BCBFC9"/>
<path d="M202.573 67.1677C202.573 67.1677 211.87 60.4496 208.573 54.4625C206.366 50.4474 202.573 56.7704 202.573 56.7704C202.573 56.7704 196.112 50.0206 195.402 56.7704C194.944 61.1174 202.573 67.1677 202.573 67.1677Z" fill="#A53444"/>
<path d="M216 68.6456C218.274 69.8944 220.102 87.5831 216.533 91.7405C214.771 93.7915 201.802 94.2499 201.802 94.2499L191.453 101.142L193.306 94.0286C192.381 92.1436 183.53 94.7913 180.101 91.7998C177.84 89.8238 176.305 74.8264 179.326 70.9614C182.346 67.0965 211.659 66.2547 216 68.6456Z" fill="#F1DE96"/>
<path d="M199.379 34.7498C201.768 35.9354 201.442 54.4382 199.379 56.3035C197.316 58.1688 186.109 59.0698 186.109 59.0698L175.859 66.5785L177.402 59.2121C176.362 57.327 163.785 57.5246 162.061 56.2995C160.336 55.0745 159.073 40.3299 161.974 36.2199C164.875 32.1099 194.819 32.4972 199.379 34.7498Z" fill="#F1DE96"/>
<path d="M82.0725 40.9619C79.0356 42.2819 79.4358 63.0491 82.0725 65.1357C84.7093 67.2223 98.9492 68.238 98.9492 68.238L111.988 76.6713L110.037 68.4158C111.357 66.3015 127.347 66.5228 129.55 65.1476C131.753 63.7723 133.35 47.2297 129.657 42.6415C125.964 38.0533 87.8741 38.4485 82.0725 40.9619Z" fill="#FFEFB1"/>
<path d="M73.7617 128.086C72.1442 130.319 72.169 149.937 73.7617 150.794C75.3545 151.652 85.1834 150.794 85.1834 150.794C85.5094 152.904 94.3521 162.286 93.696 159.804C93.0399 157.323 92.7799 152.272 92.7799 152.272C96.3574 152.699 107.222 152.667 110.11 149.968C112.999 147.269 113.597 129.343 112.615 126.557C111.633 123.771 79.6995 119.894 73.7617 128.086Z" fill="#BCBFC9"/>
<path d="M89.7391 135.843C89.7391 135.843 81.8125 126.951 81.8042 136.46C81.8042 140.285 90.1394 144.462 90.1394 144.462C90.1394 144.462 97.8391 141.269 97.8515 135.871C97.8721 127.844 89.7391 135.843 89.7391 135.843Z" fill="#A53444"/>
<path d="M53.1303 102.431C50.0933 103.838 50.4936 125.917 53.1303 128.118C55.767 130.32 71.4264 129.612 71.4264 129.612L83.0461 140.381L79.9431 129.296C86.7928 131.142 98.3919 129.581 100.595 128.111C102.799 126.64 104.396 109.058 100.703 104.178C97.0096 99.2974 58.9319 99.7479 53.1303 102.431Z" fill="#FFEFB1"/>
<path d="M206.819 115.681C209.274 116.981 210.422 136.788 206.819 139.456C204.467 141.195 189.386 141.61 189.386 141.61L182.635 150.794L184.418 141.685C184.418 141.685 170.231 140.803 168.449 139.456C166.666 138.108 165.379 121.834 168.362 117.325C171.345 112.816 202.132 113.199 206.819 115.681Z" fill="#BCBFC9"/>
<path d="M187.516 137.029C187.516 137.029 198.707 128.971 195.554 122.407C193.47 118.06 187.78 124.166 187.78 124.166C187.78 124.166 180.881 117.033 179.181 122.648C177.481 128.264 187.516 137.029 187.516 137.029Z" fill="#A53444"/>
<path d="M76.4764 167.96C75.5769 170.632 73.6622 189.917 76.4764 192.114C79.2905 194.312 89.8168 194.972 89.8168 194.972C89.8168 194.972 99.0886 202.48 99.0886 201.524C99.0886 199.014 101.238 195.201 101.238 195.201C104.676 195.169 114.319 194.616 116.613 191.478C118.907 188.34 119.233 171.403 116.613 169.209C113.993 167.016 77.9206 163.661 76.4764 167.96Z" fill="#FFEFB1"/>
<path d="M134.653 140.4C131.303 140.128 98.9607 139.108 97.4877 143.186C96.0146 147.265 97.8136 165.993 101.907 166.36C106 166.728 118.445 164.744 119.101 165.882C119.757 167.02 127.944 176.928 127.292 174.486C126.64 172.043 124.342 165.898 126.306 165.677C128.27 165.455 135.479 165.448 138.755 162.626C142.031 159.804 137.946 140.665 134.653 140.4Z" fill="#F1DE96"/>
<path d="M218.01 99.253C212.055 96.4353 183.823 97.5497 180.65 100.367C177.654 103.031 178.587 120.87 180.65 122.213C184.293 124.585 198.764 122.502 197.65 123.743C196.536 124.984 194.593 130.066 195.401 129.726C196.21 129.386 203.415 123.403 205.053 123.158C200.481 124.016 215.447 122.949 218.542 122.213C221.562 121.494 223.832 101.359 218.01 99.253Z" fill="#FFEFB1"/>
<path d="M199.578 152.011C197.279 151.778 154.783 149.043 154.131 150.826C153.479 152.608 151.395 183.626 153.982 183.729C156.569 183.832 168.061 182.484 168.061 182.484C168.886 183.99 162.973 196.916 164.937 195C166.902 193.083 174.234 182.314 176.037 182.287C177.84 182.259 198.814 183.326 200.543 179.263C202.272 175.201 204.468 152.497 199.578 152.011Z" fill="#BCBFC9"/>
<path d="M215.583 182.346C213.722 180.556 177.056 176.371 174.56 182.302C172.063 188.234 170.462 205.488 172.756 206.741C175.051 207.994 195.038 209.282 195.038 209.282C195.695 212.388 193.73 216.395 195.038 215.969C196.347 215.542 200.489 209.314 203.188 209.282C205.887 209.25 215.53 210.412 217.337 207.867C218.332 206.444 218.579 185.227 215.583 182.346Z" fill="#FFEFB1"/>
<path d="M242.165 133.833C245.202 135.441 246.622 159.943 242.165 163.239C239.252 165.393 220.597 165.906 220.597 165.906L212.245 177.268L214.432 165.997C214.432 165.997 196.883 164.911 194.684 163.231C192.484 161.552 190.883 141.436 194.572 135.852C198.261 130.268 236.364 130.762 242.165 133.833Z" fill="#FFEFB1"/>
<path d="M176.387 163.207C172.806 158.492 166.95 154.765 165.102 162.144C163.253 169.522 176.4 176.742 176.4 176.742C176.4 176.742 187.838 170.356 187.846 163.207C187.854 157.856 180.064 158.84 176.387 163.207Z" fill="#A53444"/>
<path d="M159.623 171.186C156.883 170.479 126.431 166.776 122.511 170.846C120.241 173.198 121.904 193.297 124.83 193.597C127.755 193.897 139.317 193.66 139.878 194.826C140.44 195.992 138.187 200.951 139.878 200.41C141.57 199.869 145.519 195.154 147.211 194.826C148.903 194.498 156.8 196.272 159.623 192.716C162.445 189.159 162.986 172.059 159.623 171.186Z" fill="#F1DE96"/>
<path d="M181.331 135.331C180.505 131.628 147.194 132.928 145.337 135.074C143.48 137.22 143.922 158.545 145.337 158.236C146.752 157.928 163.786 157.924 163.786 159.817C163.786 161.71 164.768 164.955 164.116 165.69C163.464 166.425 169.026 158.248 170.008 158.576C170.99 158.904 179.173 157.948 180.65 156.995C182.127 156.043 183.316 144.424 181.331 135.331Z" fill="#FFEFB1"/>
<path d="M101.082 49.1118C101.082 49.1118 94.8598 40.6943 92.7719 49.1118C91.893 52.6685 101.437 61.7579 101.437 61.7579C101.437 61.7579 110.156 53.3404 110.156 49.6612C110.144 40.6943 101.082 49.1118 101.082 49.1118Z" fill="#FF4F59"/>
<path d="M182.379 54.7671C183.11 54.4549 189.984 47.9145 189.988 43.4765C189.988 37.0546 182.379 44.0495 182.379 44.0495C182.379 44.0495 171.651 36.2168 173.611 45.2351C174.44 49.0408 182.379 54.7671 182.379 54.7671Z" fill="#CC404E"/>
<path d="M199.066 77.7163C199.066 77.7163 188.849 71.4485 189.6 77.8586C190.322 84.0433 200.626 89.1413 200.626 89.1413C200.626 89.1413 208.053 81.4193 208.226 76.2778C208.441 70.3538 199.066 77.7163 199.066 77.7163Z" fill="#CC404E"/>
<path d="M76.2372 110.204C76.2372 110.204 65.3478 98.9528 65.4716 111.84C65.5211 116.977 75.0034 122.577 75.0034 122.577C75.0034 122.577 86.9697 118.293 86.9986 111.053C87.0234 100.285 76.2372 110.204 76.2372 110.204Z" fill="#FF4F59"/>
<path d="M202.557 107.097C202.652 106.465 191.635 98.4467 192.567 107.097C193.058 111.611 202.557 117.736 202.557 117.736C202.557 117.736 212.357 109.611 211.457 104.418C210.558 99.2252 202.557 107.097 202.557 107.097Z" fill="#FF4F59"/>
<path d="M219.863 143.637C216.248 138.875 210.339 135.113 208.47 142.562C206.601 150.012 219.879 157.307 219.879 157.307C219.879 157.307 231.433 150.857 231.433 143.637C231.441 138.235 223.576 139.231 219.863 143.637Z" fill="#FF4F59"/>
<path d="M115.4 150.308C115.4 150.308 105.91 141.689 105.934 150.45C105.963 156.674 116.96 161.733 116.96 161.733C116.96 161.733 127.779 152.904 124.561 148.869C118.895 141.736 115.4 150.308 115.4 150.308Z" fill="#CC404E"/>
<path d="M95.6887 178.279C92.9736 174.722 88.5378 171.881 87.1349 177.489C85.7319 183.096 95.697 188.554 95.697 188.554C95.697 188.554 104.362 183.713 104.362 178.279C104.379 174.225 98.4823 174.971 95.6887 178.279Z" fill="#FF4F59"/>
<path d="M88.6542 83.1726C88.6542 83.1726 80.2819 77.1381 82.6422 72.214C84.2019 68.9576 88.4603 73.526 88.4603 73.526C88.4603 73.526 93.6223 68.191 94.8932 72.3918C96.1641 76.5927 88.6542 83.1726 88.6542 83.1726Z" fill="#A53444"/>
<path d="M163.423 141.519C163.423 141.519 171.106 134.295 173.582 139.077C177.844 147.411 163.2 154.951 163.2 154.951C163.2 154.951 154.155 149.182 152.653 142.139C150.392 131.604 163.423 141.519 163.423 141.519Z" fill="#FF4F59"/>
<path d="M143.047 189.218C143.047 189.218 153.14 181.927 149.558 175.426C147.165 171.079 143.047 177.924 143.047 177.924C143.047 177.924 136.032 170.601 135.265 177.924C134.794 182.654 143.047 189.218 143.047 189.218Z" fill="#CC404E"/>
<path d="M194.704 203.876C194.704 203.876 183.002 195.419 187.153 187.878C189.934 182.832 194.704 190.779 194.704 190.779C194.704 190.779 202.837 182.282 203.732 190.779C204.31 196.272 194.704 203.876 194.704 203.876Z" fill="#FF4F59"/>
<path d="M127.495 77.64C124.821 79.5804 126.063 90.0727 129.909 87.8952C133.755 85.7177 132.62 73.9292 127.495 77.64Z" fill="#6740A0"/>
<path d="M167.231 77.9754C170.891 78.7856 171.828 88.8116 166.91 88.3808C162.969 88.033 164.463 77.3589 167.231 77.9754Z" fill="#6740A0"/>
<path d="M147.722 91.2305C146.793 91.4705 145.893 91.803 145.036 92.2225C144.627 92.4272 144.239 92.668 143.876 92.9417C143.525 93.1925 143.223 93.5017 142.985 93.8546C142.765 94.1874 142.665 94.5801 142.7 94.9727C142.735 95.3652 142.903 95.736 143.179 96.0282C143.796 96.7231 144.509 97.3335 145.3 97.8421C144.317 97.592 143.418 97.1049 142.688 96.4273C142.289 96.0487 142.021 95.5617 141.92 95.0323C141.844 94.4809 141.973 93.9213 142.284 93.4515C142.894 92.625 143.76 92.003 144.759 91.6732C145.702 91.3237 146.713 91.1727 147.722 91.2305Z" fill="#AA6F5B"/>
<path d="M140.653 103.368C146.678 103.526 155.545 102.664 155.537 104.68C155.537 107.731 152.917 110.92 147.445 110.912C142.159 110.912 140.653 103.368 140.653 103.368Z" fill="white"/>
<path d="M134.976 94.5579C134.109 92.653 118.058 90.2107 119.709 96.3995C121.359 102.588 138.533 102.363 134.976 94.5579Z" fill="#F7A686"/>
<path d="M175.133 92.4441C172.005 89.8042 159.528 94.0012 163.728 98.2061C167.929 102.411 181.905 98.1626 175.133 92.4441Z" fill="#F7A686"/>
</g>
<defs>
<filter id="filter0_i" x="0" y="-4" width="300" height="244" filterUnits="userSpaceOnUse" color-interpolation-filters="sRGB">
<feFlood flood-opacity="0" result="BackgroundImageFix"/>
<feBlend mode="normal" in="SourceGraphic" in2="BackgroundImageFix" result="shape"/>
<feColorMatrix in="SourceAlpha" type="matrix" values="0 0 0 0 0 0 0 0 0 0 0 0 0 0 0 0 0 0 127 0" result="hardAlpha"/>
<feOffset dx="4" dy="-5"/>
<feGaussianBlur stdDeviation="2"/>
<feComposite in2="hardAlpha" operator="arithmetic" k2="-1" k3="1"/>
<feColorMatrix type="matrix" values="0 0 0 0 0.866667 0 0 0 0 0.909804 0 0 0 0 0.929412 0 0 0 0.5 0"/>
<feBlend mode="multiply" in2="shape" result="effect1_innerShadow"/>
</filter>
<filter id="filter1_d" x="31" y="14" width="234" height="232" filterUnits="userSpaceOnUse" color-interpolation-filters="sRGB">
<feFlood flood-opacity="0" result="BackgroundImageFix"/>
<feColorMatrix in="SourceAlpha" type="matrix" values="0 0 0 0 0 0 0 0 0 0 0 0 0 0 0 0 0 0 127 0"/>
<feOffset dy="10"/>
<feGaussianBlur stdDeviation="10"/>
<feColorMatrix type="matrix" values="0 0 0 0 0 0 0 0 0 0 0 0 0 0 0 0 0 0 0.2 0"/>
<feBlend mode="normal" in2="BackgroundImageFix" result="effect1_dropShadow"/>
<feBlend mode="normal" in="SourceGraphic" in2="effect1_dropShadow" result="shape"/>
</filter>
</defs>
</svg>
