<svg  viewBox="0 0 188 103" fill="none" xmlns="http://www.w3.org/2000/svg">
<path d="M51.3621 59.9488C51.3621 71.8898 49.0679 81.0673 44.4796 87.4813C39.9597 93.8271 33.6935 97 25.681 97C17.6686 97 11.3681 93.8271 6.77979 87.4813C2.25993 81.0673 0 71.8898 0 59.9488C0 54.0124 0.582104 48.7584 1.74631 44.1867C2.979 39.615 4.72531 35.7598 6.98524 32.621C9.24517 29.4823 11.9502 27.0941 15.1005 25.4564C18.2507 23.8188 21.7775 23 25.681 23C33.6935 23 39.9597 26.207 44.4796 32.621C49.0679 38.9668 51.3621 48.0761 51.3621 59.9488ZM35.748 59.9488C35.748 56.4007 35.5768 53.1936 35.2344 50.3278C34.892 47.3937 34.3441 44.8691 33.5908 42.7538C32.8375 40.6385 31.8102 39.0009 30.5091 37.8409C29.2079 36.681 27.5986 36.101 25.681 36.101C23.7635 36.101 22.1542 36.681 20.853 37.8409C19.6203 39.0009 18.5931 40.6385 17.7713 42.7538C17.018 44.8691 16.4701 47.3937 16.1277 50.3278C15.7853 53.1936 15.6141 56.4007 15.6141 59.9488C15.6141 63.497 15.7853 66.7381 16.1277 69.6722C16.4701 72.6063 17.018 75.1309 17.7713 77.2462C18.5931 79.3615 19.6203 80.9991 20.853 82.1591C22.1542 83.319 23.7635 83.899 25.681 83.899C27.5986 83.899 29.2079 83.319 30.5091 82.1591C31.8102 80.9991 32.8375 79.3615 33.5908 77.2462C34.3441 75.1309 34.892 72.6063 35.2344 69.6722C35.5768 66.7381 35.748 63.497 35.748 59.9488Z" fill="#D3DAE8"/>
<path d="M105.843 43.2656C105.843 45.8585 105.329 48.349 104.302 50.7372C103.275 53.1254 101.939 55.4454 100.296 57.6971C98.6521 59.8806 96.8031 61.9958 94.7486 64.0429C92.6941 66.0899 90.6739 68.0346 88.6879 69.8769C87.6606 70.8322 86.5306 71.9239 85.298 73.1521C84.1338 74.3121 83.0038 75.5062 81.9081 76.7344C80.8123 77.9627 79.8193 79.1226 78.9291 80.2144C78.1073 81.2379 77.5937 82.0908 77.3882 82.7732H108V96H60.5414C60.4045 95.2494 60.336 93.8612 60.336 92.7012C60.336 91.5413 60.336 90.7225 60.336 90.2448C60.336 86.9696 60.8496 83.9673 61.8769 81.2379C62.9726 78.5085 64.3765 75.9839 66.0885 73.6639C67.8006 71.2757 69.7181 69.0581 71.8411 67.0111C74.0325 64.964 76.1898 62.917 78.3127 60.87C79.9563 59.3006 81.4972 57.8336 82.9353 56.4689C84.3734 55.036 85.6404 53.6713 86.7361 52.3748C87.8318 51.0101 88.6879 49.6796 89.3042 48.3831C89.9205 47.0184 90.2287 45.6538 90.2287 44.2891C90.2287 41.2868 89.3727 39.1715 87.6606 37.9433C85.9485 36.7151 83.8256 36.101 81.2917 36.101C79.4427 36.101 77.6964 36.408 76.0528 37.0221C74.4777 37.568 73.0053 38.2503 71.6357 39.0692C70.3345 39.8197 69.2045 40.6044 68.2458 41.4232C67.287 42.1738 66.5679 42.7879 66.0885 43.2656L58.487 32.621C61.5002 29.8234 64.9928 27.5376 68.9648 25.7635C73.0053 23.9212 77.3197 23 81.9081 23C86.0855 23 89.6809 23.4776 92.6941 24.4329C95.7073 25.3882 98.1727 26.7529 100.09 28.527C102.076 30.2328 103.514 32.3481 104.405 34.8728C105.363 37.3292 105.843 40.1268 105.843 43.2656Z" fill="#D3DAE8"/>
<g filter="url(#filter0_d)">
<path d="M135.792 4.38059C134.098 4.85727 134.94 13.6091 135.792 15.3442C136.644 17.0793 156.235 15.3442 156.235 15.3442C156.235 15.3442 157.953 4.78576 156.235 4.38059C152.715 3.5893 140.476 3.06495 135.792 4.38059Z" fill="#009DE3"/>
<path d="M131.901 3.80481C130.206 4.28149 131.049 13.0333 131.901 14.7399C132.753 16.4464 152.343 14.7399 152.343 14.7399C152.343 14.7399 154.061 4.18615 152.343 3.80481C148.824 3.02305 136.584 2.47487 131.901 3.80481Z" fill="#C5E5F8"/>
<path d="M152.343 3.80362C148.823 3.02186 136.584 2.49274 131.9 3.80362C131.873 3.81269 131.847 3.82384 131.821 3.83699L152.459 13.9903C152.808 11.5783 153.781 4.123 152.343 3.80362Z" fill="#E6F6FC"/>
<path d="M142.124 11.6559C119.125 11.6559 93.9946 29.0977 96.1269 61.369C98.0822 91.0043 125.075 102.788 142.124 102.998C161.784 103.236 188 86.5616 188 57.3363C188 31.2761 167.087 11.6559 142.124 11.6559Z" fill="#FF4F59"/>
<path d="M142.124 11.6559C119.125 11.6559 93.9946 29.0977 96.1269 61.369C98.0822 91.0043 125.075 102.788 142.124 102.998C161.784 103.236 188 86.5616 188 57.3363C188 31.2761 167.087 11.6559 142.124 11.6559Z" fill="url(#paint0_linear)" fill-opacity="0.6"/>
<path d="M142.091 23.4485C125.024 23.4485 106.369 36.3951 107.952 60.3436C109.405 82.3424 129.438 91.0848 142.091 91.2421C156.687 91.4185 176.142 79.0438 176.142 57.3548C176.142 37.992 160.616 23.4485 142.091 23.4485Z" fill="#FFDA7E"/>
<path d="M142.092 23.4487C160.616 23.4487 176.142 38.0113 176.142 57.3551C176.142 78.8915 156.961 91.2424 142.403 91.2424H142.092C129.438 91.085 109.405 82.3427 107.952 60.3439C106.369 36.3763 125.024 23.4487 142.092 23.4487ZM142.092 21.1702C131.756 21.1702 121.523 25.6176 114.717 33.0872C108.129 40.2994 105.024 49.7711 105.731 60.5107C107.3 84.2637 128.851 93.3684 142.045 93.5304H142.385C150.527 93.5304 159.41 90.0125 166.156 84.116C174.038 77.2184 178.372 67.7181 178.372 57.336C178.396 52.5021 177.452 47.7145 175.6 43.268C173.748 38.8214 171.027 34.8101 167.604 31.4808C160.724 24.7925 151.583 21.0906 142.096 21.1511L142.092 21.1702Z" fill="#E2B759"/>
<path d="M156.575 72.7857C156.327 72.786 156.087 72.7022 155.891 72.5473L140.197 59.9725C140.056 59.8601 139.945 59.7148 139.871 59.5489C139.797 59.3829 139.764 59.2012 139.773 59.0191L140.327 37.3397C140.334 37.0438 140.454 36.7625 140.661 36.5559C140.868 36.3493 141.146 36.2337 141.435 36.2338H141.468C141.613 36.2375 141.757 36.2707 141.891 36.3314C142.024 36.3922 142.144 36.4793 142.245 36.5879C142.345 36.6964 142.423 36.8241 142.475 36.9638C142.527 37.1034 142.552 37.2522 142.548 37.4016L142.008 58.5091L157.287 70.7264C157.469 70.8728 157.602 71.0738 157.668 71.3013C157.733 71.5289 157.727 71.7716 157.651 71.9957C157.576 72.2197 157.433 72.414 157.245 72.5513C157.056 72.6887 156.83 72.7622 156.598 72.7618L156.575 72.7857Z" fill="white"/>
<path d="M140.918 56.039C139.833 56.039 137.724 57.326 137.724 59.147C137.724 61.1729 139.289 62.0452 140.918 62.2406C141.334 62.2721 141.752 62.2154 142.145 62.0743C142.539 61.9331 142.899 61.7105 143.205 61.4202C143.511 61.13 143.755 60.7783 143.922 60.3872C144.089 59.9961 144.176 59.5739 144.177 59.147C144.127 58.2998 143.761 57.5047 143.154 56.9262C142.547 56.3478 141.747 56.0301 140.918 56.039Z" fill="#009DE3"/>
<path d="M115.196 60.2873H109.144C108.848 60.2873 108.565 60.1673 108.357 59.9536C108.148 59.74 108.031 59.4502 108.031 59.148C108.031 58.8459 108.148 58.5561 108.357 58.3425C108.565 58.1288 108.848 58.0088 109.144 58.0088H115.196C115.491 58.0088 115.774 58.1288 115.983 58.3425C116.191 58.5561 116.308 58.8459 116.308 59.148C116.308 59.4502 116.191 59.74 115.983 59.9536C115.774 60.1673 115.491 60.2873 115.196 60.2873Z" fill="white"/>
<path d="M174.648 60.2873H167.715C167.42 60.2873 167.137 60.1673 166.929 59.9536C166.72 59.74 166.603 59.4502 166.603 59.148C166.603 58.8459 166.72 58.5561 166.929 58.3425C167.137 58.1288 167.42 58.0088 167.715 58.0088H174.648C174.943 58.0088 175.226 58.1288 175.434 58.3425C175.643 58.5561 175.76 58.8459 175.76 59.148C175.76 59.4502 175.643 59.74 175.434 59.9536C175.226 60.1673 174.943 60.2873 174.648 60.2873Z" fill="white"/>
<path d="M141.412 31.957C141.266 31.957 141.121 31.9276 140.987 31.8702C140.852 31.8129 140.729 31.7289 140.626 31.6231C140.524 31.5172 140.442 31.3916 140.387 31.2534C140.331 31.1152 140.303 30.9672 140.304 30.8178V24.5733C140.294 24.4178 140.315 24.2619 140.367 24.1152C140.418 23.9685 140.498 23.8342 140.602 23.7205C140.706 23.6068 140.832 23.5162 140.972 23.4543C141.111 23.3923 141.262 23.3604 141.414 23.3604C141.566 23.3604 141.717 23.3923 141.856 23.4543C141.996 23.5162 142.122 23.6068 142.226 23.7205C142.33 23.8342 142.41 23.9685 142.461 24.1152C142.513 24.2619 142.534 24.4178 142.524 24.5733V30.8178C142.524 31.1199 142.407 31.4097 142.198 31.6234C141.99 31.837 141.707 31.957 141.412 31.957Z" fill="white"/>
<path d="M140.941 91.1846C140.648 91.1859 140.367 91.0682 140.158 90.8574C139.949 90.6465 139.831 90.3597 139.829 90.0596L139.745 82.3374C139.743 82.0352 139.859 81.7446 140.065 81.5287C140.272 81.3127 140.553 81.1889 140.848 81.1838C141.142 81.1838 141.423 81.3025 141.632 81.5141C141.84 81.7257 141.958 82.0131 141.961 82.3136L142.045 90.031C142.046 90.3333 141.931 90.6238 141.724 90.8398C141.518 91.0557 141.236 91.1796 140.941 91.1846Z" fill="white"/>
</g>
<defs>
<filter id="filter0_d" x="93" y="0" width="95" height="103" filterUnits="userSpaceOnUse" color-interpolation-filters="sRGB">
<feFlood flood-opacity="0" result="BackgroundImageFix"/>
<feColorMatrix in="SourceAlpha" type="matrix" values="0 0 0 0 0 0 0 0 0 0 0 0 0 0 0 0 0 0 127 0"/>
<feOffset dx="-2" dy="-2"/>
<feGaussianBlur stdDeviation="0.5"/>
<feColorMatrix type="matrix" values="0 0 0 0 0.164706 0 0 0 0 0.184314 0 0 0 0 0.309804 0 0 0 0.08 0"/>
<feBlend mode="normal" in2="BackgroundImageFix" result="effect1_dropShadow"/>
<feBlend mode="normal" in="SourceGraphic" in2="effect1_dropShadow" result="shape"/>
</filter>
<linearGradient id="paint0_linear" x1="156.857" y1="95.6672" x2="130.483" y2="17.5629" gradientUnits="userSpaceOnUse">
<stop stop-color="#863636"/>
<stop offset="0.911458" stop-color="#EE6363" stop-opacity="0"/>
</linearGradient>
</defs>
</svg>
