<svg viewBox="0 0 212 113" fill="none" xmlns="http://www.w3.org/2000/svg">
<path d="M50.993 56.8978C50.993 68.8223 48.7153 77.9871 44.1599 84.3923C39.6725 90.7293 33.4514 93.8978 25.4965 93.8978C17.5416 93.8978 11.2864 90.7293 6.73107 84.3923C2.24369 77.9871 0 68.8223 0 56.8978C0 50.9696 0.57792 45.7228 1.73376 41.1575C2.95759 36.5921 4.69135 32.7422 6.93504 29.6077C9.17873 26.4733 11.8644 24.0884 14.9919 22.453C18.1195 20.8177 21.621 20 25.4965 20C33.4514 20 39.6725 23.2026 44.1599 29.6077C48.7153 35.9448 50.993 45.0414 50.993 56.8978ZM35.4911 56.8978C35.4911 53.3545 35.3211 50.1519 34.9812 47.2901C34.6412 44.36 34.0973 41.8389 33.3494 39.7265C32.6015 37.6142 31.5816 35.9788 30.2898 34.8204C28.998 33.6621 27.4002 33.0829 25.4965 33.0829C23.5927 33.0829 21.995 33.6621 20.7031 34.8204C19.4793 35.9788 18.4594 37.6142 17.6436 39.7265C16.8957 41.8389 16.3517 44.36 16.0118 47.2901C15.6718 50.1519 15.5019 53.3545 15.5019 56.8978C15.5019 60.4411 15.6718 63.6777 16.0118 66.6077C16.3517 69.5378 16.8957 72.0589 17.6436 74.1713C18.4594 76.2836 19.4793 77.919 20.7031 79.0774C21.995 80.2357 23.5927 80.8149 25.4965 80.8149C27.4002 80.8149 28.998 80.2357 30.2898 79.0774C31.5816 77.919 32.6015 76.2836 33.3494 74.1713C34.0973 72.0589 34.6412 69.5378 34.9812 66.6077C35.3211 63.6777 35.4911 60.4411 35.4911 56.8978Z" fill="#D3DAE8"/>
<path d="M77.7499 94C75.9142 94 73.9764 93.8637 71.9367 93.5912C69.897 93.3867 67.9253 93.0801 66.0215 92.6713C64.1178 92.2624 62.384 91.8195 60.8202 91.3425C59.2565 90.8656 58.0326 90.4226 57.1488 90.0138L60.1063 77.3398C61.8741 78.0893 64.1178 78.907 66.8374 79.7928C69.625 80.6105 73.0586 81.0193 77.138 81.0193C81.8293 81.0193 85.2629 80.1335 87.4386 78.3619C89.6143 76.5902 90.7021 74.2053 90.7021 71.2072C90.7021 69.3674 90.2942 67.8343 89.4783 66.6077C88.7304 65.3131 87.6765 64.291 86.3167 63.5414C84.9569 62.7238 83.3251 62.1786 81.4214 61.9061C79.5856 61.5654 77.6139 61.395 75.5062 61.395H69.591V49.1298H76.3221C77.8179 49.1298 79.2457 48.9936 80.6055 48.721C82.0333 48.4484 83.2911 48.0055 84.379 47.3923C85.4668 46.7109 86.3167 45.825 86.9286 44.7348C87.6085 43.5764 87.9485 42.1455 87.9485 40.442C87.9485 39.1473 87.6765 38.023 87.1326 37.0691C86.5887 36.1151 85.8748 35.3315 84.9909 34.7182C84.175 34.105 83.1891 33.6621 82.0333 33.3895C80.9455 33.0488 79.8236 32.8785 78.6678 32.8785C75.7442 32.8785 73.0246 33.3214 70.5089 34.2072C68.0612 35.093 65.8176 36.1832 63.7778 37.4779L58.3726 26.337C59.4604 25.6556 60.7183 24.9401 62.1461 24.1906C63.6419 23.4411 65.2736 22.7597 67.0414 22.1464C68.8091 21.5332 70.6789 21.0221 72.6506 20.6133C74.6903 20.2044 76.832 20 79.0757 20C83.2231 20 86.7926 20.5111 89.7842 21.5332C92.8438 22.4871 95.3595 23.884 97.3312 25.7238C99.3029 27.4954 100.765 29.6077 101.717 32.0608C102.668 34.4457 103.144 37.0691 103.144 39.9309C103.144 42.7247 102.363 45.4503 100.799 48.1077C99.2349 50.6971 97.1272 52.6731 94.4756 54.0359C98.1471 55.535 100.969 57.7836 102.94 60.7818C104.98 63.7118 106 67.2551 106 71.4116C106 74.6823 105.456 77.7146 104.368 80.5083C103.28 83.2339 101.581 85.6188 99.2689 87.663C96.9573 89.6391 93.9997 91.2063 90.3962 92.3646C86.8606 93.4549 82.6452 94 77.7499 94Z" fill="#D3DAE8"/>
<g filter="url(#filter0_d)">
<path d="M142.805 83.4341C138.02 86.7706 127.458 84.7795 127.458 86.7706C127.458 93.3853 138.689 100.004 145.693 100C153.459 100 164.025 94.4347 164.044 88.1473C164.044 85.3894 152.325 88.1473 147.679 83.4341C146.786 82.5417 142.805 83.4341 142.805 83.4341Z" fill="#C5E5F8"/>
<path d="M114.651 30.5478C114.651 30.5478 109.126 26.1619 102.997 30.5478C96.8678 34.9337 98.3466 40.3286 104.974 45.6831C112.456 51.7462 120.32 53.2037 118.869 56.446C117.972 58.473 116.958 58.926 114.219 58.6524C111.48 58.3789 118.869 62.5091 120.32 62.5091C121.771 62.5091 125.998 59.8094 125.998 56.4326C125.998 50.9973 107.689 45.5486 107.689 37.9652C107.689 33.0771 118.567 39.0684 119.711 38.5168C120.855 37.9652 114.651 30.5478 114.651 30.5478Z" fill="#C5E5F8"/>
<g filter="url(#filter1_d)">
<path d="M141.959 69.2531C141.406 72.1591 141.592 82.2089 141.764 84.4198C141.936 86.6307 143.777 88.411 145.87 88.5007C148.312 88.6039 149.916 87.2899 150.614 84.8369C151.311 82.3838 151.353 70.2442 151.665 69.706C151.976 69.1679 141.959 69.2531 141.959 69.2531Z" fill="#C5E5F8"/>
</g>
<path d="M177.279 30.5478C177.279 30.5478 182.804 26.1619 188.933 30.5478C195.063 34.9337 193.584 40.3286 186.957 45.6831C179.474 51.7462 171.61 53.2037 173.061 56.446C173.959 58.473 174.972 58.926 177.712 58.6524C180.451 58.3789 173.061 62.5091 171.61 62.5091C170.159 62.5091 165.904 59.8184 165.895 56.446C165.895 51.0108 184.204 45.562 184.204 37.9787C184.204 33.0905 173.326 39.0819 172.182 38.5303C171.038 37.9787 177.279 30.5478 177.279 30.5478Z" fill="#C5E5F8"/>
<path d="M113.214 45.4944C113.667 47.0366 114.209 48.5532 114.837 50.0372C115.214 50.9027 115.614 51.7413 116.019 52.562C118.26 53.8805 119.506 54.9747 118.86 56.4322C118.758 56.6654 118.655 56.8806 118.548 57.0645C119.6 58.7431 120.761 60.3562 122.022 61.8943C123.794 60.9122 126.003 58.8404 126.008 56.4322C126.026 52.9746 118.609 49.4946 113.214 45.4944Z" fill="#91C9D8"/>
<path d="M111.001 36.1089C114.303 36.5573 118.999 38.8714 119.73 38.5171C120.883 37.9655 114.651 30.5481 114.651 30.5481C113.276 29.5567 111.664 28.9151 109.964 28.6825C110.187 30.992 110.54 33.5437 111.001 36.1089Z" fill="#91C9D8"/>
<path d="M176.968 51.9559C177.298 51.1935 177.628 50.4177 177.94 49.6194C178.533 48.0919 179.032 46.5315 179.433 44.9465C174.005 49.1979 165.904 52.8169 165.914 56.4315C165.914 59.4316 169.341 61.9116 171.09 62.4049C172.136 60.9601 173.103 59.4631 173.987 57.9203C173.585 57.4912 173.27 56.994 173.057 56.4539C172.322 54.7587 174.071 53.5613 176.968 51.9559Z" fill="#91C9D8"/>
<path d="M172.201 38.5171C172.945 38.8759 177.814 36.4632 181.12 36.0865C181.464 33.5393 181.692 31.019 181.809 28.705C180.165 28.9533 178.61 29.5861 177.279 30.5481C177.279 30.5481 171.061 37.9655 172.201 38.5171Z" fill="#91C9D8"/>
<path d="M141.959 69.2536C141.67 70.7694 141.582 74.2314 141.591 77.5051C143.294 77.9656 145.054 78.198 146.823 78.1957C148.31 78.1936 149.792 78.0189 151.236 77.6755C151.404 73.8682 151.492 69.9891 151.664 69.6886C151.98 69.1729 141.959 69.2536 141.959 69.2536Z" fill="#91C9D8"/>
<g filter="url(#filter2_d)">
<path d="M115.154 19.3001C112.661 21.224 115.4 41.0636 119.339 50.0372C126.031 65.3295 136.258 73.8949 146.837 73.8949C157.664 73.8949 167.476 64.7779 173.475 49.6201C177.098 40.4761 178.228 23.834 176.907 19.3001C176.112 16.5735 161.756 14.0621 145.749 14.0621C128.589 14.0666 118.014 17.0982 115.154 19.3001Z" fill="#C5E5F8"/>
</g>
<path d="M146.823 73.8951C148.591 72.5386 150.268 71.0767 151.846 69.5181C153.418 67.986 154.872 66.3463 156.199 64.6121C157.506 62.9293 158.599 61.1015 159.454 59.1678C159.858 58.2355 160.169 57.2685 160.384 56.2798L160.696 54.7102C160.803 54.1855 160.91 53.6653 160.984 53.1361C161.651 48.9185 161.978 44.6573 161.961 40.391C161.961 38.2608 161.9 36.1262 161.775 34.005C161.716 32.9437 161.634 31.8853 161.528 30.8299C161.482 30.3008 161.426 29.7806 161.366 29.2559C161.305 28.7312 161.245 28.1975 161.175 27.7446L168.127 27.2244C168.127 27.8612 168.127 28.4038 168.127 28.9823C168.127 29.5608 168.099 30.1169 168.071 30.6775C168.031 31.8076 167.968 32.9302 167.881 34.0454C167.713 36.2876 167.495 38.5299 167.183 40.7363C166.607 45.1807 165.674 49.5753 164.393 53.8805C164.244 54.4187 164.058 54.9523 163.872 55.486L163.328 57.078C162.924 58.1807 162.415 59.2451 161.807 60.2576C160.614 62.2173 159.182 64.0328 157.543 65.6659C155.95 67.2673 154.24 68.757 152.427 70.1236C150.642 71.491 148.77 72.7506 146.823 73.8951Z" fill="white"/>
<path d="M165.913 18.999C174.321 19.4475 173.391 24.6899 167.746 26.4523C165.239 27.2371 155.445 29.1431 147.748 28.5825C138.336 27.9233 125.738 27.0039 122.594 24.7975C119.45 22.5911 121.25 19.6403 125.998 18.999C128.323 18.6896 135.95 17.5012 144.098 17.5191C152.585 17.5505 161.63 18.7883 165.913 18.999Z" fill="#91C9D8"/>
<path d="M125.999 19.0004C121.748 19.0004 119.604 22.3458 122.278 24.5656" stroke="#009DE3" stroke-width="2" stroke-linecap="round" stroke-linejoin="round"/>
<path d="M122.478 24.7352L122.585 24.8115C124.803 26.3676 131.714 27.2825 138.899 27.9193" stroke="#009DE3" stroke-width="2" stroke-linecap="round" stroke-linejoin="round" stroke-dasharray="18.14 8.46 3.63 12.09"/>
<path d="M141.698 28.1524C143.773 28.3183 145.823 28.4618 147.744 28.6008C155.45 29.1434 165.244 27.2555 167.741 26.4707C168.421 26.263 169.075 25.9864 169.694 25.6455" stroke="#009DE3" stroke-width="2" stroke-linecap="round" stroke-linejoin="round" stroke-dasharray="24.18 0.6 18.14 8.46 3.63 12.09"/>
<path d="M171.75 23.8251C173.01 21.807 171.55 19.511 165.914 19.0132" stroke="#009DE3" stroke-width="2" stroke-linecap="round" stroke-linejoin="round"/>
<path d="M102.997 20.6814C100.579 17.9234 90.8594 20.1343 88.2877 23.8519C85.716 27.5696 88.5714 33.6327 87.1437 34.7359C85.716 35.8391 84 37.2159 84 37.2159L87.7204 41.6287C87.1484 43.0054 93.766 40.799 93.1707 37.4939C92.5755 34.1888 90.1386 27.5696 93.5009 25.6413C96.8632 23.7129 105.443 25.3632 105.443 25.3632L102.997 20.6814Z" fill="#49CEB1"/>
<path d="M121.092 11.5816C121.092 11.5816 114.87 7.72485 108.866 7.72485C105.219 7.76045 101.725 9.14039 99.1001 11.5816C99.1001 11.5816 105.704 9.65322 107.42 11.5816C109.136 13.5099 107.992 16.2231 107.992 16.2231L121.092 11.5816Z" fill="#FFDA7E"/>
<path d="M167.174 7.72551C168.034 7.17391 171.959 -0.270446 177.428 0.00759563C182.897 0.285638 188.896 4.68498 190.612 3.86431C192.328 3.04364 194.332 1.93595 194.332 1.93595C194.332 1.93595 189.473 9.65386 187.189 7.72551C184.906 5.79715 180.534 3.61766 177.423 4.01678C174.312 4.41591 167.174 7.72551 167.174 7.72551Z" fill="#49CEB1"/>
<path d="M199.188 25.0893C200.615 27.2957 202.048 30.8878 203.187 30.7443C204.326 30.6008 205.763 34.1839 207.191 34.1839C208.619 34.1839 208.047 29.224 206.335 26.7441C204.624 24.2641 199.188 25.0893 199.188 25.0893Z" fill="#FF4F59"/>
<path d="M174.321 14.0664H185.482C185.482 14.0664 179.479 12.4161 180.767 12.1381C182.055 11.86 187.198 7.79705 185.482 8.03921C183.766 8.28138 178.549 8.55045 177.428 9.10205C176.307 9.65365 174.321 14.0664 174.321 14.0664Z" fill="#FFDA7E"/>
<path d="M130.305 1.11023C129.161 2.76053 130.589 6.39298 131.733 8.02534C132.877 9.6577 134.304 6.097 133.732 4.01619C133.16 1.93538 130.305 1.11023 130.305 1.11023Z" fill="#FF4F59"/>
<path d="M146.121 35.3634C147.404 38.0183 147.879 39.6462 148.958 42.5387C149.004 42.6865 149.093 42.8187 149.214 42.9202C149.335 43.0216 149.483 43.0884 149.641 43.1127C152.202 43.5201 154.809 43.588 157.389 43.3145C158.375 43.2293 158.812 44.0859 158.054 44.8348C155.301 47.5255 154.124 48.7857 152.12 50.7633C152.016 50.8596 151.94 50.9811 151.901 51.1152C151.861 51.2493 151.86 51.391 151.897 51.5257C152.608 53.8801 153.008 54.8802 153.641 57.4857C153.676 57.6544 153.664 57.8292 153.605 57.9918C153.546 58.1543 153.443 58.2987 153.307 58.4096C153.17 58.5206 153.005 58.5941 152.829 58.6225C152.653 58.6509 152.472 58.6331 152.306 58.5709C149.762 57.4408 148.586 56.8444 145.833 55.7636C145.692 55.7036 145.54 55.6725 145.386 55.6725C145.232 55.6725 145.08 55.7036 144.94 55.7636C142.582 56.8803 141.735 57.3601 139.41 58.275C138.768 58.5306 137.913 57.8265 138.015 57.1314C138.317 54.6694 138.331 53.7545 138.522 51.4046C138.526 51.2616 138.499 51.1194 138.442 50.9873C138.385 50.8551 138.3 50.7361 138.192 50.6378C136.132 48.6152 135.081 47.3192 132.667 45.1083C132.526 44.9903 132.425 44.8341 132.377 44.6599C132.329 44.4857 132.337 44.3017 132.399 44.1319C132.462 43.962 132.575 43.8141 132.726 43.7075C132.877 43.6009 133.057 43.5406 133.244 43.5343C136.378 43.3773 137.583 43.319 140.261 43.0365C140.417 43.0122 140.562 42.9488 140.684 42.8527C140.806 42.7567 140.899 42.6313 140.954 42.4894C142.252 39.6417 143.056 38.0048 144.368 35.3544C144.446 35.1939 144.571 35.0584 144.727 34.9638C144.883 34.8692 145.063 34.8195 145.247 34.8204C145.431 34.8214 145.611 34.873 145.766 34.9692C145.921 35.0653 146.044 35.2021 146.121 35.3634Z" fill="#FFDA7E"/>
</g>
<defs>
<filter id="filter0_d" x="84" y="0" width="128" height="100" filterUnits="userSpaceOnUse" color-interpolation-filters="sRGB">
<feFlood flood-opacity="0" result="BackgroundImageFix"/>
<feColorMatrix in="SourceAlpha" type="matrix" values="0 0 0 0 0 0 0 0 0 0 0 0 0 0 0 0 0 0 127 0"/>
<feOffset dx="4"/>
<feColorMatrix type="matrix" values="0 0 0 0 0.164706 0 0 0 0 0.184314 0 0 0 0 0.309804 0 0 0 0.08 0"/>
<feBlend mode="normal" in2="BackgroundImageFix" result="effect1_dropShadow"/>
<feBlend mode="normal" in="SourceGraphic" in2="effect1_dropShadow" result="shape"/>
</filter>
<filter id="filter1_d" x="121.589" y="53.2482" width="50.0824" height="59.2582" filterUnits="userSpaceOnUse" color-interpolation-filters="sRGB">
<feFlood flood-opacity="0" result="BackgroundImageFix"/>
<feColorMatrix in="SourceAlpha" type="matrix" values="0 0 0 0 0 0 0 0 0 0 0 0 0 0 0 0 0 0 127 0"/>
<feOffset dy="4"/>
<feGaussianBlur stdDeviation="10"/>
<feColorMatrix type="matrix" values="0 0 0 0 0.666667 0 0 0 0 0.741176 0 0 0 0 0.772549 0 0 0 0.6 0"/>
<feBlend mode="normal" in2="BackgroundImageFix" result="effect1_dropShadow"/>
<feBlend mode="normal" in="SourceGraphic" in2="effect1_dropShadow" result="shape"/>
</filter>
<filter id="filter2_d" x="104.199" y="4.06213" width="83.2411" height="79.8328" filterUnits="userSpaceOnUse" color-interpolation-filters="sRGB">
<feFlood flood-opacity="0" result="BackgroundImageFix"/>
<feColorMatrix in="SourceAlpha" type="matrix" values="0 0 0 0 0 0 0 0 0 0 0 0 0 0 0 0 0 0 127 0"/>
<feOffset/>
<feGaussianBlur stdDeviation="5"/>
<feColorMatrix type="matrix" values="0 0 0 0 0.768627 0 0 0 0 0.768627 0 0 0 0 0.768627 0 0 0 0.3 0"/>
<feBlend mode="normal" in2="BackgroundImageFix" result="effect1_dropShadow"/>
<feBlend mode="normal" in="SourceGraphic" in2="effect1_dropShadow" result="shape"/>
</filter>
</defs>
</svg>
