<svg width="102" height="102" viewBox="0 0 102 102" fill="none" xmlns="http://www.w3.org/2000/svg">
<g filter="url(#filter0_d)">
<circle cx="51" cy="51" r="35" fill="white"/>
<circle cx="51" cy="51" r="29" fill="#6E46FF"/>
<path d="M42.8989 43.0457C40.4026 46.442 38.657 49.6724 37.9887 51.0988C37.803 51.4951 37.3994 51.7424 36.9619 51.7287L35.8616 51.6945C33.2174 51.6134 32.0079 48.3444 33.969 46.5621L38.0278 42.8713C39.1322 41.8676 40.547 41.325 41.9927 41.3013C42.8997 41.2864 43.4362 42.3147 42.8989 43.0457ZM59.6984 59.0083C59.7134 58.0982 58.6821 57.5662 57.949 58.1055C54.5059 60.6383 51.3021 62.3516 49.9034 63.0085C49.5066 63.1949 49.2575 63.5982 49.2712 64.0364L49.3055 65.1386C49.3867 67.7865 52.6585 68.9899 54.4378 67.0313L58.1285 62.9724C59.132 61.8682 59.6745 60.4537 59.6984 59.0083ZM36.2353 59.6516L37.6555 58.2313C38.0839 57.8029 38.0839 57.1085 37.6555 56.6802C37.2272 56.2519 36.5328 56.2519 36.1045 56.6802L34.6842 58.1005C33.991 58.7936 34.4916 59.9728 35.4597 59.9728C35.7405 59.9729 36.0211 59.8657 36.2353 59.6516ZM42.9542 66.3706L44.3744 64.9503C44.8027 64.522 44.8027 63.8275 44.3744 63.3992C43.9461 62.9708 43.2517 62.9709 42.8233 63.3992L41.4031 64.8195C40.71 65.5127 41.2106 66.6918 42.1787 66.6918C42.4593 66.6918 42.74 66.5848 42.9542 66.3706ZM37.1562 65.3951L41.9787 60.5725C42.407 60.1442 42.407 59.4497 41.9787 59.0214C41.5504 58.5931 40.856 58.5931 40.4276 59.0214L35.6051 63.844C34.9119 64.5372 35.4125 65.7164 36.3806 65.7164C36.6613 65.7164 36.942 65.6093 37.1562 65.3951ZM60.0533 54.7299C58.47 56.0869 56.8397 57.3043 55.136 58.4135C54.75 58.6648 54.2402 58.6097 53.9145 58.284L42.716 47.0854C42.3903 46.7597 42.3353 46.2498 42.5866 45.8638C43.8032 43.9949 45.0149 42.4116 46.3647 40.8368C50.9309 35.5472 57.9698 33.0673 64.8579 34.3197L65.6531 34.4636C66.1021 34.5452 66.4544 34.8976 66.536 35.3466L66.6799 36.1418C67.8844 42.7588 65.6925 49.865 60.0533 54.7299ZM59.0765 41.9233C57.2332 40.0799 54.2341 40.0799 52.3908 41.9233C50.5469 43.7666 50.5469 46.7664 52.3908 48.609C54.2326 50.4521 57.2324 50.453 59.0765 48.609C60.9197 46.7664 60.9197 43.7666 59.0765 41.9233ZM41.9264 49.398C41.4626 48.9342 40.6795 49.0486 40.3741 49.629C40.1642 50.028 39.9663 50.4164 39.7675 50.8219C39.097 52.1865 39.3689 53.8332 40.4502 54.9137L46.0864 60.5499C46.7718 61.2354 47.6849 61.5967 48.611 61.5967C49.5813 61.5967 50.1542 61.2662 51.371 60.626C51.9513 60.3206 52.0657 59.5375 51.602 59.0737L41.9264 49.398Z" fill="white"/>
</g>
<defs>
<filter id="filter0_d" x="0" y="0" width="102" height="102" filterUnits="userSpaceOnUse" color-interpolation-filters="sRGB">
<feFlood flood-opacity="0" result="BackgroundImageFix"/>
<feColorMatrix in="SourceAlpha" type="matrix" values="0 0 0 0 0 0 0 0 0 0 0 0 0 0 0 0 0 0 127 0"/>
<feOffset/>
<feGaussianBlur stdDeviation="8"/>
<feColorMatrix type="matrix" values="0 0 0 0 0 0 0 0 0 0 0 0 0 0 0 0 0 0 0.16 0"/>
<feBlend mode="multiply" in2="BackgroundImageFix" result="effect1_dropShadow"/>
<feBlend mode="normal" in="SourceGraphic" in2="effect1_dropShadow" result="shape"/>
</filter>
</defs>
</svg>
