<svg width="22" height="22" viewBox="0 0 22 22" fill="none" xmlns="http://www.w3.org/2000/svg">
<path fill-rule="evenodd" clip-rule="evenodd" d="M19.8578 12.198C19.8928 9.2454 18.5218 6.03024 15.6447 3.92465C12.7703 1.82099 10.3831 1.86966 8.42483 2.64167C6.36628 3.45322 4.68756 5.10077 3.40587 6.41354C3.20275 6.62154 2.93627 6.72911 2.66763 6.73557C1.63169 10.2163 2.17178 13.7587 3.88164 16.2629C4.97015 17.8572 6.53449 19.0404 8.50232 19.5576C10.473 20.0756 12.9278 19.9455 15.8153 18.768C18.3992 17.7142 19.8227 15.1534 19.8578 12.198ZM3.99836 2.89533C3.91347 2.67891 3.7585 2.48843 3.54337 2.36177C3.03302 2.06135 2.37708 2.23381 2.0783 2.74697C-0.806704 7.70203 -0.588486 13.5206 2.11606 17.4817C3.47544 19.4727 5.46087 20.984 7.96069 21.641C10.4577 22.2973 13.3884 22.0815 16.6202 20.7634C20.1802 19.3116 21.9563 15.8372 21.9992 12.2237C22.0421 8.60723 20.3697 4.71934 16.905 2.18364C13.4376 -0.354048 10.2801 -0.402704 7.64315 0.636899C6.24849 1.18672 5.02603 2.03142 3.99836 2.89533Z" fill="#6E46FF"/>
<path d="M15.5957 15.3906C15.5957 15.7305 15.4843 16.0058 15.2617 16.2168C15.039 16.4277 14.7695 16.5625 14.4531 16.6211C14.1015 16.7031 13.7031 16.7793 13.2578 16.8496C12.8125 16.9082 12.3554 16.9609 11.8867 17.0078C11.4296 17.0547 10.9785 17.0898 10.5332 17.1133C10.0878 17.1367 9.6836 17.1484 9.3203 17.1484C9.2265 17.1484 9.0918 17.1426 8.916 17.1308C8.7519 17.1308 8.5761 17.1191 8.3886 17.0957C8.2128 17.084 8.0429 17.0605 7.8789 17.0254C7.7265 16.9902 7.6093 16.9433 7.5273 16.8848C7.4453 16.8144 7.3691 16.7207 7.2988 16.6035C7.2402 16.4746 7.1875 16.3398 7.1406 16.1992C7.0937 16.0469 7.0586 15.9004 7.0351 15.7598C7.0117 15.6191 7 15.4961 7 15.3906C7 15.2266 7.0175 15.0801 7.0527 14.9512C7.0996 14.8105 7.1816 14.6816 7.2988 14.5644C7.4394 14.4121 7.5859 14.2656 7.7382 14.125C7.8906 13.9726 8.0371 13.8262 8.1777 13.6855C8.3418 13.5098 8.5586 13.2812 8.8281 13C9.0976 12.707 9.3847 12.3848 9.6894 12.0332C10.0058 11.6699 10.3164 11.2949 10.6211 10.9082C10.9375 10.5098 11.2246 10.123 11.4824 9.74801C11.7402 9.37301 11.9453 9.02151 12.0976 8.69331C12.2617 8.36521 12.3437 8.08401 12.3437 7.84961C12.3437 7.62691 12.2793 7.44531 12.1503 7.30471C12.0214 7.15231 11.8457 7.07621 11.623 7.07621C11.3769 7.07621 11.1484 7.16401 10.9375 7.33981C10.7265 7.51561 10.5156 7.70901 10.3046 7.91991C10.0937 8.11911 9.8652 8.30661 9.6191 8.48241C9.3847 8.65821 9.1152 8.74611 8.8105 8.74611C8.4472 8.74611 8.1601 8.64061 7.9492 8.42971C7.75 8.21871 7.6503 7.93751 7.6503 7.58591C7.6503 7.07031 7.7617 6.59571 7.9843 6.16211C8.2187 5.71681 8.5234 5.33591 8.8984 5.01951C9.2734 4.70311 9.6953 4.45701 10.164 4.28121C10.6328 4.09371 11.1132 4 11.6054 4C12.1093 4 12.5781 4.05861 13.0117 4.17581C13.4453 4.29301 13.8203 4.47461 14.1367 4.72071C14.4531 4.96681 14.6992 5.28321 14.875 5.66991C15.0625 6.04491 15.1562 6.50191 15.1562 7.04101C15.1562 7.46291 15.08 7.90821 14.9277 8.37691C14.7871 8.83401 14.5937 9.29691 14.3476 9.76561C14.1132 10.2344 13.8378 10.7031 13.5214 11.1719C13.2168 11.6289 12.9003 12.0683 12.5722 12.4902C12.2441 12.9121 11.916 13.3047 11.5878 13.668C11.2597 14.0312 10.9609 14.3476 10.6914 14.6172C11.2656 14.5469 11.8691 14.4766 12.5019 14.4062C13.1347 14.3359 13.7441 14.3008 14.33 14.3008C14.6699 14.3008 14.9628 14.3945 15.2089 14.582C15.4668 14.7578 15.5957 15.0273 15.5957 15.3906Z" fill="#6E46FF"/>
</svg>
