<svg width="22" height="22" viewBox="0 0 22 22" fill="none" xmlns="http://www.w3.org/2000/svg">
<path fill-rule="evenodd" clip-rule="evenodd" d="M16.8157 4.5134C14.559 2.60142 11.4686 1.70552 8.64635 2.47117C5.9765 3.19547 4.3642 5.68498 3.67307 8.53024C3.33085 9.93918 3.23453 11.3724 3.34114 12.5937C3.45071 13.8486 3.7609 14.7382 4.1049 15.1876C4.46258 15.6549 4.40248 16.3475 3.97064 16.7347C3.95289 16.7506 3.93479 16.7657 3.91636 16.7801C6.02062 18.9075 8.93876 19.9521 11.7475 19.7856C15.5749 19.5586 19.0364 17.1037 19.8609 12.196C20.3615 9.21633 19.0657 6.41982 16.8157 4.5134ZM1.38227 13.3657C1.1248 13.2579 0.827853 13.2634 0.561458 13.4076C0.0599316 13.6789 -0.143358 14.3389 0.10741 14.8817C2.39331 19.829 7.31032 22.2494 11.8586 21.9797C16.4536 21.7072 20.8374 18.6685 21.8588 12.5891C22.526 8.61773 20.7569 5.062 18.0674 2.78322C15.3846 0.510057 11.6609 -0.612081 8.15255 0.339708C4.49171 1.33286 2.50433 4.69815 1.7092 7.97159C1.30829 9.62215 1.18983 11.3144 1.31957 12.8003C1.33613 12.99 1.35696 13.1788 1.38227 13.3657Z" fill="#6E46FF"/>
<path d="M16.233 10.9414C16.233 11.2461 16.151 11.4863 15.9869 11.6621C15.8229 11.8379 15.6002 11.9551 15.319 12.0137C14.7682 12.1426 14.2291 12.2305 13.7018 12.2773C13.6549 12.7344 13.6139 13.1914 13.5787 13.6484C13.5436 14.0937 13.5084 14.5391 13.4732 14.9844C13.4498 15.1953 13.4264 15.4883 13.4029 15.8633C13.3795 16.2266 13.3209 16.584 13.2272 16.9355C13.1451 17.2871 13.0162 17.5977 12.8404 17.8672C12.6764 18.125 12.4479 18.2539 12.1549 18.2539C11.8736 18.2539 11.651 18.1309 11.4869 17.8848C11.3346 17.6387 11.2174 17.3516 11.1354 17.0234C11.0533 16.6953 11.0006 16.3672 10.9772 16.0391C10.9537 15.6992 10.942 15.4355 10.942 15.248C10.942 14.7676 10.9537 14.2988 10.9772 13.8418C11.0123 13.373 11.0416 12.9043 11.065 12.4355C10.7604 12.459 10.4557 12.4766 10.151 12.4883C9.84629 12.4883 9.54159 12.4883 9.23689 12.4883C9.09629 12.4883 8.92049 12.4883 8.70959 12.4883C8.49859 12.4766 8.28769 12.459 8.07679 12.4355C7.86579 12.4121 7.66659 12.3711 7.47909 12.3125C7.30329 12.2422 7.17439 12.1426 7.09239 12.0137C7.03379 11.9316 6.98689 11.791 6.95179 11.5918C6.92829 11.3809 6.90489 11.1582 6.88139 10.9238C6.86969 10.6777 6.86389 10.4434 6.86389 10.2207C6.86389 9.998 6.86389 9.834 6.86389 9.7285C6.86389 9.459 6.86389 9.1953 6.86389 8.9375C6.86389 8.6797 6.87559 8.416 6.89899 8.1465C6.91069 7.8887 6.92249 7.584 6.93419 7.2324C6.95759 6.8691 7.01619 6.5234 7.10999 6.1953C7.21539 5.8672 7.36189 5.5859 7.54939 5.35156C7.74859 5.11719 8.02989 5 8.39319 5C8.61579 5 8.79159 5.10547 8.92049 5.31641C9.06109 5.5273 9.16659 5.7734 9.23689 6.0547C9.31899 6.3359 9.37169 6.623 9.39509 6.916C9.41859 7.1973 9.43029 7.4141 9.43029 7.5664C9.43029 7.918 9.41269 8.2695 9.37749 8.6211C9.35409 8.9727 9.31309 9.3184 9.25449 9.6582C9.59429 9.6348 9.92829 9.6172 10.2564 9.6055C10.5963 9.582 10.9361 9.5586 11.276 9.5352C11.2877 9.418 11.3053 9.1836 11.3287 8.832C11.3639 8.4687 11.4049 8.0879 11.4518 7.6895C11.4986 7.2793 11.5455 6.8984 11.5924 6.5469C11.6393 6.1953 11.6861 5.9668 11.733 5.8613C11.8268 5.6387 11.9732 5.45703 12.1725 5.31641C12.3717 5.16406 12.6002 5.08789 12.858 5.08789C13.1627 5.08789 13.3795 5.18164 13.5084 5.36914C13.6373 5.5566 13.7252 5.7793 13.7721 6.0371C13.8307 6.3652 13.8658 6.7051 13.8775 7.0566C13.8893 7.4082 13.8951 7.7539 13.8951 8.0937C13.8951 8.5977 13.8775 9.1016 13.8424 9.6055C14.1002 9.6289 14.3522 9.6582 14.5982 9.6934C14.8443 9.7285 15.0963 9.7754 15.3541 9.834C15.6354 9.8926 15.8522 10.0215 16.0045 10.2207C16.1568 10.4199 16.233 10.6602 16.233 10.9414Z" fill="#6E46FF"/>
</svg>
