<svg width="22" height="24" viewBox="0 0 22 24" fill="none" xmlns="http://www.w3.org/2000/svg">
<path fill-rule="evenodd" clip-rule="evenodd" d="M4.87826 19.949C6.73563 21.4066 9.5114 22.035 12.7963 21.5433C15.821 21.0906 17.6464 19.0787 18.5231 16.7823C18.965 15.6247 19.1561 14.4123 19.1289 13.331C19.1014 12.2341 18.8528 11.3587 18.5043 10.811C18.1692 10.2843 18.3051 9.57265 18.8076 9.22153C19.3103 8.87041 19.9894 9.01273 20.3245 9.53942C20.9704 10.5545 21.2811 11.8931 21.3157 13.2707C21.3507 14.6639 21.1067 16.1866 20.5542 17.6337C19.4421 20.5468 17.0415 23.2234 13.1056 23.8125C9.42986 24.3626 6.01769 23.707 3.56684 21.7837C1.07336 19.8268 -0.261878 16.684 0.0428654 12.6725C0.633777 4.89403 4.9141 0.745207 9.80643 0.0908908C14.594 -0.549412 19.7322 2.21685 21.914 7.64648C22.1484 8.22985 21.8871 8.90188 21.3303 9.14756C20.7736 9.39313 20.1322 9.11942 19.8979 8.53606C18.1022 4.06759 13.9099 1.85287 10.0834 2.36464C6.36165 2.86239 2.74438 5.99872 2.22357 12.8544C1.97022 16.1895 3.06352 18.5248 4.87826 19.949Z" fill="#6E46FF"/>
<path d="M14.7695 14.1879C14.7695 14.8441 14.6406 15.4476 14.3828 15.9984C14.125 16.5492 13.7793 17.0297 13.3457 17.4398C12.9121 17.8383 12.4082 18.1488 11.834 18.3715C11.2598 18.6058 10.6621 18.723 10.041 18.723C9.8066 18.723 9.5137 18.6996 9.1621 18.6527C8.8223 18.6176 8.4941 18.5414 8.1777 18.4242C7.8613 18.307 7.5918 18.1488 7.3691 17.9496C7.1465 17.7504 7.0351 17.4926 7.0351 17.1762C7.0351 16.8363 7.123 16.5726 7.2988 16.3851C7.4863 16.1976 7.75 16.1039 8.0898 16.1039C8.4297 16.1039 8.7578 16.139 9.0742 16.2094C9.4023 16.268 9.7363 16.2972 10.0762 16.2972C10.334 16.2972 10.5918 16.2562 10.8496 16.1742C11.1074 16.0922 11.3359 15.975 11.5351 15.8226C11.7461 15.6586 11.916 15.4711 12.0449 15.2601C12.1738 15.0375 12.2383 14.7855 12.2383 14.5043C12.2383 14.3519 12.209 14.1644 12.1504 13.9418C12.0918 13.7191 12.0098 13.514 11.9043 13.3265C11.7988 13.1273 11.6699 12.9574 11.5176 12.8168C11.3652 12.6762 11.1953 12.6058 11.0078 12.6058C10.832 12.6058 10.6562 12.6351 10.4805 12.6937C10.3164 12.7523 10.1406 12.8168 9.9531 12.8871C9.7773 12.9457 9.5957 13.0043 9.4082 13.0629C9.2207 13.1215 9.0273 13.1508 8.8281 13.1508C8.5703 13.1508 8.3769 13.0453 8.248 12.8344C8.1308 12.6117 8.0723 12.3949 8.0723 12.184C8.0723 11.6918 8.2949 11.3578 8.7402 11.182C8.9746 11.0883 9.2676 10.9652 9.6191 10.8129C9.9824 10.6488 10.334 10.4613 10.6738 10.2504C11.0137 10.0394 11.3066 9.80509 11.5527 9.54719C11.7988 9.27769 11.9219 8.99059 11.9219 8.68589C11.9219 8.45149 11.8281 8.22299 11.6406 8.00039C11.4531 7.77769 11.2305 7.66639 10.9726 7.66639C10.7148 7.66639 10.4746 7.73669 10.2519 7.87729C10.0293 8.01799 9.8066 8.17619 9.584 8.35189C9.373 8.51599 9.1504 8.66829 8.916 8.80899C8.6933 8.94959 8.4531 9.01989 8.1953 9.01989C8.0664 9.01989 7.9316 8.99649 7.791 8.94959C7.6504 8.89099 7.5215 8.82069 7.4043 8.73869C7.2871 8.64489 7.1875 8.53359 7.1055 8.40469C7.0351 8.27579 7 8.14099 7 8.00039C7 7.83629 7.0351 7.66639 7.1055 7.49059C7.1758 7.31479 7.2578 7.16249 7.3516 7.03359C7.75 6.42419 8.2773 5.96716 8.9336 5.66247C9.6016 5.35779 10.2871 5.20544 10.9902 5.20544C12.0683 5.20544 12.9238 5.49841 13.5566 6.08435C14.2012 6.67029 14.5234 7.49649 14.5234 8.56289C14.5234 9.19569 14.3887 9.75229 14.1191 10.2328C13.8613 10.7133 13.416 11.059 12.7832 11.2699C13.123 11.3402 13.416 11.475 13.6621 11.6742C13.9199 11.8617 14.1308 12.0902 14.2949 12.3598C14.459 12.6293 14.5762 12.9222 14.6465 13.2387C14.7285 13.5551 14.7695 13.8715 14.7695 14.1879Z" fill="#6E46FF"/>
</svg>
