<svg width="22" height="24" viewBox="0 0 22 24" fill="none" xmlns="http://www.w3.org/2000/svg">
<path fill-rule="evenodd" clip-rule="evenodd" d="M16.4211 20.3474C18.4092 19.036 19.8198 16.6514 19.8198 12.5723C19.8197 8.59169 18.1406 6.17977 16.0592 4.66184C13.9229 3.10378 11.3123 2.45935 9.51888 2.21398C8.92222 2.13233 8.5034 1.57277 8.58344 0.964158C8.66349 0.355547 9.21207 -0.071642 9.80884 0.0100007C11.766 0.277808 14.7784 0.993955 17.3274 2.85297C19.9314 4.75212 21.9999 7.81377 22 12.5723C22 17.2324 20.3448 20.4076 17.605 22.2147C14.9317 23.978 11.4311 24.2999 7.96646 23.765C2.93551 22.9884 0.00155946 18.0567 6.32032e-07 13.331C-0.000791169 10.9283 0.742353 8.48084 2.40695 6.52104C4.07966 4.55167 6.61307 3.15669 10.0418 2.74402C10.6398 2.67206 11.1817 3.10809 11.2522 3.71793C11.3228 4.32775 10.8953 4.88045 10.2973 4.95241C7.33026 5.30951 5.32318 6.48371 4.05476 7.9771C2.7782 9.48001 2.17954 11.389 2.18018 13.3303C2.18149 17.2925 4.6234 20.9999 8.29272 21.5663C11.4768 22.0578 14.3665 21.7026 16.4211 20.3474Z" fill="#6E46FF"/>
<path d="M12.4676 11.2458C12.4676 11.613 12.4618 11.9802 12.4502 12.3474C12.4386 12.7146 12.4269 13.0818 12.4153 13.4489C12.3921 14.0531 12.3805 14.6572 12.3805 15.2613C12.3805 15.8536 12.3631 16.4517 12.3282 17.0558C12.3166 17.2571 12.305 17.5297 12.2934 17.8731C12.2818 18.2048 12.2353 18.5364 12.1541 18.8681C12.0843 19.1879 11.9682 19.4722 11.8056 19.7209C11.643 19.9578 11.4166 20.0763 11.1262 20.0763C10.8475 20.0763 10.6211 19.9815 10.4469 19.792C10.2727 19.5906 10.1333 19.3419 10.0288 19.0458C9.93593 18.7378 9.87201 18.4002 9.83722 18.033C9.80234 17.654 9.77915 17.2868 9.76746 16.9315C9.76746 16.5643 9.77331 16.2267 9.7849 15.9187C9.79649 15.6107 9.80234 15.3738 9.80234 15.208C9.80234 14.4025 9.80234 13.597 9.80234 12.7916C9.81394 11.9861 9.82553 11.1806 9.83722 10.3751C9.60494 10.1738 9.41913 9.93101 9.27979 9.64668C9.15205 9.35062 9.08813 9.04853 9.08813 8.74056C9.08813 8.25491 9.22747 7.84034 9.50623 7.49682C9.79649 7.15332 10.1914 6.98157 10.6908 6.98157C11.1205 6.98157 11.4572 7.1474 11.7011 7.47905C11.945 7.81072 12.1192 8.20753 12.2237 8.66949C12.3399 9.13145 12.4095 9.60524 12.4327 10.0909C12.4559 10.5647 12.4676 10.9497 12.4676 11.2458Z" fill="#6E46FF"/>
</svg>
