<svg  viewBox="0 0 52 52" fill="none" xmlns="http://www.w3.org/2000/svg">
<g filter="url(#filter0_d)">
<path d="M26 42C35.9411 42 44 33.9411 44 24C44 14.0589 35.9411 6 26 6C16.0589 6 8 14.0589 8 24C8 33.9411 16.0589 42 26 42Z" fill="#FFCC5E"/>
<path d="M26 42C35.9411 42 44 33.9411 44 24C44 14.0589 35.9411 6 26 6C16.0589 6 8 14.0589 8 24C8 33.9411 16.0589 42 26 42Z" fill="url(#paint0_linear)"/>
<path d="M26 42C35.9411 42 44 33.9411 44 24C44 14.0589 35.9411 6 26 6C16.0589 6 8 14.0589 8 24C8 33.9411 16.0589 42 26 42Z" fill="url(#paint1_linear)"/>
<path d="M26 39C34.2843 39 41 32.2843 41 24C41 15.7157 34.2843 9 26 9C17.7157 9 11 15.7157 11 24C11 32.2843 17.7157 39 26 39Z" fill="#FBFCFF"/>
<path d="M26 39C34.2843 39 41 32.2843 41 24C41 15.7157 34.2843 9 26 9C17.7157 9 11 15.7157 11 24C11 32.2843 17.7157 39 26 39Z" fill="url(#paint2_radial)" style="mix-blend-mode:multiply"/>
<path d="M26 39C34.2843 39 41 32.2843 41 24C41 15.7157 34.2843 9 26 9C17.7157 9 11 15.7157 11 24C11 32.2843 17.7157 39 26 39Z" fill="url(#paint3_radial)" fill-opacity="0.14"/>
<g filter="url(#filter1_d)">
<path d="M35.4556 23.5031C35.4556 26.304 32.3001 28.9021 25.6931 28.5696C19.3077 28.253 15.9321 26.3008 15.9321 23.5031C15.9321 20.8115 20.302 15.0215 25.6931 15.0215C31.0841 15.0215 35.4556 20.8163 35.4556 23.5031Z" fill="#49CEB1"/>
<path d="M18.2105 24.3028C17.7356 23.212 20.8705 19.5007 21.8093 18.5935C22.7482 17.6863 28.4195 17.8272 29.3584 18.5935C30.2973 19.3598 33.0443 23.2563 32.7609 23.9593C32.3698 24.9298 30.4921 26.3041 25.72 26.3041C22.2748 26.3041 18.4765 24.9203 18.2105 24.3028Z" fill="#6740A0"/>
<path d="M26.5306 16.4229C26.9357 16.445 27.3385 16.4979 27.7355 16.5812C27.9318 16.6318 28.1345 16.673 28.3261 16.7395C28.4242 16.7728 28.5224 16.8013 28.619 16.8361L28.9056 16.9501C29.6672 17.2716 30.3802 17.698 31.024 18.2167C31.6689 18.7329 32.27 19.3017 32.821 19.9172C33.3714 20.5301 33.8903 21.1706 34.3758 21.8361L33.4607 22.433C33.0685 21.7461 32.6415 21.0798 32.1814 20.4365C31.7253 19.7925 31.2164 19.1877 30.6598 18.6284C30.1042 18.0679 29.4726 17.5883 28.7836 17.2034L28.5177 17.0577C28.4306 17.0134 28.3387 16.9754 28.2485 16.9327C28.0696 16.8456 27.8796 16.7854 27.6928 16.7126C27.3133 16.5867 26.9248 16.4898 26.5306 16.4229Z" fill="#BAECE1"/>
<path d="M24.9711 10.9019C24.6943 11.1252 24.4926 11.4279 24.393 11.7692C24.2934 12.1106 24.3006 12.4743 24.4138 12.8114C24.5269 13.1485 24.7405 13.4429 25.0259 13.655C25.3113 13.8671 25.6548 13.9868 26.0102 13.9979C26.3656 14.0091 26.716 13.9112 27.0141 13.7174C27.3122 13.5236 27.5439 13.2431 27.6779 12.9138C27.812 12.5844 27.842 12.2219 27.764 11.875C27.686 11.5281 27.5036 11.2134 27.2415 10.9731C27.2415 10.9731 26.5175 10.5001 26 10.5C25.5 10.5 25.1318 10.7722 24.9711 10.9019Z" fill="#49CEB1"/>
<path d="M26.0651 29.1191C22.8494 29.1191 20.2722 29.3523 20.2722 31.3844C20.2722 32.6994 22.7998 36.4745 26.4014 36.4745C29.2621 36.4745 31.7849 32.8933 31.6361 31.3844C31.2457 29.4593 29.17 29.234 26.0651 29.1191Z" fill="#49CEB1"/>
<path d="M26.6794 13.5254H25.4508V15.8196H26.6794V13.5254Z" fill="#49CEB1"/>
<path d="M22.1322 20.4411C21.4688 21.179 21.6667 23.3591 22.5201 22.919C23.9751 22.1685 23.3228 19.1159 22.1322 20.4411Z" fill="#F2F5FE"/>
<path d="M25.8836 31.9847C28.4358 31.9847 30.5047 31.4212 30.5047 30.726C30.5047 30.0308 28.4358 29.4673 25.8836 29.4673C23.3315 29.4673 21.2626 30.0308 21.2626 30.726C21.2626 31.4212 23.3315 31.9847 25.8836 31.9847Z" fill="#3E9D9A"/>
<path d="M28.505 20.6076C29.1811 21.3327 29.0259 23.5161 28.1631 23.0933C26.6953 22.3729 27.2891 19.3061 28.505 20.6076Z" fill="#F2F5FE"/>
<path d="M25.3985 27.0925L24.2427 28.7961C24.1966 28.8648 24.1344 28.9211 24.0616 28.9603C23.9888 28.9995 23.9075 29.0203 23.8248 29.0209L21.7665 29.0399C21.6715 29.0407 21.5787 29.0681 21.4985 29.1189C21.4183 29.1698 21.354 29.242 21.3128 29.3276C21.2716 29.4131 21.2552 29.5085 21.2654 29.6029C21.2756 29.6973 21.3121 29.7869 21.3707 29.8616L22.6373 31.4813C22.6881 31.5463 22.7223 31.6226 22.7369 31.7037C22.7515 31.7848 22.7461 31.8683 22.7212 31.9468L22.1053 33.9069C22.0765 33.9977 22.0737 34.0947 22.0972 34.187C22.1207 34.2793 22.1696 34.3631 22.2383 34.4291C22.307 34.495 22.3929 34.5403 22.486 34.56C22.5792 34.5796 22.676 34.5728 22.7655 34.5402L24.6956 33.8373C24.7934 33.8025 24.8997 33.7992 24.9995 33.8278L25.826 26.8692C25.7418 26.8676 25.6584 26.8871 25.5837 26.9262C25.509 26.9652 25.4453 27.0224 25.3985 27.0925Z" fill="#FFB243"/>
<path d="M29.2728 30.0579L27.2985 29.4911C27.2189 29.4687 27.1462 29.4271 27.0865 29.3699C27.0269 29.3128 26.9822 29.2418 26.9565 29.1633L26.301 27.2159C26.2681 27.1156 26.2046 27.0282 26.1194 26.966C26.0341 26.9037 25.9315 26.8699 25.826 26.8691L25.0074 33.8261C25.0641 33.8415 25.1177 33.8667 25.1658 33.9005L26.8377 35.0911C26.9151 35.1464 27.0065 35.179 27.1015 35.1851C27.1964 35.1912 27.2912 35.1706 27.3751 35.1256C27.4589 35.0806 27.5285 35.0131 27.576 34.9306C27.6234 34.8481 27.6469 34.754 27.6436 34.6589L27.5708 32.6006C27.5681 32.5181 27.5855 32.4361 27.6213 32.3617C27.6571 32.2872 27.7104 32.2226 27.7766 32.1731L29.428 30.9508C29.5026 30.8943 29.5603 30.8184 29.5946 30.7313C29.6289 30.6442 29.6386 30.5493 29.6226 30.4571C29.6065 30.3648 29.5654 30.2788 29.5037 30.2084C29.442 30.1379 29.3621 30.0859 29.2728 30.0579Z" fill="#F9CB58"/>
<path d="M34.1003 29.8872C34.1362 29.8549 34.1624 29.8133 34.176 29.767C34.1896 29.7207 34.19 29.6715 34.1772 29.6249C34.1643 29.5784 34.1388 29.5364 34.1034 29.5035C34.068 29.4707 34.0241 29.4484 33.9768 29.4391L32.9508 29.2396C32.9098 29.2316 32.8714 29.2136 32.8389 29.1874C32.8063 29.1612 32.7806 29.1275 32.764 29.0892L32.346 28.1313C32.3212 28.075 32.2772 28.0293 32.2217 28.0026C32.1662 27.9759 32.1031 27.9699 32.0436 27.9857V31.556C32.0534 31.5595 32.0629 31.5638 32.0721 31.5686L32.973 32.0975C33.0146 32.1222 33.0623 32.1348 33.1107 32.1337C33.1591 32.1326 33.2062 32.1179 33.2467 32.0913C33.2871 32.0648 33.3193 32.0273 33.3395 31.9833C33.3597 31.9393 33.3671 31.8906 33.3609 31.8425L33.2326 30.8055C33.228 30.7637 33.2333 30.7214 33.2481 30.682C33.263 30.6426 33.287 30.6074 33.3181 30.5791L34.1003 29.8872Z" fill="#F9CB58"/>
<path d="M31.8822 28.1104L31.3755 29.024C31.3552 29.0605 31.3262 29.0916 31.2912 29.1145C31.2562 29.1374 31.2161 29.1514 31.1744 29.1554L30.1342 29.2567C30.0866 29.2625 30.0414 29.2813 30.0039 29.3112C29.9663 29.341 29.9377 29.3807 29.9213 29.4258C29.9049 29.4709 29.9013 29.5197 29.9109 29.5667C29.9206 29.6137 29.9431 29.6571 29.9759 29.6921L30.6899 30.4553C30.7184 30.4861 30.7391 30.5234 30.7501 30.5639C30.7611 30.6044 30.7622 30.647 30.7533 30.688L30.5285 31.7076C30.5181 31.7549 30.5211 31.804 30.5372 31.8496C30.5533 31.8952 30.5818 31.9354 30.6194 31.9657C30.6571 31.996 30.7025 32.0151 30.7505 32.021C30.7985 32.0269 30.8471 32.0193 30.891 31.999L31.841 31.5572C31.8743 31.542 31.9105 31.5341 31.9471 31.5341C31.9837 31.5341 32.0199 31.542 32.0532 31.5572V27.9854C32.0172 27.9922 31.9831 28.007 31.9536 28.0286C31.924 28.0503 31.8996 28.0782 31.8822 28.1104Z" fill="#FFB243"/>
<path d="M17.5518 27.8254L17.5233 28.8688C17.5225 28.9108 17.5114 28.952 17.491 28.9887C17.4706 29.0254 17.4414 29.0566 17.4061 29.0794L16.5306 29.6478C16.49 29.6741 16.4575 29.7113 16.4369 29.7551C16.4163 29.7989 16.4084 29.8476 16.414 29.8957C16.4196 29.9437 16.4385 29.9893 16.4686 30.0272C16.4987 30.0651 16.5388 30.0938 16.5844 30.1101L17.5692 30.4584C17.6079 30.4731 17.6425 30.4969 17.67 30.5278C17.6976 30.5587 17.7173 30.5957 17.7275 30.6358L17.9983 31.6443C18.0108 31.691 18.0361 31.7333 18.0714 31.7664C18.1066 31.7995 18.1504 31.822 18.1978 31.8316C18.2452 31.8411 18.2943 31.8373 18.3396 31.8204C18.3849 31.8035 18.4246 31.7744 18.4543 31.7362L19.0876 30.9065C19.1113 30.8769 19.1409 30.8526 19.1747 30.8353L17.6674 27.6133C17.6321 27.6363 17.603 27.6678 17.5829 27.7048C17.5627 27.7418 17.552 27.7833 17.5518 27.8254Z" fill="#FFB243"/>
<path d="M20.5855 30.4554L19.9933 29.5941C19.9698 29.5594 19.9549 29.5196 19.9499 29.478C19.9449 29.4364 19.9501 29.3942 19.9648 29.355L20.3385 28.3797C20.3559 28.3344 20.3603 28.2851 20.3511 28.2375C20.342 28.1898 20.3196 28.1457 20.2867 28.1101C20.2537 28.0745 20.2114 28.0488 20.1646 28.036C20.1178 28.0233 20.0683 28.0238 20.0218 28.0377L19.018 28.3338C18.9777 28.3463 18.935 28.3486 18.8935 28.3406C18.8521 28.3326 18.8133 28.3145 18.7805 28.2879L17.9731 27.6308C17.9317 27.5968 17.8806 27.5768 17.8271 27.5737C17.7736 27.5705 17.7205 27.5845 17.6754 27.6134L19.1764 30.8354C19.2168 30.8141 19.2622 30.8042 19.3078 30.8069L20.3512 30.8607C20.4 30.8645 20.4488 30.8543 20.4921 30.8315C20.5354 30.8087 20.5714 30.7741 20.5959 30.7318C20.6203 30.6894 20.6324 30.641 20.6305 30.5921C20.6287 30.5432 20.6131 30.4958 20.5855 30.4554Z" fill="#F9CB58"/>
<path d="M29.637 30.4825C29.6252 30.3837 29.5843 30.2905 29.5195 30.215C29.4546 30.1394 29.3688 30.0848 29.2728 30.0582L27.2985 29.4914C27.2146 29.4673 27.1387 29.4214 27.0784 29.3584L26.1284 30.264L29.637 30.4825Z" fill="#FFDA7E"/>
<path d="M33.9768 29.4388L32.9508 29.2393C32.9356 29.236 32.9208 29.2313 32.9065 29.2251L32.4917 29.7254H34.1826C34.1915 29.6604 34.1751 29.5944 34.1368 29.5411C34.0985 29.4878 34.0413 29.4512 33.9768 29.4388Z" fill="#FFDA7E"/>
<path d="M20.0233 28.0378L19.0179 28.3339H18.9957V28.9672L20.2624 28.0806C20.2292 28.0541 20.19 28.0363 20.1482 28.0289C20.1065 28.0214 20.0635 28.0245 20.0233 28.0378Z" fill="#FFDA7E"/>
<path d="M27.7751 32.1875H26.1206L27.3967 35.1182C27.4771 35.0722 27.5434 35.0051 27.5883 34.9242C27.6333 34.8432 27.6552 34.7515 27.6516 34.659L27.5788 32.6007C27.5773 32.5214 27.5943 32.4427 27.6284 32.371C27.6624 32.2993 27.7127 32.2365 27.7751 32.1875Z" fill="#FFDA7E"/>
<path d="M33.3024 32.0398C33.3253 32.0126 33.3423 31.981 33.3523 31.947C33.3624 31.9129 33.3654 31.8772 33.361 31.8419L33.2327 30.8049C33.2319 30.7954 33.2319 30.7859 33.2327 30.7764L32.7815 30.8603L33.3024 32.0398Z" fill="#FFDA7E"/>
<path d="M20.5853 30.4553L19.9932 29.5939C19.9685 29.5559 19.9533 29.5124 19.9489 29.4673L19.6322 29.7254L20.5727 30.7624C20.6077 30.7194 20.6278 30.6663 20.6301 30.6109C20.6324 30.5556 20.6167 30.5009 20.5853 30.4553Z" fill="#FFDA7E"/>
</g>
</g>
<defs>
<filter id="filter0_d" x="0" y="0" width="52" height="52" filterUnits="userSpaceOnUse" color-interpolation-filters="sRGB">
<feFlood flood-opacity="0" result="BackgroundImageFix"/>
<feColorMatrix in="SourceAlpha" type="matrix" values="0 0 0 0 0 0 0 0 0 0 0 0 0 0 0 0 0 0 127 0"/>
<feMorphology radius="2" operator="dilate" in="SourceAlpha" result="effect1_dropShadow"/>
<feOffset dy="2"/>
<feGaussianBlur stdDeviation="3"/>
<feColorMatrix type="matrix" values="0 0 0 0 0 0 0 0 0 0 0 0 0 0 0 0 0 0 0.16 0"/>
<feBlend mode="normal" in2="BackgroundImageFix" result="effect1_dropShadow"/>
<feBlend mode="normal" in="SourceGraphic" in2="effect1_dropShadow" result="shape"/>
</filter>
<filter id="filter1_d" x="7.93213" y="4.5" width="35.5235" height="41.9745" filterUnits="userSpaceOnUse" color-interpolation-filters="sRGB">
<feFlood flood-opacity="0" result="BackgroundImageFix"/>
<feColorMatrix in="SourceAlpha" type="matrix" values="0 0 0 0 0 0 0 0 0 0 0 0 0 0 0 0 0 0 127 0"/>
<feMorphology radius="2" operator="dilate" in="SourceAlpha" result="effect1_dropShadow"/>
<feOffset dy="2"/>
<feGaussianBlur stdDeviation="3"/>
<feColorMatrix type="matrix" values="0 0 0 0 0 0 0 0 0 0 0 0 0 0 0 0 0 0 0.16 0"/>
<feBlend mode="normal" in2="BackgroundImageFix" result="effect1_dropShadow"/>
<feBlend mode="normal" in="SourceGraphic" in2="effect1_dropShadow" result="shape"/>
</filter>
<linearGradient id="paint0_linear" x1="34.6087" y1="42" x2="11.1304" y2="15.7826" gradientUnits="userSpaceOnUse">
<stop stop-color="#E58E13"/>
<stop offset="1" stop-color="#FCC963" stop-opacity="0"/>
</linearGradient>
<linearGradient id="paint1_linear" x1="14.8478" y1="11.2826" x2="21.3043" y2="22.2391" gradientUnits="userSpaceOnUse">
<stop stop-color="#FBFCFE" stop-opacity="0.3"/>
<stop offset="1" stop-color="white" stop-opacity="0"/>
</linearGradient>
<radialGradient id="paint2_radial" cx="0" cy="0" r="1" gradientUnits="userSpaceOnUse" gradientTransform="translate(26 24) rotate(90) scale(15)">
<stop offset="0.875" stop-color="#F2F5FE"/>
<stop offset="1" stop-color="#D8E9F1"/>
</radialGradient>
<radialGradient id="paint3_radial" cx="0" cy="0" r="1" gradientUnits="userSpaceOnUse" gradientTransform="translate(26 24) rotate(90) scale(15)">
<stop offset="0.885417" stop-color="white" stop-opacity="0"/>
<stop offset="1" stop-color="#4F4F4F"/>
</radialGradient>
</defs>
</svg>
