<svg  viewBox="0 0 52 52" fill="none" xmlns="http://www.w3.org/2000/svg">
<g filter="url(#filter0_d)">
<path d="M26 42C35.9411 42 44 33.9411 44 24C44 14.0589 35.9411 6 26 6C16.0589 6 8 14.0589 8 24C8 33.9411 16.0589 42 26 42Z" fill="#FFCC5E"/>
<path d="M26 42C35.9411 42 44 33.9411 44 24C44 14.0589 35.9411 6 26 6C16.0589 6 8 14.0589 8 24C8 33.9411 16.0589 42 26 42Z" fill="url(#paint0_linear)"/>
<path d="M26 42C35.9411 42 44 33.9411 44 24C44 14.0589 35.9411 6 26 6C16.0589 6 8 14.0589 8 24C8 33.9411 16.0589 42 26 42Z" fill="url(#paint1_linear)"/>
<path d="M26 42C35.9411 42 44 33.9411 44 24C44 14.0589 35.9411 6 26 6C16.0589 6 8 14.0589 8 24C8 33.9411 16.0589 42 26 42Z" fill="#EBA088"/>
<path d="M26 42C35.9411 42 44 33.9411 44 24C44 14.0589 35.9411 6 26 6C16.0589 6 8 14.0589 8 24C8 33.9411 16.0589 42 26 42Z" fill="url(#paint2_linear)"/>
<path d="M26 42C35.9411 42 44 33.9411 44 24C44 14.0589 35.9411 6 26 6C16.0589 6 8 14.0589 8 24C8 33.9411 16.0589 42 26 42Z" fill="url(#paint3_linear)"/>
<path d="M26 39C34.2843 39 41 32.2843 41 24C41 15.7157 34.2843 9 26 9C17.7157 9 11 15.7157 11 24C11 32.2843 17.7157 39 26 39Z" fill="#FBFCFF"/>
<path d="M26 39C34.2843 39 41 32.2843 41 24C41 15.7157 34.2843 9 26 9C17.7157 9 11 15.7157 11 24C11 32.2843 17.7157 39 26 39Z" fill="url(#paint4_radial)" style="mix-blend-mode:multiply"/>
<path d="M26 39C34.2843 39 41 32.2843 41 24C41 15.7157 34.2843 9 26 9C17.7157 9 11 15.7157 11 24C11 32.2843 17.7157 39 26 39Z" fill="url(#paint5_radial)" fill-opacity="0.14"/>
<g filter="url(#filter1_d)">
<path d="M35.4556 23.5031C35.4556 26.304 32.3001 28.9021 25.6931 28.5696C19.3077 28.253 15.9321 26.3008 15.9321 23.5031C15.9321 20.8115 20.302 15.0215 25.6931 15.0215C31.0841 15.0215 35.4556 20.8163 35.4556 23.5031Z" fill="#49CEB1"/>
<path d="M18.2105 24.3028C17.7356 23.212 20.8705 19.5007 21.8093 18.5935C22.7482 17.6863 28.4195 17.8272 29.3584 18.5935C30.2973 19.3598 33.0443 23.2563 32.7609 23.9593C32.3698 24.9298 30.4921 26.3041 25.72 26.3041C22.2748 26.3041 18.4765 24.9203 18.2105 24.3028Z" fill="#6740A0"/>
<path d="M26.5306 16.4229C26.9357 16.445 27.3385 16.4979 27.7355 16.5812C27.9318 16.6318 28.1345 16.673 28.3261 16.7395C28.4242 16.7728 28.5224 16.8013 28.619 16.8361L28.9056 16.9501C29.6672 17.2716 30.3802 17.698 31.024 18.2167C31.6689 18.7329 32.27 19.3017 32.821 19.9172C33.3714 20.5301 33.8903 21.1706 34.3758 21.8361L33.4607 22.433C33.0685 21.7461 32.6415 21.0798 32.1814 20.4365C31.7253 19.7925 31.2164 19.1877 30.6598 18.6284C30.1042 18.0679 29.4726 17.5883 28.7836 17.2034L28.5177 17.0577C28.4306 17.0134 28.3387 16.9754 28.2485 16.9327C28.0696 16.8456 27.8796 16.7854 27.6928 16.7126C27.3133 16.5867 26.9248 16.4898 26.5306 16.4229Z" fill="#BAECE1"/>
<path d="M24.9711 10.9024C24.6943 11.1257 24.4926 11.4284 24.393 11.7698C24.2934 12.1111 24.3006 12.4748 24.4138 12.8119C24.5269 13.149 24.7405 13.4434 25.0259 13.6555C25.3113 13.8676 25.6548 13.9873 26.0102 13.9985C26.3656 14.0096 26.716 13.9117 27.0141 13.7179C27.3122 13.5241 27.5439 13.2437 27.6779 12.9143C27.812 12.585 27.842 12.2225 27.764 11.8756C27.686 11.5286 27.5036 11.2139 27.2415 10.9737C26.9228 10.6816 26.5175 10.5001 26 10.5C25.7578 10.5 25.2478 10.6791 24.9711 10.9024Z" fill="#49CEB1"/>
<path d="M26.6794 13.5264H25.4508V15.8205H26.6794V13.5264Z" fill="#49CEB1"/>
<path d="M22.1322 20.4416C21.4688 21.1794 21.6667 23.3596 22.5201 22.9195C23.9751 22.169 23.3228 19.1164 22.1322 20.4416Z" fill="#F2F5FE"/>
<path d="M26.0652 29.0947C22.8495 29.0947 20.2723 29.3279 20.2723 31.36C20.2723 32.675 22.7999 36.4501 26.4015 36.4501C29.2622 36.4501 31.785 32.8689 31.6362 31.36C31.2458 29.4349 29.1701 29.2096 26.0652 29.0947Z" fill="#49CEB1"/>
<path d="M25.8836 31.9598C28.4358 31.9598 30.5047 31.3963 30.5047 30.7011C30.5047 30.0059 28.4358 29.4424 25.8836 29.4424C23.3315 29.4424 21.2626 30.0059 21.2626 30.7011C21.2626 31.3963 23.3315 31.9598 25.8836 31.9598Z" fill="#3E9D9A"/>
<path d="M28.505 20.6081C29.1811 21.3332 29.0259 23.5166 28.1631 23.0938C26.6953 22.3734 27.2891 19.3066 28.505 20.6081Z" fill="#F2F5FE"/>
<path d="M25.3985 27.0935L24.2427 28.7971C24.1966 28.8657 24.1344 28.9221 24.0616 28.9613C23.9888 29.0005 23.9075 29.0213 23.8248 29.0219L21.7665 29.0409C21.6715 29.0417 21.5787 29.069 21.4985 29.1199C21.4183 29.1707 21.354 29.243 21.3128 29.3286C21.2716 29.4141 21.2552 29.5095 21.2654 29.6039C21.2756 29.6983 21.3121 29.7879 21.3707 29.8626L22.6373 31.4823C22.6881 31.5472 22.7223 31.6235 22.7369 31.7047C22.7515 31.7858 22.7461 31.8692 22.7212 31.9478L22.1053 33.9079C22.0765 33.9987 22.0737 34.0957 22.0972 34.188C22.1207 34.2803 22.1696 34.3641 22.2383 34.43C22.307 34.496 22.3929 34.5413 22.486 34.561C22.5792 34.5806 22.676 34.5738 22.7655 34.5412L24.6956 33.8382C24.7934 33.8035 24.8997 33.8002 24.9995 33.8287L25.826 26.8702C25.7418 26.8685 25.6584 26.8881 25.5837 26.9271C25.509 26.9661 25.4453 27.0233 25.3985 27.0935Z" fill="#FFB243"/>
<path d="M29.2728 30.0588L27.2985 29.492C27.2189 29.4697 27.1462 29.428 27.0865 29.3709C27.0269 29.3137 26.9822 29.2428 26.9565 29.1643L26.301 27.2169C26.2681 27.1166 26.2046 27.0292 26.1194 26.9669C26.0341 26.9047 25.9315 26.8708 25.826 26.8701L25.0074 33.8271C25.0641 33.8425 25.1177 33.8677 25.1658 33.9015L26.8377 35.0921C26.9151 35.1474 27.0065 35.18 27.1015 35.1861C27.1964 35.1921 27.2912 35.1715 27.3751 35.1266C27.4589 35.0816 27.5285 35.014 27.576 34.9316C27.6234 34.8491 27.6469 34.755 27.6436 34.6599L27.5708 32.6016C27.5681 32.519 27.5855 32.4371 27.6213 32.3626C27.6571 32.2882 27.7104 32.2235 27.7766 32.1741L29.428 30.9518C29.5026 30.8953 29.5603 30.8194 29.5946 30.7322C29.6289 30.6451 29.6386 30.5503 29.6226 30.458C29.6065 30.3658 29.5654 30.2798 29.5037 30.2093C29.442 30.1389 29.3621 30.0869 29.2728 30.0588Z" fill="#F9CB58"/>
<path d="M34.1003 29.8877C34.1362 29.8554 34.1624 29.8138 34.176 29.7675C34.1896 29.7212 34.19 29.672 34.1772 29.6254C34.1643 29.5789 34.1388 29.5368 34.1034 29.504C34.068 29.4712 34.0241 29.4489 33.9768 29.4396L32.9508 29.2401C32.9098 29.232 32.8714 29.2141 32.8389 29.1879C32.8063 29.1617 32.7806 29.128 32.764 29.0897L32.346 28.1318C32.3212 28.0755 32.2772 28.0298 32.2217 28.0031C32.1662 27.9764 32.1031 27.9704 32.0436 27.9862V31.5565C32.0534 31.56 32.0629 31.5642 32.0721 31.5691L32.973 32.0979C33.0146 32.1227 33.0623 32.1352 33.1107 32.1342C33.1591 32.1331 33.2062 32.1184 33.2467 32.0918C33.2871 32.0652 33.3193 32.0278 33.3395 31.9838C33.3597 31.9398 33.3671 31.891 33.3609 31.843L33.2326 30.806C33.228 30.7642 33.2333 30.7218 33.2481 30.6825C33.263 30.6431 33.287 30.6079 33.3181 30.5796L34.1003 29.8877Z" fill="#F9CB58"/>
<path d="M31.8822 28.1104L31.3755 29.024C31.3552 29.0605 31.3262 29.0916 31.2912 29.1145C31.2562 29.1374 31.2161 29.1514 31.1744 29.1554L30.1342 29.2567C30.0866 29.2625 30.0414 29.2813 30.0039 29.3112C29.9663 29.341 29.9377 29.3807 29.9213 29.4258C29.9049 29.4709 29.9013 29.5197 29.9109 29.5667C29.9206 29.6137 29.9431 29.6571 29.9759 29.6921L30.6899 30.4553C30.7184 30.4861 30.7391 30.5234 30.7501 30.5639C30.7611 30.6044 30.7622 30.647 30.7533 30.688L30.5285 31.7076C30.5181 31.7549 30.5211 31.804 30.5372 31.8496C30.5533 31.8952 30.5818 31.9354 30.6194 31.9657C30.6571 31.996 30.7025 32.0151 30.7505 32.021C30.7985 32.0269 30.8471 32.0193 30.891 31.999L31.841 31.5572C31.8743 31.542 31.9105 31.5341 31.9471 31.5341C31.9837 31.5341 32.0199 31.542 32.0532 31.5572V27.9854C32.0172 27.9922 31.9831 28.007 31.9536 28.0286C31.924 28.0503 31.8996 28.0782 31.8822 28.1104Z" fill="#FFB243"/>
<path d="M17.5518 27.8254L17.5233 28.8688C17.5225 28.9108 17.5114 28.952 17.491 28.9887C17.4706 29.0254 17.4414 29.0566 17.4061 29.0794L16.5306 29.6478C16.49 29.6741 16.4575 29.7113 16.4369 29.7551C16.4163 29.7989 16.4084 29.8476 16.414 29.8957C16.4196 29.9437 16.4385 29.9893 16.4686 30.0272C16.4987 30.0651 16.5388 30.0938 16.5844 30.1101L17.5692 30.4584C17.6079 30.4731 17.6425 30.4969 17.67 30.5278C17.6976 30.5587 17.7173 30.5957 17.7275 30.6358L17.9983 31.6443C18.0108 31.691 18.0361 31.7333 18.0714 31.7664C18.1066 31.7995 18.1504 31.822 18.1978 31.8316C18.2452 31.8411 18.2943 31.8373 18.3396 31.8204C18.3849 31.8035 18.4246 31.7744 18.4543 31.7361L19.0876 30.9065C19.1113 30.8769 19.1409 30.8526 19.1747 30.8353L17.6674 27.6133C17.6321 27.6363 17.603 27.6678 17.5829 27.7048C17.5627 27.7418 17.552 27.7833 17.5518 27.8254Z" fill="#FFB243"/>
<path d="M20.5855 30.4564L19.9933 29.5951C19.9698 29.5604 19.9549 29.5206 19.9499 29.479C19.9449 29.4374 19.9501 29.3952 19.9648 29.356L20.3385 28.3807C20.3559 28.3354 20.3603 28.2861 20.3511 28.2385C20.342 28.1908 20.3196 28.1467 20.2867 28.1111C20.2537 28.0755 20.2114 28.0498 20.1646 28.037C20.1178 28.0242 20.0683 28.0248 20.0218 28.0387L19.018 28.3348C18.9777 28.3472 18.935 28.3496 18.8935 28.3416C18.8521 28.3336 18.8133 28.3154 18.7805 28.2889L17.9731 27.6318C17.9317 27.5978 17.8806 27.5778 17.8271 27.5747C17.7736 27.5715 17.7205 27.5854 17.6754 27.6144L19.1764 30.8364C19.2168 30.815 19.2622 30.8052 19.3078 30.8079L20.3512 30.8617C20.4 30.8654 20.4488 30.8553 20.4921 30.8325C20.5354 30.8097 20.5714 30.7751 20.5959 30.7328C20.6203 30.6904 20.6324 30.642 20.6305 30.5931C20.6287 30.5442 20.6131 30.4968 20.5855 30.4564Z" fill="#F9CB58"/>
<path d="M29.637 30.4825C29.6252 30.3837 29.5843 30.2905 29.5195 30.215C29.4546 30.1394 29.3688 30.0848 29.2728 30.0582L27.2985 29.4914C27.2146 29.4673 27.1387 29.4214 27.0784 29.3584L26.1284 30.264L29.637 30.4825Z" fill="#FFDA7E"/>
<path d="M33.9768 29.4393L32.9508 29.2398C32.9356 29.2365 32.9208 29.2318 32.9065 29.2256L32.4917 29.7259H34.1826C34.1915 29.6609 34.1751 29.5949 34.1368 29.5416C34.0985 29.4883 34.0413 29.4517 33.9768 29.4393Z" fill="#FFDA7E"/>
<path d="M20.0233 28.0383L19.0179 28.3344H18.9957V28.9677L20.2624 28.081C20.2292 28.0546 20.19 28.0368 20.1482 28.0294C20.1065 28.0219 20.0635 28.025 20.0233 28.0383Z" fill="#FFDA7E"/>
<path d="M27.7751 32.1875H26.1206L27.3967 35.1182C27.4771 35.0722 27.5434 35.0051 27.5883 34.9242C27.6333 34.8432 27.6552 34.7515 27.6516 34.659L27.5788 32.6007C27.5773 32.5214 27.5943 32.4427 27.6284 32.371C27.6624 32.2993 27.7127 32.2365 27.7751 32.1875Z" fill="#FFDA7E"/>
<path d="M33.3024 32.0408C33.3253 32.0136 33.3423 31.982 33.3523 31.948C33.3624 31.9139 33.3654 31.8781 33.361 31.8429L33.2327 30.8058C33.2319 30.7964 33.2319 30.7868 33.2327 30.7773L32.7815 30.8613L33.3024 32.0408Z" fill="#FFDA7E"/>
<path d="M20.5853 30.4557L19.9932 29.5944C19.9685 29.5564 19.9533 29.5129 19.9489 29.4678L19.6322 29.7258L20.5727 30.7629C20.6077 30.7199 20.6278 30.6668 20.6301 30.6114C20.6324 30.5561 20.6167 30.5014 20.5853 30.4557Z" fill="#FFDA7E"/>
</g>
</g>
<defs>
<filter id="filter0_d" x="0" y="0" width="52" height="52" filterUnits="userSpaceOnUse" color-interpolation-filters="sRGB">
<feFlood flood-opacity="0" result="BackgroundImageFix"/>
<feColorMatrix in="SourceAlpha" type="matrix" values="0 0 0 0 0 0 0 0 0 0 0 0 0 0 0 0 0 0 127 0"/>
<feMorphology radius="2" operator="dilate" in="SourceAlpha" result="effect1_dropShadow"/>
<feOffset dy="2"/>
<feGaussianBlur stdDeviation="3"/>
<feColorMatrix type="matrix" values="0 0 0 0 0 0 0 0 0 0 0 0 0 0 0 0 0 0 0.16 0"/>
<feBlend mode="normal" in2="BackgroundImageFix" result="effect1_dropShadow"/>
<feBlend mode="normal" in="SourceGraphic" in2="effect1_dropShadow" result="shape"/>
</filter>
<filter id="filter1_d" x="7.93213" y="4.5" width="35.5235" height="41.9501" filterUnits="userSpaceOnUse" color-interpolation-filters="sRGB">
<feFlood flood-opacity="0" result="BackgroundImageFix"/>
<feColorMatrix in="SourceAlpha" type="matrix" values="0 0 0 0 0 0 0 0 0 0 0 0 0 0 0 0 0 0 127 0"/>
<feMorphology radius="2" operator="dilate" in="SourceAlpha" result="effect1_dropShadow"/>
<feOffset dy="2"/>
<feGaussianBlur stdDeviation="3"/>
<feColorMatrix type="matrix" values="0 0 0 0 0 0 0 0 0 0 0 0 0 0 0 0 0 0 0.16 0"/>
<feBlend mode="normal" in2="BackgroundImageFix" result="effect1_dropShadow"/>
<feBlend mode="normal" in="SourceGraphic" in2="effect1_dropShadow" result="shape"/>
</filter>
<linearGradient id="paint0_linear" x1="34.6087" y1="42" x2="11.1304" y2="15.7826" gradientUnits="userSpaceOnUse">
<stop stop-color="#E58E13"/>
<stop offset="1" stop-color="#FCC963" stop-opacity="0"/>
</linearGradient>
<linearGradient id="paint1_linear" x1="14.8478" y1="11.2826" x2="21.3043" y2="22.2391" gradientUnits="userSpaceOnUse">
<stop stop-color="#FBFCFE" stop-opacity="0.3"/>
<stop offset="1" stop-color="white" stop-opacity="0"/>
</linearGradient>
<linearGradient id="paint2_linear" x1="34.6087" y1="42" x2="11.1304" y2="15.7826" gradientUnits="userSpaceOnUse">
<stop stop-color="#C6755B"/>
<stop offset="1" stop-color="#FCC963" stop-opacity="0"/>
</linearGradient>
<linearGradient id="paint3_linear" x1="14.8478" y1="11.2826" x2="21.3043" y2="22.2391" gradientUnits="userSpaceOnUse">
<stop stop-color="#FBFCFE" stop-opacity="0.3"/>
<stop offset="1" stop-color="white" stop-opacity="0"/>
</linearGradient>
<radialGradient id="paint4_radial" cx="0" cy="0" r="1" gradientUnits="userSpaceOnUse" gradientTransform="translate(26 24) rotate(90) scale(15)">
<stop offset="0.875" stop-color="#F2F5FE"/>
<stop offset="1" stop-color="#D8E9F1"/>
</radialGradient>
<radialGradient id="paint5_radial" cx="0" cy="0" r="1" gradientUnits="userSpaceOnUse" gradientTransform="translate(26 24) rotate(90) scale(15)">
<stop offset="0.885417" stop-color="white" stop-opacity="0"/>
<stop offset="1" stop-color="#4F4F4F"/>
</radialGradient>
</defs>
</svg>
