<svg  viewBox="0 0 52 52" fill="none" xmlns="http://www.w3.org/2000/svg">
<g filter="url(#filter0_d)">
<path d="M26 42C35.9411 42 44 33.9411 44 24C44 14.0589 35.9411 6 26 6C16.0589 6 8 14.0589 8 24C8 33.9411 16.0589 42 26 42Z" fill="#FFCC5E"/>
<path d="M26 42C35.9411 42 44 33.9411 44 24C44 14.0589 35.9411 6 26 6C16.0589 6 8 14.0589 8 24C8 33.9411 16.0589 42 26 42Z" fill="url(#paint0_linear)"/>
<path d="M26 42C35.9411 42 44 33.9411 44 24C44 14.0589 35.9411 6 26 6C16.0589 6 8 14.0589 8 24C8 33.9411 16.0589 42 26 42Z" fill="url(#paint1_linear)"/>
<path d="M26 42C35.9411 42 44 33.9411 44 24C44 14.0589 35.9411 6 26 6C16.0589 6 8 14.0589 8 24C8 33.9411 16.0589 42 26 42Z" fill="#D7DFEE"/>
<path d="M26 42C35.9411 42 44 33.9411 44 24C44 14.0589 35.9411 6 26 6C16.0589 6 8 14.0589 8 24C8 33.9411 16.0589 42 26 42Z" fill="url(#paint2_linear)"/>
<path d="M26 42C35.9411 42 44 33.9411 44 24C44 14.0589 35.9411 6 26 6C16.0589 6 8 14.0589 8 24C8 33.9411 16.0589 42 26 42Z" fill="url(#paint3_linear)"/>
<path d="M26 39C34.2843 39 41 32.2843 41 24C41 15.7157 34.2843 9 26 9C17.7157 9 11 15.7157 11 24C11 32.2843 17.7157 39 26 39Z" fill="#FBFCFF"/>
<path d="M26 39C34.2843 39 41 32.2843 41 24C41 15.7157 34.2843 9 26 9C17.7157 9 11 15.7157 11 24C11 32.2843 17.7157 39 26 39Z" fill="url(#paint4_radial)" style="mix-blend-mode:multiply"/>
<path d="M26 39C34.2843 39 41 32.2843 41 24C41 15.7157 34.2843 9 26 9C17.7157 9 11 15.7157 11 24C11 32.2843 17.7157 39 26 39Z" fill="url(#paint5_radial)" fill-opacity="0.14"/>
<path d="M30.2908 19.1086C30.1594 19.1086 30.0311 19.0355 29.9617 18.9051C29.859 18.7144 29.9239 18.4712 30.1066 18.3647C30.1428 18.344 31.0003 17.848 31.873 18.3647C32.0541 18.4728 32.119 18.7144 32.0164 18.9051C31.9137 19.0959 31.6842 19.1643 31.5031 19.0562C31.0034 18.7605 30.481 19.053 30.4765 19.0562C30.4176 19.0927 30.3542 19.1086 30.2908 19.1086Z" fill="white"/>
<path d="M33.7796 24C33.7522 24 33.7232 23.9965 33.6957 23.9893C33.4898 23.9359 33.3617 23.697 33.4075 23.4563C33.6408 22.2476 32.9819 20.2367 32.5487 19.6502C32.4115 19.463 32.4298 19.1813 32.5884 19.0208C32.7485 18.8604 32.9895 18.8818 33.1268 19.0672C33.6606 19.791 34.4538 22.0818 34.1503 23.6506C34.1106 23.8592 33.9535 24 33.7796 24Z" fill="white"/>
<g filter="url(#filter1_d)">
<path d="M25.4179 16.0208C26.0396 18.4022 24.0905 20.0763 25.0589 19.6028C25.2239 19.5203 25.5172 19.395 25.8746 19.2514C25.8563 18.9918 27.0065 17.5391 26.5085 15.6328C26.1465 14.2581 24.6144 13.5432 22.9846 14.1496C22.8259 14.2085 22.6725 14.2811 22.5264 14.3665C23.9072 14.1313 25.1048 14.8263 25.4179 16.0208Z" fill="#4672A2"/>
<path d="M33.4479 25.0877C33.1424 25.2802 32.8598 25.4574 32.5803 25.6147C33.0385 26.2731 33.735 28.8774 33.4968 29.2364C33.1806 29.7191 32.2992 30.2094 31.1292 30.6646C32.8292 30.1086 34.1841 29.4716 34.5874 28.8484C34.87 28.4207 33.8343 24.8372 33.4479 25.0877Z" fill="#4672A2"/>
<path d="M27.8221 24.8834C28.259 26.9363 29.4352 27.0218 30.9886 26.2688C29.9835 26.4658 29.2396 26.0351 28.9128 24.4954C28.702 23.5025 28.9601 22.9053 29.426 22.5601C28.3873 22.6838 27.4678 23.252 27.8221 24.8834Z" fill="#4672A2"/>
<path d="M21.254 17.2699C21.0615 16.6833 21.1746 15.1421 22.531 14.3677C22.3148 14.4047 22.1025 14.462 21.8971 14.5388C20.1038 15.2032 19.9495 17.0133 20.1634 17.6609C20.4903 18.6569 21.6007 19.442 21.9337 19.8788C22.3202 19.8788 22.6287 19.8788 22.7845 19.8636C23.9485 19.7643 21.7397 18.7516 21.254 17.2699Z" fill="#6CB3FE"/>
<path d="M32.5803 25.6147C32.0839 25.9133 31.5445 26.1338 30.981 26.2685C29.4276 27.0169 28.2514 26.936 27.8146 24.883C27.4678 23.2517 28.3874 22.6835 29.4184 22.5597C30.0019 22.129 30.9077 22.1015 31.6348 22.184C31.6211 21.13 31.311 19.0404 30.7977 18.4951C30.2845 17.9498 28.5661 18.3317 27.115 18.8006C26.6827 18.9671 26.3375 19.1168 26.1481 19.21C25.9587 19.3031 25.8792 19.3123 25.8747 19.2466C25.5126 19.3902 25.2239 19.5155 25.059 19.5979C24.0906 20.0715 26.0396 18.3973 25.4179 16.016C25.1048 14.8261 23.9073 14.1311 22.5295 14.3678C21.1731 15.1469 21.06 16.6881 21.2525 17.2701C21.7398 18.7487 23.9485 19.7614 22.78 19.8668C22.6272 19.8805 22.3217 19.8775 21.9292 19.8821C22.0819 20.0929 22.0697 20.2227 21.6893 20.2548C21.2647 20.2899 19.7204 20.215 18.5244 20.4426C18.4181 20.5042 18.3272 20.5891 18.2587 20.691C18.1901 20.7929 18.1457 20.9091 18.1288 21.0307C18.0555 21.7441 18.4954 24.521 18.9399 26.6137C19.5631 29.5587 20.6201 31.7919 21.0127 32.1462C21.7123 32.7572 27.3074 31.9186 31.1277 30.6676C32.2977 30.2094 33.1791 29.7221 33.4953 29.2394C33.7351 28.8789 33.037 26.2731 32.5803 25.6147Z" fill="#6CB3FE"/>
<path d="M22.5629 21.5365C21.6037 21.4999 20.6582 23.9729 20.5665 24.6312C20.4749 25.2896 19.6684 25.0757 19.6684 25.0757C19.3399 26.6032 20.5467 26.6643 21.1332 27.7183C21.6251 28.5996 21.7442 30.4677 22.9081 29.2213L23.6856 27.5823C23.6856 27.5823 23.0258 28.0849 23.6856 28.2193C24.5746 28.398 25.8241 28.3888 26.626 28.0665L22.5629 21.5365Z" fill="#8294A5"/>
<path d="M22.1613 21.8524C21.8324 22.4716 21.5854 23.1309 21.4266 23.8137C21.4135 23.8853 21.3863 23.9536 21.3468 24.0147C21.3072 24.0758 21.2559 24.1284 21.196 24.1696C20.6934 24.4476 20.5178 24.5546 19.922 24.8326C19.8501 24.8748 19.7901 24.9347 19.7476 25.0065C19.7052 25.0784 19.6817 25.1598 19.6794 25.2432C19.6771 25.3266 19.6961 25.4093 19.7345 25.4833C19.7729 25.5574 19.8296 25.6204 19.8991 25.6666C20.4994 26.0485 20.6904 26.2776 21.2555 26.6992C21.378 26.7951 21.4663 26.9279 21.5076 27.078C21.6705 27.6824 21.8747 28.2749 22.1186 28.8514C22.2591 29.192 22.8411 29.3264 23.0519 29.1126C23.4582 28.6956 23.5758 28.4863 23.9806 27.9777C24.0404 27.9102 24.122 27.8659 24.2112 27.8524C22.8365 25.7048 22.1766 24.1376 22.5493 21.5332C22.383 21.5843 22.2435 21.699 22.1613 21.8524Z" fill="#FFB243"/>
<path d="M26.5604 22.9613C25.7142 23.0545 25.2284 23.114 24.3028 23.2439C24.22 23.2611 24.1342 23.255 24.0546 23.2265C23.9751 23.1979 23.905 23.1479 23.8522 23.082C23.4077 22.471 23.287 22.1273 23.0243 21.6339C22.9494 21.4934 22.7463 21.4689 22.5508 21.5316C22.178 24.1283 22.8318 25.7031 24.2127 27.8508C24.2709 27.8384 24.3307 27.8353 24.3898 27.8416C25.2208 27.9424 25.6225 27.9867 26.3756 28.1074C26.4626 28.1237 26.5525 28.1157 26.6353 28.0843C26.7181 28.0529 26.7907 27.9994 26.8451 27.9295C26.8995 27.8596 26.9336 27.7761 26.9438 27.6882C26.9539 27.6002 26.9397 27.5111 26.9026 27.4307C26.6203 26.8605 26.3036 26.308 25.954 25.7764C25.9124 25.7109 25.8914 25.6345 25.8936 25.5569C25.8957 25.4794 25.921 25.4042 25.9662 25.3411C26.4122 24.669 26.6536 24.3146 27.066 23.6609C27.2829 23.3309 26.9957 22.9216 26.5604 22.9613Z" fill="#F9CB58"/>
<path d="M27.0676 23.1923C27.0138 23.1096 26.9375 23.0439 26.8477 23.003C26.7578 22.9621 26.6582 22.9478 26.5604 22.9617C25.7142 23.0549 25.2285 23.1144 24.3028 23.2443C24.21 23.2573 24.1155 23.2468 24.0279 23.2137C23.6949 23.7102 23.5253 23.9775 23.2443 24.4815C24.7672 23.9332 25.7524 23.6078 27.0676 23.1923Z" fill="#FFDA7E"/>
<path d="M25.9648 25.3521C25.2667 25.6362 24.8634 25.7981 24.1929 26.0898C25.4149 26.8001 25.977 27.1453 26.8614 27.9091C26.9135 27.8419 26.9455 27.7613 26.9536 27.6767C26.9617 27.592 26.9456 27.5068 26.9072 27.431C26.625 26.8607 26.3082 26.3083 25.9586 25.7767C25.9185 25.7129 25.8977 25.6388 25.8987 25.5635C25.8998 25.4881 25.9228 25.4146 25.9648 25.3521Z" fill="#FFDA7E"/>
<path d="M30.6556 20.6782C30.6087 20.678 30.5633 20.6617 30.5271 20.6319C30.4909 20.6021 30.4662 20.5607 30.457 20.5147C30.1759 19.0468 28.7997 19.1125 28.7416 19.1156C28.7152 19.1174 28.6887 19.114 28.6636 19.1056C28.6385 19.0971 28.6154 19.0838 28.5955 19.0663C28.5756 19.0488 28.5594 19.0276 28.5477 19.0038C28.5361 18.98 28.5293 18.9541 28.5278 18.9277C28.5248 18.8744 28.5428 18.822 28.5779 18.7818C28.613 18.7415 28.6624 18.7166 28.7157 18.7123C28.7325 18.7123 30.5043 18.6161 30.8541 20.4384C30.8646 20.49 30.8545 20.5436 30.826 20.5879C30.7974 20.6321 30.7527 20.6634 30.7014 20.6751L30.6556 20.6782Z" fill="#E6F6FC"/>
<path d="M24.5809 17.333C24.5302 17.3327 24.4815 17.3134 24.4444 17.2789C24.4073 17.2444 24.3846 17.1972 24.3808 17.1466C24.3243 16.4532 24.0906 15.9567 23.6858 15.6711C23.0183 15.1991 22.0926 15.4374 22.0834 15.4374C22.0318 15.4514 21.9767 15.4442 21.9303 15.4176C21.8839 15.391 21.85 15.347 21.836 15.2953C21.822 15.2437 21.8291 15.1886 21.8558 15.1422C21.8824 15.0958 21.9264 15.0618 21.978 15.0479C22.0239 15.0356 23.0977 14.7576 23.9195 15.3381C24.4266 15.6955 24.7168 16.2928 24.7825 17.1115C24.7848 17.1379 24.7818 17.1645 24.7737 17.1898C24.7657 17.215 24.7527 17.2384 24.7355 17.2586C24.7183 17.2788 24.6972 17.2954 24.6736 17.3073C24.6499 17.3193 24.6241 17.3265 24.5977 17.3284L24.5809 17.333Z" fill="#E6F6FC"/>
<path d="M31.4363 30.1223C31.3887 30.1229 31.3423 30.1067 31.3055 30.0765C31.2688 30.0462 31.2438 30.004 31.2352 29.9571C31.2266 29.9103 31.2349 29.8619 31.2586 29.8206C31.2822 29.7792 31.3197 29.7476 31.3645 29.7313C31.5517 29.671 31.724 29.5718 31.8701 29.4402C32.0163 29.3085 32.1328 29.1475 32.2122 28.9675C32.5529 28.1519 32.0809 27.0811 32.0763 27.0704C32.0597 27.0224 32.0616 26.9698 32.0819 26.9232C32.1021 26.8765 32.139 26.8391 32.1855 26.8184C32.2319 26.7977 32.2844 26.7951 32.3326 26.8112C32.3809 26.8274 32.4213 26.861 32.4459 26.9054C32.4673 26.9558 32.9928 28.1473 32.5865 29.1233C32.4865 29.3552 32.3386 29.5633 32.1525 29.7339C31.9664 29.9045 31.7462 30.0337 31.5065 30.1131C31.4837 30.1199 31.46 30.123 31.4363 30.1223Z" fill="#E6F6FC"/>
</g>
</g>
<defs>
<filter id="filter0_d" x="0" y="0" width="52" height="52" filterUnits="userSpaceOnUse" color-interpolation-filters="sRGB">
<feFlood flood-opacity="0" result="BackgroundImageFix"/>
<feColorMatrix in="SourceAlpha" type="matrix" values="0 0 0 0 0 0 0 0 0 0 0 0 0 0 0 0 0 0 127 0"/>
<feMorphology radius="2" operator="dilate" in="SourceAlpha" result="effect1_dropShadow"/>
<feOffset dy="2"/>
<feGaussianBlur stdDeviation="3"/>
<feColorMatrix type="matrix" values="0 0 0 0 0 0 0 0 0 0 0 0 0 0 0 0 0 0 0.16 0"/>
<feBlend mode="normal" in2="BackgroundImageFix" result="effect1_dropShadow"/>
<feBlend mode="normal" in="SourceGraphic" in2="effect1_dropShadow" result="shape"/>
</filter>
<filter id="filter1_d" x="10.1207" y="7.93213" width="32.5149" height="34.4183" filterUnits="userSpaceOnUse" color-interpolation-filters="sRGB">
<feFlood flood-opacity="0" result="BackgroundImageFix"/>
<feColorMatrix in="SourceAlpha" type="matrix" values="0 0 0 0 0 0 0 0 0 0 0 0 0 0 0 0 0 0 127 0"/>
<feMorphology radius="2" operator="dilate" in="SourceAlpha" result="effect1_dropShadow"/>
<feOffset dy="2"/>
<feGaussianBlur stdDeviation="3"/>
<feColorMatrix type="matrix" values="0 0 0 0 0 0 0 0 0 0 0 0 0 0 0 0 0 0 0.16 0"/>
<feBlend mode="normal" in2="BackgroundImageFix" result="effect1_dropShadow"/>
<feBlend mode="normal" in="SourceGraphic" in2="effect1_dropShadow" result="shape"/>
</filter>
<linearGradient id="paint0_linear" x1="34.6087" y1="42" x2="11.1304" y2="15.7826" gradientUnits="userSpaceOnUse">
<stop stop-color="#E58E13"/>
<stop offset="1" stop-color="#FCC963" stop-opacity="0"/>
</linearGradient>
<linearGradient id="paint1_linear" x1="14.8478" y1="11.2826" x2="21.3043" y2="22.2391" gradientUnits="userSpaceOnUse">
<stop stop-color="#FBFCFE" stop-opacity="0.3"/>
<stop offset="1" stop-color="white" stop-opacity="0"/>
</linearGradient>
<linearGradient id="paint2_linear" x1="34.6087" y1="42" x2="11.1304" y2="15.7826" gradientUnits="userSpaceOnUse">
<stop stop-color="#ABABAB"/>
<stop offset="1" stop-color="#FCC963" stop-opacity="0"/>
</linearGradient>
<linearGradient id="paint3_linear" x1="14.8478" y1="11.2826" x2="21.3043" y2="22.2391" gradientUnits="userSpaceOnUse">
<stop stop-color="#FBFCFE" stop-opacity="0.3"/>
<stop offset="1" stop-color="white" stop-opacity="0"/>
</linearGradient>
<radialGradient id="paint4_radial" cx="0" cy="0" r="1" gradientUnits="userSpaceOnUse" gradientTransform="translate(26 24) rotate(90) scale(15)">
<stop offset="0.875" stop-color="#F2F5FE"/>
<stop offset="1" stop-color="#D8E9F1"/>
</radialGradient>
<radialGradient id="paint5_radial" cx="0" cy="0" r="1" gradientUnits="userSpaceOnUse" gradientTransform="translate(26 24) rotate(90) scale(15)">
<stop offset="0.885417" stop-color="white" stop-opacity="0"/>
<stop offset="1" stop-color="#4F4F4F"/>
</radialGradient>
</defs>
</svg>
