<svg  viewBox="0 0 52 52" fill="none" xmlns="http://www.w3.org/2000/svg">
<g filter="url(#filter0_d)">
<path d="M26 42C35.9411 42 44 33.9411 44 24C44 14.0589 35.9411 6 26 6C16.0589 6 8 14.0589 8 24C8 33.9411 16.0589 42 26 42Z" fill="#FFCC5E"/>
<path d="M26 42C35.9411 42 44 33.9411 44 24C44 14.0589 35.9411 6 26 6C16.0589 6 8 14.0589 8 24C8 33.9411 16.0589 42 26 42Z" fill="url(#paint0_linear)"/>
<path d="M26 42C35.9411 42 44 33.9411 44 24C44 14.0589 35.9411 6 26 6C16.0589 6 8 14.0589 8 24C8 33.9411 16.0589 42 26 42Z" fill="url(#paint1_linear)"/>
<path d="M26 42C35.9411 42 44 33.9411 44 24C44 14.0589 35.9411 6 26 6C16.0589 6 8 14.0589 8 24C8 33.9411 16.0589 42 26 42Z" fill="#EBA088"/>
<path d="M26 42C35.9411 42 44 33.9411 44 24C44 14.0589 35.9411 6 26 6C16.0589 6 8 14.0589 8 24C8 33.9411 16.0589 42 26 42Z" fill="url(#paint2_linear)"/>
<path d="M26 42C35.9411 42 44 33.9411 44 24C44 14.0589 35.9411 6 26 6C16.0589 6 8 14.0589 8 24C8 33.9411 16.0589 42 26 42Z" fill="url(#paint3_linear)"/>
<path d="M26 39C34.2843 39 41 32.2843 41 24C41 15.7157 34.2843 9 26 9C17.7157 9 11 15.7157 11 24C11 32.2843 17.7157 39 26 39Z" fill="#FBFCFF"/>
<path d="M26 39C34.2843 39 41 32.2843 41 24C41 15.7157 34.2843 9 26 9C17.7157 9 11 15.7157 11 24C11 32.2843 17.7157 39 26 39Z" fill="url(#paint4_radial)" style="mix-blend-mode:multiply"/>
<path d="M26 39C34.2843 39 41 32.2843 41 24C41 15.7157 34.2843 9 26 9C17.7157 9 11 15.7157 11 24C11 32.2843 17.7157 39 26 39Z" fill="url(#paint5_radial)" fill-opacity="0.14"/>
<path d="M30.2908 19.1081C30.1594 19.1081 30.0311 19.035 29.9617 18.9047C29.859 18.7139 29.9239 18.4707 30.1066 18.3642C30.1428 18.3435 31.0003 17.8475 31.873 18.3642C32.0541 18.4723 32.119 18.7139 32.0164 18.9047C31.9137 19.0954 31.6842 19.1638 31.5031 19.0557C31.0034 18.76 30.481 19.0525 30.4765 19.0557C30.4176 19.0922 30.3542 19.1081 30.2908 19.1081Z" fill="white"/>
<path d="M33.7796 24C33.7522 24 33.7232 23.9965 33.6957 23.9893C33.4898 23.9359 33.3617 23.697 33.4075 23.4563C33.6408 22.2476 32.9819 20.2367 32.5487 19.6502C32.4115 19.463 32.4298 19.1813 32.5884 19.0208C32.7485 18.8604 32.9895 18.8818 33.1268 19.0672C33.6606 19.791 34.4538 22.0818 34.1503 23.6506C34.1106 23.8592 33.9535 24 33.7796 24Z" fill="white"/>
<g filter="url(#filter1_d)">
<path d="M25.4179 16.0213C26.0396 18.4026 24.0905 20.0768 25.0589 19.6033C25.2239 19.5208 25.5172 19.3955 25.8746 19.2519C25.8563 18.9923 27.0065 17.5396 26.5085 15.6333C26.1465 14.2586 24.6144 13.5437 22.9846 14.1501C22.8259 14.209 22.6725 14.2816 22.5264 14.367C23.9072 14.1318 25.1048 14.8268 25.4179 16.0213Z" fill="#4672A2"/>
<path d="M33.4479 25.0887C33.1424 25.2812 32.8598 25.4584 32.5803 25.6157C33.0385 26.274 33.735 28.8784 33.4968 29.2374C33.1806 29.72 32.2992 30.2104 31.1292 30.6656C32.8292 30.1096 34.1841 29.4726 34.5874 28.8494C34.87 28.4217 33.8343 24.8382 33.4479 25.0887Z" fill="#4672A2"/>
<path d="M27.8221 24.8839C28.259 26.9368 29.4352 27.0223 30.9886 26.2693C29.9835 26.4663 29.2396 26.0356 28.9128 24.4959C28.702 23.503 28.9601 22.9058 29.426 22.5605C28.3873 22.6843 27.4678 23.2525 27.8221 24.8839Z" fill="#4672A2"/>
<path d="M21.254 17.2704C21.0615 16.6838 21.1746 15.1426 22.531 14.3682C22.3148 14.4052 22.1025 14.4625 21.8971 14.5392C20.1038 15.2037 19.9495 17.0138 20.1634 17.6614C20.4903 18.6573 21.6007 19.4425 21.9337 19.8793C22.3202 19.8793 22.6287 19.8793 22.7845 19.8641C23.9485 19.7648 21.7397 18.752 21.254 17.2704Z" fill="#6CB3FE"/>
<path d="M32.5803 25.6152C32.0839 25.9138 31.5445 26.1343 30.981 26.269C29.4276 27.0174 28.2514 26.9365 27.8146 24.8835C27.4678 23.2522 28.3874 22.684 29.4184 22.5602C30.0019 22.1295 30.9077 22.102 31.6348 22.1845C31.6211 21.1305 31.311 19.0409 30.7977 18.4956C30.2845 17.9503 28.5661 18.3321 27.115 18.8011C26.6827 18.9676 26.3375 19.1173 26.1481 19.2105C25.9587 19.3036 25.8792 19.3128 25.8747 19.2471C25.5126 19.3907 25.2239 19.5159 25.059 19.5984C24.0906 20.072 26.0396 18.3978 25.4179 16.0165C25.1048 14.8266 23.9073 14.1316 22.5295 14.3683C21.1731 15.1473 21.06 16.6886 21.2525 17.2705C21.7398 18.7492 23.9485 19.7619 22.78 19.8673C22.6272 19.881 22.3217 19.878 21.9292 19.8825C22.0819 20.0933 22.0697 20.2232 21.6893 20.2553C21.2647 20.2904 19.7204 20.2155 18.5244 20.4431C18.4181 20.5046 18.3272 20.5896 18.2587 20.6915C18.1901 20.7934 18.1457 20.9096 18.1288 21.0312C18.0555 21.7446 18.4954 24.5215 18.9399 26.6142C19.5631 29.5592 20.6201 31.7924 21.0127 32.1467C21.7123 32.7577 27.3074 31.9191 31.1277 30.6681C32.2977 30.2099 33.1791 29.7226 33.4953 29.2399C33.7351 28.8794 33.037 26.2735 32.5803 25.6152Z" fill="#6CB3FE"/>
<path d="M22.5629 21.5365C21.6037 21.4999 20.6582 23.9729 20.5665 24.6312C20.4749 25.2896 19.6684 25.0757 19.6684 25.0757C19.3399 26.6032 20.5467 26.6643 21.1332 27.7183C21.6251 28.5996 21.7442 30.4677 22.9081 29.2213L23.6856 27.5823C23.6856 27.5823 23.0258 28.0849 23.6856 28.2193C24.5746 28.398 25.8241 28.3888 26.626 28.0665L22.5629 21.5365Z" fill="#8294A5"/>
<path d="M22.1613 21.8534C21.8324 22.4726 21.5854 23.1319 21.4266 23.8147C21.4135 23.8863 21.3863 23.9546 21.3468 24.0157C21.3072 24.0767 21.2559 24.1294 21.196 24.1706C20.6934 24.4486 20.5178 24.5555 19.922 24.8335C19.8501 24.8758 19.7901 24.9357 19.7476 25.0075C19.7052 25.0793 19.6817 25.1608 19.6794 25.2442C19.6771 25.3276 19.6961 25.4102 19.7345 25.4843C19.7729 25.5584 19.8296 25.6214 19.8991 25.6676C20.4994 26.0494 20.6904 26.2785 21.2555 26.7001C21.378 26.7961 21.4663 26.9289 21.5076 27.079C21.6705 27.6833 21.8747 28.2759 22.1186 28.8524C22.2591 29.193 22.8411 29.3274 23.0519 29.1136C23.4582 28.6966 23.5758 28.4873 23.9806 27.9786C24.0404 27.9112 24.122 27.8668 24.2112 27.8534C22.8365 25.7057 22.1766 24.1385 22.5493 21.5342C22.383 21.5853 22.2435 21.7 22.1613 21.8534Z" fill="#FFB243"/>
<path d="M26.5604 22.9623C25.7142 23.0554 25.2284 23.115 24.3028 23.2449C24.22 23.262 24.1342 23.256 24.0546 23.2274C23.9751 23.1989 23.905 23.1489 23.8522 23.0829C23.4077 22.4719 23.287 22.1283 23.0243 21.6349C22.9494 21.4944 22.7463 21.4699 22.5508 21.5325C22.178 24.1293 22.8318 25.7041 24.2127 27.8517C24.2709 27.8394 24.3307 27.8363 24.3898 27.8426C25.2208 27.9434 25.6225 27.9877 26.3756 28.1084C26.4626 28.1246 26.5525 28.1166 26.6353 28.0853C26.7181 28.0539 26.7907 28.0003 26.8451 27.9305C26.8995 27.8606 26.9336 27.7771 26.9438 27.6891C26.9539 27.6012 26.9397 27.5121 26.9026 27.4317C26.6203 26.8615 26.3036 26.309 25.954 25.7774C25.9124 25.7119 25.8914 25.6355 25.8936 25.5579C25.8957 25.4803 25.921 25.4052 25.9662 25.3421C26.4122 24.67 26.6536 24.3156 27.066 23.6619C27.2829 23.3319 26.9957 22.9226 26.5604 22.9623Z" fill="#F9CB58"/>
<path d="M27.0676 23.1928C27.0138 23.11 26.9375 23.0444 26.8477 23.0035C26.7578 22.9626 26.6582 22.9483 26.5604 22.9622C25.7142 23.0554 25.2285 23.1149 24.3028 23.2448C24.21 23.2578 24.1155 23.2473 24.0279 23.2142C23.6949 23.7106 23.5253 23.978 23.2443 24.482C24.7672 23.9337 25.7524 23.6083 27.0676 23.1928Z" fill="#FFDA7E"/>
<path d="M25.9648 25.3525C25.2667 25.6367 24.8634 25.7986 24.1929 26.0903C25.4149 26.8006 25.977 27.1458 26.8614 27.9096C26.9135 27.8424 26.9455 27.7618 26.9536 27.6771C26.9617 27.5925 26.9456 27.5073 26.9072 27.4314C26.625 26.8612 26.3082 26.3088 25.9586 25.7772C25.9185 25.7134 25.8977 25.6393 25.8987 25.564C25.8998 25.4886 25.9228 25.4151 25.9648 25.3525Z" fill="#FFDA7E"/>
<path d="M30.6556 20.6787C30.6087 20.6785 30.5633 20.6622 30.5271 20.6324C30.4909 20.6026 30.4662 20.5612 30.457 20.5152C30.1759 19.0473 28.7997 19.113 28.7416 19.116C28.7152 19.1179 28.6887 19.1145 28.6636 19.1061C28.6385 19.0976 28.6154 19.0842 28.5955 19.0668C28.5756 19.0493 28.5594 19.028 28.5477 19.0043C28.5361 18.9805 28.5293 18.9546 28.5278 18.9282C28.5248 18.8749 28.5428 18.8225 28.5779 18.7823C28.613 18.742 28.6624 18.7171 28.7157 18.7128C28.7325 18.7128 30.5043 18.6166 30.8541 20.4389C30.8646 20.4904 30.8545 20.5441 30.826 20.5883C30.7974 20.6326 30.7527 20.6639 30.7014 20.6756L30.6556 20.6787Z" fill="#E6F6FC"/>
<path d="M24.5809 17.334C24.5302 17.3337 24.4815 17.3144 24.4444 17.2799C24.4073 17.2454 24.3846 17.1981 24.3808 17.1476C24.3243 16.4541 24.0906 15.9577 23.6858 15.6721C23.0183 15.2001 22.0926 15.4384 22.0834 15.4384C22.0318 15.4523 21.9767 15.4452 21.9303 15.4186C21.8839 15.3919 21.85 15.3479 21.836 15.2963C21.822 15.2446 21.8291 15.1896 21.8558 15.1431C21.8824 15.0967 21.9264 15.0628 21.978 15.0488C22.0239 15.0366 23.0977 14.7586 23.9195 15.3391C24.4266 15.6965 24.7168 16.2937 24.7825 17.1125C24.7848 17.1389 24.7818 17.1655 24.7737 17.1908C24.7657 17.216 24.7527 17.2394 24.7355 17.2596C24.7183 17.2798 24.6972 17.2963 24.6736 17.3083C24.6499 17.3203 24.6241 17.3275 24.5977 17.3294L24.5809 17.334Z" fill="#E6F6FC"/>
<path d="M31.4363 30.1233C31.3887 30.1239 31.3423 30.1077 31.3055 30.0775C31.2688 30.0472 31.2438 30.0049 31.2352 29.9581C31.2266 29.9112 31.2349 29.8629 31.2586 29.8215C31.2822 29.7802 31.3197 29.7486 31.3645 29.7322C31.5517 29.672 31.724 29.5728 31.8701 29.4412C32.0163 29.3095 32.1328 29.1484 32.2122 28.9685C32.5529 28.1528 32.0809 27.0821 32.0763 27.0714C32.0597 27.0233 32.0616 26.9708 32.0819 26.9241C32.1021 26.8775 32.139 26.8401 32.1855 26.8194C32.2319 26.7987 32.2844 26.7961 32.3326 26.8122C32.3809 26.8283 32.4213 26.8619 32.4459 26.9064C32.4673 26.9568 32.9928 28.1482 32.5865 29.1243C32.4865 29.3562 32.3386 29.5642 32.1525 29.7348C31.9664 29.9054 31.7462 30.0347 31.5065 30.1141C31.4837 30.1208 31.46 30.1239 31.4363 30.1233Z" fill="#E6F6FC"/>
</g>
</g>
<defs>
<filter id="filter0_d" x="0" y="0" width="52" height="52" filterUnits="userSpaceOnUse" color-interpolation-filters="sRGB">
<feFlood flood-opacity="0" result="BackgroundImageFix"/>
<feColorMatrix in="SourceAlpha" type="matrix" values="0 0 0 0 0 0 0 0 0 0 0 0 0 0 0 0 0 0 127 0"/>
<feMorphology radius="2" operator="dilate" in="SourceAlpha" result="effect1_dropShadow"/>
<feOffset dy="2"/>
<feGaussianBlur stdDeviation="3"/>
<feColorMatrix type="matrix" values="0 0 0 0 0 0 0 0 0 0 0 0 0 0 0 0 0 0 0.16 0"/>
<feBlend mode="normal" in2="BackgroundImageFix" result="effect1_dropShadow"/>
<feBlend mode="normal" in="SourceGraphic" in2="effect1_dropShadow" result="shape"/>
</filter>
<filter id="filter1_d" x="10.1207" y="7.93262" width="32.5149" height="34.4183" filterUnits="userSpaceOnUse" color-interpolation-filters="sRGB">
<feFlood flood-opacity="0" result="BackgroundImageFix"/>
<feColorMatrix in="SourceAlpha" type="matrix" values="0 0 0 0 0 0 0 0 0 0 0 0 0 0 0 0 0 0 127 0"/>
<feMorphology radius="2" operator="dilate" in="SourceAlpha" result="effect1_dropShadow"/>
<feOffset dy="2"/>
<feGaussianBlur stdDeviation="3"/>
<feColorMatrix type="matrix" values="0 0 0 0 0 0 0 0 0 0 0 0 0 0 0 0 0 0 0.16 0"/>
<feBlend mode="normal" in2="BackgroundImageFix" result="effect1_dropShadow"/>
<feBlend mode="normal" in="SourceGraphic" in2="effect1_dropShadow" result="shape"/>
</filter>
<linearGradient id="paint0_linear" x1="34.6087" y1="42" x2="11.1304" y2="15.7826" gradientUnits="userSpaceOnUse">
<stop stop-color="#E58E13"/>
<stop offset="1" stop-color="#FCC963" stop-opacity="0"/>
</linearGradient>
<linearGradient id="paint1_linear" x1="14.8478" y1="11.2826" x2="21.3043" y2="22.2391" gradientUnits="userSpaceOnUse">
<stop stop-color="#FBFCFE" stop-opacity="0.3"/>
<stop offset="1" stop-color="white" stop-opacity="0"/>
</linearGradient>
<linearGradient id="paint2_linear" x1="34.6087" y1="42" x2="11.1304" y2="15.7826" gradientUnits="userSpaceOnUse">
<stop stop-color="#C6755B"/>
<stop offset="1" stop-color="#FCC963" stop-opacity="0"/>
</linearGradient>
<linearGradient id="paint3_linear" x1="14.8478" y1="11.2826" x2="21.3043" y2="22.2391" gradientUnits="userSpaceOnUse">
<stop stop-color="#FBFCFE" stop-opacity="0.3"/>
<stop offset="1" stop-color="white" stop-opacity="0"/>
</linearGradient>
<radialGradient id="paint4_radial" cx="0" cy="0" r="1" gradientUnits="userSpaceOnUse" gradientTransform="translate(26 24) rotate(90) scale(15)">
<stop offset="0.875" stop-color="#F2F5FE"/>
<stop offset="1" stop-color="#D8E9F1"/>
</radialGradient>
<radialGradient id="paint5_radial" cx="0" cy="0" r="1" gradientUnits="userSpaceOnUse" gradientTransform="translate(26 24) rotate(90) scale(15)">
<stop offset="0.885417" stop-color="white" stop-opacity="0"/>
<stop offset="1" stop-color="#4F4F4F"/>
</radialGradient>
</defs>
</svg>
