<svg width="102" height="102" viewBox="0 0 102 102" fill="none" xmlns="http://www.w3.org/2000/svg">
<g filter="url(#filter0_d)">
<circle cx="51" cy="51" r="35" fill="white"/>
<circle cx="51" cy="51" r="29" fill="#FFA08C"/>
<path d="M67.8059 55.7938C70.6699 55.7938 73 53.4605 73 50.5926V48.6084C73 48.3322 72.7761 48.1084 72.5 48.1084H69.7082C68.952 48.1084 68.2145 48.2738 67.5402 48.586C67.2156 48.7363 66.8104 48.5615 66.7307 48.2128C66.6991 48.0747 66.6657 47.9371 66.6305 47.8001C66.5735 47.5781 66.668 47.3436 66.8666 47.2291L67.5219 46.8515C68.7234 46.1569 69.5828 45.0354 69.9419 43.6933C70.3011 42.3514 70.1167 40.9497 69.4231 39.7466L68.4327 38.0288C68.2946 37.7894 67.9885 37.7074 67.7492 37.8457L65.3319 39.2432C64.6767 39.622 64.1205 40.1348 63.6929 40.7431C63.4872 41.0355 63.0492 41.0874 62.8051 40.8262C62.6868 40.6996 62.5663 40.5748 62.4437 40.4517C62.2812 40.2885 62.2445 40.0369 62.3595 39.8374L62.6422 39.3472C63.3358 38.144 63.5202 36.7424 63.161 35.4004C62.8019 34.0585 61.9425 32.9369 60.741 32.2422L59.0258 31.2506C58.7865 31.1123 58.4804 31.1943 58.3424 31.4337L56.9465 33.8546C56.2529 35.0578 56.0685 36.4594 56.4277 37.8014C56.7868 39.1433 57.6462 40.2649 58.8477 40.9596L59.7375 41.474C59.7635 41.489 59.7881 41.5063 59.8109 41.5258C62.834 44.1093 64.5655 47.8641 64.5655 51.8532C64.5655 59.3431 58.4802 65.4365 51.0003 65.4365C43.5205 65.4365 37.4352 59.3431 37.4352 51.8532C37.4352 47.8642 39.1667 44.1093 42.1898 41.5258C42.2126 41.5063 42.2372 41.489 42.2632 41.474L43.153 40.9596C44.3545 40.265 45.2139 39.1433 45.573 37.8014C45.9321 36.4594 45.7477 35.0578 45.0541 33.8546L43.6583 31.4337C43.5203 31.1943 43.2141 31.1122 42.9749 31.2506L41.2597 32.2422C40.0582 32.9368 39.1988 34.0584 38.8397 35.4004C38.4805 36.7424 38.6649 38.144 39.3585 39.3472L39.6411 39.8373C39.7562 40.0368 39.7195 40.2885 39.5569 40.4517C39.4342 40.5749 39.3137 40.6998 39.1953 40.8264C38.9512 41.0877 38.5131 41.0358 38.3075 40.7433C37.8798 40.1349 37.3236 39.622 36.6683 39.2432L34.2508 37.8457C34.0116 37.7073 33.7055 37.7894 33.5674 38.0288L32.5769 39.7466C31.8833 40.9497 31.6989 42.3514 32.0581 43.6933C32.4172 45.0353 33.2766 46.1568 34.4797 46.8524L35.134 47.2294C35.3325 47.3438 35.4271 47.5784 35.3701 47.8003C35.3349 47.9373 35.3015 48.0749 35.2699 48.213C35.1901 48.5618 34.7849 48.7365 34.4603 48.5862C33.7859 48.2739 33.0481 48.1084 32.2918 48.1084H29.5C29.2239 48.1084 29 48.3322 29 48.6084V50.5926C29 53.4606 31.3301 55.7938 34.1959 55.7938L34.9521 55.7927C35.1817 55.7924 35.3811 55.9486 35.4424 56.1698C35.4804 56.3068 35.5201 56.4431 35.5616 56.5786C35.6663 56.9207 35.4023 57.2746 35.0459 57.3065C34.3052 57.3728 33.5833 57.5983 32.9283 57.9769L30.5098 59.3751C30.271 59.5132 30.1891 59.8187 30.3269 60.0577L31.3181 61.7765C32.0117 62.9796 33.1318 63.8402 34.472 64.1998C34.9194 64.3199 35.3732 64.3792 35.8244 64.3792C36.7246 64.3792 37.6135 64.1426 38.415 63.6793L39.0775 63.295C39.2762 63.1797 39.5273 63.2152 39.691 63.3764C39.7922 63.476 39.8947 63.5743 39.9985 63.6713C40.2598 63.9153 40.2078 64.3531 39.9153 64.5587C39.3053 64.9874 38.791 65.5458 38.4114 66.2041L37.0151 68.6261C36.8773 68.8651 36.9591 69.1706 37.198 69.3087L38.9142 70.3008C39.7145 70.7635 40.6027 70.9999 41.5028 70.9999C41.9539 70.9999 42.4082 70.9405 42.8556 70.8204C44.1958 70.4608 45.3158 69.6002 46.0104 68.3955L46.3864 67.7414C46.5009 67.5423 46.736 67.4476 46.9584 67.5052C48.2506 67.84 49.605 68.0182 51.0002 68.0182C52.3953 68.0182 53.7496 67.84 55.0416 67.5053C55.2639 67.4477 55.4991 67.5425 55.6136 67.7416L55.9903 68.3972C56.684 69.6003 57.8041 70.4609 59.1442 70.8205C59.5918 70.9406 60.0458 71 60.4971 71C61.3971 71 62.2854 70.7636 63.0857 70.3009L64.8018 69.3088C65.0407 69.1707 65.1226 68.8652 64.9848 68.6261L63.5884 66.2042C63.2089 65.5461 62.6947 64.9878 62.0848 64.559C61.7924 64.3534 61.7404 63.9155 62.0017 63.6716C62.1055 63.5746 62.2081 63.4763 62.3094 63.3766C62.4731 63.2155 62.7241 63.18 62.9228 63.2952L63.5865 63.6803C64.3869 64.143 65.275 64.3794 66.1752 64.3794C66.6263 64.3794 67.0805 64.32 67.528 64.2C68.8681 63.8404 69.9882 62.9798 70.6818 61.7766L71.673 60.0579C71.8108 59.8189 71.729 59.5133 71.4901 59.3752L69.0716 57.9771C68.4167 57.5985 67.695 57.373 66.9545 57.3067C66.5982 57.2747 66.3342 56.9209 66.4389 56.5787C66.4804 56.4432 66.5201 56.3069 66.5581 56.1698C66.6194 55.9487 66.8188 55.7925 67.0483 55.7928L67.8059 55.7938Z" fill="white"/>
<path d="M46.3031 52.6683C46.4215 52.7832 46.4756 52.9491 46.4477 53.1117L45.6082 58.0065C45.5383 58.414 45.9651 58.7254 46.3319 58.5345L50.7691 56.2243C50.9139 56.1489 51.0862 56.1489 51.2309 56.2243L55.6682 58.5345C56.035 58.7254 56.4618 58.414 56.3919 58.0065L55.5523 53.1117C55.5244 52.9491 55.5785 52.7832 55.6969 52.6683L59.2708 49.2009C59.5686 48.912 59.4053 48.407 58.9946 48.3473L54.0448 47.6273C53.8827 47.6037 53.7424 47.5022 53.6693 47.3555L51.4475 42.8978C51.2635 42.5286 50.7366 42.5286 50.5525 42.8978L48.3308 47.3554C48.2577 47.5021 48.1174 47.6036 47.9553 47.6272L43.0053 48.3472C42.5947 48.4069 42.4313 48.9119 42.7291 49.2008L46.3031 52.6683Z" fill="white"/>
</g>
<defs>
<filter id="filter0_d" x="0" y="0" width="102" height="102" filterUnits="userSpaceOnUse" color-interpolation-filters="sRGB">
<feFlood flood-opacity="0" result="BackgroundImageFix"/>
<feColorMatrix in="SourceAlpha" type="matrix" values="0 0 0 0 0 0 0 0 0 0 0 0 0 0 0 0 0 0 127 0"/>
<feOffset/>
<feGaussianBlur stdDeviation="8"/>
<feColorMatrix type="matrix" values="0 0 0 0 0 0 0 0 0 0 0 0 0 0 0 0 0 0 0.16 0"/>
<feBlend mode="multiply" in2="BackgroundImageFix" result="effect1_dropShadow"/>
<feBlend mode="normal" in="SourceGraphic" in2="effect1_dropShadow" result="shape"/>
</filter>
</defs>
</svg>
