<svg  viewBox="0 0 120 88" fill="none" xmlns="http://www.w3.org/2000/svg">
    <path d="M100.8 38.225C101.569 36.1232 102 33.825 102 31.4286C102 21.0179 93.9375 12.5714 84 12.5714C80.3063 12.5714 76.8563 13.75 74.0063 15.7536C68.8125 6.325 59.1188 0 48 0C31.425 0 18 14.0643 18 31.4286C18 31.9589 18.0188 32.4893 18.0375 33.0196C7.5375 36.8893 0 47.3786 0 59.7143C0 75.3304 12.0938 88 27 88H96C109.256 88 120 76.7446 120 62.8571C120 50.6982 111.75 40.5429 100.8 38.225ZM78.5438 50.2857H66.2812V72.2857C66.2812 74.0143 64.9313 75.4286 63.2813 75.4286H54.2813C52.6313 75.4286 51.2813 74.0143 51.2813 72.2857V50.2857H39.0188C36.3375 50.2857 35.0063 46.9071 36.9 44.9232L56.6625 24.2196C57.825 23.0018 59.7375 23.0018 60.9 24.2196L80.6625 44.9232C82.5563 46.9071 81.2063 50.2857 78.5438 50.2857Z" fill="#6E46FF"/>
</svg>
