<svg  viewBox="0 0 22 14"  xmlns="http://www.w3.org/2000/svg">
<path d="M21.7462 6.07292C19.5926 2.4328 15.576 0 11 0C6.42203 0 2.40642 2.43455 0.253858 6.07288C0.0876548 6.3538 0 6.67391 0 6.99998C0 7.32605 0.0876548 7.64617 0.253858 7.92708C2.40749 11.5672 6.42402 14 11 14C15.578 14 19.5936 11.5654 21.7462 7.92708C21.9124 7.64617 22 7.32606 22 7C22 6.67394 21.9124 6.35383 21.7462 6.07292ZM15.8889 5.93478C15.8889 8.54011 13.7001 10.6522 11 10.6522C8.29997 10.6522 6.11113 8.54011 6.11113 5.93478C6.11113 3.32945 8.29997 1.21739 11 1.21739C13.7001 1.21739 15.8889 3.32945 15.8889 5.93478ZM20.6932 7.30903C18.7091 10.6627 15.0435 12.7826 11 12.7826C6.94029 12.7826 3.28241 10.6482 1.30688 7.30906C1.2515 7.21541 1.22229 7.10871 1.22229 7.00002C1.22229 6.89133 1.2515 6.78462 1.30688 6.69097C2.41727 4.81417 4.1081 3.25051 6.18278 2.28223C5.37951 3.27901 4.88891 4.54878 4.88891 5.93478C4.88891 9.1996 7.60915 11.8696 11 11.8696C14.3905 11.8696 17.1111 9.19975 17.1111 5.93478C17.1111 4.54958 16.621 3.27958 15.8173 2.28223C17.8706 3.24051 19.5708 4.7939 20.6932 6.69097C20.7486 6.78462 20.7778 6.89132 20.7777 7C20.7777 7.10869 20.7485 7.21538 20.6932 7.30903ZM8.55557 5.78261C8.55557 5.36805 8.65973 4.97776 8.84317 4.63609V4.63685C8.84317 5.19054 9.29383 5.63941 9.84971 5.63941C10.4056 5.63941 10.8563 5.19054 10.8563 4.63685C10.8563 4.08317 10.4056 3.63429 9.84971 3.63429H9.84895C10.192 3.45157 10.5838 3.34783 11 3.34783C12.35 3.34783 13.4445 4.43792 13.4445 5.78261C13.4445 7.12729 12.35 8.21739 11 8.21739C9.64999 8.21739 8.55557 7.12729 8.55557 5.78261Z" />
</svg>
