<svg  viewBox="0 0 20 20"  xmlns="http://www.w3.org/2000/svg">
<path d="M10 1.29032C14.7831 1.29032 18.7097 5.16431 18.7097 10C18.7097 14.8101 14.8141 18.7097 10 18.7097C5.19177 18.7097 1.29032 14.816 1.29032 10C1.29032 5.19343 5.18556 1.29032 10 1.29032ZM10 0C4.47754 0 0 4.47915 0 10C0 15.5241 4.47754 20 10 20C15.5225 20 20 15.5241 20 10C20 4.47915 15.5225 0 10 0ZM9.53669 4.83871H10.4633C10.7384 4.83871 10.9582 5.06782 10.9467 5.34274L10.6645 12.1169C10.6537 12.3761 10.4404 12.5806 10.181 12.5806H9.81895C9.55956 12.5806 9.34629 12.3761 9.33548 12.1169L9.05323 5.34274C9.04181 5.06782 9.26157 4.83871 9.53669 4.83871ZM10 13.3871C9.37645 13.3871 8.87097 13.8926 8.87097 14.5161C8.87097 15.1397 9.37645 15.6452 10 15.6452C10.6235 15.6452 11.129 15.1397 11.129 14.5161C11.129 13.8926 10.6235 13.3871 10 13.3871Z" />
</svg>
