<svg width="22" height="18" viewBox="0 0 22 18" fill="none" xmlns="http://www.w3.org/2000/svg">
<path d="M7.7 10.125C10.4328 10.125 12.65 7.85742 12.65 5.0625C12.65 2.26758 10.4328 0 7.7 0C4.96719 0 2.75 2.26758 2.75 5.0625C2.75 7.85742 4.96719 10.125 7.7 10.125ZM7.7 1.6875C9.51844 1.6875 11 3.20273 11 5.0625C11 6.92227 9.51844 8.4375 7.7 8.4375C5.88156 8.4375 4.4 6.92227 4.4 5.0625C4.4 3.20273 5.88156 1.6875 7.7 1.6875ZM10.78 10.6875C9.79344 10.6875 9.31906 11.25 7.7 11.25C6.08094 11.25 5.61 10.6875 4.62 10.6875C2.06938 10.6875 0 12.8039 0 15.4125V16.3125C0 17.2441 0.739062 18 1.65 18H13.75C14.6609 18 15.4 17.2441 15.4 16.3125V15.4125C15.4 12.8039 13.3306 10.6875 10.78 10.6875ZM13.75 16.3125H1.65V15.4125C1.65 13.7391 2.98375 12.375 4.62 12.375C5.12187 12.375 5.93656 12.9375 7.7 12.9375C9.47719 12.9375 10.2747 12.375 10.78 12.375C12.4163 12.375 13.75 13.7391 13.75 15.4125V16.3125ZM21.45 7.59375H18.975V5.0625C18.975 4.75313 18.7275 4.5 18.425 4.5H17.875C17.5725 4.5 17.325 4.75313 17.325 5.0625V7.59375H14.85C14.5475 7.59375 14.3 7.84688 14.3 8.15625V8.71875C14.3 9.02812 14.5475 9.28125 14.85 9.28125H17.325V11.8125C17.325 12.1219 17.5725 12.375 17.875 12.375H18.425C18.7275 12.375 18.975 12.1219 18.975 11.8125V9.28125H21.45C21.7525 9.28125 22 9.02812 22 8.71875V8.15625C22 7.84688 21.7525 7.59375 21.45 7.59375Z" />
</svg>
