<svg  viewBox="0 0 18 14" xmlns="http://www.w3.org/2000/svg">
<path d="M17.55 5.6875H15.75V3.9375C15.75 3.69688 15.5475 3.5 15.3 3.5H14.4C14.1525 3.5 13.95 3.69688 13.95 3.9375V5.6875H12.15C11.9025 5.6875 11.7 5.88438 11.7 6.125V7C11.7 7.24062 11.9025 7.4375 12.15 7.4375H13.95V9.1875C13.95 9.42813 14.1525 9.625 14.4 9.625H15.3C15.5475 9.625 15.75 9.42813 15.75 9.1875V7.4375H17.55C17.7975 7.4375 18 7.24062 18 7V6.125C18 5.88438 17.7975 5.6875 17.55 5.6875ZM6.3 7C8.28844 7 9.9 5.4332 9.9 3.5C9.9 1.5668 8.28844 0 6.3 0C4.31156 0 2.7 1.5668 2.7 3.5C2.7 5.4332 4.31156 7 6.3 7ZM8.82 7.875H8.35031C7.72594 8.15391 7.03125 8.3125 6.3 8.3125C5.56875 8.3125 4.87687 8.15391 4.24969 7.875H3.78C1.69312 7.875 0 9.52109 0 11.55V12.6875C0 13.4121 0.604687 14 1.35 14H11.25C11.9953 14 12.6 13.4121 12.6 12.6875V11.55C12.6 9.52109 10.9069 7.875 8.82 7.875Z"/>
</svg>
