<svg width="22" height="22" viewBox="0 0 22 22"  xmlns="http://www.w3.org/2000/svg">
  <path d="M11.2897 0.17464L12.262 1.15827C12.4921 1.39107 12.4921 1.76854 12.262 2.0014L4.64398 9.7083H21.4107C21.7361 9.7083 22 9.97523 22 10.3045V11.6955C22 12.0248 21.7361 12.2917 21.4107 12.2917H4.64398L12.262 19.9986C12.4921 20.2314 12.4921 20.6089 12.262 20.8418L11.2897 21.8254C11.0596 22.0582 10.6865 22.0582 10.4563 21.8254L0.172586 11.4216C-0.0575294 11.1888 -0.0575294 10.8113 0.172586 10.5785L10.4563 0.17464C10.6865 -0.0582133 11.0596 -0.0582133 11.2897 0.17464Z" />
</svg>
