<svg  viewBox="0 0 26 29"  xmlns="http://www.w3.org/2000/svg">
<path d="M22.9004 3.30001H20.2004V1.27501C20.2004 0.903756 19.8966 0.600006 19.5254 0.600006H19.0754C18.7041 0.600006 18.4004 0.903756 18.4004 1.27501V3.30001H7.60039V1.27501C7.60039 0.903756 7.29664 0.600006 6.92539 0.600006H6.47539C6.10414 0.600006 5.80039 0.903756 5.80039 1.27501V3.30001H3.10039C1.60977 3.30001 0.400391 4.50938 0.400391 6.00001V25.8C0.400391 27.2906 1.60977 28.5 3.10039 28.5H22.9004C24.391 28.5 25.6004 27.2906 25.6004 25.8V6.00001C25.6004 4.50938 24.391 3.30001 22.9004 3.30001ZM3.10039 5.10001H22.9004C23.3954 5.10001 23.8004 5.50501 23.8004 6.00001V8.70001H2.20039V6.00001C2.20039 5.50501 2.60539 5.10001 3.10039 5.10001ZM22.9004 26.7H3.10039C2.60539 26.7 2.20039 26.295 2.20039 25.8V10.5H23.8004V25.8C23.8004 26.295 23.3954 26.7 22.9004 26.7Z" />
<path fill-rule="evenodd" clip-rule="evenodd" d="M13.7688 17.2885C13.0616 16.804 12.7943 15.888 13.1297 15.0991L14.1242 12.7608C14.4632 11.9637 15.3218 11.521 16.1677 11.7073L17.9478 12.0993C18.7542 12.2769 19.3452 12.9838 19.3599 13.8204C19.3792 14.9128 19.3559 16.1326 18.9526 17.4846C18.5474 18.8433 17.7185 20.34 16.3171 21.9255C14.7772 23.3742 13.3951 24.1599 12.0778 24.5701C10.7715 24.9769 9.58764 24.9936 8.52907 24.9945C7.70335 24.9952 6.97947 24.4348 6.77611 23.6322L6.32882 21.8668C6.11603 21.0269 6.53173 20.1546 7.3181 19.791L9.62417 18.7244C10.402 18.3647 11.3255 18.6032 11.8319 19.2945L12.1176 19.6846C12.1176 19.6846 12.8068 19.5815 13.519 18.7244C14.2311 17.8674 14.1638 17.5591 14.1638 17.5591L13.7688 17.2885ZM14.5237 19.8292C13.2561 21.4174 11.3608 21.656 11.3608 21.656L10.3798 20.3582L8.07368 21.4247L8.52098 23.1901L8.5213 23.191L8.52304 23.1928L8.52558 23.1942L8.52754 23.1945C8.52098 23.1901 8.5213 23.191 8.52754 23.1945C8.52754 23.1945 12.6847 23.8211 15.4417 20.7021C18.0314 17.7723 17.5603 13.8571 17.5603 13.8571L15.7806 13.4652L14.7862 15.8036L16.1677 16.6694C16.1677 16.6694 15.7913 18.2409 14.5237 19.8292Z" />
</svg>
