<svg  viewBox="0 0 40 40" fill="none" xmlns="http://www.w3.org/2000/svg">
<circle cx="20" cy="20" r="20" fill="#F3F5F9"/>
<path d="M21.9095 20.0003L27.6786 14.2311L28.8684 13.0414C29.0439 12.8659 29.0439 12.5807 28.8684 12.4052L27.5954 11.1322C27.4199 10.9567 27.1347 10.9567 26.9592 11.1322L20.0003 18.0911L13.0414 11.1316C12.8659 10.9561 12.5807 10.9561 12.4052 11.1316L11.1316 12.4046C10.9561 12.5801 10.9561 12.8653 11.1316 13.0408L18.0911 20.0003L11.1316 26.9592C10.9561 27.1347 10.9561 27.4199 11.1316 27.5954L12.4046 28.8684C12.5801 29.0439 12.8653 29.0439 13.0408 28.8684L20.0003 21.9095L25.7695 27.6786L26.9592 28.8684C27.1347 29.0439 27.4199 29.0439 27.5954 28.8684L28.8684 27.5954C29.0439 27.4199 29.0439 27.1347 28.8684 26.9592L21.9095 20.0003Z" fill="#D3DAE8"/>
</svg>
