<svg  viewBox="0 0 26 26"    xmlns="http://www.w3.org/2000/svg">
<path fill-rule="evenodd" clip-rule="evenodd" d="M0.400391 3.09999C0.400391 1.60882 1.60922 0.399994 3.10039 0.399994H22.9004C24.3916 0.399994 25.6004 1.60883 25.6004 3.09999V18.4C25.6004 19.8912 24.3916 21.1 22.9004 21.1H15.1065L9.49913 25.4134C9.22736 25.6224 8.86042 25.6589 8.55281 25.5074C8.24521 25.356 8.05039 25.0429 8.05039 24.7V21.1H3.10039C1.60922 21.1 0.400391 19.8912 0.400391 18.4V3.09999ZM3.10039 2.19999C2.60333 2.19999 2.20039 2.60294 2.20039 3.09999V18.4C2.20039 18.8971 2.60333 19.3 3.10039 19.3H8.95039C9.44745 19.3 9.85039 19.7029 9.85039 20.2V22.8722L14.2517 19.4866C14.409 19.3656 14.6019 19.3 14.8004 19.3H22.9004C23.3974 19.3 23.8004 18.8971 23.8004 18.4V3.09999C23.8004 2.60294 23.3974 2.19999 22.9004 2.19999H3.10039ZM6.25039 8.04999C6.25039 7.55294 6.65333 7.14999 7.15039 7.14999H18.8504C19.3474 7.14999 19.7504 7.55294 19.7504 8.04999C19.7504 8.54705 19.3474 8.94999 18.8504 8.94999H7.15039C6.65333 8.94999 6.25039 8.54705 6.25039 8.04999ZM6.25039 13C6.25039 12.5029 6.65333 12.1 7.15039 12.1H14.3504C14.8474 12.1 15.2504 12.5029 15.2504 13C15.2504 13.4971 14.8474 13.9 14.3504 13.9H7.15039C6.65333 13.9 6.25039 13.4971 6.25039 13Z" />
</svg>
