<svg fill="none"  viewBox="0 0 12 12"  xmlns="http://www.w3.org/2000/svg"><path d="m7.27298 6.00019 3.84612-3.84612.7931-.79315c.1171-.11701.1171-.30714 0-.42414l-.8486-.8486522c-.117-.1170036-.3071-.1170036-.4241 0l-4.63931 4.6392722-4.63927-4.6396473c-.11701-.1170036-.30714-.1170036-.424141 0l-.8490263.8486513c-.1170036.117006-.1170036.307136 0 .424136l4.6396473 4.63965-4.6396473 4.63931c-.1170036.117-.1170036.3071 0 .4241l.8486513.8486c.117006.1171.307136.1171.424136 0l4.63965-4.63922 3.84612 3.84612.79319.7931c.117.1171.3071.1171.4241 0l.8486-.8486c.1171-.117.1171-.3071 0-.4241z" /></svg>
