<svg  viewBox="0 0 24 24"  xmlns="http://www.w3.org/2000/svg">
<path d="M12 0C18.629 0 24 5.37097 24 12C24 18.629 18.629 24 12 24C5.37097 24 0 18.629 0 12C0 5.37097 5.37097 0 12 0ZM12 21.6774C17.3468 21.6774 21.6774 17.3468 21.6774 12C21.6774 6.65323 17.3468 2.32258 12 2.32258C6.65323 2.32258 2.32258 6.65323 2.32258 12C2.32258 17.3468 6.65323 21.6774 12 21.6774ZM7.0742 8.99032L10.0839 12L7.0742 15.0097C6.84678 15.2371 6.84678 15.6048 7.0742 15.8323L8.16774 16.9258C8.39516 17.1532 8.7629 17.1532 8.99032 16.9258L12 13.9161L15.0097 16.9258C15.2371 17.1532 15.6048 17.1532 15.8323 16.9258L16.9258 15.8323C17.1532 15.6048 17.1532 15.2371 16.9258 15.0097L13.9161 12L16.9258 8.99032C17.1532 8.7629 17.1532 8.39516 16.9258 8.16774L15.8323 7.07419C15.6048 6.84677 15.2371 6.84677 15.0097 7.07419L12 10.0839L8.99032 7.07419C8.7629 6.84677 8.39516 6.84677 8.16774 7.07419L7.0742 8.16774C6.84678 8.39516 6.84678 8.7629 7.0742 8.99032Z" />
</svg>
