<svg viewBox="0 0 16 18"  xmlns="http://www.w3.org/2000/svg">
<path d="M15.4979 2.31824L13.645 0.494262C13.3235 0.177794 12.8874 2.34027e-06 12.4328 0L6.28571 0C5.33893 0 4.57143 0.755508 4.57143 1.6875V3.375H1.71429C0.7675 3.375 0 4.13051 0 5.0625V16.3125C0 17.2445 0.7675 18 1.71429 18H9.71429C10.6611 18 11.4286 17.2445 11.4286 16.3125V14.625H14.2857C15.2325 14.625 16 13.8695 16 12.9375V3.51148C16 3.06392 15.8194 2.6347 15.4979 2.31824ZM9.5 16.3125H1.92857C1.87174 16.3125 1.81723 16.2903 1.77705 16.2507C1.73686 16.2112 1.71429 16.1575 1.71429 16.1016V5.27344C1.71429 5.21749 1.73686 5.16384 1.77705 5.12428C1.81723 5.08472 1.87174 5.0625 1.92857 5.0625H4.57143V12.9375C4.57143 13.8695 5.33893 14.625 6.28571 14.625H9.71429V16.1016C9.71429 16.1575 9.69171 16.2112 9.65152 16.2507C9.61134 16.2903 9.55683 16.3125 9.5 16.3125ZM14.0714 12.9375H6.5C6.44317 12.9375 6.38866 12.9153 6.34848 12.8757C6.30829 12.8362 6.28571 12.7825 6.28571 12.7266V1.89844C6.28571 1.84249 6.30829 1.78884 6.34848 1.74928C6.38866 1.70972 6.44317 1.6875 6.5 1.6875H10.2857V4.78125C10.2857 5.24725 10.6695 5.625 11.1429 5.625H14.2857V12.7266C14.2857 12.7825 14.2631 12.8362 14.223 12.8757C14.1828 12.9153 14.1283 12.9375 14.0714 12.9375ZM14.2857 3.9375H12V1.6875H12.344C12.4008 1.6875 12.4553 1.70972 12.4955 1.74927L14.223 3.44971C14.2429 3.4693 14.2586 3.49255 14.2694 3.51815C14.2802 3.54374 14.2857 3.57117 14.2857 3.59887V3.9375Z" />
</svg>
