<svg  viewBox="0 0 16 18"  xmlns="http://www.w3.org/2000/svg">
<path d="M12.1867 2.8125L11.0533 0.819141C10.7633 0.309375 10.2433 0 9.68 0H6.32C5.75667 0 5.23667 0.309375 4.94667 0.819141L3.81333 2.8125H0.8C0.356667 2.8125 0 3.18867 0 3.65625V4.07812C0 4.31016 0.18 4.5 0.4 4.5H0.946667L2 16.4672C2.07667 17.3355 2.76667 18 3.59333 18H12.41C13.2367 18 13.9267 17.3355 14.0033 16.4672L15.0533 4.5H15.6C15.82 4.5 16 4.31016 16 4.07812V3.65625C16 3.18867 15.6433 2.8125 15.2 2.8125H12.1867ZM6.32 1.6875H9.68L10.32 2.8125H5.68L6.32 1.6875ZM12.4067 16.3125H3.59333L2.55333 4.5H13.4433L12.4067 16.3125Z" />
</svg>
