<svg width="28" height="28" viewBox="0 0 28 28" fill="none" xmlns="http://www.w3.org/2000/svg">
<path d="M14 1.80645C20.6963 1.80645 26.1936 7.23004 26.1936 14C26.1936 20.7342 20.7398 26.1936 14 26.1936C7.26848 26.1936 1.80645 20.7425 1.80645 14C1.80645 7.2708 7.25979 1.80645 14 1.80645ZM14 0C6.26856 0 0 6.27081 0 14C0 21.7337 6.26856 28 14 28C21.7314 28 28 21.7337 28 14C28 6.27081 21.7314 0 14 0Z" fill="#828282"/>
<path d="M16.2541 9.32C16.2541 8.936 16.0461 8.592 15.6301 8.288C15.2301 7.984 14.8221 7.832 14.4061 7.832C13.9901 7.832 13.6061 7.928 13.2541 8.12C12.9021 8.296 12.6461 8.512 12.4861 8.768C12.0381 9.408 11.6941 9.728 11.4541 9.728C10.7661 9.728 10.4221 9.392 10.4221 8.72C10.4221 8.112 10.8461 7.496 11.6941 6.872C12.5421 6.232 13.4301 5.912 14.3581 5.912C15.6701 5.912 16.7101 6.448 17.4781 7.52C17.8941 8.112 18.1021 8.712 18.1021 9.32C18.1021 10.376 17.6701 11.392 16.8061 12.368C16.4381 12.784 16.0701 13.176 15.7021 13.544C14.8221 14.424 14.3821 15.008 14.3821 15.296C14.3821 15.584 14.4941 15.904 14.7181 16.256C14.9261 16.608 15.0301 16.848 15.0301 16.976C15.0301 17.104 14.9901 17.248 14.9101 17.408C14.7181 17.696 14.4381 17.84 14.0701 17.84C13.7181 17.84 13.3581 17.6 12.9901 17.12C12.6221 16.624 12.4381 16.08 12.4381 15.488C12.4381 14.448 12.8301 13.504 13.6141 12.656C13.9821 12.256 14.3261 11.92 14.6461 11.648C15.7181 10.64 16.2541 9.864 16.2541 9.32ZM13.0141 20.984C13.0141 20.696 13.1181 20.432 13.3261 20.192C13.5501 19.952 13.8541 19.832 14.2381 19.832C14.6221 19.832 14.8941 19.904 15.0541 20.048C15.2301 20.192 15.3181 20.504 15.3181 20.984C15.3181 21.832 14.9341 22.256 14.1661 22.256C13.8781 22.256 13.6141 22.112 13.3741 21.824C13.1341 21.536 13.0141 21.256 13.0141 20.984Z" fill="#828282"/>
</svg>
