<svg  viewBox="0 0 30 30" fill="none" xmlns="http://www.w3.org/2000/svg">
<path d="M29.9997 15.0003C30.0001 16.0663 29.8877 17.1293 29.6642 18.1716C29.5703 18.6075 29.4579 19.0362 29.3268 19.4578C28.8255 21.0691 28.055 22.584 27.0481 23.9381C26.9407 24.0828 26.831 24.225 26.719 24.365C24.7641 26.8113 22.0934 28.5854 19.0807 29.439C18.6579 29.5578 18.2289 29.6584 17.7939 29.7409C15.9123 30.0937 13.9809 30.0866 12.1019 29.72C11.666 29.6354 11.2373 29.5316 10.8158 29.4085C9.25295 28.9552 7.77478 28.2492 6.43981 27.3187C6.32269 27.2375 6.20706 27.1544 6.0929 27.0694C3.52381 25.1728 1.62581 22.5069 0.674302 19.4584C0.543657 19.0356 0.431193 18.6069 0.336908 18.1722C-0.0646284 16.2998 -0.107668 14.3682 0.210069 12.4798C0.283636 12.0439 0.376017 11.6149 0.487214 11.1929C0.925576 9.51682 1.65291 7.93004 2.63651 6.50391C2.71706 6.38657 2.7995 6.26987 2.88449 6.15507C3.29416 5.59361 3.7428 5.06164 4.22709 4.56311C6.04061 2.6889 8.3116 1.32017 10.8158 0.592075C11.2386 0.469877 11.6673 0.366071 12.1019 0.280659C12.9406 0.116024 13.7919 0.0237187 14.6463 0.00476074H14.8366C14.8924 0.00476074 14.9476 0.00476074 15.0034 0.00476074H15.025C15.955 0.00564416 16.883 0.0926968 17.797 0.264803C18.2313 0.342181 18.6591 0.441124 19.0807 0.561631C20.8071 1.04973 22.4316 1.84465 23.8765 2.90835C23.9906 2.99271 24.1042 3.07833 24.2158 3.16586C24.7631 3.592 25.28 4.05592 25.7626 4.55423C27.5641 6.40683 28.8558 8.69404 29.512 11.1935C29.6223 11.6164 29.7145 12.0451 29.7885 12.4798C29.9293 13.3126 29.9999 14.1557 29.9997 15.0003Z" fill="white"/>
<path d="M7.32836 11.1913H0.490417C0.92878 9.51523 1.65611 7.92845 2.63972 6.50232L7.32836 11.1913Z" fill="#29337A"/>
<path d="M10.8158 0.591797V7.70363L6.07137 2.95881L6.06439 2.95184C7.49489 1.88823 9.10402 1.08898 10.8158 0.591797Z" fill="#29337A"/>
<path d="M10.8158 22.9434V29.4083C9.25296 28.9549 7.77479 28.249 6.43982 27.3184L10.8158 22.9434Z" fill="#29337A"/>
<path d="M7.32768 19.4568L2.90858 23.8762C1.92359 22.5375 1.16869 21.0439 0.674927 19.4568H7.32768Z" fill="#29337A"/>
<path d="M10.8158 19.4117L10.7708 19.4568H10.8158V19.4117Z" fill="#D32030"/>
<path d="M12.0569 18.1705H12.1019V18.1249L12.0569 18.1705Z" fill="#D32030"/>
<path d="M17.8376 12.4783H17.7945V12.522L17.8376 12.4783Z" fill="#D32030"/>
<path d="M10.8601 11.1919L10.8157 11.1469V11.1919H10.8601Z" fill="#D32030"/>
<path d="M12.102 12.4337V12.4781H12.1464L12.102 12.4337Z" fill="#D32030"/>
<path d="M23.4985 27.3621C22.1498 28.292 20.6572 28.9935 19.0807 29.4387V22.944L23.4985 27.3621Z" fill="#29337A"/>
<path d="M29.3268 19.4568C28.8255 21.0681 28.0551 22.583 27.0482 23.9371L22.5682 19.4568H29.3268Z" fill="#252F6C"/>
<path d="M29.512 11.1919H22.5662L27.3189 6.43945C28.3244 7.8819 29.0668 9.49082 29.512 11.1919Z" fill="#252F6C"/>
<path d="M23.8765 2.90673L20.2571 6.5264L19.0813 7.70166V0.561279C20.8075 1.04906 22.4317 1.84354 23.8765 2.90673Z" fill="#252F6C"/>
<path d="M21.0721 18.716C21.0892 18.5352 21.1051 18.3538 21.1196 18.1705H20.5267L21.0721 18.716Z" fill="white"/>
<path d="M20.5282 18.1662L20.7819 18.4199L21.073 18.711L21.8137 19.4518L26.7199 24.359C26.2872 24.9005 25.8172 25.411 25.3133 25.8869L20.7324 21.3063L20.2638 20.8376L17.7961 18.3691V29.7361C15.9145 30.0889 13.9831 30.0818 12.1041 29.7152V21.0558L6.0951 27.0647C5.53576 26.6521 5.00596 26.2009 4.5096 25.7144L12.0566 18.1668H0.339106C-0.0624312 16.2944 -0.105471 14.3628 0.212266 12.4744H9.21346L7.92667 11.1881L2.89683 6.15665L2.88922 6.14777C3.2989 5.58631 3.74754 5.05434 4.23182 4.55581L12.1035 12.4268V0.275898C12.9422 0.111263 13.7934 0.0189579 14.6479 0H14.8382C14.894 0 14.9492 0 15.005 0H15.0265C15.9566 0.000883419 16.8846 0.0879361 17.7986 0.260042V9.58223L20.0094 7.37124L20.3811 6.99957L24.2174 3.15983C24.7647 3.58597 25.2816 4.04989 25.7642 4.5482L20.4064 9.90633L17.8392 12.4738H29.7901C30.1078 14.3622 30.0648 16.2938 29.6632 18.1662H20.5282Z" fill="#D32030"/>
</svg>
