<svg width="30" height="30" viewBox="0 0 30 30" fill="none" xmlns="http://www.w3.org/2000/svg">
<mask id="mask0" mask-type="alpha" maskUnits="userSpaceOnUse" x="0" y="0" width="30" height="30">
<circle cx="15" cy="15" r="15" fill="#C4C4C4"/>
</mask>
<g mask="url(#mask0)">
<path d="M42.36 0H3.42927C1.53528 0 0 1.53528 0 3.42927V26.5707C0 28.4646 1.53528 30 3.42927 30H42.36C44.2539 30 45.7892 28.4647 45.7892 26.5707V3.42927C45.7892 1.53528 44.254 0 42.36 0Z" fill="#FF4B55"/>
<path d="M18.3612 12.0482L19.6919 13.7158L21.7697 13.0495C21.8859 13.0122 21.9847 13.1382 21.9152 13.2347L20.6709 14.9624L21.9744 16.6497C22.0473 16.7441 21.9529 16.8729 21.8356 16.8394L19.7358 16.2396L18.4637 17.9486C18.3926 18.0441 18.2353 17.998 18.2323 17.8807L18.1789 15.7822L16.0892 15.1512C15.9724 15.1159 15.9696 14.9585 16.0852 14.9195L18.1519 14.2224L18.1325 12.1234C18.1312 12.0061 18.2868 11.955 18.3612 12.0482Z" fill="#F5F5F5"/>
<path d="M12.9304 20.5666C9.80621 20.5666 7.27193 18.0583 7.27193 14.9633C7.27193 11.8741 9.80629 9.36006 12.9304 9.36006C14.0927 9.36006 15.1646 9.71388 16.058 10.3127C16.1948 10.4044 16.3509 10.2265 16.2364 10.1087C14.9014 8.73488 13.0119 7.8968 10.9168 7.96753C7.31744 8.08909 4.33771 10.9454 4.10769 14.5026C3.84427 18.5772 7.10393 21.9634 11.1624 21.9634C13.1615 21.9634 14.9583 21.1362 16.2413 19.8136C16.3546 19.6967 16.1982 19.5215 16.0627 19.6124C15.1684 20.2125 14.0947 20.5666 12.9304 20.5666Z" fill="#F5F5F5"/>
</g>
</svg>
