<svg width="18" height="14" viewBox="0 0 18 14" fill="none" xmlns="http://www.w3.org/2000/svg">
<path d="M6.27707 7C8.25828 7 9.86397 5.4332 9.86397 3.5C9.86397 1.5668 8.25828 0 6.27707 0C4.29587 0 2.69017 1.5668 2.69017 3.5C2.69017 5.4332 4.29587 7 6.27707 7Z" fill="#FFA08C"/>
<path d="M8.7879 7.875H8.31992C7.69782 8.15391 7.00566 8.3125 6.27707 8.3125C5.54848 8.3125 4.85913 8.15391 4.23422 7.875H3.76624C1.68696 7.875 0 9.52109 0 11.55V12.6875C0 13.4121 0.602487 14 1.34509 14H11.2091C11.9517 14 12.5541 13.4121 12.5541 12.6875V11.55C12.5541 11.5314 12.5544 11.5157 12.5548 11.5018C12.5573 11.4128 12.4936 11.3403 12.4089 11.3128C12.212 11.2486 12.0344 11.1416 11.8786 10.991L11.8759 10.9884C11.6035 10.7149 11.3982 10.4036 11.3982 9.8463C11.3982 9.62605 11.4419 9.42257 11.5288 9.23808C11.5661 9.15899 11.56 9.06362 11.5 9C10.8116 8.26992 9.88423 7.875 8.7879 7.875Z" fill="#FFA08C"/>
<path d="M15.3565 1C15.9378 1 16.3966 1.49395 16.3538 2.07368L16.022 6.56386C15.9931 6.95557 15.6668 7.2586 15.2741 7.2586H14.0844C13.6877 7.2586 13.3597 6.94977 13.3357 6.55385L13.0641 2.06034C13.0293 1.48538 13.4863 1 14.0623 1H15.3565ZM15.9707 9.52866C15.9707 9.73418 15.931 9.92569 15.8516 10.1032C15.7722 10.2807 15.6648 10.4348 15.5293 10.5656C15.3985 10.7011 15.2444 10.8062 15.0669 10.8809C14.8894 10.9603 14.7002 11 14.4994 11C14.2938 11 14.1023 10.9603 13.9248 10.8809C13.7473 10.8062 13.5909 10.7011 13.4554 10.5656C13.3246 10.4348 13.2195 10.2807 13.1401 10.1032C13.0654 9.92569 13.028 9.73418 13.028 9.52866C13.028 9.32781 13.0654 9.1363 13.1401 8.95414C13.2195 8.77197 13.3246 8.6155 13.4554 8.48471C13.5909 8.34926 13.7473 8.24183 13.9248 8.16242C14.1023 8.08301 14.2938 8.04331 14.4994 8.04331C14.7002 8.04331 14.8894 8.08301 15.0669 8.16242C15.2444 8.24183 15.3985 8.34926 15.5293 8.48471C15.6648 8.6155 15.7722 8.77197 15.8516 8.95414C15.931 9.1363 15.9707 9.32781 15.9707 9.52866Z" fill="#FFA08C"/>
</svg>
