<svg  viewBox="0 0 40 28"  xmlns="http://www.w3.org/2000/svg">
<path d="M34 12C36.7625 12 39 9.7625 39 7C39 4.2375 36.7625 2 34 2C31.2375 2 29 4.2375 29 7C29 9.7625 31.2375 12 34 12ZM34 4C35.6562 4 37 5.34375 37 7C37 8.65625 35.6562 10 34 10C32.3438 10 31 8.65625 31 7C31 5.34375 32.3438 4 34 4ZM20 14C23.8687 14 27 10.8687 27 7C27 3.13125 23.8687 0 20 0C16.1313 0 13 3.13125 13 7C13 10.8687 16.1313 14 20 14ZM20 2C22.7563 2 25 4.24375 25 7C25 9.75625 22.7563 12 20 12C17.2437 12 15 9.75625 15 7C15 4.24375 17.2437 2 20 2ZM35.25 14H32.75C31.8 14 30.9187 14.3 30.1812 14.8062C30.7687 15.2062 31.3 15.675 31.7687 16.2062C32.075 16.075 32.4062 16 32.75 16H35.25C36.7625 16 38 17.3438 38 19C38 19.55 38.45 20 39 20C39.55 20 40 19.55 40 19C40 16.2437 37.8688 14 35.25 14ZM6 12C8.7625 12 11 9.7625 11 7C11 4.2375 8.7625 2 6 2C3.2375 2 1 4.2375 1 7C1 9.7625 3.2375 12 6 12ZM6 4C7.65625 4 9 5.34375 9 7C9 8.65625 7.65625 10 6 10C4.34375 10 3 8.65625 3 7C3 5.34375 4.34375 4 6 4ZM25.0063 15.25C22.9188 15.25 22.4 16 20 16C17.6 16 17.0812 15.25 14.9937 15.25C12.725 15.25 10.5188 16.2625 9.225 18.1812C8.45 19.3312 8 20.7125 8 22.2V25C8 26.6562 9.34375 28 11 28H29C30.6562 28 32 26.6562 32 25V22.2C32 20.7125 31.55 19.3312 30.775 18.1812C29.4812 16.2625 27.275 15.25 25.0063 15.25ZM30 25C30 25.55 29.55 26 29 26H11C10.45 26 10 25.55 10 25V22.2C10 21.1625 10.3063 20.1562 10.8813 19.3C11.7438 18.0187 13.2812 17.25 14.9875 17.25C16.7 17.25 17.3125 18 20 18C22.6875 18 23.3 17.25 25.0063 17.25C26.7125 17.25 28.25 18.0187 29.1125 19.3C29.6875 20.1562 29.9937 21.1625 29.9937 22.2V25H30ZM9.81875 14.8062C9.075 14.3 8.19375 14 7.25 14H4.75C2.13125 14 0 16.2437 0 19C0 19.55 0.45 20 1 20C1.55 20 2 19.55 2 19C2 17.3438 3.2375 16 4.75 16H7.25C7.59375 16 7.925 16.075 8.23125 16.2062C8.7 15.675 9.2375 15.2062 9.81875 14.8062Z" />
</svg>
