<svg  viewBox="0 0 18 14" xmlns="http://www.w3.org/2000/svg">
<path d="M6.3 7C8.28844 7 9.9 5.4332 9.9 3.5C9.9 1.5668 8.28844 0 6.3 0C4.31156 0 2.7 1.5668 2.7 3.5C2.7 5.4332 4.31156 7 6.3 7ZM8.82 7.875H8.35031C7.72594 8.15391 7.03125 8.3125 6.3 8.3125C5.56875 8.3125 4.87688 8.15391 4.24969 7.875H3.78C1.69313 7.875 0 9.52109 0 11.55V12.6875C0 13.4121 0.604688 14 1.35 14H11.25C11.9953 14 12.6 13.4121 12.6 12.6875V11.55C12.6 9.52109 10.9069 7.875 8.82 7.875ZM17.9044 4.36406L17.1225 3.5957C16.9931 3.46719 16.7822 3.46719 16.65 3.59297L13.7025 6.43672L12.4228 5.18438C12.2934 5.05586 12.0825 5.05586 11.9503 5.18164L11.16 5.94453C11.0278 6.07031 11.0278 6.27539 11.1572 6.40391L13.455 8.6543C13.5844 8.78281 13.7953 8.78281 13.9275 8.65703L17.9016 4.82344C18.0309 4.69492 18.0338 4.48984 17.9044 4.36406Z"/>
</svg>
