<svg  viewBox="0 0 16 16" fill="none" xmlns="http://www.w3.org/2000/svg">
<path d="M9.09154 0.400691V6.90846H15.5993C15.8208 6.90846 16 7.08771 16 7.30915V8.69085C16 8.91229 15.8208 9.09154 15.5993 9.09154H9.09154V15.5993C9.09154 15.8208 8.91229 16 8.69085 16H7.30915C7.08771 16 6.90846 15.8208 6.90846 15.5993V9.09154H0.400691C0.179247 9.09154 0 8.91229 0 8.69085V7.30915C0 7.08771 0.179247 6.90846 0.400691 6.90846H6.90846V0.400691C6.90846 0.179247 7.08771 0 7.30915 0H8.69085C8.91229 0 9.09154 0.179247 9.09154 0.400691Z" />
</svg>
