<svg width="30" height="30" viewBox="0 0 30 30" fill="none" xmlns="http://www.w3.org/2000/svg">
<path d="M18.1824 15.0005L27.7977 5.38517L29.7806 3.40229C30.0731 3.10978 30.0731 2.63446 29.7806 2.34195L27.659 0.22032C27.3665 -0.0721896 26.8912 -0.0721896 26.5986 0.22032L15.0005 11.8185L3.40229 0.219382C3.10978 -0.0731273 2.63446 -0.0731273 2.34195 0.219382L0.219382 2.34101C-0.0731273 2.63352 -0.0731273 3.10885 0.219382 3.40136L11.8185 15.0005L0.219382 26.5986C-0.0731273 26.8912 -0.0731273 27.3665 0.219382 27.659L2.34101 29.7806C2.63352 30.0731 3.10885 30.0731 3.40136 29.7806L15.0005 18.1824L24.6158 27.7977L26.5986 29.7806C26.8912 30.0731 27.3665 30.0731 27.659 29.7806L29.7806 27.659C30.0731 27.3665 30.0731 26.8912 29.7806 26.5986L18.1824 15.0005Z" fill="white"/>
</svg>
