<svg viewBox="-20 0 200 40" fill="none" xmlns="http://www.w3.org/2000/svg">
<path d="M75.2717 41.3076L79.5077 42C79.5077 42 80.6888 35.3403 80.799 33.9956L76.563 33.3032C76.2796 34.3638 75.2717 41.3076 75.2717 41.3076Z" fill="#6E46FF"/>
<path d="M84.5823 0.0407967C83.9131 -0.155312 81.9762 0.284941 79.2952 2.9264C69.965 12.6518 66.0164 28.3765 66.0164 28.3765C67.4572 29.2289 71.4334 30.0614 73.1026 30.3776C73.4963 28.6406 73.9333 26.9797 74.4057 25.3988C77.4213 26.5995 82.4643 27.572 85.6177 27.488C85.535 29.0889 85.3894 30.8098 85.161 32.5508C86.8145 32.8309 90.8301 33.4353 92.4717 33.1351C92.4717 33.1351 93.7355 16.646 88.2554 4.25512C86.3815 0.689143 85.2122 0.224899 84.5823 0.0407967ZM81.8266 20.5882C81.276 20.6651 80.7156 20.6227 80.1823 20.4637C79.6491 20.3047 79.1549 20.0326 78.7325 19.6656C78.31 19.2985 77.9688 18.8446 77.7313 18.3338C77.4937 17.823 77.3653 17.2669 77.3544 16.702C77.3229 13.8124 78.7716 12.0234 81.1416 11.8593C83.9603 11.6672 85.6335 13.2001 85.9051 15.7135C86.1728 18.1148 84.6926 20.256 81.8344 20.6002L81.8266 20.5882Z" fill="#6E46FF"/>
<path d="M69.0437 36.8812C69.8311 37.4775 71.5908 38.7662 72.6459 39.1705C73.6074 37.8107 74.4529 36.37 75.1733 34.8641L71.5751 32.7909C70.8235 34.2111 69.9778 35.5777 69.0437 36.8812Z" fill="#6E46FF"/>
<path d="M81.6139 36.0007C81.8285 37.6606 82.1587 39.303 82.602 40.9154C83.5547 40.9594 85.8499 40.3431 86.7672 40.0549C86.3302 38.5661 85.7869 35.1402 85.7869 35.1402L81.6139 36.0007Z" fill="#6E46FF"/>
<path d="M145.662 4.64736C142.414 4.44324 137.505 4.64736 134.245 4.69939C134.111 4.74341 134.592 26.9077 134.725 27.412C134.816 27.504 143.075 27.504 146.091 27.504C151.181 27.504 156 23.4097 156 15.8215C156.004 8.64957 150.886 4.69538 145.662 4.64736ZM143.426 20.6002C143.119 20.6002 142.638 20.6002 142.3 20.6002C141.867 20.6002 141.906 20.5522 141.883 20.2C141.883 19.5796 141.851 18.2389 141.835 16.4019C141.835 14.2207 141.871 12.4597 141.886 11.9714C141.886 11.8834 141.886 11.8393 142.056 11.8313C142.449 11.8313 143.477 11.8033 144.024 11.8313C146.386 11.9914 147.847 13.7804 147.815 16.67C147.803 19.1114 145.8 20.7002 143.426 20.6002Z" fill="#6E46FF"/>
<path d="M33.766 4.66734C32.3007 4.63528 30.8439 4.90176 29.4815 5.4511C28.1192 6.00044 26.8788 6.82152 25.8335 7.86591C24.7881 8.91031 23.9591 10.1569 23.3952 11.5322C22.8313 12.9075 22.5439 14.3836 22.55 15.8735C22.55 23.2937 27.534 27.7281 33.8526 27.7281C40.9743 27.592 45.1119 22.3411 45.1119 16.4619C45.1119 9.05376 40.0807 4.66734 33.766 4.66734ZM33.514 20.6002C32.9572 20.6115 32.4044 20.5026 31.8921 20.2807C31.3797 20.0588 30.9195 19.7289 30.5419 19.3128C30.1642 18.8967 29.8777 18.4039 29.7012 17.8669C29.5247 17.33 29.4624 16.761 29.5182 16.1977C29.8056 13.3241 31.4472 11.7112 33.8211 11.8233C36.6399 11.9554 38.1516 13.6683 38.124 16.1977C38.1122 18.6231 36.3958 20.6002 33.514 20.6002Z" fill="#6E46FF"/>
<path d="M60.0678 5.23165C59.8119 5.3197 56.0404 17.3264 56.0404 17.3264C56.0404 17.3264 52.269 5.28769 51.8359 5.18763C50.4265 4.85945 44.726 4.94351 44.726 5.30371C44.6827 6.57241 52.0997 27.1478 52.143 27.2399C52.5091 27.584 59.1741 27.7401 59.9379 27.2399C60.1583 27.0117 66.725 8.15729 67.3903 5.30371C67.4375 5.07959 61.3394 4.7874 60.0678 5.23165Z" fill="#6E46FF"/>
<path d="M119.526 7.68902C119.478 7.05667 115.825 4.18308 113.829 4.20709C111.034 7.40886 106.979 12.3796 105.404 14.3167C105.432 9.48202 105.404 5.1116 105.341 5.06758C105.164 4.88748 98.4006 4.61533 98.1329 5.06758C97.8652 5.51983 98.3139 27.1878 98.4006 27.3239C98.4872 27.46 104.995 27.556 105.172 27.2399C105.215 27.1638 105.255 25.8711 105.294 23.95C106.298 23.0335 108.337 21.1965 108.605 21.1485C108.959 21.1004 113.329 27.8882 113.679 27.9522C115.191 28.1764 120.309 25.9511 120.399 25.5989C120.49 25.2467 113.471 16.0337 113.471 16.0337C113.471 16.0337 119.569 8.32538 119.526 7.68902Z" fill="#6E46FF"/>
<path d="M122.624 5.11962C122.364 5.61989 123.057 27.2358 123.147 27.3719C123.238 27.508 129.604 27.552 129.777 27.2319C129.95 26.9117 130.009 5.15163 129.832 5.01555C129.655 4.87948 122.88 4.66336 122.624 5.11962Z" fill="#6E46FF"/>
<path d="M13.6803 5.30372C13.6803 6.03613 13.6488 10.5346 13.6291 15.2732C11.0111 11.3951 6.85387 5.30372 6.54286 5.30372C6.14918 5.01156 0.55497 5.0916 0.0510577 5.30372C-0.0709835 14.9411 0.0510616 27.0838 0.153419 27.2399C0.515606 27.6801 5.79091 27.6401 6.42868 27.2399C6.54678 27.1078 6.6019 21.4847 6.62552 17.7906C7.25147 18.7712 7.8066 19.6116 8.24359 20.1919C10.1648 22.7614 13.6882 27.3439 13.6882 27.3439C14.5937 27.6 18.7273 27.6721 20.0422 27.2519C20.2076 25.0346 20.3217 8.34939 20.3217 5.31571C18.9793 4.93951 15.4322 4.99155 13.6803 5.30372Z" fill="#6E46FF"/>
</svg>
