<svg  viewBox="0 0 21 16"  xmlns="http://www.w3.org/2000/svg">
<path d="M19.3904 12.6472C20.3927 11.6795 20.9941 10.4655 20.9941 9.14082C20.9941 6.28431 18.2058 3.92412 14.572 3.50279C13.4276 1.44611 10.7268 0 7.58135 0C3.39352 0 0.00024548 2.55657 0.00024548 5.71301C0.00024548 7.03414 0.601632 8.24816 1.60394 9.21937C1.04629 10.3156 0.244445 11.1654 0.229866 11.1796C0.000245487 11.4189 -0.0653603 11.7688 0.069496 12.0723C0.200707 12.3758 0.506868 12.5722 0.842186 12.5722C2.79213 12.5722 4.36667 11.8509 5.40543 11.1868C5.7371 11.2618 6.07607 11.3189 6.42596 11.3582C7.57406 13.4113 10.2712 14.8574 13.4166 14.8574C14.1747 14.8574 14.9037 14.7717 15.5962 14.6146C16.6349 15.2752 18.2058 16 20.1594 16C20.4947 16 20.7973 15.8036 20.9321 15.5001C21.0633 15.1966 21.0014 14.8467 20.7718 14.6075C20.7535 14.5932 19.948 13.7434 19.3904 12.6472ZM5.1831 9.96206L4.7676 10.2263C4.035 10.694 2.92699 11.2332 1.57114 11.3867C1.89188 10.9833 2.30738 10.4012 2.64634 9.72997L3.0254 8.98728L2.42401 8.40527C1.84814 7.85182 1.16657 6.93417 1.16657 5.71301C1.16657 3.19214 4.04593 1.1426 7.58135 1.1426C11.1168 1.1426 13.9961 3.19214 13.9961 5.71301C13.9961 8.23388 11.1168 10.2834 7.58135 10.2834C6.93623 10.2834 6.29111 10.212 5.66421 10.0692L5.1831 9.96206ZM16.2267 13.6541L15.8112 13.3899L15.3301 13.5006C14.7032 13.6434 14.0581 13.7148 13.413 13.7148C11.0402 13.7148 8.96636 12.79 7.85836 11.4189C11.915 11.3046 15.1625 8.79804 15.1625 5.71301C15.1625 5.3738 15.1151 5.0453 15.0422 4.72395C17.7903 5.24169 19.8278 7.02343 19.8278 9.14082C19.8278 10.362 19.1462 11.2796 18.5703 11.8331L17.9689 12.4151L18.3443 13.1542C18.6869 13.8291 19.1025 14.4111 19.4195 14.811C18.0673 14.661 16.9593 14.1183 16.2267 13.6541ZM14.849 4.09551C14.8527 4.10266 14.8527 4.1098 14.8563 4.11694C14.8527 4.1098 14.8527 4.10266 14.849 4.09551Z" />
</svg>
