<svg  viewBox="0 0 26 29"  xmlns="http://www.w3.org/2000/svg">
<path d="M13 26.7563C12.0066 26.7563 11.2 25.9727 11.2 25.0109H9.40004C9.40004 26.935 11.0155 28.5 13 28.5C14.9845 28.5 16.5999 26.935 16.5999 25.0109H14.8C14.8 25.9727 13.9933 26.7563 13 26.7563ZM24.7774 19.5758C23.2047 18.1252 22.0021 16.3258 22.0021 11.1801C22.0021 6.84307 18.4365 3.30598 13.9 2.87822V1.47188C13.9 0.99017 13.4972 0.600006 13 0.600006C12.5027 0.600006 12.1 0.99017 12.1 1.47188V2.87876C7.56351 3.30653 3.99788 6.84307 3.99788 11.1801C3.99788 16.3253 2.7947 18.1252 1.22197 19.5758C0.436171 20.3005 0.188112 21.3964 0.589168 22.3674C0.998662 23.3592 1.98415 24 3.10013 24H22.8998C24.0158 24 25.0013 23.3586 25.4108 22.3669C25.8118 21.3958 25.5632 20.3005 24.7774 19.5758ZM22.8998 22.2H3.10013C2.2997 22.2 1.89977 21.3588 2.46339 20.8389C4.42423 19.0303 5.79785 16.7247 5.79785 11.1806C5.79785 7.50897 9.01924 4.53751 13 4.53751C16.9802 4.53751 20.2021 7.50842 20.2021 11.1801C20.2021 16.7029 21.5639 19.0194 23.5366 20.8384C24.1024 21.3609 23.6969 22.2 22.8998 22.2Z" />
</svg>
