<svg width="18" height="28" viewBox="0 0 10 28" fill="none" xmlns="http://www.w3.org/2000/svg">
  <g clip-path="url(#clip0_3_10629)">
    <path d="M6.27063 27.5395L9.1426 28C9.1426 28 9.93188 23.5588 10.0155 22.6561L7.14357 22.1956C6.95589 22.9092 6.27063 27.5395 6.27063 27.5395Z" fill="#6E46FF"/>
    <path d="M15.056 2.83492C13.8012 0.459755 13.0068 0.149855 12.5827 0.0276411C12.1288 -0.103302 10.8157 0.189866 9.00073 1.95178C2.67629 8.43419 0.00146484 18.9162 0.00146484 18.9162C0.976974 19.4851 3.67071 20.0416 4.78953 20.2503C5.05432 19.09 5.35185 17.9829 5.67266 16.9302C7.71606 17.7406 11.1351 18.3771 13.2709 18.3226C13.2156 19.3956 13.1152 20.5384 12.961 21.6965C14.0834 21.885 16.8048 22.2872 17.9163 22.0872C17.9149 22.0872 18.7711 11.0909 15.056 2.83492ZM14.0194 14.8984C13.5728 15.0395 12.1724 15.0148 11.8654 14.9297C11.8654 14.9297 10.671 13.402 10.0206 12.5451C9.87513 12.3567 9.68453 12.0751 9.47139 11.7492C9.46412 12.9808 9.44593 14.8548 9.40519 14.8984C9.18696 15.0301 7.40107 15.0439 7.27959 14.8984C7.2374 14.8475 7.20684 10.7992 7.24467 7.58743C7.41489 7.51468 9.31645 7.48922 9.44448 7.58743H9.44957C9.54996 7.58743 10.959 9.61777 11.8451 10.9105C11.8516 9.3297 11.8625 7.83113 11.8625 7.58743C12.4561 7.48122 13.6586 7.46521 14.1125 7.58743C14.1111 8.59787 14.0732 14.1593 14.0194 14.8984Z" fill="#6E46FF"/>
    <path d="M2.05066 24.5868C2.57588 24.9839 3.77763 25.8445 4.49125 26.1144C5.19179 25.1054 5.64353 24.3903 6.20585 23.2424L3.76744 21.8602C3.76744 21.8602 2.81666 23.6265 2.05066 24.5868Z" fill="#6E46FF"/>
    <path d="M10.5706 23.9997C10.7313 25.4975 11.2391 27.2776 11.2391 27.2776C11.8851 27.3053 13.4396 26.8964 14.0623 26.7029C13.7648 25.7107 13.3974 23.4257 13.3974 23.4257L10.5706 23.9997Z" fill="#6E46FF"/>
  </g>
  <defs>
    <clipPath id="clip0_3_10629">
      <rect width="18" height="28" fill="white"/>
    </clipPath>
  </defs>
</svg>
