<svg width="18" height="28" viewBox="0 0 18 28" fill="none" xmlns="http://www.w3.org/2000/svg">
  <g clip-path="url(#clip0_49_1162)">
    <path d="M6.27051 27.5395L9.14248 28C9.14248 28 9.93176 23.5588 10.0154 22.656L7.14345 22.1956C6.95576 22.9092 6.27051 27.5395 6.27051 27.5395Z" fill="#6E46FF"/>
    <path d="M15.056 2.8348C13.8012 0.459641 13.0068 0.14974 12.5827 0.0275267C12.1288 -0.103416 10.8157 0.189751 9.00073 1.95166C2.67629 8.43408 0.00146484 18.9161 0.00146484 18.9161C0.976974 19.4849 3.67071 20.0415 4.78953 20.2502C5.05432 19.0899 5.35185 17.9827 5.67266 16.9301C7.71606 17.7405 11.1351 18.377 13.2709 18.3225C13.2156 19.3955 13.1152 20.5383 12.961 21.6964C14.0834 21.8848 16.8048 22.2871 17.9163 22.0871C17.9149 22.0871 18.7711 11.0908 15.056 2.8348ZM14.0194 14.8983C13.5728 15.0394 12.1724 15.0147 11.8654 14.9296C11.8654 14.9296 10.671 13.4019 10.0206 12.545C9.87513 12.3565 9.68453 12.075 9.47139 11.7491C9.46412 12.9807 9.44593 14.8547 9.40519 14.8983C9.18696 15.03 7.40107 15.0438 7.27959 14.8983C7.2374 14.8474 7.20684 10.7991 7.24467 7.58731C7.41489 7.51457 9.31645 7.4891 9.44448 7.58731H9.44957C9.54996 7.58731 10.959 9.61766 11.8451 10.9104C11.8516 9.32958 11.8625 7.83101 11.8625 7.58731C12.4561 7.4811 13.6586 7.4651 14.1125 7.58731C14.1111 8.59776 14.0732 14.1592 14.0194 14.8983Z" fill="#6E46FF"/>
    <path d="M2.05078 24.5866C2.576 24.9838 3.77775 25.8444 4.49138 26.1143C5.19191 25.1053 5.64365 24.3902 6.20597 23.2423L3.76756 21.8601C3.76756 21.8601 2.81679 23.6264 2.05078 24.5866Z" fill="#6E46FF"/>
    <path d="M10.5706 23.9997C10.7313 25.4976 11.2391 27.2777 11.2391 27.2777C11.8851 27.3053 13.4396 26.8965 14.0623 26.703C13.7648 25.7107 13.3974 23.4258 13.3974 23.4258L10.5706 23.9997Z" fill="#6E46FF"/>
  </g>
  <defs>
    <clipPath id="clip0_49_1162">
      <rect width="18" height="28" fill="white"/>
    </clipPath>
  </defs>
</svg>

