<svg viewBox="0 0 18 18" xmlns="http://www.w3.org/2000/svg">
<path d="M16.7521 0.805235L13.4407 0.0421957C13.3176 0.0140652 13.1981 0 13.0786 0C12.4459 0 11.8588 0.372729 11.6022 0.974018L10.0731 4.54307C9.79183 5.19711 9.98165 5.9707 10.5336 6.42078L11.9397 7.57062C10.9343 9.41668 9.41569 10.9357 7.57369 11.9379L6.42419 10.5314C6.11133 10.1516 5.64732 9.94413 5.17627 9.94413C4.96535 9.94413 4.75092 9.98633 4.54704 10.0742L0.975516 11.6003C0.2584 11.9062 -0.131796 12.6798 0.0404524 13.4393L0.803267 16.7517C0.972001 17.4866 1.61881 18 2.37108 18C10.98 18.0035 18 11.0307 18 2.37351C18 1.62102 17.4868 0.974018 16.7521 0.805235ZM2.43787 16.3157L1.70318 13.1264L5.15518 11.646L7.11319 14.0406C10.5863 12.4091 12.4072 10.5946 14.0383 7.1135L11.6444 5.15491L13.1243 1.70189L16.3127 2.4368C16.2775 10.0883 10.0871 16.2805 2.43787 16.3157ZM3.09523 7.31393C3.09523 7.62336 3.34833 7.87654 3.65767 7.87654H4.22012C4.52946 7.87654 4.78256 7.62336 4.78256 7.31393V4.78218H7.31356C7.6229 4.78218 7.876 4.52901 7.876 4.21957V3.65696C7.876 3.34753 7.6229 3.09435 7.31356 3.09435H4.78256V0.56261C4.78256 0.253174 4.52946 0 4.22012 0H3.65767C3.34833 0 3.09523 0.253174 3.09523 0.56261V3.09435H0.564229C0.254884 3.09435 0.0017844 3.34753 0.0017844 3.65696V4.21957C0.0017844 4.52901 0.254884 4.78218 0.564229 4.78218H3.09523V7.31393Z" />
</svg>
