<svg  viewBox="0 0 78 68" fill="none" xmlns="http://www.w3.org/2000/svg">
<path d="M78 17V60.7143C78 64.7366 74.7246 68 70.6875 68H7.3125C3.27539 68 0 64.7366 0 60.7143V17C0 12.9777 3.27539 9.71429 7.3125 9.71429H20.7188L22.5926 4.72054C23.659 1.88214 26.3859 0 29.4328 0H48.552C51.5988 0 54.3258 1.88214 55.3922 4.72054L57.2812 9.71429H70.6875C74.7246 9.71429 78 12.9777 78 17ZM57.2812 38.8571C57.2812 28.8089 49.0852 20.6429 39 20.6429C28.9148 20.6429 20.7188 28.8089 20.7188 38.8571C20.7188 48.9054 28.9148 57.0714 39 57.0714C49.0852 57.0714 57.2812 48.9054 57.2812 38.8571ZM52.4062 38.8571C52.4062 46.2188 46.3887 52.2143 39 52.2143C31.6113 52.2143 25.5938 46.2188 25.5938 38.8571C25.5938 31.4955 31.6113 25.5 39 25.5C46.3887 25.5 52.4062 31.4955 52.4062 38.8571Z" fill="#6E46FF"/>
</svg>
