<svg  viewBox="0 0 26 26" fill="none" xmlns="http://www.w3.org/2000/svg">
<path d="M25.345 15.2685L23.5692 14.2816C23.6808 13.4306 23.6808 12.5694 23.5692 11.7184L25.345 10.7315C25.8665 10.4417 26.118 9.84548 25.9465 9.28988C25.3358 7.3111 24.2488 5.52994 22.8134 4.06917C22.3977 3.64615 21.7342 3.55357 21.2104 3.84471L19.4372 4.83009C18.7279 4.3105 17.9532 3.87933 17.1315 3.54686V1.57516C17.1315 0.99173 16.7148 0.484624 16.125 0.350273C14.075 -0.116732 11.9254 -0.116784 9.87503 0.350273C9.28522 0.484624 8.86847 0.991677 8.86847 1.57516V3.54686C8.0468 3.87932 7.27211 4.31048 6.56285 4.83009L4.78965 3.84471C4.26572 3.55357 3.60229 3.64615 3.18662 4.06917C1.75116 5.52994 0.664158 7.31115 0.0534872 9.28988C-0.117995 9.84548 0.133538 10.4416 0.65501 10.7315L2.43082 11.7184C2.31919 12.5694 2.31919 13.4306 2.43082 14.2816L0.65501 15.2685C0.133538 15.5583 -0.117995 16.1545 0.0534872 16.7101C0.664158 18.6888 1.75116 20.4701 3.18662 21.9308C3.60234 22.3539 4.26578 22.4464 4.78965 22.1553L6.56285 21.17C7.2721 21.6896 8.04679 22.1207 8.86847 22.4531V24.4248C8.86847 25.0083 9.28517 25.5154 9.87503 25.6497C11.925 26.1167 14.0746 26.1168 16.125 25.6497C16.7148 25.5154 17.1315 25.0083 17.1315 24.4248V22.4531C17.9532 22.1207 18.7279 21.6895 19.4372 21.17L21.2104 22.1553C21.7342 22.4465 22.3977 22.3539 22.8134 21.9308C24.2488 20.4701 25.3358 18.6888 25.9465 16.7101C26.118 16.1545 25.8665 15.5584 25.345 15.2685ZM21.7793 20.5346L19.2574 19.1329C17.7878 20.3423 17.2666 20.6466 15.3889 21.2852V24.0886C13.8129 24.4015 12.1871 24.4015 10.6111 24.0886V21.2852C8.78019 20.6625 8.25012 20.3734 6.74255 19.1329L4.22074 20.5346C3.14741 19.3767 2.33171 18.0191 1.82854 16.553L4.35144 15.1513C3.99557 13.2947 3.9954 12.7062 4.35144 10.8487L1.82854 9.44704C2.33171 7.98092 3.14747 6.62325 4.22074 5.46479L6.74255 6.86753C8.2334 5.63913 8.76086 5.34396 10.6111 4.71472V1.91143C12.187 1.59796 13.813 1.59796 15.3889 1.91143V4.71477C17.2392 5.34406 17.7668 5.63929 19.2574 6.86758L21.7793 5.46484C22.8525 6.62325 23.6683 7.98092 24.1715 9.44709L21.6486 10.8488C22.0045 12.7058 22.0046 13.2938 21.6486 15.1513L24.1715 16.553C23.6683 18.0191 22.8526 19.3767 21.7793 20.5346ZM13 7.96776C10.1174 7.96776 7.77221 10.2252 7.77221 13C7.77221 15.7748 10.1174 18.0323 13 18.0323C15.8826 18.0323 18.2278 15.7748 18.2278 13C18.2278 10.2252 15.8826 7.96776 13 7.96776ZM13 16.3549C11.0782 16.3549 9.51481 14.8499 9.51481 13C9.51481 11.1501 11.0782 9.64518 13 9.64518C14.9218 9.64518 16.4852 11.1501 16.4852 13C16.4852 14.8499 14.9218 16.3549 13 16.3549Z" fill="#BDBDBD"/>
</svg>
