<svg width="32" height="32" viewBox="0 0 32 32"  xmlns="http://www.w3.org/2000/svg">
<path fill-rule="evenodd" clip-rule="evenodd" d="M16 32C24.8302 32 31.9897 24.8469 32 16.019V15.981C31.9897 7.15315 24.8302 0 16 0C7.16345 0 0 7.16344 0 16C0 24.8366 7.16345 32 16 32ZM23.9302 12.5206V11.9873C24.7169 11.4286 25.4021 10.7175 25.9604 9.90476C25.2244 10.2349 24.4377 10.4381 23.6003 10.5397C24.4377 10.0317 25.0975 9.24445 25.4021 8.30476C24.6154 8.7873 23.7526 9.11746 22.8136 9.29524C22.0523 8.50794 20.9865 8.0254 19.8192 8.0254C17.5607 8.0254 15.7335 9.82857 15.7335 12.0635C15.7335 12.3683 15.7589 12.673 15.8351 12.9778C12.4346 12.8 9.44013 11.2 7.40999 8.76191C7.05472 9.37143 6.85171 10.0571 6.85171 10.7937C6.85171 12.1905 7.58763 13.4349 8.67883 14.146C8.01903 14.1206 7.35924 13.9429 6.85171 13.6381V13.6889C6.85171 15.6444 8.24742 17.2698 10.0745 17.6508C9.74465 17.7524 9.364 17.8032 8.98335 17.8032C8.72958 17.8032 8.47581 17.7778 8.22205 17.727C8.75496 19.327 10.2522 20.4952 12.0539 20.5206C10.6582 21.6127 8.90722 22.2476 6.97859 22.2476C6.67081 22.2476 6.38512 22.2255 6.08031 22.2019C6.0584 22.2002 6.03639 22.1985 6.01427 22.1968C7.81602 23.3397 9.97304 24 12.2823 24C19.8192 24 23.9302 17.854 23.9302 12.5206Z" />
</svg>
