<svg width="32" height="32" viewBox="0 0 32 32"  xmlns="http://www.w3.org/2000/svg">
<path d="M19.4332 9.44283C19.5804 9.29539 19.7799 9.21223 19.9883 9.21152H21.9606C22.169 9.21223 22.3686 9.29537 22.5159 9.44279C22.6632 9.59021 22.7462 9.78992 22.7467 9.99831V11.878C22.7462 12.0864 22.6632 12.286 22.5159 12.4333C22.3686 12.5806 22.1689 12.6636 21.9606 12.6641H19.9883C19.78 12.6636 19.5804 12.5806 19.4332 12.4333C19.286 12.2859 19.2032 12.0863 19.2028 11.878V9.99831C19.2032 9.78998 19.286 9.59027 19.4332 9.44283Z" />
<path d="M21.2181 14.6539H22.7541L22.7534 22.0271C22.7533 22.2108 22.6802 22.3869 22.5503 22.5168C22.4204 22.6467 22.2443 22.7197 22.0606 22.7199H9.90631C9.72256 22.7197 9.54638 22.6467 9.41638 22.5168C9.28639 22.387 9.21319 22.2109 9.21283 22.0271V14.6539H10.816C10.6672 15.1395 10.5914 15.6445 10.5911 16.1523C10.6142 17.5686 11.1987 18.9177 12.216 19.9032C13.2334 20.8888 14.6004 21.43 16.0167 21.4081C17.4331 21.4302 18.8003 20.889 19.8178 19.9035C20.8353 18.9179 21.4199 17.5687 21.443 16.1523C21.4431 15.6445 21.3673 15.1394 21.2181 14.6539Z" />
<path d="M13.5601 13.5389C14.2178 12.9024 15.1015 12.5532 16.0167 12.5681C16.9311 12.5547 17.8134 12.9045 18.4701 13.5408C19.1268 14.1772 19.5043 15.048 19.5197 15.9624C19.5047 16.8774 19.127 17.7491 18.4697 18.386C17.8124 19.0228 16.9291 19.3726 16.014 19.3586C15.099 19.3726 14.2158 19.0227 13.5586 18.3859C12.9014 17.7491 12.5239 16.8774 12.509 15.9624C12.5242 15.0472 12.9023 14.1755 13.5601 13.5389Z" />
<path fill-rule="evenodd" clip-rule="evenodd" d="M16 32C24.8366 32 32 24.8366 32 16C32 7.16344 24.8366 0 16 0C7.16344 0 0 7.16344 0 16C0 24.8366 7.16344 32 16 32ZM22.4869 7.27274H9.51359C8.91993 7.27451 8.35108 7.51107 7.93124 7.93079C7.51139 8.35051 7.27465 8.91929 7.27271 9.51295V22.4863C7.27465 23.0799 7.51141 23.6486 7.93128 24.0682C8.35114 24.4878 8.91999 24.7242 9.51359 24.7258H22.4869C23.0805 24.7244 23.6494 24.488 24.0692 24.0684C24.489 23.6487 24.7255 23.0799 24.7271 22.4863V9.51295C24.7255 8.9193 24.489 8.35042 24.0692 7.93064C23.6495 7.51086 23.0806 7.27433 22.4869 7.27274Z" />
</svg>
