<svg width="24" height="24" viewBox="0 0 24 24" fill="none" xmlns="http://www.w3.org/2000/svg">
<path d="M10.42 19.2857L5.77624 23.8117C5.51718 24.0627 5.09714 24.0627 4.83803 23.8117L0.194291 19.2857C-0.0647636 19.0347 -0.0647636 18.6276 0.194291 18.3766L0.585139 17.9978C0.844194 17.7468 1.26423 17.7468 1.52334 17.9978L4.36736 20.7797V0.642857C4.36736 0.287839 4.66439 0 5.03075 0H5.58358C5.94993 0 6.24697 0.287839 6.24697 0.642857V20.7797L9.09093 17.9978C9.34998 17.7468 9.77002 17.7468 10.0291 17.9978L10.42 18.3766C10.6791 18.6276 10.6791 19.0347 10.42 19.2857ZM17.8119 7.48098H21.2144L22.0712 9.85511C22.1167 9.98094 22.2013 10.09 22.3135 10.1671C22.4257 10.2443 22.5599 10.2857 22.6974 10.2857H23.3361C23.7955 10.2857 24.1158 9.84412 23.9602 9.42525L20.6189 0.42525C20.5727 0.300726 20.4879 0.193059 20.3762 0.11695C20.2645 0.040841 20.1313 -1.17259e-06 19.9947 0H19.0591C18.9225 -1.17259e-06 18.7893 0.040841 18.6776 0.11695C18.5659 0.193059 18.4811 0.300726 18.4349 0.42525L15.0936 9.42525C14.9381 9.84418 15.2584 10.2857 15.7178 10.2857H16.3409C16.6239 10.2857 16.8758 10.1117 16.968 9.85243L17.8119 7.48098ZM18.3745 5.81668L19.3736 3.07152C19.4207 2.93437 19.4717 2.77013 19.5211 2.60314C19.5692 2.77104 19.6195 2.9363 19.6672 3.07489L20.6524 5.81668H18.3745ZM18.182 22.2814C18.4471 21.9576 18.1169 22.406 23.3187 15.1264C23.3956 15.0188 23.4368 14.8911 23.4368 14.7602V14.3571C23.4368 14.0021 23.1398 13.7143 22.7734 13.7143H16.4801C16.1137 13.7143 15.8167 14.0021 15.8167 14.3571V14.7894C15.8167 15.1453 16.1148 15.4339 16.4821 15.4339C21.0076 15.4339 20.6967 15.4345 20.8073 15.4325C20.643 15.637 21.0596 15.0516 15.6784 22.5737C15.6013 22.6815 15.56 22.8094 15.56 22.9405V23.3571C15.56 23.7122 15.857 24 16.2234 24H22.8304C23.1968 24 23.4938 23.7122 23.4938 23.3571V22.9233C23.4938 22.5682 23.1968 22.2804 22.8304 22.2804C17.9917 22.2804 18.2989 22.2799 18.182 22.2814Z" fill="#BDBDBD"/>
</svg>
