<svg  viewBox="0 0 36 36"  xmlns="http://www.w3.org/2000/svg">
<path d="M26.5501 7.03086V5.1532H30.2892C31.7068 5.1532 32.8502 6.30581 32.8502 7.7203V12.6051C32.8502 14.0196 31.7068 15.1722 30.2892 15.1722H30.2138C30.185 15.1722 30.1578 15.185 30.1394 15.2071L28.7338 16.9002C28.1963 17.5477 27.2036 17.5477 26.666 16.9002L25.3896 15.3627C25.0584 14.9637 25.1133 14.3718 25.5122 14.0406C25.9111 13.7094 26.503 13.7643 26.8342 14.1633L27.6256 15.1165C27.6439 15.1386 27.6712 15.1514 27.6999 15.1514C27.7287 15.1514 27.7559 15.1386 27.7743 15.1165L28.85 13.8207C29.1267 13.4874 29.5375 13.2945 29.9707 13.2945H30.2892C30.6631 13.2945 30.9725 12.9894 30.9725 12.6051V7.7203C30.9725 7.33603 30.6631 7.03086 30.2892 7.03086L26.5501 7.03086Z" />
<path d="M3.15002 7.72084C3.15002 6.31188 4.28297 5.15317 5.70082 5.15317H9.45002V7.03083H5.70082C5.33876 7.03083 5.02769 7.33001 5.02769 7.72084V12.6074C5.02769 12.9982 5.33876 13.2974 5.70082 13.2974H6.0147C6.44959 13.2974 6.86173 13.4917 7.13842 13.8272L8.19921 15.1135C8.21757 15.1358 8.24491 15.1486 8.27377 15.1486C8.30262 15.1486 8.32997 15.1358 8.34833 15.1135L9.16496 14.1233C9.49486 13.7233 10.0866 13.6664 10.4866 13.9963C10.8866 14.3262 10.9434 14.9179 10.6136 15.3179L9.30765 16.9014C8.77102 17.5521 7.77652 17.5521 7.23989 16.9014L5.84514 15.2102C5.82679 15.1879 5.79944 15.175 5.77059 15.175H5.70082C4.28297 15.175 3.15002 14.0163 3.15002 12.6074V7.72084Z" />
<path fill-rule="evenodd" clip-rule="evenodd" d="M10.848 6.33043C10.848 4.76657 12.182 3.60001 13.6986 3.60001H22.3018C23.8184 3.60001 25.1524 4.76657 25.1524 6.33043L25.1524 11.4551C25.1524 13.019 23.8184 14.1855 22.3018 14.1855H20.8114L19.0689 16.1451C18.5044 16.7799 17.496 16.7799 16.9314 16.1451L15.1889 14.1855H13.6986C12.1819 14.1855 10.848 13.019 10.848 11.4551L10.848 6.33043ZM13.6986 5.47767C13.1006 5.47767 12.7257 5.91817 12.7257 6.33043L12.7256 11.4551C12.7256 11.8674 13.1006 12.3079 13.6986 12.3079H15.378C15.7939 12.3079 16.19 12.4857 16.4664 12.7965L18.0002 14.5213L19.5339 12.7965C19.8103 12.4857 20.2064 12.3079 20.6224 12.3079H22.3018C22.8998 12.3079 23.2747 11.8674 23.2747 11.4551L23.2748 6.33043C23.2748 5.91817 22.8998 5.47767 22.3018 5.47767H13.6986Z" />
<path fill-rule="evenodd" clip-rule="evenodd" d="M14.4725 21.6242C14.4725 19.676 16.0519 18.0966 18.0001 18.0966C19.9483 18.0966 21.5276 19.676 21.5276 21.6242C21.5276 23.5724 19.9483 25.1517 18.0001 25.1517C16.0519 25.1517 14.4725 23.5724 14.4725 21.6242ZM18.0001 19.9743C17.0889 19.9743 16.3502 20.713 16.3502 21.6242C16.3502 22.5354 17.0889 23.274 18.0001 23.274C18.9113 23.274 19.6499 22.5354 19.6499 21.6242C19.6499 20.713 18.9113 19.9743 18.0001 19.9743Z" />
<path d="M11.8839 30.4257C11.8839 28.1916 13.695 26.3804 15.9291 26.3804H20.071C22.3051 26.3804 24.1163 28.1916 24.1163 30.4257V31.4612C24.1163 31.9797 23.6959 32.4 23.1774 32.4C22.6589 32.4 22.2386 31.9797 22.2386 31.4612V30.4257C22.2386 29.2286 21.2681 28.2581 20.071 28.2581H15.9291C14.732 28.2581 13.7615 29.2286 13.7615 30.4257V31.4612C13.7615 31.9797 13.3412 32.4 12.8227 32.4C12.3042 32.4 11.8839 31.9797 11.8839 31.4612V30.4257Z" />
<path fill-rule="evenodd" clip-rule="evenodd" d="M25.3452 22.6596C25.3452 20.9974 26.6927 19.6498 28.355 19.6498C30.0172 19.6498 31.3647 20.9974 31.3647 22.6596C31.3647 24.3219 30.0172 25.6694 28.355 25.6694C26.6927 25.6694 25.3452 24.3219 25.3452 22.6596ZM28.355 21.5275C27.7297 21.5275 27.2228 22.0344 27.2228 22.6596C27.2228 23.2849 27.7297 23.7917 28.355 23.7917C28.9802 23.7917 29.4871 23.2849 29.4871 22.6596C29.4871 22.0344 28.9802 21.5275 28.355 21.5275Z" />
<path d="M25.3452 27.837C25.3452 27.3185 25.7655 26.8982 26.284 26.8982H28.4585C30.6354 26.8982 32.4002 28.6629 32.4002 30.8399V30.9434C32.4002 31.4619 31.9799 31.8822 31.4614 31.8822C30.9429 31.8822 30.5225 31.4619 30.5225 30.9434V30.8399C30.5225 29.6999 29.5984 28.7758 28.4585 28.7758H26.284C25.7655 28.7758 25.3452 28.3555 25.3452 27.837Z" />
<path fill-rule="evenodd" clip-rule="evenodd" d="M4.63551 22.6596C4.63551 20.9974 5.98304 19.6498 7.64529 19.6498C9.30755 19.6498 10.6551 20.9974 10.6551 22.6596C10.6551 24.3219 9.30755 25.6694 7.64529 25.6694C5.98304 25.6694 4.63551 24.3219 4.63551 22.6596ZM7.64529 21.5275C7.02004 21.5275 6.51317 22.0344 6.51317 22.6596C6.51317 23.2849 7.02004 23.7917 7.64529 23.7917C8.27054 23.7917 8.77741 23.2849 8.77741 22.6596C8.77741 22.0344 8.27054 21.5275 7.64529 21.5275Z" />
<path d="M3.60004 30.8399C3.60004 28.6629 5.3648 26.8982 7.54174 26.8982H9.71624C10.2347 26.8982 10.6551 27.3185 10.6551 27.837C10.6551 28.3555 10.2347 28.7758 9.71624 28.7758H7.54174C6.4018 28.7758 5.4777 29.6999 5.4777 30.8399V30.9434C5.4777 31.4619 5.05737 31.8822 4.53887 31.8822C4.02037 31.8822 3.60004 31.4619 3.60004 30.9434V30.8399Z" />
</svg>
