<svg fill="none"  viewBox="0 0 40 40"  xmlns="http://www.w3.org/2000/svg"><g clip-rule="evenodd"  fill-rule="evenodd"><path d="m13.9196 24 6.0804 5.1605 6.0805-5.1605c.6368.0385 2.5709.3074 4.3667 1.5202 1.8438 1.2453 3.5528 3.4918 3.5528 7.5523 0 1.6101-1.2829 2.9275-2.8772 2.9275h-22.24559c-1.59426 0-2.87719-1.3174-2.87719-2.9275 0-4.0605 1.71053-6.3069 3.55518-7.5523 1.7963-1.2127 3.7301-1.4816 4.3644-1.5202zm-5.04239 10.2694h10.26799v-3.5772l-5.7757-4.9035-.069.0122-.0018.0003-.0054.0008-.0179.0028c-.0147.0022-.0344.0053-.0587.0094-.0485.0081-.115.0201-.1968.0371-.1636.034-.3882.0884-.6533.1733-.5295.1696-1.223.4619-1.9128.9595-1.38655 1-2.74407 2.8203-2.74407 6.0884 0 .6648.53085 1.1969 1.16748 1.1969zm11.97769-3.5772v3.5772h10.2679c.6367 0 1.1675-.5321 1.1675-1.1969 0-3.2681-1.3575-5.0884-2.744-6.0884-.6899-.4976-1.3833-.7899-1.9129-.9595-.265-.0849-.4897-.1393-.6532-.1733-.0818-.017-.1483-.029-.1969-.0371-.0242-.0041-.0439-.0072-.0586-.0094l-.0179-.0028-.0054-.0008-.0019-.0003-.0689-.0122z"/><path d="m13.9196 24 6.0804 5.1605 6.0805-5.1605c.6368.0385 2.5709.3074 4.3667 1.5202 1.8438 1.2453 3.5528 3.4918 3.5528 7.5523 0 1.6101-1.2829 2.9275-2.8772 2.9275h-22.24559c-1.59426 0-2.87719-1.3174-2.87719-2.9275 0-4.0605 1.71053-6.3069 3.55518-7.5523 1.7963-1.2127 3.7301-1.4816 4.3644-1.5202zm6.0804 5.0293 6.0464-5.1315.0402.0024c.647.0391 2.6007.3107 4.4166 1.5371 1.8708 1.2636 3.5968 3.5408 3.5968 7.6352 0 1.6634-1.3258 3.0275-2.9772 3.0275h-22.24559c-1.65139 0-2.97719-1.3641-2.97719-3.0275 0-4.0944 1.72762-6.3716 3.59923-7.6351 1.81635-1.2263 3.76975-1.498 4.41425-1.5372l.0401-.0024zm-6.7067-3.2273-.0179.0028c-.0147.0022-.0344.0053-.0587.0094-.0485.0081-.115.0201-.1968.0371-.1636.034-.3882.0884-.6533.1733-.5295.1696-1.223.4619-1.9128.9595-1.38655 1-2.74407 2.8203-2.74407 6.0884 0 .6648.53085 1.1969 1.16748 1.1969h10.26799v-3.5772l-5.7757-4.9035-.069.0122-.0018.0003zm.0473.0933-.0239.0043-.0019.0003-.0061.0009-.0181.0028c-.0144.0022-.0337.0053-.0574.0092-.0474.008-.1126.0197-.1929.0364-.1607.0334-.3819.087-.6431.1706-.5223.1673-1.2056.4554-1.8849.9454-1.36116.9817-2.70257 2.7721-2.70257 6.0073 0 .6112.48776 1.0969 1.06748 1.0969h10.16799v-3.4309zm13.3589-.0944-.0689-.0122-5.7757 4.9035v3.5772h10.2679c.6367 0 1.1675-.5321 1.1675-1.1969 0-3.2681-1.3575-5.0884-2.744-6.0884-.6899-.4976-1.3833-.7899-1.9129-.9595-.265-.0849-.4897-.1393-.6532-.1733-.0818-.017-.1483-.029-.1969-.0371-.0242-.0041-.0439-.0072-.0586-.0094l-.0179-.0028-.0054-.0008zm.0099.1027-.0178-.0027-.0057-.0009-.0039-.0006-.0226-.0041-5.7045 4.8432v3.4309h10.1679c.5798 0 1.0675-.4857 1.0675-1.0969 0-3.2352-1.3414-5.0256-2.7025-6.0073-.6793-.49-1.3626-.7781-1.8849-.9454-.2612-.0836-.4825-.1372-.6431-.1706-.0803-.0167-.1455-.0284-.193-.0364-.0237-.0039-.0429-.007-.0574-.0092z"/><path d="m33.1511 8.69646c0-.74728-.5134-1.36438-1.2704-1.58651l-10.7252-3.14366c-.7575-.22171-1.553-.22169-2.3105.00002l-10.72513 3.14363c-.75744.22212-1.27087.83922-1.27087 1.58652 0 .74728.51349 1.36444 1.27052 1.58654l.96707.2833c-.071.1491-.12908.3037-.17438.4627-.4457.2298-.76811.665-.76811 1.1897 0 .5052.29813.9283.71872 1.1643l-.7043 3.9568c-.04119.2317.00776.4616.12092.6378.11309.176.30138.3116.53495.3116h1.64921c.2335 0 .4219-.1356.5351-.3116.1132-.1761.1622-.4062.1208-.638l-.7039-3.9566c.4206-.2359.7187-.6591.7187-1.1643 0-.4112-.2054-.7561-.4984-.9977.0287-.0583.0622-.1152.1-.1715l1.8546.5437-.4504 2.3817-.0037-.0022-.0637.2685c-.1373.5789-.2098 1.1819-.2098 1.8012 0 4.3944 3.6477 7.9487 8.1372 7.9487 4.4894 0 8.1371-3.5543 8.1371-7.9487 0-.5703-.0615-1.1268-.1785-1.6634l-.0564-.2588-.0135.0072-.4792-2.5342 4.471-1.3106c.7571-.2217 1.2705-.83889 1.2705-1.58614zm-11.9956 4.72974 4.6159-1.3528.4636 2.3478c-.1034.0725-.272.1648-.5145.266-.3166.1321-.7426.2726-1.2761.4012-1.0667.2572-2.5557.4649-4.4443.4649-1.8887 0-3.3777-.2077-4.4444-.4649-.5335-.1286-.9595-.2691-1.2761-.4012-.2425-.1012-.4111-.1935-.5145-.266l.464-2.3478 4.6159 1.3529.0151.0045c.1663.0501 1.1229.3386 2.2954-.0046zm4.3971 3.0049c.3117-.0942.6003-.197.8612-.3078-.0443 3.4141-2.8944 6.1763-6.4137 6.1763-3.5194 0-6.3695-2.7622-6.4138-6.1763.2609.1108.5495.2136.8612.3078 1.4297.432 3.3928.6963 5.5526.6963 2.1597 0 4.1228-.2643 5.5525-.6963zm-6.1956-4.5048-6.3115-1.85 6.8709-1.29841c.1955-.03331.4172-.10859.5875-.22999.1702-.12128.3292-.32302.2734-.59363-.0879-.42788-.4827-.69588-.93-.61876l-8.2471 1.40152c-.4984.08455-.9476.27168-1.3382.52324l-1.6303-.47792c-.0436-.01285-.06497-.03174-.07498-.04464-.01025-.01321-.01413-.02692-.01391-.03997.00037-.02182.01489-.06587.0886-.08746l10.72509-3.14363c.5618-.16457 1.0359-.07329 1.2862 0l10.7251 3.14362c.0722.02115.0881.06542.0886.08846.0003.01321-.0035.02669-.0134.03952-.0097.01254-.0308.03147-.0749.04443l-10.725 3.14362c-.421.1235-.8652.1235-1.2861 0z"/></g></svg>
