<svg  viewBox="0 0 20 20" fill="none" xmlns="http://www.w3.org/2000/svg">
<path d="M7.6 10C7.6 11.3802 8.675 12.5 10 12.5C11.325 12.5 12.4 11.3802 12.4 10C12.4 8.61979 11.325 7.5 10 7.5C8.675 7.5 7.6 8.61979 7.6 10ZM2.4 7.5C3.725 7.5 4.8 8.61979 4.8 10C4.8 11.3802 3.725 12.5 2.4 12.5C1.075 12.5 1.69609e-07 11.3802 1.09278e-07 10C4.89477e-08 8.61979 1.075 7.5 2.4 7.5ZM17.6 7.5C18.925 7.5 20 8.61979 20 10C20 11.3802 18.925 12.5 17.6 12.5C16.275 12.5 15.2 11.3802 15.2 10C15.2 8.61979 16.275 7.5 17.6 7.5Z" fill="#CAD2E3"/>
</svg>
