<svg  viewBox="0 0 10 12"  xmlns="http://www.w3.org/2000/svg">
<path d="M7.61667 1.875L6.90833 0.546094C6.72708 0.20625 6.40208 0 6.05 0H3.95C3.59792 0 3.27292 0.20625 3.09167 0.546094L2.38333 1.875H0.5C0.222917 1.875 0 2.12578 0 2.4375V2.71875C0 2.87344 0.1125 3 0.25 3H0.591667L1.25 10.9781C1.29792 11.557 1.72917 12 2.24583 12H7.75625C8.27292 12 8.70417 11.557 8.75208 10.9781L9.40833 3H9.75C9.8875 3 10 2.87344 10 2.71875V2.4375C10 2.12578 9.77708 1.875 9.5 1.875H7.61667ZM3.95 1.125H6.05L6.45 1.875H3.55L3.95 1.125ZM7.75417 10.875H2.24583L1.59583 3H8.40208L7.75417 10.875Z" />
</svg>
