<svg width="32" height="32" viewBox="0 0 32 32" fill="none" xmlns="http://www.w3.org/2000/svg">
<path fill-rule="evenodd" clip-rule="evenodd" d="M16 32C24.8366 32 32 24.8366 32 16C32 7.16344 24.8366 0 16 0C7.16344 0 0 7.16344 0 16C0 24.8366 7.16344 32 16 32ZM13.8081 16.5693H11.9147C11.878 16.5693 11.8417 16.562 11.8079 16.5477C11.774 16.5335 11.7433 16.5127 11.7174 16.4864C11.6915 16.4602 11.6711 16.429 11.6572 16.3947C11.6433 16.3604 11.6362 16.3237 11.6364 16.2867V13.4241C11.6364 13.3495 11.6657 13.278 11.7179 13.2252C11.7701 13.1725 11.8409 13.1428 11.9147 13.1428H13.9024V11.0174C13.8355 10.5251 13.8907 10.0237 14.063 9.55823C14.2353 9.0928 14.5194 8.67792 14.8896 8.35087C15.6742 7.65917 16.6792 7.27639 17.7204 7.27272H20.0828C20.1195 7.27272 20.1559 7.28006 20.1898 7.29432C20.2237 7.30858 20.2544 7.32948 20.2803 7.35582C20.3062 7.38215 20.3266 7.4134 20.3405 7.44776C20.3544 7.48212 20.3614 7.51891 20.3611 7.55602V10.2185C20.3611 10.2931 20.3318 10.3647 20.2796 10.4174C20.2274 10.4702 20.1566 10.4998 20.0828 10.4998H18.4438C17.8679 10.4998 17.5762 10.7777 17.5762 11.3255V13.1415H20.0848C20.1241 13.1414 20.1629 13.1497 20.1988 13.1659C20.2347 13.1821 20.2667 13.2058 20.2929 13.2354C20.3191 13.265 20.3387 13.2999 20.3506 13.3377C20.3625 13.3756 20.3663 13.4155 20.3618 13.455L20.0296 16.3551C20.0218 16.4238 19.9892 16.4871 19.9381 16.5331C19.887 16.579 19.821 16.6043 19.7526 16.6042H17.5749V24.446C17.5749 24.5206 17.5456 24.5921 17.4934 24.6449C17.4412 24.6976 17.3704 24.7273 17.2965 24.7273H14.0864C14.0126 24.7273 13.9418 24.6976 13.8896 24.6449C13.8374 24.5921 13.8081 24.5206 13.8081 24.446V16.5693Z" fill="white"/>
</svg>
